<svg width="569" height="610" viewBox="0 0 569 610" fill="none" xmlns="http://www.w3.org/2000/svg">
<path d="M526.904 152.007C546.006 152.007 561.491 136.522 561.491 117.42C561.491 98.3174 546.006 82.832 526.904 82.832C507.802 82.832 492.316 98.3174 492.316 117.42C492.316 136.522 507.802 152.007 526.904 152.007Z" fill="#E1E1E1"/>
<path d="M528.485 151.196C546.712 151.196 561.489 136.419 561.489 118.192C561.489 99.9639 546.712 85.1875 528.485 85.1875C510.257 85.1875 495.48 99.9639 495.48 118.192C495.48 136.419 510.257 151.196 528.485 151.196Z" fill="#DBDBDB"/>
<path d="M559.275 120.73C560.677 103.717 548.021 88.7882 531.007 87.3864C513.993 85.9846 499.065 98.6405 497.663 115.654C496.261 132.668 508.917 147.596 525.931 148.998C542.944 150.4 557.873 137.744 559.275 120.73Z" fill="white"/>
<path opacity="0.5" d="M558.701 111.636C544.633 120.155 521.497 134.157 508.554 141.826C504.903 138.74 502.014 134.853 500.113 130.467L542.88 90.8281C546.877 92.93 550.365 95.8823 553.098 99.4771C555.832 103.072 557.744 107.222 558.701 111.636Z" fill="#E1E1E1"/>
<path opacity="0.5" d="M559.384 119.33C559.276 122.771 558.586 126.17 557.343 129.38L518.79 147.61C517.109 147.062 515.48 146.366 513.922 145.529C525.569 138.724 546.847 126.475 559.384 119.33Z" fill="#E1E1E1"/>
<path d="M528.801 89.5195H528.199V94.2045H528.801V89.5195Z" fill="#BFBFBF"/>
<path d="M514.416 93.1873L513.895 93.4883L516.237 97.5456L516.758 97.2446L514.416 93.1873Z" fill="#BFBFBF"/>
<path d="M503.781 103.566L503.48 104.087L507.538 106.429L507.839 105.908L503.781 103.566Z" fill="#BFBFBF"/>
<path d="M504.513 117.891H499.828V118.493H504.513V117.891Z" fill="#BFBFBF"/>
<path d="M507.557 129.9L503.5 132.242L503.801 132.764L507.858 130.421L507.557 129.9Z" fill="#BFBFBF"/>
<path d="M516.266 138.84L513.926 142.898L514.447 143.199L516.788 139.141L516.266 138.84Z" fill="#BFBFBF"/>
<path d="M528.801 142.179H528.199V146.864H528.801V142.179Z" fill="#BFBFBF"/>
<path d="M540.752 138.809L540.23 139.11L542.573 143.168L543.094 142.867L540.752 138.809Z" fill="#BFBFBF"/>
<path d="M549.387 129.894L549.086 130.415L553.143 132.758L553.444 132.236L549.387 129.894Z" fill="#BFBFBF"/>
<path d="M557.158 117.891H552.473V118.493H557.158V117.891Z" fill="#BFBFBF"/>
<path d="M553.17 103.577L549.113 105.92L549.414 106.441L553.471 104.098L553.17 103.577Z" fill="#BFBFBF"/>
<path d="M542.563 93.213L540.223 97.2715L540.744 97.5722L543.084 93.5137L542.563 93.213Z" fill="#BFBFBF"/>
<path d="M528.943 91.6391L529.964 120.272L527.02 120.233L528.145 91.626L528.943 91.6391Z" fill="#BFBFBF"/>
<path d="M546.781 108.207L527.517 120.495L526.117 117.93L546.401 107.5L546.781 108.207Z" fill="#A6A6A6"/>
<path d="M529.496 118.191C529.496 118.391 529.437 118.585 529.326 118.751C529.215 118.917 529.058 119.046 528.874 119.122C528.69 119.198 528.487 119.218 528.292 119.18C528.096 119.141 527.917 119.045 527.776 118.904C527.635 118.763 527.539 118.583 527.5 118.388C527.461 118.192 527.481 117.99 527.557 117.806C527.633 117.622 527.763 117.464 527.928 117.353C528.094 117.243 528.289 117.184 528.488 117.184C528.755 117.184 529.012 117.29 529.201 117.479C529.39 117.668 529.496 117.924 529.496 118.191Z" fill="#BFBFBF"/>
<path d="M412.148 429.885C412.148 429.885 432.642 425.24 443.87 414.901C455.098 404.563 461.367 386.02 461.367 386.02C453.579 387.507 445.901 389.523 438.387 392.052C435.574 394.948 433.23 398.263 431.438 401.88C431.265 399.541 431.265 397.192 431.438 394.853C428.817 395.987 426.365 397.475 424.149 399.276C414.779 407.429 412.148 429.885 412.148 429.885Z" fill="#DBDBDB"/>
<path d="M448.581 395.023C451.369 393.086 454.208 391.227 456.996 389.278C457.032 389.255 457.058 389.219 457.068 389.177C457.078 389.135 457.071 389.091 457.048 389.055C457.026 389.019 456.99 388.993 456.948 388.983C456.906 388.973 456.862 388.98 456.826 389.003C451.591 392.157 446.357 395.546 441.305 399.053C439.552 400.283 437.824 401.566 436.071 402.874L436.424 402.259C437.039 401.239 437.733 400.231 438.335 399.223C439.62 397.167 441.078 395.223 442.692 393.413C442.692 393.347 442.692 393.243 442.588 393.321C440.991 395.153 439.395 396.972 437.942 398.922C437.248 399.851 436.633 400.82 435.992 401.801C435.678 402.312 435.364 402.822 435.076 403.345L434.762 403.869C432.145 405.95 429.527 408.122 427.08 410.412C425.562 411.834 424.092 413.3 422.67 414.809C423.468 412.336 424.162 409.823 425.078 407.389C425.078 407.372 425.071 407.355 425.059 407.343C425.047 407.331 425.03 407.324 425.013 407.324C424.995 407.324 424.979 407.331 424.966 407.343C424.954 407.355 424.947 407.372 424.947 407.389C424.057 410.006 423.076 412.519 422.33 415.163C420.759 416.855 419.268 418.6 417.854 420.397C417.854 420.292 417.854 420.175 417.92 420.07C418.155 419.102 418.404 418.133 418.653 417.178C419.15 415.32 419.699 413.488 420.328 411.668C421.505 407.892 423.368 404.365 425.824 401.265C425.889 401.199 425.824 401.108 425.732 401.173C421.889 405.957 419.202 411.564 417.88 417.557C417.654 418.43 417.444 419.302 417.252 420.175C417.148 420.633 417.03 421.117 416.951 421.588C416.323 422.46 415.721 423.311 415.145 424.14C411.648 429.481 408.739 435.185 406.469 441.152C403.921 447.852 401.737 454.684 399.926 461.62C399.926 461.647 399.937 461.674 399.956 461.694C399.976 461.713 400.003 461.724 400.03 461.724C400.058 461.724 400.085 461.713 400.104 461.694C400.124 461.674 400.135 461.647 400.135 461.62C404.153 449.632 408.236 437.475 415.093 426.757C416.544 424.499 418.108 422.315 419.778 420.214C423.17 419.985 426.517 419.316 429.737 418.225C433.254 417.04 436.609 415.418 439.722 413.396C441.499 412.207 443.208 410.918 444.839 409.535C444.917 409.47 444.839 409.365 444.76 409.431C441.896 411.735 438.736 413.645 435.364 415.11C432.051 416.63 428.585 417.792 425.026 418.578C423.521 418.905 421.99 419.154 420.445 419.363C422.342 417.026 424.36 414.789 426.491 412.663C427.185 411.969 427.892 411.354 428.611 410.648C430.996 408.978 433.528 407.528 436.175 406.316C439.539 404.693 442.836 402.966 446.16 401.278C448.045 400.323 449.903 399.354 451.787 398.425C451.866 398.425 451.787 398.268 451.722 398.307C448.346 399.93 444.93 401.461 441.528 403.018C438.335 404.471 435.102 405.95 432.027 407.677L431.634 407.9C434.409 405.492 437.288 403.188 440.232 400.964C442.998 398.948 445.781 396.968 448.581 395.023Z" fill="#A6A6A6"/>
<path d="M447.417 405.584C445.742 406.317 444.054 406.958 442.405 407.73C440.756 408.502 439.094 409.457 437.484 410.413C437.419 410.413 437.484 410.544 437.55 410.518C439.185 409.732 440.834 408.999 442.457 408.188C444.08 407.377 445.755 406.461 447.456 405.715C447.535 405.689 447.495 405.545 447.417 405.584Z" fill="#A6A6A6"/>
<path d="M345.617 326.646C349.4 331.529 351.539 337.484 351.729 343.658C351.807 345.49 351.506 348.055 351.297 351.065C356.411 354.03 360.943 357.901 364.671 362.489C360.577 360.114 355.878 358.991 351.153 359.257C351.267 361.315 351.529 363.361 351.938 365.381C354.919 365.377 357.872 365.959 360.627 367.096C357.93 367.062 355.256 367.592 352.775 368.653C356.427 380.274 367.288 392.209 397.269 397.273C400.442 383.023 398.564 368.113 391.956 355.095C382.979 337.429 345.617 326.646 345.617 326.646Z" fill="#DBDBDB"/>
<path d="M407.632 446.99C407.126 442.025 406.48 437.079 405.695 432.149C404.179 422.273 402.161 412.481 399.649 402.81C398.485 398.269 397.047 393.803 395.344 389.435C395.435 388.64 395.475 387.84 395.461 387.04C395.461 386.072 395.461 385.117 395.461 384.148C395.461 382.238 395.357 380.314 395.187 378.403C394.88 374.612 394.263 370.852 393.341 367.162C392.792 365.029 392.164 362.922 391.536 360.815C391.536 360.798 391.529 360.781 391.516 360.769C391.504 360.757 391.487 360.75 391.47 360.75C391.453 360.75 391.436 360.757 391.424 360.769C391.412 360.781 391.405 360.798 391.405 360.815C392.396 364.499 393.135 368.246 393.616 372.03C394.148 375.762 394.485 379.518 394.624 383.285C394.624 384.318 394.624 385.339 394.624 386.373C394.624 386.805 394.624 387.25 394.624 387.682C393.158 384.093 391.475 380.597 389.586 377.212C386.535 371.855 383.102 366.725 379.313 361.862C379.306 361.296 379.227 360.733 379.077 360.187C378.933 359.52 378.789 358.878 378.632 358.185C378.327 356.815 377.987 355.454 377.612 354.102C376.866 351.38 375.884 348.763 374.994 346.08C374.994 346.062 374.987 346.046 374.975 346.034C374.963 346.021 374.946 346.014 374.929 346.014C374.911 346.014 374.895 346.021 374.883 346.034C374.87 346.046 374.863 346.062 374.863 346.08C375.662 348.697 376.172 351.484 376.787 354.18C377.088 355.489 377.389 356.798 377.677 358.198L378.109 360.213C378.104 360.261 378.104 360.309 378.109 360.357C376.892 358.826 375.662 357.321 374.392 355.842C368.673 349.129 362.392 342.939 356.071 336.788C355.299 336.029 354.501 335.297 353.716 334.551C353.65 334.485 353.559 334.551 353.624 334.655C359.657 340.95 365.598 347.323 371.225 353.984C372.534 355.567 373.843 357.177 375.151 358.8C374.471 358.329 373.843 357.884 373.11 357.491C371.369 356.353 369.603 355.24 367.784 354.22C365.965 353.199 364.133 352.204 362.261 351.288C360.39 350.372 358.335 349.548 356.425 348.475C356.346 348.475 356.281 348.566 356.359 348.592C358.253 349.473 360.081 350.487 361.829 351.628C363.648 352.715 365.48 353.801 367.26 354.939C369.04 356.078 370.794 357.151 372.495 358.289C373.96 359.245 375.387 360.279 376.905 361.142C380.379 365.612 383.587 370.284 386.51 375.132C388.32 378.183 389.976 381.323 391.47 384.541L390.397 384.07L387.649 382.853L382.349 380.536C378.986 379.084 375.57 377.736 372.272 376.126C370.413 375.256 368.616 374.259 366.894 373.143C366.815 373.143 366.75 373.208 366.828 373.26C372.966 377.5 379.915 380.484 386.667 383.494L389.612 384.803C390.423 385.156 391.235 385.562 392.072 385.876C394.085 390.379 395.778 395.019 397.137 399.76C399.826 409.305 402.01 418.985 403.68 428.76C405.394 438.549 406.559 448.39 407.462 458.309C407.566 459.539 407.684 460.783 407.815 462.013C407.815 462.117 407.856 462.217 407.93 462.29C408.004 462.364 408.104 462.405 408.208 462.405C408.312 462.405 408.412 462.364 408.485 462.29C408.559 462.217 408.6 462.117 408.6 462.013C408.679 456.961 408.155 451.989 407.632 446.99Z" fill="#A6A6A6"/>
<path d="M389.402 364.204C388.853 361.168 388.094 358.184 387.217 355.2C387.217 355.183 387.21 355.166 387.198 355.154C387.185 355.142 387.169 355.135 387.151 355.135C387.134 355.135 387.117 355.142 387.105 355.154C387.093 355.166 387.086 355.183 387.086 355.2C387.845 358.132 388.395 361.115 388.931 364.086C389.468 367.057 389.991 370.158 390.423 373.246H390.501C390.305 370.214 389.938 367.195 389.402 364.204Z" fill="#A6A6A6"/>
<path d="M376.486 372.474C374.391 371.105 372.205 369.881 369.943 368.81C368.843 368.247 367.731 367.711 366.632 367.174C365.533 366.638 364.302 366.154 363.177 365.591C363.098 365.591 363.02 365.669 363.112 365.709C364.198 366.258 365.245 366.926 366.318 367.515L369.642 369.334C371.799 370.587 374.017 371.732 376.29 372.762C376.328 372.788 376.375 372.798 376.42 372.789C376.466 372.781 376.506 372.755 376.532 372.716C376.558 372.678 376.568 372.631 376.559 372.586C376.55 372.54 376.524 372.5 376.486 372.474Z" fill="#A6A6A6"/>
<path opacity="0.1" d="M412.527 394.394C412.527 394.394 431.477 389.867 440.179 377.147C448.502 365.002 451.185 344.299 451.394 342.48C451.054 344.156 447.141 362.241 434.238 370.669C424.358 377.133 414.804 382.447 412.527 394.394Z" fill="#A6A6A6"/>
<path d="M430.023 361.639C426.652 364.74 424.229 368.733 423.035 373.155C423.035 373.155 423.035 373.155 423.035 373.155C424.433 368.841 426.843 364.924 430.063 361.731C430.18 361.678 430.089 361.574 430.023 361.639Z" fill="#A6A6A6"/>
<path d="M412.527 394.394C412.527 394.394 431.477 389.867 440.179 377.147C448.502 365.002 451.185 344.299 451.394 342.48C451.401 342.437 451.401 342.393 451.394 342.35C451.394 342.35 442.234 355.279 432.746 358.577C423.258 361.875 409.74 373.273 412.527 394.394Z" fill="#DBDBDB"/>
<path d="M448.058 349.482C446.362 352.968 444.402 356.319 442.195 359.506C439.967 362.535 437.324 365.236 434.343 367.528C431.726 369.57 429.109 371.454 426.491 373.43L426.557 373.339C427.041 372.606 427.564 371.912 428.114 371.219C429.187 369.832 430.378 368.523 431.569 367.227C433.924 364.676 436.332 362.163 438.439 359.376C439.615 357.844 440.637 356.201 441.488 354.468C441.488 354.39 441.397 354.35 441.357 354.468C438.282 360.88 432.132 364.937 427.761 370.381C427.134 371.148 426.549 371.947 426.007 372.776C425.57 373.379 425.201 374.028 424.908 374.713C422.509 376.639 420.34 378.835 418.443 381.256C418.609 380.014 418.863 378.785 419.202 377.579C419.641 375.89 420.319 374.272 421.217 372.776C421.217 372.698 421.139 372.619 421.1 372.698C420.179 374.198 419.437 375.801 418.888 377.474C418.488 378.805 418.255 380.181 418.194 381.57C417.262 382.824 416.41 384.135 415.643 385.496L415.878 384.279C416.245 382.395 416.663 380.51 417.187 378.639C418.079 374.844 419.619 371.231 421.741 367.96C421.741 367.96 421.675 367.816 421.623 367.882C419.454 371.116 417.753 374.64 416.572 378.351C415.97 380.209 415.486 382.107 415.067 384.004C414.857 384.946 414.661 385.876 414.491 386.818C414.399 387.302 414.295 387.799 414.216 388.297C412.337 392.426 410.869 396.731 409.832 401.148C407.982 409.054 406.64 417.07 405.815 425.148C404.829 433.595 404.392 442.098 404.506 450.601C404.506 451.661 404.585 452.734 404.637 453.794C404.637 454.069 405.069 454.108 405.082 453.794C405.265 449.581 405.37 445.38 405.618 441.179C405.867 436.978 406.233 432.764 406.691 428.577C407.541 420.34 408.852 412.156 410.617 404.066C412.149 397.143 414.138 390.155 417.933 384.083C419.819 381.064 422.123 378.328 424.777 375.956C427.394 373.574 430.339 371.481 433.139 369.269C435.976 367.114 438.554 364.637 440.821 361.888C443.134 358.824 445.149 355.546 446.841 352.099L448.149 349.482C448.215 349.482 448.097 349.404 448.058 349.482Z" fill="#A6A6A6"/>
<path d="M343 386.02C343 386.02 342.699 412.951 358.809 420.725C374.918 428.498 383.542 422.033 394.496 424.651C394.077 424.01 386.264 412.781 373.832 409.68C360.994 406.474 346.835 397.235 343 386.02Z" fill="#DBDBDB"/>
<path opacity="0.1" d="M343 386.02C343 386.02 342.699 412.951 358.809 420.725C374.918 428.498 383.542 422.033 394.496 424.651C388.713 421.89 382.529 420.066 376.175 419.246C365.967 418.003 346.56 411.381 343 386.02Z" fill="#A6A6A6"/>
<path d="M395.515 425.108C393.597 423.364 391.437 421.905 389.103 420.777C388.763 420.607 388.409 420.476 388.056 420.332C387.703 420.188 387.702 419.913 387.519 419.704C387.035 419.206 386.525 418.722 386.001 418.264C384.99 417.393 383.904 416.614 382.756 415.935C380.139 414.364 377.168 413.317 374.433 411.813C374.354 411.813 374.289 411.891 374.433 411.93C375.741 412.624 377.05 413.396 378.359 414.168C379.667 414.94 380.976 415.621 382.18 416.419C383.304 417.134 384.372 417.935 385.373 418.814C385.661 419.062 385.923 419.337 386.198 419.612C384.418 419.004 382.599 418.519 380.754 418.159C377.809 417.557 374.825 417.139 371.881 416.511C370.435 416.203 369.006 415.819 367.602 415.359C366.293 414.286 364.984 413.213 363.676 412.048C362.143 410.642 360.745 409.095 359.501 407.429C359.501 407.429 359.331 407.429 359.383 407.507C361.34 410.149 363.554 412.591 365.992 414.796C365.298 414.521 364.605 414.247 363.937 413.933C358.403 411.457 353.655 407.51 350.21 402.521C350.21 402.443 350.04 402.521 350.092 402.587C353.014 406.871 356.792 410.503 361.189 413.252C363.39 414.629 365.744 415.744 368.204 416.576C371.063 417.458 373.98 418.144 376.932 418.631C379.821 419.104 382.672 419.781 385.465 420.659C388.033 421.535 390.448 422.806 392.623 424.428C396.729 427.615 400.035 431.715 402.281 436.402C405.154 442.596 406.95 449.234 407.594 456.032C407.594 456.32 408.078 456.32 408.052 456.032C407.267 444.764 404.244 432.973 395.515 425.108Z" fill="#A6A6A6"/>
<path d="M376.814 416.393C375.974 415.136 374.837 414.106 373.503 413.396C371.981 412.596 370.644 411.486 369.577 410.137C369.577 410.059 369.407 410.137 369.459 410.203C370.428 411.437 371.606 412.491 372.94 413.317C374.405 414.097 375.696 415.165 376.735 416.458L376.814 416.393Z" fill="#A6A6A6"/>
<path d="M385.371 445L386.104 459.814L388.342 505.08H422.131L424.382 459.814L425.115 445H385.371Z" fill="#E1E1E1"/>
<path d="M385.371 445L386.104 459.814H424.382L425.115 445H385.371Z" fill="#DBDBDB"/>
<path d="M383.002 452.956H427.496V438.823H383.002V452.956Z" fill="#E1E1E1"/>
<path d="M0.417969 505.08L70.2473 504.753L140.064 504.648L279.709 504.426L419.355 504.635L489.171 504.753L559.001 505.08L489.171 505.394L419.355 505.512L279.709 505.734L140.064 505.512L70.2473 505.394L0.417969 505.08Z" fill="#263238"/>
<path d="M459.111 560.566C519.251 560.566 568.004 552.821 568.004 543.266C568.004 533.711 519.251 525.966 459.111 525.966C398.972 525.966 350.219 533.711 350.219 543.266C350.219 552.821 398.972 560.566 459.111 560.566Z" fill="#E1E1E1"/>
<path d="M240.974 609.105C369.413 609.105 473.533 594.703 473.533 576.938C473.533 559.173 369.413 544.771 240.974 544.771C112.535 544.771 8.41406 559.173 8.41406 576.938C8.41406 594.703 112.535 609.105 240.974 609.105Z" fill="#E1E1E1"/>
<path d="M493.712 13.6611H72.0273V292.378H493.712V13.6611Z" fill="#ECECEC"/>
<path d="M504.007 0H62V13.6463H504.007V0Z" fill="#607FE1"/>
<path d="M279.132 115.824H227V177.597H279.132V115.824Z" fill="white"/>
<path d="M254.867 121.227C254.87 121.584 254.767 121.933 254.571 122.232C254.375 122.53 254.095 122.763 253.766 122.902C253.438 123.04 253.075 123.078 252.725 123.011C252.374 122.943 252.052 122.773 251.799 122.521C251.545 122.27 251.372 121.949 251.301 121.599C251.231 121.25 251.265 120.887 251.401 120.557C251.537 120.227 251.768 119.945 252.064 119.746C252.361 119.548 252.71 119.441 253.066 119.441C253.302 119.439 253.536 119.484 253.754 119.573C253.973 119.662 254.171 119.793 254.339 119.959C254.506 120.125 254.639 120.322 254.73 120.54C254.821 120.758 254.867 120.991 254.867 121.227Z" fill="#607FE1"/>
<path d="M235.352 132.669C238.956 132.16 242.614 132.16 246.219 132.669C242.614 133.179 238.956 133.179 235.352 132.669Z" fill="#E1E1E1"/>
<path d="M235.352 137.077C240.056 136.539 244.806 136.539 249.51 137.077C244.805 137.595 240.057 137.595 235.352 137.077Z" fill="#E1E1E1"/>
<path d="M235.352 141.471C239.709 140.954 244.112 140.954 248.47 141.471C244.114 142.009 239.708 142.009 235.352 141.471Z" fill="#E1E1E1"/>
<path d="M235.352 145.958C239.709 145.441 244.112 145.441 248.47 145.958C244.112 146.476 239.709 146.476 235.352 145.958Z" fill="#E1E1E1"/>
<path d="M235.352 150.289C239.131 149.75 242.967 149.75 246.747 150.289C242.966 150.806 239.132 150.806 235.352 150.289Z" fill="#E1E1E1"/>
<path d="M235.352 154.683C240.202 154.166 245.094 154.166 249.945 154.683C245.095 155.221 240.201 155.221 235.352 154.683Z" fill="#E1E1E1"/>
<path d="M235.352 159.091C239.351 158.574 243.4 158.574 247.399 159.091C243.4 159.609 239.351 159.609 235.352 159.091Z" fill="#E1E1E1"/>
<path d="M235.352 163.501C240.367 162.963 245.426 162.963 250.442 163.501C245.425 164.019 240.368 164.019 235.352 163.501Z" fill="#E1E1E1"/>
<path d="M235.352 167.895C240.368 167.377 245.425 167.377 250.442 167.895C245.426 168.433 240.367 168.433 235.352 167.895Z" fill="#E1E1E1"/>
<path d="M256.898 132.669C261.656 132.152 266.455 132.152 271.212 132.669C266.455 133.187 261.656 133.187 256.898 132.669Z" fill="#E1E1E1"/>
<path d="M256.898 137.077C260.011 136.539 263.194 136.539 266.306 137.077C263.192 137.595 260.013 137.595 256.898 137.077Z" fill="#E1E1E1"/>
<path d="M256.898 141.471C261.375 140.954 265.897 140.954 270.374 141.471C265.898 142.009 261.374 142.009 256.898 141.471Z" fill="#E1E1E1"/>
<path d="M256.898 145.958C261.251 145.441 265.649 145.441 270.001 145.958C265.649 146.476 261.251 146.476 256.898 145.958Z" fill="#E1E1E1"/>
<path d="M256.898 150.289C261.655 149.751 266.456 149.751 271.212 150.289C266.455 150.807 261.656 150.807 256.898 150.289Z" fill="#E1E1E1"/>
<path d="M256.898 154.683C260.679 154.166 264.513 154.166 268.294 154.683C264.514 155.222 260.678 155.222 256.898 154.683Z" fill="#E1E1E1"/>
<path d="M256.898 159.091C261.375 158.574 265.897 158.574 270.374 159.091C265.897 159.609 261.375 159.609 256.898 159.091Z" fill="#E1E1E1"/>
<path d="M256.898 163.501C260.35 162.963 263.864 162.963 267.316 163.501C263.862 164.019 260.352 164.019 256.898 163.501Z" fill="#E1E1E1"/>
<path d="M256.898 167.895C260.211 167.377 263.584 167.377 266.896 167.895C263.585 168.433 260.209 168.433 256.898 167.895Z" fill="#E1E1E1"/>
<path d="M448.558 96H399V154.72H448.558V96Z" fill="white"/>
<path d="M425.562 99.9972C425.565 100.352 425.461 100.7 425.265 100.997C425.069 101.293 424.79 101.524 424.462 101.661C424.134 101.798 423.773 101.835 423.425 101.766C423.076 101.697 422.756 101.526 422.505 101.275C422.254 101.024 422.083 100.704 422.014 100.355C421.946 100.007 421.982 99.6458 422.119 99.318C422.256 98.9903 422.487 98.7107 422.784 98.5148C423.08 98.3189 423.428 98.2155 423.783 98.2178C424.017 98.2178 424.248 98.2638 424.464 98.3533C424.68 98.4427 424.876 98.5738 425.041 98.739C425.206 98.9042 425.337 99.1004 425.427 99.3163C425.516 99.5322 425.562 99.7635 425.562 99.9972Z" fill="#607FE1"/>
<path d="M408.422 107.764C413.437 107.383 418.451 107.359 423.443 107.302C428.434 107.244 433.461 107.383 438.464 107.764C433.449 108.157 428.446 108.18 423.443 108.238C418.44 108.295 413.437 108.157 408.422 107.764Z" fill="#E1E1E1"/>
<path d="M408.422 112.407C413.853 111.776 419.34 111.776 424.772 112.407C419.339 113.024 413.854 113.024 408.422 112.407Z" fill="#E1E1E1"/>
<path d="M408.422 117.041C411.888 116.683 415.355 116.602 418.821 116.579C422.287 116.556 425.754 116.683 429.22 117.041C425.754 117.411 422.287 117.492 418.821 117.515C415.355 117.538 411.911 117.411 408.422 117.041Z" fill="#E1E1E1"/>
<path d="M408.422 121.687C412.778 121.328 417.134 121.236 421.49 121.224C425.846 121.213 430.202 121.317 434.547 121.687C430.202 122.056 425.846 122.137 421.49 122.149C417.134 122.16 412.778 122.045 408.422 121.687Z" fill="#E1E1E1"/>
<path d="M408.422 126.33C412.212 125.96 415.99 125.879 419.768 125.856C423.547 125.833 427.337 125.96 431.127 126.33C427.337 126.688 423.558 126.781 419.768 126.792C415.979 126.804 412.212 126.688 408.422 126.33Z" fill="#E1E1E1"/>
<path d="M408.422 130.964C413.263 130.583 418.105 130.56 422.946 130.502C427.787 130.444 432.64 130.583 437.482 130.964C432.64 131.357 427.799 131.38 422.946 131.438C418.093 131.496 413.263 131.357 408.422 130.964Z" fill="#E1E1E1"/>
<path d="M408.422 135.61C414.661 134.979 420.948 134.979 427.186 135.61C420.947 136.227 414.662 136.227 408.422 135.61Z" fill="#E1E1E1"/>
<path d="M408.422 140.242C413.437 139.861 418.451 139.838 423.443 139.78C428.434 139.722 433.461 139.861 438.464 140.242C433.449 140.635 428.446 140.658 423.443 140.716C418.44 140.774 413.437 140.635 408.422 140.242Z" fill="#E1E1E1"/>
<path d="M408.422 144.889C413.437 144.507 418.451 144.484 423.443 144.426C428.434 144.369 433.461 144.496 438.464 144.889C433.449 145.281 428.446 145.304 423.443 145.351C418.44 145.397 413.437 145.27 408.422 144.889Z" fill="#E1E1E1"/>
<path d="M469.373 132.189H439.562V162H469.373V132.189Z" fill="#5FD58C"/>
<path d="M456.254 135.216C456.254 135.568 456.15 135.912 455.954 136.205C455.759 136.497 455.481 136.725 455.156 136.86C454.831 136.995 454.473 137.03 454.128 136.961C453.782 136.892 453.465 136.723 453.216 136.474C452.968 136.225 452.798 135.908 452.73 135.563C452.661 135.218 452.696 134.86 452.831 134.535C452.965 134.21 453.194 133.932 453.486 133.736C453.779 133.541 454.123 133.437 454.475 133.437C454.708 133.437 454.94 133.483 455.156 133.572C455.372 133.661 455.568 133.792 455.733 133.958C455.898 134.123 456.029 134.319 456.119 134.535C456.208 134.751 456.254 134.982 456.254 135.216Z" fill="#607FE1"/>
<path d="M493.712 13.6611H72.0273V31.3905H493.712V13.6611Z" fill="#DBDBDB"/>
<path d="M242.519 64.9697H235.09V97.5763H242.519V64.9697Z" fill="#5FD58C"/>
<path d="M256.289 51.1787H248.859V97.5765H256.289V51.1787Z" fill="white"/>
<path d="M270.07 44.918H262.641V97.5764H270.07V44.918Z" fill="#5FD58C"/>
<path d="M283.84 53.0781H276.41V97.5652H283.84V53.0781Z" fill="white"/>
<path d="M297.621 55.5068H290.191V97.5661H297.621V55.5068Z" fill="#5FD58C"/>
<path d="M311.387 79.3457H303.957V97.5766H311.387V79.3457Z" fill="white"/>
<path d="M227.393 34.2178L227.562 50.0546L227.674 65.8915C227.749 76.4569 227.787 87.0148 227.787 97.5652L227.393 97.1831H251.21H275.016L298.833 97.3179L322.651 97.5427L298.833 97.7788L275.016 97.9136H251.21H227.393H227V97.5203C227 86.9624 227.037 76.4044 227.112 65.8465L227.225 50.0097L227.393 34.2178Z" fill="#BFBFBF"/>
<path d="M242.519 100.915H235.09V101.589H242.519V100.915Z" fill="#BFBFBF"/>
<path d="M256.289 100.915H248.859V101.589H256.289V100.915Z" fill="#BFBFBF"/>
<path d="M270.07 100.915H262.641V101.589H270.07V100.915Z" fill="#BFBFBF"/>
<path d="M283.84 100.915H276.41V101.589H283.84V100.915Z" fill="#BFBFBF"/>
<path d="M297.621 100.915H290.191V101.589H297.621V100.915Z" fill="#BFBFBF"/>
<path d="M311.387 100.915H303.957V101.589H311.387V100.915Z" fill="#BFBFBF"/>
<path d="M393.127 211.122C392.56 218.76 390.117 226.14 386.017 232.608L374.062 225.7C376.919 221.316 378.706 216.323 379.279 211.122H393.127Z" fill="#607FE1"/>
<path d="M393.224 207.521C393.224 208.033 393.224 208.53 393.224 209.073H379.407C379.407 208.577 379.407 208.08 379.407 207.521C379.411 202.012 378.044 196.588 375.428 191.74C372.813 186.891 369.032 182.77 364.426 179.747L371.35 167.777C378.05 172.022 383.568 177.891 387.393 184.839C391.217 191.787 393.223 199.59 393.224 207.521Z" fill="#A6A6A6"/>
<path d="M369.609 166.69L362.716 178.66C357.981 175.946 352.647 174.447 347.191 174.298V160.496C355.067 160.639 362.778 162.77 369.609 166.69Z" fill="#607FE1"/>
<path d="M345.174 160.496V174.298C339.564 174.471 334.089 176.064 329.261 178.929C324.434 181.793 320.412 185.835 317.571 190.676L305.602 183.783C309.655 176.841 315.422 171.055 322.35 166.978C329.279 162.9 337.137 160.669 345.174 160.496Z" fill="#5FD58C"/>
<path d="M316.56 192.507C314.278 196.982 313.056 201.922 312.989 206.945H299.188C299.249 199.499 301.102 192.177 304.59 185.599L316.56 192.507Z" fill="#A6A6A6"/>
<path d="M327.691 235.139L320.783 247.109C314.361 242.993 309.04 237.374 305.279 230.738C301.519 224.103 299.434 216.65 299.203 209.026H313.005C313.234 214.226 314.683 219.298 317.234 223.834C319.785 228.37 323.367 232.243 327.691 235.139Z" fill="#607FE1"/>
<path d="M384.852 234.347C378.11 244.065 367.955 250.886 356.409 253.452C344.863 256.019 332.775 254.142 322.551 248.195L329.459 236.241C336.521 240.379 344.862 241.766 352.883 240.136C360.904 238.506 368.042 233.974 372.929 227.407L384.852 234.347Z" fill="#DBDBDB"/>
<path d="M370.82 209.026C370.816 213.308 369.552 217.495 367.186 221.064C364.821 224.633 361.457 227.428 357.515 229.1L348.992 209.026H370.82Z" fill="#5FD58C"/>
<path d="M346.229 207.535L354.736 227.608C354.069 227.872 353.401 228.136 352.734 228.338C350.637 228.987 348.455 229.316 346.26 229.316C344.065 229.313 341.884 228.983 339.786 228.338C335.314 226.991 331.396 224.24 328.61 220.491C325.824 216.743 324.32 212.197 324.32 207.527C324.32 202.857 325.824 198.311 328.61 194.563C331.396 190.814 335.314 188.063 339.786 186.716C344.003 185.412 348.516 185.412 352.734 186.716C356.109 187.759 359.18 189.609 361.679 192.106C364.179 194.602 366.032 197.671 367.079 201.045C367.721 203.143 368.051 205.325 368.057 207.519L346.229 207.535Z" fill="#5FD58C"/>
<path d="M346.226 207.535L354.734 227.609C354.066 227.873 353.399 228.137 352.731 228.338C350.635 228.987 348.452 229.317 346.257 229.316C341.607 229.324 337.076 227.84 333.332 225.082C329.587 222.324 326.826 218.437 325.454 213.993C324.13 209.779 324.13 205.26 325.454 201.046C326.829 196.605 329.591 192.722 333.335 189.967C337.08 187.212 341.609 185.73 346.257 185.738C352.022 185.738 357.55 188.028 361.626 192.104C365.702 196.18 367.992 201.709 367.992 207.473L346.226 207.535Z" fill="#DBDBDB"/>
<path d="M346.231 207.535L332.026 224.054C329.285 221.669 327.186 218.635 325.92 215.23C324.655 211.825 324.263 208.157 324.78 204.561C325.298 200.965 326.709 197.556 328.883 194.646C331.058 191.736 333.928 189.418 337.23 187.903C340.531 186.388 344.16 185.725 347.785 185.974C351.409 186.223 354.913 187.377 357.976 189.33C361.04 191.283 363.565 193.972 365.321 197.152C367.077 200.333 368.007 203.903 368.028 207.535H346.231Z" fill="#A6A6A6"/>
<path d="M408.651 259.513H378.269L340.637 221.881L341.196 221.338L378.595 258.737H408.651V259.513Z" fill="#263238"/>
<path d="M343.047 219.49H338.809V223.728H343.047V219.49Z" fill="#263238"/>
<path d="M408.655 230.404H374.422L358.168 214.15L358.711 213.591L374.733 229.628H408.655V230.404Z" fill="#263238"/>
<path d="M360.543 211.758H356.32V215.996H360.543V211.758Z" fill="#263238"/>
<path d="M408.65 201.59H356.875V202.366H408.65V201.59Z" fill="#263238"/>
<path d="M358.445 199.865H354.207V204.103H358.445V199.865Z" fill="#263238"/>
<path d="M412.91 197.74H404.418V206.232H412.91V197.74Z" fill="#5FD58C"/>
<path d="M412.91 226.01H404.418V234.502H412.91V226.01Z" fill="#A6A6A6"/>
<path d="M412.91 254.28H404.418V262.772H412.91V254.28Z" fill="#BFBFBF"/>
<path d="M287.457 438.144L289.996 453.415L307.257 546.578H310.031L297.481 453.415L295.636 438.144H287.457Z" fill="#DBDBDB"/>
<path d="M295.636 438.144H287.457L289.996 453.415H297.481L295.636 438.144Z" fill="#A6A6A6"/>
<path d="M233.277 546.578H236.065L253.313 453.415L255.865 438.144H247.686L245.827 453.415L233.277 546.578Z" fill="#DBDBDB"/>
<path d="M247.686 438.144L245.828 453.415H253.314L255.865 438.144H247.686Z" fill="#A6A6A6"/>
<path d="M181.547 546.578H184.321L201.569 453.415L204.121 438.144H195.942L194.084 453.415L181.547 546.578Z" fill="#DBDBDB"/>
<path d="M194.082 453.415H201.567L204.119 438.144H195.94L194.082 453.415Z" fill="#A6A6A6"/>
<path d="M185.945 445.328H312.347V432.006H265.04L249.127 339.484H190.774L185.945 445.328Z" fill="#DBDBDB"/>
<path d="M185.945 445.328H192.842L197.331 339.484H190.774L185.945 445.328Z" fill="#A6A6A6"/>
<path d="M473.195 515.392C477.776 514.633 483.337 515.458 486.766 518.782C486.897 518.913 486.766 519.096 486.557 519.043C482.231 517.542 477.755 516.511 473.209 515.968C473.132 515.97 473.058 515.941 473.003 515.888C472.948 515.836 472.916 515.763 472.914 515.687C472.912 515.61 472.941 515.536 472.994 515.481C473.047 515.426 473.119 515.394 473.195 515.392Z" fill="#263238"/>
<path d="M469.856 517.302C474.436 516.543 480.011 517.368 483.426 520.692C483.557 520.823 483.426 521.006 483.217 520.954C478.889 519.458 474.415 518.427 469.869 517.878C469.831 517.879 469.793 517.872 469.758 517.859C469.723 517.845 469.691 517.825 469.663 517.799C469.636 517.772 469.614 517.741 469.599 517.707C469.583 517.672 469.575 517.635 469.574 517.597C469.573 517.559 469.58 517.521 469.594 517.486C469.607 517.451 469.628 517.419 469.654 517.391C469.68 517.364 469.711 517.342 469.746 517.327C469.781 517.312 469.818 517.303 469.856 517.302Z" fill="#263238"/>
<path d="M466.521 519.213C471.102 518.467 476.677 519.279 480.092 522.603C480.223 522.733 480.092 522.917 479.896 522.877C475.566 521.369 471.086 520.329 466.535 519.776C466.47 519.763 466.411 519.729 466.369 519.679C466.326 519.629 466.302 519.566 466.301 519.5C466.299 519.434 466.32 519.37 466.361 519.317C466.401 519.265 466.457 519.229 466.521 519.213Z" fill="#263238"/>
<path d="M446.628 539.93C449.049 540.676 517.818 538.883 520.396 537.155C521.391 536.514 521.705 526.477 521.705 514.346V513.953L477.315 514.621V515.366C477.315 515.366 451.299 527.825 448.669 530.023C446.039 532.222 444.207 539.184 446.628 539.93Z" fill="#37474F"/>
<path d="M521.809 513.953V514.346C521.809 526.477 521.443 536.514 520.501 537.155C519.558 537.797 504.43 538.739 488.321 539.315C469.045 539.995 448.054 540.335 446.732 539.93C444.311 539.184 446.261 532.222 448.865 530.023C451.469 527.825 477.511 515.366 477.511 515.366V514.621L492.312 514.398L521.809 513.953Z" fill="#37474F"/>
<path d="M447.335 537.234C458.93 536.645 505.714 535.388 517.204 535.689C517.295 535.689 517.295 535.689 517.204 535.689C505.74 536.527 458.943 537.417 447.348 537.365C447.1 537.43 447.1 537.247 447.335 537.234Z" fill="#263238"/>
<path d="M492.169 514.397C491.083 521.831 489.434 532.784 488.243 539.262C468.966 539.942 447.976 540.282 446.654 539.877C444.233 539.131 446.183 532.169 448.787 529.97C451.391 527.772 477.433 515.313 477.433 515.313V514.568L492.169 514.397Z" fill="#263238"/>
<path d="M527.582 514.542L475.733 515.013C475.733 515.013 461.901 331.567 474.202 283.514H511.407C511.407 283.514 521.405 303.915 515.686 326.882L527.582 514.542Z" fill="#607FE1"/>
<path d="M523.997 505.879C522.638 505.702 521.271 505.597 519.901 505.564C518.383 505.46 516.865 505.355 515.334 505.29C512.415 505.172 509.484 505.12 506.553 505.106C500.651 505.106 494.775 505.106 488.834 505.303C485.47 505.407 482.107 505.538 478.757 505.722C478.729 505.722 478.703 505.733 478.683 505.752C478.663 505.772 478.652 505.798 478.652 505.826C478.652 505.854 478.663 505.881 478.683 505.9C478.703 505.92 478.729 505.931 478.757 505.931C484.62 506.14 490.535 506.219 496.332 506.337C502.129 506.454 508.11 506.559 513.907 506.441C515.582 506.441 517.257 506.441 518.946 506.31C520.634 506.18 522.335 506.31 523.971 506.075C524.075 506.062 524.115 505.905 523.997 505.879Z" fill="#263238"/>
<path d="M479.579 461.149C478.99 447.748 478.572 434.348 478.192 420.934C477.459 394.133 477.267 367.315 477.616 340.479C477.813 325.429 478.205 310.38 478.663 295.343C478.663 295.173 478.402 295.186 478.388 295.343C476.962 322.262 476.426 349.247 476.399 376.218C476.373 403.189 476.923 429.872 478.245 456.66C478.99 471.697 479.907 486.759 481.32 501.73C481.32 501.861 481.529 501.861 481.529 501.73C480.927 488.212 480.155 474.68 479.579 461.149Z" fill="#263238"/>
<path d="M431.656 521.229C436.237 520.47 441.812 521.295 445.227 524.619C445.358 524.749 445.227 524.933 445.018 524.88C440.692 523.379 436.216 522.348 431.67 521.805C431.593 521.807 431.519 521.778 431.464 521.725C431.409 521.673 431.377 521.6 431.375 521.524C431.373 521.447 431.402 521.373 431.455 521.318C431.508 521.263 431.58 521.231 431.656 521.229Z" fill="#263238"/>
<path d="M428.322 523.14C432.903 522.394 438.477 523.205 441.893 526.529C442.024 526.66 441.893 526.843 441.697 526.791C437.364 525.293 432.886 524.257 428.335 523.703C428.271 523.69 428.212 523.656 428.17 523.606C428.127 523.556 428.103 523.492 428.102 523.427C428.1 523.361 428.121 523.296 428.161 523.244C428.201 523.192 428.258 523.155 428.322 523.14Z" fill="#263238"/>
<path d="M424.97 525.011C429.551 524.265 435.112 525.076 438.528 528.4C438.659 528.531 438.528 528.728 438.332 528.675C433.999 527.189 429.52 526.171 424.97 525.639C424.887 525.639 424.807 525.606 424.748 525.547C424.689 525.488 424.656 525.408 424.656 525.325C424.656 525.242 424.689 525.162 424.748 525.103C424.807 525.044 424.887 525.011 424.97 525.011Z" fill="#263238"/>
<path d="M405.093 545.766C407.514 546.512 476.283 544.719 478.861 542.992C479.856 542.351 480.17 532.313 480.17 520.182V519.776L435.78 520.431V521.177C435.78 521.177 409.764 533.635 407.134 535.833C404.504 538.032 402.724 545.02 405.093 545.766Z" fill="#37474F"/>
<path d="M405.8 543.07C417.395 542.494 464.179 541.225 475.669 541.526C475.76 541.526 475.76 541.591 475.669 541.591C464.205 542.429 417.408 543.319 405.813 543.266C405.564 543.332 405.565 543.083 405.8 543.07Z" fill="#263238"/>
<path d="M488.741 331.2C488.741 331.2 485.089 405.61 484.959 407.376C484.959 408.057 483.257 522.878 483.257 522.878L431.422 523.349C431.422 523.349 438.515 415.713 439.274 405.204C439.365 403.987 442.297 331.619 454.598 283.565H510.32C510.32 283.565 509.836 308.731 498.398 326.934C495.101 328.173 491.877 329.597 488.741 331.2Z" fill="#607FE1"/>
<path d="M484.71 332.64C487.458 331.148 490.259 329.8 493.138 328.57C496.017 327.34 498.948 326.227 501.814 324.958C501.919 324.958 502.01 325.063 501.906 325.115C499.092 326.568 496.331 328.125 493.478 329.499C490.681 330.846 487.795 332 484.841 332.954C484.799 332.971 484.753 332.971 484.711 332.954C484.669 332.937 484.636 332.904 484.619 332.862C484.601 332.821 484.601 332.774 484.618 332.732C484.635 332.69 484.669 332.657 484.71 332.64Z" fill="#263238"/>
<path d="M488.532 331.122C488.532 331.017 488.716 331.043 488.702 331.122C486.831 345.072 484.305 510.864 483.874 514.83C483.874 514.892 483.849 514.952 483.805 514.996C483.76 515.04 483.7 515.065 483.638 515.065C483.576 515.065 483.516 515.04 483.471 514.996C483.427 514.952 483.402 514.892 483.402 514.83C483.311 507.815 483.638 377.513 488.532 331.122Z" fill="#263238"/>
<path d="M462.923 288.839C461.496 296.011 460.502 303.234 459.429 310.51C458.355 317.787 457.322 325.01 456.353 332.273C454.443 346.564 452.741 360.876 451.25 375.21C448.248 404.218 446.067 433.296 444.706 462.444C443.93 478.829 443.459 495.23 443.293 511.649C443.293 511.78 443.502 511.767 443.502 511.649C444.497 482.493 445.91 453.349 448.122 424.258C450.333 395.167 453.239 366.233 456.785 337.338C457.771 329.329 458.8 321.329 459.874 313.337C460.986 305.197 462.295 297.084 463.237 288.918C463.197 288.722 462.923 288.643 462.923 288.839Z" fill="#263238"/>
<path d="M480.443 515.719C479.084 515.538 477.717 515.429 476.347 515.392C474.828 515.288 473.31 515.183 471.792 515.117C468.861 515 465.943 514.947 463.011 514.947C457.096 514.947 451.234 514.947 445.279 515.144C441.929 515.248 438.566 515.379 435.203 515.562C435.072 515.562 435.085 515.759 435.203 515.759C441.052 515.968 446.915 516.06 452.778 516.164C458.641 516.269 464.49 516.387 470.34 516.282C472.028 516.282 473.703 516.282 475.378 516.138C477.053 515.994 478.781 516.138 480.416 515.903C480.521 515.85 480.56 515.732 480.443 515.719Z" fill="#263238"/>
<path d="M441.787 270.623C447.218 267.888 468.418 257.955 469.269 256.424C470.12 254.893 478.286 225.318 480.471 219.861C482.656 214.404 489.134 217.414 489.095 226.024C489.056 234.635 489.645 264.446 488.401 269.21C487.158 273.973 463.904 292.765 459.611 296.796C456.379 300.002 438.751 272.141 441.787 270.623Z" fill="#FFCFC0"/>
<path d="M463.942 292.804C460.969 295.775 457.804 298.546 454.467 301.101C451.758 303.012 443.789 308.286 441.381 305.498C439.745 303.601 443.998 299.963 447.047 297.306C448.63 295.919 450.24 293.21 449.285 292.216C447.636 290.475 443.605 294.165 441.119 297.044C436.29 302.606 430.427 311.636 425.703 309.843C423.923 309.163 424.813 306.506 426.462 303.64C423.452 307.357 420.05 310.72 418.034 310.039C417.509 309.868 417.071 309.499 416.812 309.011C416.554 308.523 416.494 307.953 416.647 307.422C416.241 307.812 415.728 308.073 415.173 308.171C414.619 308.268 414.048 308.199 413.533 307.972C411.844 307.095 411.792 304.962 412.473 302.515C412.23 302.571 411.977 302.568 411.736 302.507C411.495 302.445 411.272 302.327 411.085 302.161C407.081 299.047 416.32 282.977 420.534 280.333C428.971 275.277 438.065 271.407 447.557 268.83C454.31 271.277 463.955 292.791 463.942 292.804Z" fill="#FFCFC0"/>
<path d="M439.903 287.033C436.861 288.614 434.207 290.848 432.13 293.576C429.722 296.809 428.204 300.591 426.176 304.046C426.176 304.137 426.28 304.229 426.32 304.124C427.262 302.41 428.374 300.761 429.369 299.073C430.363 297.385 431.279 295.736 432.366 294.165C434.326 291.279 436.917 288.876 439.943 287.138C439.943 287.138 439.943 287.02 439.903 287.033Z" fill="#263238"/>
<path d="M435.44 282.192C432.146 284.263 429.076 286.67 426.28 289.376C423.309 292.425 421.529 296.364 419.737 300.172C418.664 302.467 417.647 304.779 416.688 307.108C416.688 307.213 416.779 307.291 416.831 307.187C418.624 303.261 420.522 299.335 422.537 295.605C424.392 292.061 426.926 288.917 429.996 286.353C431.763 284.901 433.621 283.566 435.493 282.257C435.519 282.231 435.44 282.165 435.44 282.192Z" fill="#263238"/>
<path d="M429.982 278.501C426.825 280.104 423.983 282.263 421.593 284.874C418.957 288.309 416.76 292.059 415.05 296.037C414.095 298.157 413.218 300.303 412.367 302.476C412.367 302.554 412.485 302.62 412.524 302.476C414.528 297.685 416.84 293.03 419.447 288.538C420.655 286.381 422.186 284.421 423.988 282.728C425.866 281.144 427.87 279.717 429.982 278.462C429.982 278.462 429.995 278.488 429.982 278.501Z" fill="#263238"/>
<path d="M445.465 265.964L471.782 292.438C471.782 292.438 487.721 277.035 489.435 269.262C491.15 261.489 491.202 231.586 489.435 222.583C487.669 213.579 481.858 210.621 477.959 223.027C474.059 235.433 469.321 254.867 468.955 255.587C468.589 256.306 445.465 265.964 445.465 265.964Z" fill="#5FD58C"/>
<path d="M476.363 284.22C474.712 282.35 472.965 280.568 471.128 278.881C469.349 277.127 467.517 275.452 465.671 273.764C461.981 270.401 458.186 267.129 454.299 263.988C454.182 263.883 453.998 263.988 454.116 264.158C457.61 267.783 461.235 271.317 464.926 274.732C466.758 276.42 468.603 278.095 470.5 279.718C472.318 281.384 474.222 282.952 476.206 284.416C476.337 284.455 476.455 284.285 476.363 284.22Z" fill="#263238"/>
<path d="M473.248 228.066C476.258 228.301 482.697 222.831 485.288 218.225C485.203 215.598 484.984 212.977 484.634 210.373C484.411 207.86 484.228 205.06 484.254 202.521C484.254 201.984 482.448 202.94 482.448 202.94L479.124 203.725L468.105 206.342C469.002 209.563 469.498 212.881 469.584 216.222C469.573 216.574 469.534 216.924 469.466 217.269C469.466 217.269 469.466 217.374 469.466 217.453C469.1 219.389 468.55 227.699 473.248 228.066Z" fill="#FFCFC0"/>
<path d="M469.464 217.217C469.464 217.217 469.464 217.322 469.464 217.401C470.015 217.473 470.57 217.503 471.126 217.492C481.974 217.335 483.44 203.542 483.44 203.542L479.148 203.699L468.129 206.316C469.025 209.537 469.522 212.855 469.608 216.197C469.587 216.54 469.538 216.881 469.464 217.217Z" fill="#263238"/>
<path d="M484.696 180.706C487.078 186.189 486.005 202.953 482.327 207.062C477.093 213.029 467.553 214.626 462.24 208.096C457.097 201.775 458.955 179.973 463.09 176.139C469.176 170.485 481.241 172.605 484.696 180.706Z" fill="#FFCFC0"/>
<path d="M459.793 185.3C459.793 185.3 458.484 191.581 457.176 197.824L459.296 197.549L458.812 200.375C459.572 200.547 460.36 200.557 461.125 200.403C461.889 200.25 462.612 199.937 463.248 199.486L459.793 185.3Z" fill="#FFCFC0"/>
<path d="M462.071 192.117C462.071 192.117 462.163 192.117 462.149 192.222C461.992 193.347 462.006 194.656 462.987 195.14C461.744 194.892 461.744 193.151 462.071 192.117Z" fill="#263238"/>
<path d="M463.208 191.044C465.027 191.044 464.778 194.748 463.09 194.695C461.402 194.643 461.677 191.005 463.208 191.044Z" fill="#263238"/>
<path d="M464.753 189.735C464.269 189.578 463.837 189.343 463.444 189.147C462.924 189.005 462.464 188.697 462.135 188.27C462.061 188.117 462.04 187.944 462.075 187.778C462.111 187.612 462.201 187.462 462.332 187.354C462.618 187.168 462.949 187.062 463.289 187.048C463.63 187.035 463.968 187.113 464.269 187.275C464.923 187.507 465.468 187.974 465.8 188.584C465.881 188.734 465.914 188.906 465.893 189.076C465.873 189.245 465.8 189.405 465.685 189.531C465.57 189.657 465.418 189.745 465.251 189.782C465.084 189.818 464.91 189.802 464.753 189.735Z" fill="#263238"/>
<path d="M463.565 199.275C463.091 199.829 462.475 200.244 461.783 200.474C461.092 200.705 460.35 200.743 459.639 200.584C459.56 200.584 459.521 200.479 459.547 200.479C460.958 200.452 462.328 199.996 463.473 199.171C463.604 199.158 463.643 199.158 463.565 199.275Z" fill="#263238"/>
<path d="M461.051 179.934C457.256 178.795 454.613 170.42 455.935 167.319C457.256 164.217 460.371 169.111 460.371 169.111C460.371 169.111 460.685 166.18 462.02 165.853C463.355 165.526 465.841 169.556 465.841 169.556C465.841 169.556 478.587 170.368 481.309 171.349C484.031 172.331 484.856 175.995 484.856 175.995C485.991 176.498 487.002 177.244 487.818 178.18C488.634 179.116 489.236 180.22 489.58 181.413C490.889 185.653 486.675 201.579 484.044 203.738C481.414 205.897 474.125 193.779 474.125 193.779C474.125 193.779 472.162 194.041 471.35 190.115C470.16 184.292 469.832 180.588 466.94 179.999C464.985 179.78 463.012 179.759 461.051 179.934Z" fill="#263238"/>
<path d="M473.523 194.473C473.523 194.473 476.743 188.82 479.281 189.919C481.82 191.018 479.74 198.975 477.004 200.297C476.666 200.49 476.292 200.614 475.905 200.659C475.518 200.705 475.125 200.672 474.751 200.562C474.377 200.452 474.029 200.267 473.728 200.019C473.427 199.771 473.18 199.465 473 199.119L473.523 194.473Z" fill="#FFCFC0"/>
<path d="M478.625 192.183C478.625 192.183 478.69 192.183 478.625 192.261C477.755 192.799 477.009 193.514 476.434 194.36C475.859 195.205 475.469 196.162 475.288 197.169C475.383 196.957 475.524 196.77 475.699 196.618C475.875 196.467 476.081 196.356 476.304 196.292C476.527 196.229 476.761 196.215 476.99 196.251C477.219 196.287 477.438 196.372 477.63 196.501V196.619C477.272 196.538 476.897 196.571 476.559 196.715C476.221 196.858 475.937 197.104 475.746 197.417C475.421 197.939 475.158 198.497 474.961 199.079C474.882 199.275 474.555 199.21 474.594 198.988C474.293 196.423 475.929 192.693 478.625 192.183Z" fill="#263238"/>
<path d="M472.541 233.575C462.517 252.865 444.785 274.536 427.498 282.623C416.963 287.531 409.177 284.887 406.049 280.974C401.508 275.36 410.354 239.281 417.172 228.406C419.397 224.886 452.349 234.125 450.137 237.985C447.926 241.846 457.989 230.29 468.864 221.614C480.027 212.65 478.626 221.928 472.541 233.575Z" fill="#FFCFC0"/>
<path d="M427.719 209.169C431.645 206.237 436.002 202.547 440.975 201.121C445.948 199.694 452.06 204.968 452.635 206.826C453.211 208.685 454.926 220.947 450.018 222.465C445.111 223.983 445.307 214.102 444.784 213.134C444.26 212.166 443.684 210.909 442.781 211.289C441.878 211.668 427.915 224.375 427.915 224.375L427.719 209.169Z" fill="#FFCFC0"/>
<path d="M428.242 209.758C428.517 209.68 440.164 200.375 445.15 198.949C450.136 197.522 456.234 202.796 456.81 204.668C457.386 206.539 459.1 218.775 454.193 220.293C449.285 221.811 449.482 211.931 448.958 210.962C448.435 209.994 447.872 208.737 446.969 209.13C446.066 209.523 432.103 222.216 432.103 222.216L428.242 209.758Z" fill="#FFCFC0"/>
<path d="M452.282 220.188C451.492 219.478 450.897 218.577 450.555 217.571C450.125 216.546 449.86 215.459 449.769 214.352C449.77 213.378 449.691 212.407 449.534 211.446C449.243 210.533 448.731 209.705 448.042 209.039C447.44 208.463 446.733 208.921 446.236 209.34C445.419 209.967 444.645 210.649 443.92 211.381L441.538 213.684C440.692 214.452 439.896 215.274 439.156 216.144C439.156 216.21 439.156 216.315 439.261 216.262C440.014 215.669 440.735 215.035 441.42 214.365C442.223 213.632 443.034 212.912 443.854 212.205C444.613 211.538 445.346 210.831 446.118 210.177C446.393 209.942 446.917 209.418 447.309 209.379C447.702 209.34 448.186 210.229 448.356 210.504C448.84 211.326 449.067 212.274 449.01 213.226C449.016 214.19 449.122 215.15 449.324 216.092C449.506 216.981 449.843 217.832 450.319 218.605C450.86 219.262 451.475 219.854 452.151 220.371C452.243 220.411 452.374 220.254 452.282 220.188Z" fill="#263238"/>
<path d="M417.016 228.786C417.016 228.786 422.918 214.535 428.506 207.507C433.439 201.278 439.786 196.305 445.125 194.604C450.465 192.903 463.708 206.775 459.311 208.999C454.678 211.302 448.502 204.236 446.591 205.989C444.458 207.952 441.958 211.224 442.966 213.972C443.974 216.72 448.201 220.96 452.715 219.416C457.23 217.872 456.759 211.721 460.764 209.68C464.768 207.638 465.802 214.77 464.192 220.149C462.39 225.443 459.122 230.117 454.77 233.628C451.25 236.337 440.545 245.406 440.545 245.406L417.016 228.786Z" fill="#FFCFC0"/>
<path d="M457.567 209.444C455.823 209.511 454.092 209.109 452.555 208.279C451.076 207.459 449.546 206.733 447.975 206.107C447.821 206.05 447.657 206.028 447.493 206.044C447.33 206.06 447.173 206.113 447.033 206.198C446.711 206.42 446.413 206.674 446.143 206.957C445.566 207.558 445.041 208.206 444.573 208.894C443.683 210.203 442.819 211.865 443.264 213.291C443.755 214.839 444.66 216.224 445.881 217.295C447.072 218.421 448.588 219.14 450.213 219.35C451.022 219.398 451.833 219.301 452.608 219.062C453.387 218.773 454.1 218.327 454.701 217.753C455.914 216.559 456.848 215.111 457.437 213.513C457.012 215.212 456.192 216.786 455.042 218.107C454.414 218.753 453.656 219.257 452.817 219.586C451.982 219.904 451.093 220.059 450.2 220.044C448.383 219.902 446.667 219.151 445.332 217.911C443.929 216.751 442.878 215.224 442.296 213.5C442.051 212.564 442.13 211.573 442.518 210.687C442.857 209.851 443.297 209.06 443.827 208.331C444.336 207.608 444.905 206.93 445.528 206.303C445.859 205.975 446.223 205.681 446.614 205.426C446.852 205.307 447.11 205.236 447.376 205.218C447.641 205.2 447.907 205.235 448.158 205.321C448.991 205.636 449.789 206.035 450.54 206.512L452.765 207.821C454.204 208.757 455.856 209.315 457.567 209.444Z" fill="#263238"/>
<path d="M413.023 230.055L450.856 237.109L450.332 238.3C450.332 238.3 465.84 222.216 472.579 217.152C480.431 211.237 480.038 219.651 476.335 228.315C472.631 236.978 450.162 276.185 429.394 286.863C422.144 290.58 406.571 285.725 404.844 280.202C401.703 270.309 413.023 230.055 413.023 230.055Z" fill="#5FD58C"/>
<path d="M450.424 238.09C448.706 239.415 447.076 240.849 445.542 242.383C443.527 244.28 441.551 246.204 439.575 248.141C435.623 251.988 431.697 255.883 427.797 259.827C427.313 260.324 426.842 260.834 426.371 261.332C425.546 261.698 424.761 262.13 423.963 262.536C423.165 262.941 422.052 263.53 421.071 264.001C421.052 264.016 421.039 264.037 421.034 264.061C421.029 264.084 421.032 264.109 421.042 264.13C421.053 264.152 421.071 264.169 421.093 264.179C421.115 264.189 421.139 264.191 421.162 264.185C422.131 263.766 423.112 263.36 424.054 262.876C424.595 262.614 425.132 262.339 425.664 262.052C424.198 263.57 422.733 265.088 421.293 266.632C421.215 266.723 421.293 266.854 421.45 266.776C429.551 259.434 437.403 251.779 445.006 243.914C446.092 242.788 449.547 239.451 450.489 238.208C450.594 238.156 450.515 238.025 450.424 238.09Z" fill="#263238"/>
<path d="M444.079 243.285C441.695 242.555 439.276 241.947 436.829 241.466C434.395 240.903 431.948 240.419 429.501 239.961C424.593 239.019 419.647 238.221 414.7 237.566C414.53 237.566 414.464 237.776 414.7 237.815C419.568 239.124 424.502 240.184 429.435 241.165C431.883 241.649 434.33 242.12 436.803 242.474C439.222 242.944 441.663 243.285 444.118 243.495C444.197 243.534 444.197 243.324 444.079 243.285Z" fill="#263238"/>
<path d="M472.422 236.035C466.73 244.986 460.933 253.859 454.677 262.431C452.845 264.93 451.065 267.469 449.207 269.968C449.207 270.073 449.272 270.217 449.364 270.112C456.171 261.891 462.36 253.178 467.881 244.044C469.491 241.427 471.048 238.809 472.501 236.088L472.422 236.035Z" fill="#263238"/>
<path d="M519.745 306.611C519.575 306.794 448.188 308.168 447.521 307.448C446.592 306.427 458.265 234.858 469.611 219.259C472.45 215.333 482.579 212.715 486.793 216.641C499.016 228.118 501.581 237.75 504.761 245.628C507.86 254.135 510.456 262.818 512.534 271.631C516.801 288.46 520.321 305.93 519.745 306.611Z" fill="#5FD58C"/>
<path d="M464.347 231.586C462.253 237.043 460.421 242.618 458.732 248.219C457.044 253.82 455.539 259.369 454.427 265.061C454.113 266.671 453.812 268.28 453.537 269.89C453.262 271.5 453.04 273.24 452.621 274.876C452.621 275.007 452.791 275.046 452.817 274.876C453.328 272.02 454.009 269.197 454.859 266.422C455.605 263.569 456.39 260.73 457.11 257.864C458.497 252.236 460.028 246.649 461.651 241.087C462.593 237.907 463.588 234.753 464.569 231.586C464.608 231.494 464.399 231.455 464.347 231.586Z" fill="#263238"/>
<path d="M139.477 458.951L142.238 475.571L161.017 576.952H164.04L150.391 475.571L148.375 458.951H139.477Z" fill="#DBDBDB"/>
<path d="M148.375 458.951H139.477L142.238 475.571H150.391L148.375 458.951Z" fill="#A6A6A6"/>
<path d="M80.5195 576.952H83.5425L102.322 475.571L105.083 458.951H96.184L94.1687 475.571L80.5195 576.952Z" fill="#DBDBDB"/>
<path d="M96.1833 458.951L94.168 475.571H102.321L105.082 458.951H96.1833Z" fill="#A6A6A6"/>
<path d="M24.2227 576.952H27.2456L46.0116 475.571L48.7859 458.951H39.8872L37.8718 475.571L24.2227 576.952Z" fill="#DBDBDB"/>
<path d="M37.8711 475.571H46.0109L48.7852 458.951H39.8864L37.8711 475.571Z" fill="#A6A6A6"/>
<path d="M29.0117 466.764H166.564V452.264H115.068L97.768 351.59H34.2594L29.0117 466.764Z" fill="#DBDBDB"/>
<path d="M29.0117 466.764H36.5103L41.4046 351.59H34.2594L29.0117 466.764Z" fill="#A6A6A6"/>
<path d="M313.642 565.279C311.091 566.155 238.173 566.404 235.385 564.65C234.312 563.996 233.658 553.37 233.239 540.519L195.668 496.352L251.573 496.038L280.259 540.218C280.259 540.218 308.212 552.611 311.077 554.862C313.943 557.113 316.181 564.428 313.642 565.279Z" fill="#FFCFC0"/>
<path d="M313.645 565.278C311.093 566.155 238.175 566.404 235.388 564.65C234.432 564.074 233.817 555.673 233.398 544.824C240.4 546.041 299.485 556.196 302.286 554.639C305.086 553.082 296.187 547.468 296.187 547.468H296.292C303.097 550.608 309.758 553.815 311.08 554.848C313.906 557.099 316.183 564.428 313.645 565.278Z" fill="#263238"/>
<path d="M274.711 552.637C274.711 552.637 282.209 543.935 296.186 547.468L274.711 552.637Z" fill="#263238"/>
<path d="M285.128 539.72L256.717 542.508L228.673 545.269C228.673 545.269 172.401 465.271 168.986 461.777C161.134 453.925 97.9394 441.179 80.8877 424.232C62.8284 406.291 70.7065 383.599 70.7065 383.599H117.818C117.818 383.599 123.785 398.727 126.298 399.512C153.505 407.966 189.741 418.592 201.519 428.982C222.64 447.657 285.128 539.72 285.128 539.72Z" fill="#263238"/>
<path d="M276.282 531.057C268.286 531.803 270.563 531.476 262.594 532.365C258.668 532.771 233.031 535.506 229.459 536.54C229.367 536.54 229.459 536.697 229.459 536.697C233.175 536.88 258.772 533.7 262.672 533.216C270.642 532.208 268.339 532.418 276.295 531.332C276.332 531.33 276.366 531.314 276.39 531.287C276.415 531.26 276.428 531.224 276.426 531.188C276.424 531.151 276.408 531.117 276.381 531.092C276.354 531.068 276.318 531.055 276.282 531.057Z" fill="#607FE1"/>
<path d="M230.177 531.725C220.938 519.096 211.489 506.049 202.041 493.564L187.868 474.838C185.495 471.706 183.122 468.587 180.749 465.481C178.753 462.679 176.496 460.072 174.009 457.694C171.42 455.525 168.517 453.76 165.399 452.46C162.114 450.994 158.738 449.738 155.335 448.534C148.268 446.1 141.071 444.124 133.913 441.991C120.63 438.065 107.177 433.759 95.7394 425.75C85.4534 418.54 76.8687 407.835 74.4215 395.285C74.1187 393.693 73.9524 392.077 73.9242 390.456C73.9242 390.428 73.9132 390.402 73.8936 390.382C73.8739 390.363 73.8473 390.352 73.8195 390.352C73.7918 390.352 73.7651 390.363 73.7455 390.382C73.7259 390.402 73.7148 390.428 73.7148 390.456C73.9721 396.551 75.5528 402.517 78.3475 407.94C81.2803 413.491 85.2159 418.452 89.9551 422.57C100.163 431.613 113.079 436.835 125.93 440.891C133.049 443.129 140.325 445.066 147.405 447.238C151.03 448.351 154.615 449.515 158.162 450.824C161.562 452.001 164.873 453.422 168.068 455.077C171.177 456.76 173.946 459.005 176.234 461.699C178.655 464.539 180.801 467.627 183.039 470.611C187.75 476.866 192.475 483.113 197.212 489.351C206.726 501.927 216.174 514.568 225.832 527.04C227.036 528.597 228.253 530.128 229.457 531.672C229.784 532.17 230.569 532.261 230.177 531.725Z" fill="#607FE1"/>
<path d="M193.418 580.42C190.866 581.244 117.948 580.302 115.2 578.496C114.14 577.842 125.303 506.821 125.303 506.821L174.089 507.305L160.466 554.822C160.466 554.822 188.209 567.66 191.023 569.963C193.836 572.267 195.956 579.608 193.418 580.42Z" fill="#FFCFC0"/>
<path d="M193.417 580.42C190.865 581.244 117.947 580.302 115.199 578.496C114.859 578.286 115.788 570.722 117.215 560.58C120.185 539.407 125.289 506.821 125.289 506.821L174.075 507.305L160.452 554.822C160.452 554.822 169.076 558.814 177.19 562.74C183.628 565.854 189.74 568.93 190.983 569.95C193.823 572.254 195.956 579.608 193.417 580.42Z" fill="#FFCFC0"/>
<path d="M193.417 580.419C190.865 581.244 117.947 580.301 115.199 578.495C114.859 578.286 115.788 570.722 117.215 560.58C124.412 561.81 141.608 564.729 156.683 567.019L158.437 567.28C171.262 569.191 182.15 570.565 183.301 569.898C186.193 568.275 177.687 563.014 177.216 562.739C183.655 565.854 189.766 568.929 191.009 569.95C193.823 572.253 195.956 579.608 193.417 580.419Z" fill="#263238"/>
<path d="M155.754 567.922C155.754 567.922 163.252 559.206 177.216 562.687L155.754 567.922Z" fill="#263238"/>
<path d="M163.789 554.181L112.62 553.933C112.62 553.933 136.582 463.27 135.43 456.425C134.894 453.259 78.0461 458.022 57.6312 436.613C40.0691 418.187 56.244 383.678 56.244 383.678L110.998 382.369C110.998 382.369 105.946 397.183 102.505 406.37C102.505 406.37 177.582 411.67 186.009 428.133C195 445.721 163.789 554.181 163.789 554.181Z" fill="#263238"/>
<path d="M109.587 386.006C109.038 388.912 108.566 391.83 107.899 394.709C107.585 396.018 107.297 397.444 106.891 398.779C106.766 399.367 106.443 399.893 105.975 400.271C105.422 400.581 104.789 400.722 104.156 400.676C103.865 400.718 103.569 400.693 103.289 400.602C103.009 400.511 102.754 400.358 102.543 400.153C102.332 399.948 102.171 399.698 102.071 399.421C101.972 399.144 101.938 398.849 101.971 398.556C101.971 395.861 103.777 386.674 103.882 385.915C103.882 385.771 103.41 385.705 103.371 385.915C102.062 391.686 100.27 399.001 101.369 400.454C101.964 401.18 102.799 401.669 103.723 401.832C104.647 401.996 105.6 401.822 106.407 401.344C107.103 400.778 107.569 399.978 107.716 399.093C108.043 397.784 108.239 396.476 108.475 395.259C109.024 392.223 109.613 389.2 110.006 386.098C109.993 386.057 109.969 386.02 109.936 385.991C109.904 385.962 109.865 385.942 109.823 385.933C109.78 385.923 109.736 385.925 109.695 385.938C109.654 385.951 109.617 385.975 109.587 386.006Z" fill="#607FE1"/>
<path d="M103.306 401.737C103.212 402.104 103.138 402.475 103.084 402.85C103.005 403.229 102.926 403.595 102.835 403.962C102.743 404.328 102.665 404.708 102.56 405.087C102.455 405.467 102.403 405.82 102.325 406.2C102.322 406.231 102.331 406.262 102.348 406.288C102.366 406.315 102.391 406.334 102.421 406.345C102.45 406.355 102.483 406.356 102.512 406.346C102.542 406.336 102.568 406.317 102.586 406.291C102.758 405.951 102.911 405.601 103.044 405.244C103.162 404.865 103.28 404.498 103.385 404.119C103.489 403.739 103.568 403.373 103.646 402.993C103.758 402.615 103.824 402.223 103.843 401.829C103.843 401.567 103.398 401.462 103.306 401.737Z" fill="#607FE1"/>
<path d="M144.423 453.952C143.376 451.125 140.379 450.733 137.748 450.563C133.98 450.318 130.215 450 126.455 449.607C118.943 448.822 111.466 447.74 104.025 446.362C96.9482 445.195 89.9543 443.573 83.0863 441.507C76.742 439.669 70.8801 436.456 65.9168 432.098C61.2665 427.998 58.197 422.401 57.2405 416.276C56.8891 412.544 56.9902 408.782 57.5415 405.074C57.9734 401.345 58.5099 397.641 59.2558 393.964C59.6353 392.145 60.0541 390.352 60.5645 388.572C60.557 388.552 60.5436 388.535 60.5261 388.523C60.5086 388.51 60.4877 388.504 60.4663 388.504C60.4449 388.504 60.4241 388.51 60.4065 388.523C60.389 388.535 60.3756 388.552 60.3682 388.572C58.4729 395.73 57.16 403.03 56.4422 410.4C56.1167 413.771 56.387 417.173 57.2405 420.451C58.093 423.272 59.4207 425.928 61.1664 428.303C68.9136 439.034 82.2487 442.92 94.5762 445.577C101.957 447.173 109.373 448.482 116.823 449.503C120.448 449.987 124.086 450.419 127.724 450.811C131.362 451.204 135.092 451.361 138.769 451.688C139.554 451.665 140.335 451.805 141.063 452.1C141.791 452.395 142.449 452.839 142.996 453.403C143.392 454.058 143.654 454.784 143.769 455.541C143.883 456.298 143.848 457.07 143.664 457.813C143.389 459.527 142.878 461.215 142.46 462.903C142.041 464.591 141.557 466.502 141.151 468.295C139.266 475.789 137.395 483.296 135.537 490.817C131.833 505.775 128.038 520.732 124.583 535.756C124.152 537.614 123.733 539.472 123.34 541.344C123.332 541.378 123.337 541.415 123.355 541.446C123.374 541.476 123.404 541.498 123.438 541.507C123.473 541.516 123.51 541.51 123.541 541.492C123.571 541.473 123.593 541.444 123.602 541.409C125.774 533.989 127.528 526.451 129.478 518.953C131.428 511.454 133.299 503.955 135.17 496.457C137.042 488.958 138.913 481.551 140.758 474.092C141.631 470.332 142.556 466.576 143.533 462.825C144.174 460.064 145.456 456.713 144.423 453.952Z" fill="#607FE1"/>
<path d="M164.339 545.492C158.411 545.125 152.47 544.981 146.529 544.785C140.588 544.589 134.672 544.51 128.744 544.615C125.368 544.615 122.005 544.903 118.628 544.955C118.498 544.955 118.511 545.151 118.628 545.151C124.57 545.151 130.498 545.623 136.439 545.649C142.38 545.675 148.295 545.649 154.224 545.649C157.587 545.649 160.963 545.766 164.339 545.74C164.549 545.714 164.549 545.505 164.339 545.492Z" fill="#607FE1"/>
<path d="M81.647 391.673C81.5741 391.932 81.4732 392.182 81.3461 392.419C81.3312 392.438 81.3231 392.461 81.3231 392.485C81.3231 392.508 81.3312 392.531 81.3461 392.55C80.129 396.607 78.5979 400.781 75.0384 403.346C73.2101 404.645 71.1746 405.622 69.0186 406.238C66.506 406.971 63.8887 407.181 61.363 407.874C61.3079 407.9 61.2627 407.943 61.2346 407.996C61.2064 408.05 61.1968 408.112 61.2072 408.171C61.2177 408.231 61.2476 408.286 61.2924 408.327C61.3371 408.368 61.3942 408.393 61.4546 408.398C64.291 408.523 67.1304 408.232 69.8823 407.534C72.2553 407.001 74.4866 405.966 76.4255 404.498C80.3515 401.318 81.4638 396.528 81.9873 391.699C81.9742 391.529 81.6994 391.529 81.647 391.673Z" fill="#607FE1"/>
<path d="M184.494 425.41C182.125 422.23 178.644 420.516 174.954 419.312C150.089 411.146 119.611 407.534 102.978 406.16C102.847 406.16 102.795 406.343 102.978 406.356C120.959 409.065 166.984 415.229 179.992 422.989C185.567 426.313 188.014 434.283 186.457 447.396C185.213 457.865 183.839 469.119 182.125 479.471C182.125 479.837 182.308 479.811 182.387 479.471C184.363 470.127 186.064 459.906 187.268 450.432C188.236 442.24 189.78 432.503 184.494 425.41Z" fill="#607FE1"/>
<path d="M83.1108 277.389C77.2219 284.862 76.5676 296.064 76.5676 296.064C76.5676 296.064 71.49 307.842 73.9503 313.639C74.6313 315.284 75.7018 316.739 77.0695 317.879C78.4372 319.018 80.0613 319.809 81.8021 320.182L80.8599 316.937C80.8599 316.937 83.4772 320.941 90.9234 321.792C98.3696 322.642 107.569 319.279 112.215 316.178C114.992 314.363 117.247 311.855 118.758 308.902L117.45 313.94C119.759 313.396 121.899 312.289 123.677 310.718C125.456 309.147 126.819 307.161 127.644 304.936C130.889 297.006 117.698 287.767 116.416 285.595C115.133 283.422 111.822 266.829 94.5484 271.841C94.5353 271.854 87.1676 272.26 83.1108 277.389Z" fill="#263238"/>
<path d="M79.3055 320.064C77.1587 319.196 75.3311 317.688 74.0709 315.746C72.7259 313.866 72.0529 311.589 72.1602 309.281C72.4801 306.539 73.296 303.879 74.5682 301.429C75.7198 298.812 77.0546 296.338 78.1539 293.734C78.1539 293.59 77.9968 293.499 77.9052 293.616C76.5696 295.648 75.3506 297.754 74.2541 299.924C73.0906 301.919 72.1681 304.045 71.5059 306.258C70.9043 308.304 70.9043 310.48 71.5059 312.526C72.0193 314.194 72.9363 315.709 74.1756 316.936C75.7103 318.252 77.4081 319.365 79.2269 320.247C79.3316 320.287 79.4887 320.103 79.3055 320.064Z" fill="#263238"/>
<path d="M128.196 297.124C125.343 291.209 119.323 287.964 115.305 283.004C113.12 280.308 111.314 277.259 108.631 275.021C108.631 274.956 108.461 275.021 108.527 275.139C110.579 277.299 112.396 279.673 113.944 282.219C115.752 284.632 117.799 286.855 120.056 288.853C124.06 292.622 128.837 297.072 128.745 303.026C128.745 305.787 127.437 308.967 124.819 310.145C124.715 310.145 124.819 310.368 124.911 310.302C125.952 309.732 126.864 308.955 127.594 308.018C128.323 307.082 128.853 306.007 129.151 304.858C129.778 302.249 129.439 299.502 128.196 297.124Z" fill="#263238"/>
<path d="M128.652 298.759C128.57 296.388 127.752 294.1 126.309 292.216C124.754 290.463 122.839 289.066 120.695 288.12C118.314 286.916 115.827 285.817 114.152 283.657C114.152 283.566 113.956 283.657 114.021 283.775C116.717 287.335 121.153 288.617 124.399 291.496C128.115 294.794 128.757 300.159 127.016 304.583C125.894 307.325 124.141 309.764 121.899 311.702C121.899 311.702 121.899 311.793 121.899 311.702C125.786 308.613 128.953 303.981 128.652 298.759Z" fill="#263238"/>
<path d="M111.94 336.566C121.65 345.334 156.251 372.096 168.932 369.008C177.242 366.979 206.215 349.26 207.956 339.511C208.715 335.271 194.228 315.288 190.603 318.128C186.978 320.967 164.155 336.043 160.74 336.632C157.324 337.221 122.318 322.237 110.815 319.96C90.9756 315.929 106.719 331.842 111.94 336.566Z" fill="#FFCFC0"/>
<path d="M194.466 308.522C198.68 305.904 203.312 302.672 208.403 301.704C213.493 300.735 219.094 306.546 219.5 308.456C219.906 310.367 220.495 322.721 215.417 323.781C210.34 324.841 211.491 315.026 211.085 314.018C210.68 313.01 210.196 311.702 209.266 312.003C208.337 312.304 193.262 323.781 193.262 323.781L194.466 308.522Z" fill="#FFCFC0"/>
<path d="M194.934 309.15C195.221 309.15 207.667 300.893 212.757 299.924C217.848 298.956 223.449 304.766 223.842 306.69C224.234 308.614 224.836 320.941 219.772 322.001C214.707 323.061 215.846 313.246 215.427 312.239C215.008 311.231 214.55 309.922 213.608 310.223C212.666 310.524 197.616 322.001 197.616 322.001L194.934 309.15Z" fill="#FFCFC0"/>
<path d="M217.915 321.726C217.19 320.932 216.685 319.962 216.449 318.913C216.115 317.855 215.947 316.751 215.952 315.641C216.03 314.67 216.03 313.694 215.952 312.723C215.736 311.784 215.285 310.915 214.643 310.197C214.106 309.556 213.413 309.962 212.811 310.315C211.946 310.876 211.116 311.487 210.324 312.147C209.448 312.828 208.597 313.534 207.707 314.228C206.79 314.915 205.916 315.658 205.09 316.453C205.09 316.518 205.09 316.636 205.181 316.583C206.006 316.086 206.739 315.458 207.511 314.882C208.283 314.306 209.251 313.574 210.128 312.958C211.005 312.343 211.738 311.728 212.575 311.139C212.863 310.943 213.439 310.459 213.884 310.459C214.329 310.459 214.669 311.375 214.826 311.676C215.231 312.541 215.367 313.507 215.219 314.45C215.142 315.41 215.164 316.374 215.284 317.329C215.367 318.242 215.625 319.131 216.043 319.947C216.521 320.654 217.079 321.304 217.705 321.883C217.862 321.936 218.006 321.805 217.915 321.726Z" fill="#263238"/>
<path d="M181.652 325.81C181.652 325.81 192.998 310.106 195.393 306.926C200.183 300.605 222.77 285.346 226.133 284.26C229.496 283.174 232.218 289.966 216.973 300.801C208.938 306.52 208.427 311.912 209.121 314.673C209.814 317.434 213.649 322.106 218.281 320.994C222.914 319.881 224.589 312.357 228.751 310.682C232.912 309.007 231.721 317.552 229.627 322.774C227.352 327.883 223.671 332.24 219.014 335.337C215.258 337.718 203.782 345.806 203.782 345.806L181.652 325.81Z" fill="#FFCFC0"/>
<path d="M223.58 316.453C222.101 318.193 220.452 320.379 218.136 320.981C215.82 321.583 213.844 320.339 212.312 318.599C210.672 316.925 209.735 314.687 209.695 312.344C209.812 310.192 210.548 308.119 211.815 306.376C213.367 304.257 215.219 302.375 217.311 300.788C217.324 300.782 217.335 300.773 217.344 300.762C217.353 300.75 217.359 300.737 217.361 300.723C217.364 300.709 217.363 300.695 217.36 300.681C217.356 300.668 217.349 300.655 217.34 300.645C217.33 300.634 217.318 300.626 217.305 300.621C217.292 300.615 217.278 300.613 217.263 300.615C217.249 300.616 217.236 300.62 217.224 300.628C217.211 300.635 217.201 300.645 217.194 300.657C215.218 302.071 209.054 306.258 208.949 312.501C209.006 314.889 209.975 317.165 211.658 318.861C213.098 320.523 214.995 322.014 217.325 321.727C220.151 321.36 222.075 318.599 223.724 316.492C223.815 316.387 223.658 316.361 223.58 316.453Z" fill="#263238"/>
<path d="M180.63 321.033L197.263 353.579C197.263 353.579 175.304 369.702 163.055 370.722C148.189 372.031 111.665 340.401 106.168 334.983C97.1649 326.084 95.4506 319.044 102.164 317.971C104.781 317.539 108.707 317.971 113.942 319.659C119.399 321.373 151.893 333.779 160.948 334.852C165.921 335.441 180.63 321.033 180.63 321.033Z" fill="#607FE1"/>
<path d="M180.619 321.033L197.265 353.579C197.265 353.579 193.627 356.196 188.471 359.481C180.973 364.192 170.307 370.107 163.057 370.709C148.204 372.018 111.654 340.388 106.17 334.97C99.6272 328.531 97.0099 323.061 98.5148 320.13C98.9076 319.504 99.4435 318.981 100.078 318.603C100.713 318.225 101.429 318.004 102.166 317.957C104.783 317.539 108.709 317.957 113.944 319.659C119.401 321.373 151.895 333.779 160.95 334.852C165.923 335.441 180.619 321.033 180.619 321.033Z" fill="#607FE1"/>
<path d="M197.264 353.579C197.264 353.579 193.626 356.196 188.47 359.481C185.186 361.535 181.325 363.825 177.386 365.801C172.308 368.34 167.139 370.369 162.991 370.709C148.138 372.018 111.587 340.388 106.104 334.97C99.5608 328.531 96.9435 323.061 98.4484 320.13C98.6335 319.766 98.8919 319.446 99.2074 319.187C100.032 318.506 101.037 318.079 102.1 317.957C104.717 317.539 108.643 317.957 113.877 319.659C119.334 321.373 151.828 333.779 160.884 334.852C165.922 335.454 180.618 321.046 180.618 321.046L197.264 353.579Z" fill="#607FE1"/>
<path d="M190.475 355.136C187.858 350.399 177.938 330.651 176.08 326.228C175.949 325.927 176.08 325.77 176.289 326.071C184.429 340.061 188.342 350.255 190.684 355.031C190.723 355.149 190.54 355.254 190.475 355.136Z" fill="#263238"/>
<path d="M177.374 365.789C172.297 368.328 167.128 370.356 162.979 370.696C148.126 372.005 111.576 340.375 106.092 334.957C99.5491 328.519 96.9318 323.048 98.4367 320.117C98.6218 319.754 98.8802 319.433 99.1957 319.175L177.374 365.789Z" fill="#263238"/>
<path d="M50.3438 397.916C55.5783 398.675 68.0759 399.8 81.3848 400.926C102.611 402.679 126.01 404.381 126.01 404.381L122.084 363.813C122.084 363.813 127.515 355.961 126.52 348.358C125.368 339.773 111.654 322.119 110.188 320.758C105.228 316.139 98.0701 313.391 91.2128 317.081C89.7785 317.862 88.4577 318.835 87.2868 319.973C87.2019 320.045 87.1231 320.124 87.0513 320.209C86.6718 320.575 86.2661 320.968 85.8866 321.399C68.8349 339.812 50.3438 397.916 50.3438 397.916Z" fill="#607FE1"/>
<path d="M81.0187 325.967C67.0162 345.021 48.7868 380.524 55.1861 386.164C69.1886 398.544 98.3714 413.162 112.466 414.366C116.588 414.719 124.243 387.748 121.456 384.267C118.669 380.786 83.5052 370.984 83.1911 368.301C82.9817 366.77 87.5751 349.797 91.5272 333.413C96.0944 314.608 85.0232 320.51 81.0187 325.967Z" fill="#FFCFC0"/>
<path d="M114.22 382.29C114.22 382.29 126.822 381.937 135.066 382.094C139.66 382.186 147.538 383.036 150.888 384.646C155.9 387.054 175.307 400.35 172.193 405.113C169.366 409.432 154.133 395.953 154.133 395.953C154.133 395.953 170.714 408.228 166.356 412.821C161.998 417.414 146.831 399.826 146.831 399.826C146.831 399.826 163.582 412.834 158.334 416.838C154.408 419.875 139.738 404.734 139.738 404.734C139.738 404.734 154.081 415.988 150.155 419.286C145.771 422.937 131.376 409.85 131.376 409.85C119.951 416.551 111.746 415.085 106.093 413.318C104.719 412.834 114.22 382.29 114.22 382.29Z" fill="#FFCFC0"/>
<path d="M148.675 391.294C150.677 392.668 152.705 394.042 154.577 395.586C156.448 397.131 158.267 398.74 159.981 400.454C162.27 402.652 164.303 405.102 166.041 407.757C162.445 403.502 158.458 399.594 154.132 396.084C152.274 394.539 150.481 392.904 148.609 391.359L148.675 391.294Z" fill="#263238"/>
<path d="M142.971 397.942C145.457 399.813 147.983 401.567 150.378 403.543C152.773 405.519 154.853 407.574 157.091 409.694C157.261 409.864 157.091 409.903 156.934 409.694C154.618 407.665 152.302 405.964 149.959 403.962C147.617 401.96 145.34 399.853 142.919 397.942C142.892 397.968 142.932 397.916 142.971 397.942Z" fill="#263238"/>
<path d="M137.066 402.771C140.93 405.538 144.499 408.696 147.718 412.193C147.888 412.363 147.718 412.39 147.522 412.193C144.028 409 141.319 406.461 136.974 402.876C136.882 402.85 136.961 402.719 137.066 402.771Z" fill="#263238"/>
<path d="M98.4244 414.391L117.439 380.785C117.439 380.785 84.9715 369.439 84.1602 368.392C83.3488 367.345 89.8135 346.145 92.5355 332.195C95.2575 318.245 88.9498 314.921 78.6115 328.086C68.2732 341.251 49.2455 376.061 52.4386 384.541C55.6317 393.021 98.4244 414.391 98.4244 414.391Z" fill="#607FE1"/>
<path d="M110.528 380.445C109.759 381.481 109.063 382.57 108.447 383.704L106.275 387.263C104.809 389.684 103.396 392.132 102.009 394.592C99.2735 399.473 96.5646 404.381 93.8164 409.249C93.8164 409.366 93.9211 409.458 93.9996 409.353C97.0095 404.616 99.9801 399.879 102.846 395.05C104.272 392.668 105.647 390.26 106.942 387.813C107.596 386.583 108.251 385.353 108.879 384.123C109.547 382.961 110.133 381.754 110.633 380.511C110.659 380.445 110.567 380.406 110.528 380.445Z" fill="#263238"/>
<path d="M98.2937 414.143C92.3394 410.989 86.5159 407.6 80.6531 404.197C74.7904 400.795 68.8753 397.366 63.3398 393.532C61.7694 392.445 60.1859 391.372 58.6417 390.247C57.0975 389.121 55.6842 387.891 54.0876 386.91C53.9698 386.831 53.8652 387.001 53.9568 387.08C55.1329 388.283 56.4066 389.386 57.7649 390.378C59.0736 391.451 60.4869 392.498 61.8741 393.532C64.4914 395.534 67.3573 397.458 70.184 399.198C75.8635 402.836 81.7786 406.095 87.7853 409.157C91.2401 410.91 94.7603 412.546 98.2544 414.326C98.2733 414.321 98.2904 414.311 98.3039 414.297C98.3174 414.283 98.3267 414.266 98.3307 414.247C98.3348 414.228 98.3335 414.208 98.327 414.189C98.3204 414.171 98.3089 414.155 98.2937 414.143Z" fill="#263238"/>
<path d="M117.439 380.55C114.508 379.411 85.7568 368.458 84.5659 368.236C84.5659 367.346 87.1047 357.073 87.6674 354.691C87.7983 354.128 87.9161 353.579 88.0339 353.029C88.4657 351.943 88.8845 350.844 89.3425 349.745C89.9322 348.255 90.614 346.804 91.384 345.4C91.3979 345.375 91.4015 345.347 91.3942 345.32C91.3868 345.293 91.369 345.27 91.3447 345.256C91.3204 345.242 91.2916 345.238 91.2646 345.246C91.2376 345.253 91.2147 345.271 91.2008 345.295C90.4548 346.735 89.6958 348.187 89.0153 349.653L88.662 350.425L89.2902 347.677C89.8267 345.243 90.4549 342.796 90.8082 340.322C90.8001 340.299 90.7851 340.279 90.7652 340.265C90.7453 340.251 90.7214 340.243 90.697 340.243C90.6725 340.243 90.6486 340.251 90.6287 340.265C90.6088 340.279 90.5938 340.299 90.5857 340.322C89.7089 342.782 89.0939 345.334 88.4003 347.847C87.7067 350.36 83.7153 368.471 83.8593 368.589C84.9193 369.374 114.586 379.739 117.426 380.799C117.439 380.786 117.518 380.589 117.439 380.55Z" fill="#263238"/>
<path d="M170.202 418.919H102.938V421.942H170.202V418.919Z" fill="#5FD58C"/>
<path opacity="0.1" d="M170.202 418.919H136.348V421.942H170.202V418.919Z" fill="black"/>
<path d="M140 421.929H205.55L214.122 377.409H148.559L140 421.929Z" fill="#5FD58C"/>
<path d="M173.07 399.67C173.024 400.172 173.084 400.679 173.247 401.157C173.409 401.635 173.671 402.073 174.014 402.443C174.357 402.813 174.774 403.107 175.238 403.306C175.702 403.504 176.203 403.603 176.708 403.596C177.783 403.575 178.816 403.166 179.614 402.445C180.412 401.723 180.923 400.738 181.052 399.67C181.106 399.161 181.051 398.647 180.892 398.161C180.732 397.675 180.471 397.229 180.126 396.852C179.78 396.474 179.359 396.175 178.889 395.972C178.42 395.77 177.913 395.67 177.401 395.678C176.316 395.698 175.276 396.116 174.477 396.851C173.679 397.587 173.178 398.59 173.07 399.67Z" fill="white"/>
<path d="M93.2555 318.246C93.6612 319.279 99.7987 325.482 104.601 324.553C106.172 324.239 104.889 315.563 104.889 315.563V314.896L105.609 305.617L94.08 300.383L92.418 299.702C92.418 299.702 92.418 302.254 92.418 305.434V305.892C92.418 306.062 92.418 306.232 92.418 306.402C92.418 306.874 92.418 307.358 92.418 307.842C92.418 308.326 92.418 308.575 92.418 308.954C92.418 309.334 92.418 309.726 92.418 310.106C92.5195 312.834 92.7992 315.554 93.2555 318.246Z" fill="#FFCFC0"/>
<path d="M92.4414 305.408C93.7094 307.803 95.4845 309.893 97.6429 311.531C99.8014 313.17 102.291 314.318 104.939 314.896L105.659 305.617L94.1296 300.383L92.4676 299.702C92.4676 299.702 92.4414 302.228 92.4414 305.408Z" fill="#263238"/>
<path d="M115.841 289.455C119.623 305.342 110.528 309.398 107.099 310.21C103.984 310.943 93.3059 313.063 87.9012 297.647C82.4965 282.231 88.6864 275.4 95.7531 273.384C102.82 271.369 112.059 273.594 115.841 289.455Z" fill="#FFCFC0"/>
<path d="M113.695 286.838C113.32 286.857 112.945 286.857 112.57 286.838C112.171 286.873 111.771 286.777 111.431 286.563C111.338 286.477 111.276 286.362 111.254 286.236C111.233 286.111 111.254 285.982 111.314 285.869C111.463 285.669 111.663 285.512 111.893 285.413C112.122 285.314 112.374 285.277 112.622 285.307C113.151 285.296 113.664 285.482 114.062 285.83C114.133 285.913 114.181 286.013 114.2 286.12C114.22 286.228 114.211 286.338 114.173 286.441C114.136 286.544 114.072 286.634 113.988 286.704C113.904 286.774 113.803 286.82 113.695 286.838Z" fill="#263238"/>
<path d="M103.408 288.787C103.764 288.672 104.114 288.536 104.455 288.382C104.846 288.294 105.196 288.077 105.45 287.767C105.513 287.653 105.536 287.521 105.514 287.393C105.493 287.264 105.429 287.147 105.332 287.06C105.121 286.915 104.875 286.829 104.62 286.81C104.365 286.792 104.109 286.842 103.879 286.955C103.382 287.122 102.959 287.461 102.688 287.911C102.632 288.018 102.608 288.139 102.62 288.26C102.632 288.38 102.68 288.495 102.757 288.588C102.834 288.682 102.937 288.751 103.052 288.786C103.168 288.822 103.292 288.822 103.408 288.787Z" fill="#263238"/>
<path d="M106.223 292.504C106.223 292.504 106.158 292.504 106.158 292.622C106.406 293.708 106.498 294.99 105.582 295.54C106.773 295.2 106.629 293.498 106.223 292.504Z" fill="#263238"/>
<path d="M105.03 291.549C103.25 291.745 103.722 295.305 105.436 295.108C107.15 294.912 106.522 291.379 105.03 291.549Z" fill="#263238"/>
<path d="M104.35 291.837C104.075 292.086 103.827 292.491 103.447 292.583C103.068 292.675 102.649 292.361 102.309 292.047C102.4 292.727 102.767 293.355 103.513 293.355C104.258 293.355 104.573 292.675 104.638 291.968C104.612 291.916 104.481 291.746 104.35 291.837Z" fill="#263238"/>
<path d="M112.203 291.156C112.203 291.156 112.295 291.156 112.295 291.235C112.413 292.347 112.74 293.59 113.787 293.852C112.596 293.878 112.203 292.216 112.203 291.156Z" fill="#263238"/>
<path d="M113.052 289.861C114.805 289.481 115.447 293.014 113.824 293.368C112.201 293.721 111.586 290.188 113.052 289.861Z" fill="#263238"/>
<path d="M113.839 289.965C114.154 290.096 114.494 290.384 114.821 290.345C115.148 290.306 115.436 289.874 115.619 289.455C115.763 290.122 115.619 290.868 115.043 291.117C114.468 291.366 113.931 290.842 113.656 290.188C113.656 290.109 113.709 289.913 113.839 289.965Z" fill="#263238"/>
<path d="M107.215 301.037C107.516 301.272 107.817 301.599 108.223 301.586C108.631 301.539 109.023 301.405 109.375 301.194C109.375 301.194 109.453 301.194 109.375 301.194C109.244 301.425 109.054 301.616 108.824 301.748C108.593 301.879 108.331 301.945 108.066 301.94C107.834 301.904 107.619 301.801 107.446 301.642C107.274 301.484 107.152 301.277 107.098 301.05C107.098 301.037 107.176 301.01 107.215 301.037Z" fill="#263238"/>
<path d="M111.169 296.325C111.415 297.108 111.62 297.903 111.784 298.707C111.784 298.786 111.614 298.838 111.353 298.903C110.708 299.131 110.012 299.177 109.343 299.036C108.674 298.895 108.056 298.573 107.557 298.105C107.492 298.04 107.557 297.948 107.662 297.987C108.757 298.496 109.985 298.643 111.169 298.406C111.169 298.184 110.24 295.684 110.358 295.658C110.967 295.615 111.579 295.655 112.177 295.776C111.261 292.399 109.795 289.232 108.932 285.843C108.929 285.821 108.934 285.799 108.946 285.78C108.957 285.761 108.974 285.746 108.995 285.737C109.015 285.728 109.038 285.726 109.059 285.731C109.081 285.736 109.1 285.748 109.115 285.764C110.772 289.141 112.087 292.674 113.041 296.312C113.185 296.731 111.51 296.417 111.169 296.325Z" fill="#263238"/>
<path d="M111.197 298.314C110.927 299.035 110.476 299.675 109.888 300.172C109.547 300.428 109.137 300.574 108.711 300.591C107.782 300.591 107.533 299.806 107.507 299.086C107.494 298.7 107.525 298.314 107.598 297.935C108.729 298.434 109.987 298.567 111.197 298.314Z" fill="#263238"/>
<path d="M109.819 300.173C109.478 300.429 109.067 300.575 108.641 300.592C107.712 300.592 107.464 299.807 107.438 299.087C107.899 298.973 108.385 299.018 108.818 299.215C109.25 299.413 109.603 299.75 109.819 300.173Z" fill="#FFA2BE"/>
<path d="M88.0303 297.739C89.8624 297.333 93.8276 291.47 92.5059 282.532C92.5059 282.532 93.134 290.633 92.7283 291.902C92.3227 293.172 94.94 288.604 93.9716 281.433C96.5022 282.684 99.1993 283.566 101.98 284.05C105.527 284.443 107.595 284.05 107.791 283.789C107.987 283.527 102.753 282.742 101.143 281.407C101.143 281.407 110.853 284.116 115.067 283.749C115.551 283.749 114.504 273.725 107.372 270.584C100.24 267.444 90.8177 273.66 88.5145 276.748C88.5145 276.748 85.3738 277.743 82.6649 283.069C79.956 288.395 86.0281 298.184 88.0303 297.739Z" fill="#263238"/>
<path d="M111.523 292.072C110.96 289.337 111.968 286.837 113.787 286.419C115.606 286 117.543 287.963 118.119 290.711C118.694 293.459 117.674 295.946 115.855 296.377C114.036 296.809 112.099 294.755 111.523 292.072ZM112.19 291.941C112.688 294.31 114.271 295.998 115.711 295.71C117.15 295.422 117.935 293.224 117.451 290.842C116.967 288.46 115.371 286.785 113.918 287.086C112.465 287.387 111.706 289.455 112.204 291.876L112.19 291.941Z" fill="#5FD58C"/>
<path d="M99.0131 294.611C98.8867 293.691 99.032 292.754 99.4311 291.915C99.8302 291.077 100.466 290.373 101.259 289.891C102.053 289.409 102.97 289.17 103.899 289.202C104.827 289.235 105.725 289.538 106.483 290.074C107.241 290.61 107.826 291.356 108.166 292.221C108.505 293.085 108.585 294.03 108.395 294.939C108.204 295.848 107.753 296.681 107.095 297.337C106.437 297.992 105.602 298.441 104.693 298.628C103.407 298.848 102.086 298.549 101.021 297.795C99.956 297.042 99.2338 295.897 99.0131 294.611ZM99.6805 294.467C99.9025 295.226 100.341 295.903 100.942 296.417C101.543 296.931 102.28 297.259 103.065 297.36C103.849 297.462 104.645 297.332 105.357 296.988C106.069 296.644 106.666 296.1 107.073 295.423C107.481 294.746 107.683 293.964 107.654 293.174C107.625 292.384 107.366 291.619 106.909 290.974C106.453 290.328 105.818 289.83 105.083 289.539C104.347 289.248 103.543 289.178 102.769 289.337C101.682 289.612 100.747 290.306 100.169 291.266C99.5906 292.227 99.415 293.377 99.6805 294.467Z" fill="#5FD58C"/>
<path d="M107.99 292.282C110.306 290.881 111.602 291.47 111.615 291.47L111.916 290.868C111.916 290.868 110.306 290.083 107.637 291.693L107.99 292.282Z" fill="#5FD58C"/>
<path d="M99.2462 294.101V293.381C98.8013 293.381 91.2373 293.486 90.0857 293.656C88.9341 293.826 86.5 295.92 86.2383 296.155L86.6832 296.666C87.7016 295.708 88.8683 294.921 90.138 294.336C91.0672 294.231 95.4642 294.192 99.2462 294.101Z" fill="#5FD58C"/>
<path d="M90.7164 298.301C90.7164 298.301 86.4371 293.786 84.3433 295.383C82.2494 296.979 85.966 303.889 88.8057 304.543C89.1633 304.647 89.5382 304.678 89.9079 304.633C90.2775 304.587 90.634 304.467 90.9559 304.28C91.2778 304.093 91.5583 303.842 91.7803 303.543C92.0023 303.244 92.1612 302.903 92.2475 302.541L90.7164 298.301Z" fill="#FFCFC0"/>
<path d="M85.4531 297.307C85.4531 297.307 85.4531 297.307 85.4531 297.385C86.3821 297.688 87.2372 298.182 87.9631 298.835C88.689 299.489 89.2695 300.288 89.667 301.181C89.5303 301.007 89.3574 300.866 89.1606 300.767C88.9637 300.667 88.7475 300.612 88.527 300.604C88.3065 300.597 88.0871 300.637 87.8839 300.723C87.6808 300.809 87.4988 300.939 87.3507 301.102C87.3507 301.102 87.3507 301.207 87.3507 301.194C87.6655 301.036 88.0222 300.981 88.3699 301.037C88.7176 301.094 89.0387 301.258 89.2875 301.508C89.6999 301.903 90.0684 302.342 90.3867 302.816C90.5045 302.973 90.7924 302.816 90.7008 302.646C90.4391 300.278 88.0704 297.189 85.4531 297.307Z" fill="#263238"/>
<path d="M104.967 315.51L103.24 324.409L92.8491 315.34L89.957 318.847C89.957 318.847 101.97 334.551 101.892 333.753L103.92 325.979L109.783 329.984L107.231 318.795L104.967 315.51Z" fill="#E1E1E1"/>
<path d="M107.336 318.886C107.336 318.821 107.178 318.808 107.192 318.886C107.414 320.797 108.984 327.497 109.338 329.355C109.089 329.172 103.946 325.874 103.92 325.953C103.396 327.262 101.905 332.889 101.826 333.386C99.7192 331.057 92.2076 320.967 89.8389 318.834C89.8243 318.827 89.8078 318.825 89.7918 318.827C89.7758 318.83 89.761 318.838 89.7496 318.849C89.7381 318.861 89.7304 318.875 89.7277 318.891C89.7249 318.907 89.7272 318.924 89.7342 318.939C91.671 321.451 101.8 334.485 101.918 334.42C102.768 331.725 103.472 328.986 104.025 326.215C105.982 327.776 108.041 329.206 110.188 330.494C109.861 328.439 107.964 320.862 107.336 318.886Z" fill="#263238"/>
</svg>
