<svg width="593" height="343" viewBox="0 0 593 343" fill="none" xmlns="http://www.w3.org/2000/svg">
<path d="M550.644 216.578L557.755 205.11L554.221 202.923C553.722 202.604 553.32 202.153 553.061 201.62C552.802 201.087 552.696 200.493 552.754 199.903C552.812 199.247 552.834 198.589 552.823 197.93C552.806 197.329 552.958 196.734 553.261 196.215C553.564 195.695 554.006 195.27 554.538 194.988L558.175 193.033L551.794 181.136L548.114 183.074C547.601 183.35 547.023 183.479 546.442 183.447C545.861 183.416 545.3 183.224 544.82 182.894C544.232 182.485 543.622 182.107 542.993 181.762C542.48 181.48 542.056 181.061 541.767 180.553C541.477 180.044 541.335 179.465 541.355 178.88L541.492 174.754L528 174.334L527.871 178.477C527.854 179.063 527.674 179.632 527.351 180.122C527.028 180.611 526.576 181.001 526.044 181.247C525.727 181.393 525.418 181.556 525.109 181.719C524.8 181.882 524.492 182.054 524.2 182.234C523.702 182.54 523.129 182.703 522.545 182.703C521.96 182.703 521.387 182.54 520.889 182.234L517.355 180.047L510.245 191.515L513.787 193.71C514.286 194.027 514.686 194.477 514.944 195.009C515.201 195.54 515.306 196.133 515.245 196.721C515.194 197.373 515.168 198.033 515.177 198.685C515.198 199.284 515.053 199.877 514.758 200.397C514.463 200.918 514.029 201.347 513.504 201.636L509.867 203.583L516.249 215.48L519.886 213.533C520.415 213.254 521.011 213.128 521.608 213.169C522.205 213.21 522.779 213.416 523.265 213.764C523.802 214.14 524.361 214.483 524.938 214.794C525.462 215.068 525.9 215.483 526.203 215.992C526.506 216.501 526.662 217.084 526.653 217.676L526.525 221.844L540.008 222.265L540.137 218.13C540.161 217.538 540.348 216.964 540.678 216.472C541.008 215.98 541.468 215.589 542.007 215.343C542.316 215.205 542.607 215.051 542.907 214.897C543.208 214.742 543.491 214.571 543.765 214.399C544.271 214.088 544.853 213.923 545.446 213.923C546.04 213.923 546.622 214.088 547.128 214.399L550.644 216.578ZM540.454 207.297C538.578 208.646 536.326 209.374 534.015 209.377C531.704 209.38 529.45 208.659 527.569 207.315C525.689 205.971 524.277 204.072 523.533 201.884C522.788 199.696 522.747 197.33 523.417 195.118C524.086 192.906 525.432 190.959 527.265 189.552C529.098 188.144 531.326 187.346 533.636 187.271C535.946 187.195 538.222 187.845 540.143 189.129C542.065 190.413 543.535 192.268 544.348 194.431C545.205 196.705 545.287 199.198 544.583 201.524C543.879 203.85 542.428 205.879 540.454 207.297Z" fill="#EBEBEB"/>
<path d="M508.71 174.352L516.893 169.625L515.452 167.121C515.245 166.759 515.142 166.347 515.156 165.93C515.17 165.514 515.299 165.109 515.529 164.762C515.785 164.369 516.02 163.962 516.233 163.544C516.417 163.172 516.702 162.858 517.055 162.638C517.408 162.419 517.815 162.302 518.231 162.3H521.13V152.865H518.231C517.816 152.862 517.409 152.744 517.057 152.525C516.704 152.305 516.419 151.993 516.233 151.621C516.02 151.2 515.785 150.791 515.529 150.395C515.299 150.049 515.169 149.646 515.156 149.231C515.142 148.815 515.245 148.405 515.452 148.045L516.893 145.54L508.71 140.788L507.261 143.301C507.049 143.66 506.743 143.953 506.375 144.149C506.007 144.344 505.592 144.434 505.176 144.408C504.945 144.408 504.713 144.408 504.473 144.408C504.233 144.408 504.01 144.408 503.778 144.408C503.365 144.434 502.952 144.345 502.586 144.151C502.219 143.958 501.914 143.666 501.702 143.31L500.244 140.788L492.053 145.514L493.502 148.027C493.71 148.387 493.812 148.798 493.799 149.214C493.785 149.629 493.656 150.032 493.425 150.378C493.167 150.771 492.929 151.177 492.713 151.596C492.532 151.969 492.249 152.283 491.897 152.503C491.545 152.723 491.138 152.839 490.723 152.839H487.824V162.275H490.698C491.111 162.275 491.517 162.39 491.869 162.609C492.22 162.827 492.504 163.139 492.688 163.51C492.901 163.929 493.139 164.336 493.4 164.728C493.63 165.075 493.759 165.48 493.773 165.896C493.786 166.313 493.684 166.725 493.477 167.086L492.027 169.6L500.219 174.326L501.668 171.813C501.881 171.455 502.188 171.164 502.556 170.97C502.923 170.776 503.338 170.688 503.752 170.715H504.447H505.151C505.565 170.688 505.98 170.776 506.347 170.97C506.715 171.164 507.022 171.455 507.235 171.813L508.71 174.352ZM504.422 165.311C502.895 165.311 501.402 164.858 500.133 164.01C498.863 163.162 497.874 161.956 497.289 160.545C496.705 159.135 496.552 157.583 496.85 156.085C497.148 154.588 497.883 153.212 498.963 152.133C500.042 151.053 501.418 150.318 502.915 150.02C504.413 149.722 505.965 149.875 507.376 150.459C508.786 151.043 509.992 152.033 510.84 153.302C511.688 154.572 512.141 156.064 512.141 157.591C512.141 159.639 511.328 161.602 509.88 163.05C508.432 164.498 506.469 165.311 504.422 165.311Z" fill="#EBEBEB"/>
<path d="M60.3796 39.7027C60.7392 39.9134 61.0331 40.2199 61.2284 40.5879C61.4238 40.956 61.513 41.3712 61.4861 41.787C61.4861 42.0186 61.4861 42.2502 61.4861 42.4818C61.4861 42.7134 61.4861 42.9536 61.4861 43.1851C61.5123 43.5987 61.4236 44.0115 61.2298 44.3778C61.0361 44.7441 60.7448 45.0498 60.3882 45.2609L57.875 46.6933L62.6012 54.8847L65.1058 53.4352C65.4682 53.2293 65.8808 53.1283 66.2973 53.1434C66.7139 53.1586 67.118 53.2893 67.4646 53.5209C67.8578 53.7769 68.2643 54.0117 68.6826 54.2243C69.0538 54.4106 69.3663 54.6958 69.5858 55.0485C69.8052 55.4011 69.9231 55.8075 69.9263 56.2228V59.1134H79.3615V56.2228C79.3629 55.8082 79.4791 55.402 79.6971 55.0493C79.9151 54.6966 80.2264 54.411 80.5966 54.2243C81.0158 54.0135 81.4225 53.7787 81.8146 53.5209C82.1611 53.2893 82.5653 53.1586 82.9818 53.1434C83.3984 53.1283 83.8109 53.2293 84.1734 53.4352L86.6866 54.8847L91.4127 46.6933L88.891 45.2351C88.533 45.0255 88.2406 44.7202 88.0467 44.3535C87.8527 43.9868 87.7649 43.5733 87.7931 43.1594C87.7931 42.9278 87.7931 42.6962 87.7931 42.4646C87.7931 42.233 87.7931 42.0015 87.7931 41.7699C87.7653 41.3549 87.8532 40.9403 88.047 40.5723C88.2409 40.2043 88.533 39.8973 88.891 39.6856L91.4127 38.236L86.7037 30.0617L84.1991 31.5113C83.8375 31.7184 83.4253 31.8209 83.0088 31.8072C82.5922 31.7936 82.1877 31.6644 81.8403 31.4341C81.4472 31.1753 81.0407 30.9377 80.6223 30.7221C80.2499 30.5374 79.9363 30.2525 79.7166 29.8995C79.4969 29.5465 79.3799 29.1394 79.3786 28.7236V25.833H69.9434V28.7236C69.9394 29.1398 69.8203 29.5468 69.5993 29.8996C69.3782 30.2523 69.0639 30.537 68.6911 30.7221C68.27 30.9377 67.8606 31.1753 67.4646 31.4341C67.1189 31.6646 66.7157 31.794 66.3005 31.8076C65.8852 31.8212 65.4744 31.7186 65.1143 31.5113L62.6012 30.0617L57.875 38.2531L60.3796 39.7027ZM74.6953 34.7364C76.2221 34.7364 77.7147 35.1891 78.9842 36.0374C80.2537 36.8856 81.2431 38.0913 81.8274 39.5019C82.4117 40.9125 82.5645 42.4646 82.2667 43.9621C81.9688 45.4596 81.2336 46.8351 80.154 47.9147C79.0744 48.9943 77.6988 49.7295 76.2014 50.0274C74.7039 50.3253 73.1517 50.1724 71.7411 49.5881C70.3305 49.0038 69.1249 48.0144 68.2767 46.7449C67.4284 45.4754 66.9756 43.9829 66.9756 42.4561C66.9756 40.4087 67.789 38.4451 69.2367 36.9974C70.6844 35.5497 72.6479 34.7364 74.6953 34.7364Z" fill="#EBEBEB"/>
<path d="M470.835 40.8874C468.468 46.9195 467.072 53.2886 466.7 59.7577H466.46H450.163H449.957V59.2945C449.957 58.8656 450.051 58.4368 450.094 58.0079C450.304 55.7826 450.674 53.5754 451.201 51.4033C452.071 47.8494 453.319 44.3988 454.923 41.1104C454.953 41.03 455.009 40.9619 455.082 40.9169C455.155 40.8718 455.241 40.8524 455.327 40.8616H470.852L470.835 40.8874Z" fill="#EBEBEB"/>
<path d="M470.33 83.1475H454.942C454.861 83.1575 454.779 83.139 454.71 83.0952C454.641 83.0514 454.59 82.985 454.565 82.9074C452.794 79.2084 451.508 75.2962 450.739 71.2678C450.367 69.3208 450.115 67.3529 449.984 65.3751C449.992 65.3096 449.992 65.2434 449.984 65.1778V64.7061C450.07 64.7061 450.156 64.7061 450.242 64.7061H466.453C466.753 64.7061 466.736 64.7061 466.762 65.0148C466.865 66.3615 466.951 67.7082 467.079 69.0462C467.293 71.1781 467.637 73.2949 468.108 75.3849C468.665 77.9451 469.395 80.4642 470.296 82.9245C470.311 82.9981 470.323 83.0726 470.33 83.1475Z" fill="#EBEBEB"/>
<path d="M535.078 88.0173L534.941 88.2489C533.638 90.2459 532.178 92.1361 530.575 93.9014C528.654 96.0812 526.513 98.056 524.185 99.7941C519.699 103.201 514.621 105.748 509.209 107.308C507.104 107.912 504.961 108.367 502.793 108.672L502.167 108.775H501.789L501.438 108.552L501.841 108.26C506.537 105.063 510.646 101.078 513.986 96.4832C515.871 93.8884 517.53 91.1363 518.944 88.2575C518.969 88.1799 519.021 88.1135 519.09 88.0696C519.158 88.0258 519.24 88.0073 519.321 88.0173H535.078Z" fill="#EBEBEB"/>
<path d="M519.671 59.7905H498.047V40.9201H514.927C515.003 40.9113 515.079 40.9298 515.142 40.9723C515.205 41.0148 515.25 41.0784 515.27 41.1517C516.815 44.7037 517.965 48.4141 518.701 52.2166C519.094 54.2013 519.38 56.2056 519.559 58.2208C519.585 58.7011 519.628 59.2329 519.671 59.7905Z" fill="#EBEBEB"/>
<path d="M519.546 64.834C519.546 65.28 519.546 65.6917 519.477 66.1635C519.383 67.2185 519.314 68.2735 519.168 69.32C518.962 70.7696 518.739 72.2191 518.448 73.6516C517.807 76.807 516.868 79.8945 515.643 82.8723C515.624 82.9602 515.573 83.0379 515.5 83.0903C515.427 83.1427 515.338 83.1659 515.248 83.1554H497.922V64.834H519.546Z" fill="#EBEBEB"/>
<path d="M493.172 41.0073V59.9291H472.062C472.062 59.4488 472.105 58.9856 472.148 58.5139C472.26 57.4588 472.346 56.3952 472.517 55.3488C472.774 53.7448 473.049 52.1408 473.375 50.5454C474.082 47.3499 475.105 44.2324 476.428 41.2389C476.45 41.1633 476.499 41.0982 476.565 41.0557C476.631 41.0131 476.711 40.9959 476.789 41.0073H493.154H493.172Z" fill="#EBEBEB"/>
<path d="M493.194 65.0821C493.194 71.0177 493.194 76.9475 493.194 82.8717V83.1462H476.314C476.233 83.1553 476.151 83.1353 476.084 83.0897C476.016 83.0441 475.967 82.9759 475.945 82.8974C474.66 79.829 473.697 76.6354 473.071 73.3679C472.754 71.6524 472.514 69.9884 472.3 68.2901C472.162 67.1836 472.128 66.0599 472.051 64.9449C472.051 64.9449 472.051 64.8848 472.051 64.8248H492.928C493.143 64.8076 493.194 64.8763 493.194 65.0821Z" fill="#EBEBEB"/>
<path d="M542.604 59.9291H524.883C524.518 53.4009 523.113 46.9728 520.723 40.8872H537.234C537.315 40.8778 537.397 40.8954 537.467 40.9373C537.536 40.9792 537.59 41.043 537.62 41.1188C539.514 44.867 540.89 48.8547 541.712 52.9728C542.143 55.1646 542.429 57.3824 542.569 59.6118C542.612 59.7061 542.604 59.809 542.604 59.9291Z" fill="#EBEBEB"/>
<path d="M542.622 64.7061C542.622 65.1349 542.622 65.5638 542.562 65.9498C542.198 71.282 540.897 76.5083 538.719 81.3891C538.479 81.9381 538.222 82.4785 537.973 83.0274C537.954 83.0808 537.917 83.1261 537.869 83.1558C537.82 83.1854 537.763 83.1976 537.707 83.1904H521.41H521.238C521.436 82.6243 521.633 82.0753 521.822 81.5264C522.771 78.7106 523.503 75.8257 524.009 72.8975C524.387 70.7697 524.642 68.6217 524.772 66.4644C524.772 65.9584 524.832 65.4523 524.858 64.9376C524.858 64.809 524.858 64.7404 525.038 64.7489H542.605L542.622 64.7061Z" fill="#EBEBEB"/>
<path d="M534.591 36.0661C534.591 36.0661 534.591 36.0661 534.591 36.1347H518.834C518.756 36.1449 518.678 36.1294 518.609 36.0907C518.541 36.052 518.488 35.9922 518.457 35.9203C516.389 31.8017 513.794 27.9697 510.737 24.5209C508.945 22.527 506.969 20.7063 504.836 19.0828C503.781 18.2251 502.683 17.5046 501.602 16.724L501.422 16.5868L501.636 16.441C501.636 16.338 501.576 16.2351 501.533 16.1064C508.151 16.8629 514.527 19.0375 520.227 22.482C525.927 25.9266 530.818 30.5599 534.565 36.0661H534.591Z" fill="#EBEBEB"/>
<path d="M490.18 108.562C490.032 108.608 489.88 108.634 489.725 108.639C488.023 108.414 486.336 108.085 484.673 107.653C481.564 106.868 478.548 105.752 475.676 104.325C472.394 102.696 469.318 100.68 466.515 98.3208C464.515 96.6512 462.669 94.8054 461 92.8056C459.755 91.294 458.609 89.7039 457.569 88.0451L457.5 87.8993H472.176C472.253 87.8913 472.331 87.9099 472.397 87.952C472.462 87.994 472.511 88.0571 472.536 88.1309C474.038 91.162 475.812 94.0502 477.837 96.7597C479.708 99.2197 481.786 101.515 484.047 103.622C485.915 105.386 487.923 106.995 490.051 108.434L490.18 108.562Z" fill="#EBEBEB"/>
<path d="M489.976 16.5614C489.315 17.0503 488.543 17.5907 487.789 18.174C485.271 20.1302 482.931 22.3059 480.798 24.6757C477.905 27.8301 475.439 31.3513 473.464 35.1487C473.336 35.3889 473.224 35.629 473.087 35.8606C473.062 35.8989 473.029 35.9316 472.99 35.9567C472.952 35.9818 472.909 35.9987 472.864 36.0065C472.607 36.0065 472.341 36.0065 472.075 36.0065H457.965C465.822 24.9158 476.381 18.2426 489.839 16.2012L489.753 16.3813L489.976 16.5614Z" fill="#EBEBEB"/>
<path d="M513.224 88.0371C511.233 91.5277 508.834 94.7698 506.079 97.6953C503.647 100.321 500.908 102.645 497.922 104.617V88.0371H513.224Z" fill="#EBEBEB"/>
<path d="M493.172 88.0449V104.299C487.067 100.113 482.039 94.5439 478.496 88.0449H493.172Z" fill="#EBEBEB"/>
<path d="M512.731 35.9984H498.047V20.499C501.061 22.4618 503.829 24.7801 506.29 27.4039C508.73 30.0366 510.889 32.9171 512.731 35.9984Z" fill="#EBEBEB"/>
<path d="M493.171 20.9609V36.1172H479.078C482.525 30.0318 487.352 24.8405 493.171 20.9609Z" fill="#EBEBEB"/>
<path d="M217.882 9.48438H106.281V84.6912H217.882V9.48438Z" fill="white"/>
<path d="M218.322 85.1203H105.863V9.05566H218.322V85.1203ZM106.721 84.2625H217.464V9.91341H106.721V84.2625Z" fill="#EBEBEB"/>
<path d="M117.068 15.1797C117.068 15.6886 116.917 16.1861 116.635 16.6093C116.352 17.0324 115.95 17.3623 115.48 17.557C115.01 17.7518 114.492 17.8027 113.993 17.7035C113.494 17.6042 113.035 17.3591 112.676 16.9992C112.316 16.6393 112.071 16.1808 111.971 15.6817C111.872 15.1825 111.923 14.6651 112.118 14.1949C112.313 13.7247 112.642 13.3229 113.065 13.0401C113.489 12.7574 113.986 12.6064 114.495 12.6064C115.178 12.6064 115.832 12.8776 116.315 13.3601C116.797 13.8427 117.068 14.4972 117.068 15.1797Z" fill="#37474F"/>
<path d="M127.564 15.1797C127.564 15.6886 127.414 16.1861 127.131 16.6093C126.848 17.0324 126.446 17.3623 125.976 17.557C125.506 17.7518 124.988 17.8027 124.489 17.7035C123.99 17.6042 123.532 17.3591 123.172 16.9992C122.812 16.6393 122.567 16.1808 122.467 15.6817C122.368 15.1825 122.419 14.6651 122.614 14.1949C122.809 13.7247 123.138 13.3229 123.562 13.0401C123.985 12.7574 124.482 12.6064 124.991 12.6064C125.674 12.6064 126.328 12.8776 126.811 13.3601C127.293 13.8427 127.564 14.4972 127.564 15.1797Z" fill="#EBEBEB"/>
<path d="M138.057 15.1797C138.057 15.6886 137.906 16.1861 137.623 16.6093C137.34 17.0324 136.938 17.3623 136.468 17.557C135.998 17.7518 135.481 17.8027 134.981 17.7035C134.482 17.6042 134.024 17.3591 133.664 16.9992C133.304 16.6393 133.059 16.1808 132.96 15.6817C132.86 15.1825 132.911 14.6651 133.106 14.1949C133.301 13.7247 133.631 13.3229 134.054 13.0401C134.477 12.7574 134.974 12.6064 135.483 12.6064C136.166 12.6064 136.82 12.8776 137.303 13.3601C137.786 13.8427 138.057 14.4972 138.057 15.1797Z" fill="#92E3A9"/>
<path d="M217.882 20.3848H106.281V21.2425H217.882V20.3848Z" fill="#EBEBEB"/>
<path d="M299 343C461.372 343 593 331.583 593 317.5C593 303.417 461.372 292 299 292C136.628 292 5 303.417 5 317.5C5 331.583 136.628 343 299 343Z" fill="#EBEBEB"/>
<path d="M475.05 43.4014H139.492V267.864H475.05V43.4014Z" fill="#DBDBDB"/>
<path d="M472.623 46.1377H141.938V265.128H472.623V46.1377Z" fill="#263238"/>
<path d="M518.763 284.692H95.793V300.097H518.763V284.692Z" fill="#C7C7C7"/>
<path d="M95.793 284.693L139.495 267.864H475.061L518.763 284.693H95.793Z" fill="#DBDBDB"/>
<path d="M143.398 278.723L171.601 267.864H442.948L471.159 278.723H143.398Z" fill="#263238"/>
<path d="M453.926 62.7764H160.621V248.486H453.926V62.7764Z" fill="white"/>
<path d="M453.925 62.7764H160.371V69.9214H453.925V62.7764Z" fill="#455A64"/>
<path d="M166.063 66.347C166.064 66.6986 165.962 67.0427 165.768 67.3358C165.574 67.6289 165.297 67.8578 164.973 67.9935C164.648 68.1292 164.291 68.1656 163.946 68.0981C163.601 68.0305 163.284 67.8621 163.035 67.6141C162.786 67.3662 162.616 67.0498 162.546 66.7052C162.477 66.3605 162.512 66.0031 162.646 65.6781C162.78 65.3532 163.008 65.0754 163.3 64.8799C163.592 64.6844 163.936 64.5801 164.287 64.5801C164.757 64.5801 165.207 64.766 165.54 65.0971C165.872 65.4282 166.06 65.8776 166.063 66.347Z" fill="#C7C7C7"/>
<path d="M173.336 66.3471C173.338 66.6989 173.235 67.0434 173.041 67.3367C172.846 67.63 172.569 67.8589 172.244 67.9943C171.919 68.1298 171.562 68.1657 171.216 68.0974C170.871 68.0292 170.554 67.8599 170.305 67.6111C170.056 67.3623 169.887 67.0451 169.819 66.6999C169.751 66.3547 169.787 65.997 169.922 65.6722C170.057 65.3474 170.286 65.0702 170.58 64.8758C170.873 64.6813 171.217 64.5784 171.569 64.5801C172.037 64.5824 172.485 64.7692 172.816 65.1001C173.147 65.431 173.334 65.8791 173.336 66.3471Z" fill="white"/>
<path d="M180.528 66.347C180.529 66.6986 180.427 67.0427 180.233 67.3358C180.038 67.6289 179.762 67.8578 179.437 67.9935C179.113 68.1292 178.756 68.1656 178.411 68.0981C178.066 68.0305 177.749 67.8621 177.5 67.6141C177.25 67.3662 177.081 67.0498 177.011 66.7052C176.942 66.3605 176.977 66.0031 177.111 65.6781C177.245 65.3532 177.473 65.0754 177.765 64.8799C178.057 64.6844 178.401 64.5801 178.752 64.5801C179.221 64.5801 179.672 64.766 180.005 65.0971C180.337 65.4282 180.525 65.8776 180.528 66.347Z" fill="#5FD58C"/>
<path d="M525.139 225.964C524.411 230.989 524.667 236.107 525.894 241.034C526.476 243.317 527.251 245.547 528.21 247.699C529.402 250.452 530.663 253.146 530.354 256.165C530.063 256.354 531.066 256.328 531.101 256.028C539.163 251.439 549.499 250.598 555.701 243.093C558.643 239.542 560.127 235.039 560.847 230.527C561.61 225.621 561.825 220.191 560.555 215.354C559.492 211.271 557.124 207.325 553.256 205.318C549.388 203.311 544.095 203.431 539.918 204.726C530.886 207.531 526.409 217.258 525.139 225.964Z" fill="#5FD58C"/>
<path d="M520.996 285.654C522.094 281.983 523.192 278.32 524.324 274.658C526.537 267.495 528.836 260.359 531.383 253.3C532.91 249.074 534.519 244.888 536.212 240.742C536.025 238.131 535.701 235.532 535.243 232.954C534.574 229.823 533.596 226.804 532.67 223.742C532.618 223.562 532.918 223.459 532.996 223.639C534.805 227.851 537.173 233.246 537.233 238.221C539.194 233.526 541.304 228.903 543.563 224.351C543.823 220.497 543.705 216.628 543.211 212.797C543.204 212.761 543.212 212.723 543.233 212.693C543.254 212.662 543.286 212.641 543.323 212.634C543.359 212.627 543.397 212.635 543.427 212.656C543.458 212.677 543.479 212.709 543.486 212.746C544.171 216.099 544.436 219.525 544.275 222.944C545.99 219.513 547.823 216.134 549.773 212.806C549.953 212.514 550.365 212.806 550.21 213.115C547.185 218.947 544.361 224.889 541.736 230.938C545.446 227.721 549.733 225.238 554.37 223.622C554.576 223.545 554.722 223.836 554.525 223.922C549.461 226.094 544.83 229.159 540.852 232.971C538.954 237.397 537.147 241.855 535.432 246.344C540.475 241.394 547.38 238.143 554.053 236.394C554.285 236.334 554.345 236.685 554.122 236.754C546.402 239.078 540.398 243.461 534.514 248.719C533.836 250.538 533.159 252.356 532.507 254.175C530.019 261.088 527.649 268.042 525.396 275.035C524.309 278.38 523.24 281.734 522.188 285.096C521.064 288.716 520.181 292.533 518.714 296.024C518.577 296.358 517.977 296.281 518.054 295.878C518.86 292.422 519.842 289.01 520.996 285.654Z" fill="#263238"/>
<path d="M534.377 218.912C535.812 221.111 536.801 223.571 537.285 226.152C537.285 226.212 537.191 226.255 537.165 226.152C536.266 223.72 535.215 221.348 534.017 219.05C533.897 218.852 534.24 218.706 534.377 218.912Z" fill="#263238"/>
<path d="M548.758 235.706C551.005 234.467 553.457 233.641 555.997 233.271C556.057 233.271 556.1 233.365 555.997 233.391C554.839 233.871 553.612 234.205 552.437 234.66C551.262 235.115 550.104 235.664 548.903 236.084C548.856 236.093 548.807 236.085 548.766 236.061C548.724 236.038 548.691 236 548.674 235.956C548.657 235.911 548.656 235.862 548.671 235.816C548.686 235.771 548.717 235.732 548.758 235.706Z" fill="#263238"/>
<path d="M552.811 215.5C553.538 214.948 554.316 214.469 555.135 214.067C555.163 214.05 555.196 214.045 555.227 214.052C555.258 214.059 555.286 214.079 555.303 214.106C555.32 214.133 555.325 214.166 555.318 214.198C555.311 214.229 555.291 214.256 555.264 214.273C554.549 214.838 553.782 215.335 552.974 215.757C552.828 215.851 552.665 215.603 552.811 215.5Z" fill="#263238"/>
<path d="M497.957 253.351C503.764 255.066 509.597 256.67 515.404 258.377C515.91 258.523 525.697 239.712 522.18 230.029C518.895 221.057 511.39 214.34 502.452 211.295C498.3 209.889 493.205 208.722 488.822 209.674C484.928 210.532 482.183 213.723 480.914 217.394C479.199 222.369 479.765 228.305 480.7 233.391C481.45 238.159 483.417 242.652 486.412 246.437C489.491 250.1 493.428 252.013 497.957 253.351Z" fill="#5FD58C"/>
<path d="M489.532 235.477C493.205 237.268 497.014 238.768 500.923 239.963C503.528 240.663 506.07 241.582 508.522 242.707C506.069 237.243 503.376 231.891 500.52 226.59C496.771 225.501 492.8 223.811 489.995 221.152C489.963 221.125 489.944 221.086 489.94 221.044C489.937 221.002 489.951 220.961 489.978 220.929C490.005 220.897 490.044 220.878 490.086 220.874C490.128 220.871 490.169 220.885 490.201 220.912C493.297 223.091 496.711 224.412 500.134 225.887C499.362 224.452 498.581 223.022 497.792 221.598C497.569 221.204 498.109 220.809 498.375 221.195C501.427 225.629 504.184 230.26 506.627 235.056C507.252 230.856 507.453 226.603 507.227 222.362C507.227 222.339 507.236 222.317 507.252 222.301C507.268 222.285 507.29 222.276 507.313 222.276C507.336 222.276 507.357 222.285 507.374 222.301C507.39 222.317 507.399 222.339 507.399 222.362C508.118 226.99 508.069 231.705 507.253 236.317C509.286 240.383 511.147 244.543 512.811 248.763C513.472 246.19 514.338 243.737 514.912 241.181C515.794 237.534 516.083 233.769 515.77 230.03C515.77 229.918 515.916 229.91 515.933 230.03C516.965 236.967 516.124 244.053 513.497 250.556C514.475 253.086 515.401 255.634 516.242 258.19C520.623 271.217 523.22 284.779 523.962 298.503C523.951 298.56 523.921 298.612 523.876 298.649C523.831 298.686 523.775 298.706 523.717 298.706C523.659 298.706 523.603 298.686 523.558 298.649C523.514 298.612 523.484 298.56 523.473 298.503C521.951 284.971 519.051 271.63 514.818 258.687C513.103 253.626 511.19 248.712 509.063 243.891C505.632 242.879 502.201 241.498 498.856 240.331C495.51 239.165 492.199 237.878 489.42 235.717C489.405 235.709 489.39 235.699 489.379 235.686C489.367 235.673 489.358 235.658 489.352 235.642C489.346 235.626 489.343 235.608 489.344 235.591C489.345 235.574 489.349 235.557 489.356 235.541C489.363 235.525 489.374 235.511 489.387 235.499C489.399 235.487 489.414 235.478 489.431 235.472C489.447 235.466 489.464 235.464 489.482 235.464C489.499 235.465 489.516 235.469 489.532 235.477Z" fill="#263238"/>
<path d="M484.121 230.013C487.672 231.274 491.034 233.041 494.585 234.302C494.748 234.362 494.654 234.619 494.491 234.585C490.734 233.813 487.011 232.655 483.983 230.193C483.838 230.125 484.001 229.97 484.121 230.013Z" fill="#263238"/>
<path d="M513.121 222.352C513.121 222.164 513.353 222.052 513.404 222.249C514.382 225.517 515.051 228.991 514.107 232.336C514.1 232.364 514.084 232.388 514.062 232.405C514.039 232.423 514.012 232.432 513.983 232.432C513.955 232.432 513.927 232.423 513.905 232.405C513.882 232.388 513.866 232.364 513.859 232.336C513.687 228.957 513.859 225.672 513.121 222.352Z" fill="#263238"/>
<path d="M498.421 214.813C499.558 216.437 500.103 218.402 499.965 220.379C499.965 220.508 499.76 220.577 499.725 220.431C499.288 218.561 498.567 216.854 498.01 215.027C497.998 214.975 498.004 214.921 498.026 214.873C498.049 214.825 498.086 214.786 498.133 214.762C498.18 214.737 498.234 214.729 498.286 214.738C498.338 214.747 498.386 214.774 498.421 214.813Z" fill="#263238"/>
<path d="M567.039 261.655C565.324 267.05 561.292 274.521 554.885 274.581C550.733 274.624 546.556 274.126 542.387 274.075C537.936 273.998 533.467 274.015 529.015 274.281C528.655 274.281 529.547 260.926 540.269 254.415C543.262 252.597 546.934 252.014 550.339 251.276C554.241 250.356 558.245 249.941 562.253 250.041C564.706 250.135 566.756 250.658 567.631 253.18C568.506 255.702 567.845 259.081 567.039 261.655Z" fill="#5FD58C"/>
<path d="M562.415 254.888C559.842 255.557 557.183 256.329 554.575 257.161C555.252 256.417 555.971 255.712 556.728 255.051C557.852 254.116 559.087 253.335 560.288 252.554C560.391 252.486 560.288 252.297 560.202 252.349C557.667 253.401 555.478 255.143 553.881 257.375C550.63 258.421 547.405 259.588 544.3 260.857C542.154 261.737 540.097 262.819 538.158 264.091C538.786 262.74 539.529 261.446 540.38 260.223C541.804 258.387 543.725 257.358 545.586 256.045C545.624 256.024 545.651 255.988 545.663 255.946C545.674 255.905 545.668 255.86 545.646 255.822C545.625 255.785 545.589 255.758 545.547 255.746C545.506 255.735 545.461 255.741 545.423 255.762C543.476 256.606 541.727 257.848 540.288 259.408C538.849 260.968 537.753 262.811 537.069 264.82C534.834 266.419 532.793 268.273 530.988 270.344C523.903 278.39 518.319 289.103 518.293 300.039C518.293 300.296 518.713 300.374 518.765 300.099C520.581 289.383 525.251 279.353 532.283 271.065C532.789 270.473 533.312 269.907 533.844 269.349C535.783 269.083 537.737 268.937 539.694 268.912C541.975 268.912 544.24 269.246 546.556 269.435C550.295 269.735 554.43 269.778 557.809 267.899C557.955 267.814 557.809 267.556 557.689 267.616C550.167 270.353 542.25 266.879 534.736 268.517C537.965 265.441 541.749 263.008 545.887 261.346L546.581 261.063C551.41 261.647 556.505 262.907 561.206 261.338C561.343 261.286 561.292 261.072 561.146 261.115C556.6 262.247 552.242 260.823 547.765 260.592C552.646 258.696 557.62 257.161 562.518 255.291C562.853 255.128 562.861 254.776 562.415 254.888Z" fill="#263238"/>
<path d="M564.541 259.639C562.212 259.949 559.866 260.126 557.516 260.171C557.503 260.171 557.49 260.176 557.48 260.186C557.47 260.195 557.465 260.209 557.465 260.222C557.465 260.236 557.47 260.249 557.48 260.259C557.49 260.268 557.503 260.274 557.516 260.274C559.879 260.708 562.313 260.552 564.601 259.819C564.713 259.785 564.661 259.622 564.541 259.639Z" fill="#263238"/>
<path d="M548.676 255.006C547.379 255.591 546.201 256.411 545.202 257.425C545.082 257.537 545.245 257.751 545.374 257.657C545.966 257.228 546.574 256.799 547.183 256.422C547.775 256.099 548.347 255.744 548.899 255.358C548.932 255.323 548.953 255.279 548.958 255.231C548.962 255.183 548.951 255.135 548.925 255.095C548.9 255.054 548.861 255.024 548.816 255.007C548.771 254.991 548.721 254.991 548.676 255.006Z" fill="#263238"/>
<path d="M510.843 272.403C510.92 272.583 510.663 272.746 510.568 272.566C510.551 272.596 510.527 272.621 510.499 272.64C510.471 272.659 510.439 272.672 510.405 272.678C506.093 273.706 501.722 274.468 497.316 274.959C493.774 275.277 489.691 275.474 486.586 273.415C482.391 270.628 479.621 263.182 481.894 258.448C484.579 252.829 492.684 255.874 496.741 257.873C502.992 260.925 507.979 266.064 510.843 272.403Z" fill="#5FD58C"/>
<path d="M513.985 275.001C511.624 272.718 509.001 270.723 506.171 269.057C504.139 265.826 501.436 263.07 498.245 260.977C498.091 260.866 497.962 261.114 498.099 261.217C500.633 263.25 502.881 265.616 504.781 268.251C501.63 266.526 498.356 265.035 494.986 263.791C493.781 261.555 491.951 259.719 489.719 258.507C489.676 258.507 489.616 258.55 489.659 258.584C491.506 259.979 493.114 261.665 494.42 263.576C492.421 262.83 490.414 262.135 488.415 261.475C488.235 261.415 488.167 261.689 488.338 261.749C491.924 263.147 495.578 264.623 499.129 266.329C494.799 267.006 490.39 266.991 486.065 266.287C485.945 266.287 485.894 266.441 486.014 266.475C490.529 267.808 495.322 267.879 499.875 266.681C502.134 267.781 504.327 269.009 506.445 270.361C504.663 270.221 502.871 270.369 501.136 270.798C498.074 271.513 494.939 271.867 491.795 271.853C491.675 271.853 491.649 272.051 491.795 272.068C497.207 273.003 502.337 270.541 507.706 271.21C513.641 275.239 518.381 280.791 521.43 287.284C523.694 291.882 524.921 296.762 526.748 301.514C526.765 301.551 526.795 301.581 526.832 301.598C526.87 301.616 526.912 301.619 526.951 301.607C526.991 301.596 527.025 301.571 527.047 301.536C527.07 301.502 527.079 301.46 527.074 301.42C525.478 292.01 520.812 281.717 513.985 275.001Z" fill="#263238"/>
<path d="M497.644 262.151C497.292 261.499 496.824 260.918 496.263 260.435C495.807 259.939 495.263 259.532 494.659 259.234C494.608 259.234 494.573 259.286 494.608 259.329C495.054 259.826 495.671 260.186 496.151 260.684C496.632 261.181 497.009 261.739 497.524 262.211C497.535 262.218 497.548 262.223 497.562 262.224C497.576 262.225 497.589 262.222 497.601 262.216C497.614 262.21 497.624 262.2 497.631 262.189C497.639 262.177 497.643 262.164 497.644 262.151Z" fill="#263238"/>
<path d="M488.726 265.06C487.92 264.863 487.071 264.871 486.256 264.708C485.445 264.512 484.646 264.272 483.863 263.988C483.841 263.986 483.819 263.991 483.8 264.002C483.782 264.013 483.767 264.03 483.758 264.05C483.75 264.07 483.748 264.092 483.753 264.113C483.757 264.134 483.769 264.154 483.785 264.168C485.263 265.08 486.999 265.48 488.726 265.309C488.753 265.301 488.778 265.285 488.795 265.263C488.812 265.24 488.822 265.213 488.822 265.184C488.822 265.156 488.812 265.128 488.795 265.106C488.778 265.083 488.753 265.067 488.726 265.06Z" fill="#263238"/>
<path d="M536.312 289.841L535.6 297.912L533.189 325.18H511.84L508.821 297.912L507.938 289.841H536.312Z" fill="#533EA9"/>
<path d="M536.312 289.841L535.6 297.912H508.821L507.938 289.841H536.312Z" fill="#263238"/>
<path d="M538.428 287.634H505.816V294.187H538.428V287.634Z" fill="#533EA9"/>
<path d="M34.5816 237.887C34.0271 241.711 34.2222 245.607 35.1561 249.357C35.5993 251.095 36.189 252.792 36.9188 254.43C37.8262 256.526 38.7859 258.576 38.5509 260.874C38.3289 261.017 39.0928 260.998 39.1189 260.769C45.2557 257.276 53.1225 256.637 57.8426 250.924C60.0819 248.221 61.2113 244.794 61.7597 241.36C62.3408 237.626 62.504 233.493 61.5378 229.811C60.7282 226.703 58.9263 223.7 55.982 222.173C53.0376 220.645 49.0096 220.736 45.8302 221.722C38.9557 223.857 35.5478 231.26 34.5816 237.887Z" fill="#5FD58C"/>
<path d="M31.4281 283.318C32.2637 280.524 33.0994 277.736 33.9611 274.949C35.6455 269.497 37.3951 264.066 39.3341 258.693C40.4961 255.476 41.7213 252.29 43.0096 249.135C42.8671 247.148 42.6209 245.169 42.2719 243.207C41.7627 240.824 41.0184 238.526 40.3133 236.195C40.2742 236.058 40.5027 235.98 40.5614 236.117C41.9389 239.323 43.7408 243.429 43.7865 247.216C45.2793 243.642 46.8853 240.123 48.6045 236.659C48.8024 233.726 48.7128 230.781 48.3368 227.865C48.3316 227.837 48.3377 227.809 48.3536 227.786C48.3695 227.762 48.394 227.746 48.4217 227.741C48.4494 227.736 48.4781 227.742 48.5013 227.758C48.5246 227.774 48.5406 227.798 48.5457 227.826C49.067 230.379 49.2688 232.986 49.1464 235.588C50.4521 232.977 51.847 230.405 53.3311 227.872C53.4682 227.65 53.7816 227.872 53.6641 228.107C51.3617 232.546 49.2117 237.068 47.2139 241.673C50.0375 239.224 53.3009 237.334 56.8304 236.104C56.9871 236.045 57.0981 236.267 56.9479 236.333C53.094 237.985 49.569 240.319 46.5415 243.22C45.0965 246.589 43.7212 249.981 42.4155 253.398C46.2543 249.631 51.5097 247.157 56.5889 245.825C56.7651 245.779 56.8108 246.047 56.6411 246.099C50.7655 247.868 46.1955 251.204 41.717 255.206C41.2012 256.59 40.6854 257.975 40.1893 259.359C38.296 264.621 36.492 269.913 34.7772 275.236C33.9502 277.782 33.1364 280.335 32.3355 282.894C31.4803 285.649 30.8078 288.554 29.6915 291.211C29.587 291.466 29.13 291.407 29.1888 291.1C29.8028 288.47 30.5502 285.872 31.4281 283.318Z" fill="#263238"/>
<path d="M41.6136 232.519C42.7058 234.193 43.4578 236.065 43.8267 238.029C43.8267 238.075 43.7549 238.108 43.7353 238.029C43.0511 236.179 42.2509 234.374 41.3394 232.624C41.248 232.474 41.5091 232.363 41.6136 232.519Z" fill="#263238"/>
<path d="M52.5585 245.302C54.269 244.359 56.1355 243.731 58.0685 243.448C58.1142 243.448 58.1469 243.52 58.0685 243.54C57.1872 243.905 56.2536 244.16 55.3592 244.506C54.4648 244.852 53.5835 245.27 52.6695 245.59C52.6336 245.596 52.5965 245.59 52.5646 245.572C52.5327 245.554 52.5081 245.526 52.4949 245.492C52.4817 245.458 52.4809 245.42 52.4925 245.386C52.5041 245.351 52.5275 245.322 52.5585 245.302Z" fill="#263238"/>
<path d="M55.6411 229.923C56.1942 229.503 56.7867 229.138 57.4103 228.832C57.4311 228.819 57.4562 228.815 57.48 228.821C57.5039 228.826 57.5246 228.841 57.5376 228.862C57.5506 228.883 57.5548 228.908 57.5493 228.932C57.5438 228.955 57.529 228.976 57.5082 228.989C56.9638 229.419 56.3802 229.797 55.7651 230.119C55.6541 230.19 55.5301 230.001 55.6411 229.923Z" fill="#263238"/>
<path d="M13.8916 258.731C18.3114 260.037 22.7508 261.258 27.1705 262.557C27.5557 262.668 35.0048 248.351 32.3281 240.98C29.8277 234.151 24.1152 229.04 17.3125 226.722C14.1527 225.651 10.2748 224.763 6.93875 225.488C3.97481 226.141 1.88572 228.57 0.919499 231.364C-0.3862 235.15 0.0446805 239.668 0.756286 243.539C1.32712 247.168 2.82471 250.589 5.10425 253.469C7.44798 256.257 10.4446 257.713 13.8916 258.731Z" fill="#5FD58C"/>
<path d="M7.47916 245.127C10.2751 246.491 13.174 247.632 16.149 248.541C18.1321 249.075 20.0669 249.774 21.9333 250.631C20.0661 246.472 18.0161 242.398 15.8422 238.364C12.9892 237.534 9.9665 236.248 7.83168 234.224C7.80744 234.204 7.79245 234.174 7.79 234.142C7.78755 234.11 7.79783 234.079 7.81861 234.055C7.83939 234.03 7.86894 234.015 7.90077 234.013C7.93261 234.011 7.96412 234.021 7.98836 234.042C10.3451 235.7 12.9435 236.705 15.5484 237.828C14.9608 236.736 14.3667 235.648 13.7661 234.564C13.5964 234.264 14.0076 233.963 14.21 234.257C16.533 237.632 18.631 241.156 20.4904 244.807C20.9661 241.61 21.1192 238.373 20.9474 235.145C20.9474 235.128 20.9543 235.111 20.9666 235.099C20.9788 235.087 20.9954 235.08 21.0127 235.08C21.03 235.08 21.0466 235.087 21.0589 235.099C21.0711 235.111 21.078 235.128 21.078 235.145C21.6256 238.668 21.5881 242.256 20.967 245.767C22.5143 248.861 23.931 252.028 25.1975 255.24C25.7002 253.281 26.3595 251.414 26.7969 249.468C27.4678 246.693 27.6882 243.827 27.4498 240.981C27.4498 240.897 27.5608 240.89 27.5738 240.981C28.3592 246.261 27.7191 251.655 25.7198 256.604C26.464 258.53 27.1691 260.469 27.8089 262.415C31.1436 272.33 33.1201 282.652 33.6845 293.098C33.6764 293.142 33.6533 293.181 33.6193 293.209C33.5853 293.237 33.5426 293.253 33.4985 293.253C33.4543 293.253 33.4116 293.237 33.3776 293.209C33.3436 293.181 33.3206 293.142 33.3124 293.098C32.1541 282.799 29.9469 272.644 26.7251 262.793C25.4194 258.941 23.9636 255.201 22.3445 251.531C19.7331 250.761 17.1217 249.71 14.5756 248.822C12.0295 247.934 9.50951 246.955 7.39428 245.31C7.38228 245.304 7.37148 245.296 7.36252 245.287C7.35357 245.277 7.34663 245.265 7.34208 245.253C7.33754 245.241 7.33547 245.227 7.33603 245.214C7.33658 245.201 7.33974 245.188 7.34531 245.176C7.35088 245.164 7.35876 245.153 7.3685 245.144C7.37824 245.135 7.38966 245.128 7.40209 245.124C7.41452 245.119 7.42772 245.117 7.44094 245.118C7.45416 245.118 7.46715 245.121 7.47916 245.127Z" fill="#263238"/>
<path d="M3.35924 240.969C6.06203 241.928 8.62121 243.273 11.324 244.233C11.448 244.278 11.3762 244.474 11.2522 244.448C8.39268 243.861 5.55932 242.979 3.25476 241.106C3.14377 241.053 3.26784 240.936 3.35924 240.969Z" fill="#263238"/>
<path d="M25.4336 235.138C25.4336 234.994 25.6098 234.909 25.649 235.06C26.3933 237.547 26.9025 240.191 26.1843 242.737C26.1788 242.758 26.1666 242.776 26.1494 242.79C26.1323 242.803 26.1113 242.81 26.0897 242.81C26.0681 242.81 26.0471 242.803 26.03 242.79C26.0129 242.776 26.0006 242.758 25.995 242.737C25.8645 240.165 25.995 237.664 25.4336 235.138Z" fill="#263238"/>
<path d="M14.2436 229.399C15.1085 230.636 15.5233 232.131 15.4187 233.636C15.4187 233.734 15.262 233.787 15.2359 233.676C14.903 232.252 14.3546 230.953 13.9302 229.563C13.9214 229.523 13.9258 229.482 13.9428 229.446C13.9598 229.409 13.9884 229.379 14.0241 229.361C14.0599 229.342 14.1008 229.336 14.1404 229.343C14.1801 229.35 14.2164 229.37 14.2436 229.399Z" fill="#263238"/>
<path d="M66.4725 265.052C65.1668 269.158 62.0984 274.845 57.2216 274.89C54.0618 274.923 50.8825 274.544 47.7096 274.505C44.3213 274.446 40.92 274.459 37.5317 274.662C37.2575 274.662 37.9364 264.497 46.097 259.542C48.3755 258.158 51.1697 257.714 53.7615 257.152C56.7315 256.452 59.7791 256.136 62.8296 256.212C64.6967 256.284 66.257 256.682 66.923 258.602C67.5889 260.521 67.0862 263.093 66.4725 265.052Z" fill="#5FD58C"/>
<path d="M62.9537 259.901C60.9951 260.41 58.9713 260.998 56.9866 261.631C57.5017 261.065 58.0488 260.529 58.6253 260.025C59.4805 259.313 60.4206 258.719 61.3346 258.125C61.4129 258.073 61.3346 257.929 61.2693 257.969C59.34 258.77 57.6733 260.095 56.4578 261.794C53.9835 262.591 51.5288 263.479 49.1655 264.445C47.5323 265.114 45.967 265.938 44.4911 266.906C44.9687 265.878 45.5344 264.893 46.182 263.962C47.2657 262.565 48.7281 261.781 50.1448 260.782C50.1733 260.766 50.1942 260.739 50.2028 260.707C50.2113 260.675 50.2069 260.641 50.1905 260.613C50.174 260.584 50.1469 260.563 50.1151 260.555C50.0832 260.546 50.0493 260.55 50.0207 260.567C48.5387 261.209 47.2074 262.154 46.1123 263.342C45.0172 264.529 44.1825 265.932 43.662 267.461C41.9611 268.678 40.4077 270.089 39.0333 271.665C33.6407 277.789 29.3907 285.943 29.3711 294.267C29.3711 294.463 29.691 294.522 29.7302 294.313C31.1128 286.156 34.667 278.522 40.0191 272.214C40.4042 271.763 40.8025 271.332 41.2073 270.908C42.6831 270.706 44.1701 270.594 45.6597 270.575C47.3963 270.575 49.1198 270.83 50.8825 270.973C53.7289 271.202 56.8756 271.234 59.4479 269.805C59.5588 269.739 59.4479 269.544 59.3565 269.589C53.631 271.672 47.6052 269.028 41.8862 270.275C44.3437 267.934 47.2238 266.082 50.3733 264.817L50.9021 264.602C54.5776 265.045 58.4555 266.005 62.0332 264.81C62.1376 264.771 62.0984 264.608 61.9875 264.641C58.5274 265.502 55.2109 264.419 51.803 264.242C55.5177 262.8 59.3042 261.631 63.032 260.208C63.2866 260.084 63.2931 259.816 62.9537 259.901Z" fill="#263238"/>
<path d="M64.5696 263.518C62.7964 263.753 61.0113 263.889 59.2228 263.922C59.2124 263.922 59.2024 263.926 59.195 263.934C59.1877 263.941 59.1836 263.951 59.1836 263.961C59.1836 263.972 59.1877 263.982 59.195 263.989C59.2024 263.997 59.2124 264.001 59.2228 264.001C61.0213 264.331 62.8737 264.212 64.6153 263.655C64.7001 263.629 64.661 263.505 64.5696 263.518Z" fill="#263238"/>
<path d="M52.4963 259.992C51.5088 260.437 50.6123 261.061 49.8522 261.833C49.7608 261.918 49.8849 262.081 49.9828 262.009C50.4333 261.683 50.8968 261.356 51.3603 261.069C51.8102 260.824 52.2461 260.553 52.666 260.26C52.6913 260.233 52.707 260.199 52.7106 260.163C52.7142 260.127 52.7056 260.09 52.686 260.059C52.6665 260.028 52.6372 260.005 52.6028 259.993C52.5684 259.981 52.5309 259.98 52.4963 259.992Z" fill="#263238"/>
<path d="M23.6975 273.232C23.7563 273.369 23.5604 273.493 23.4886 273.356C23.4755 273.379 23.4575 273.398 23.4361 273.413C23.4146 273.427 23.3902 273.437 23.3646 273.441C20.0825 274.224 16.7554 274.804 13.4021 275.178C10.7058 275.419 7.59828 275.57 5.23496 274.003C2.04253 271.881 -0.0661966 266.214 1.66385 262.61C3.70727 258.334 9.8767 260.652 12.9647 262.173C17.7218 264.496 21.5181 268.408 23.6975 273.232Z" fill="#5FD58C"/>
<path d="M26.0915 275.211C24.2945 273.473 22.2981 271.954 20.144 270.686C18.5978 268.227 16.5405 266.13 14.1117 264.536C13.9941 264.452 13.8962 264.641 14.0007 264.719C15.9295 266.266 17.6403 268.067 19.0864 270.073C16.6878 268.76 14.1959 267.625 11.6308 266.678C10.7137 264.976 9.32077 263.579 7.62234 262.656C7.58969 262.656 7.54399 262.689 7.57663 262.715C8.9823 263.777 10.2061 265.06 11.2 266.515C9.67884 265.947 8.15117 265.418 6.63003 264.915C6.49293 264.869 6.44069 265.078 6.57126 265.124C9.30017 266.188 12.0813 267.311 14.7841 268.61C11.4889 269.125 8.13293 269.114 4.84119 268.578C4.74979 268.578 4.71062 268.695 4.80202 268.721C8.23846 269.736 11.887 269.79 15.3521 268.878C17.0714 269.715 18.7411 270.65 20.3529 271.679C18.9967 271.572 17.6323 271.685 16.3118 272.012C13.9813 272.556 11.5953 272.825 9.20226 272.815C9.11086 272.815 9.09128 272.965 9.20226 272.978C13.3217 273.689 17.2258 271.816 21.3126 272.325C25.8298 275.391 29.438 279.617 31.7582 284.559C33.4817 288.059 34.4153 291.773 35.8059 295.39C35.8189 295.419 35.8417 295.441 35.8701 295.454C35.8986 295.467 35.9308 295.47 35.9608 295.461C35.9909 295.452 36.0168 295.433 36.0339 295.407C36.051 295.381 36.0581 295.349 36.0539 295.318C34.8396 288.157 31.2881 280.322 26.0915 275.211Z" fill="#263238"/>
<path d="M13.6536 265.43C13.386 264.934 13.0298 264.491 12.6025 264.124C12.2554 263.747 11.8415 263.437 11.3817 263.21C11.3425 263.21 11.3164 263.249 11.3425 263.282C11.682 263.66 12.1521 263.935 12.5177 264.313C12.8833 264.692 13.1705 265.116 13.5622 265.475C13.5709 265.481 13.5809 265.485 13.5912 265.485C13.6016 265.486 13.6119 265.484 13.6212 265.479C13.6305 265.474 13.6384 265.467 13.6441 265.459C13.6498 265.45 13.6531 265.44 13.6536 265.43Z" fill="#263238"/>
<path d="M6.86545 267.644C6.25178 267.493 5.60545 267.5 4.98524 267.376C4.36846 267.227 3.7604 267.044 3.16381 266.827C3.1473 266.826 3.13069 266.83 3.11643 266.838C3.10217 266.847 3.09101 266.859 3.08447 266.875C3.07794 266.89 3.07639 266.907 3.08009 266.923C3.08379 266.939 3.09253 266.954 3.10504 266.965C4.22942 267.658 5.55069 267.964 6.86545 267.833C6.88634 267.827 6.90479 267.815 6.91797 267.798C6.93115 267.781 6.93829 267.76 6.93829 267.738C6.93829 267.717 6.93115 267.696 6.91797 267.678C6.90479 267.661 6.88634 267.649 6.86545 267.644Z" fill="#263238"/>
<path d="M43.0845 286.505L42.5427 292.648L40.7082 313.402H24.4587L22.1607 292.648L21.4883 286.505H43.0845Z" fill="#533EA9"/>
<path d="M43.0845 286.505L42.5427 292.648H22.1607L21.4883 286.505H43.0845Z" fill="#263238"/>
<path d="M44.6963 284.825H19.875V289.813H44.6963V284.825Z" fill="#533EA9"/>
<path d="M499.49 97.2861H116.508V149.54H499.49V97.2861Z" fill="white"/>
<path d="M499.918 149.968H116.078V96.8564H499.918V149.968ZM116.936 149.11H499.06V97.7142H116.936V149.11Z" fill="#629CFC"/>
<path d="M499.488 97.2871H447.234V149.541H499.488V97.2871Z" fill="#5FD58C"/>
<path d="M489.925 138.064L485.096 141.718L476.159 129.898L472.891 125.609C473.561 125.349 474.191 124.994 474.76 124.554C475.854 123.717 476.708 122.608 477.239 121.338L480.713 125.918L489.925 138.064Z" fill="white"/>
<path d="M480.404 110.265C478.877 108.27 476.81 106.754 474.449 105.895C472.088 105.035 469.53 104.87 467.078 105.416C464.625 105.963 462.38 107.2 460.608 108.98C458.835 110.761 457.608 113.011 457.073 115.466C456.537 117.921 456.714 120.478 457.584 122.835C458.453 125.193 459.979 127.252 461.981 128.771C463.982 130.29 466.377 131.205 468.881 131.407C471.385 131.61 473.896 131.093 476.116 129.916C477.922 128.945 479.48 127.571 480.67 125.902C482.302 123.609 483.156 120.853 483.108 118.039C483.06 115.226 482.113 112.501 480.404 110.265ZM474.743 124.538C474.174 124.977 473.544 125.332 472.873 125.593C471.032 126.319 468.984 126.32 467.142 125.595C465.301 124.87 463.803 123.473 462.951 121.686C462.1 119.9 461.958 117.856 462.554 115.969C463.151 114.082 464.441 112.491 466.165 111.519C467.889 110.546 469.918 110.264 471.841 110.729C473.765 111.194 475.441 112.372 476.53 114.025C477.619 115.678 478.04 117.682 477.708 119.633C477.377 121.585 476.317 123.338 474.743 124.538Z" fill="white"/>
<path d="M130.238 107.562H127.434V139.273H130.238V107.562Z" fill="#263238"/>
<path d="M214.739 128.035L216.84 117.839H220.969L216.885 133.85H213.303L210.27 123.773L207.236 133.85H203.67L199.586 117.839H203.715L205.801 128.02L208.731 117.839H211.824L214.739 128.035Z" fill="#607FE1"/>
<path d="M237.024 128.035L239.126 117.839H243.254L239.17 133.85H235.589L232.555 123.773L229.522 133.85H225.956L221.871 117.839H226L228.086 128.02L231.016 117.839H234.109L237.024 128.035Z" fill="#607FE1"/>
<path d="M259.31 128.035L261.411 117.839H265.54L261.455 133.85H257.874L254.841 123.773L251.807 133.85H248.241L244.157 117.839H248.285L250.372 128.02L253.302 117.839H256.395L259.31 128.035Z" fill="#607FE1"/>
<path d="M266.057 131.749C266.057 131.068 266.284 130.516 266.738 130.092C267.202 129.668 267.779 129.456 268.469 129.456C269.17 129.456 269.747 129.668 270.201 130.092C270.664 130.516 270.896 131.068 270.896 131.749C270.896 132.42 270.669 132.968 270.216 133.392C269.762 133.806 269.18 134.013 268.469 134.013C267.769 134.013 267.192 133.806 266.738 133.392C266.284 132.968 266.057 132.42 266.057 131.749Z" fill="#607FE1"/>
<path d="M289.083 125.993C289.083 128.558 288.535 130.56 287.44 132.001C286.345 133.431 284.816 134.146 282.853 134.146C281.117 134.146 279.731 133.48 278.695 132.149L278.502 133.85H274.655V111.121H278.931V119.275C279.918 118.12 281.215 117.543 282.823 117.543C284.777 117.543 286.306 118.263 287.411 119.704C288.525 121.134 289.083 123.152 289.083 125.756V125.993ZM284.806 125.682C284.806 124.064 284.55 122.885 284.037 122.145C283.524 121.396 282.759 121.021 281.743 121.021C280.382 121.021 279.444 121.578 278.931 122.693V129.012C279.454 130.136 280.401 130.699 281.773 130.699C283.154 130.699 284.061 130.018 284.495 128.656C284.703 128.005 284.806 127.014 284.806 125.682Z" fill="#607FE1"/>
<path d="M291.066 125.697C291.066 124.109 291.371 122.693 291.983 121.45C292.595 120.207 293.473 119.245 294.617 118.564C295.771 117.884 297.108 117.543 298.627 117.543C300.788 117.543 302.549 118.204 303.91 119.526C305.281 120.848 306.046 122.644 306.204 124.913L306.233 126.008C306.233 128.464 305.548 130.437 304.176 131.927C302.805 133.407 300.965 134.146 298.657 134.146C296.348 134.146 294.504 133.407 293.123 131.927C291.751 130.447 291.066 128.434 291.066 125.889V125.697ZM295.342 126.008C295.342 127.527 295.628 128.691 296.2 129.5C296.773 130.299 297.591 130.699 298.657 130.699C299.693 130.699 300.502 130.304 301.084 129.515C301.666 128.716 301.957 127.443 301.957 125.697C301.957 124.207 301.666 123.053 301.084 122.234C300.502 121.415 299.683 121.006 298.627 121.006C297.582 121.006 296.773 121.415 296.2 122.234C295.628 123.043 295.342 124.301 295.342 126.008Z" fill="#607FE1"/>
<path d="M317.539 129.426C317.539 128.903 317.277 128.494 316.755 128.198C316.242 127.892 315.413 127.621 314.269 127.384C310.461 126.585 308.557 124.967 308.557 122.53C308.557 121.11 309.144 119.926 310.318 118.979C311.501 118.022 313.045 117.543 314.949 117.543C316.981 117.543 318.604 118.022 319.818 118.979C321.041 119.936 321.653 121.179 321.653 122.708H317.376C317.376 122.096 317.179 121.593 316.784 121.198C316.39 120.794 315.773 120.592 314.934 120.592C314.214 120.592 313.657 120.754 313.262 121.08C312.868 121.406 312.67 121.82 312.67 122.323C312.67 122.797 312.892 123.181 313.336 123.477C313.79 123.763 314.55 124.015 315.615 124.232C316.681 124.439 317.578 124.676 318.308 124.942C320.567 125.771 321.697 127.206 321.697 129.248C321.697 130.708 321.071 131.892 319.818 132.8C318.565 133.698 316.947 134.146 314.964 134.146C313.622 134.146 312.429 133.91 311.383 133.436C310.347 132.953 309.533 132.297 308.941 131.468C308.349 130.629 308.053 129.727 308.053 128.76H312.108C312.147 129.52 312.429 130.102 312.952 130.506C313.474 130.911 314.175 131.113 315.053 131.113C315.872 131.113 316.488 130.96 316.903 130.654C317.327 130.338 317.539 129.929 317.539 129.426Z" fill="#607FE1"/>
<path d="M324.686 131.749C324.686 131.068 324.913 130.516 325.367 130.092C325.83 129.668 326.408 129.456 327.098 129.456C327.799 129.456 328.376 129.668 328.829 130.092C329.293 130.516 329.525 131.068 329.525 131.749C329.525 132.42 329.298 132.968 328.844 133.392C328.391 133.806 327.808 134.013 327.098 134.013C326.398 134.013 325.821 133.806 325.367 133.392C324.913 132.968 324.686 132.42 324.686 131.749Z" fill="#607FE1"/>
<path d="M337.22 117.839L337.353 119.689C338.497 118.259 340.031 117.543 341.955 117.543C343.652 117.543 344.915 118.042 345.743 119.038C346.572 120.034 346.996 121.524 347.016 123.507V133.85H342.739V123.61C342.739 122.703 342.542 122.047 342.147 121.642C341.753 121.228 341.097 121.021 340.179 121.021C338.976 121.021 338.073 121.534 337.471 122.56V133.85H333.195V117.839H337.22Z" fill="#607FE1"/>
<path d="M357.641 134.146C355.293 134.146 353.379 133.426 351.899 131.986C350.429 130.546 349.694 128.627 349.694 126.23V125.815C349.694 124.207 350.005 122.772 350.627 121.509C351.248 120.237 352.126 119.26 353.261 118.579C354.405 117.889 355.707 117.543 357.167 117.543C359.357 117.543 361.079 118.234 362.332 119.615C363.594 120.996 364.226 122.954 364.226 125.49V127.236H354.03C354.168 128.282 354.583 129.12 355.273 129.751C355.974 130.383 356.856 130.699 357.922 130.699C359.569 130.699 360.857 130.102 361.784 128.908L363.885 131.261C363.244 132.168 362.376 132.879 361.281 133.392C360.186 133.895 358.973 134.146 357.641 134.146ZM357.152 121.006C356.304 121.006 355.613 121.292 355.081 121.864C354.558 122.436 354.222 123.255 354.074 124.321H360.023V123.98C360.003 123.033 359.747 122.303 359.254 121.79C358.76 121.267 358.06 121.006 357.152 121.006Z" fill="#607FE1"/>
<path d="M371.787 113.903V117.839H374.525V120.976H371.787V128.967C371.787 129.559 371.901 129.983 372.128 130.24C372.355 130.496 372.789 130.625 373.43 130.625C373.903 130.625 374.323 130.59 374.688 130.521V133.762C373.849 134.018 372.986 134.146 372.098 134.146C369.099 134.146 367.57 132.632 367.511 129.603V120.976H365.173V117.839H367.511V113.903H371.787Z" fill="#607FE1"/>
<path d="M377.129 131.749C377.129 131.068 377.356 130.516 377.81 130.092C378.274 129.668 378.851 129.456 379.541 129.456C380.242 129.456 380.819 129.668 381.273 130.092C381.736 130.516 381.968 131.068 381.968 131.749C381.968 132.42 381.741 132.968 381.288 133.392C380.834 133.806 380.252 134.013 379.541 134.013C378.841 134.013 378.264 133.806 377.81 133.392C377.356 132.968 377.129 132.42 377.129 131.749Z" fill="#607FE1"/>
<path d="M391.72 128.627L394.694 117.839H399.163L393.762 133.85H389.678L384.277 117.839H388.746L391.72 128.627Z" fill="#607FE1"/>
<path d="M404.994 117.839L405.127 119.689C406.271 118.259 407.805 117.543 409.729 117.543C411.426 117.543 412.688 118.042 413.517 119.038C414.346 120.034 414.77 121.524 414.79 123.507V133.85H410.513V123.61C410.513 122.703 410.316 122.047 409.921 121.642C409.527 121.228 408.871 121.021 407.953 121.021C406.75 121.021 405.847 121.534 405.245 122.56V133.85H400.969V117.839H404.994Z" fill="#607FE1"/>
<path d="M314.694 169.808L320.072 182.794L314.703 185.015L309.299 171.943L300.43 178.822V142.257L326.025 168.118L314.694 169.808Z" fill="#868E96"/>
<path d="M300.739 137.393C300.442 136.619 300.297 135.795 300.31 134.966C300.293 134.139 300.439 133.317 300.739 132.547C301.042 133.316 301.188 134.139 301.168 134.966C301.185 135.795 301.039 136.62 300.739 137.393Z" fill="#607FE1"/>
<path d="M296.564 139.125C295.807 138.788 295.122 138.307 294.548 137.71C293.947 137.139 293.466 136.454 293.133 135.694C294.646 136.396 295.862 137.612 296.564 139.125Z" fill="#607FE1"/>
<path d="M294.827 143.303C294.055 143.599 293.234 143.744 292.408 143.732C291.578 143.749 290.754 143.603 289.98 143.303C290.753 142.999 291.578 142.853 292.408 142.874C293.234 142.858 294.056 143.003 294.827 143.303Z" fill="#607FE1"/>
<path d="M296.564 147.479C296.226 148.234 295.749 148.918 295.157 149.495C294.581 150.095 293.894 150.575 293.133 150.91C293.468 150.15 293.949 149.462 294.548 148.886C295.125 148.294 295.809 147.817 296.564 147.479Z" fill="#607FE1"/>
<path d="M306.645 143.303C307.418 143.002 308.243 142.857 309.072 142.874C309.899 142.853 310.721 142.999 311.491 143.303C310.72 143.602 309.898 143.748 309.072 143.732C308.243 143.745 307.419 143.599 306.645 143.303Z" fill="#607FE1"/>
<path d="M304.918 139.125C305.626 137.616 306.84 136.403 308.349 135.694C307.641 137.203 306.427 138.417 304.918 139.125Z" fill="#607FE1"/>
<path d="M183.016 328.523C181 329.201 123.248 329.381 121.044 328.017C120.186 327.502 119.68 319.088 119.328 308.907C119.26 306.711 119.191 304.438 119.148 302.13L114.465 271.329L153.063 271.08L156.709 301.89L156.563 308.675C156.563 308.675 178.71 318.487 180.966 320.263C183.221 322.039 185.031 327.837 183.016 328.523Z" fill="#FFCFC0"/>
<path d="M183.011 328.524C180.996 329.201 123.244 329.381 121.039 328.017C120.019 327.383 119.461 315.1 119.152 302.131L156.721 301.891L156.576 308.675C156.576 308.675 178.723 318.488 180.978 320.263C183.234 322.039 185.027 327.837 183.011 328.524Z" fill="white"/>
<path d="M183.015 328.524C181 329.202 123.248 329.382 121.044 328.018C120.186 327.503 119.68 319.089 119.328 308.907L156.571 308.676C156.571 308.676 178.718 318.488 180.974 320.264C183.23 322.039 185.031 327.838 183.015 328.524Z" fill="#5FD58C"/>
<path d="M182.181 326.214C172.497 326.008 133.427 326.103 123.855 326.634C123.778 326.634 123.778 326.686 123.855 326.695C133.453 327.106 172.523 326.695 182.181 326.369C182.387 326.36 182.387 326.214 182.181 326.214Z" fill="#263238"/>
<path d="M177.258 318.195C176.181 318.167 175.11 318.365 174.115 318.776C173.119 319.186 172.22 319.801 171.476 320.579C170.13 321.957 169.362 323.799 169.332 325.726C169.332 325.777 169.435 325.786 169.444 325.726C169.766 323.807 170.701 322.044 172.11 320.702C173.519 319.359 175.325 318.51 177.258 318.281C177.263 318.275 177.268 318.268 177.271 318.261C177.274 318.254 177.276 318.246 177.276 318.238C177.276 318.23 177.274 318.222 177.271 318.215C177.268 318.207 177.263 318.201 177.258 318.195Z" fill="#263238"/>
<path d="M160.335 309.618C156.458 309.618 151.972 310.965 149.57 314.138C149.484 314.267 149.656 314.396 149.767 314.336C153.152 312.549 156.717 311.128 160.403 310.098C160.456 310.078 160.5 310.041 160.529 309.992C160.558 309.944 160.569 309.887 160.561 309.831C160.553 309.775 160.526 309.724 160.485 309.685C160.444 309.646 160.391 309.623 160.335 309.618Z" fill="#263238"/>
<path d="M163.33 310.775C159.453 310.732 154.967 312.122 152.574 315.296C152.48 315.416 152.651 315.553 152.771 315.493C156.15 313.701 159.714 312.28 163.399 311.256C163.452 311.236 163.496 311.198 163.524 311.15C163.553 311.101 163.564 311.044 163.556 310.988C163.548 310.932 163.522 310.881 163.481 310.842C163.439 310.803 163.386 310.78 163.33 310.775Z" fill="#263238"/>
<path d="M166.325 311.935C162.448 311.892 157.962 313.273 155.569 316.455C155.475 316.575 155.655 316.704 155.767 316.644C159.148 314.856 162.711 313.436 166.394 312.406C166.451 312.391 166.5 312.355 166.532 312.306C166.564 312.257 166.577 312.198 166.568 312.14C166.56 312.082 166.531 312.029 166.486 311.991C166.441 311.953 166.384 311.933 166.325 311.935Z" fill="#263238"/>
<path d="M169.322 313.084C165.445 313.084 160.959 314.431 158.558 317.613C158.463 317.733 158.643 317.862 158.755 317.802C162.139 316.014 165.705 314.594 169.391 313.564C169.444 313.544 169.488 313.507 169.517 313.458C169.545 313.409 169.557 313.353 169.549 313.297C169.541 313.241 169.514 313.189 169.473 313.151C169.432 313.112 169.379 313.089 169.322 313.084Z" fill="#263238"/>
<path d="M126.277 317.432C121.928 317.432 121.988 324.217 126.32 324.182C130.651 324.148 130.634 317.397 126.277 317.432Z" fill="#263238"/>
<path d="M164.486 299.265C162.513 297.644 160.051 299.265 158.85 300.98C156.839 303.916 155.635 307.33 155.359 310.879C155.359 310.894 155.362 310.909 155.368 310.922C155.375 310.936 155.384 310.948 155.395 310.958C155.407 310.968 155.42 310.975 155.435 310.979C155.449 310.983 155.465 310.984 155.479 310.982C155.495 311.055 155.528 311.123 155.575 311.182C155.623 311.24 155.683 311.286 155.751 311.317C155.82 311.348 155.894 311.363 155.969 311.359C156.044 311.356 156.117 311.336 156.183 311.299C158.936 309.378 162.11 307.671 164.194 304.96C165.412 303.365 166.347 300.8 164.486 299.265ZM159.76 307.516C158.43 308.494 157.058 309.395 155.763 310.424C156.449 308.494 157.049 306.539 157.924 304.677C158.335 303.772 158.805 302.896 159.331 302.053C160.188 300.774 163.963 297.524 164.366 301.735C164.58 304.06 161.321 306.35 159.76 307.516Z" fill="#263238"/>
<path d="M145.728 312.328C149.107 312.834 152.59 311.865 155.901 311.333C155.973 311.316 156.04 311.282 156.097 311.234C156.153 311.185 156.197 311.124 156.225 311.055C156.253 310.986 156.263 310.911 156.256 310.837C156.249 310.763 156.224 310.692 156.184 310.63C156.235 310.63 156.261 310.518 156.184 310.467C153.527 308.095 150.294 306.462 146.809 305.732C144.767 305.346 141.876 305.903 141.585 308.434C141.302 310.827 143.764 312.036 145.728 312.328ZM143.386 310.132C140.753 306.813 145.736 306.53 147.229 306.873C148.192 307.114 149.138 307.42 150.059 307.791C151.953 308.575 153.806 309.457 155.609 310.432C153.962 310.587 152.35 310.887 150.711 311.11C148.764 311.367 144.836 311.959 143.386 310.132Z" fill="#263238"/>
<path d="M57.7344 128.936C57.7344 128.936 102.569 205.215 103.769 210.567C105.614 218.793 118.831 300.004 118.831 300.004L156.418 299.326C156.418 299.326 151.374 228.356 143.757 204.751C138.276 187.742 101.342 130.565 101.342 130.565L57.7344 128.936Z" fill="#FFCFC0"/>
<path d="M97.3665 334.895C95.2478 335.04 37.9421 319.927 36.158 318.031C36.0747 317.916 36.027 317.779 36.0207 317.637C35.7891 315.767 38.7226 308.725 40.7812 299.719C40.9099 299.144 41.9906 296.408 43.5002 292.719C47.6517 282.572 55.0712 265.16 55.0712 265.16L91.9541 274.595L78.6763 302.412L76.815 308.931C76.815 308.931 95.7368 324.061 97.4608 326.36C99.1849 328.659 99.4851 334.783 97.3665 334.895Z" fill="#FFCFC0"/>
<path d="M97.3665 334.897C95.2478 335.043 37.9421 319.929 36.158 318.034C36.0747 317.918 36.027 317.781 36.0207 317.639C35.7891 315.769 38.7226 308.727 40.7812 299.721C40.9099 299.146 41.9906 296.41 43.5002 292.722L78.7106 302.449L76.8493 308.967C76.8493 308.967 95.7711 324.098 97.4951 326.397C99.2192 328.695 99.4851 334.785 97.3665 334.897Z" fill="white"/>
<path d="M97.3672 334.896C95.24 335.042 37.9428 319.928 36.1587 318.033C35.4811 317.312 36.965 309.558 40.7734 299.72L76.85 308.966C76.85 308.966 95.7718 324.097 97.4959 326.387C99.2199 328.677 99.4858 334.784 97.3672 334.896Z" fill="#5FD58C"/>
<path d="M97.1405 332.484C87.8254 329.825 50.0247 319.961 40.6153 318.04C40.5381 318.04 40.5209 318.04 40.6153 318.1C49.7845 320.939 87.671 330.486 97.1233 332.639C97.3035 332.682 97.3378 332.536 97.1405 332.484Z" fill="#263238"/>
<path d="M94.4137 323.48C93.3769 323.187 92.2905 323.111 91.2231 323.259C90.1557 323.407 89.1305 323.774 88.2122 324.338C86.5364 325.327 85.3072 326.925 84.7812 328.798C84.7812 328.858 84.867 328.884 84.8928 328.798C85.6894 327.025 87.0401 325.559 88.7416 324.62C90.4431 323.681 92.4035 323.32 94.3279 323.591C94.3427 323.603 94.3614 323.608 94.3799 323.605C94.3984 323.603 94.4152 323.593 94.4266 323.579C94.4379 323.564 94.443 323.545 94.4406 323.527C94.4382 323.508 94.4285 323.491 94.4137 323.48Z" fill="#263238"/>
<path d="M80.2396 310.879C76.5084 309.85 71.8166 310.021 68.6858 312.509C68.5657 312.603 68.6858 312.775 68.8316 312.749C72.557 311.883 76.364 311.417 80.1882 311.359C80.2433 311.352 80.2943 311.326 80.3331 311.286C80.3719 311.246 80.3962 311.195 80.4021 311.139C80.4081 311.084 80.3953 311.028 80.3658 310.981C80.3364 310.934 80.2919 310.898 80.2396 310.879Z" fill="#263238"/>
<path d="M82.842 312.758C79.1022 311.737 74.4103 311.9 71.2796 314.396C71.1595 314.49 71.2796 314.662 71.4254 314.628C75.1507 313.762 78.9578 313.296 82.7819 313.238C82.8376 313.232 82.8896 313.207 82.9295 313.168C82.9694 313.129 82.9949 313.077 83.0018 313.022C83.0088 312.966 82.9968 312.91 82.9678 312.862C82.9387 312.814 82.8944 312.777 82.842 312.758Z" fill="#263238"/>
<path d="M85.439 314.637C81.6993 313.616 77.0074 313.779 73.8853 316.275C73.7652 316.369 73.8853 316.541 74.0225 316.506C77.7508 315.641 81.5606 315.175 85.3876 315.117C85.4427 315.109 85.4938 315.084 85.5325 315.044C85.5713 315.004 85.5956 314.952 85.6016 314.897C85.6075 314.842 85.5947 314.786 85.5652 314.739C85.5358 314.691 85.4913 314.656 85.439 314.637Z" fill="#263238"/>
<path d="M88.0529 316.525C84.3131 315.495 79.6213 315.667 76.4905 318.154C76.3704 318.249 76.4905 318.42 76.6363 318.394C80.3605 317.521 84.1681 317.053 87.9928 316.996C88.0507 316.995 88.1063 316.974 88.1494 316.935C88.1925 316.897 88.2203 316.844 88.2276 316.786C88.2349 316.729 88.2213 316.671 88.1892 316.623C88.1571 316.575 88.1087 316.54 88.0529 316.525Z" fill="#263238"/>
<path d="M45.3089 309.764C41.0974 308.683 39.4162 315.227 43.5934 316.308C47.7706 317.389 49.529 310.879 45.3089 309.764Z" fill="#263238"/>
<path d="M86.8962 301.925C85.4037 299.858 82.6075 300.775 81.0206 302.105C78.3199 304.435 76.2839 307.439 75.1194 310.811C75.1141 310.826 75.1122 310.841 75.1139 310.857C75.1155 310.872 75.1207 310.887 75.1289 310.9C75.1372 310.914 75.1483 310.925 75.1615 310.933C75.1747 310.941 75.1897 310.946 75.2052 310.948C75.2052 311.24 75.4796 311.549 75.8056 311.428C78.9535 310.271 82.4617 309.43 85.1635 307.346C86.7418 306.128 88.3029 303.88 86.8962 301.925ZM80.2229 308.701C78.6876 309.301 77.1351 309.833 75.6169 310.494C76.7173 308.764 77.9054 307.092 79.1765 305.484C79.8016 304.714 80.4779 303.986 81.2008 303.306C82.3416 302.285 86.8361 300.106 86.1499 304.283C85.7725 306.591 82.0499 307.98 80.2229 308.701Z" fill="#263238"/>
<path d="M65.4393 309.781C68.57 311.136 72.1811 311.076 75.5177 311.41C75.5924 311.412 75.6665 311.396 75.7338 311.364C75.8012 311.332 75.8599 311.284 75.9051 311.224C75.9503 311.165 75.9808 311.095 75.994 311.022C76.0071 310.948 76.0027 310.873 75.9809 310.801C75.9957 310.796 76.0092 310.788 76.0202 310.776C76.0312 310.765 76.0395 310.752 76.0445 310.737C76.0495 310.722 76.051 310.706 76.0489 310.69C76.0468 310.675 76.0411 310.66 76.0324 310.647C74.0619 307.671 71.3434 305.266 68.1497 303.673C66.2798 302.816 63.3464 302.593 62.4114 304.96C61.4765 307.327 63.6037 308.991 65.4393 309.781ZM63.7238 307.061C62.0083 303.184 66.9146 304.179 68.2698 304.891C69.1421 305.365 69.9791 305.901 70.7744 306.495C72.4078 307.732 73.974 309.055 75.4663 310.458C73.8366 310.192 72.1983 310.072 70.56 309.866C68.6129 309.626 64.6673 309.163 63.7238 307.061Z" fill="#263238"/>
<path d="M79.7363 300.303L44.2344 290.979C44.2344 290.979 77.6863 211.158 77.3775 205.703C77.0859 200.865 50.8476 162.438 48.1628 150.112C45.3409 137.169 51.8511 125.53 57.984 118.376L101.343 130.599C101.343 130.599 97.9119 138.095 91.5475 142.839C91.5475 142.839 118.789 188.299 119.493 203.301C120.196 218.303 79.7363 300.303 79.7363 300.303Z" fill="#FFCFC0"/>
<path d="M152.594 257.699C141.743 261.842 127.53 266.276 113.558 267.863C111.919 257.939 110.127 247.088 108.506 237.49C104.328 247.534 99.4993 258.351 95.0047 268.12C81.9149 267.27 68.9312 265.217 56.2176 261.987C65.79 238.554 77.5668 208.97 77.3696 205.719C77.0779 200.89 50.8396 162.455 48.1548 150.138C45.3329 137.186 51.8431 125.546 57.976 118.358L101.335 130.581C101.335 130.581 138.269 187.767 143.75 204.767C147.361 215.952 150.398 237.825 152.594 257.699Z" fill="#FFCFC0"/>
<path d="M57.9778 118.341L104.596 131.207C104.596 131.207 138.245 189.791 142.877 199.372C148.83 211.637 152.801 247.86 152.801 247.86C130.68 263.831 58.9899 260.349 55.6876 258.556C55.6876 258.556 76.0333 209.322 76.1276 206.079C76.3078 200.169 45.3518 163.724 46.2782 142.117C46.9215 127.098 57.9778 118.341 57.9778 118.341Z" fill="#37474F"/>
<path d="M101.449 167.576C101.2 163.185 100.891 158.784 100.454 154.401C100.444 154.355 100.419 154.313 100.382 154.283C100.346 154.254 100.3 154.237 100.252 154.237C100.205 154.237 100.159 154.254 100.122 154.283C100.086 154.313 100.06 154.355 100.051 154.401C100.214 158.802 100.505 163.202 100.857 167.585C101.209 171.968 101.663 176.36 101.981 180.76C101.981 180.846 102.127 180.846 102.118 180.76C101.835 176.377 101.706 171.976 101.449 167.576Z" fill="#263238"/>
<path d="M114.224 192.966C113.64 191.705 112.997 190.461 112.362 189.226C111.728 187.991 111.136 186.696 110.51 185.435C109.2 182.787 107.902 180.134 106.616 177.475C106.547 177.321 106.281 177.475 106.35 177.595C108.402 182.25 110.404 186.93 112.354 191.636C114.155 195.925 116.008 200.445 116.171 205.189C116.351 210.138 114.644 214.898 113.031 219.496C111.316 224.325 109.669 229.163 108.134 234.077C107.276 236.839 106.255 239.584 105.483 242.389C105.106 243.753 104.626 245.091 104.205 246.446C103.785 247.801 103.348 249.294 102.867 250.735C102.867 250.821 102.962 250.855 102.996 250.735C103.442 249.491 103.931 248.273 104.411 247.038C104.891 245.803 105.329 244.465 105.852 243.212C106.847 240.819 107.731 238.375 108.64 235.956C110.475 231.092 112.234 226.203 113.966 221.306C115.63 216.622 117.397 211.819 117.612 206.801C117.809 201.946 116.197 197.306 114.224 192.966Z" fill="#263238"/>
<path d="M93.1687 34.8661C86.3067 39.1548 82.6442 47.981 82.6442 47.981C82.6442 47.981 75.199 56.0095 75.5764 61.3446C75.6542 62.8575 76.0976 64.329 76.8684 65.633C77.6392 66.9371 78.7145 68.035 80.0023 68.8327L80.0881 65.9421C80.0881 65.9421 81.0917 69.9049 86.7785 72.6926C92.4653 75.4802 100.837 75.4202 105.443 74.2537C108.174 73.5802 110.684 72.2088 112.725 70.2737L110.272 73.9535C112.277 74.1813 114.307 73.9089 116.181 73.1605C118.055 72.4121 119.715 71.2111 121.011 69.6647C125.874 64.2352 117.923 53.0674 117.511 50.9574C117.1 48.8473 119.175 34.6002 103.899 33.6996C103.899 33.6739 97.8519 31.8983 93.1687 34.8661Z" fill="#263238"/>
<path d="M77.9488 67.9925C76.5744 66.6017 75.5537 64.9016 74.9724 63.0347C74.429 61.1443 74.5377 59.126 75.2812 57.305C76.3239 55.2058 77.7359 53.3114 79.4498 51.7125C81.0967 49.997 82.8808 48.333 84.5105 46.566C84.5963 46.4631 84.4504 46.3345 84.3475 46.4031C82.6909 47.6462 81.1071 48.9836 79.6042 50.4087C78.1075 51.6784 76.7633 53.1177 75.5985 54.6974C74.5242 56.1562 73.8875 57.8907 73.763 59.6981C73.7385 61.1846 74.0709 62.6553 74.7322 63.9868C75.5307 65.5175 76.5803 66.9034 77.8373 68.0868C77.8417 68.0983 77.8489 68.1085 77.8581 68.1166C77.8673 68.1247 77.8783 68.1305 77.8902 68.1336C77.9021 68.1366 77.9146 68.1367 77.9265 68.1339C77.9385 68.1312 77.9496 68.1256 77.959 68.1177C77.9684 68.1097 77.9758 68.0997 77.9805 68.0883C77.9852 68.077 77.9871 68.0647 77.9861 68.0524C77.9851 68.0402 77.9812 68.0283 77.9747 68.0179C77.9682 68.0075 77.9593 67.9988 77.9488 67.9925Z" fill="#263238"/>
<path d="M123.691 63.5227C123.082 57.9732 119.179 53.6587 117.369 48.5294C116.391 45.7503 115.817 42.7911 114.298 40.2265C114.256 40.1578 114.144 40.2265 114.178 40.3037C115.379 42.5681 115.808 45.0727 116.503 47.5173C117.272 49.9634 118.281 52.3279 119.513 54.5765C121.649 58.7365 124.214 63.6686 122.438 68.4205C121.624 70.6077 119.728 72.8121 117.292 73.0008C117.198 73.0008 117.215 73.1638 117.292 73.1466C118.29 72.9861 119.245 72.6242 120.099 72.0831C120.952 71.5419 121.687 70.8327 122.258 69.9987C123.494 68.0803 124.002 65.7832 123.691 63.5227Z" fill="#263238"/>
<path d="M123.581 64.9649C124.19 63.0508 124.19 60.9949 123.581 59.0808C122.841 57.2334 121.705 55.5705 120.253 54.2088C118.683 52.5619 117.011 50.9665 116.273 48.7621C116.263 48.7495 116.249 48.7404 116.233 48.7361C116.218 48.7319 116.201 48.7326 116.186 48.7383C116.171 48.744 116.158 48.7543 116.149 48.7679C116.14 48.7814 116.135 48.7974 116.136 48.8136C117.268 52.4419 120.468 54.732 122.252 57.9657C124.284 61.6626 123.281 66.1486 120.613 69.2536C118.939 71.1507 116.837 72.621 114.48 73.5423C114.48 73.5423 114.48 73.6195 114.48 73.6024C118.478 72.0584 122.337 69.2365 123.581 64.9649Z" fill="#263238"/>
<path d="M99.3056 79.4848C103.243 88.1652 123.194 100.131 132.543 101.426C139.268 102.352 159.699 102.687 166.698 101.623C174.907 100.379 168.654 78.2239 163.799 78.79C150.47 80.334 139.156 82.058 135.597 82.058C131.257 82.058 107.746 74.4928 104.915 73.4292C97.9847 70.8216 97.0669 74.5614 99.3056 79.4848Z" fill="#FFCFC0"/>
<path d="M161.32 79.0327C169.435 77.9777 179.47 76.1593 187.97 79.779C188.923 80.1539 189.721 80.8401 190.235 81.7261C194.069 83.2786 194.524 85.5602 194.524 85.5602C197.654 88.1334 197.766 90.4836 197.766 90.4836C197.766 90.4836 202.243 92.3535 201.566 95.2527C200.811 98.5035 194.704 95.2527 190.183 95.51C179.89 96.1361 165.506 99.9016 162.564 100.373L161.32 79.0327Z" fill="#FFCFC0"/>
<path d="M178.962 88.6108C181.965 88.3908 184.98 88.3765 187.985 88.5679C191.255 88.9848 194.489 89.6442 197.661 90.5407C197.681 90.5475 197.704 90.546 197.723 90.5363C197.742 90.5267 197.757 90.5097 197.764 90.4893C197.771 90.4688 197.769 90.4464 197.759 90.4271C197.75 90.4078 197.733 90.3932 197.712 90.3863C191.752 88.044 185.264 87.3824 178.953 88.4736C178.816 88.4993 178.816 88.6108 178.962 88.6108Z" fill="#263238"/>
<path d="M177.695 82.4704C180.646 82.4704 185.827 82.6162 194.498 85.6526C194.498 85.6526 194.558 85.6526 194.498 85.6012C189.305 82.9681 183.48 81.8335 177.678 82.3246C177.515 82.3418 177.506 82.4618 177.695 82.4704Z" fill="#263238"/>
<path d="M177.066 79.1604C182.075 79.4177 185.197 80.224 190.241 81.7336C190.241 81.7336 190.292 81.6907 190.241 81.6821C184.7 79.3491 182.418 79.1089 177.032 78.9717C176.86 78.9803 176.869 79.1432 177.066 79.1604Z" fill="#263238"/>
<path d="M177.869 97.0518C176.565 97.6608 176.874 98.3469 179.37 98.9302C181.866 99.5135 192.236 99.685 191.858 103.296C191.481 106.907 176.874 106.444 172.791 105.157C168.708 103.871 162.566 100.371 162.566 100.371C165.431 99.8737 172.259 98.0639 177.869 97.0518Z" fill="#FFCFC0"/>
<path d="M98.131 80.4279C102.668 87.5729 118.091 99.4698 118.091 99.4698L120.407 94.6922L128.126 78.8925C128.126 78.8925 113.793 73.9262 104.341 71.6275C103.229 71.3455 102.096 71.1505 100.953 71.0442C94.8544 70.5467 94.2197 74.2865 98.131 80.4279Z" fill="#5FD58C"/>
<path d="M116.134 75.9424C116.271 76.6137 116.329 77.2989 116.305 77.9838C116.3 78.6664 116.214 79.346 116.048 80.0081C115.91 79.3397 115.852 78.6573 115.876 77.9752C115.886 77.2901 115.972 76.6083 116.134 75.9424Z" fill="white"/>
<path d="M117.898 84.2215C119.248 83.9639 120.636 83.9932 121.973 84.3073C121.301 84.4449 120.616 84.5025 119.931 84.4789C119.246 84.4693 118.564 84.383 117.898 84.2215Z" fill="white"/>
<path d="M97.5664 72.4258C98.2348 72.288 98.9172 72.2304 99.5993 72.2543C100.285 72.2596 100.967 72.346 101.632 72.5116C100.961 72.6492 100.276 72.7067 99.5907 72.6832C98.9084 72.6742 98.2293 72.5879 97.5664 72.4258Z" fill="white"/>
<path d="M108.611 80.9014C108.229 81.4709 107.783 81.9947 107.281 82.4625C106.793 82.9431 106.249 83.3636 105.66 83.7148C106.431 82.58 107.434 81.6212 108.602 80.9014H108.611Z" fill="white"/>
<path d="M116.219 90.7734C115.447 91.9054 114.448 92.8636 113.285 93.5868C113.662 93.0157 114.105 92.4916 114.606 92.0257C115.096 91.5499 115.636 91.1299 116.219 90.7734Z" fill="white"/>
<path d="M98.1295 80.4279C102.667 87.5729 118.089 99.4698 118.089 99.4698L120.405 94.6922C114.727 87.7101 105.961 77.1256 100.917 71.0442C94.8529 70.5467 94.2182 74.2865 98.1295 80.4279Z" fill="#263238"/>
<path d="M115.336 96.1599C116.622 93.2522 122.301 81.5783 123.699 79.0823C123.793 78.9107 123.922 78.9279 123.845 79.0823C121.355 84.9233 118.555 90.6269 115.456 96.1685C115.422 96.2714 115.31 96.2285 115.336 96.1599Z" fill="#263238"/>
<path d="M110.714 91.5714C110.86 93.0381 110.92 94.5477 110.92 96.0573C110.916 96.0002 110.916 95.9429 110.92 95.8858C111.092 95.0795 111.263 94.2475 111.503 93.4584C111.503 93.4155 111.589 93.4155 111.589 93.4584C111.529 94.2956 111.391 95.1255 111.177 95.9373C111.08 96.3261 110.977 96.7121 110.869 97.0952C110.869 97.7642 110.869 98.4333 110.791 99.0938C110.706 100.355 110.277 105.724 110.131 106.642C110.131 106.831 109.882 106.822 109.865 106.642C109.796 105.673 110.011 100.114 110.028 98.8536C110.078 96.4208 110.261 93.9926 110.577 91.5799C110.594 91.5027 110.714 91.5199 110.714 91.5714Z" fill="#263238"/>
<path d="M107.639 135.204C107.639 135.204 87.4739 135.289 51.9805 123.753C51.9805 123.753 76.6406 81.835 90.8705 72.2883C97.3551 67.9481 102.227 69.9724 105.701 74.5442C106.559 75.685 115.942 95.6446 115.702 101.795C115.488 107.224 109.93 112.01 109.93 112.01L107.639 135.204Z" fill="#5FD58C"/>
<path d="M99.4379 89.041C99.5855 89.7084 99.6574 90.3904 99.6523 91.0739C99.6617 91.7576 99.5898 92.44 99.4379 93.1067C99.2861 92.44 99.2141 91.7576 99.2235 91.0739C99.2184 90.3904 99.2903 89.7084 99.4379 89.041Z" fill="white"/>
<path d="M93.9028 112.404C94.0503 113.072 94.1223 113.754 94.1172 114.437C94.1266 115.121 94.0546 115.803 93.9028 116.47C93.7509 115.803 93.6789 115.121 93.6883 114.437C93.6832 113.754 93.7552 113.072 93.9028 112.404Z" fill="white"/>
<path d="M76.9496 97.9521C77.2355 99.2923 77.2355 100.678 76.9496 102.018C76.7978 101.351 76.7258 100.669 76.7352 99.985C76.7301 99.3015 76.802 98.6196 76.9496 97.9521Z" fill="white"/>
<path d="M108.008 109.311C108.294 110.651 108.294 112.036 108.008 113.376C107.856 112.71 107.784 112.027 107.794 111.343C107.789 110.66 107.861 109.978 108.008 109.311Z" fill="white"/>
<path d="M86.6992 93.7141C87.3659 93.5622 88.0483 93.4903 88.7321 93.4997C89.416 93.4861 90.0989 93.5581 90.7649 93.7141C89.4248 94 88.0394 94 86.6992 93.7141Z" fill="white"/>
<path d="M72.2305 111.797C73.5735 111.512 74.9617 111.512 76.3047 111.797C74.9617 112.083 73.5735 112.083 72.2305 111.797Z" fill="white"/>
<path d="M94.168 126.139C95.5081 125.853 96.8935 125.853 98.2337 126.139C96.8935 126.425 95.5081 126.425 94.168 126.139Z" fill="white"/>
<path d="M68.6211 123.376C69.9641 123.091 71.3523 123.091 72.6954 123.376C71.3523 123.662 69.9641 123.662 68.6211 123.376Z" fill="white"/>
<path d="M97.2227 74.0562C98.5628 73.7703 99.9482 73.7703 101.288 74.0562C99.9482 74.3421 98.5628 74.3421 97.2227 74.0562Z" fill="white"/>
<path d="M90.132 76.7158C89.3847 77.8661 88.4025 78.8454 87.25 79.5893C87.6141 79.011 88.0461 78.4782 88.5366 78.0024C89.0175 77.514 89.5528 77.0823 90.132 76.7158Z" fill="white"/>
<path d="M68.9438 99.3867C68.575 99.9617 68.1435 100.494 67.6571 100.974C67.1794 101.462 66.6469 101.894 66.0703 102.26C66.4319 101.68 66.8641 101.147 67.3569 100.673C67.8327 100.183 68.3654 99.7508 68.9438 99.3867Z" fill="white"/>
<path d="M102.839 101.812C102.467 102.388 102.033 102.92 101.544 103.399C101.068 103.89 100.535 104.322 99.957 104.686C100.704 103.536 101.687 102.556 102.839 101.812Z" fill="white"/>
<path d="M83.3852 118.204C83.0164 118.779 82.5849 119.311 82.0985 119.791C81.6208 120.279 81.0883 120.711 80.5117 121.078C81.2589 119.93 82.2377 118.951 83.3852 118.204Z" fill="white"/>
<path d="M108.448 82.3262C107.702 83.4796 106.72 84.4618 105.566 85.2082C106.31 84.0556 107.29 83.0735 108.44 82.3262H108.448Z" fill="white"/>
<path d="M110.175 97.9533C109.598 97.5841 109.063 97.1527 108.58 96.6667C108.091 96.1858 107.659 95.6505 107.293 95.0713C108.449 95.815 109.431 96.7977 110.175 97.9533Z" fill="white"/>
<path d="M64.1469 115.314C62.9994 114.567 62.0207 113.588 61.2734 112.44C61.8535 112.802 62.3865 113.234 62.8603 113.727C63.3508 114.203 63.7827 114.736 64.1469 115.314Z" fill="white"/>
<path d="M107.659 122.228C107.086 121.856 106.554 121.425 106.072 120.941C105.583 120.46 105.152 119.925 104.785 119.346C105.935 120.093 106.915 121.075 107.659 122.228Z" fill="white"/>
<path d="M81.6828 88.7931C80.5272 88.0495 79.5445 87.0667 78.8008 85.9111C79.9564 86.6548 80.9391 87.6376 81.6828 88.7931Z" fill="white"/>
<path d="M88.132 132.34C87.5528 131.974 87.0175 131.542 86.5366 131.054C86.0461 130.578 85.6141 130.045 85.25 129.467C85.8292 129.833 86.3645 130.265 86.8454 130.753C87.3293 131.235 87.7606 131.767 88.132 132.34Z" fill="white"/>
<path d="M88.1008 106.126C86.9452 105.382 85.9624 104.4 85.2188 103.244C86.3743 103.988 87.3571 104.971 88.1008 106.126Z" fill="white"/>
<path d="M86.0799 81.5355C82.7347 90.8935 87.5124 125.212 93.1649 132.451C101.579 143.216 118.168 153.123 124.515 156.211C127.277 157.557 139.715 137.692 137.004 135.831C131.197 131.842 112.644 122.33 111.075 120.434C109.505 118.539 101.048 100.38 97.6595 90.1644C93.1134 76.4577 87.7611 76.8008 86.0799 81.5355Z" fill="#FFCFC0"/>
<path d="M124.531 156.271C133.332 161.289 150.838 160.56 153.223 159.831C155.264 159.213 156.311 158.879 156.311 158.879C159.982 157.849 160.977 155.808 160.977 155.808C160.977 155.808 165.574 155.868 166.072 153.097C166.638 149.984 160.068 150.524 156.276 148.594C147.587 144.194 136.471 135.505 134.095 134.013L124.531 156.271Z" fill="#FFCFC0"/>
<path d="M143.928 150.378C146.455 151.696 149.069 152.843 151.75 153.809C154.749 154.676 157.808 155.318 160.902 155.73C160.923 155.73 160.943 155.738 160.957 155.753C160.971 155.767 160.98 155.787 160.98 155.808C160.98 155.828 160.971 155.848 160.957 155.862C160.943 155.877 160.923 155.885 160.902 155.885C154.834 155.718 148.927 153.891 143.825 150.601C143.696 150.481 143.799 150.309 143.928 150.378Z" fill="#263238"/>
<path d="M140.512 155.234C143.085 156.306 147.64 158.158 156.311 158.785V158.836C150.804 159.218 145.299 158.062 140.409 155.499C140.263 155.414 140.34 155.165 140.512 155.234Z" fill="#263238"/>
<path d="M146.152 142.623C145.243 141.603 145.775 141.122 148.16 141.56C150.544 141.997 159.619 145.729 160.657 142.418C161.695 139.107 148.82 134.055 144.789 133.634C140.757 133.214 133.887 133.952 133.887 133.952C136.194 135.478 141.658 139.639 146.152 142.623Z" fill="#FFCFC0"/>
<path d="M95.4287 83.8955C89.5618 71.5697 84.2095 74.812 83.6948 87.0091C83.2145 98.4256 84.8271 112.407 84.8271 112.407L106.099 106.308L95.4287 83.8955Z" fill="#5FD58C"/>
<path d="M99.4379 89.041C99.5855 89.7084 99.6574 90.3904 99.6523 91.0739C99.6617 91.7576 99.5898 92.44 99.4379 93.1067C99.2861 92.44 99.2141 91.7576 99.2235 91.0739C99.2184 90.3904 99.2903 89.7084 99.4379 89.041Z" fill="white"/>
<path d="M86.6992 93.7141C87.3659 93.5622 88.0483 93.4903 88.7321 93.4997C89.416 93.4861 90.0989 93.5581 90.7649 93.7141C89.4248 94 88.0394 94 86.6992 93.7141Z" fill="white"/>
<path d="M90.132 76.7158C89.3847 77.8661 88.4025 78.8454 87.25 79.5893C87.6141 79.011 88.0461 78.4782 88.5366 78.0024C89.0175 77.514 89.5528 77.0823 90.132 76.7158Z" fill="white"/>
<path d="M102.839 101.812C102.467 102.388 102.033 102.92 101.544 103.399C101.068 103.89 100.535 104.322 99.957 104.686C100.704 103.536 101.687 102.556 102.839 101.812Z" fill="white"/>
<path d="M88.1008 106.126C86.9452 105.382 85.9624 104.4 85.2188 103.244C86.3743 103.988 87.3571 104.971 88.1008 106.126Z" fill="white"/>
<path d="M97.4701 87.6523C98.2592 89.2734 99.0998 90.8688 99.9318 92.4642C99.786 91.7094 99.6745 90.946 99.5887 90.174C99.5887 90.1312 99.6316 90.1312 99.6402 90.174C99.7603 90.7745 99.9061 91.3749 100.018 91.9753C100.069 92.2669 100.129 92.5586 100.181 92.833C100.181 92.8931 100.181 92.9531 100.223 93.0217C100.867 94.2655 101.51 95.5092 102.128 96.7787C102.857 98.2883 103.551 99.8151 104.246 101.333C104.941 102.851 105.601 104.721 106.382 106.265C105.71 106.534 105.016 106.741 104.306 106.883C104.118 106.951 104.032 106.763 104.221 106.737C104.409 106.711 106.005 106.077 106.022 106.059C105.327 104.524 104.461 103.066 103.723 101.556C102.985 100.047 102.231 98.5456 101.527 97.0274C100.086 93.9395 98.8253 90.7745 97.4015 87.6694C97.3843 87.6437 97.4444 87.618 97.4701 87.6523Z" fill="#263238"/>
<path d="M82.8139 95.0023C83.0111 95.6371 83.2342 96.2632 83.3886 96.9065C83.4572 97.1724 83.5258 97.4469 83.5858 97.7042C83.5058 95.5084 83.4343 93.3069 83.3714 91.0996C83.6716 94.7021 83.989 98.3046 84.2291 101.916C84.562 105.371 84.7194 108.841 84.7009 112.312C85.3437 112.158 85.9976 112.054 86.6566 112.003C85.9558 112.31 85.2175 112.524 84.4607 112.638C84.0274 109.03 83.7784 105.403 83.7145 101.77C83.663 100.784 83.6373 99.7885 83.5944 98.8021C83.4743 98.1846 83.3028 97.5841 83.1398 96.9751C82.9768 96.3661 82.8482 95.68 82.7109 95.0281C82.7367 94.9852 82.7967 94.968 82.8139 95.0023Z" fill="#263238"/>
<path d="M85.6983 109.191C88.6919 108.127 101.138 104.207 103.848 103.538C104.037 103.496 104.114 103.598 103.925 103.676C97.9722 105.878 91.9049 107.76 85.7498 109.311C85.6726 109.311 85.6211 109.225 85.6983 109.191Z" fill="#263238"/>
<path d="M97.6146 69.3126C100.299 69.6986 103.404 71.7314 105.789 75.2482C107.89 78.3532 109.743 82.7191 108.182 83.534C106.381 84.4861 103.036 80.4718 103.036 80.4718C103.036 80.4718 103.67 86.802 100.334 86.3474C96.4309 85.8156 93.0857 80.2317 92.6139 76.5091C92.0564 72.5463 92.9227 68.6436 97.6146 69.3126Z" fill="white"/>
<path d="M93.6257 72.4856C93.8573 73.4205 98.369 79.4076 102.623 79.1503C104.013 79.0645 103.884 71.4906 103.884 71.4906L104.004 70.9245L105.66 63.0676L96.3791 57.2692L95.041 56.5059C95.041 56.5059 94.7322 58.6845 94.3634 61.4036L94.3119 61.7895C94.3119 61.9439 94.3119 62.0898 94.2519 62.2356C94.1918 62.6387 94.1318 63.0504 94.0803 63.4707C94.0288 63.891 94.0031 64.0883 93.9774 64.4228C93.9517 64.7573 93.9088 65.0747 93.8659 65.4092C93.6224 67.7596 93.5422 70.1241 93.6257 72.4856Z" fill="#FFCFC0"/>
<path d="M94.3672 61.4036C95.1862 63.5956 96.473 65.5828 98.1379 67.227C99.8029 68.8713 101.806 70.133 104.008 70.9245L105.664 63.0676L96.3829 57.2692L95.0448 56.5059C95.0448 56.5059 94.736 58.7017 94.3672 61.4036Z" fill="#263238"/>
<path d="M117.871 52.1402C118.008 66.2414 109.577 67.914 106.532 67.9398C103.778 67.9398 94.3774 67.691 92.8077 53.6841C91.2381 39.6772 97.7312 35.1483 104.036 34.7623C110.34 34.3763 117.734 38.0389 117.871 52.1402Z" fill="#FFCFC0"/>
<path d="M115.555 50.023C115.229 49.963 114.938 49.8515 114.62 49.7657C114.277 49.7191 113.958 49.5626 113.711 49.3197C113.645 49.2319 113.609 49.125 113.609 49.0152C113.609 48.9053 113.645 48.7984 113.711 48.7107C113.88 48.5666 114.084 48.47 114.303 48.4308C114.521 48.3916 114.746 48.4112 114.955 48.4876C115.4 48.5823 115.795 48.8391 116.061 49.2082C116.115 49.2927 116.144 49.3907 116.145 49.491C116.146 49.5913 116.118 49.6897 116.065 49.7749C116.012 49.8601 115.936 49.9286 115.846 49.9725C115.756 50.0164 115.655 50.0339 115.555 50.023Z" fill="#263238"/>
<path d="M106.425 49.7311C106.748 49.7028 107.068 49.657 107.386 49.5939C107.734 49.589 108.071 49.4716 108.347 49.2594C108.411 49.1692 108.446 49.0613 108.446 48.9506C108.446 48.8399 108.411 48.7319 108.347 48.6418C108.195 48.4801 108.003 48.3615 107.791 48.2982C107.578 48.2349 107.353 48.2292 107.137 48.2816C106.686 48.3218 106.265 48.5263 105.954 48.8562C105.883 48.9378 105.839 49.0389 105.827 49.146C105.816 49.2532 105.837 49.3614 105.888 49.4563C105.939 49.5512 106.018 49.6283 106.114 49.6773C106.21 49.7264 106.318 49.7452 106.425 49.7311Z" fill="#263238"/>
<path d="M108.061 53.3945C108.061 53.3945 107.993 53.3945 107.993 53.4803C107.993 54.441 107.812 55.5389 106.938 55.8219V55.882C108.01 55.7705 108.216 54.3123 108.061 53.3945Z" fill="#263238"/>
<path d="M107.285 52.3633C105.75 52.1918 105.509 55.2797 106.933 55.4426C108.357 55.6056 108.537 52.5092 107.285 52.3633Z" fill="#263238"/>
<path d="M106.631 52.4838C106.348 52.6382 106.057 52.9212 105.731 52.9298C105.405 52.9384 105.087 52.5953 104.873 52.2607H104.813C104.762 52.8526 104.942 53.4787 105.568 53.616C106.194 53.7532 106.597 53.2471 106.794 52.6639C106.829 52.5867 106.743 52.4151 106.631 52.4838Z" fill="#263238"/>
<path d="M113.497 53.4199C113.497 53.4199 113.566 53.4714 113.566 53.5057C113.454 54.4664 113.489 55.5729 114.329 55.9674C114.329 55.9674 114.329 56.0275 114.329 56.0189C113.291 55.7787 113.24 54.3034 113.497 53.4199Z" fill="#263238"/>
<path d="M114.431 52.4932C115.983 52.4932 115.846 55.5983 114.431 55.5897C113.016 55.5811 113.136 52.4761 114.431 52.4932Z" fill="#263238"/>
<path d="M115.072 52.6991C115.303 52.8706 115.535 53.1794 115.826 53.2137C116.118 53.248 116.427 52.9306 116.684 52.6133H116.736C116.736 53.2137 116.495 53.8141 115.878 53.9085C115.26 54.0028 115.02 53.4624 114.883 52.862C114.883 52.8191 115.003 52.6991 115.072 52.6991Z" fill="#263238"/>
<path d="M107.379 60.7789C107.577 61.0276 107.765 61.3621 108.109 61.4307C108.464 61.4673 108.823 61.4293 109.164 61.3192C109.164 61.3192 109.224 61.3192 109.164 61.3707C109.006 61.5421 108.804 61.667 108.58 61.732C108.356 61.797 108.119 61.7996 107.894 61.7395C107.706 61.6668 107.544 61.5399 107.428 61.3751C107.312 61.2102 107.247 61.0147 107.242 60.8132C107.285 60.7531 107.345 60.7445 107.379 60.7789Z" fill="#263238"/>
<path d="M111.575 57.5693C111.575 57.5693 111.678 59.0103 111.635 59.6879C111.635 59.748 111.463 59.7737 111.232 59.7737C110.646 59.8423 110.053 59.7481 109.517 59.5014C108.981 59.2548 108.524 58.8652 108.195 58.3756C108.195 58.307 108.247 58.2469 108.298 58.2898C109.123 58.9341 110.134 59.2951 111.18 59.3191C111.24 59.139 110.914 56.8574 111.026 56.8488C111.547 56.9299 112.054 57.0799 112.535 57.2948C112.398 54.2842 111.781 51.2906 111.678 48.3143C111.684 48.2951 111.696 48.2783 111.712 48.2664C111.728 48.2545 111.748 48.248 111.768 48.248C111.788 48.248 111.808 48.2545 111.824 48.2664C111.84 48.2783 111.852 48.2951 111.858 48.3143C112.617 51.4759 113.057 54.7058 113.17 57.9553C113.23 58.2984 111.866 57.698 111.575 57.5693Z" fill="#263238"/>
<path d="M111.189 59.5091C110.764 60.0359 110.208 60.4413 109.576 60.6842C109.228 60.7987 108.852 60.7987 108.504 60.6842C107.732 60.4526 107.732 59.7406 107.895 59.1317C107.982 58.8112 108.109 58.5029 108.272 58.2139C109.08 58.9472 110.103 59.4013 111.189 59.5091Z" fill="#263238"/>
<path d="M109.576 60.6843C109.228 60.7989 108.852 60.7989 108.504 60.6843C107.732 60.4528 107.732 59.7408 107.895 59.1318C108.31 59.1605 108.703 59.33 109.009 59.6123C109.315 59.8946 109.515 60.2728 109.576 60.6843Z" fill="#FF99BA"/>
<path d="M94.008 54.4142C97.439 54.5428 99.266 44.0012 99.4718 42.706C99.3861 43.5637 98.94 47.8524 99.2574 48.0926C99.6307 48.1074 100.004 48.064 100.364 47.964C100.4 47.4406 100.481 46.9213 100.604 46.4114C100.697 46.9003 100.735 47.3981 100.716 47.8953L101.367 47.7667C101.412 46.6481 101.605 45.5405 101.942 44.4729C102.079 44.0612 102.045 45.9311 102.32 47.5866C105.334 46.9518 108.409 46.6526 111.489 46.6945C112.347 46.6945 113.101 46.7974 113.753 46.8746C113.856 45.588 113.813 44.1985 113.882 44.4987C114.084 45.2994 114.204 46.1184 114.242 46.9432C114.594 46.9432 114.928 47.0376 115.22 47.0891C115.443 45.2706 114.791 42.2943 115.048 42.8003C115.813 44.2343 116.299 45.8001 116.481 47.415C117.707 47.7495 118.033 48.024 118.085 47.6981C117.988 44.0575 116.588 40.5726 114.139 37.8769C110.125 33.4853 101.59 31.8212 96.2639 37.7225C96.2639 37.7225 92.0695 40.0384 91.1174 44.1985C90.1653 48.3585 92.0095 54.337 94.008 54.4142Z" fill="#263238"/>
<path d="M95.9597 54.4737C95.9597 54.4737 93.2321 49.8505 91.1563 50.794C89.0806 51.7375 90.899 58.2735 93.172 59.32C93.4532 59.4748 93.7628 59.5711 94.0822 59.6029C94.4015 59.6348 94.7241 59.6017 95.0303 59.5055C95.3365 59.4093 95.62 59.2521 95.8638 59.0433C96.1076 58.8345 96.3065 58.5785 96.4486 58.2907L95.9597 54.4737Z" fill="#FFCFC0"/>
<path d="M91.7221 52.6982C91.7221 52.6982 91.6706 52.6982 91.7221 52.7583C93.3089 53.5474 94.0552 55.1342 94.5355 56.7554C94.4529 56.5847 94.3343 56.4339 94.1878 56.3135C94.0413 56.1931 93.8705 56.1058 93.6871 56.0577C93.5037 56.0096 93.312 56.0018 93.1253 56.0349C92.9386 56.068 92.7613 56.1411 92.6056 56.2493C92.5627 56.2493 92.6056 56.3436 92.6056 56.3436C92.8998 56.2734 93.2086 56.2958 93.4896 56.4079C93.7706 56.52 94.0101 56.7163 94.1752 56.9698C94.4442 57.4004 94.6683 57.8574 94.8443 58.3336C94.9129 58.488 95.1874 58.428 95.1445 58.2564V58.2135C95.3503 56.1292 93.9522 53.0413 91.7221 52.6982Z" fill="#263238"/>
</svg>
