<svg width="125" height="132" viewBox="0 0 125 132" fill="none" xmlns="http://www.w3.org/2000/svg">
<path d="M19.0982 25.9814C3.77744 25.9814 3.75083 47.7652 19.0982 47.7652C34.4456 47.7652 34.4427 25.9814 19.0982 25.9814Z" fill="#EBEBEB"/>
<path d="M28.4124 38.9171C27.5934 42.663 24.4861 45.9152 19.0934 45.9152C6.35957 45.9152 6.38026 27.833 19.0934 27.833C19.1762 27.833 19.259 27.833 19.3417 27.833C7.37957 28.0518 7.43575 45.1731 19.5783 45.1731C24.5305 45.179 27.4811 42.3141 28.4124 38.9171Z" fill="#DBDBDB"/>
<path d="M19.1855 30.2159C19.2866 30.2135 19.3847 30.2503 19.4591 30.3187C19.5336 30.387 19.5786 30.4816 19.5847 30.5826V31.1739C20.6503 31.2428 21.675 31.6107 22.5412 32.2353C22.689 32.3417 22.7718 32.4304 22.7718 32.5841C22.7642 32.6908 22.715 32.7902 22.6349 32.861C22.5547 32.9318 22.4499 32.9683 22.3431 32.9626C22.2346 32.9664 22.1287 32.9283 22.0475 32.8561C21.3249 32.3056 20.4646 31.9649 19.561 31.8716V36.1172C22.08 36.6021 23.1414 37.4654 23.1414 38.9525C23.1414 40.5609 21.6631 41.6962 19.5935 41.7583V42.9409C19.5849 43.0404 19.5393 43.1331 19.4657 43.2007C19.3921 43.2682 19.2958 43.3057 19.1959 43.3057C19.096 43.3057 18.9997 43.2682 18.9261 43.2007C18.8524 43.1331 18.8068 43.0404 18.7982 42.9409V41.7583C17.4308 41.6705 16.126 41.1532 15.07 40.28C15.015 40.2473 14.9693 40.201 14.9373 40.1457C14.9052 40.0903 14.8878 40.0276 14.8867 39.9637C14.8956 39.8599 14.943 39.7631 15.0196 39.6926C15.0962 39.622 15.1965 39.5826 15.3006 39.5823C15.4089 39.5805 15.514 39.6183 15.5963 39.6887C16.4965 40.4852 17.63 40.9695 18.8278 41.0694V36.7529C16.3443 36.2532 15.3095 35.4195 15.3095 33.9027C15.3095 32.386 16.7671 31.2034 18.7894 31.1591V30.5678C18.799 30.47 18.8452 30.3795 18.9186 30.3143C18.992 30.2491 19.0873 30.214 19.1855 30.2159ZM18.8219 35.9812V31.842C17.2135 31.8746 16.161 32.7527 16.161 33.8436C16.1551 34.8873 16.6843 35.5111 18.8219 35.9812ZM19.5521 36.9036V41.096C21.2078 41.0664 22.2869 40.1854 22.2869 39.0264C22.2869 37.9828 21.7075 37.3442 19.5521 36.9036Z" fill="#DBDBDB"/>
<path d="M105.709 91.1381C91.9141 93.6127 95.5566 114.048 109.375 111.568C123.194 109.087 119.525 88.6576 105.709 91.1381Z" fill="#DBDBDB"/>
<path d="M107.005 90.9046C93.8571 93.2699 97.5025 113.7 110.671 111.334C123.839 108.969 120.17 88.5423 107.005 90.9046Z" fill="#EBEBEB"/>
<path d="M117.177 101.601C117.106 105.241 114.986 108.768 110.359 109.599C99.4201 111.559 96.4045 94.6001 107.317 92.6429C107.388 92.6271 107.459 92.6153 107.53 92.6074C97.3003 94.6563 100.233 110.704 110.652 108.836C114.901 108.073 116.949 104.93 117.177 101.601Z" fill="#DBDBDB"/>
<path d="M109.63 94.855C109.719 94.8689 109.8 94.9166 109.855 94.9881C109.91 95.0597 109.935 95.1496 109.926 95.2394L109.858 95.813C110.782 95.9962 111.63 96.4513 112.294 97.1197C112.349 97.1595 112.393 97.2128 112.421 97.2744C112.45 97.336 112.462 97.4039 112.457 97.4716C112.443 97.5679 112.392 97.655 112.314 97.7141C112.237 97.7733 112.139 97.7997 112.043 97.7879C111.995 97.7839 111.948 97.7703 111.905 97.748C111.863 97.7257 111.825 97.695 111.794 97.6578C111.245 97.0711 110.534 96.6597 109.751 96.4752L109.278 100.493C111.407 101.209 112.235 102.134 112.063 103.541C111.886 105.061 110.482 105.986 108.681 105.833L108.548 106.953C108.538 107.045 108.491 107.128 108.419 107.185C108.347 107.242 108.255 107.268 108.164 107.258C108.072 107.247 107.989 107.201 107.932 107.129C107.875 107.057 107.849 106.965 107.859 106.873L107.992 105.738C106.802 105.506 105.723 104.881 104.929 103.964C104.871 103.913 104.83 103.845 104.814 103.77C104.797 103.694 104.804 103.615 104.835 103.544C104.866 103.473 104.919 103.414 104.986 103.375C105.053 103.337 105.13 103.32 105.207 103.328C105.303 103.338 105.391 103.385 105.453 103.459C106.122 104.29 107.056 104.867 108.099 105.094L108.59 101.002C106.493 100.277 105.698 99.3815 105.867 97.9476C106.035 96.5137 107.428 95.541 109.184 95.7036L109.249 95.1595C109.261 95.0693 109.307 94.9872 109.378 94.9304C109.449 94.8736 109.54 94.8466 109.63 94.855ZM108.675 100.271L109.134 96.354C107.738 96.218 106.724 96.9453 106.603 97.9771C106.487 98.9528 106.875 99.6091 108.675 100.271ZM109.202 101.22L108.737 105.182C110.174 105.321 111.206 104.591 111.333 103.509C111.451 102.518 111.02 101.856 109.202 101.22Z" fill="#DBDBDB"/>
<path d="M109.709 84.2287L113.659 84.1459L115.604 84.1133C116.252 84.0986 116.893 84.1133 117.538 84.0956L117.408 84.2287L117.39 80.9203L117.538 81.0681L113.614 81.0504C112.31 81.0504 111.007 81.0149 109.7 81.0001L109.783 80.9203C109.783 81.4613 109.756 82.0053 109.741 82.5582L109.709 84.2287ZM109.709 84.2287L109.667 82.5907C109.667 82.0408 109.635 81.482 109.629 80.9203V80.8405H109.709C111.016 80.8257 112.319 80.7932 113.623 80.7902L117.538 80.7725H117.685V80.9203V84.2287V84.3617H117.552C116.893 84.3617 116.231 84.3617 115.575 84.344L113.605 84.3114L109.709 84.2287Z" fill="#EBEBEB"/>
<path d="M114.076 88.4005L118.026 88.3178L119.971 88.2852C120.619 88.2704 121.26 88.2852 121.905 88.2675L121.775 88.4005L121.76 85.0922L121.905 85.24L117.99 85.2223C116.687 85.2223 115.383 85.1868 114.076 85.172L114.159 85.0922C114.159 85.6332 114.132 86.1772 114.12 86.7301L114.076 88.4005ZM114.076 88.4005L114.035 86.7626C114.035 86.2127 114.002 85.6539 113.996 85.0922V85.0123H114.076C115.383 84.9976 116.687 84.965 117.99 84.9621L121.905 84.9443H122.056V85.0922L122.038 88.4005V88.5336H121.893C121.234 88.5336 120.574 88.5336 119.915 88.5158L117.946 88.4833L114.076 88.4005Z" fill="#EBEBEB"/>
<path d="M105.334 88.4005L109.284 88.3178L111.229 88.2852C111.874 88.2704 112.518 88.2852 113.163 88.2675L113.033 88.4005L113.021 85.0922L113.169 85.24L109.254 85.2223C107.95 85.2223 106.643 85.1868 105.34 85.172L105.419 85.0922C105.419 85.6332 105.396 86.1772 105.381 86.7301L105.334 88.4005ZM105.334 88.4005L105.292 86.7626C105.278 86.2127 105.26 85.6539 105.254 85.0922V85.0123H105.334C106.638 84.9976 107.944 84.965 109.248 84.9621L113.163 84.9443H113.31V85.0922L113.316 88.4005V88.5336H113.186C112.527 88.5336 111.865 88.5336 111.208 88.5158L109.239 88.4833L105.334 88.4005Z" fill="#EBEBEB"/>
<path d="M4.43825 88.4005L8.38524 88.3178L10.3306 88.2852C10.9781 88.2704 11.6226 88.2852 12.2672 88.2675L12.1341 88.4005L12.1193 85.0922L12.2672 85.24L8.36158 85.2223C7.05479 85.2223 5.75096 85.1868 4.44712 85.172L4.52695 85.0922C4.52695 85.6332 4.50034 86.1772 4.48851 86.7301L4.43825 88.4005ZM4.43825 88.4005L4.3939 86.7626C4.3939 86.2127 4.36138 85.6539 4.35547 85.0922V85.0123H4.43825C5.74209 84.9976 7.04592 84.965 8.35271 84.9621L12.2672 84.9443H12.415V85.0922L12.3973 88.4005V88.5336H12.2672C11.6079 88.5336 10.9456 88.5336 10.2863 88.5158L8.31723 88.4833L4.43825 88.4005Z" fill="#EBEBEB"/>
<path d="M4.43825 14.1232L8.38524 14.0404L10.3306 14.0049C10.9781 14.0049 11.6226 14.0049 12.2672 14.0049L12.1341 14.1379L12.1193 10.8296L12.2672 10.9744L8.36158 10.939C7.05479 10.939 5.75096 10.9064 4.44712 10.8917L4.52695 10.8118C4.52695 11.3529 4.50034 11.8969 4.48851 12.4468L4.43825 14.1232ZM4.43825 14.1232L4.3939 12.4852C4.3939 11.9324 4.36138 11.3736 4.35547 10.8148V10.735H4.43825C5.74209 10.735 7.04592 10.6877 8.35271 10.6877L12.2672 10.6699H12.415V10.8207L12.3973 14.1291V14.2592H12.2672C11.6079 14.2592 10.9456 14.2592 10.2863 14.2444L8.31723 14.1912L4.43825 14.1232Z" fill="#EBEBEB"/>
<path d="M0.0827828 18.295L4.02976 18.2123L5.97517 18.1768C6.62265 18.1768 7.26422 18.1768 7.9117 18.1768L7.77866 18.3098V15.0015L7.92649 15.1463L3.98542 15.1138C2.67863 15.1138 1.37479 15.0783 0.0827828 15.0783L0.16261 14.9985C0.16261 15.5395 0.136 16.0835 0.124174 16.6335L0.0827828 18.295ZM0.0827828 18.295L0.0384342 16.6571C0.0384342 16.1042 0.00591308 15.5455 0 14.9867V14.9068H0.0827828C1.38662 14.9068 2.69045 14.8595 3.99724 14.8595L7.9117 14.8418H8.05953V14.9926L8.04179 18.301V18.431H7.9117C7.24944 18.431 6.59013 18.431 5.93082 18.431L3.96176 18.3956L0.0827828 18.295Z" fill="#EBEBEB"/>
<path d="M114.076 14.1261L118.026 14.0433L119.971 14.0108C120.619 14.0108 121.26 14.0108 121.905 13.9931L121.775 14.1261L121.76 10.8177L121.905 10.9656L117.99 10.939C116.687 10.939 115.383 10.9064 114.076 10.8917L114.159 10.8118C114.159 11.3529 114.132 11.8969 114.12 12.4468L114.076 14.1261ZM114.076 14.1261L114.035 12.4882C114.035 11.9353 114.002 11.3795 113.996 10.8177V10.7379H114.076C115.383 10.7231 116.687 10.6936 117.99 10.6906L121.893 10.6699H122.044V10.8177L122.029 14.1261V14.2592H121.893C121.234 14.2592 120.574 14.2592 119.915 14.2592L117.946 14.2266L114.076 14.1261Z" fill="#EBEBEB"/>
<path d="M71.6955 36.3157L67.7485 36.3985L65.8031 36.431C65.1556 36.431 64.5111 36.431 63.8666 36.4488L63.9996 36.3157L64.0144 39.6241L63.8666 39.4763L67.781 39.497C69.0878 39.497 70.3917 39.5295 71.6955 39.5443L71.6157 39.6241C71.6157 39.083 71.6423 38.539 71.6541 37.9891L71.6955 36.3157ZM71.6955 36.3157L71.7398 37.9536C71.7398 38.5065 71.7724 39.0623 71.7783 39.6241V39.7039H71.6955C70.3917 39.7039 69.0878 39.7483 67.781 39.7512L63.8666 39.769H63.7188V39.6182L63.7365 36.3098V36.1768H63.8666C64.5259 36.1768 65.1881 36.1768 65.8475 36.1768L67.8165 36.2093L71.6955 36.3157Z" fill="#EBEBEB"/>
<path d="M67.3235 32.1438L63.3765 32.2266L61.4311 32.2591C60.7836 32.2591 60.1391 32.2591 59.4945 32.2769L59.6276 32.1438L59.6424 35.4522L59.4945 35.3044L63.409 35.3251C64.7128 35.3251 66.0196 35.3576 67.3235 35.3724L67.2436 35.4522C67.2436 34.9111 67.2673 34.3671 67.2821 33.8172L67.3235 32.1438ZM67.3235 32.1438L67.3648 33.7817C67.3796 34.3346 67.4003 34.8904 67.4033 35.4522V35.532H67.3205C66.0167 35.532 64.7099 35.5764 63.406 35.5793L59.4916 35.5971H59.3438V35.4492L59.3615 32.1409V32.0078H59.5064C60.1657 32.0078 60.8279 32.0078 61.4872 32.0078L63.4563 32.0403L67.3235 32.1438Z" fill="#EBEBEB"/>
<path d="M112.436 0H112.141V35.2508H112.436V0Z" fill="#C7C7C7"/>
<path d="M100.047 47.0476L101.031 49.2118H123.545L124.527 47.0476L114.942 40.4131H109.632L100.047 47.0476Z" fill="#EBEBEB"/>
<path d="M108.969 34.0205L109.634 40.4126H114.944L115.609 34.0205H108.969Z" fill="#DBDBDB"/>
<path d="M100.055 47.0498L101.039 49.214H123.553L124.535 47.0498H100.055Z" fill="#DBDBDB"/>
<path d="M86.1589 0H85.8633V28.2675H86.1589V0Z" fill="#C7C7C7"/>
<path d="M73.7695 40.0671L74.7541 42.2313H97.2681L98.2497 40.0671L88.6646 33.4326H83.3546L73.7695 40.0671Z" fill="#EBEBEB"/>
<path d="M82.6875 27.04L83.3527 33.4321H88.6627L89.3279 27.04H82.6875Z" fill="#DBDBDB"/>
<path d="M73.7695 40.0674L74.7541 42.2316H97.2681L98.2497 40.0674H73.7695Z" fill="#DBDBDB"/>
<path d="M0.464844 118.557L15.5964 118.486L30.725 118.459L60.9852 118.409L91.2454 118.459L106.374 118.483L121.503 118.557L106.374 118.628L91.2454 118.655L60.9852 118.705L30.725 118.655L15.5964 118.628L0.464844 118.557Z" fill="#263238"/>
<path d="M60.9913 131.641C91.1615 131.641 115.619 129.831 115.619 127.599C115.619 125.367 91.1615 123.558 60.9913 123.558C30.8211 123.558 6.36328 125.367 6.36328 127.599C6.36328 129.831 30.8211 131.641 60.9913 131.641Z" fill="#EBEBEB"/>
<path d="M72.8119 94.9046V94.946C72.8119 94.946 72.8119 94.9638 72.8119 94.9756C72.8119 94.9874 72.8119 95.0229 72.7971 95.0554V95.1086C72.7877 95.1466 72.7808 95.1851 72.7764 95.2239C72.7764 95.2506 72.7764 95.2772 72.7616 95.3067C72.7468 95.3363 72.7409 95.4309 72.7261 95.5019C72.7113 95.5728 72.6818 95.7413 72.6581 95.8833L72.5251 96.6047C72.5103 96.6815 72.4955 96.7643 72.4807 96.85C72.4659 96.9358 72.4393 97.0807 72.4157 97.2019C72.392 97.3231 72.3684 97.4739 72.3418 97.6188C72.324 97.7193 72.3033 97.8228 72.2856 97.9292C72.2294 98.2455 72.1703 98.5826 72.1023 98.9433C72.1009 98.9521 72.1009 98.9611 72.1023 98.9699C72.0313 99.372 71.9545 99.8036 71.8717 100.256C71.851 100.374 71.8273 100.493 71.8037 100.611C71.78 100.729 71.7564 100.859 71.7357 100.983C71.7357 101.06 71.7091 101.14 71.6913 101.22C71.579 101.849 71.4578 102.515 71.3277 103.218C71.2833 103.455 71.2419 103.694 71.1976 103.937C71.1119 104.41 71.0232 104.895 70.9315 105.394C70.9079 105.51 70.8872 105.625 70.8694 105.743C70.7354 106.467 70.5984 107.22 70.4585 108.002C70.4407 108.082 70.4289 108.162 70.4141 108.242C70.3461 108.608 70.2781 108.978 70.2131 109.356C70.2043 109.385 70.1984 109.415 70.1953 109.445L70.0978 109.983C69.9677 110.704 69.8336 111.443 69.6957 112.197C69.6602 112.384 69.6247 112.573 69.5922 112.765C69.5242 113.147 69.4532 113.531 69.3823 113.918C69.2936 114.4 69.2049 114.885 69.1162 115.379C69.0275 115.872 68.9388 116.366 68.8471 116.857C68.7998 117.108 68.7555 117.36 68.7082 117.611C68.655 117.907 68.5988 118.202 68.5456 118.519H42.9922C46.1439 105.424 48.8018 94.8662 48.8018 94.8662L72.8119 94.9046Z" fill="#263238"/>
<path d="M68.9525 97.8618C67.6733 104.76 66.3803 111.659 65.0735 118.558H64.7188C66.0758 111.642 67.4742 104.739 68.8579 97.8322C68.8786 97.7672 68.9703 97.7938 68.9525 97.8618Z" fill="#263238"/>
<path d="M72.813 94.9053C72.813 94.9053 72.813 94.9201 72.813 94.9467C72.813 94.9733 72.813 94.9644 72.813 94.9762C72.813 94.9881 72.813 95.0235 72.7982 95.0561V95.1093C72.7888 95.1472 72.7819 95.1857 72.7775 95.2246C72.7775 95.2512 72.7775 95.2778 72.7627 95.3074C72.7479 95.3369 72.7391 95.4315 72.7272 95.5025C72.7154 95.5734 72.6829 95.742 72.6592 95.8839C72.6179 96.0938 72.5765 96.3333 72.5262 96.6053C72.5114 96.6822 72.4966 96.7649 72.4819 96.8507C72.4671 96.9364 72.4405 97.0813 72.4168 97.2025C72.3932 97.3237 72.3695 97.4745 72.3429 97.6194C72.3252 97.7199 72.3045 97.8234 72.2867 97.9298C72.2276 98.2462 72.1685 98.5832 72.1034 98.9439C72.102 98.9527 72.102 98.9617 72.1034 98.9705C72.0295 99.3726 71.9526 99.7983 71.8698 100.251C71.8462 100.369 71.8255 100.49 71.8048 100.611C71.7841 100.733 71.7575 100.86 71.7368 100.984C71.7191 101.061 71.7072 101.141 71.6925 101.22C71.5772 101.847 71.4559 102.515 71.3288 103.219C71.2845 103.456 71.2431 103.695 71.1987 103.938C71.11 104.411 71.0213 104.895 70.9326 105.395C70.909 105.51 70.8883 105.626 70.8705 105.744C70.7345 106.471 70.5976 107.224 70.4596 108.003C70.4418 108.083 70.43 108.162 70.4152 108.242C70.3472 108.609 70.2792 108.978 70.2142 109.357C70.2054 109.386 70.1995 109.415 70.1964 109.446L70.0989 109.984C69.9649 110.705 69.8308 111.443 69.6968 112.198C69.6613 112.384 69.6258 112.574 69.5933 112.766C69.5224 113.147 69.4544 113.531 69.3834 113.919C69.2947 114.401 69.206 114.886 69.1173 115.379C69.0286 115.873 68.937 116.367 68.8483 116.858C68.801 117.109 68.7566 117.36 68.7093 117.612C68.6561 117.907 68.5999 118.203 68.5437 118.519H55.7183L54.6923 108.018L54.6569 107.645L54.6155 107.243L54.4144 105.188L54.24 103.414L53.4062 94.9053H72.813Z" fill="#455A64"/>
<path d="M87.3295 118.557H59.7716C59.7243 116.021 59.674 113.567 59.6119 111.252C59.6119 111.196 59.6119 111.139 59.6119 111.083C59.6119 111.083 56.3952 109.179 54.6627 107.686C54.3682 107.444 54.097 107.175 53.8526 106.882C52.7439 105.469 51.6322 100.035 49.332 94.9229H83.0366C88.5121 105.549 88.1278 114.087 87.3295 118.557Z" fill="#263238"/>
<path d="M53.0502 106.506C54.6882 107.177 56.1635 108.209 57.6181 109.206C59.1318 110.237 60.5185 111.432 61.9731 112.541C62.0293 112.585 61.9731 112.677 61.9139 112.635C60.3795 111.657 58.7741 110.796 57.2574 109.788C55.7791 108.809 54.2536 107.857 52.9763 106.625C52.9261 106.577 52.9822 106.477 53.0502 106.506Z" fill="#455A64"/>
<path d="M52.8431 97.0251C53.0382 98.0747 53.2925 99.1154 53.5201 100.159C53.73 101.138 53.8867 102.134 54.1469 103.116C54.3581 104.052 54.8343 104.908 55.5187 105.581C55.9031 105.939 56.3259 106.255 56.7339 106.581C56.9556 106.758 57.1921 106.927 57.4227 107.107C57.3932 106.968 57.3695 106.811 57.3429 106.684L57.1389 105.502C56.9911 104.615 56.8433 103.728 56.7132 102.841C56.4471 101.099 56.2046 99.3401 55.8262 97.6164C55.8251 97.6034 55.8285 97.5903 55.836 97.5795C55.8435 97.5687 55.8545 97.5609 55.8671 97.5574C55.8798 97.5539 55.8933 97.5549 55.9052 97.5603C55.9172 97.5657 55.9269 97.5751 55.9326 97.5869C56.3673 99.2958 56.8462 100.987 57.2247 102.711C57.4109 103.553 58.0702 107.737 58.1116 108.032C58.153 108.328 58.1678 108.644 58.1796 108.949C58.2195 109.26 58.2195 109.575 58.1796 109.886C58.1738 109.9 58.1639 109.912 58.1513 109.92C58.1387 109.929 58.1238 109.933 58.1087 109.933C58.0935 109.933 58.0786 109.929 58.066 109.92C58.0534 109.912 58.0435 109.9 58.0377 109.886C57.9114 109.597 57.8229 109.293 57.7746 108.981C57.6977 108.686 57.6297 108.39 57.5765 108.077C57.5558 107.97 57.541 107.858 57.5262 107.746C57.1153 107.494 56.7339 107.154 56.3436 106.888C55.9533 106.622 55.5069 106.297 55.1166 105.966C54.3916 105.355 53.869 104.538 53.6177 103.624C53.3654 102.641 53.2012 101.638 53.1269 100.626C52.9938 99.4436 52.8963 98.261 52.7307 97.0783C52.7248 96.9749 52.8283 96.9542 52.8431 97.0251Z" fill="#455A64"/>
<path d="M80.8862 104.333C80.4457 104.106 78.7428 104.511 75.6384 103.981C75.0313 103.903 74.4548 103.669 73.965 103.301C73.1579 102.642 72.5458 101.581 72.0551 100.673C71.4722 99.6507 71.023 98.5577 70.7187 97.4209C70.7039 97.3499 70.6064 97.3854 70.6182 97.4504C70.7335 98.092 70.7956 98.7336 70.9671 99.3692C71.135 99.9656 71.3495 100.548 71.6086 101.111C72.0758 102.163 72.6227 103.293 73.5688 104.005C74.5593 104.75 75.934 104.892 77.1403 104.975C77.8321 105.022 80.5551 104.948 80.9217 104.561C80.9356 104.544 80.9458 104.525 80.9516 104.504C80.9574 104.483 80.9587 104.461 80.9553 104.439C80.9519 104.418 80.9441 104.397 80.9321 104.379C80.9202 104.36 80.9046 104.345 80.8862 104.333Z" fill="#455A64"/>
<path d="M55.239 56.9903C52.4007 61.1856 32.6865 86.4522 29.8334 86.9696C22.5633 88.2794 15.9051 85.787 18.6518 79.525C21.8508 72.2342 39.6432 57.7797 51.499 51.3788C59.9901 46.7932 58.0299 52.8482 55.239 56.9903Z" fill="#FFCFC0"/>
<path d="M45.6151 70.9211L30.1523 63.8254C30.1523 63.8254 44.459 53.8796 51.1438 50.8521C58.1271 47.6974 60.9506 49.5423 54.9873 57.7497C49.1363 65.8269 45.6151 70.9211 45.6151 70.9211Z" fill="#455A64"/>
<path d="M38.3841 58.3203C38.3514 58.3393 38.3198 58.36 38.2895 58.3824L50.3196 64.2541L50.3788 64.1713L38.3841 58.3203ZM35.058 60.5052C35.0263 60.5232 34.9957 60.5429 34.9663 60.5643L48.3151 67.0687L48.3713 66.9889L35.058 60.5052ZM31.7792 62.7108L31.6875 62.7729L46.3253 69.9159C46.3401 69.8893 46.3608 69.8627 46.3786 69.836L31.7792 62.7108Z" fill="white"/>
<path d="M45.8048 67.7814C45.4497 67.5789 45.0846 67.3944 44.7109 67.2285L43.5845 66.6756C42.8246 66.3031 42.0589 65.9424 41.2872 65.5876C39.7528 64.8751 38.2183 64.1567 36.6721 63.4737C36.2463 63.2845 35.8176 63.0953 35.3889 62.9208C34.9602 62.7464 34.4694 62.5779 34.0171 62.3916C33.9905 62.3916 33.9757 62.4212 34.0023 62.4359C34.3778 62.6222 34.7385 62.841 35.111 63.0273C35.4835 63.2135 35.8827 63.4087 36.27 63.5949C37.0367 63.9556 37.8054 64.3124 38.5761 64.6652C40.0928 65.3541 41.6095 66.0488 43.141 66.7052C43.5697 66.8915 43.9984 67.0689 44.4271 67.2522C44.8558 67.4355 45.314 67.6661 45.7841 67.8139C45.8078 67.8287 45.8285 67.7932 45.8048 67.7814Z" fill="#263238"/>
<path d="M55.0111 57.7408C49.1365 65.8269 45.6152 70.921 45.6152 70.921L40.6719 68.6475L57.6188 49.7256C58.9196 50.6155 58.3047 53.2173 55.0111 57.7408Z" fill="#263238"/>
<path d="M46.2677 100.569H86.1514C86.1514 100.569 80.058 62.5128 65.3551 49.4981C63.5398 47.8898 59.442 48.2564 56.7811 49.5839C55.8262 50.0599 52.3995 54.8524 51.4209 59.3878C50.4423 63.9231 46.1583 100.433 46.2677 100.569Z" fill="#455A64"/>
<path d="M82.526 84.3207L64.8281 49.123C65.0162 49.2294 65.1926 49.3553 65.3544 49.4985C73.6977 56.884 79.2679 72.3349 82.526 84.3207Z" fill="#263238"/>
<path d="M63.6496 48.6493H59.5932C59.7824 48.6138 59.9687 48.5813 60.1579 48.5518H63.1706C63.3302 48.5784 63.484 48.6109 63.6496 48.6493ZM67.8183 51.9725H54.7267C54.706 52.005 54.6853 52.0375 54.6617 52.07H67.8863L67.8183 51.9725ZM70.4496 55.3932H52.802L52.7577 55.4908H70.5146L70.4496 55.3932ZM72.602 58.8139H51.5484C51.5484 58.8464 51.5307 58.879 51.5218 58.9115H72.6611L72.602 58.8139ZM74.4468 62.2346H50.9364C50.9364 62.2672 50.9364 62.2997 50.9216 62.3322H74.4971C74.4794 62.2997 74.4616 62.2672 74.4468 62.2346ZM76.067 65.6553H50.4575C50.4575 65.6879 50.4575 65.7204 50.4575 65.7529H76.1173C76.0936 65.7204 76.067 65.6879 76.067 65.6553ZM77.5128 69.079H50.0169C50.0169 69.1115 50.0169 69.1441 50.0169 69.1736H77.5453C77.5453 69.1411 77.5216 69.1086 77.5098 69.079H77.5128ZM78.8166 72.4997H49.5646C49.5646 72.5323 49.5646 72.5618 49.5646 72.5943H78.8462C78.8373 72.5618 78.8255 72.5323 78.8137 72.4997H78.8166ZM79.9992 75.9205H49.1359C49.1359 75.953 49.1359 75.9855 49.1359 76.018H80.0347C80.0258 75.9825 80.017 75.953 80.0051 75.9205H79.9992ZM81.0931 79.3412H48.7131C48.7131 79.3737 48.7131 79.4062 48.7131 79.4387H81.1257C81.1168 79.4062 81.0931 79.3737 81.0931 79.3412ZM82.0984 82.7619H48.2992C48.2992 82.7944 48.2992 82.8269 48.2992 82.8595H82.1279L82.0984 82.7619ZM83.0267 86.1826H47.8882C47.8882 86.2151 47.8882 86.2477 47.8882 86.2802H83.0711C83.0445 86.2477 83.0356 86.2151 83.0297 86.1826H83.0267ZM83.8812 89.6033H47.4832C47.4832 89.6359 47.4832 89.6684 47.4832 89.7009H83.9078C83.8989 89.6684 83.893 89.6359 83.8841 89.6033H83.8812ZM84.6676 93.0241H47.0929C47.0929 93.0566 47.0929 93.0891 47.0929 93.1216H84.6913C84.6853 93.0891 84.6794 93.0566 84.6706 93.0241H84.6676ZM85.389 96.4448H46.6938C46.6938 96.4773 46.6938 96.5098 46.6938 96.5423H85.4245L85.389 96.4448ZM86.0335 99.8655H46.3242V99.963H86.0601C86.0483 99.9305 86.0424 99.898 86.0365 99.8655H86.0335Z" fill="white"/>
<path d="M72.2722 50.4557C82.3245 54.1721 107.077 64.0351 108.342 69.8062C109.264 74.0489 90.3781 76.6861 89.84 76.0002C89.4172 75.4562 71.879 61.794 65.6969 54.4411C60.3219 48.055 69.0585 49.2671 72.2722 50.4557Z" fill="#FFCFC0"/>
<path d="M79.8699 67.8472L93.1122 58.6819C93.1122 58.6819 77.2888 51.3852 70.1636 49.5758C62.7367 47.6895 60.2799 49.9956 67.5855 57.0352C74.7817 63.9594 79.8699 67.8472 79.8699 67.8472Z" fill="#455A64"/>
<path d="M83.3237 54.3828L73.0586 62.1053C73.0852 62.126 73.1059 62.1496 73.1325 62.1674L83.4301 54.4242L83.3237 54.3828ZM86.9543 55.932L75.6899 64.4055L75.7638 64.4705L87.0608 55.9764C87.0253 55.9616 87.0046 55.9439 86.9543 55.932ZM90.5525 57.5079L78.3892 66.6732C78.4135 66.6954 78.4392 66.7162 78.4661 66.7352L90.653 57.57C90.6179 57.5519 90.5843 57.5311 90.5525 57.5079Z" fill="white"/>
<path d="M89.4591 58.0523C89.1044 58.2475 88.7703 58.4928 88.4332 58.7205C88.0962 58.9482 87.7414 59.1876 87.3925 59.4182C86.6889 59.8883 85.9911 60.3732 85.2963 60.8581C83.9127 61.8308 82.5201 62.7976 81.1572 63.7939C80.7817 64.0659 80.4062 64.3409 80.0366 64.6247C79.6671 64.9085 79.2798 65.2485 78.8925 65.5471C78.8688 65.5649 78.8925 65.5974 78.922 65.5826C79.2709 65.352 79.6434 65.151 79.9953 64.9204C80.3471 64.6898 80.7137 64.4473 81.0685 64.2019C81.7662 63.723 82.4581 63.2381 83.1381 62.7473C84.4951 61.7805 85.8581 60.8167 87.1944 59.8203L88.312 58.9836C88.7023 58.688 89.1162 58.416 89.4798 58.0967C89.5035 58.073 89.4857 58.0375 89.4591 58.0523Z" fill="#263238"/>
<path d="M78.6439 66.7971C78.2714 66.4837 77.9255 66.1408 77.5648 65.8156C77.2041 65.4903 76.8316 65.1681 76.4679 64.8429C75.7554 64.2102 75.034 63.5863 74.3185 62.9536C72.8728 61.6705 71.427 60.3844 69.9961 59.0865C69.183 58.3473 68.3847 57.5875 67.5451 56.8779L67.5273 56.8957C68.1867 57.6082 68.8962 58.2793 69.5969 58.9475C69.4491 58.8559 69.3013 58.7612 69.1594 58.6519C69.0174 58.5425 68.846 58.4272 68.6952 58.3059C68.5444 58.1847 68.3995 58.0487 68.228 57.9364C68.2014 57.9186 68.1778 57.9541 68.1955 57.9748C68.4613 58.2887 68.7745 58.559 69.1239 58.776C69.2954 58.8913 69.4757 58.9948 69.656 59.0924L69.8541 59.184C70.4809 59.7753 71.1117 60.3666 71.7463 60.958C73.1655 62.2667 74.6132 63.5479 76.0895 64.8015C76.4975 65.1444 76.9085 65.4815 77.3224 65.8185C77.7363 66.1556 78.1916 66.4808 78.6144 66.8267C78.6351 66.8503 78.6646 66.8178 78.6439 66.7971Z" fill="#263238"/>
<path d="M58.0505 56.8898C60.395 57.1855 63.9635 53.2858 65.2112 50.2908C65.2969 50.0839 64.7855 48.0675 64.2769 45.587C63.9813 44.0821 63.6856 42.3969 63.5141 40.8417C63.4816 40.5224 54 44.2358 54 44.2358C54 44.2358 55.3009 47.3964 55.5699 50.1105C55.5891 50.3259 55.5891 50.5426 55.5699 50.758C55.5699 50.7875 55.5699 50.823 55.5699 50.8644C55.496 52.0973 55.7858 56.5971 58.0505 56.8898Z" fill="#FFCFC0"/>
<path d="M56.5761 50.8111C56.2421 50.8569 55.9049 50.8747 55.5679 50.8643C55.5679 50.8229 55.5679 50.7875 55.5679 50.7549C55.59 50.5407 55.59 50.3247 55.5679 50.1104C55.3018 47.3993 54.0039 44.2358 54.0039 44.2358C54.0039 44.2358 61.6909 41.2201 63.2461 40.8564C63.1337 42.6865 62.3177 50.0809 56.5761 50.8111Z" fill="#263238"/>
<path d="M62.4651 28.7759C64.4312 31.836 65.3862 42.0124 63.6123 44.8388C61.0401 48.9396 55.47 50.8317 51.6442 47.4288C47.9337 44.1322 46.9137 30.8485 49.0306 28.1403C52.1172 24.149 59.5559 24.2436 62.4651 28.7759Z" fill="#FFCFC0"/>
<path d="M56.1477 37.6603C56.1477 37.6337 56.2069 37.6899 56.2069 37.7165C56.2542 38.4053 56.4227 39.1947 57.0643 39.3485C57.0849 39.3485 57.0849 39.3899 57.0643 39.3869C56.2956 39.3574 56.0827 38.3196 56.1477 37.6603Z" fill="#263238"/>
<path d="M56.6881 36.8859C57.782 36.6937 58.0865 38.8934 57.0754 39.0737C56.0643 39.2541 55.7716 37.0485 56.6881 36.8859Z" fill="#263238"/>
<path d="M51.9538 38.1399C51.9538 38.1162 51.9035 38.1812 51.9095 38.2079C52.0248 38.8879 52.0425 39.6861 51.4571 39.9966C51.4394 39.9966 51.4571 40.0409 51.4571 40.032C52.2081 39.831 52.1726 38.7755 51.9538 38.1399Z" fill="#263238"/>
<path d="M51.2433 37.5216C50.1376 37.5896 50.3563 39.8011 51.3823 39.739C52.4082 39.6769 52.1746 37.4654 51.2433 37.5216Z" fill="#263238"/>
<path d="M57.4184 35.7746C57.1199 35.7284 56.8238 35.6673 56.5314 35.5913C56.2046 35.5726 55.8929 35.4469 55.6445 35.2336C55.5812 35.1514 55.5469 35.0506 55.5469 34.9468C55.5469 34.8431 55.5812 34.7422 55.6445 34.66C55.9401 34.32 56.3748 34.3082 56.7916 34.3644C57.2121 34.4212 57.5966 34.6319 57.8708 34.9557C57.9352 35.0334 57.9747 35.1288 57.9841 35.2293C57.9935 35.3299 57.9725 35.4309 57.9236 35.5193C57.8748 35.6077 57.8005 35.6793 57.7104 35.7249C57.6203 35.7704 57.5185 35.7878 57.4184 35.7746Z" fill="#263238"/>
<path d="M50.2432 36.531C50.5303 36.4302 50.8116 36.3138 51.0858 36.1821C51.3995 36.1011 51.6779 35.9194 51.8782 35.6647C51.9254 35.5721 51.9406 35.4664 51.9213 35.3642C51.902 35.262 51.8494 35.1691 51.7717 35.1C51.4229 34.8221 50.9883 34.8931 50.5891 35.0439C50.1866 35.1802 49.8493 35.4616 49.643 35.8333C49.6009 35.9213 49.5853 36.0197 49.5981 36.1164C49.611 36.2132 49.6517 36.3041 49.7153 36.3781C49.779 36.4521 49.8628 36.5059 49.9565 36.5331C50.0503 36.5602 50.1499 36.5595 50.2432 36.531Z" fill="#263238"/>
<path d="M57.5732 43.6862C57.4343 43.8695 57.3012 44.1119 57.0558 44.1652C56.8016 44.1957 56.5437 44.1725 56.299 44.0972C56.2941 44.0959 56.2889 44.0963 56.2843 44.0982C56.2796 44.1001 56.2757 44.1034 56.273 44.1077C56.2704 44.112 56.2692 44.117 56.2696 44.122C56.27 44.127 56.272 44.1318 56.2753 44.1356C56.3915 44.2559 56.5378 44.3427 56.6991 44.3869C56.8604 44.4312 57.0306 44.4311 57.1918 44.3869C57.326 44.3309 57.4405 44.2364 57.521 44.1154C57.6015 43.9944 57.6443 43.8522 57.6442 43.7069C57.6501 43.6685 57.5939 43.6596 57.5732 43.6862Z" fill="#263238"/>
<path d="M56.5736 41.743C56.4384 42.0366 56.2438 42.2991 56.0021 42.5138C55.7604 42.7286 55.4768 42.8909 55.1693 42.9907C54.9013 43.0821 54.6214 43.1339 54.3385 43.1444C54.2844 43.1488 54.23 43.1488 54.1759 43.1444H54.0251C53.9877 43.1423 53.952 43.1282 53.9233 43.1042C53.8945 43.0803 53.8743 43.0477 53.8654 43.0114C53.8626 42.9878 53.8626 42.964 53.8654 42.9404V42.8813C53.7797 42.358 53.7206 41.5538 53.7206 41.5538C53.5402 41.675 52.6237 42.2515 52.603 41.9736C52.4226 39.6852 52.2246 37.1397 52.5291 34.8247C52.5322 34.8102 52.5403 34.7972 52.5518 34.7878C52.5634 34.7785 52.5778 34.7734 52.5926 34.7734C52.6075 34.7734 52.6219 34.7785 52.6335 34.7878C52.645 34.7972 52.6531 34.8102 52.6562 34.8247C52.9134 37.0184 52.7863 39.2418 53.011 41.4473C53.3368 41.2388 53.6901 41.0766 54.0606 40.9654C54.1404 40.9654 54.1493 42.5235 54.2054 42.7541C54.2047 42.762 54.2047 42.7699 54.2054 42.7778C55.0924 42.7778 55.731 42.4112 56.5056 41.7016C56.5529 41.6454 56.6091 41.6868 56.5736 41.743Z" fill="#263238"/>
<path d="M54.6094 42.8372C54.9499 43.1712 55.3703 43.4124 55.8304 43.5379C56.0834 43.5989 56.349 43.5793 56.5903 43.4818C57.1165 43.263 57.0603 42.7604 56.9007 42.3465C56.8137 42.1273 56.7016 41.9189 56.5666 41.7256C56.0493 42.2953 55.3636 42.6848 54.6094 42.8372Z" fill="#263238"/>
<path d="M55.8291 43.5382C56.082 43.5991 56.3477 43.5795 56.5889 43.482C57.1152 43.2632 57.059 42.7606 56.8994 42.3467C56.3228 42.4886 55.8025 42.9646 55.8291 43.5382Z" fill="#FF98B9"/>
<path d="M63.9607 36.5192C62.1691 36.9775 60.9598 32.6284 60.9598 32.6284C60.9598 32.6284 58.1245 33.0098 55.6381 29.7517C55.6381 29.7517 52.8855 33.0246 49.8225 33.4296C45.0211 34.0594 43.2472 28.1315 44.5599 26.3872C46.4196 23.9125 51.4989 25.0153 51.4989 25.0153C51.4989 25.0153 57.412 21.1275 60.7381 24.8911C60.7381 24.8911 63.671 24.0899 64.895 27.2179C66.119 30.346 65.2971 36.1763 63.9607 36.5192Z" fill="#263238"/>
<path d="M61.753 32.9334C60.3777 33.1272 58.9769 32.8589 57.7705 32.1706C56.5377 31.4255 55.5088 30.0064 55.4644 28.534C55.4644 28.4542 55.3314 28.466 55.3403 28.534C55.4999 30.1365 56.0824 31.6473 57.4424 32.6052C58.0638 33.0533 58.7919 33.3306 59.554 33.4094C60.3161 33.4883 61.0855 33.3659 61.7855 33.0546C61.795 33.0458 61.8019 33.0346 61.8055 33.0222C61.809 33.0098 61.8092 32.9966 61.8058 32.9842C61.8025 32.9717 61.7958 32.9604 61.7865 32.9514C61.7772 32.9425 61.7656 32.9362 61.753 32.9334Z" fill="#263238"/>
<path d="M64.5346 25.2721C63.2781 24.4265 61.8589 24.6808 60.5255 25.1686C60.4516 25.1952 60.4989 25.3194 60.5699 25.2839C61.8471 24.6926 63.4673 25.1627 64.508 26.029C65.5487 26.8952 65.803 28.2641 65.9064 29.5266C66.1175 31.9637 65.4181 34.3926 63.9433 36.3443C63.9196 36.3739 63.9669 36.4123 63.9906 36.3828C64.8555 35.3516 65.5008 34.1548 65.8872 32.8656C66.2735 31.5764 66.3928 30.2219 66.2376 28.885C66.0691 27.5752 65.6817 26.0526 64.5346 25.2721Z" fill="#263238"/>
<path d="M51.7419 25.1722C50.8789 24.4349 49.7752 24.0404 48.6405 24.0635C47.2727 24.127 45.9767 24.6935 45.001 25.6541C44.6185 26.0517 44.3477 26.5432 44.2159 27.0788C44.0841 27.6145 44.0958 28.1755 44.25 28.7052C44.5634 29.9588 45.5095 30.9285 46.5118 31.6618C46.5144 31.6645 46.5176 31.6667 46.5211 31.6682C46.5247 31.6696 46.5285 31.6702 46.5323 31.6701C46.5361 31.6699 46.5399 31.6689 46.5433 31.6671C46.5467 31.6654 46.5497 31.6629 46.552 31.6599C46.5544 31.6569 46.5561 31.6534 46.557 31.6497C46.5579 31.646 46.5579 31.6421 46.5572 31.6384C46.5565 31.6346 46.5549 31.6311 46.5527 31.628C46.5505 31.6249 46.5476 31.6223 46.5443 31.6204C45.6928 30.8901 44.93 29.9972 44.6432 28.8767C44.49 28.3551 44.4873 27.8009 44.6353 27.2778C44.7834 26.7547 45.0761 26.2841 45.4799 25.9202C47.0735 24.4951 49.8408 23.7589 51.665 25.2579C51.6766 25.2621 51.6893 25.2628 51.7013 25.2597C51.7133 25.2567 51.7241 25.2502 51.7324 25.241C51.7406 25.2318 51.746 25.2203 51.7476 25.208C51.7493 25.1958 51.7473 25.1833 51.7419 25.1722Z" fill="#263238"/>
<path d="M62.6797 37.5837C62.6797 37.5837 64.0604 33.8643 65.6924 34.2782C67.3244 34.6922 66.8573 39.6828 65.3435 40.7412C65.158 40.8888 64.9449 40.9976 64.7166 41.0614C64.4883 41.1251 64.2496 41.1425 64.0145 41.1124C63.7795 41.0824 63.5528 41.0056 63.3479 40.8865C63.143 40.7674 62.964 40.6084 62.8216 40.419L62.6797 37.5837Z" fill="#FFCFC0"/>
<path d="M65.5264 35.7058C65.5317 35.7045 65.5372 35.705 65.5422 35.7072C65.5471 35.7094 65.5511 35.7133 65.5535 35.7182C65.556 35.723 65.5566 35.7285 65.5555 35.7338C65.5543 35.7391 65.5514 35.7439 65.5471 35.7472C64.4946 36.5307 64.1605 37.7813 64.0215 39.0231C64.2581 38.4968 64.672 38.1361 65.3609 38.3993C65.3677 38.4034 65.373 38.4095 65.3762 38.4168C65.3793 38.4241 65.3802 38.4322 65.3786 38.44C65.3769 38.4477 65.3729 38.4548 65.3671 38.4602C65.3613 38.4657 65.3539 38.4691 65.3461 38.4702C65.1226 38.4584 64.9009 38.516 64.7114 38.6351C64.5219 38.7542 64.3739 38.9289 64.2876 39.1354C64.1458 39.483 64.0417 39.8448 63.9772 40.2146C63.9506 40.3328 63.7466 40.3269 63.7525 40.1939C63.7541 40.1841 63.7541 40.1741 63.7525 40.1643C63.3356 38.6742 63.9447 36.2735 65.5264 35.7058Z" fill="#263238"/>
<path d="M103.669 94.405C100.858 104.215 92.8131 112.186 91.1663 113.229C89.7649 114.116 89.0346 114.572 89.0346 114.572C86.5511 116.227 84.8422 115.778 84.8422 115.778C84.8422 115.778 82.5332 118.536 80.6351 117.416C78.5034 116.171 82.1606 112.543 82.953 109.318C84.7653 101.926 85.2768 90.9193 85.5873 88.7344L103.669 94.405Z" fill="#FFCFC0"/>
<path d="M90.2958 102.909C89.7193 105.073 89.2078 107.213 88.3415 109.289C87.3895 111.565 86.0946 113.596 84.8262 115.696C84.8202 115.708 84.8187 115.722 84.8221 115.736C84.8255 115.749 84.8336 115.761 84.8449 115.769C84.8562 115.778 84.87 115.781 84.8839 115.78C84.8978 115.779 84.9109 115.773 84.9208 115.764C87.8212 112.325 89.9322 107.405 90.485 102.953C90.4998 102.844 90.3254 102.802 90.2958 102.909Z" fill="#263238"/>
<path d="M94.9152 103.355C94.2381 105.424 93.023 109.067 88.9785 114.53C88.9637 114.548 88.9784 114.575 89.008 114.557C92.0391 111.488 94.1562 107.636 95.1221 103.432C95.1547 103.299 94.9625 103.219 94.9152 103.355Z" fill="#263238"/>
<path d="M84.5752 100.277C84.4303 99.2212 83.8745 99.2892 82.9165 100.924C81.9586 102.559 79.5579 109.841 77.0892 108.789C74.6205 107.736 78.1565 97.5094 79.96 94.9106C81.7635 92.3118 85.5774 88.7344 85.5774 88.7344C85.2995 90.8631 85.0896 96.0873 84.5752 100.277Z" fill="#FFCFC0"/>
<path d="M108.338 69.8067C110.31 76.0007 105.106 89.8137 103.67 94.4052C103.043 96.4067 84.7654 91.0613 85.4484 88.9237C86.8498 84.551 90.4745 76.592 89.8359 76.0007C89.3303 75.5306 106.543 64.1804 108.338 69.8067Z" fill="#FFCFC0"/>
<path d="M94.8465 72.2754C94.604 72.37 94.3616 72.444 94.1251 72.5711C93.8885 72.6982 93.6373 72.7987 93.4037 72.9259C92.9509 73.1798 92.5197 73.4705 92.1146 73.7951C91.7058 74.1119 91.3186 74.4556 90.9557 74.824C90.7664 75.0132 90.5831 75.2083 90.4087 75.4153C90.2317 75.605 90.0769 75.8143 89.9475 76.0391C89.941 76.0498 89.9375 76.0621 89.9375 76.0746C89.9375 76.0871 89.941 76.0994 89.9475 76.1101C89.9475 76.1101 89.9475 76.1308 89.9652 76.1337C90.0421 76.1662 90.0864 76.1012 90.1426 76.0539L90.4205 75.7967C90.6157 75.6163 90.8049 75.4241 91.0118 75.2408C91.4051 74.8772 91.819 74.5283 92.2447 74.2001C92.6705 73.872 93.108 73.5615 93.5515 73.2629C93.7733 73.1121 93.992 72.9673 94.2167 72.8106C94.4414 72.6539 94.6632 72.5149 94.8938 72.3819C94.9381 72.3405 94.9026 72.2518 94.8465 72.2754Z" fill="#263238"/>
<path d="M28.7584 69.2334C25.8019 71.303 16.7992 79.3655 18.6146 83.7707C20.4299 88.176 27.36 88.0695 37.0515 86.3163L28.7584 69.2334Z" fill="#FFCFC0"/>
<path d="M28.5 69.4258C32.4706 66.1174 38.2388 62.0994 40.6011 62.2266C43.0787 62.3596 51.768 63.1815 53.7252 64.0212C55.6824 64.8609 61.3117 70.3393 61.8882 72.1546C62.3494 73.6093 59.4934 74.9811 55.8687 72.6484C52.4776 70.4665 51.7739 69.7776 50.6681 69.3962C49.5624 69.0148 45.2045 69.8515 44.6782 71.4953C44.3678 72.4651 45.6243 75.0816 47.3716 75.6345C49.1189 76.1874 50.9195 75.1496 53.3823 75.2827C55.8451 75.4157 58.2103 77.846 57.7343 78.6442C57.2583 79.4425 56.1555 79.0138 52.7939 80.1373C50.6327 80.8617 48.0634 82.1625 44.4062 84.3149C40.6603 86.5175 35.2409 86.4791 35.2409 86.4791L28.5 69.4258Z" fill="#FFCFC0"/>
<path d="M56.0198 73.0622C61.9329 74.913 59.204 83.6792 53.2761 81.8254C47.3483 79.9717 50.0949 71.2055 56.0198 73.0622Z" fill="#5FD58C"/>
<path opacity="0.1" d="M56.0198 73.0622C61.9329 74.913 59.204 83.6792 53.2761 81.8254C47.3483 79.9717 50.0949 71.2055 56.0198 73.0622Z" fill="black"/>
<path d="M55.4625 72.8876C61.1007 74.6615 58.3688 83.4188 52.7189 81.6508C47.0689 79.8828 49.8156 71.1196 55.4625 72.8876Z" fill="#5FD58C"/>
<path opacity="0.1" d="M50.4062 77.0173C50.2376 78.6168 50.9709 80.2843 52.9547 80.9052C57.6438 82.3834 59.9114 75.0956 55.2312 73.6321L55.1396 73.6055C59.5153 75.0837 57.3392 81.9518 52.869 80.5533C52.1087 80.3468 51.4453 79.8794 50.995 79.2329C50.5447 78.5864 50.3363 77.8021 50.4062 77.0173Z" fill="black"/>
<g opacity="0.1">
<path opacity="0.1" d="M54.942 74.5411C54.9795 74.5563 55.0097 74.5854 55.0262 74.6224C55.0428 74.6593 55.0444 74.7012 55.0307 74.7392L54.9391 74.9787C55.3096 75.1616 55.618 75.4495 55.826 75.8065C55.8446 75.8306 55.8569 75.8587 55.8621 75.8886C55.8672 75.9185 55.865 75.9492 55.8556 75.978C55.8386 76.0176 55.8069 76.049 55.7672 76.0655C55.7274 76.0821 55.6828 76.0825 55.6427 76.0667C55.6025 76.0523 55.5696 76.0225 55.5511 75.9839C55.3806 75.6716 55.1227 75.4158 54.809 75.2478L54.1586 76.9182C54.9923 77.4593 55.2406 77.9471 55.013 78.5295C54.7706 79.1622 54.0639 79.4165 53.31 79.1386L53.1297 79.6027C53.1223 79.6222 53.1112 79.6399 53.0969 79.655C53.0827 79.6702 53.0656 79.6823 53.0467 79.6908C53.0277 79.6993 53.0073 79.704 52.9865 79.7046C52.9658 79.7053 52.9451 79.7018 52.9257 79.6944C52.9063 79.687 52.8885 79.6759 52.8734 79.6617C52.8583 79.6474 52.8461 79.6303 52.8376 79.6114C52.8291 79.5924 52.8244 79.572 52.8238 79.5512C52.8232 79.5305 52.8266 79.5098 52.834 79.4904L53.0144 79.0203C52.5314 78.7886 52.1392 78.4027 51.8998 77.9234C51.8848 77.9016 51.8753 77.8765 51.8722 77.8502C51.8691 77.824 51.8725 77.7973 51.882 77.7726C51.899 77.7344 51.9296 77.7038 51.9678 77.6869C52.0061 77.67 52.0493 77.6679 52.089 77.681C52.1287 77.6962 52.1614 77.7258 52.1806 77.7638C52.3754 78.1938 52.7113 78.5443 53.1326 78.7572L53.7919 77.0601C52.973 76.5161 52.7305 76.0431 52.9612 75.4488C53.1918 74.8545 53.8984 74.5914 54.6316 74.8575L54.7203 74.6328C54.7272 74.611 54.7388 74.591 54.7543 74.5741C54.7697 74.5573 54.7887 74.5441 54.8098 74.5353C54.8309 74.5266 54.8537 74.5226 54.8766 74.5236C54.8994 74.5246 54.9218 74.5306 54.942 74.5411ZM53.9339 76.7556L54.5636 75.1295C53.9723 74.9166 53.4667 75.1147 53.2982 75.5434C53.1297 75.9721 53.2361 76.2796 53.9339 76.7556ZM54.0551 77.2198L53.4165 78.8666C54.0078 79.0854 54.537 78.8902 54.7144 78.4379C54.8918 77.9855 54.7765 77.6928 54.0551 77.2198Z" fill="black"/>
</g>
<path d="M40.6016 62.2264C43.5226 61.4341 49.7047 60.8309 53.8203 62.4393C56.6024 63.5273 60.5493 73.4406 59.1066 74.6084C57.6638 75.7762 56.4457 74.6764 54.8491 72.8345C54.2578 72.1633 51.9399 67.7729 50.6922 67.9621C48.8947 68.2311 44.5752 70.8152 44.5752 70.8152L40.6016 62.2264Z" fill="#FFCFC0"/>
<path d="M59.4131 73.9137C59.8566 71.6637 58.6355 69.1359 57.2785 66.7766C57.2548 66.7411 57.1986 66.7766 57.2193 66.8061C57.5653 67.3974 59.3776 71.6903 59.3687 73.9166C59.3687 73.9462 59.4072 73.9403 59.4131 73.9137Z" fill="#263238"/>
<path d="M40.6016 62.2264C43.5226 61.4341 49.7047 60.8309 53.8203 62.4393C56.6024 63.5273 58.1871 73.0562 56.7443 74.2241C55.3015 75.3919 53.4655 73.9136 52.1498 71.4922C51.7241 70.7087 50.9672 67.3531 49.7284 67.5304C47.9308 67.8024 43.5197 68.5091 43.5197 68.5091L40.6016 62.2264Z" fill="#FFCFC0"/>
<path d="M46.1596 68.0002C46.6238 67.879 46.7864 67.8347 47.2535 67.7194C47.7207 67.6041 48.1849 67.5006 48.6579 67.4237C49.0656 67.3226 49.4875 67.2916 49.9056 67.3321C50.2969 67.4209 50.6487 67.6346 50.9078 67.9411C51.5198 68.6093 51.7357 69.582 52.0047 70.4216C52.3004 71.3618 53.0838 73.1417 54.1837 73.9518C54.474 74.1873 54.8104 74.3595 55.1712 74.4573C55.4354 74.5433 55.717 74.5616 55.9901 74.5105C57.0988 74.1676 57.3206 72.8312 57.3087 71.7284C57.2851 69.6589 56.6287 67.5893 55.8778 65.7001C55.6945 65.2359 55.4993 64.7747 55.3042 64.3134C55.1153 63.771 54.8129 63.2752 54.4172 62.8588C53.7225 62.2172 51.9367 61.8861 51.3838 61.7767C51.3424 61.7767 51.3631 61.7058 51.4045 61.7146C52.0757 61.8359 53.9294 61.9334 55.0056 63.0155C55.3959 63.4117 55.5969 63.9734 55.8157 64.476C56.0345 64.9787 56.2769 65.5374 56.4839 66.0785C56.898 67.1241 57.2291 68.2006 57.4743 69.2982C57.696 70.3389 57.8912 71.4949 57.7167 72.5504C57.566 73.4698 56.9303 74.3952 56.0108 74.6672C55.2392 74.9008 54.4705 74.4248 54.1334 74.1912C53.8026 73.959 53.5043 73.6835 53.2465 73.3723C52.7156 72.6323 52.2393 71.8546 51.8214 71.0455C51.4311 70.2472 51.2567 69.3366 50.8014 68.5738C50.6998 68.3881 50.5623 68.2245 50.3968 68.0925C50.2313 67.9605 50.0412 67.8628 49.8376 67.8051C49.424 67.743 49.0035 67.743 48.5899 67.8051C47.7936 67.8369 47.0018 67.9418 46.2247 68.1185C46.0207 68.1688 45.9645 68.0416 46.1596 68.0002Z" fill="#263238"/>
<path d="M38.3516 62.7966C39.1321 62.3354 43.5846 59.5444 45.3349 59.0537C47.0852 58.5629 53.9266 57.6138 55.2955 59.1719C57.0162 61.1321 51.8777 62.7671 49.5775 63.2726C47.2774 63.7782 45.2492 66.3534 45.2492 66.3534L38.3516 62.7966Z" fill="#FFCFC0"/>
<path d="M53.1246 62.1911C52.3533 62.332 51.5895 62.5115 50.8362 62.7292C50.108 62.8854 49.3925 63.0959 48.6957 63.3589C48.0293 63.6696 47.4181 64.0871 46.8863 64.5948C46.6173 64.8402 46.3689 65.0974 46.1235 65.3635C45.8781 65.6296 45.612 65.9725 45.34 66.2504C45.3105 66.28 45.34 66.3303 45.3844 66.2978C45.906 65.7969 46.459 65.3298 47.04 64.8993C47.6304 64.4407 48.2748 64.0565 48.9588 63.7551C50.3218 63.1638 51.7912 62.8682 53.1571 62.2769C53.2133 62.2621 53.1778 62.1822 53.1246 62.1911Z" fill="#263238"/>
<path d="M56.3939 74.345C56.9201 74.6407 57.5144 74.9363 58.1382 74.9097C58.4047 74.9023 58.663 74.8159 58.8803 74.6614C58.9939 74.579 59.0936 74.4793 59.176 74.3657C59.2741 74.2512 59.3286 74.1056 59.3297 73.9547C59.3297 73.9134 59.3859 73.9163 59.377 73.9547C59.3631 74.0388 59.3552 74.1238 59.3533 74.209C59.3409 74.2799 59.3211 74.3492 59.2942 74.416C59.2425 74.5481 59.1652 74.6687 59.0666 74.7708C58.8475 74.9948 58.5586 75.1376 58.2476 75.1758C57.5114 75.2763 56.8669 74.8801 56.3613 74.3953C56.358 74.3931 56.3552 74.3904 56.3529 74.3871C56.3507 74.3839 56.3491 74.3803 56.3483 74.3764C56.3475 74.3726 56.3474 74.3686 56.3481 74.3647C56.3489 74.3609 56.3503 74.3572 56.3525 74.3539C56.3546 74.3506 56.3574 74.3477 56.3606 74.3455C56.3638 74.3433 56.3675 74.3417 56.3713 74.3409C56.3752 74.3401 56.3791 74.34 56.383 74.3407C56.3869 74.3414 56.3906 74.3429 56.3939 74.345Z" fill="#263238"/>
<path d="M44.5365 67.2699C43.8938 68.1974 43.3111 69.1652 42.7922 70.1673C42.2962 71.1637 41.9458 72.2261 41.7515 73.3219C41.5652 74.5046 41.6628 75.6872 41.6894 76.8934C41.7141 77.463 41.6914 78.0336 41.6214 78.5994C41.5493 79.0923 41.4244 79.576 41.2489 80.0422C40.8243 81.0916 40.1444 82.0184 39.2709 82.7385C39.2384 82.7681 39.2709 82.8213 39.3182 82.7977C40.1443 82.2252 40.8345 81.4784 41.3403 80.6099C41.8461 79.7414 42.155 78.7725 42.2452 77.7715C42.3517 76.5475 42.1447 75.3206 42.2452 74.0936C42.3486 72.9767 42.595 71.8778 42.9784 70.8237C43.3987 69.5933 43.9343 68.4054 44.5779 67.2758C44.5783 67.2731 44.5782 67.2703 44.5775 67.2677C44.5768 67.265 44.5756 67.2625 44.574 67.2603C44.5723 67.2581 44.5702 67.2563 44.5679 67.2549C44.5655 67.2535 44.5629 67.2526 44.5602 67.2522C44.5547 67.2514 44.5491 67.2528 44.5447 67.2561C44.5403 67.2595 44.5373 67.2644 44.5365 67.2699Z" fill="#263238"/>
<path d="M33.7379 65.4228C31.4416 66.8236 29.2544 68.396 27.1951 70.1267C25.1119 71.8268 23.2275 73.7568 21.5777 75.8801C20.665 77.084 19.8672 78.3708 19.1947 79.7236C19.1799 79.7502 19.2184 79.7709 19.2361 79.7443C19.9223 78.5963 20.6838 77.495 21.5156 76.4478C22.3389 75.4082 23.2183 74.4143 24.1499 73.4705C26.055 71.571 28.0998 69.8168 30.267 68.2227C31.4851 67.3061 32.6026 66.431 33.8148 65.5115C33.9272 65.4228 33.868 65.34 33.7379 65.4228Z" fill="#263238"/>
<path d="M67.8961 121.948C67.8754 122.069 67.8518 122.191 67.8281 122.315C67.8488 122.194 67.8725 122.069 67.8932 121.948H67.8961Z" fill="#EBEBEB"/>
<path d="M20.9934 89.2641C16.9991 94.6716 12.8363 100.948 11.8281 107.731C11.8281 107.831 11.9819 107.867 12.0055 107.763C12.4667 105.914 13.0595 104.1 13.7794 102.335C16.4049 101.611 18.98 101.019 20.3607 98.4117C21.7651 95.733 21.5877 92.2414 21.3216 89.3233C21.2861 89.1666 21.0703 89.1577 20.9934 89.2641Z" fill="#5FD58C"/>
<path d="M13.8044 102.297C15.5991 98.2727 17.9022 94.2311 20.8292 90.9197C20.8499 90.8961 20.8794 90.9197 20.8617 90.9523C18.9459 93.3175 17.4883 95.8779 16.0662 98.4885C17.3878 97.1462 18.8365 95.9459 20.09 94.5208C20.1137 94.4942 20.1551 94.5208 20.1314 94.5622C18.8867 96.0405 17.5297 97.6754 15.9095 98.7812C15.4719 99.5814 15.0324 100.385 14.5909 101.191C14.7003 101.129 14.8126 101.075 14.925 101.019C14.9427 101.019 14.9604 101.04 14.9427 101.049C14.8185 101.111 14.6944 101.179 14.5672 101.232C14.3573 101.614 14.1503 101.992 13.9316 102.373C13.8843 102.441 13.766 102.367 13.8044 102.297Z" fill="#263238"/>
<path d="M15.1393 100.877C16.2131 100.278 17.2373 99.5938 18.2023 98.8314C18.2289 98.8107 18.2673 98.8462 18.2407 98.8699C17.3035 99.6734 16.2778 100.368 15.1836 100.939C15.1334 100.978 15.089 100.907 15.1393 100.877Z" fill="#263238"/>
<path d="M11.3612 106.731C11.3612 106.814 11.509 106.811 11.506 106.731C11.5267 104.496 11.506 102.252 11.5415 100.008C12.1151 98.855 13.342 98.2164 14.2024 97.291C14.8163 96.6139 15.351 95.869 15.796 95.0706C16.8236 93.1635 17.4523 91.0671 17.6438 88.9092C17.8803 86.5203 16.9727 78.6382 15.9645 78.9102C15.4441 79.0521 13.753 82.9577 13.3036 84.2497C12.5769 86.3789 12.0455 88.5699 11.7159 90.7955C10.894 96.0345 10.962 101.433 11.3612 106.731Z" fill="#5FD58C"/>
<path d="M11.3454 97.0865C11.4666 94.2601 12.1052 91.407 12.6995 88.6663C13.3411 85.7098 14.092 82.9336 15.6117 80.2993C15.6412 80.249 15.7122 80.2993 15.6886 80.3436C14.6743 82.3916 13.889 84.5451 13.347 86.7652C13.4505 86.6056 13.5746 86.4548 13.6781 86.304C13.7195 86.2449 13.8171 86.304 13.7786 86.3632C13.6425 86.6011 13.483 86.8249 13.3026 87.0313C13.2993 87.0327 13.2958 87.0334 13.2923 87.0334C13.2887 87.0334 13.2852 87.0327 13.2819 87.0313C12.7586 89.1423 12.395 91.3006 12.0638 93.4559L12.1348 93.3731C12.1383 93.3701 12.1428 93.3684 12.1474 93.3682C12.152 93.3681 12.1566 93.3694 12.1603 93.3722C12.1641 93.3749 12.1668 93.3788 12.1681 93.3833C12.1693 93.3877 12.1691 93.3925 12.1673 93.3968C12.1289 93.4677 12.0816 93.5387 12.0402 93.6096C11.8776 94.7036 11.7268 95.7945 11.576 96.8766C13.5332 95.2003 15.1978 93.2519 16.135 90.8364C16.135 90.8364 16.1557 90.8364 16.1527 90.8364C15.2332 93.3406 13.7875 95.5669 11.5583 97.0895L11.4341 97.9617C11.4341 98.0208 11.3306 98.006 11.3306 97.9469C11.3306 97.6897 11.3306 97.4324 11.3543 97.1752C11.3158 97.1545 11.3158 97.1131 11.3454 97.0865Z" fill="#263238"/>
<path d="M12.2609 92.9922C13.7392 90.7718 15.1377 88.6165 16.2286 86.1625C16.2286 86.1359 16.2878 86.1625 16.2759 86.1832C15.3594 88.6224 14.0733 91.0911 12.3378 93.0483C12.3023 93.0897 12.2314 93.0365 12.2609 92.9922Z" fill="#263238"/>
<path d="M14.2387 85.6151C14.8536 84.5241 15.5041 83.4627 16.0835 82.3629C16.1013 82.3333 16.1427 82.3629 16.1309 82.3895C15.6555 83.5496 15.0526 84.6533 14.3333 85.6801C14.2919 85.7393 14.2032 85.6772 14.2387 85.6151Z" fill="#263238"/>
<path d="M13.9988 86.0889V86.1066C13.9988 86.1066 13.9751 86.0889 13.9988 86.0889Z" fill="#263238"/>
<path d="M9.8377 100.262C9.81385 101.742 9.64351 103.216 9.32917 104.662C9.35282 104.821 9.37352 104.981 9.39717 105.144C9.85492 103.542 10.1199 101.891 10.1866 100.227C10.1998 100.204 10.2068 100.178 10.2068 100.151C10.2068 100.125 10.1998 100.099 10.1866 100.076C10.252 97.8487 10.0886 95.6206 9.69874 93.4268C9.00691 89.3201 7.49612 85.382 4.63418 82.3043C4.61054 82.2839 4.58255 82.2693 4.55236 82.2614C4.52217 82.2536 4.49058 82.2528 4.46003 82.2591C4.42948 82.2653 4.40077 82.2785 4.37612 82.2977C4.35147 82.3168 4.33153 82.3413 4.31783 82.3693C3.16183 85.3081 3.56392 88.8116 4.54844 91.7415C5.0838 93.3286 5.8488 94.8288 6.81907 96.1941C7.80064 97.5866 9.05421 98.7485 9.8377 100.262Z" fill="#5FD58C"/>
<path d="M4.97084 83.6911C7.68495 88.1052 9.57122 93.3147 9.80183 98.5152C9.80183 98.6098 9.65105 98.6335 9.63922 98.5389C9.57418 98.0717 9.50322 97.6076 9.42931 97.1463C8.30878 96.0702 7.15572 94.9348 6.35154 93.5985C6.35154 93.5748 6.37224 93.5482 6.38998 93.5689C7.32244 94.71 8.32048 95.7959 9.37904 96.8211C9.18194 95.67 8.95034 94.5377 8.68426 93.424C8.61034 93.3413 8.53939 93.2555 8.46843 93.1698C8.39747 93.0841 8.50095 93.0367 8.54825 93.09C8.59556 93.1432 8.5926 93.1402 8.6133 93.1639C8.23176 91.635 7.75885 90.1304 7.19712 88.6581C6.50529 87.8362 5.73363 87.1237 5.23102 86.1303C5.23102 86.1066 5.25171 86.0889 5.26649 86.1096C5.67154 86.6772 6.0618 87.2478 6.52007 87.7741C6.70337 87.984 6.90442 88.1821 7.09364 88.3861C6.46762 86.7906 5.72552 85.2432 4.87327 83.7562C4.86693 83.7433 4.86549 83.7285 4.86921 83.7147C4.87294 83.7008 4.88158 83.6888 4.89352 83.6808C4.90546 83.6729 4.91989 83.6695 4.93412 83.6714C4.94834 83.6733 4.9614 83.6803 4.97084 83.6911Z" fill="#263238"/>
<path d="M5.51794 89.1217C6.4049 90.3043 7.39238 91.4278 8.20839 92.6489C8.23204 92.6843 8.18178 92.7198 8.15221 92.6932C7.1056 91.7087 6.21864 90.3664 5.45881 89.1454C5.43515 89.1187 5.49133 89.0892 5.51794 89.1217Z" fill="#263238"/>
<path d="M8.33512 92.9214L8.3706 92.9599C8.39721 92.9865 8.35582 93.0249 8.33217 93.0013L8.29373 92.9628C8.26712 92.9362 8.30852 92.8978 8.33512 92.9214Z" fill="#263238"/>
<path d="M0.721576 92.155C0.937404 94.4197 2.12889 97.1279 3.58351 98.8723C4.22299 99.6309 5.01338 100.248 5.90439 100.685C6.90962 101.181 7.97397 101.755 9.00285 102.163C9.49729 103.422 9.86473 104.727 10.0997 106.06C10.1352 105.947 10.1677 105.829 10.2002 105.714C9.53207 99.978 5.82161 95.0702 1.07341 91.9303C1.03661 91.9056 0.993402 91.8921 0.949074 91.8916C0.904747 91.8911 0.861231 91.9035 0.823869 91.9274C0.786508 91.9513 0.756927 91.9855 0.738755 92.0259C0.720584 92.0664 0.714613 92.1112 0.721576 92.155Z" fill="#5FD58C"/>
<path d="M2.36072 93.8491C2.32819 93.8195 2.36072 93.7604 2.41098 93.787C5.01918 95.7275 7.099 98.2911 8.46006 101.243C8.49258 101.32 8.38615 101.388 8.3418 101.311C8.12006 100.924 7.89536 100.549 7.66771 100.179C6.58266 99.975 5.55674 99.2122 4.75256 98.4879C4.73186 98.4701 4.75256 98.4376 4.78508 98.4583C5.19929 98.8347 5.65919 99.1575 6.15396 99.4192C6.59744 99.6439 7.07344 99.7858 7.5317 99.9662C7.12962 99.3275 6.71274 98.7155 6.27517 98.1242C5.10657 97.6784 4.01057 97.0617 3.02298 96.2941C2.99046 96.2705 3.02298 96.2202 3.05255 96.2409C4.03076 96.8334 5.03934 97.3742 6.07413 97.8611C5.40827 96.988 4.69051 96.1557 3.92473 95.3687C3.55516 95.1736 3.18263 94.9785 2.82489 94.7774C2.79533 94.7626 2.82489 94.7124 2.84854 94.7213C3.14461 94.8271 3.42738 94.967 3.69116 95.1381C3.27429 94.6946 2.83376 94.2659 2.36072 93.8491Z" fill="#263238"/>
<path d="M2.46164 95.8309C2.52669 95.8684 2.58806 95.9119 2.64495 95.961C2.66269 95.9757 2.64495 95.9994 2.6213 95.9905C2.55545 95.9602 2.49217 95.9246 2.43208 95.8841C2.39956 95.8634 2.42912 95.8102 2.46164 95.8309Z" fill="#263238"/>
<path d="M17.6103 118.48H4.60156L5.65113 106.633L5.88174 104.02H16.3302L16.5608 106.633L17.6103 118.48Z" fill="#455A64"/>
<path d="M16.5581 106.633H5.64844L5.87905 104.02H16.3275L16.5581 106.633Z" fill="#263238"/>
<path d="M16.9548 102.195H5.26172V104.782H16.9548V102.195Z" fill="#455A64"/>
<path d="M36.5892 95.8393C36.6867 95.3367 36.7458 94.8873 36.7961 94.4084C36.8464 93.9294 36.87 93.4534 36.8671 92.9656C36.8695 92.464 36.8259 91.9632 36.737 91.4696C36.6436 90.8975 36.4145 90.3561 36.0688 89.8908C35.8535 89.6277 35.5775 89.4207 35.2646 89.2876C35.1084 89.2219 34.9445 89.1762 34.7768 89.1516C34.6202 89.1286 34.4617 89.1217 34.3037 89.1309C33.7191 89.1754 33.1625 89.3995 32.7102 89.7725C32.3035 90.0981 31.9581 90.4936 31.6902 90.9403C31.4114 91.3801 31.2215 91.8703 31.1314 92.3831C31.0719 92.6895 31.0964 93.0062 31.2023 93.2997C31.2753 93.4892 31.4042 93.6521 31.5719 93.7668C31.7313 93.8724 31.9161 93.9337 32.107 93.9442C32.3035 93.9541 32.4986 93.9069 32.6688 93.8082C32.8149 93.716 32.939 93.5929 33.0324 93.4475C33.1805 93.2142 33.281 92.954 33.3281 92.6818C33.4125 92.1986 33.4125 91.7044 33.3281 91.2212C33.2539 90.7373 33.0775 90.2747 32.8107 89.8642C32.6682 89.6464 32.4755 89.4659 32.249 89.3379C32.0144 89.2099 31.7435 89.1651 31.4802 89.2108C31.0087 89.3165 30.5819 89.5666 30.2592 89.9263C29.6467 90.601 29.1582 91.3787 28.8164 92.2235C29.2178 91.4236 29.7562 90.7002 30.407 90.0859C30.7106 89.7909 31.0997 89.5995 31.5187 89.5389C31.7064 89.5357 31.8908 89.5881 32.0487 89.6897C32.2066 89.7913 32.3308 89.9374 32.4056 90.1096C32.5941 90.4771 32.7038 90.8799 32.7279 91.2922C32.7628 91.7031 32.7278 92.117 32.6244 92.5162C32.581 92.6879 32.5047 92.8495 32.3997 92.9922C32.367 93.0344 32.3243 93.0679 32.2756 93.0897C32.2479 93.1002 32.2174 93.1002 32.1898 93.0897C32.1484 93.0897 32.1011 93.0572 32.0952 93.0425C32.0829 93.0213 32.0739 92.9983 32.0686 92.9744C32.0483 92.836 32.0584 92.6947 32.0982 92.5605C32.3285 91.8263 32.8019 91.1923 33.4404 90.763C33.6988 90.5758 34.0084 90.4725 34.3274 90.4673C34.3952 90.4709 34.4625 90.4808 34.5284 90.4969C34.5821 90.5111 34.6337 90.532 34.6822 90.5589C34.7744 90.613 34.8516 90.6892 34.9069 90.7807C35.0638 91.0655 35.1557 91.3815 35.1759 91.7061C35.2107 92.0995 35.2107 92.4953 35.1759 92.8887C35.1412 93.3072 35.0849 93.7236 35.0074 94.1364C34.9305 94.5473 34.833 94.9819 34.7117 95.3574L36.5892 95.8393Z" fill="#5FD58C"/>
<path opacity="0.1" d="M36.5892 95.8393C36.6867 95.3367 36.7458 94.8873 36.7961 94.4084C36.8464 93.9294 36.87 93.4534 36.8671 92.9656C36.8695 92.464 36.8259 91.9632 36.737 91.4696C36.6436 90.8975 36.4145 90.3561 36.0688 89.8908C35.8535 89.6277 35.5775 89.4207 35.2646 89.2876C35.1084 89.2219 34.9445 89.1762 34.7768 89.1516C34.6202 89.1286 34.4617 89.1217 34.3037 89.1309C33.7191 89.1754 33.1625 89.3995 32.7102 89.7725C32.3035 90.0981 31.9581 90.4936 31.6902 90.9403C31.4114 91.3801 31.2215 91.8703 31.1314 92.3831C31.0719 92.6895 31.0964 93.0062 31.2023 93.2997C31.2753 93.4892 31.4042 93.6521 31.5719 93.7668C31.7313 93.8724 31.9161 93.9337 32.107 93.9442C32.3035 93.9541 32.4986 93.9069 32.6688 93.8082C32.8149 93.716 32.939 93.5929 33.0324 93.4475C33.1805 93.2142 33.281 92.954 33.3281 92.6818C33.4125 92.1986 33.4125 91.7044 33.3281 91.2212C33.2539 90.7373 33.0775 90.2747 32.8107 89.8642C32.6682 89.6464 32.4755 89.4659 32.249 89.3379C32.0144 89.2099 31.7435 89.1651 31.4802 89.2108C31.0087 89.3165 30.5819 89.5666 30.2592 89.9263C29.6467 90.601 29.1582 91.3787 28.8164 92.2235C29.2178 91.4236 29.7562 90.7002 30.407 90.0859C30.7106 89.7909 31.0997 89.5995 31.5187 89.5389C31.7064 89.5357 31.8908 89.5881 32.0487 89.6897C32.2066 89.7913 32.3308 89.9374 32.4056 90.1096C32.5941 90.4771 32.7038 90.8799 32.7279 91.2922C32.7628 91.7031 32.7278 92.117 32.6244 92.5162C32.581 92.6879 32.5047 92.8495 32.3997 92.9922C32.367 93.0344 32.3243 93.0679 32.2756 93.0897C32.2479 93.1002 32.2174 93.1002 32.1898 93.0897C32.1484 93.0897 32.1011 93.0572 32.0952 93.0425C32.0829 93.0213 32.0739 92.9983 32.0686 92.9744C32.0483 92.836 32.0584 92.6947 32.0982 92.5605C32.3285 91.8263 32.8019 91.1923 33.4404 90.763C33.6988 90.5758 34.0084 90.4725 34.3274 90.4673C34.3952 90.4709 34.4625 90.4808 34.5284 90.4969C34.5821 90.5111 34.6337 90.532 34.6822 90.5589C34.7744 90.613 34.8516 90.6892 34.9069 90.7807C35.0638 91.0655 35.1557 91.3815 35.1759 91.7061C35.2107 92.0995 35.2107 92.4953 35.1759 92.8887C35.1412 93.3072 35.0849 93.7236 35.0074 94.1364C34.9305 94.5473 34.833 94.9819 34.7117 95.3574L36.5892 95.8393Z" fill="black"/>
<path d="M38.0859 117.806C39.3898 119.648 39.1237 125.274 39.9131 126.063C40.7025 126.853 48.7827 126.767 49.3385 126.303C49.8944 125.839 49.6342 123.852 50.2255 123.527C50.4768 123.396 38.0859 117.806 38.0859 117.806Z" fill="#5FD58C"/>
<path opacity="0.1" d="M38.0859 117.806C39.3898 119.648 39.1237 125.274 39.9131 126.063C40.7025 126.853 48.7827 126.767 49.3385 126.303C49.8944 125.839 49.6342 123.852 50.2255 123.527C50.4768 123.396 38.0859 117.806 38.0859 117.806Z" fill="black"/>
<path d="M72.6334 117.897C71.0043 120.263 71.8853 125.289 71.0959 126.063C70.3066 126.838 62.2263 126.767 61.6705 126.303C61.1147 125.839 61.3748 123.746 61.0526 123.346C60.8841 123.136 72.6334 117.897 72.6334 117.897Z" fill="#5FD58C"/>
<path opacity="0.1" d="M72.6334 117.897C71.0043 120.263 71.8853 125.289 71.0959 126.063C70.3066 126.838 62.2263 126.767 61.6705 126.303C61.1147 125.839 61.3748 123.746 61.0526 123.346C60.8841 123.136 72.6334 117.897 72.6334 117.897Z" fill="black"/>
<path opacity="0.3" d="M50.2373 123.526C50.1428 123.597 50.0633 123.685 50.0034 123.787C49.9435 123.889 49.9044 124.001 49.8884 124.118C46.1553 123.685 42.5056 122.708 39.0557 121.217C38.8665 119.846 38.5974 118.539 38.0859 117.814C38.0859 117.809 50.4768 123.399 50.2373 123.526Z" fill="black"/>
<path opacity="0.3" d="M72.6305 117.897C72.0244 118.784 71.7643 120.023 71.6371 121.286C68.3286 122.751 64.8218 123.721 61.2301 124.162C61.2351 123.88 61.1743 123.601 61.0527 123.346C60.8783 123.136 72.6305 117.897 72.6305 117.897Z" fill="black"/>
<path d="M54.8177 83.7998C38.5567 83.7998 32.3125 96.5395 32.3125 103.996C32.3125 111.352 37.043 123.852 54.8177 123.852C72.5924 123.852 78.4848 113.262 78.4848 103.827C78.4848 94.3931 71.259 83.7998 54.8177 83.7998Z" fill="#5FD58C"/>
<path opacity="0.1" d="M54.8177 83.7998C38.5567 83.7998 32.3125 96.5395 32.3125 103.996C32.3125 111.352 37.043 123.852 54.8177 123.852C72.5924 123.852 78.4848 113.262 78.4848 103.827C78.4848 94.3931 71.259 83.7998 54.8177 83.7998Z" fill="black"/>
<path d="M59.4102 84.7221C59.4102 84.7221 66.8429 79.0219 74.8936 79.696C77.6638 79.9296 73.0635 85.9373 72.9777 90.6352L59.4102 84.7221Z" fill="#5FD58C"/>
<path opacity="0.1" d="M59.4102 84.7221C59.4102 84.7221 66.8429 79.0219 74.8936 79.696C77.6638 79.9296 73.0635 85.9373 72.9777 90.6352L59.4102 84.7221Z" fill="black"/>
<path opacity="0.3" d="M69.8717 88.3353C69.8244 88.631 72.3907 89.7308 72.6568 89.5623C72.9229 89.3938 73.189 85.6981 75.2822 81.76C75.5897 81.1805 70.3684 85.1482 69.8717 88.3353Z" fill="black"/>
<path opacity="0.3" d="M71.4883 102.976C71.7363 102.938 71.9683 102.83 72.1573 102.665C72.3463 102.5 72.4845 102.285 72.5556 102.045C72.5319 102.34 72.4417 102.627 72.2917 102.883C72.1417 103.139 71.9358 103.358 71.6894 103.523C71.6539 103.547 71.6716 103.615 71.7189 103.6C73.141 103.065 72.9873 101.057 72.4876 99.777C72.461 99.7061 72.4344 99.6351 72.4019 99.5671C72.0826 98.825 71.5149 98.2869 70.829 98.3845C68.5318 98.7156 69.3596 103.283 71.4883 102.976Z" fill="black"/>
<path d="M76.9507 96.4717C77.3054 97.539 80.534 96.6727 81.347 97.3586C82.6272 98.423 82.2724 111.606 81.1016 112.668C80.4453 113.259 76.7851 112.635 75.7562 113.359C74.7273 114.084 76.9507 96.4717 76.9507 96.4717Z" fill="#5FD58C"/>
<path opacity="0.1" d="M76.9507 96.4717C77.3054 97.539 80.534 96.6727 81.347 97.3586C82.6272 98.423 82.2724 111.606 81.1016 112.668C80.4453 113.259 76.7851 112.635 75.7562 113.359C74.7273 114.084 76.9507 96.4717 76.9507 96.4717Z" fill="black"/>
<path opacity="0.3" d="M81.5303 104.682C81.5303 107.893 81.2612 110.497 80.939 110.497C80.6167 110.497 80.3477 107.893 80.3477 104.682C80.3477 101.471 80.6137 98.8662 80.939 98.8662C81.2642 98.8662 81.5303 101.471 81.5303 104.682Z" fill="black"/>
<path opacity="0.3" d="M48.5104 88.025C48.5637 88.0072 54.051 86.2244 59.154 87.6199L59.6625 85.7603C53.98 84.2051 48.132 86.115 47.8984 86.1949L48.5075 88.025L48.2118 87.1114L48.5104 88.025Z" fill="black"/>
<path d="M40.8822 116.017C33.5529 107.594 38.038 97.8139 38.242 97.3912C38.3673 97.1063 38.3777 96.784 38.2709 96.4916C38.1641 96.1993 37.9484 95.9595 37.669 95.8225C37.3896 95.6854 37.068 95.6617 36.7714 95.7562C36.4749 95.8508 36.2264 96.0563 36.0778 96.3298C35.0877 98.5487 34.502 100.927 34.3482 103.352C33.9964 108.709 35.7674 113.628 39.9657 116.978C41.234 117.989 41.8342 117.102 40.8822 116.017Z" fill="white"/>
<path d="M37.7031 93.6535C37.7025 93.9132 37.779 94.1673 37.9229 94.3836C38.0668 94.5999 38.2716 94.7686 38.5114 94.8684C38.7512 94.9682 39.0153 94.9946 39.2701 94.9443C39.5249 94.894 39.7591 94.7692 39.943 94.5857C40.1269 94.4023 40.2522 94.1684 40.3031 93.9136C40.354 93.6589 40.3282 93.3948 40.2289 93.1548C40.1296 92.9147 39.9614 92.7096 39.7454 92.5652C39.5295 92.4208 39.2756 92.3438 39.0158 92.3438C38.6682 92.3437 38.3347 92.4816 38.0887 92.7272C37.8426 92.9727 37.7039 93.3059 37.7031 93.6535Z" fill="white"/>
<path d="M102.816 124.643H93.5469V126.691H102.816V124.643Z" fill="#5FD58C"/>
<g opacity="0.1">
<path opacity="0.1" d="M93.9281 124.828C94.1239 125.358 94.1239 125.94 93.9281 126.469C93.7323 125.94 93.7323 125.358 93.9281 124.828Z" fill="black"/>
<path opacity="0.1" d="M94.6156 124.828C94.8114 125.358 94.8114 125.94 94.6156 126.469C94.4198 125.94 94.4198 125.358 94.6156 124.828Z" fill="black"/>
<path opacity="0.1" d="M94.9554 124.828C95.1513 125.358 95.1513 125.94 94.9554 126.469C94.7596 125.94 94.7596 125.358 94.9554 124.828Z" fill="black"/>
<path opacity="0.1" d="M96.807 124.828C97.0002 125.358 97.0002 125.939 96.807 126.469C96.6112 125.94 96.6112 125.358 96.807 124.828Z" fill="black"/>
<path opacity="0.1" d="M97.3086 124.828C97.4104 125.09 97.4606 125.369 97.4564 125.65C97.4618 125.93 97.4115 126.208 97.3086 126.469C97.2044 126.209 97.1541 125.93 97.1607 125.65C97.1566 125.369 97.2068 125.09 97.3086 124.828Z" fill="black"/>
<path opacity="0.1" d="M99.3773 124.828C99.5731 125.358 99.5731 125.94 99.3773 126.469C99.1815 125.94 99.1815 125.358 99.3773 124.828Z" fill="black"/>
<path opacity="0.1" d="M99.8578 124.828C100.054 125.358 100.054 125.94 99.8578 126.469C99.662 125.94 99.662 125.358 99.8578 124.828Z" fill="black"/>
<path opacity="0.1" d="M100.735 124.828C100.931 125.358 100.931 125.94 100.735 126.469C100.542 125.939 100.542 125.358 100.735 124.828Z" fill="black"/>
<path opacity="0.1" d="M98.9793 124.828C99.0819 125.091 99.1311 125.371 99.1242 125.653C99.1309 125.933 99.0806 126.212 98.9763 126.472C98.8734 126.211 98.8231 125.933 98.8285 125.653C98.8249 125.371 98.8761 125.091 98.9793 124.828Z" fill="black"/>
<path opacity="0.1" d="M95.5765 124.828C95.7723 125.358 95.7723 125.94 95.5765 126.469C95.3807 125.94 95.3807 125.358 95.5765 124.828Z" fill="black"/>
<path opacity="0.1" d="M97.9687 124.828C98.1645 125.358 98.1645 125.94 97.9687 126.469C97.8645 126.209 97.8142 125.93 97.8209 125.65C97.8153 125.369 97.8655 125.09 97.9687 124.828Z" fill="black"/>
<path opacity="0.1" d="M98.3109 124.828C98.5067 125.358 98.5067 125.94 98.3109 126.469C98.1151 125.94 98.1151 125.358 98.3109 124.828Z" fill="black"/>
<path opacity="0.1" d="M101.879 124.828C101.981 125.09 102.031 125.369 102.027 125.65C102.032 125.93 101.982 126.208 101.879 126.469C101.775 126.209 101.724 125.93 101.731 125.65C101.725 125.369 101.776 125.09 101.879 124.828Z" fill="black"/>
<path opacity="0.1" d="M102.398 124.828C102.5 125.09 102.55 125.369 102.546 125.65C102.553 125.93 102.502 126.209 102.398 126.469C102.295 126.208 102.245 125.93 102.25 125.65C102.246 125.369 102.296 125.09 102.398 124.828Z" fill="black"/>
<path opacity="0.1" d="M101.139 124.828C101.335 125.358 101.335 125.94 101.139 126.469C100.943 125.94 100.943 125.358 101.139 124.828Z" fill="black"/>
<path opacity="0.1" d="M96.4047 124.828C96.5079 125.09 96.5581 125.369 96.5525 125.65C96.5592 125.93 96.5089 126.209 96.4047 126.469C96.2089 125.94 96.2089 125.358 96.4047 124.828Z" fill="black"/>
</g>
<path opacity="0.1" d="M102.819 124.643V125.077L93.5469 125.37V124.643H102.819Z" fill="black"/>
<path d="M102.042 122.593H92.7734V124.642H102.042V122.593Z" fill="#5FD58C"/>
<g opacity="0.1">
<path opacity="0.1" d="M101.624 124.421C101.427 123.893 101.427 123.311 101.624 122.783C101.822 123.311 101.822 123.893 101.624 124.421Z" fill="black"/>
<path opacity="0.1" d="M100.938 124.421C100.834 124.161 100.784 123.882 100.79 123.602C100.782 123.322 100.833 123.043 100.938 122.783C101.041 123.044 101.091 123.322 101.085 123.602C101.09 123.882 101.039 124.16 100.938 124.421Z" fill="black"/>
<path opacity="0.1" d="M100.605 124.421C100.408 123.893 100.408 123.311 100.605 122.783C100.802 123.311 100.802 123.893 100.605 124.421Z" fill="black"/>
<path opacity="0.1" d="M98.7494 124.421C98.5523 123.893 98.5523 123.311 98.7494 122.783C98.9466 123.311 98.9466 123.893 98.7494 124.421Z" fill="black"/>
<path opacity="0.1" d="M98.2381 124.421C98.1363 124.16 98.0861 123.882 98.0903 123.602C98.0844 123.322 98.1347 123.044 98.2381 122.783C98.343 123.043 98.3933 123.322 98.386 123.602C98.3916 123.882 98.3413 124.161 98.2381 124.421Z" fill="black"/>
<path opacity="0.1" d="M96.1674 124.421C95.9702 123.893 95.9702 123.311 96.1674 122.783C96.3646 123.311 96.3646 123.893 96.1674 124.421Z" fill="black"/>
<path opacity="0.1" d="M95.6993 124.421C95.5961 124.161 95.5459 123.882 95.5515 123.602C95.5441 123.322 95.5945 123.043 95.6993 122.783C95.8965 123.311 95.8965 123.893 95.6993 124.421Z" fill="black"/>
<path opacity="0.1" d="M94.8198 124.421C94.6226 123.893 94.6226 123.311 94.8198 122.783C95.0169 123.311 95.0169 123.893 94.8198 124.421Z" fill="black"/>
<path opacity="0.1" d="M96.5782 124.421C96.4764 124.16 96.4262 123.882 96.4304 123.602C96.423 123.322 96.4734 123.043 96.5782 122.783C96.6817 123.044 96.7319 123.322 96.726 123.602C96.7302 123.882 96.68 124.16 96.5782 124.421Z" fill="black"/>
<path opacity="0.1" d="M99.9884 124.421C99.8852 124.161 99.8349 123.882 99.8405 123.602C99.8332 123.322 99.8835 123.043 99.9884 122.783C100.186 123.311 100.186 123.893 99.9884 124.421Z" fill="black"/>
<path opacity="0.1" d="M97.5893 124.421C97.3921 123.893 97.3921 123.311 97.5893 122.783C97.7865 123.311 97.7865 123.893 97.5893 124.421Z" fill="black"/>
<path opacity="0.1" d="M97.2455 124.421C97.0484 123.893 97.0484 123.311 97.2455 122.783C97.4388 123.312 97.4388 123.892 97.2455 124.421Z" fill="black"/>
<path opacity="0.1" d="M93.6752 124.421C93.478 123.893 93.478 123.311 93.6752 122.783C93.7801 123.043 93.8304 123.322 93.8231 123.602C93.8287 123.882 93.7784 124.161 93.6752 124.421Z" fill="black"/>
<path opacity="0.1" d="M93.1561 124.421C93.0543 124.16 93.0041 123.882 93.0083 123.602C93.0024 123.322 93.0527 123.044 93.1561 122.783C93.261 123.043 93.3113 123.322 93.3039 123.602C93.3096 123.882 93.2593 124.161 93.1561 124.421Z" fill="black"/>
<path opacity="0.1" d="M94.4135 124.421C94.2163 123.893 94.2163 123.311 94.4135 122.783C94.6107 123.311 94.6107 123.893 94.4135 124.421Z" fill="black"/>
<path opacity="0.1" d="M99.1485 124.421C99.0453 124.161 98.9951 123.882 99.0007 123.602C98.9934 123.322 99.0437 123.043 99.1485 122.783C99.252 123.044 99.3022 123.322 99.2964 123.602C99.3005 123.882 99.2503 124.16 99.1485 124.421Z" fill="black"/>
</g>
<path opacity="0.1" d="M102.042 122.593V123.027L92.7734 123.32V122.593H102.042Z" fill="black"/>
<path d="M102.753 120.562H93.4844V122.611H102.753V120.562Z" fill="#5FD58C"/>
<g opacity="0.1">
<path opacity="0.1" d="M93.8734 120.748C94.0692 121.277 94.0692 121.859 93.8734 122.389C93.6776 121.859 93.6776 121.277 93.8734 120.748Z" fill="black"/>
<path opacity="0.1" d="M94.5609 120.748C94.6641 121.01 94.7144 121.289 94.7087 121.57C94.7154 121.85 94.6651 122.129 94.5609 122.389C94.3651 121.859 94.3651 121.277 94.5609 120.748Z" fill="black"/>
<path opacity="0.1" d="M94.9008 120.748C95.0966 121.277 95.0966 121.859 94.9008 122.389C94.705 121.859 94.705 121.277 94.9008 120.748Z" fill="black"/>
<path opacity="0.1" d="M96.764 120.748C96.9598 121.277 96.9598 121.859 96.764 122.389C96.5682 121.859 96.5682 121.277 96.764 120.748Z" fill="black"/>
<path opacity="0.1" d="M97.2539 120.748C97.3557 121.01 97.4059 121.289 97.4017 121.57C97.4071 121.85 97.3569 122.128 97.2539 122.389C97.1497 122.129 97.0994 121.85 97.1061 121.57C97.1004 121.289 97.1507 121.01 97.2539 120.748Z" fill="black"/>
<path opacity="0.1" d="M99.3226 120.748C99.5184 121.277 99.5184 121.859 99.3226 122.389C99.1268 121.859 99.1268 121.277 99.3226 120.748Z" fill="black"/>
<path opacity="0.1" d="M99.8031 120.748C99.9989 121.277 99.9989 121.859 99.8031 122.389C99.6073 121.859 99.6073 121.277 99.8031 120.748Z" fill="black"/>
<path opacity="0.1" d="M100.678 120.748C100.874 121.277 100.874 121.859 100.678 122.389C100.482 121.859 100.482 121.277 100.678 120.748Z" fill="black"/>
<path opacity="0.1" d="M98.9217 120.748C99.0235 121.01 99.0737 121.289 99.0695 121.57C99.0762 121.85 99.0259 122.129 98.9217 122.389C98.8187 122.128 98.7684 121.85 98.7738 121.57C98.7697 121.289 98.8199 121.01 98.9217 120.748Z" fill="black"/>
<path opacity="0.1" d="M95.5101 120.748C95.7059 121.277 95.7059 121.859 95.5101 122.389C95.3143 121.859 95.3143 121.277 95.5101 120.748Z" fill="black"/>
<path opacity="0.1" d="M97.9125 120.748C98.1083 121.277 98.1083 121.859 97.9125 122.389C97.7167 121.859 97.7167 121.277 97.9125 120.748Z" fill="black"/>
<path opacity="0.1" d="M98.2601 120.748C98.4534 121.278 98.4534 121.859 98.2601 122.389C98.0643 121.859 98.0643 121.277 98.2601 120.748Z" fill="black"/>
<path opacity="0.1" d="M101.828 120.748C102.024 121.277 102.024 121.859 101.828 122.389C101.724 122.129 101.674 121.85 101.68 121.57C101.675 121.289 101.725 121.01 101.828 120.748Z" fill="black"/>
<path opacity="0.1" d="M102.344 120.748C102.446 121.01 102.496 121.289 102.492 121.57C102.497 121.85 102.447 122.128 102.344 122.389C102.24 122.129 102.189 121.85 102.196 121.57C102.192 121.289 102.242 121.01 102.344 120.748Z" fill="black"/>
<path opacity="0.1" d="M101.088 120.748C101.284 121.277 101.284 121.859 101.088 122.389C100.892 121.859 100.892 121.277 101.088 120.748Z" fill="black"/>
<path opacity="0.1" d="M96.3513 120.748C96.4546 121.01 96.5048 121.289 96.4992 121.57C96.5059 121.85 96.4556 122.129 96.3513 122.389C96.2484 122.128 96.1981 121.85 96.2035 121.57C96.1993 121.289 96.2495 121.01 96.3513 120.748Z" fill="black"/>
</g>
<path opacity="0.1" d="M102.756 120.562V120.997L93.4844 121.29V120.562H102.756Z" fill="black"/>
<path d="M35.0266 123.409H25.7578V125.458H35.0266V123.409Z" fill="#5FD58C"/>
<g opacity="0.1">
<path opacity="0.1" d="M26.139 123.584C26.3348 124.113 26.3348 124.695 26.139 125.225C25.9432 124.695 25.9432 124.113 26.139 123.584Z" fill="black"/>
<path opacity="0.1" d="M26.8321 123.584C26.9337 123.845 26.9838 124.123 26.9799 124.403C26.9855 124.684 26.9353 124.963 26.8321 125.225C26.7275 124.964 26.6772 124.684 26.6843 124.403C26.6789 124.123 26.7291 123.845 26.8321 123.584Z" fill="black"/>
<path opacity="0.1" d="M27.1678 123.584C27.2694 123.845 27.3196 124.123 27.3156 124.403C27.3227 124.684 27.2724 124.964 27.1678 125.225C27.0646 124.963 27.0143 124.684 27.02 124.403C27.016 124.123 27.0662 123.845 27.1678 123.584Z" fill="black"/>
<path opacity="0.1" d="M29.0179 123.584C29.2138 124.113 29.2138 124.695 29.0179 125.225C28.8221 124.695 28.8221 124.113 29.0179 123.584Z" fill="black"/>
<path opacity="0.1" d="M29.5179 123.584C29.7138 124.113 29.7138 124.695 29.5179 125.225C29.3221 124.695 29.3221 124.113 29.5179 123.584Z" fill="black"/>
<path opacity="0.1" d="M31.5922 123.584C31.6951 123.845 31.7454 124.123 31.74 124.403C31.7471 124.684 31.6968 124.964 31.5922 125.225C31.3964 124.695 31.3964 124.113 31.5922 123.584Z" fill="black"/>
<path opacity="0.1" d="M32.0701 123.584C32.1717 123.845 32.2219 124.123 32.218 124.403C32.225 124.684 32.1747 124.964 32.0701 125.225C31.9669 124.963 31.9167 124.684 31.9223 124.403C31.9184 124.123 31.9686 123.845 32.0701 123.584Z" fill="black"/>
<path opacity="0.1" d="M32.9476 123.584C33.0506 123.845 33.1009 124.123 33.0955 124.403C33.1025 124.684 33.0522 124.964 32.9476 125.225C32.7518 124.695 32.7518 124.113 32.9476 123.584Z" fill="black"/>
<path opacity="0.1" d="M31.1915 123.584C31.3873 124.113 31.3873 124.695 31.1915 125.225C31.0868 124.964 31.0365 124.684 31.0436 124.403C31.0382 124.123 31.0885 123.845 31.1915 123.584Z" fill="black"/>
<path opacity="0.1" d="M27.7813 123.584C27.8829 123.845 27.9331 124.123 27.9291 124.403C27.9348 124.684 27.8845 124.963 27.7813 125.225C27.6767 124.964 27.6264 124.684 27.6335 124.403C27.6295 124.123 27.6797 123.845 27.7813 123.584Z" fill="black"/>
<path opacity="0.1" d="M30.182 123.584C30.3778 124.113 30.3778 124.695 30.182 125.225C29.9862 124.695 29.9862 124.113 30.182 123.584Z" fill="black"/>
<path opacity="0.1" d="M30.5297 123.584C30.7255 124.113 30.7255 124.695 30.5297 125.225C30.3339 124.695 30.3339 124.113 30.5297 123.584Z" fill="black"/>
<path opacity="0.1" d="M34.0922 123.584C34.288 124.113 34.288 124.695 34.0922 125.225C33.8964 124.695 33.8964 124.113 34.0922 123.584Z" fill="black"/>
<path opacity="0.1" d="M34.6117 123.584C34.8075 124.113 34.8075 124.695 34.6117 125.225C34.4159 124.695 34.4159 124.113 34.6117 123.584Z" fill="black"/>
<path opacity="0.1" d="M33.3539 123.584C33.4569 123.845 33.5071 124.123 33.5017 124.403C33.5088 124.684 33.4585 124.964 33.3539 125.225C33.1581 124.695 33.1581 124.113 33.3539 123.584Z" fill="black"/>
<path opacity="0.1" d="M28.6211 123.584C28.7227 123.845 28.7729 124.123 28.769 124.403C28.7746 124.684 28.7244 124.963 28.6211 125.225C28.5165 124.964 28.4662 124.684 28.4733 124.403C28.4679 124.123 28.5182 123.845 28.6211 123.584Z" fill="black"/>
</g>
<path opacity="0.1" d="M35.0295 123.409V123.844L25.7578 124.136V123.409H35.0295Z" fill="black"/>
<path d="M34.3938 121.36H25.125V123.409H34.3938V121.36Z" fill="#5FD58C"/>
<g opacity="0.1">
<path opacity="0.1" d="M25.5078 121.546C25.6096 121.808 25.6598 122.087 25.6556 122.368C25.6623 122.648 25.612 122.927 25.5078 123.187C25.4036 122.927 25.3533 122.648 25.36 122.368C25.3558 122.087 25.406 121.808 25.5078 121.546Z" fill="black"/>
<path opacity="0.1" d="M26.1996 121.546C26.3954 122.075 26.3954 122.657 26.1996 123.187C26.0064 122.657 26.0064 122.076 26.1996 121.546Z" fill="black"/>
<path opacity="0.1" d="M26.5375 121.546C26.7333 122.075 26.7333 122.657 26.5375 123.187C26.3417 122.657 26.3417 122.075 26.5375 121.546Z" fill="black"/>
<path opacity="0.1" d="M28.3906 121.546C28.5864 122.075 28.5864 122.657 28.3906 123.187C28.2864 122.927 28.2361 122.648 28.2428 122.368C28.2371 122.087 28.2874 121.807 28.3906 121.546Z" fill="black"/>
<path opacity="0.1" d="M28.889 121.546C29.0848 122.075 29.0848 122.657 28.889 123.187C28.6932 122.657 28.6932 122.075 28.889 121.546Z" fill="black"/>
<path opacity="0.1" d="M30.9633 121.546C31.1591 122.075 31.1591 122.657 30.9633 123.187C30.7675 122.657 30.7675 122.075 30.9633 121.546Z" fill="black"/>
<path opacity="0.1" d="M31.4398 121.546C31.6356 122.075 31.6356 122.657 31.4398 123.187C31.244 122.657 31.244 122.075 31.4398 121.546Z" fill="black"/>
<path opacity="0.1" d="M32.3109 121.546C32.5067 122.075 32.5067 122.657 32.3109 123.187C32.1151 122.657 32.1151 122.075 32.3109 121.546Z" fill="black"/>
<path opacity="0.1" d="M30.5609 121.546C30.7567 122.075 30.7567 122.657 30.5609 123.187C30.3651 122.657 30.3651 122.075 30.5609 121.546Z" fill="black"/>
<path opacity="0.1" d="M27.1508 121.546C27.3466 122.075 27.3466 122.657 27.1508 123.187C26.955 122.657 26.955 122.075 27.1508 121.546Z" fill="black"/>
<path opacity="0.1" d="M29.5467 121.546C29.6499 121.807 29.7001 122.087 29.6945 122.368C29.7012 122.648 29.6509 122.927 29.5467 123.187C29.4437 122.926 29.3934 122.648 29.3988 122.368C29.3947 122.087 29.4449 121.808 29.5467 121.546Z" fill="black"/>
<path opacity="0.1" d="M29.8945 121.546C30.0903 122.075 30.0903 122.657 29.8945 123.187C29.7903 122.927 29.74 122.648 29.7467 122.368C29.7411 122.087 29.7913 121.807 29.8945 121.546Z" fill="black"/>
<path opacity="0.1" d="M33.4633 121.546C33.5665 121.807 33.6167 122.087 33.6111 122.368C33.6178 122.648 33.5675 122.927 33.4633 123.187C33.2675 122.657 33.2675 122.075 33.4633 121.546Z" fill="black"/>
<path opacity="0.1" d="M33.9789 121.546C34.1747 122.075 34.1747 122.657 33.9789 123.187C33.7831 122.657 33.7831 122.075 33.9789 121.546Z" fill="black"/>
<path opacity="0.1" d="M32.725 121.546C32.9208 122.075 32.9208 122.657 32.725 123.187C32.5292 122.657 32.5292 122.075 32.725 121.546Z" fill="black"/>
<path opacity="0.1" d="M27.9867 121.546C28.1825 122.075 28.1825 122.657 27.9867 123.187C27.7909 122.657 27.7909 122.075 27.9867 121.546Z" fill="black"/>
</g>
<path opacity="0.1" d="M34.3938 121.36V121.795L25.125 122.088V121.36H34.3938Z" fill="black"/>
<path d="M35.8273 117.28H26.5586V119.329H35.8273V117.28Z" fill="#5FD58C"/>
<g opacity="0.1">
<path opacity="0.1" d="M26.9398 117.466C27.1356 117.995 27.1356 118.577 26.9398 119.107C26.744 118.577 26.744 117.995 26.9398 117.466Z" fill="black"/>
<path opacity="0.1" d="M27.6328 117.466C27.7346 117.728 27.7848 118.007 27.7806 118.288C27.786 118.568 27.7358 118.846 27.6328 119.107C27.5286 118.847 27.4783 118.568 27.485 118.288C27.4793 118.007 27.5296 117.727 27.6328 117.466Z" fill="black"/>
<path opacity="0.1" d="M27.9687 117.466C28.0705 117.728 28.1207 118.007 28.1166 118.288C28.122 118.568 28.0717 118.846 27.9687 119.107C27.8645 118.847 27.8142 118.568 27.8209 118.288C27.8167 118.007 27.8669 117.728 27.9687 117.466Z" fill="black"/>
<path opacity="0.1" d="M29.8226 117.466C29.9258 117.727 29.9761 118.007 29.9705 118.288C29.9771 118.568 29.9269 118.847 29.8226 119.107C29.6268 118.577 29.6268 117.995 29.8226 117.466Z" fill="black"/>
<path opacity="0.1" d="M30.3226 117.466C30.5184 117.995 30.5184 118.577 30.3226 119.107C30.1268 118.577 30.1268 117.995 30.3226 117.466Z" fill="black"/>
<path opacity="0.1" d="M32.3904 117.466C32.4936 117.727 32.5439 118.007 32.5382 118.288C32.5449 118.568 32.4946 118.847 32.3904 119.107C32.2874 118.846 32.2372 118.568 32.2426 118.288C32.2384 118.007 32.2886 117.728 32.3904 117.466Z" fill="black"/>
<path opacity="0.1" d="M32.8711 117.466C32.9729 117.728 33.0231 118.007 33.0189 118.288C33.0243 118.568 32.974 118.846 32.8711 119.107C32.7669 118.847 32.7166 118.568 32.7232 118.288C32.7191 118.007 32.7693 117.728 32.8711 117.466Z" fill="black"/>
<path opacity="0.1" d="M33.7484 117.466C33.8516 117.727 33.9019 118.007 33.8962 118.288C33.9029 118.568 33.8526 118.847 33.7484 119.107C33.5526 118.577 33.5526 117.995 33.7484 117.466Z" fill="black"/>
<path opacity="0.1" d="M31.9945 117.466C32.1903 117.995 32.1903 118.577 31.9945 119.107C31.7987 118.577 31.7987 117.995 31.9945 117.466Z" fill="black"/>
<path opacity="0.1" d="M28.582 117.466C28.6838 117.728 28.734 118.007 28.7298 118.288C28.7352 118.568 28.685 118.846 28.582 119.107C28.4778 118.847 28.4275 118.568 28.4342 118.288C28.43 118.007 28.4802 117.728 28.582 117.466Z" fill="black"/>
<path opacity="0.1" d="M30.9809 117.466C31.1767 117.995 31.1767 118.577 30.9809 119.107C30.7876 118.577 30.7876 117.996 30.9809 117.466Z" fill="black"/>
<path opacity="0.1" d="M31.3265 117.466C31.5223 117.995 31.5223 118.577 31.3265 119.107C31.1307 118.577 31.1307 117.995 31.3265 117.466Z" fill="black"/>
<path opacity="0.1" d="M34.8969 117.466C35.0927 117.995 35.0927 118.577 34.8969 119.107C34.701 118.577 34.701 117.995 34.8969 117.466Z" fill="black"/>
<path opacity="0.1" d="M35.4164 117.466C35.6122 117.995 35.6122 118.577 35.4164 119.107C35.2206 118.577 35.2206 117.995 35.4164 117.466Z" fill="black"/>
<path opacity="0.1" d="M34.156 117.466C34.2592 117.727 34.3095 118.007 34.3039 118.288C34.3105 118.568 34.2603 118.847 34.156 119.107C34.0531 118.846 34.0028 118.568 34.0082 118.288C34.004 118.007 34.0542 117.728 34.156 117.466Z" fill="black"/>
<path opacity="0.1" d="M29.4219 117.466C29.5237 117.728 29.5739 118.007 29.5697 118.288C29.5751 118.568 29.5248 118.846 29.4219 119.107C29.3176 118.847 29.2673 118.568 29.274 118.288C29.2684 118.007 29.3186 117.727 29.4219 117.466Z" fill="black"/>
</g>
<path opacity="0.1" d="M35.8273 117.28V117.715L26.5586 118.008V117.28H35.8273Z" fill="black"/>
<path d="M35.593 115.231H26.3242V117.28H35.593V115.231Z" fill="#5FD58C"/>
<g opacity="0.1">
<path opacity="0.1" d="M35.183 117.058C34.9859 116.53 34.9859 115.948 35.183 115.42C35.3763 115.949 35.3763 116.529 35.183 117.058Z" fill="black"/>
<path opacity="0.1" d="M34.4881 117.058C34.3863 116.797 34.3361 116.519 34.3403 116.239C34.3344 115.959 34.3847 115.68 34.4881 115.42C34.593 115.68 34.6433 115.959 34.636 116.239C34.6401 116.519 34.5899 116.797 34.4881 117.058Z" fill="black"/>
<path opacity="0.1" d="M34.1524 117.058C34.0492 116.797 33.999 116.519 34.0046 116.239C33.9973 115.959 34.0476 115.68 34.1524 115.42C34.2559 115.68 34.3061 115.959 34.3003 116.239C34.3044 116.519 34.2542 116.797 34.1524 117.058Z" fill="black"/>
<path opacity="0.1" d="M32.3119 117.058C32.1148 116.53 32.1148 115.948 32.3119 115.42C32.5091 115.948 32.5091 116.53 32.3119 117.058Z" fill="black"/>
<path opacity="0.1" d="M31.7963 117.058C31.5991 116.53 31.5991 115.948 31.7963 115.42C31.9935 115.948 31.9935 116.53 31.7963 117.058Z" fill="black"/>
<path opacity="0.1" d="M29.7267 117.058C29.6234 116.797 29.5732 116.519 29.5788 116.239C29.5715 115.959 29.6218 115.68 29.7267 115.42C29.9238 115.948 29.9238 116.53 29.7267 117.058Z" fill="black"/>
<path opacity="0.1" d="M29.2501 117.058C29.1469 116.797 29.0966 116.519 29.1023 116.239C29.0949 115.959 29.1452 115.68 29.2501 115.42C29.3535 115.68 29.4038 115.959 29.3979 116.239C29.4021 116.519 29.3519 116.797 29.2501 117.058Z" fill="black"/>
<path opacity="0.1" d="M28.3705 117.058C28.1734 116.53 28.1734 115.948 28.3705 115.42C28.5677 115.948 28.5677 116.53 28.3705 117.058Z" fill="black"/>
<path opacity="0.1" d="M30.1288 117.058C30.027 116.797 29.9768 116.519 29.9809 116.239C29.9751 115.959 30.0253 115.68 30.1288 115.42C30.2336 115.68 30.2839 115.959 30.2766 116.239C30.2822 116.519 30.232 116.797 30.1288 117.058Z" fill="black"/>
<path opacity="0.1" d="M33.5392 117.058C33.4374 116.797 33.3872 116.519 33.3913 116.239C33.384 115.959 33.4343 115.68 33.5392 115.42C33.6426 115.68 33.6929 115.959 33.687 116.239C33.6912 116.519 33.6409 116.797 33.5392 117.058Z" fill="black"/>
<path opacity="0.1" d="M31.1244 117.058C30.9273 116.53 30.9273 115.948 31.1244 115.42C31.3216 115.948 31.3216 116.53 31.1244 117.058Z" fill="black"/>
<path opacity="0.1" d="M30.7963 117.058C30.5991 116.53 30.5991 115.948 30.7963 115.42C30.9935 115.948 30.9935 116.53 30.7963 117.058Z" fill="black"/>
<path opacity="0.1" d="M27.2221 117.058C27.0249 116.53 27.0249 115.948 27.2221 115.42C27.4193 115.948 27.4193 116.53 27.2221 117.058Z" fill="black"/>
<path opacity="0.1" d="M26.7065 117.058C26.5093 116.53 26.5093 115.948 26.7065 115.42C26.9037 115.948 26.9037 116.53 26.7065 117.058Z" fill="black"/>
<path opacity="0.1" d="M27.9643 117.058C27.7671 116.53 27.7671 115.948 27.9643 115.42C28.1615 115.948 28.1615 116.53 27.9643 117.058Z" fill="black"/>
<path opacity="0.1" d="M32.6991 117.058C32.5973 116.797 32.5471 116.519 32.5512 116.239C32.5454 115.959 32.5956 115.68 32.6991 115.42C32.8039 115.68 32.8542 115.959 32.8469 116.239C32.8511 116.519 32.8009 116.797 32.6991 117.058Z" fill="black"/>
</g>
<path opacity="0.1" d="M35.593 115.231V115.666L26.3242 115.959V115.231H35.593Z" fill="black"/>
<path d="M35.0266 113.183H25.7578V115.231H35.0266V113.183Z" fill="#5FD58C"/>
<g opacity="0.1">
<path opacity="0.1" d="M26.1411 113.372C26.3382 113.9 26.3382 114.482 26.1411 115.01C25.9478 114.481 25.9478 113.901 26.1411 113.372Z" fill="black"/>
<path opacity="0.1" d="M26.832 113.372C26.9338 113.633 26.984 113.911 26.9798 114.191C26.9855 114.471 26.9352 114.75 26.832 115.01C26.7278 114.75 26.6775 114.471 26.6842 114.191C26.68 113.911 26.7302 113.633 26.832 113.372Z" fill="black"/>
<path opacity="0.1" d="M27.1678 113.372C27.271 113.633 27.3212 113.911 27.3156 114.191C27.3223 114.471 27.272 114.75 27.1678 115.01C27.0646 114.75 27.0143 114.471 27.02 114.191C27.0158 113.911 27.066 113.633 27.1678 113.372Z" fill="black"/>
<path opacity="0.1" d="M29.019 113.372C29.2162 113.9 29.2162 114.482 29.019 115.01C28.8218 114.482 28.8218 113.9 29.019 113.372Z" fill="black"/>
<path opacity="0.1" d="M29.5229 113.372C29.7201 113.9 29.7201 114.482 29.5229 115.01C29.3257 114.482 29.3257 113.9 29.5229 113.372Z" fill="black"/>
<path opacity="0.1" d="M31.5932 113.372C31.7904 113.9 31.7904 114.482 31.5932 115.01C31.396 114.482 31.396 113.9 31.5932 113.372Z" fill="black"/>
<path opacity="0.1" d="M32.074 113.372C32.1772 113.633 32.2275 113.911 32.2219 114.191C32.2285 114.471 32.1783 114.75 32.074 115.01C31.9708 114.75 31.9206 114.471 31.9262 114.191C31.922 113.911 31.9722 113.633 32.074 113.372Z" fill="black"/>
<path opacity="0.1" d="M32.9487 113.372C33.1458 113.9 33.1458 114.482 32.9487 115.01C32.7515 114.482 32.7515 113.9 32.9487 113.372Z" fill="black"/>
<path opacity="0.1" d="M31.1953 113.372C31.2971 113.633 31.3473 113.911 31.3431 114.191C31.3488 114.471 31.2985 114.75 31.1953 115.01C31.0911 114.75 31.0408 114.471 31.0475 114.191C31.0418 113.911 31.0921 113.633 31.1953 113.372Z" fill="black"/>
<path opacity="0.1" d="M27.7811 113.372C27.8829 113.633 27.9331 113.911 27.9289 114.191C27.9356 114.471 27.8853 114.75 27.7811 115.01C27.6779 114.75 27.6276 114.471 27.6332 114.191C27.6291 113.911 27.6793 113.633 27.7811 113.372Z" fill="black"/>
<path opacity="0.1" d="M30.183 113.372C30.3802 113.9 30.3802 114.482 30.183 115.01C29.9859 114.482 29.9859 113.9 30.183 113.372Z" fill="black"/>
<path opacity="0.1" d="M30.5346 113.372C30.7318 113.9 30.7318 114.482 30.5346 115.01C30.3374 114.482 30.3374 113.9 30.5346 113.372Z" fill="black"/>
<path opacity="0.1" d="M34.0971 113.372C34.2943 113.9 34.2943 114.482 34.0971 115.01C33.8999 114.482 33.8999 113.9 34.0971 113.372Z" fill="black"/>
<path opacity="0.1" d="M34.6127 113.372C34.8099 113.9 34.8099 114.482 34.6127 115.01C34.4155 114.482 34.4155 113.9 34.6127 113.372Z" fill="black"/>
<path opacity="0.1" d="M33.3588 113.372C33.556 113.9 33.556 114.482 33.3588 115.01C33.1616 114.482 33.1616 113.9 33.3588 113.372Z" fill="black"/>
<path opacity="0.1" d="M28.6211 113.372C28.7229 113.633 28.7731 113.911 28.7689 114.191C28.7745 114.471 28.7243 114.75 28.6211 115.01C28.5169 114.75 28.4666 114.471 28.4732 114.191C28.4691 113.911 28.5193 113.633 28.6211 113.372Z" fill="black"/>
</g>
<path opacity="0.1" d="M35.0295 113.183V113.62L25.7578 113.913V113.183H35.0295Z" fill="black"/>
<path d="M35.0266 119.329H25.7578V121.378H35.0266V119.329Z" fill="#5FD58C"/>
<g opacity="0.1">
<path opacity="0.1" d="M34.6117 121.157C34.4159 120.627 34.4159 120.045 34.6117 119.516C34.8075 120.045 34.8075 120.627 34.6117 121.157Z" fill="black"/>
<path opacity="0.1" d="M33.9203 121.157C33.7245 120.627 33.7245 120.045 33.9203 119.516C34.1161 120.045 34.1161 120.627 33.9203 121.157Z" fill="black"/>
<path opacity="0.1" d="M33.5844 121.157C33.3885 120.627 33.3885 120.045 33.5844 119.516C33.6886 119.776 33.7389 120.054 33.7322 120.335C33.7378 120.616 33.6876 120.895 33.5844 121.157Z" fill="black"/>
<path opacity="0.1" d="M31.7304 121.157C31.6286 120.895 31.5784 120.616 31.5826 120.335C31.5759 120.054 31.6262 119.776 31.7304 119.516C31.8334 119.776 31.8837 120.055 31.8783 120.335C31.8825 120.616 31.8323 120.895 31.7304 121.157Z" fill="black"/>
<path opacity="0.1" d="M31.2328 121.157C31.037 120.627 31.037 120.045 31.2328 119.516C31.426 120.046 31.426 120.627 31.2328 121.157Z" fill="black"/>
<path opacity="0.1" d="M29.1599 121.157C29.0581 120.895 29.0079 120.616 29.0121 120.335C29.0067 120.055 29.057 119.776 29.1599 119.516C29.2642 119.776 29.3144 120.054 29.3078 120.335C29.3119 120.616 29.2617 120.895 29.1599 121.157Z" fill="black"/>
<path opacity="0.1" d="M28.682 121.157C28.4862 120.627 28.4862 120.045 28.682 119.516C28.7862 119.776 28.8365 120.054 28.8298 120.335C28.8355 120.616 28.7852 120.895 28.682 121.157Z" fill="black"/>
<path opacity="0.1" d="M27.8047 121.157C27.7029 120.895 27.6527 120.616 27.6568 120.335C27.6502 120.054 27.7004 119.776 27.8047 119.516C27.9076 119.776 27.9579 120.055 27.9525 120.335C27.9567 120.616 27.9065 120.895 27.8047 121.157Z" fill="black"/>
<path opacity="0.1" d="M29.557 121.157C29.3612 120.627 29.3612 120.045 29.557 119.516C29.7528 120.045 29.7528 120.627 29.557 121.157Z" fill="black"/>
<path opacity="0.1" d="M32.9711 121.157C32.7753 120.627 32.7753 120.045 32.9711 119.516C33.0753 119.776 33.1256 120.054 33.1189 120.335C33.1245 120.616 33.0743 120.895 32.9711 121.157Z" fill="black"/>
<path opacity="0.1" d="M30.5726 121.157C30.3768 120.627 30.3768 120.045 30.5726 119.516C30.7684 120.045 30.7684 120.627 30.5726 121.157Z" fill="black"/>
<path opacity="0.1" d="M30.2344 121.157C30.1311 120.895 30.0809 120.616 30.0865 120.335C30.0798 120.054 30.1301 119.776 30.2344 119.516C30.3373 119.776 30.3876 120.055 30.3822 120.335C30.3864 120.616 30.3362 120.895 30.2344 121.157Z" fill="black"/>
<path opacity="0.1" d="M26.6586 121.157C26.4628 120.627 26.4628 120.045 26.6586 119.516C26.8544 120.045 26.8544 120.627 26.6586 121.157Z" fill="black"/>
<path opacity="0.1" d="M26.139 121.157C25.9432 120.627 25.9432 120.045 26.139 119.516C26.3348 120.045 26.3348 120.627 26.139 121.157Z" fill="black"/>
<path opacity="0.1" d="M27.3945 121.157C27.2927 120.895 27.2425 120.616 27.2467 120.335C27.24 120.054 27.2903 119.776 27.3945 119.516C27.4987 119.776 27.549 120.054 27.5423 120.335C27.5465 120.616 27.4963 120.895 27.3945 121.157Z" fill="black"/>
<path opacity="0.1" d="M32.1312 121.157C31.9354 120.627 31.9354 120.045 32.1312 119.516C32.327 120.045 32.327 120.627 32.1312 121.157Z" fill="black"/>
</g>
<path opacity="0.1" d="M35.0295 119.329V119.764L25.7578 120.056V119.329H35.0295Z" fill="black"/>
<path d="M24.9875 118.309C31.0898 119.406 29.4755 128.444 23.3644 127.347C17.2532 126.25 18.8734 117.212 24.9875 118.309Z" fill="#5FD58C"/>
<path opacity="0.1" d="M24.9875 118.309C31.0898 119.406 29.4755 128.444 23.3644 127.347C17.2532 126.25 18.8734 117.212 24.9875 118.309Z" fill="black"/>
<path d="M24.4133 118.206C30.2288 119.249 28.6175 128.291 22.7901 127.244C16.9628 126.197 18.5889 117.162 24.4133 118.206Z" fill="#5FD58C"/>
<path opacity="0.1" d="M19.9141 122.939C19.9466 124.551 20.8838 126.109 22.9297 126.487C27.7637 127.353 29.103 119.85 24.275 118.984L24.1804 118.969C28.7068 119.876 27.4089 126.975 22.7996 126.147C22.0183 126.037 21.3007 125.655 20.7729 125.069C20.2452 124.482 19.9411 123.728 19.9141 122.939Z" fill="black"/>
<g opacity="0.1">
<path opacity="0.1" d="M24.1053 119.912C24.1439 119.923 24.1768 119.948 24.1972 119.983C24.2175 120.017 24.2238 120.059 24.2146 120.098L24.1526 120.346C24.5486 120.477 24.8959 120.724 25.1489 121.056C25.1706 121.077 25.1868 121.103 25.196 121.132C25.2053 121.161 25.2074 121.191 25.2021 121.221C25.1897 121.263 25.162 121.298 25.1246 121.319C25.0872 121.34 25.043 121.347 25.0011 121.337C24.9802 121.332 24.9604 121.323 24.9431 121.31C24.9259 121.297 24.9114 121.281 24.9006 121.263C24.691 120.976 24.4023 120.756 24.0698 120.63L23.6381 122.365C24.5251 122.8 24.8385 123.252 24.6877 123.859C24.5221 124.518 23.8539 124.843 23.0734 124.675L22.9522 125.159C22.9498 125.181 22.9427 125.202 22.9315 125.221C22.9202 125.24 22.9051 125.256 22.8871 125.269C22.8691 125.281 22.8487 125.29 22.8271 125.293C22.8055 125.297 22.7834 125.297 22.7621 125.291C22.7409 125.286 22.721 125.276 22.7038 125.263C22.6867 125.249 22.6726 125.232 22.6626 125.212C22.6526 125.193 22.6469 125.171 22.6459 125.15C22.6448 125.128 22.6485 125.106 22.6565 125.085L22.7778 124.595C22.2681 124.427 21.8296 124.093 21.5331 123.646C21.5153 123.626 21.5028 123.602 21.4966 123.576C21.4904 123.55 21.4907 123.523 21.4976 123.498C21.5087 123.458 21.5349 123.423 21.5706 123.402C21.6064 123.38 21.649 123.373 21.6898 123.383C21.7107 123.386 21.7306 123.395 21.7479 123.407C21.7653 123.419 21.7798 123.435 21.7903 123.453C22.0377 123.856 22.4154 124.162 22.8605 124.32L23.3011 122.546C22.4141 122.108 22.1185 121.659 22.2781 121.053C22.4378 120.447 23.0971 120.083 23.8599 120.254L23.919 120.018C23.9307 119.98 23.9564 119.948 23.991 119.928C24.0257 119.908 24.0665 119.902 24.1053 119.912ZM23.3809 122.235L23.8007 120.541C23.2094 120.405 22.7098 120.665 22.6004 121.112C22.491 121.558 22.627 121.842 23.3809 122.235ZM23.5583 122.682L23.1414 124.394C23.7623 124.536 24.256 124.275 24.3743 123.802C24.4926 123.329 24.324 123.063 23.5583 122.697V122.682Z" fill="black"/>
</g>
</svg>
