<svg width="360" height="338" viewBox="0 0 360 338" fill="none" xmlns="http://www.w3.org/2000/svg">
<path d="M4.25578 213.398C1.75928 208.899 0.652937 203.762 1.07666 198.634C1.50039 193.507 3.43516 188.62 6.63627 184.593C9.83737 180.565 14.161 177.577 19.0604 176.007C23.9598 174.436 29.2148 174.354 34.1607 175.771C39.1067 177.188 43.5216 180.039 46.8468 183.965C50.1721 187.891 52.2585 192.714 52.842 197.826C53.4256 202.938 52.4802 208.108 50.1253 212.682C47.7705 217.256 44.112 221.029 39.6125 223.524C33.5809 226.869 26.4678 227.681 19.8375 225.782C13.2072 223.883 7.60244 219.428 4.25578 213.398Z" fill="#EBEBEB"/>
<path d="M171.907 302.788C250.382 302.788 313.998 297.111 313.998 290.109C313.998 283.106 250.382 277.43 171.907 277.43C93.4326 277.43 29.8164 283.106 29.8164 290.109C29.8164 297.111 93.4326 302.788 171.907 302.788Z" fill="#E1E1E1"/>
<path d="M40.6541 200.42C38.9499 209.102 31.1826 216.098 31.1826 216.098C31.1826 216.098 20.9217 214.026 15.0379 207.425C10.1317 201.909 10.2483 194.473 14.8226 191.603C21.3702 187.495 26.5993 199.424 26.5993 199.424C26.5993 199.424 25.0476 186.49 32.7701 186.697C38.1517 186.84 42.0622 193.182 40.6541 200.42Z" fill="white"/>
<path d="M269.02 267.08C266.031 268.591 262.64 269.116 259.333 268.581C256.027 268.046 252.975 266.477 250.614 264.101C248.254 261.724 246.707 258.662 246.194 255.352C245.682 252.042 246.231 248.654 247.762 245.675C249.293 242.696 251.728 240.279 254.718 238.769C257.708 237.259 261.099 236.735 264.406 237.271C267.712 237.807 270.763 239.376 273.123 241.754C275.482 244.131 277.029 247.194 277.54 250.504C278.076 253.815 277.539 257.21 276.005 260.193C274.472 263.176 272.024 265.589 269.02 267.08Z" fill="#607FE1"/>
<path d="M248.49 49.9873H96.9096C94.8758 49.9996 92.8654 50.2915 90.9933 50.8464C89.1212 51.4013 87.4241 52.2083 85.9989 53.2213C84.5738 54.2343 83.4485 55.4334 82.6874 56.7501C81.9262 58.0668 81.5442 59.4753 81.5632 60.8951V278.801C81.5273 281.668 83.1238 284.428 86.0016 286.473C88.8794 288.519 92.8029 289.683 96.9096 289.709H248.49C252.599 289.684 256.526 288.521 259.407 286.476C262.288 284.43 263.888 281.67 263.854 278.801V60.8951C263.872 59.4745 263.488 58.0653 262.726 56.7482C261.963 55.431 260.836 54.2317 259.409 53.2187C257.983 52.2057 256.284 51.399 254.41 50.8445C252.537 50.2901 250.525 49.9988 248.49 49.9873ZM254.257 272.07C254.257 277.806 248.104 282.446 240.525 282.446H104.874C97.2594 282.446 91.1154 277.806 91.1154 272.07V69.1543C91.1154 57.47 97.2594 56.9002 104.874 56.9002H132.042C133.621 56.9002 134.912 58.1525 134.912 59.7054V60.3754C134.912 64.0134 137.764 64.026 141.271 64.026H204.056C207.644 64.026 210.415 64.026 210.415 60.3754V59.7054C210.415 58.1525 211.689 56.9002 213.303 56.9002H240.48C248.059 56.9002 254.212 58.4531 254.212 69.1543L254.257 272.07Z" fill="#263238"/>
<path d="M181.257 57.3599H164.117C163.836 57.3599 163.567 57.2484 163.369 57.0499C163.17 56.8514 163.059 56.5822 163.059 56.3015C163.059 56.0208 163.17 55.7516 163.369 55.5532C163.567 55.3547 163.836 55.2432 164.117 55.2432H181.257C181.538 55.2432 181.807 55.3547 182.006 55.5532C182.204 55.7516 182.316 56.0208 182.316 56.3015C182.316 56.5822 182.204 56.8514 182.006 57.0499C181.807 57.2484 181.538 57.3599 181.257 57.3599Z" fill="white"/>
<path d="M254.259 69.034V272.591C254.259 278.345 248.106 283 240.527 283H104.876C97.2611 283 91.1172 278.345 91.1172 272.591V69.034C91.1172 57.3128 97.2611 56.7412 104.876 56.7412H132.044C133.622 56.7412 134.914 57.9975 134.914 59.5553V60.2274C134.914 63.877 137.766 63.8895 141.273 63.8895H204.058C207.646 63.8895 210.417 63.8895 210.417 60.2274V59.5553C210.417 57.9975 211.691 56.7412 213.305 56.7412H240.482C248.106 56.7663 254.259 58.299 254.259 69.034Z" fill="white"/>
<path d="M237.77 44.848C237.636 44.7493 234.407 42.5608 233.025 40.0136C232.057 38.2197 231.922 36.2375 232.694 34.9459C232.918 34.551 233.245 34.2237 233.639 33.9981C234.034 33.7725 234.482 33.6569 234.936 33.6633C235.605 33.6932 236.251 33.9145 236.798 34.3008C237.345 34.6872 237.77 35.2224 238.021 35.8429C238.273 35.2224 238.698 34.6872 239.245 34.3008C239.791 33.9145 240.438 33.6932 241.107 33.6633C241.561 33.6569 242.009 33.7725 242.403 33.9981C242.798 34.2237 243.124 34.551 243.349 34.9459C243.715 35.7527 243.876 36.6373 243.818 37.5214C243.761 38.4054 243.485 39.2615 243.017 40.0136C241.627 42.5608 238.407 44.7493 238.272 44.848H237.77ZM234.936 34.5603C234.637 34.5546 234.343 34.63 234.084 34.7785C233.825 34.927 233.611 35.1429 233.465 35.4034C233.178 36.0758 233.06 36.8081 233.121 37.5366C233.182 38.2651 233.42 38.9676 233.815 39.583C234.922 41.2895 236.351 42.764 238.021 43.9242C239.69 42.7614 241.118 41.2874 242.228 39.583C242.622 38.9676 242.861 38.2651 242.922 37.5366C242.983 36.8081 242.864 36.0758 242.578 35.4034C242.432 35.1429 242.218 34.927 241.959 34.7785C241.7 34.63 241.405 34.5546 241.107 34.5603C239.062 34.5603 238.479 37.1524 238.461 37.251H237.564C237.555 37.1524 236.981 34.5603 234.936 34.5603Z" fill="#EBEBEB"/>
<path d="M254.268 106.493H91.1172V269.644H254.268V106.493Z" fill="#F8F8F8"/>
<path d="M145.781 192.796C145.019 194.186 143.028 194.518 141.539 194.931C139.35 195.55 137.162 196.177 134.964 196.787L122.138 200.375C119.977 200.985 117.824 201.658 115.645 202.169C114.102 202.546 111.268 200.994 111.492 201.084C110.487 197.864 110.819 194.132 113.635 191.72C113.878 191.513 114.532 191.226 114.658 190.984C114.963 190.464 114.514 189.684 114.326 189.19C113.919 188.105 113.454 187.043 112.936 186.006C112.714 185.509 112.459 185.026 112.173 184.562C111.752 183.916 111.115 183.988 110.38 184.042C109.582 184.166 108.767 184.008 108.074 183.594C106.774 182.634 107.689 181.459 108.559 180.58C109.754 179.38 111.135 178.38 112.649 177.62C115.767 176.053 119.329 175.604 122.739 176.346C126.426 177.172 129.018 179.53 131.332 182.141C131.978 182.876 132.417 183.54 133.529 183.71C134.489 183.872 135.449 183.952 136.408 184.123C138.309 184.417 140.149 185.023 141.853 185.917C144.059 187.271 147.189 190.195 145.781 192.796Z" fill="#C7C7C7"/>
<path d="M144.663 196.159C142.995 197.289 140.941 197.621 138.923 197.953C137.714 198.131 136.527 198.431 135.38 198.85C134.333 199.292 133.325 199.82 132.366 200.428C130.504 201.551 128.517 202.454 126.446 203.119C124.339 203.777 122.157 204.171 119.953 204.294C117.908 204.411 115.54 204.447 113.674 203.577C112.955 203.313 112.343 202.818 111.937 202.168C111.531 201.518 111.353 200.751 111.432 199.989C111.591 199.227 111.994 198.538 112.58 198.025C113.235 197.442 114.652 197.011 114.67 196.052C114.67 194.85 109.288 192.921 107.163 188.93C106.266 187.217 105.701 185.091 106.642 183.288C107.584 181.485 109.674 180.598 111.746 180.266C113.972 180.033 116.221 180.13 118.419 180.553C120.712 180.929 122.956 181.558 125.11 182.427C127.218 183.279 129.191 184.365 131.263 185.279C133.427 186.221 135.707 186.867 138.044 187.199C141.425 187.692 146.331 188.643 146.771 192.428C146.798 193.184 146.615 193.932 146.243 194.591C145.871 195.249 145.324 195.792 144.663 196.159Z" fill="#DBDBDB"/>
<path d="M114.293 198.626C114.133 198.654 113.983 198.724 113.86 198.83C113.737 198.936 113.644 199.073 113.593 199.227C113.525 199.379 113.506 199.548 113.539 199.711C113.531 199.771 113.531 199.831 113.539 199.891C113.574 200.078 113.667 200.249 113.805 200.38C113.943 200.51 114.12 200.594 114.308 200.617C114.497 200.641 114.688 200.605 114.855 200.513C115.021 200.421 115.154 200.279 115.234 200.106C115.326 199.95 115.372 199.771 115.369 199.59C115.365 199.409 115.312 199.232 115.215 199.079C115.117 198.926 114.98 198.803 114.817 198.723C114.655 198.643 114.473 198.61 114.293 198.626Z" fill="#C7C7C7"/>
<path d="M140.744 194.913V194.841C140.768 194.751 140.768 194.656 140.742 194.566C140.717 194.476 140.668 194.394 140.6 194.33C140.562 194.298 140.52 194.271 140.475 194.249C140.42 194.206 140.356 194.175 140.288 194.16C140.22 194.145 140.15 194.145 140.082 194.16C140.014 194.176 139.95 194.206 139.896 194.249C139.841 194.293 139.797 194.348 139.766 194.41C139.515 194.886 140.116 195.523 140.573 195.119C140.622 195.077 140.662 195.025 140.69 194.967L140.744 194.913Z" fill="#C7C7C7"/>
<path d="M110.732 182.543V182.472C110.755 182.383 110.754 182.289 110.729 182.201C110.704 182.112 110.655 182.032 110.588 181.969C110.551 181.935 110.509 181.908 110.462 181.889C110.408 181.845 110.344 181.815 110.276 181.8C110.208 181.784 110.138 181.784 110.07 181.8C110.002 181.815 109.938 181.846 109.883 181.889C109.829 181.932 109.784 181.987 109.754 182.05C109.503 182.525 110.113 183.162 110.561 182.759C110.613 182.713 110.655 182.658 110.687 182.597C110.687 182.597 110.732 182.552 110.732 182.543Z" fill="#C7C7C7"/>
<path d="M117.853 198.348C117.769 198.314 117.677 198.31 117.591 198.338C117.506 198.366 117.433 198.424 117.386 198.501C117.371 198.531 117.363 198.565 117.363 198.599C117.363 198.633 117.371 198.667 117.386 198.698C117.394 198.776 117.427 198.849 117.481 198.907C117.534 198.964 117.605 199.002 117.683 199.016C117.76 199.029 117.84 199.016 117.909 198.98C117.979 198.944 118.034 198.886 118.068 198.815C118.085 198.77 118.093 198.722 118.091 198.674C118.09 198.626 118.079 198.579 118.058 198.536C118.038 198.492 118.01 198.453 117.975 198.421C117.939 198.389 117.898 198.364 117.853 198.348Z" fill="#C7C7C7"/>
<path d="M128.743 189.629C128.66 189.595 128.567 189.591 128.481 189.619C128.396 189.647 128.323 189.705 128.276 189.782C128.259 189.812 128.25 189.846 128.25 189.881C128.25 189.915 128.259 189.949 128.276 189.979C128.284 190.057 128.318 190.131 128.371 190.188C128.425 190.245 128.496 190.284 128.573 190.297C128.65 190.31 128.73 190.298 128.799 190.261C128.869 190.225 128.925 190.167 128.958 190.096C128.975 190.051 128.983 190.003 128.982 189.956C128.98 189.908 128.969 189.861 128.949 189.817C128.929 189.774 128.9 189.735 128.865 189.702C128.829 189.67 128.788 189.645 128.743 189.629Z" fill="#C7C7C7"/>
<path d="M142.654 194.912C142.57 194.877 142.476 194.873 142.389 194.901C142.302 194.929 142.227 194.987 142.179 195.065C142.164 195.095 142.156 195.129 142.156 195.163C142.156 195.198 142.164 195.231 142.179 195.262C142.187 195.34 142.22 195.414 142.274 195.471C142.327 195.528 142.398 195.567 142.476 195.58C142.553 195.593 142.633 195.58 142.702 195.544C142.772 195.508 142.827 195.45 142.861 195.379C142.878 195.335 142.887 195.287 142.886 195.24C142.885 195.193 142.874 195.146 142.855 195.102C142.836 195.059 142.808 195.02 142.774 194.987C142.739 194.955 142.699 194.929 142.654 194.912Z" fill="#C7C7C7"/>
<path d="M180.764 122.871C180.656 124.333 178.782 124.773 177.625 125.096C174.154 126.074 170.449 125.706 166.96 125.23C163.166 124.728 159.211 124.02 155.426 124.899C153.982 125.167 152.609 125.728 151.391 126.547C150.172 127.366 149.134 128.426 148.34 129.661C170.97 126.89 177.32 143.913 175.876 144.559C174.261 145.295 169.292 147.501 167.534 147.68C163.669 148.075 159.749 147.636 155.874 147.483C151.811 147.313 147.748 147.223 143.685 147.106C135.661 146.994 127.649 146.449 119.683 145.474C115.683 144.941 111.72 144.159 107.817 143.133C105.001 142.389 100.292 141.877 100.579 138.747C101.099 133.15 106.095 124.477 119.082 125.437C119.068 120.986 120.62 116.672 123.467 113.252C126.314 109.831 130.274 107.521 134.653 106.727C137.44 106.282 140.29 106.453 143.003 107.228C145.716 108.003 148.227 109.362 150.358 111.211C153.977 109.207 158.217 108.636 162.238 109.611C166.258 110.586 169.765 113.037 172.064 116.476C173.438 116.208 174.861 116.332 176.168 116.835C177.475 117.338 178.614 118.199 179.454 119.32C180.288 120.317 180.751 121.572 180.764 122.871Z" fill="#C7C7C7"/>
<path d="M183.811 124.342C182.914 126.674 180.582 128.109 178.349 128.97C172.698 131.159 166.5 129.867 160.67 129.338C157.752 128.983 154.8 129.011 151.889 129.419C149.199 129.867 145.701 130.952 144.14 133.347C143.046 135.024 144.364 136.791 146.068 137.276C147.638 137.724 149.351 137.276 150.93 137.123C154.412 136.658 157.92 136.413 161.433 136.388C166.644 136.388 173.093 137.078 175.371 142.585C175.832 143.669 175.992 144.856 175.834 146.023C175.676 147.19 175.206 148.292 174.474 149.214C173.23 150.918 171.601 152.304 169.72 153.259C167.982 154.789 165.709 155.573 163.397 155.438C159.262 155.349 155.325 153.734 151.27 152.972C149.343 152.563 147.364 152.457 145.405 152.658C143.55 153.008 141.722 153.484 139.933 154.084C136.453 155.044 132.774 155.007 129.314 153.976C125.861 152.936 122.757 151.034 119.286 150.021C116.057 149.124 112.73 148.487 109.546 147.402C106.702 146.424 103.635 144.989 101.769 142.541C101.333 142.006 101.009 141.39 100.814 140.728C100.619 140.067 100.557 139.373 100.633 138.688C100.709 138.002 100.921 137.339 101.256 136.736C101.591 136.133 102.043 135.603 102.585 135.177C105.333 132.987 108.749 131.806 112.263 131.831C121.869 131.831 122.39 127.221 121.869 125.965C121.343 124.83 121.08 123.589 121.1 122.337C121.12 121.086 121.423 119.855 121.986 118.736C123.162 116.665 125.01 115.057 127.224 114.18C129.876 113.201 132.755 113.014 135.512 113.642C138.714 114.252 141.548 115.732 144.624 116.709C148.149 117.83 151.531 116.709 154.948 115.812C158.044 114.904 161.218 114.282 164.428 113.956C167.615 113.622 170.833 113.733 173.99 114.287C176.761 114.799 179.73 115.633 181.856 117.579C183.685 119.23 184.753 121.929 183.811 124.342Z" fill="#DBDBDB"/>
<path d="M163.855 148.864C163.696 148.894 163.547 148.966 163.426 149.074C163.304 149.181 163.214 149.32 163.165 149.474C163.089 149.624 163.067 149.795 163.102 149.959C163.09 150.018 163.09 150.079 163.102 150.138C163.137 150.325 163.23 150.496 163.368 150.627C163.506 150.757 163.682 150.841 163.871 150.865C164.06 150.889 164.251 150.852 164.418 150.76C164.584 150.668 164.717 150.526 164.797 150.353C164.884 150.196 164.928 150.017 164.922 149.837C164.917 149.657 164.863 149.482 164.767 149.33C164.671 149.178 164.535 149.054 164.375 148.972C164.215 148.89 164.035 148.853 163.855 148.864Z" fill="#C7C7C7"/>
<path d="M108.443 139.85V139.778C108.467 139.688 108.466 139.593 108.441 139.503C108.416 139.413 108.367 139.331 108.299 139.267C108.264 139.238 108.224 139.214 108.182 139.195C108.128 139.151 108.064 139.121 107.995 139.104C107.927 139.088 107.856 139.088 107.788 139.102C107.719 139.117 107.655 139.146 107.599 139.189C107.543 139.231 107.497 139.285 107.465 139.348C107.214 139.832 107.824 140.469 108.272 140.056C108.321 140.012 108.364 139.96 108.398 139.904C108.398 139.904 108.443 139.859 108.443 139.85Z" fill="#C7C7C7"/>
<path d="M175.157 119.06C175.165 119.037 175.165 119.011 175.157 118.988C175.182 118.898 175.181 118.803 175.156 118.713C175.13 118.623 175.081 118.541 175.014 118.477C174.98 118.446 174.94 118.421 174.897 118.405C174.842 118.361 174.779 118.33 174.71 118.314C174.642 118.298 174.571 118.298 174.503 118.312C174.434 118.327 174.369 118.356 174.314 118.399C174.258 118.441 174.212 118.495 174.18 118.558C173.929 119.042 174.538 119.679 174.987 119.275C175.041 119.232 175.084 119.177 175.112 119.114L175.157 119.06Z" fill="#C7C7C7"/>
<path d="M108.696 136.81C108.613 136.777 108.521 136.774 108.436 136.802C108.351 136.83 108.278 136.887 108.23 136.962C108.215 136.995 108.207 137.03 108.207 137.065C108.207 137.101 108.215 137.136 108.23 137.169C108.235 137.232 108.257 137.292 108.294 137.344C108.33 137.396 108.38 137.437 108.437 137.464C108.495 137.49 108.558 137.501 108.621 137.495C108.684 137.489 108.745 137.467 108.796 137.43C108.848 137.393 108.888 137.343 108.915 137.286C108.941 137.228 108.951 137.164 108.944 137.101C108.938 137.038 108.915 136.978 108.878 136.927C108.84 136.876 108.79 136.835 108.732 136.81H108.696Z" fill="#C7C7C7"/>
<path d="M142.536 119.069C142.453 119.034 142.36 119.031 142.275 119.059C142.189 119.087 142.116 119.144 142.07 119.221C142.055 119.252 142.047 119.286 142.047 119.32C142.047 119.354 142.055 119.388 142.07 119.419C142.074 119.482 142.094 119.544 142.13 119.597C142.165 119.65 142.214 119.692 142.271 119.72C142.329 119.748 142.392 119.76 142.456 119.755C142.52 119.75 142.581 119.728 142.633 119.692C142.685 119.655 142.727 119.606 142.754 119.548C142.78 119.49 142.791 119.426 142.785 119.362C142.779 119.299 142.756 119.238 142.718 119.187C142.681 119.135 142.63 119.094 142.572 119.069H142.536Z" fill="#C7C7C7"/>
<path d="M178.61 118.163C178.528 118.126 178.435 118.12 178.349 118.146C178.264 118.173 178.19 118.23 178.143 118.306C178.126 118.338 178.117 118.374 178.117 118.41C178.117 118.446 178.126 118.481 178.143 118.513C178.149 118.574 178.171 118.633 178.206 118.683C178.242 118.733 178.29 118.773 178.345 118.799C178.401 118.825 178.463 118.835 178.524 118.83C178.585 118.824 178.644 118.802 178.694 118.767C178.744 118.731 178.784 118.683 178.81 118.627C178.836 118.571 178.846 118.509 178.84 118.448C178.834 118.387 178.812 118.328 178.777 118.278C178.741 118.228 178.693 118.188 178.637 118.163H178.61Z" fill="#C7C7C7"/>
<path d="M132.392 167.278C130.868 170.453 126.76 169.583 124.132 168.74C120.212 167.485 116.32 166.157 112.328 165.153C108.301 164.091 104.139 163.632 99.9775 163.789C98.4528 163.879 96.4526 164.489 95.0803 163.538C94.6507 163.276 94.3361 162.862 94.1996 162.378C94.0632 161.893 94.1151 161.376 94.3449 160.928C94.1027 158.013 96.632 155.851 99.3587 154.954C99.9922 154.813 100.546 154.43 100.901 153.887C101.135 153.519 101.314 153.125 101.547 152.757C102.007 152.029 102.536 151.348 103.126 150.721C104.294 149.49 105.673 148.479 107.198 147.734C110 146.411 113.166 146.071 116.185 146.769C119.204 147.468 121.899 149.163 123.836 151.582C124.365 152.246 124.733 153.008 125.28 153.69C125.902 154.419 126.653 155.027 127.495 155.484C128.771 156.325 129.871 157.406 130.733 158.668C131.637 159.991 132.266 161.482 132.581 163.054C132.953 164.448 132.888 165.923 132.392 167.278Z" fill="#C7C7C7"/>
<path d="M131.511 169.252C130.964 170.006 130.272 170.645 129.476 171.13C128.68 171.615 127.795 171.937 126.874 172.077C123.053 172.669 119.779 170.552 116.676 168.642C114.993 167.458 112.91 166.987 110.882 167.332C109.226 167.706 107.549 167.973 105.859 168.131C102.63 168.256 98.8181 167.593 96.1812 165.601C94.0196 163.969 93.1944 160.785 95.634 158.991C97.0133 158.129 98.5663 157.584 100.181 157.395C102.082 157.074 103.931 156.501 105.68 155.69C108.729 154.125 112.122 153.349 115.548 153.432C118.974 153.515 122.326 154.455 125.295 156.166C128.075 157.742 130.394 160.018 132.022 162.767C133.143 164.812 133.377 167.673 131.511 169.252Z" fill="#DBDBDB"/>
<path d="M125.781 163.107C125.622 163.137 125.473 163.21 125.352 163.317C125.23 163.424 125.14 163.563 125.091 163.717C125.015 163.867 124.993 164.038 125.028 164.202C125.02 164.261 125.02 164.322 125.028 164.381C125.062 164.568 125.156 164.739 125.294 164.87C125.432 165 125.608 165.084 125.797 165.108C125.985 165.132 126.177 165.095 126.343 165.003C126.51 164.911 126.643 164.769 126.723 164.596C126.81 164.439 126.853 164.261 126.848 164.081C126.843 163.901 126.789 163.725 126.693 163.573C126.597 163.421 126.461 163.297 126.301 163.215C126.14 163.133 125.961 163.096 125.781 163.107Z" fill="#C7C7C7"/>
<path d="M129.099 165.879C129.103 165.855 129.103 165.831 129.099 165.807C129.125 165.719 129.126 165.624 129.1 165.535C129.075 165.446 129.025 165.366 128.955 165.305C128.922 165.271 128.882 165.244 128.839 165.224C128.784 165.181 128.72 165.15 128.652 165.134C128.583 165.118 128.512 165.117 128.444 165.131C128.375 165.146 128.311 165.176 128.255 165.218C128.199 165.26 128.153 165.315 128.121 165.377C127.87 165.861 128.48 166.498 128.937 166.094C128.986 166.048 129.026 165.994 129.054 165.933L129.099 165.879Z" fill="#C7C7C7"/>
<path d="M109.483 165.959C109.488 165.936 109.488 165.911 109.483 165.888C109.505 165.796 109.502 165.701 109.476 165.611C109.449 165.521 109.399 165.44 109.33 165.376C109.296 165.345 109.257 165.321 109.214 165.305C109.159 165.261 109.095 165.23 109.027 165.214C108.958 165.198 108.887 165.197 108.819 165.212C108.75 165.226 108.686 165.256 108.63 165.298C108.574 165.341 108.528 165.395 108.496 165.457C108.245 165.941 108.855 166.578 109.312 166.166C109.359 166.121 109.398 166.07 109.429 166.013L109.483 165.959Z" fill="#C7C7C7"/>
<path d="M129.35 162.838C129.265 162.803 129.171 162.799 129.084 162.827C128.997 162.855 128.923 162.913 128.874 162.991C128.859 163.021 128.852 163.055 128.852 163.089C128.852 163.123 128.859 163.157 128.874 163.188C128.882 163.266 128.916 163.339 128.969 163.397C129.023 163.454 129.094 163.492 129.171 163.506C129.248 163.519 129.328 163.506 129.397 163.47C129.467 163.434 129.523 163.375 129.556 163.304C129.589 163.215 129.585 163.117 129.547 163.03C129.508 162.943 129.438 162.874 129.35 162.838Z" fill="#C7C7C7"/>
<path d="M111.979 155.447C111.894 155.412 111.8 155.408 111.713 155.436C111.626 155.464 111.552 155.522 111.503 155.6C111.488 155.631 111.48 155.664 111.48 155.699C111.48 155.733 111.488 155.767 111.503 155.797C111.511 155.875 111.544 155.949 111.598 156.006C111.652 156.063 111.722 156.102 111.8 156.115C111.877 156.128 111.957 156.116 112.026 156.079C112.096 156.043 112.152 155.985 112.185 155.914C112.202 155.87 112.211 155.823 112.21 155.775C112.209 155.728 112.198 155.681 112.179 155.638C112.16 155.594 112.132 155.555 112.098 155.522C112.064 155.49 112.023 155.464 111.979 155.447Z" fill="#C7C7C7"/>
<path d="M98.8643 164.417C98.7814 164.38 98.688 164.376 98.6019 164.404C98.5159 164.432 98.4432 164.491 98.3979 164.569C98.3828 164.6 98.375 164.634 98.375 164.668C98.375 164.702 98.3828 164.736 98.3979 164.767C98.3986 164.849 98.4286 164.929 98.4827 164.992C98.5367 165.055 98.6113 165.096 98.6931 165.109C98.7749 165.122 98.8586 165.106 98.9294 165.063C99.0002 165.02 99.0534 164.953 99.0795 164.874C99.0965 164.83 99.1044 164.783 99.1027 164.736C99.101 164.689 99.0897 164.642 99.0696 164.6C99.0495 164.557 99.0209 164.519 98.9857 164.487C98.9504 164.456 98.9091 164.432 98.8643 164.417Z" fill="#C7C7C7"/>
<path d="M169.319 269.357H142.976C142.976 269.357 156.026 254.109 161.381 241.418C162.535 238.859 163.282 236.135 163.596 233.346C163.892 229.336 164.305 224.897 164.215 220.403C164.027 211.147 161.677 201.693 151.721 195.567C150.686 194.933 149.617 194.355 148.519 193.836C138.464 189.091 130.58 196.034 128.706 197.514C128.284 197.863 127.638 198.41 126.84 198.94C124.203 200.823 119.889 203.263 116.194 201.81C115.297 201.442 118.884 202.016 121.468 200.707C124.051 199.397 129.486 194.249 132.841 192.939C129.295 193.289 125.722 192.639 122.526 191.064C119.331 189.488 116.64 187.049 114.759 184.024C115.189 184.562 122.194 193.998 134.312 191.298C137.989 190.482 144.124 189.917 148.214 191.388C148.214 191.388 149.523 182.472 132.428 174.454C115.333 166.435 114.319 157.242 114.741 156.345C115.099 155.591 116.965 160.21 119.916 163.888C120.512 164.643 121.169 165.348 121.88 165.996C124.472 168.319 129.154 170.48 133.926 172.893C139.72 175.853 145.631 179.234 148.052 183.907C148.052 183.907 147.909 180.185 148.052 175.646C148.106 174.202 148.178 172.669 148.295 171.162C148.618 167.072 145.918 157.789 139.128 152.326C137.085 150.676 134.727 149.458 132.198 148.748C129.669 148.037 127.023 147.848 124.418 148.192C122.122 148.443 123.522 146.891 127.683 146.559C130.625 146.48 133.55 147.011 136.276 148.12C135.641 147.377 135.071 146.582 134.572 145.743C133.264 143.668 132.451 141.321 132.195 138.882C132.004 136.759 131.394 134.695 130.401 132.809C129.594 131.186 128.849 130.119 129.02 129.715C129.352 128.908 131.962 130.702 133.11 136.101C133.903 133.519 134.831 130.98 135.89 128.495C136.877 126.612 134.993 122.279 135.89 122.109C136.787 121.939 138.581 125.697 135.89 132.747C133.199 139.796 135.729 144.523 138.832 147.223C141.935 149.923 148.384 157.385 150.017 164.668C150.017 164.668 150.483 160.094 151.272 151.313C151.846 144.882 155.757 139.698 156.744 140.11C157.73 140.523 152.986 146.156 152.743 152.21C152.663 154.165 152.743 156.174 152.815 158.156C152.995 162.327 153.273 166.426 152.465 169.816C151.914 172.167 151.673 174.579 151.748 176.992C151.788 178.555 151.959 180.112 152.259 181.647C152.818 185.093 154.251 188.339 156.421 191.074C158.735 193.764 163.713 197.46 167.426 203.541C170.285 208.217 171.851 213.569 171.964 219.049C172.422 235.193 165.229 262.675 169.319 269.357Z" fill="white"/>
<path d="M170.549 216.376C170.001 212.295 167.598 208.097 165.499 204.545C165.445 204.465 165.319 204.545 165.373 204.617C169.185 211.425 169.607 219.497 168.88 227.103C168.082 235.435 165.095 243.535 164.539 251.894C164.243 256.379 165.185 261.034 166.432 265.348C166.446 265.401 166.481 265.447 166.529 265.475C166.577 265.503 166.634 265.51 166.687 265.496C166.741 265.482 166.786 265.447 166.814 265.399C166.842 265.351 166.85 265.294 166.835 265.24C165.041 256.773 166.145 248.342 167.598 239.92C168.952 232.117 171.625 224.349 170.549 216.376Z" fill="#EBEBEB"/>
<path d="M162.644 244.028C160.771 248.574 158.644 253.012 156.276 257.32C155.11 259.563 154.006 261.805 152.984 264.137C152.212 265.868 151.522 267.635 150.795 269.384H147.809C149.432 264.639 152.553 260.558 155.37 256.45C157.096 253.963 158.662 251.368 160.061 248.683C161.505 245.866 162.581 242.934 163.765 240.01C163.774 239.987 163.791 239.969 163.813 239.959C163.835 239.948 163.86 239.946 163.883 239.953C163.906 239.96 163.926 239.975 163.939 239.995C163.952 240.015 163.957 240.04 163.953 240.063C163.593 241.408 163.15 242.729 162.626 244.019L162.644 244.028Z" fill="#EBEBEB"/>
<path d="M163.908 247.239C163.478 248.935 163.011 250.612 162.536 252.28C162.536 252.415 162.473 252.549 162.446 252.693C162.062 254.631 161.817 256.594 161.711 258.567C161.603 260.451 161.63 262.339 161.792 264.218C162.041 265.929 162.172 267.655 162.186 269.384H156.805C157.074 265.608 158.599 262.03 159.953 258.523C160.644 256.729 161.298 255.007 161.881 253.213C162.043 252.729 162.195 252.244 162.348 251.76C162.59 250.782 162.859 249.822 163.164 248.872C163.253 248.407 163.407 247.957 163.621 247.535C163.666 247.428 163.702 247.311 163.738 247.195C163.774 247.078 163.935 247.132 163.908 247.239Z" fill="#EBEBEB"/>
<path d="M166.862 222.906C166.855 222.932 166.839 222.956 166.817 222.972C166.795 222.989 166.769 222.998 166.741 222.998C166.714 222.998 166.687 222.989 166.665 222.972C166.643 222.956 166.627 222.932 166.62 222.906C166.509 219.849 166.088 216.81 165.364 213.838C164.625 210.976 163.569 208.205 162.216 205.577C159.75 200.85 156.027 196.213 151.453 193.37C153.57 194.536 155.514 195.991 157.229 197.693C161.381 200.586 164.269 204.956 165.302 209.909C165.607 211.371 165.849 212.887 166.019 214.394C166.622 217.19 166.905 220.046 166.862 222.906Z" fill="#EBEBEB"/>
<path d="M165.254 234.305C164.599 237.059 162.984 239.212 161.379 241.481C162.533 238.922 163.28 236.198 163.594 233.408C163.89 229.399 164.303 224.959 164.213 220.466C165.209 225.049 166.357 229.641 165.254 234.305Z" fill="#EBEBEB"/>
<path d="M167.399 203.496C166.386 202.35 165.315 201.258 164.188 200.223C161.982 198.214 159.372 196.635 157.291 194.527C155.629 192.819 154.325 190.795 153.457 188.576C152.588 186.356 152.172 183.985 152.232 181.603C152.791 185.049 154.224 188.294 156.394 191.029C158.708 193.684 163.722 197.415 167.399 203.496Z" fill="#EBEBEB"/>
<path d="M133.924 172.902C131.673 172.44 129.475 171.746 127.368 170.83C125.349 169.72 123.548 168.255 122.049 166.507C121.264 165.699 120.55 164.826 119.914 163.896C120.51 164.652 121.167 165.356 121.878 166.004C124.47 168.327 129.152 170.471 133.924 172.902Z" fill="#EBEBEB"/>
<path d="M148.295 171.153C148.618 167.063 145.919 157.78 139.129 152.317C141.099 153.493 142.843 155.012 144.277 156.802C145.788 158.503 147.042 160.416 147.999 162.48C149.793 166.722 148.843 171.242 148.053 175.628C148.107 174.202 148.179 172.669 148.295 171.153Z" fill="#EBEBEB"/>
<path d="M151.721 195.621C150.685 194.986 149.616 194.408 148.519 193.89C138.464 189.145 130.58 196.087 128.705 197.567C128.284 197.917 127.638 198.464 126.84 198.993C129.935 195.191 134.224 192.545 139.011 191.486C141.507 190.871 144.134 191.069 146.509 192.051C148.477 192.864 150.252 194.08 151.721 195.621Z" fill="#EBEBEB"/>
<path d="M144.654 181.037C142.134 177.521 137.918 175.521 133.981 174.023C133.981 174.023 133.936 174.023 133.981 174.077C137.703 176.212 141.425 178.095 144.457 181.208C144.547 181.315 144.744 181.172 144.654 181.037Z" fill="#EBEBEB"/>
<path d="M155.156 193.935C153.613 191.791 151.972 189.45 151.398 186.84C150.761 183.979 150.842 181.073 150.591 178.176C150.591 178.152 150.581 178.129 150.564 178.112C150.548 178.095 150.525 178.086 150.501 178.086C150.477 178.086 150.454 178.095 150.438 178.112C150.421 178.129 150.411 178.152 150.411 178.176C150.277 179.766 150.25 181.363 150.331 182.956C150.324 184.378 150.463 185.796 150.743 187.19C151.398 189.979 153.093 192.006 154.941 194.105C155.039 194.213 155.246 194.06 155.156 193.935Z" fill="#EBEBEB"/>
<path d="M152.437 169.799C151.886 172.149 151.645 174.561 151.72 176.974V176.929C150.536 173.207 151.002 169.054 151.72 165.269C152.15 162.877 152.527 160.486 152.85 158.094C152.957 162.291 153.244 166.39 152.437 169.799Z" fill="#EBEBEB"/>
<path d="M145.558 156.345C144.317 154.514 142.876 152.826 141.262 151.313C139.495 149.767 137.966 147.969 136.724 145.977C136.67 145.878 136.526 145.977 136.571 146.066C137.603 148.054 138.938 149.869 140.526 151.448C142.222 153.046 143.835 154.728 145.361 156.489C145.451 156.605 145.63 156.462 145.558 156.345Z" fill="#EBEBEB"/>
<path d="M134.561 145.707C133.254 143.632 132.441 141.285 132.184 138.846C131.993 136.723 131.384 134.659 130.391 132.773C131.516 134.234 132.378 135.879 132.938 137.635C133.228 138.864 133.375 140.121 133.377 141.384C133.513 142.884 133.914 144.347 134.561 145.707Z" fill="#EBEBEB"/>
<path d="M237.106 188.293C236.435 188.519 235.714 188.553 235.025 188.391C234.128 188.329 233.231 188.284 232.334 188.266C228.596 188.238 224.86 188.411 221.141 188.786C217.418 189.1 213.687 189.459 209.947 189.539C208.096 189.61 206.242 189.568 204.395 189.414C203.86 189.422 203.332 189.286 202.868 189.019C202.404 188.752 202.02 188.365 201.758 187.898C201.736 187.904 201.712 187.904 201.69 187.899C201.667 187.894 201.646 187.884 201.629 187.869C201.611 187.854 201.597 187.835 201.589 187.813C201.58 187.792 201.577 187.769 201.579 187.746C201.583 186.364 202.108 185.035 203.05 184.023C203.504 183.518 204.041 183.093 204.637 182.768C204.941 182.595 205.263 182.457 205.597 182.355C205.934 182.309 206.267 182.237 206.593 182.14C206.96 181.907 207.185 180.866 207.409 180.445C207.777 179.717 208.209 179.024 208.7 178.373C209.585 177.188 210.65 176.15 211.858 175.296C213.956 173.785 216.494 173.008 219.079 173.085C221.664 173.163 224.151 174.092 226.155 175.727C226.716 176.2 227.224 176.732 227.67 177.314C227.832 177.521 227.957 177.781 228.128 177.978C228.298 178.175 228.487 178.211 228.863 178.202C230.37 178.144 231.871 178.433 233.249 179.045C234.525 179.606 235.634 180.486 236.469 181.602C237.304 182.718 237.835 184.031 238.012 185.414C238.084 186.373 238.102 187.781 237.106 188.293Z" fill="#C7C7C7"/>
<path d="M235.422 190.428C233.94 190.829 232.368 190.744 230.937 190.186C229.906 189.872 229.081 189.387 228.022 189.899C227.287 190.248 226.542 190.58 225.78 190.867C222.733 192.059 219.526 192.79 216.264 193.038C212.981 193.317 209.675 193.072 206.469 192.311C204.299 191.782 201.85 190.392 201.599 188.105C201.564 187.985 201.543 187.862 201.536 187.737C201.411 186.347 202.648 185.369 203.778 184.858C204.547 184.527 205.35 184.283 206.173 184.131C206.627 184.039 207.085 183.97 207.546 183.925C207.904 183.925 208.667 183.988 208.963 183.799C209.259 183.611 209.375 183.172 209.555 182.903C209.734 182.633 209.949 182.355 210.165 182.095C210.65 181.525 211.198 181.011 211.797 180.562C216.856 176.884 223.313 178.355 228.435 181.037C230.04 181.88 231.583 183.216 233.422 183.369C234.841 183.434 236.184 184.033 237.18 185.046C239.001 186.957 237.682 189.647 235.422 190.428Z" fill="#DBDBDB"/>
<path d="M236.58 188.167C236.584 188.149 236.584 188.131 236.58 188.113C236.601 188.036 236.602 187.955 236.581 187.878C236.561 187.8 236.52 187.73 236.463 187.674C236.431 187.648 236.394 187.627 236.356 187.611C236.309 187.574 236.254 187.548 236.196 187.535C236.138 187.521 236.077 187.521 236.019 187.534C235.96 187.547 235.906 187.572 235.858 187.609C235.811 187.646 235.773 187.692 235.746 187.746C235.53 188.158 236.051 188.705 236.436 188.356C236.482 188.319 236.518 188.273 236.544 188.221C236.544 188.221 236.58 188.176 236.58 188.167Z" fill="#C7C7C7"/>
<path d="M217.724 179.934C217.728 179.916 217.728 179.898 217.724 179.88C217.746 179.803 217.746 179.722 217.726 179.644C217.705 179.567 217.665 179.497 217.608 179.44L217.5 179.378C217.453 179.341 217.399 179.315 217.34 179.301C217.282 179.288 217.222 179.288 217.163 179.3C217.105 179.313 217.05 179.339 217.003 179.376C216.956 179.412 216.917 179.459 216.89 179.512C216.675 179.925 217.195 180.472 217.581 180.122C217.626 180.086 217.663 180.04 217.689 179.988L217.724 179.934Z" fill="#C7C7C7"/>
<path d="M208.129 185.808C208.058 185.777 207.978 185.773 207.904 185.796C207.83 185.819 207.767 185.868 207.726 185.934C207.711 185.961 207.703 185.992 207.703 186.024C207.703 186.055 207.711 186.086 207.726 186.113C207.731 186.167 207.75 186.218 207.78 186.261C207.811 186.305 207.853 186.34 207.902 186.363C207.951 186.385 208.004 186.394 208.058 186.389C208.111 186.384 208.162 186.365 208.206 186.334C208.25 186.303 208.284 186.262 208.307 186.213C208.329 186.164 208.338 186.11 208.333 186.057C208.328 186.004 208.309 185.953 208.278 185.909C208.247 185.865 208.205 185.831 208.156 185.808H208.129Z" fill="#C7C7C7"/>
<path d="M234.579 188.795C234.507 188.763 234.426 188.759 234.351 188.784C234.276 188.809 234.213 188.861 234.175 188.93C234.16 188.956 234.152 188.985 234.152 189.015C234.152 189.045 234.16 189.074 234.175 189.1C234.181 189.168 234.208 189.232 234.254 189.282C234.3 189.332 234.361 189.365 234.428 189.376C234.495 189.388 234.564 189.376 234.624 189.344C234.683 189.312 234.731 189.261 234.758 189.199C234.787 189.122 234.785 189.036 234.751 188.96C234.718 188.885 234.656 188.825 234.579 188.795Z" fill="#C7C7C7"/>
<path d="M248.624 151.914C245.933 153.125 242.677 153.116 239.762 153.331C226.613 154.3 213.419 154.39 200.297 155.125C193.705 155.52 187.121 156.076 180.565 157.009C177.488 157.439 174.286 158.327 171.129 157.771C170.028 157.625 168.98 157.21 168.077 156.562C167.174 155.914 166.445 155.054 165.954 154.058L165.864 154.363C165.864 154.435 165.73 154.417 165.748 154.363C165.766 154.309 165.828 154.04 165.873 153.878C165.853 153.836 165.849 153.788 165.863 153.744C165.876 153.699 165.905 153.661 165.945 153.636C166.527 151.115 167.297 148.642 168.25 146.237C169.874 142.344 172.475 138.64 176.322 136.72C180.17 134.801 184.637 135.007 188.709 135.976C188.992 134.739 189.349 133.52 189.776 132.325C191.642 127.141 195.005 122.361 199.947 119.768C202.28 118.489 204.885 117.787 207.544 117.723C219.599 117.625 223.886 126.782 224.344 127.957C224.738 128.971 225.913 128.46 226.703 128.325C227.492 128.191 228.156 128.128 228.882 128.074C233.085 127.793 237.284 128.671 241.022 130.614C244.759 132.556 247.891 135.487 250.077 139.088C251.386 141.241 252.767 143.914 252.714 146.488C252.66 149.062 250.83 150.963 248.624 151.914Z" fill="#C7C7C7"/>
<path d="M253.415 147.689C252.832 151.752 250.159 155.905 246.32 157.555C244.354 158.318 242.275 158.751 240.167 158.838C237.679 159.026 235.181 159.071 232.687 158.972C230.164 158.874 227.648 158.631 225.153 158.246C222.668 157.851 220.238 157.134 217.744 156.82C215.251 156.506 212.695 157.17 210.228 157.815C208.041 158.31 205.929 159.094 203.95 160.147C204.166 160.293 204.42 160.376 204.681 160.388C204.942 160.399 205.201 160.337 205.43 160.21C205.459 160.192 205.493 160.182 205.527 160.179C205.562 160.177 205.597 160.184 205.628 160.198C205.66 160.212 205.688 160.233 205.71 160.26C205.731 160.288 205.746 160.32 205.752 160.354C208.936 159.259 212.632 158.73 215.224 161.134C216.344 162.232 217.046 163.686 217.21 165.247C217.374 166.807 216.989 168.375 216.121 169.682C214.246 172.328 210.739 172.776 207.753 172.507C206.797 172.421 205.847 172.278 204.909 172.076C203.977 171.784 203.007 171.626 202.03 171.61C201.017 171.709 200.236 172.453 199.295 172.758C198.504 172.991 197.663 172.991 196.873 172.758C194.998 172.265 193.608 170.91 192.074 169.807C191.137 169.091 190.037 168.616 188.872 168.426C187.719 168.333 186.559 168.384 185.419 168.578C183.378 168.908 181.291 168.823 179.284 168.327C177.166 167.683 175.147 166.751 173.284 165.556C170.225 163.762 166.638 161.645 165.848 157.86C165.528 155.928 165.676 153.947 166.279 152.084C166.771 150.24 167.625 148.511 168.79 146.998C171.096 144.343 174.338 142.682 177.84 142.361C182.029 141.913 186.208 143.204 189.859 145.187C189.954 144.428 190.214 143.699 190.621 143.052C192.846 139.464 197.357 139.15 201.124 139.715C201.761 139.814 202.398 139.967 203.035 140.047C203.672 140.128 203.824 139.805 204.237 139.464C206.484 137.667 209.015 136.257 211.726 135.294C215.324 134.003 219.15 133.469 222.964 133.724C224.898 133.849 226.812 134.192 228.669 134.746C230.705 135.356 232.553 136.397 234.553 137.114C235.825 137.571 237.194 137.689 238.526 137.455C239.66 137.243 240.808 137.111 241.961 137.061C244.233 136.978 246.488 137.482 248.509 138.523C250.17 139.361 251.532 140.691 252.41 142.331C253.287 143.971 253.639 145.842 253.415 147.689Z" fill="#DBDBDB"/>
<path d="M246.121 148.936C246.257 148.911 246.385 148.85 246.489 148.758C246.593 148.666 246.671 148.548 246.713 148.416C246.776 148.288 246.795 148.143 246.766 148.003C246.775 147.949 246.775 147.895 246.766 147.841C246.719 147.695 246.631 147.565 246.513 147.467C246.394 147.369 246.25 147.307 246.097 147.288C245.944 147.269 245.79 147.295 245.651 147.361C245.512 147.427 245.395 147.532 245.313 147.662C245.25 147.798 245.223 147.948 245.232 148.098C245.242 148.247 245.289 148.392 245.37 148.519C245.45 148.646 245.561 148.75 245.692 148.823C245.823 148.896 245.971 148.935 246.121 148.936Z" fill="#C7C7C7"/>
<path d="M178.34 150.892C178.476 150.865 178.604 150.803 178.709 150.712C178.815 150.62 178.894 150.503 178.94 150.372C178.986 150.235 178.986 150.087 178.94 149.95V149.798C178.896 149.648 178.808 149.515 178.69 149.414C178.571 149.313 178.425 149.249 178.271 149.229C178.116 149.209 177.959 149.235 177.818 149.302C177.678 149.369 177.56 149.476 177.479 149.609C177.411 149.75 177.382 149.906 177.393 150.061C177.404 150.217 177.456 150.367 177.543 150.496C177.63 150.626 177.749 150.73 177.889 150.8C178.028 150.869 178.184 150.901 178.34 150.892Z" fill="#C7C7C7"/>
<path d="M243.279 146.559V146.622C243.26 146.698 243.261 146.778 243.283 146.854C243.305 146.93 243.347 146.998 243.405 147.052L243.504 147.124C243.551 147.161 243.607 147.187 243.666 147.201C243.724 147.214 243.786 147.214 243.845 147.201C243.904 147.189 243.959 147.163 244.007 147.126C244.055 147.09 244.095 147.043 244.123 146.989C244.338 146.577 243.818 146.03 243.423 146.371C243.382 146.412 243.349 146.461 243.324 146.514C243.324 146.514 243.279 146.55 243.279 146.559Z" fill="#C7C7C7"/>
<path d="M185.955 164.417C185.952 164.438 185.952 164.459 185.955 164.48C185.936 164.557 185.937 164.637 185.959 164.713C185.981 164.788 186.023 164.857 186.081 164.911L186.179 164.982C186.227 165.019 186.282 165.046 186.341 165.059C186.4 165.072 186.461 165.073 186.52 165.06C186.579 165.047 186.635 165.021 186.683 164.985C186.731 164.948 186.77 164.901 186.798 164.848C187.014 164.435 186.493 163.888 186.099 164.229C186.055 164.268 186.021 164.318 186 164.372L185.955 164.417Z" fill="#C7C7C7"/>
<path d="M243.054 149.169C243.125 149.2 243.205 149.205 243.279 149.182C243.353 149.159 243.416 149.11 243.457 149.044C243.472 149.018 243.48 148.988 243.48 148.959C243.48 148.929 243.472 148.899 243.457 148.873C243.452 148.806 243.424 148.742 243.378 148.692C243.332 148.642 243.271 148.608 243.204 148.597C243.137 148.586 243.069 148.597 243.009 148.629C242.949 148.661 242.902 148.713 242.874 148.775C242.859 148.812 242.851 148.853 242.852 148.893C242.852 148.934 242.861 148.974 242.878 149.011C242.895 149.048 242.919 149.081 242.949 149.108C242.98 149.136 243.015 149.156 243.054 149.169Z" fill="#C7C7C7"/>
<path d="M213.948 164.417C214.019 164.448 214.099 164.453 214.173 164.43C214.248 164.407 214.311 164.358 214.352 164.292C214.367 164.266 214.375 164.236 214.375 164.207C214.375 164.177 214.367 164.147 214.352 164.121C214.346 164.054 214.319 163.99 214.273 163.94C214.227 163.89 214.166 163.856 214.099 163.845C214.032 163.834 213.963 163.845 213.903 163.877C213.844 163.909 213.796 163.961 213.769 164.023C213.753 164.06 213.745 164.101 213.746 164.141C213.747 164.182 213.756 164.222 213.773 164.259C213.789 164.296 213.814 164.329 213.844 164.357C213.874 164.384 213.91 164.404 213.948 164.417Z" fill="#C7C7C7"/>
<path d="M210.719 138.747C210.791 138.779 210.873 138.783 210.947 138.758C211.022 138.733 211.085 138.681 211.123 138.612C211.138 138.586 211.146 138.557 211.146 138.527C211.146 138.497 211.138 138.468 211.123 138.442C211.117 138.374 211.09 138.31 211.044 138.26C210.998 138.21 210.937 138.177 210.87 138.165C210.803 138.154 210.734 138.165 210.674 138.198C210.615 138.23 210.567 138.281 210.54 138.343C210.511 138.42 210.513 138.506 210.547 138.582C210.58 138.657 210.642 138.717 210.719 138.747Z" fill="#C7C7C7"/>
<path d="M182.996 165.197C183.068 165.226 183.147 165.23 183.221 165.207C183.294 165.184 183.358 165.136 183.4 165.072C183.421 165.017 183.421 164.956 183.4 164.901C183.399 164.83 183.373 164.761 183.326 164.707C183.28 164.653 183.216 164.616 183.145 164.605C183.075 164.593 183.002 164.606 182.941 164.643C182.879 164.679 182.832 164.735 182.808 164.803C182.794 164.841 182.788 164.881 182.789 164.922C182.791 164.963 182.801 165.003 182.819 165.04C182.836 165.076 182.861 165.109 182.892 165.136C182.922 165.163 182.958 165.184 182.996 165.197Z" fill="#C7C7C7"/>
<path d="M236.578 150.964C235.807 153.17 232.264 161.502 220.962 162.462C215.509 162.929 209.867 163.942 204.988 166.113C199.777 168.418 195.436 172.041 193.113 177.674C191.687 181.127 191.104 185.37 190.862 189.908C190.772 191.576 190.727 193.272 190.7 194.994C195.439 191.312 200.964 188.774 206.845 187.576C210.96 186.961 214.688 184.807 217.276 181.549C218.173 180.777 219.572 180.589 219.671 181.549C219.77 182.508 215.958 187.379 208.818 189.827C208 190.107 207.168 190.344 206.325 190.536C199.939 191.998 193.768 197.191 190.655 200.214V201.613C190.747 206.152 190.465 210.691 189.812 215.183C189.622 216.32 189.358 217.444 189.023 218.547C188.691 219.614 188.35 220.691 187.991 221.767C184.565 231.983 179.991 242.396 180.125 249.706C180.197 253.823 181.489 257.142 182.816 260.317C184.099 263.339 185.426 266.236 185.794 269.573H160.949C160.949 269.573 168.797 267.465 169.757 262.864C170.717 258.263 167.838 251.204 171.093 241.804C172.769 237.522 174.667 233.331 176.78 229.247C179.758 223.04 182.628 216.385 182.96 209.515C183.256 203.523 182.377 196.465 182.906 189.316C183.148 184.989 184.149 180.739 185.866 176.759C185.9 175.523 185.852 174.285 185.722 173.055C185.291 168.514 183.728 164.153 181.175 160.372C180.933 160.014 180.657 159.681 180.35 159.377C179.103 158.229 178.054 155.188 180.637 157.296C185.426 161.198 187.382 168.696 188.099 172.669C188.969 171.349 189.941 170.098 191.005 168.929C202.495 156.3 214.325 152.174 215.993 144.524C217.662 136.873 217.617 135.716 218.191 135.429C218.765 135.142 219.339 141.833 217.429 146.048C217.608 145.887 223.581 140.38 230.165 141.169C231.573 141.34 228.219 142.066 224.263 143.86C221.519 145.125 218.487 146.936 216.568 149.484C214.123 152.492 211.333 155.202 208.253 157.556C204.611 160.498 201.078 163.027 199.526 164.848C201.97 163.56 204.54 162.526 207.195 161.763C209.693 161.015 212.249 160.478 214.836 160.157C221.303 159.377 227.958 159.574 232.434 154.004C233.839 152.176 234.911 150.114 235.6 147.914C236.192 146.057 237.34 148.739 236.578 150.964Z" fill="white"/>
<path d="M172.296 257.545C171.874 253.518 171.04 249.625 171.587 245.571C171.587 245.454 171.417 245.436 171.39 245.571C170.493 249.159 171.148 253.033 171.578 256.639C171.823 258.482 171.916 260.342 171.856 262.2C171.766 264.074 171.524 266.478 170.152 267.895C170.139 267.91 170.132 267.928 170.133 267.948C170.134 267.967 170.142 267.985 170.156 267.998C170.171 268.012 170.19 268.018 170.209 268.018C170.228 268.017 170.247 268.008 170.26 267.994C171.47 266.721 172.197 265.065 172.314 263.312C172.548 261.396 172.542 259.459 172.296 257.545Z" fill="#EBEBEB"/>
<path d="M180.208 269.554H175.813C176.001 267.154 175.856 264.74 175.383 262.379C174.853 259.948 174.136 257.58 173.768 255.105C173.427 252.79 173.301 250.448 173.391 248.109C173.571 243.579 174.522 238.673 176.764 234.655C176.776 234.633 176.794 234.614 176.817 234.601C176.839 234.588 176.864 234.581 176.889 234.581C176.915 234.581 176.94 234.588 176.962 234.601C176.984 234.614 177.003 234.633 177.015 234.655C177.027 234.676 177.033 234.699 177.033 234.722C177.033 234.746 177.027 234.769 177.015 234.79C176.05 237.534 175.388 240.377 175.042 243.266C174.755 245.755 174.728 248.268 174.961 250.764C175.241 253.377 175.935 255.929 177.015 258.325C178.567 261.913 180.504 265.671 180.208 269.554Z" fill="#EBEBEB"/>
<path d="M180.145 249.687C180.217 253.804 181.509 257.123 182.836 260.298C180.92 257.767 179.499 254.898 178.647 251.84C177.141 245.409 179.975 238.861 182.486 233.067C184.155 229.228 185.975 225.434 187.993 221.748C184.585 231.964 180.011 242.449 180.145 249.687Z" fill="#EBEBEB"/>
<path d="M184.19 214.698C183.117 217.63 181.768 220.452 180.163 223.129C179.041 225.156 177.929 227.184 176.781 229.202C179.759 222.995 182.629 216.34 182.961 209.469C183.257 203.478 182.378 196.419 182.907 189.271C183.158 191.459 183.544 193.63 183.93 195.809C185.042 201.98 186.145 208.536 184.19 214.698Z" fill="#EBEBEB"/>
<path d="M186.744 219.201C185.493 221.567 183.89 223.729 181.99 225.614C181.115 226.951 180.401 228.387 179.864 229.893C179.864 229.893 179.793 229.893 179.802 229.893C180.896 225.614 184.026 222.323 185.757 218.331C187.622 213.877 188.112 208.967 187.165 204.232C187.165 204.061 187.407 203.981 187.434 204.16C188.663 213.048 187.838 216.932 186.744 219.201Z" fill="#EBEBEB"/>
<path d="M214.711 184.849C213.307 186.005 211.742 186.951 210.065 187.656C208.17 188.347 206.235 188.922 204.271 189.378C204.262 189.375 204.254 189.373 204.245 189.374C204.236 189.375 204.227 189.378 204.22 189.383C204.212 189.388 204.206 189.394 204.202 189.402C204.198 189.41 204.195 189.419 204.195 189.428C204.195 189.437 204.198 189.445 204.202 189.453C204.206 189.461 204.212 189.468 204.22 189.473C204.227 189.478 204.236 189.481 204.245 189.481C204.254 189.482 204.262 189.481 204.271 189.477C206.452 189.261 208.598 188.77 210.657 188.015C212.312 187.434 213.778 186.414 214.899 185.064C215.016 184.939 214.845 184.75 214.711 184.849Z" fill="#EBEBEB"/>
<path d="M208.837 189.809C208.019 190.088 207.186 190.325 206.343 190.517C199.957 191.979 193.786 197.172 190.674 200.195V200.482C190.65 200.459 190.632 200.431 190.621 200.4C190.61 200.369 190.607 200.335 190.611 200.303C190.605 200.289 190.602 200.273 190.602 200.258C190.602 200.242 190.605 200.227 190.611 200.213C193.051 196.814 195.912 193.36 199.85 191.674C202.216 190.818 204.681 190.267 207.187 190.033C207.743 189.952 208.29 189.871 208.837 189.809Z" fill="#EBEBEB"/>
<path d="M204.98 166.085C199.768 168.39 195.427 172.014 193.104 177.646C191.678 181.099 191.095 185.342 190.853 189.88C190.362 187.263 190.268 184.587 190.575 181.943C191.043 177.551 193.063 173.471 196.27 170.435C197.98 168.969 199.948 167.834 202.074 167.09C203.024 166.74 203.993 166.381 204.98 166.085Z" fill="#EBEBEB"/>
<path d="M188.774 201.389C188.774 201.478 188.64 201.496 188.622 201.389C187.842 197.37 186.595 193.451 186.191 189.352C185.714 185.453 186.335 181.499 187.985 177.934C188.039 177.826 188.218 177.934 188.182 178.015C187.913 178.786 187.662 179.548 187.438 180.32C187.272 181.538 187.209 182.768 187.25 183.997C187.321 185.513 187.546 187.011 187.752 188.482C188.227 191.327 188.326 194.222 188.048 197.092C188.048 196.994 188.048 196.895 187.985 196.787C187.985 196.895 187.985 196.994 187.985 197.101C187.985 197.209 188.048 197.146 188.057 197.101C188.344 198.545 188.595 199.962 188.774 201.389Z" fill="#EBEBEB"/>
<path d="M188.072 197.137C188.072 197.182 187.992 197.191 188.001 197.137C188.01 197.083 188.001 196.931 188.001 196.823C188.028 196.94 188.054 197.039 188.072 197.137Z" fill="#EBEBEB"/>
<path d="M185.723 172.965C185.292 168.423 183.729 164.063 181.176 160.282C183.074 162.214 184.456 164.592 185.194 167.198C185.706 169.074 185.885 171.026 185.723 172.965Z" fill="#EBEBEB"/>
<path d="M202.506 165.539C197.779 166.83 192.738 169.243 191.133 174.221C191.133 174.233 191.138 174.244 191.146 174.252C191.154 174.261 191.166 174.266 191.178 174.266C191.19 174.266 191.201 174.261 191.209 174.252C191.218 174.244 191.223 174.233 191.223 174.221C192.243 172.064 193.874 170.256 195.913 169.019C198.066 167.77 200.302 166.67 202.604 165.727C202.73 165.7 202.64 165.503 202.506 165.539Z" fill="#EBEBEB"/>
<path d="M207.591 155.313C205.743 156.856 204.129 158.623 202.209 160.049C200.568 161.251 198.828 162.193 197.626 163.879C197.545 163.987 197.725 164.13 197.814 164.022C199.231 162.372 201.348 161.475 203.052 160.148C204.803 158.777 206.386 157.206 207.77 155.466C207.824 155.358 207.671 155.215 207.591 155.313Z" fill="#EBEBEB"/>
<path d="M232.445 153.878C232.113 154.371 231.746 154.865 231.378 155.34C230.76 156.222 230.027 157.019 229.198 157.708C228.364 158.302 227.46 158.793 226.508 159.17C224.436 160.046 222.254 160.635 220.023 160.919C215.763 161.466 211.475 161.152 207.215 161.636C209.713 160.888 212.269 160.351 214.857 160.031C221.315 159.251 227.97 159.448 232.445 153.878Z" fill="#EBEBEB"/>
<path d="M224.264 143.788C221.519 145.053 218.488 146.865 216.568 149.412C214.124 152.421 211.334 155.13 208.254 157.484C212.846 152.434 217.196 145.116 224.264 143.788Z" fill="#EBEBEB"/>
<path d="M68.4925 271.089C68.4476 270.479 68.4297 269.869 68.4297 269.295H69.1024C69.1024 269.869 69.1024 270.461 69.1562 271.089H68.4925Z" fill="#263238"/>
<path d="M137.977 323.173H137.861V322.501H137.986C139.125 322.501 140.282 322.501 141.439 322.42V323.092C140.309 323.173 139.134 323.173 137.977 323.173ZM133.358 323.03C132.156 322.958 130.945 322.85 129.77 322.716L129.842 322.043C131.017 322.178 132.219 322.285 133.43 322.357L133.358 323.03ZM145.969 322.743L145.897 322.07C147.072 321.944 148.265 321.792 149.485 321.613L149.592 322.276C148.355 322.474 147.153 322.635 145.969 322.761V322.743ZM125.295 322.079C124.129 321.882 122.936 321.639 121.752 321.379L121.904 320.725C123.07 320.985 124.254 321.218 125.411 321.415L125.295 322.079ZM153.996 321.442L153.853 320.787C155.019 320.536 156.185 320.258 157.333 319.953L157.503 320.599C156.328 320.931 155.153 321.209 153.978 321.46L153.996 321.442ZM117.402 320.258C116.254 319.935 115.097 319.568 113.958 319.182L114.173 318.545C115.303 318.931 116.451 319.29 117.59 319.612L117.402 320.258ZM161.826 319.361L161.62 318.724C162.732 318.366 163.871 317.962 165.002 317.549L165.235 318.177C164.078 318.581 162.93 318.985 161.809 319.343L161.826 319.361ZM109.733 317.648C108.63 317.2 107.509 316.751 106.423 316.213L106.701 315.603C107.787 316.096 108.89 316.581 109.984 317.02L109.733 317.648ZM169.414 316.491L169.145 315.872C170.24 315.397 171.325 314.886 172.374 314.356L172.679 314.957C171.594 315.478 170.5 315.998 169.397 316.473L169.414 316.491ZM102.36 314.204C101.302 313.639 100.244 313.038 99.2211 312.41L99.562 311.827C100.576 312.428 101.625 313.02 102.683 313.621L102.36 314.204ZM176.599 312.778L176.249 312.195C177.272 311.585 178.276 310.939 179.263 310.266L179.639 310.823C178.653 311.513 177.621 312.141 176.599 312.76V312.778ZM95.4092 310.024C94.4047 309.352 93.4181 308.643 92.4583 307.934L92.862 307.396C93.8127 308.105 94.7903 308.796 95.7859 309.468L95.4092 310.024ZM183.308 308.15L182.895 307.621C183.792 306.885 184.743 306.114 185.631 305.333L186.079 305.836C185.138 306.607 184.205 307.387 183.263 308.132L183.308 308.15ZM88.9693 305.136C88.0724 304.365 87.1306 303.557 86.2785 302.75L86.736 302.257C87.6329 303.055 88.5298 303.853 89.4267 304.625L88.9693 305.136ZM189.371 302.759L188.896 302.284C189.721 301.468 190.555 300.598 191.38 299.71L191.873 300.167C191.003 301.046 190.16 301.916 189.326 302.741L189.371 302.759ZM82.9958 299.566C82.1706 298.669 81.3544 297.772 80.5741 296.875L81.0853 296.445C81.8567 297.342 82.6639 298.239 83.4891 299.136L82.9958 299.566ZM194.788 296.759L194.277 296.328C195.031 295.431 195.784 294.481 196.511 293.53L197.049 293.942C196.304 294.902 195.551 295.844 194.788 296.759ZM77.7578 293.368C77.0312 292.391 76.3316 291.395 75.6859 290.4L76.2419 290.032C76.8877 291.018 77.5784 292.005 78.2959 292.965L77.7578 293.368ZM199.739 290.328L199.192 289.942C199.874 288.973 200.556 287.987 201.228 286.991L201.784 287.368C201.109 288.373 200.424 289.359 199.73 290.328H199.739ZM73.3718 286.525C72.7888 285.449 72.2417 284.363 71.7573 283.287L72.3762 283.009C72.8516 284.067 73.3808 285.144 73.9638 286.202L73.3718 286.525ZM204.233 283.592L203.659 283.233C204.296 282.22 204.915 281.206 205.534 280.175L206.117 280.515C205.489 281.556 204.861 282.578 204.224 283.592H204.233ZM70.116 279.107C69.7371 277.958 69.4168 276.791 69.1562 275.609L69.811 275.466C70.0621 276.587 70.3761 277.744 70.7528 278.892L70.116 279.107ZM208.386 276.668L207.803 276.336C208.386 275.304 208.978 274.255 209.552 273.206L210.144 273.528C209.552 274.551 208.969 275.636 208.377 276.632L208.386 276.668ZM212.287 269.573L211.687 269.259C212.252 268.21 212.808 267.142 213.364 266.084L213.956 266.389C213.391 267.42 212.835 268.461 212.279 269.537L212.287 269.573ZM216.019 262.398L215.418 262.093C215.956 261.034 216.503 259.967 217.041 258.891L217.642 259.196L216.019 262.398ZM219.651 255.177L219.05 254.872L220.656 251.661L221.266 251.957L219.651 255.177ZM223.239 247.939L222.638 247.643C223.167 246.576 223.714 245.5 224.252 244.432L224.853 244.737C224.321 245.772 223.792 246.824 223.266 247.894L223.239 247.939ZM226.898 240.764L226.297 240.45L227.948 237.257L228.549 237.571C228.02 238.566 227.463 239.625 226.925 240.656L226.898 240.764ZM230.647 233.588L230.056 233.266C230.621 232.216 231.195 231.167 231.769 230.117L232.361 230.44C231.814 231.436 231.239 232.485 230.674 233.535L230.647 233.588ZM234.576 226.485L233.993 226.153C234.585 225.121 235.177 224.081 235.787 223.05L236.37 223.39C235.76 224.422 235.168 225.453 234.576 226.485ZM238.675 219.56L238.101 219.211C238.729 218.188 239.366 217.175 240.011 216.17L240.576 216.529C239.958 217.533 239.303 218.547 238.675 219.56ZM243.025 212.789L242.469 212.421C243.133 211.425 243.814 210.43 244.505 209.452L245.052 209.838C244.37 210.815 243.689 211.802 243.025 212.789ZM247.68 206.205L247.142 205.802C247.851 204.842 248.586 203.882 249.321 202.94L249.851 203.353C249.115 204.295 248.389 205.246 247.68 206.205ZM252.658 199.864L252.147 199.434C252.909 198.537 253.689 197.64 254.479 196.698L254.99 197.146C254.201 198.043 253.411 198.949 252.658 199.864ZM257.995 193.828L257.501 193.37C258.327 192.473 259.161 191.63 260.004 190.778L260.479 191.254C259.636 192.106 258.793 192.958 257.995 193.828ZM263.699 188.141L263.242 187.648C264.115 186.835 265.012 186.027 265.932 185.226L266.381 185.737C265.448 186.527 264.569 187.325 263.699 188.141ZM269.762 182.849L269.341 182.32C270.238 181.567 271.233 180.813 272.175 180.096L272.579 180.634C271.646 181.343 270.695 182.087 269.762 182.849ZM276.193 177.997L275.808 177.441C276.776 176.759 277.781 176.078 278.785 175.423L279.153 175.988C278.158 176.643 277.162 177.315 276.193 177.997ZM282.947 173.611L282.597 173.037C283.629 172.418 284.678 171.817 285.719 171.243L286.051 171.835C285.01 172.4 283.97 173.001 282.947 173.611Z" fill="#263238"/>
<path d="M290.187 169.629L289.891 169.028L291.496 168.229L291.792 168.839L290.187 169.629Z" fill="#263238"/>
<path d="M281.798 163.421L276.883 176.92L287.197 168.857L326.644 154.551L281.798 163.421Z" fill="#5FD58C"/>
<path opacity="0.1" d="M281.798 163.421L276.883 176.92L287.197 168.857L326.644 154.551L281.798 163.421Z" fill="#17153E"/>
<path d="M288.516 172.006L276.883 176.921L287.197 168.857L288.516 172.006Z" fill="#263238"/>
<path d="M287.199 168.857L326.646 154.551L294.285 186.132L287.199 168.857Z" fill="#5FD58C"/>
<path d="M281.798 163.422L265.402 152.838L326.644 154.551L281.798 163.422Z" fill="#5FD58C"/>
<path d="M179.318 265.653C178.672 266.756 113.421 278.828 110.165 278.362C110.009 278.342 109.855 278.303 109.708 278.245C105.591 276.972 85.4012 262.998 83.8675 261.823C80.0824 258.89 90.4688 233.067 94.2897 228.502C96.828 225.47 102.075 223.685 102.075 223.685C102.075 223.685 111.179 177.691 119.278 167.179C121.305 164.551 161.9 157.986 169.64 160.291C172.95 161.277 181.605 167.96 182 169.323C182.448 171.35 179.928 264.54 179.318 265.653Z" fill="#37474F"/>
<path d="M179.317 265.653C178.672 266.756 113.42 278.829 110.164 278.363C110.008 278.343 109.854 278.304 109.707 278.246C113.636 260.361 132.13 176.418 132.884 175.79C133.637 175.162 172.59 169.978 181.999 169.359C182.448 171.351 179.927 264.541 179.317 265.653Z" fill="#263238"/>
<path d="M141.048 167.467C140.303 166.938 138.626 158.076 139.586 156.13C140.662 153.95 156.412 152.766 157.569 154.336C158.726 155.905 160.412 164.758 159.982 165.144C159.551 165.529 156.995 166.202 156.565 165.682C156.134 165.162 155.129 157.78 154.771 157.43C154.412 157.08 143.407 157.888 143.111 158.506C142.815 159.125 144.77 166.444 144.375 166.83C143.981 167.216 141.774 167.96 141.048 167.467Z" fill="#37474F"/>
<path d="M170.43 178.956C181.794 204.321 209.267 246.485 221.555 236.045C239.942 220.438 252.373 185.907 257.297 171.942C260.069 164.121 220.218 151.025 217.779 158.129C214.308 168.228 208.863 189.315 205.706 192.302C204.038 193.872 191.005 175.547 181.121 166.856C166.878 154.335 166.762 170.856 170.43 178.956Z" fill="#FFCFC0"/>
<path d="M267.271 160.183C263.683 168.166 250.068 181.655 245.529 183.647C240.991 185.638 217.025 163.914 217.527 158.9C218.03 153.887 232.327 127.113 240.246 123.023C248.166 118.933 270.948 151.913 267.271 160.183Z" fill="#FFCFC0"/>
<path d="M219.403 153.286C219.403 153.286 219.977 141.939 217.107 132.342C214.703 124.27 210.219 112.61 214.506 111.112C223.314 108.116 234.489 137.32 234.489 137.32C234.489 137.32 237.35 150.998 228.892 154.73C223.583 157.08 219.403 153.286 219.403 153.286Z" fill="#FFCFC0"/>
<path d="M229.332 131.76C229.915 136.352 234.991 133.043 234.991 133.043C234.991 133.043 228.83 139.572 231.251 144.075C233.61 148.416 239.602 144.191 240.041 143.895C239.718 144.245 234.211 150.398 237.117 154.658C240.14 159.098 245.432 153.833 245.772 153.492C245.566 153.914 242.992 159.574 245.943 162.327C251.01 167.036 257.989 152.748 263.361 151.151C263.361 151.151 267.11 159.941 267.272 160.175C267.272 160.175 274.187 146.721 271.631 139.545C271.276 138.503 270.575 137.614 269.645 137.025C268.715 136.436 267.612 136.183 266.518 136.307C266.518 136.307 269.209 132.208 267.039 128.773C265.917 126.979 262.096 127.248 262.096 127.248C262.096 127.248 264.132 123.876 261.998 120.97C260.303 118.62 256.742 119.176 256.742 119.176C256.742 119.176 257.19 115.041 254.679 113.203C249.629 109.543 228.103 121.93 229.332 131.76Z" fill="#FFCFC0"/>
<path d="M256.16 119.248C256.231 119.248 256.204 119.104 256.115 119.131C248.042 121.472 239.889 126.522 234.696 133.195C234.526 133.41 234.813 133.787 235.046 133.581C241.71 127.724 248.096 123.06 256.16 119.248Z" fill="#263238"/>
<path d="M262.176 127.194C262.265 127.149 262.176 127.006 262.104 127.033C253.798 129.499 244.766 135.437 239.681 143.832C239.501 144.119 239.636 144.55 239.86 144.236C243.672 138.908 254.902 130.584 262.176 127.194Z" fill="#263238"/>
<path d="M245.621 154.21C250.805 146.344 257.989 140.935 266.16 136.441C266.268 136.379 266.16 136.235 266.071 136.262C261.478 137.374 256.563 140.747 252.966 143.76C249.569 146.457 246.94 149.998 245.343 154.03C245.28 154.192 245.513 154.38 245.621 154.21Z" fill="#263238"/>
<path d="M234.829 133.033C234.631 133.302 235.241 133.311 235.044 133.58C234.219 134.71 229.842 141.958 231.851 144.209C233.456 146.003 236.999 145.106 238.228 144.209L241.305 141.985L239.188 145.142C238.236 146.538 237.518 148.08 237.062 149.707C236.812 150.442 236.719 151.221 236.79 151.993C236.861 152.766 237.094 153.515 237.475 154.192C237.838 154.822 238.407 155.309 239.086 155.57C239.765 155.831 240.514 155.851 241.206 155.627C242.746 155.084 244.123 154.158 245.206 152.936L248.318 149.689L246.453 153.752C245.925 154.894 245.548 156.1 245.332 157.34C245.077 158.495 245.17 159.7 245.601 160.802C245.812 161.29 246.156 161.708 246.594 162.009C247.032 162.311 247.545 162.483 248.076 162.506C249.274 162.39 250.414 161.933 251.359 161.188C253.426 159.607 255.366 157.868 257.162 155.985C258.059 155.089 259.055 154.138 260.041 153.295C260.983 152.355 262.114 151.627 263.36 151.16C262.193 151.754 261.151 152.567 260.292 153.555C259.396 154.506 258.499 155.492 257.646 156.479C255.941 158.525 254.05 160.407 251.996 162.103C250.896 163.04 249.546 163.636 248.112 163.816C247.323 163.828 246.547 163.609 245.879 163.187C245.212 162.765 244.682 162.157 244.354 161.439C243.785 160.101 243.626 158.625 243.897 157.196C244.121 155.827 244.519 154.492 245.081 153.223L246.327 154.039C245.067 155.498 243.446 156.602 241.627 157.241C240.607 157.561 239.508 157.52 238.515 157.125C237.554 156.703 236.743 156 236.192 155.107C235.702 154.245 235.401 153.289 235.31 152.302C235.219 151.316 235.339 150.321 235.663 149.384C236.189 147.604 237.004 145.922 238.076 144.406L239.035 145.303C237.448 146.379 233.6 147.832 230.748 145.348C227.519 141.545 233.627 134.289 234.829 133.033Z" fill="#263238"/>
<path d="M234.99 133.042C234.109 133.401 233.177 133.618 232.228 133.688C231.847 133.73 231.463 133.669 231.114 133.511C230.765 133.353 230.465 133.105 230.246 132.791C229.862 132.039 229.703 131.192 229.788 130.352C229.842 129.455 229.941 128.441 230.084 127.437C229.466 128.261 229.026 129.205 228.793 130.208C228.634 130.755 228.585 131.329 228.648 131.895C228.711 132.461 228.885 133.01 229.16 133.509C229.522 134.021 230.028 134.415 230.613 134.639C231.18 134.815 231.784 134.837 232.362 134.702C233.391 134.439 234.311 133.858 234.99 133.042Z" fill="#263238"/>
<path d="M215.365 158.9L256.839 187.781C256.839 187.781 232.066 239.112 216.756 238.969C201.445 238.825 179.327 200.401 171.667 183.772C164.008 167.143 168.6 153.07 184.027 168.228C199.454 183.386 204.979 189.602 205.481 189.396C206.45 189.001 215.365 158.9 215.365 158.9Z" fill="#5FD58C"/>
<path d="M256.842 187.782C256.842 187.782 239.666 223.381 225.064 235.229C222.14 237.606 219.315 239.023 216.749 238.996C201.439 238.862 179.321 200.428 171.661 183.799C166.916 173.512 166.871 164.193 171.186 162.193C173.876 160.955 178.146 162.48 184.021 168.256C199.537 183.503 204.973 189.629 205.475 189.423C206.444 189.029 215.341 158.928 215.341 158.928L256.842 187.782Z" fill="#5FD58C"/>
<path d="M247.028 191.504C245.934 190.607 244.831 189.71 243.719 188.813L236.938 183.485C232.453 179.96 227.834 176.579 223.197 173.242C220.56 171.341 217.977 169.35 215.268 167.565C215.242 167.549 215.211 167.543 215.18 167.549C215.15 167.555 215.123 167.571 215.104 167.596C215.086 167.62 215.076 167.65 215.078 167.681C215.081 167.712 215.094 167.74 215.116 167.762C217.268 169.663 219.6 171.404 221.816 173.206C224.031 175.009 226.3 176.794 228.543 178.588C233.057 182.098 237.62 185.536 242.23 188.903C243.521 189.853 244.786 190.858 246.122 191.746C246.804 192.203 247.45 192.705 248.14 193.154C248.831 193.602 249.558 193.997 250.239 194.472C250.255 194.484 250.274 194.49 250.294 194.487C250.313 194.485 250.331 194.474 250.342 194.459C250.354 194.444 250.36 194.424 250.357 194.405C250.355 194.385 250.344 194.368 250.329 194.356C249.208 193.45 248.158 192.436 247.028 191.504Z" fill="#263238"/>
<path d="M205.832 188.464C204.252 192.737 202.952 197.108 201.939 201.55C201.401 203.747 200.971 205.963 200.549 208.178C200.107 210.375 199.808 212.598 199.652 214.833C199.652 214.914 199.769 214.923 199.796 214.833C200.477 212.699 200.98 210.474 201.482 208.286C201.984 206.097 202.523 203.9 203.016 201.693C204.011 197.29 205.168 192.922 206.029 188.491C206.024 188.47 206.013 188.451 205.997 188.437C205.981 188.423 205.961 188.414 205.94 188.411C205.919 188.408 205.897 188.412 205.878 188.421C205.859 188.43 205.843 188.445 205.832 188.464Z" fill="#263238"/>
<path opacity="0.1" d="M225.064 235.229C222.14 237.606 219.315 239.023 216.749 238.996C201.439 238.861 179.321 200.428 171.661 183.799C166.916 173.512 166.871 164.193 171.186 162.192L225.064 235.229Z" fill="black"/>
<path d="M106.921 283.027H210.964C210.274 278.165 189.438 180.777 180.577 165.933C176.37 158.874 159.104 154.228 147.507 165.431C125.353 186.858 106.078 282.067 106.921 283.027Z" fill="#5FD58C"/>
<path d="M198.036 222.286C197.767 220.95 197.48 219.595 197.139 218.295C196.538 215.685 195.883 213.092 195.193 210.5C194.215 206.859 193.166 203.217 192.071 199.594C192.018 199.02 191.91 198.437 191.829 197.863C191.722 197.082 191.623 196.302 191.497 195.522C191.255 193.952 190.995 192.382 190.762 190.813C190.762 190.794 190.754 190.776 190.741 190.762C190.727 190.749 190.709 190.741 190.69 190.741C190.671 190.741 190.653 190.749 190.639 190.762C190.626 190.776 190.618 190.794 190.618 190.813C190.655 192.421 190.778 194.026 190.986 195.62C190.986 195.88 191.058 196.141 191.103 196.401C190.968 195.97 190.843 195.504 190.708 195.091C190.251 193.656 189.739 192.239 189.264 190.813C188.789 189.387 188.367 187.862 187.766 186.436C187.76 186.419 187.748 186.406 187.732 186.398C187.716 186.39 187.698 186.39 187.681 186.395C187.664 186.401 187.651 186.414 187.643 186.43C187.636 186.446 187.635 186.464 187.641 186.481C187.928 187.808 188.34 189.1 188.69 190.409C189.04 191.719 189.354 192.965 189.677 194.248C190.34 196.84 191.103 199.414 191.793 201.997C193.184 207.164 194.484 212.366 195.937 217.514C196.332 218.922 196.726 220.331 197.139 221.739C197.552 223.147 197.955 224.717 198.52 226.143C198.52 226.214 198.673 226.205 198.664 226.143C198.523 224.847 198.313 223.56 198.036 222.286Z" fill="#263238"/>
<path d="M180.486 169.538C179.942 171.545 178.71 173.298 177.005 174.489C175.122 175.655 172.754 175.637 170.646 175.386C166.162 174.929 161.982 172.821 158.296 170.139C157.246 169.368 156.233 168.542 155.228 167.708C154.234 166.903 153.294 166.034 152.412 165.107C152.349 165.044 152.259 165.107 152.322 165.206C153.174 166.103 153.972 167.089 154.834 168.004C155.679 168.886 156.578 169.716 157.524 170.489C159.38 172.043 161.43 173.349 163.623 174.372C165.771 175.373 168.067 176.019 170.422 176.283C172.646 176.525 175.158 176.48 177.104 175.18C178.978 173.827 180.262 171.808 180.692 169.538C180.692 169.524 180.689 169.511 180.684 169.499C180.679 169.486 180.671 169.475 180.662 169.465C180.652 169.455 180.641 169.448 180.628 169.443C180.616 169.438 180.602 169.435 180.589 169.435C180.575 169.435 180.562 169.438 180.549 169.443C180.537 169.448 180.525 169.455 180.516 169.465C180.506 169.475 180.499 169.486 180.493 169.499C180.488 169.511 180.486 169.524 180.486 169.538Z" fill="#263238"/>
<path d="M173.469 170.946C169.46 172.04 158.598 168.498 154.634 161.932C154.365 161.484 154.876 156.604 155.226 150.649C155.414 147.061 155.549 142.998 155.405 139.312C155.405 138.558 178.725 144.02 178.725 144.02C178.725 144.02 176.761 151.842 177.048 158.264C177.079 158.771 177.154 159.276 177.272 159.77C177.272 159.842 177.272 159.923 177.272 160.022C177.936 162.874 178.34 169.628 173.469 170.946Z" fill="#FFCFC0"/>
<path d="M177.32 159.77C177.314 159.854 177.314 159.938 177.32 160.022C176.534 160.153 175.74 160.225 174.943 160.237C162.072 160.461 157.274 144.729 156 139.258C159.588 139.554 177.984 143.85 178.701 144.012C178.701 144.012 176.737 151.824 177.024 158.255C177.078 158.768 177.177 159.275 177.32 159.77Z" fill="#263238"/>
<path d="M152.412 112.664C149.856 120.853 154.063 144.577 159.866 149.887C168.279 157.6 182.128 158.407 188.693 148.272C195.052 138.406 189.034 107.633 182.54 102.798C172.979 95.6676 156.171 100.565 152.412 112.664Z" fill="#FFCFC0"/>
<path d="M176.207 127.185C176.207 127.131 176.09 127.284 176.108 127.347C176.431 128.943 176.538 130.818 175.211 131.598C175.211 131.598 175.211 131.697 175.211 131.679C176.933 131.132 176.772 128.638 176.207 127.185Z" fill="#263238"/>
<path d="M174.486 125.805C171.885 126.056 172.567 131.249 174.989 131.016C177.41 130.783 176.675 125.554 174.486 125.805Z" fill="#263238"/>
<path d="M184.79 126.01C184.79 125.947 184.934 126.064 184.934 126.136C185.095 127.75 185.553 129.571 187.077 129.912C187.131 129.912 187.131 130.01 187.077 130.001C185.275 129.992 184.7 127.598 184.79 126.01Z" fill="#263238"/>
<path d="M186.01 124.136C188.567 123.598 189.455 128.764 187.087 129.257C184.719 129.751 183.867 124.593 186.01 124.136Z" fill="#263238"/>
<path d="M172.144 123.661C172.825 123.383 173.408 123.024 174.063 122.683C174.796 122.44 175.427 121.96 175.857 121.32C175.948 121.092 175.963 120.841 175.898 120.604C175.833 120.368 175.693 120.159 175.498 120.01C175.069 119.776 174.585 119.661 174.097 119.675C173.608 119.689 173.132 119.833 172.718 120.091C171.8 120.491 171.062 121.216 170.646 122.127C170.567 122.337 170.549 122.566 170.596 122.786C170.642 123.006 170.75 123.209 170.907 123.37C171.064 123.531 171.264 123.643 171.483 123.695C171.702 123.746 171.931 123.735 172.144 123.661Z" fill="#263238"/>
<path d="M187.671 121.257C186.955 121.211 186.243 121.124 185.537 120.997C184.773 121.008 184.026 120.769 183.411 120.315C183.247 120.132 183.148 119.901 183.129 119.656C183.109 119.412 183.17 119.167 183.303 118.961C183.623 118.59 184.036 118.311 184.499 118.153C184.963 117.995 185.461 117.965 185.94 118.064C186.941 118.127 187.884 118.558 188.586 119.275C188.743 119.447 188.846 119.662 188.882 119.892C188.918 120.122 188.885 120.358 188.787 120.57C188.69 120.782 188.532 120.96 188.333 121.082C188.134 121.204 187.904 121.265 187.671 121.257Z" fill="#263238"/>
<path d="M175.929 142.101C176.369 142.433 176.826 142.899 177.409 142.872C178.007 142.782 178.579 142.565 179.087 142.236C179.096 142.225 179.109 142.218 179.124 142.218C179.138 142.217 179.152 142.222 179.163 142.231C179.173 142.241 179.18 142.254 179.181 142.268C179.182 142.283 179.177 142.297 179.167 142.307C178.979 142.654 178.7 142.944 178.361 143.146C178.021 143.348 177.634 143.455 177.239 143.455C176.903 143.405 176.587 143.261 176.33 143.038C176.073 142.816 175.884 142.525 175.786 142.2C175.732 142.11 175.867 142.056 175.929 142.101Z" fill="#263238"/>
<path d="M182.137 138.361C181.571 139.334 180.765 140.147 179.796 140.72C179.251 141.026 178.622 141.149 178.002 141.07C176.674 140.899 176.486 139.724 176.585 138.684C176.645 138.13 176.771 137.585 176.961 137.061C178.501 138.042 180.316 138.498 182.137 138.361Z" fill="white"/>
<path d="M176.988 137.06C177.48 137.644 178.088 138.12 178.774 138.456C179.459 138.793 180.207 138.983 180.97 139.016C181.636 139.057 182.304 139 182.952 138.845C183.078 138.829 183.201 138.799 183.32 138.756L183.661 138.657C183.745 138.63 183.818 138.575 183.868 138.502C183.919 138.429 183.943 138.342 183.939 138.253C183.942 138.2 183.942 138.146 183.939 138.092V137.948C183.813 136.711 183.446 134.836 183.446 134.836C183.921 135.006 186.37 135.733 186.244 135.096C185.222 129.786 184.074 123.876 181.93 118.799C181.914 118.768 181.887 118.744 181.855 118.73C181.823 118.716 181.787 118.714 181.754 118.723C181.72 118.733 181.691 118.754 181.671 118.782C181.651 118.81 181.641 118.845 181.643 118.88C182.432 124.028 184.109 129.006 184.988 134.127C184.118 133.85 183.211 133.699 182.298 133.679C182.127 133.751 183.078 137.267 183.087 137.841V137.904C181.042 138.442 179.383 138.02 177.185 136.89C176.988 136.827 176.871 136.953 176.988 137.06Z" fill="#263238"/>
<path d="M156.042 131.688C160.679 131.688 159.747 111.955 159.747 111.955C159.747 111.955 164.482 114.18 168.375 114.458C171.418 114.642 174.471 114.486 177.479 113.991C178.125 113.812 170.052 110.655 170.052 110.655C170.052 110.655 180.717 111.301 183.686 109.543C186.654 107.785 186.376 107.031 186.188 105.955C186 104.879 178.349 96.017 164.572 98.5732C161.94 98.9896 159.452 100.051 157.329 101.663C155.207 103.275 153.517 105.387 152.41 107.812C152.41 107.812 148.347 114.816 148.58 118.063C148.93 122.422 151.118 131.688 156.042 131.688Z" fill="#263238"/>
<path d="M158.296 132.281C158.296 132.281 152.825 124.693 149.372 126.657C145.919 128.621 150.116 139.662 154.224 141.124C154.737 141.348 155.29 141.465 155.85 141.469C156.41 141.474 156.965 141.364 157.481 141.148C157.997 140.932 158.465 140.613 158.854 140.211C159.244 139.809 159.549 139.333 159.749 138.81L158.296 132.281Z" fill="#FFCFC0"/>
<path d="M150.617 129.796C150.554 129.796 150.536 129.877 150.617 129.904C153.496 131.016 155.038 133.653 156.133 136.388C155.236 135.339 154.097 134.774 152.697 135.814C152.626 135.868 152.697 135.985 152.778 135.967C153.278 135.798 153.819 135.789 154.325 135.94C154.83 136.091 155.277 136.395 155.603 136.81C156.137 137.514 156.597 138.272 156.976 139.07C157.119 139.321 157.577 139.178 157.478 138.882V138.819C157.487 135.168 154.581 130.101 150.617 129.796Z" fill="#263238"/>
<path d="M173.705 97.9996C170.706 96.7683 167.542 95.9856 164.314 95.6765C160.726 95.3895 149.425 96.7977 146.824 99.1925C144.223 101.587 144.008 112.288 144.008 113.848C144.008 115.409 145.147 124.809 148.672 126.916C152.197 129.024 151.757 113.005 156.897 107.435C162.036 101.865 173.705 97.9996 173.705 97.9996Z" fill="#5FD58C"/>
<path opacity="0.1" d="M173.706 97.9992C173.706 97.9992 162.046 101.874 156.906 107.444C151.767 113.014 152.188 129.033 148.664 126.925C147.112 126.028 146.314 124.539 145.578 122.064C146.071 117.346 147.623 110 151.283 104.789C154.718 99.9007 160.889 97.2189 167.58 96.1426C169.67 96.5898 171.719 97.2108 173.706 97.9992Z" fill="black"/>
<path d="M150.054 136.361C150.153 132.073 153.956 120.449 158.198 113.687C162.441 106.924 175.643 102.484 177.527 102.484C182.083 102.529 183.689 103.829 184.388 103.381C185.088 102.932 180.254 99.7931 178.935 99.0397C177.617 98.2863 174.101 96.6898 172.127 96.8333C170.154 96.9768 158.037 98.7617 153.857 104.161C149.677 109.561 144.099 124.414 145.426 128.082C145.74 128.979 146.96 129.481 147.399 130.728C147.973 132.369 148.413 134.316 148.969 135.419C149.408 136.352 150.045 136.728 150.054 136.361Z" fill="#5FD58C"/>
<path d="M159.101 110.691C158.027 110.106 157.007 109.428 156.052 108.664C155.054 107.919 154.15 107.054 153.361 106.09C153.307 106.019 153.191 106.09 153.244 106.162C153.896 107.261 154.719 108.248 155.684 109.086C156.662 109.885 157.782 110.493 158.985 110.88C159.146 110.961 159.218 110.763 159.101 110.691Z" fill="#263238"/>
<path d="M149.811 132.083C149.676 131.778 149.461 131.517 149.299 131.186C149.114 130.859 148.963 130.513 148.851 130.154C148.734 129.45 148.538 128.761 148.268 128.1C147.966 127.603 147.608 127.142 147.201 126.728C146.716 126.282 146.399 125.684 146.304 125.033C146.304 124.943 146.16 124.952 146.16 125.033C146.223 126.324 147.138 127.203 147.748 128.262C148.04 128.97 148.271 129.702 148.438 130.45C148.643 131.143 149.068 131.751 149.649 132.181C149.721 132.298 149.855 132.199 149.811 132.083Z" fill="#263238"/>
<path d="M151.068 127.419C150.637 126.943 150.171 126.522 149.794 126.019C149.428 125.527 149.098 125.008 148.807 124.468C148.511 123.939 148.26 123.391 147.973 122.853C147.686 122.315 147.229 121.625 146.924 120.979C146.924 120.898 146.762 120.979 146.798 121.059C147.112 121.723 147.318 122.45 147.605 123.131C147.87 123.717 148.17 124.286 148.502 124.836C148.814 125.367 149.177 125.865 149.588 126.324C149.98 126.803 150.465 127.197 151.014 127.481C151.059 127.499 151.094 127.446 151.068 127.419Z" fill="#263238"/>
<path d="M152.411 123.167C151.479 122.451 150.654 121.606 149.962 120.655C149.299 119.758 148.68 118.745 148.088 117.776C148.043 117.705 147.926 117.776 147.953 117.83C148.362 118.951 148.907 120.018 149.577 121.005C149.911 121.479 150.3 121.912 150.734 122.297C151.221 122.691 151.754 123.025 152.321 123.292C152.411 123.328 152.483 123.221 152.411 123.167Z" fill="#263238"/>
<path d="M153.919 119.095C153.459 118.811 153.057 118.443 152.735 118.01C152.34 117.543 151.964 117.113 151.596 116.592C151.228 116.072 150.878 115.696 150.528 115.211C150.145 114.767 149.858 114.247 149.685 113.686C149.68 113.673 149.671 113.661 149.659 113.652C149.647 113.644 149.633 113.64 149.618 113.64C149.603 113.64 149.589 113.644 149.577 113.652C149.565 113.661 149.556 113.673 149.551 113.686C149.626 114.269 149.818 114.83 150.116 115.337C150.418 115.907 150.769 116.451 151.165 116.96C151.558 117.461 151.98 117.937 152.43 118.386C152.798 118.825 153.293 119.138 153.847 119.283C153.955 119.292 154.026 119.149 153.919 119.095Z" fill="#263238"/>
<path d="M154.897 113.973C154.485 113.606 154.072 113.229 153.695 112.834C153.319 112.44 152.942 112.009 152.592 111.588C152.242 111.166 151.83 110.691 151.489 110.242C151.478 110.226 151.461 110.214 151.442 110.21C151.423 110.206 151.402 110.209 151.386 110.22C151.369 110.231 151.357 110.247 151.353 110.267C151.349 110.286 151.353 110.306 151.363 110.323C151.621 110.849 151.921 111.352 152.26 111.83C152.576 112.298 152.927 112.742 153.31 113.157C153.698 113.574 154.111 113.966 154.548 114.332C154.959 114.723 155.444 115.027 155.974 115.229C155.993 115.233 156.013 115.231 156.032 115.224C156.05 115.217 156.067 115.205 156.079 115.189C156.091 115.173 156.098 115.154 156.1 115.134C156.102 115.115 156.099 115.095 156.09 115.077C155.729 114.671 155.33 114.301 154.897 113.973Z" fill="#263238"/>
<path d="M162.278 108.117C161.848 107.604 161.39 107.116 160.905 106.655C160.406 106.187 159.879 105.75 159.327 105.345C158.269 104.528 157.123 103.833 155.909 103.273C155.838 103.273 155.757 103.327 155.829 103.381C157.928 105.013 160.098 106.565 162.179 108.215C162.278 108.269 162.322 108.18 162.278 108.117Z" fill="#263238"/>
<path d="M164.674 104.341C164.22 103.848 163.712 103.409 163.158 103.031C161.982 102.274 160.724 101.651 159.409 101.175C159.392 101.165 159.373 101.163 159.354 101.168C159.336 101.173 159.32 101.185 159.31 101.201C159.301 101.218 159.298 101.238 159.303 101.256C159.308 101.275 159.321 101.291 159.337 101.3C160.476 101.982 161.633 102.646 162.737 103.39C163.283 103.753 163.81 104.146 164.315 104.565C164.817 104.995 165.212 105.525 165.696 105.973C165.696 105.973 165.804 105.973 165.786 105.919C165.522 105.326 165.144 104.79 164.674 104.341Z" fill="#263238"/>
<path d="M168.144 102.484C167.727 101.998 167.258 101.559 166.745 101.174C165.779 100.437 164.697 99.8672 163.543 99.4883C163.462 99.4883 163.417 99.578 163.489 99.6228C164.557 100.199 165.575 100.865 166.53 101.614C167.005 101.991 167.427 102.394 167.929 102.78C168.431 103.166 168.826 103.677 169.283 104.027C169.293 104.035 169.305 104.039 169.318 104.038C169.33 104.038 169.342 104.032 169.35 104.022C169.359 104.013 169.363 104 169.362 103.988C169.361 103.975 169.356 103.963 169.346 103.955C168.996 103.426 168.593 102.933 168.144 102.484Z" fill="#263238"/>
<path d="M170.611 100.251C170.144 99.9099 169.714 99.587 169.185 99.2731C168.721 98.9381 168.206 98.6806 167.66 98.5107C167.579 98.5107 167.543 98.6004 167.606 98.6363C168.503 99.2911 169.4 99.9638 170.297 100.636C171.077 101.314 171.783 102.072 172.405 102.897C172.405 102.897 172.503 102.897 172.485 102.852C172.139 101.815 171.486 100.907 170.611 100.251Z" fill="#263238"/>
<path d="M173.784 99.4078C172.921 98.6792 171.925 98.1248 170.851 97.7754C170.771 97.7754 170.726 97.8741 170.798 97.901C171.782 98.3567 172.689 98.9618 173.488 99.6948C174.295 100.424 175.02 101.239 175.65 102.125C175.65 102.17 175.767 102.125 175.74 102.125C175.306 101.081 174.637 100.151 173.784 99.4078Z" fill="#263238"/>
<path d="M178.064 101.121C177.949 100.901 177.817 100.691 177.669 100.493C177.375 100.084 177.039 99.7084 176.665 99.3718C175.888 98.7064 175.047 98.1205 174.153 97.6228C174.081 97.578 174.01 97.7035 174.09 97.7484C174.945 98.2506 175.737 98.8528 176.449 99.5422C176.796 99.8856 177.119 100.251 177.418 100.636C177.561 100.825 177.696 101.022 177.822 101.219C177.931 101.429 178.06 101.627 178.207 101.811C178.218 101.82 178.23 101.825 178.243 101.827C178.257 101.828 178.27 101.826 178.282 101.821C178.294 101.815 178.305 101.806 178.312 101.795C178.319 101.784 178.323 101.771 178.324 101.758C178.279 101.531 178.191 101.314 178.064 101.121Z" fill="#263238"/>
<path d="M180.648 101.228C180.391 100.913 180.116 100.613 179.823 100.331C179.542 100.039 179.243 99.7665 178.926 99.515C178.594 99.2638 178.244 99.0127 177.921 98.7436C177.849 98.6808 177.76 98.7974 177.84 98.8602C178.177 99.1178 178.492 99.4028 178.782 99.7123L179.625 100.609L180.468 101.506C180.733 101.82 181.014 102.12 181.312 102.403C181.356 102.448 181.428 102.403 181.401 102.331C181.192 101.937 180.939 101.566 180.648 101.228Z" fill="#263238"/>
<path d="M145.918 165.457C143.918 165.251 152.906 159.34 155.067 161.071C157.229 162.802 168.09 189.647 164.557 218.779C161.023 247.911 108.705 281.914 106.579 277.555C105.682 275.761 106.301 271.366 107.709 269.733C109.701 267.428 146.412 238.79 150.547 220.725C154.206 204.662 150.834 165.959 145.918 165.457Z" fill="#455A64"/>
<path d="M127.692 180.723C94.5864 215.604 64.683 275.447 82.7291 278.559C98.3266 281.25 147.308 267.034 159.371 261.903C164.645 259.67 150.868 215.263 145.388 218.026C140.643 220.385 134.419 222.977 133.674 222.923C132.087 222.815 138.661 201.477 144.437 183.297C152.895 156.434 140.123 167.628 127.692 180.723Z" fill="#FFCFC0"/>
<path d="M195.339 201.307C198.577 204.778 196.164 209.056 196.164 209.056C198.447 209.67 200.442 211.063 201.806 212.994C204.048 216.51 199.51 221.56 199.51 221.56C201.745 222.697 203.588 224.478 204.802 226.672C206.595 230.26 202.757 236 202.757 236C204.23 238.175 204.867 240.81 204.55 243.418C203.465 250.36 193.59 254.566 187.347 257.311C181.105 260.056 160.807 261.966 156.978 262.693L139.039 222.735C139.039 222.735 163.561 202.473 171.328 200.311C177.975 198.5 191.706 197.414 195.339 201.307Z" fill="#FFCFC0"/>
<path d="M195.597 208.536C188.144 208.805 181.166 211.272 174.071 213.335C174.039 213.344 174.012 213.366 173.996 213.396C173.98 213.425 173.976 213.46 173.986 213.492C173.995 213.524 174.017 213.551 174.047 213.567C174.076 213.583 174.111 213.586 174.143 213.577C181.183 211.442 188.547 210.734 195.669 208.886C195.711 208.873 195.748 208.844 195.77 208.806C195.793 208.768 195.801 208.722 195.792 208.679C195.783 208.635 195.758 208.596 195.722 208.57C195.686 208.543 195.641 208.531 195.597 208.536Z" fill="#263238"/>
<path d="M199.149 221.094C197.459 221.32 195.806 221.77 194.234 222.43C192.53 223.013 190.844 223.632 189.157 224.278C185.785 225.569 182.445 226.945 179.139 228.404C178.995 228.466 179.058 228.709 179.219 228.646C182.583 227.372 185.964 226.134 189.373 224.995C191.077 224.433 192.79 223.877 194.512 223.327C196.167 222.907 197.77 222.306 199.293 221.533C199.326 221.499 199.35 221.457 199.361 221.41C199.372 221.364 199.37 221.315 199.355 221.27C199.34 221.224 199.313 221.184 199.277 221.153C199.24 221.122 199.196 221.101 199.149 221.094Z" fill="#263238"/>
<path d="M202.637 236.045C201.175 236.045 199.624 236.942 198.278 237.48C196.763 238.099 195.229 238.718 193.704 239.319C190.637 240.521 187.578 241.731 184.475 242.826C184.322 242.879 184.394 243.131 184.555 243.068C187.713 241.974 190.879 240.915 194.027 239.785L198.655 238.099C199.956 237.615 201.651 237.157 202.709 236.197C202.718 236.183 202.724 236.167 202.725 236.15C202.726 236.133 202.723 236.116 202.716 236.101C202.709 236.086 202.698 236.072 202.684 236.063C202.67 236.053 202.654 236.047 202.637 236.045Z" fill="#263238"/>
<path d="M144.563 215.963L159.587 265.5C159.587 265.5 90.9271 287.026 79.4823 278.738C68.0376 270.451 92.3173 213.335 136.572 171.547C152.088 156.882 149.505 173.87 144.267 190.822C138.204 210.456 135.971 221.084 135.971 221.084L144.563 215.963Z" fill="#5FD58C"/>
<path d="M144.493 215.954C142.924 216.636 123.918 227.722 122.59 228.592C121.909 228.672 121.241 228.847 120.608 229.112C119.846 229.372 119.083 229.623 118.33 229.901C116.877 230.448 115.424 230.987 113.989 231.561C111.154 232.841 108.228 233.908 105.235 234.754C105.073 234.754 105.154 235.032 105.316 234.996C108.405 234.355 111.453 233.535 114.446 232.538C115.953 232.063 117.451 231.552 118.931 231.032L117.352 232.072C111.182 236.162 105.109 240.413 98.9744 244.557C95.4854 246.916 92.0143 249.311 88.4893 251.616C88.4608 251.634 88.4405 251.662 88.4329 251.695C88.4254 251.728 88.4311 251.762 88.449 251.791C88.4668 251.819 88.4953 251.84 88.5281 251.847C88.5609 251.855 88.5953 251.849 88.6239 251.831C101.01 243.759 143.336 217.892 144.798 216.51C145.022 216.268 144.78 215.838 144.493 215.954Z" fill="#263238"/>
<path d="M145.775 201.881C144.654 203.307 143.327 204.572 142.188 205.944C142.125 206.025 142.062 206.097 142.008 206.177C143.605 201.872 145.085 197.531 146.556 193.19C146.557 193.175 146.554 193.159 146.546 193.146C146.538 193.133 146.526 193.123 146.512 193.117C146.498 193.111 146.483 193.11 146.468 193.113C146.453 193.117 146.44 193.125 146.43 193.136C144.08 198.455 141.703 203.765 139.613 209.191C138.555 211.882 134.833 221.613 135.048 221.972C135.174 222.178 135.38 222.268 135.541 222.062C135.541 222.008 138.699 214.68 138.905 214.169C139.563 212.524 140.208 210.88 140.842 209.236L140.923 209.083C141.156 208.76 141.425 208.473 141.667 208.186C142.17 207.541 142.645 206.886 143.138 206.231C144.143 204.895 144.932 203.415 145.946 202.087C146.053 201.935 145.874 201.755 145.775 201.881Z" fill="#263238"/>
<path d="M159.973 265.644C159.915 265.379 159.837 265.118 159.74 264.864C159.642 264.568 159.534 264.272 159.426 263.967C159.31 263.676 159.217 263.376 159.148 263.07C159.085 262.765 159.014 262.451 158.951 262.173C158.951 262.012 158.664 262.083 158.709 262.245C158.781 262.541 158.861 262.828 158.942 263.142C159.014 263.437 159.065 263.736 159.094 264.039C159.094 264.335 159.166 264.631 159.22 264.936C159.22 265.07 159.22 265.214 159.283 265.348C159.346 265.483 159.328 265.617 159.364 265.743C156.117 266.451 152.906 267.537 149.686 268.353C146.466 269.169 142.995 270.147 139.64 270.981C132.868 272.703 126.097 274.452 119.298 276.066C115.414 276.963 111.548 277.968 107.638 278.757C107.476 278.757 107.548 279.035 107.71 278.999C114.58 277.627 121.486 276.479 128.339 274.909C135.191 273.34 141.936 271.627 148.636 269.626C152.43 268.487 156.395 267.51 160.063 266.039C160.089 266.033 160.114 266.022 160.135 266.007C160.157 265.991 160.175 265.972 160.189 265.949C160.204 265.927 160.213 265.902 160.218 265.876C160.222 265.849 160.221 265.823 160.216 265.797C160.21 265.771 160.199 265.746 160.183 265.724C160.168 265.703 160.149 265.684 160.126 265.67C160.104 265.656 160.079 265.646 160.052 265.642C160.026 265.638 159.999 265.638 159.973 265.644Z" fill="#263238"/>
<path d="M149.872 261.321C149.523 259.939 149.146 258.576 148.76 257.204C147.998 254.432 147.217 251.67 146.428 248.898C144.859 243.4 143.145 237.956 141.361 232.529C140.347 229.444 139.441 226.305 138.302 223.273C138.293 223.241 138.271 223.214 138.241 223.198C138.212 223.182 138.177 223.178 138.145 223.188C138.113 223.197 138.086 223.219 138.07 223.249C138.054 223.278 138.05 223.313 138.06 223.345C138.688 226.152 139.522 228.915 140.266 231.686C141.011 234.458 141.728 237.247 142.527 240.019C144.096 245.508 145.773 250.97 147.505 256.414C147.989 257.939 148.401 259.5 148.975 261.007C149.254 261.778 149.478 262.567 149.774 263.339C150.07 264.11 150.42 264.854 150.671 265.635C150.676 265.648 150.685 265.66 150.697 265.669C150.709 265.677 150.723 265.682 150.738 265.682C150.753 265.682 150.767 265.677 150.779 265.669C150.791 265.66 150.8 265.648 150.805 265.635C150.482 264.173 150.231 262.738 149.872 261.321Z" fill="#263238"/>
<path d="M307.157 0.602539H246.453V34.874H307.157V0.602539Z" fill="#5FD58C"/>
<path d="M256.723 34.8828L246.453 45.4127V34.8828H256.723Z" fill="#5FD58C"/>
<path d="M291.265 7.49121H255.227V8.54958H291.265V7.49121Z" fill="white"/>
<path d="M279.928 10.7285H255.227V11.7869H279.928V10.7285Z" fill="white"/>
<path d="M298.378 13.9668H255.227V15.0252H298.378V13.9668Z" fill="white"/>
<path d="M270.071 17.2139H255.227V18.2722H270.071V17.2139Z" fill="white"/>
<path d="M289.085 20.4512H255.227V21.5095H289.085V20.4512Z" fill="white"/>
<path d="M291.265 23.6982H255.227V24.7566H291.265V23.6982Z" fill="white"/>
<path d="M282.224 26.9365H255.227V27.9949H282.224V26.9365Z" fill="white"/>
<path d="M258.429 70.7598L319.133 70.7598V45.6818L258.429 45.6818V70.7598Z" fill="#455A64"/>
<path d="M308.859 70.7598L319.129 81.2897V70.7598H308.859Z" fill="#455A64"/>
<path d="M300.465 51.001H267.781V52.0952H300.465V51.001Z" fill="white"/>
<path d="M309.381 54.3369H267.781V55.4312H309.381V54.3369Z" fill="white"/>
<path d="M298.017 57.6738H267.781V58.7681H298.017V57.6738Z" fill="white"/>
<path d="M305.811 61.0107H267.781V62.105H305.811V61.0107Z" fill="white"/>
<path d="M292.716 64.3467H267.781V65.4409H292.716V64.3467Z" fill="white"/>
<path d="M175.657 205.774C170.554 216.079 158.41 222.178 158.41 222.178C158.41 222.178 146.265 216.07 141.171 205.774C136.919 197.181 139.61 187.898 146.328 185.871C155.943 182.965 158.41 199.719 158.41 199.719C158.41 199.719 160.885 182.965 170.509 185.871C177.245 187.898 179.936 197.181 175.657 205.774Z" fill="white"/>
<path d="M74.2686 92.4479C75.2911 99.0762 71.5778 106.072 71.5778 106.072C71.5778 106.072 63.7297 107.238 57.8369 104.036C52.9218 101.345 51.0921 96.0356 53.6124 92.8067C57.2001 88.1875 64.0347 95.354 64.0347 95.354C64.0347 95.354 59.5501 86.5282 65.1559 84.6806C69.0037 83.389 73.4076 86.9229 74.2686 92.4479Z" fill="#607FE1"/>
<path d="M83.7224 73.63C80.7536 77.5765 75.1478 79.1999 75.1478 79.1999C75.1478 79.1999 70.5018 75.6661 69.1564 70.9124C68.0352 66.948 69.9098 63.2437 72.8966 62.9208C77.1928 62.4454 76.9148 69.7195 76.9148 69.7195C76.9148 69.7195 79.2737 62.8311 83.1125 64.8222C85.7854 66.2035 86.198 70.3383 83.7224 73.63Z" fill="#5FD58C"/>
</svg>
