<svg width="471" height="499" viewBox="0 0 471 499" fill="none" xmlns="http://www.w3.org/2000/svg">
<path d="M35.8575 414.55H126.875L126.875 288.596H35.8575L35.8575 414.55Z" fill="#EBEBEB"/>
<path d="M31.4485 288.598H131.285V283.925H31.4485V288.598Z" fill="#DBDBDB"/>
<path d="M0.0549736 288.598H31.4531V283.925H0.0549736V288.598Z" fill="#EBEBEB"/>
<path d="M5.02213 414.55H35.8633L35.8633 288.596H5.02213L5.02213 414.55Z" fill="#DBDBDB"/>
<path d="M117.095 346.897H45.6445V306.504H117.095V346.897ZM45.923 346.639H116.858V306.762H45.9024L45.923 346.639Z" fill="#C7C7C7"/>
<path d="M77.4355 326.309H91.3398V318.315H77.4355V326.309Z" fill="#C7C7C7"/>
<path d="M87.3575 325.834H73.1953V318.789H87.3575V325.834ZM73.4532 325.576H87.0996V319.047H73.4532V325.576Z" fill="#C7C7C7"/>
<path d="M117.095 397.615H45.6445V357.212H117.095V397.615ZM45.923 397.357H116.858V357.47H45.9024L45.923 397.357Z" fill="#C7C7C7"/>
<path d="M77.4355 377.017H91.3398V369.023H77.4355V377.017Z" fill="#C7C7C7"/>
<path d="M87.3575 376.541H73.1953V369.506H87.3575V376.541ZM73.4532 376.283H87.0996V369.764H73.4532V376.283Z" fill="#C7C7C7"/>
<path d="M73.9014 115.342C89.519 111.702 99.2287 96.0908 95.5886 80.4732C91.9485 64.8556 76.3371 55.1459 60.7195 58.786C45.102 62.4261 35.3923 78.0375 39.0323 93.6551C42.6724 109.273 58.2838 118.982 73.9014 115.342Z" fill="#EBEBEB"/>
<path d="M88.2253 107.3C99.0449 96.48 99.0449 78.9379 88.2253 68.1183C77.4056 57.2986 59.8635 57.2986 49.0438 68.1183C38.2242 78.9379 38.2242 96.48 49.0438 107.3C59.8635 118.119 77.4056 118.119 88.2253 107.3Z" fill="#DBDBDB"/>
<path d="M81.6859 109.65C93.8737 102.194 97.7095 86.2696 90.2534 74.0818C82.7974 61.894 66.8729 58.0582 54.6851 65.5143C42.4973 72.9703 38.6615 88.8948 46.1176 101.083C53.5736 113.27 69.4981 117.106 81.6859 109.65Z" fill="white"/>
<path opacity="0.5" d="M94.01 82.2197C82.1893 89.3781 62.7563 101.127 51.8948 107.573C48.8298 104.981 46.4047 101.716 44.8086 98.0322L80.7143 64.6846C84.0785 66.4565 87.0129 68.9452 89.3102 71.9751C91.6075 75.0049 93.2119 78.502 94.01 82.2197Z" fill="#EBEBEB"/>
<path opacity="0.5" d="M94.5795 88.6152C94.4808 91.4999 93.9021 94.348 92.8672 97.0424L60.4892 112.36C59.0672 111.892 57.6871 111.305 56.3633 110.606C66.1726 104.913 84.0481 94.67 94.5795 88.6152Z" fill="#EBEBEB"/>
<path d="M68.8921 63.6318H68.3867V67.5618H68.8921V63.6318Z" fill="#C7C7C7"/>
<path d="M56.8205 66.718L56.3828 66.9707L58.3478 70.3741L58.7855 70.1214L56.8205 66.718Z" fill="#C7C7C7"/>
<path d="M47.909 75.4353L47.6562 75.873L51.0597 77.838L51.3124 77.4003L47.909 75.4353Z" fill="#C7C7C7"/>
<path d="M48.4924 87.4492H44.5625V87.9546H48.4924V87.4492Z" fill="#C7C7C7"/>
<path d="M51.0593 97.5579L47.6562 99.5234L47.909 99.9611L51.3121 97.9955L51.0593 97.5579Z" fill="#C7C7C7"/>
<path d="M58.3454 105.013L56.3828 108.418L56.8207 108.67L58.7833 105.266L58.3454 105.013Z" fill="#C7C7C7"/>
<path d="M68.8921 107.842H68.3867V111.772H68.8921V107.842Z" fill="#C7C7C7"/>
<path d="M78.9221 105.018L78.4844 105.271L80.4493 108.674L80.8871 108.421L78.9221 105.018Z" fill="#C7C7C7"/>
<path d="M86.2098 97.5672L85.957 98.0049L89.3601 99.9704L89.6129 99.5328L86.2098 97.5672Z" fill="#C7C7C7"/>
<path d="M92.7112 87.4492H88.7812V87.9546H92.7112V87.4492Z" fill="#C7C7C7"/>
<path d="M89.3601 75.4622L85.957 77.4277L86.2098 77.8654L89.6129 75.8998L89.3601 75.4622Z" fill="#C7C7C7"/>
<path d="M80.4476 66.7274L78.4844 70.1318L78.9222 70.3843L80.8854 66.9799L80.4476 66.7274Z" fill="#C7C7C7"/>
<path d="M69.0193 65.4053L69.8651 89.4593L67.4102 89.4284L68.3488 65.4053H69.0193Z" fill="#C7C7C7"/>
<path d="M83.9965 79.3213L67.8126 89.6464L66.6367 87.4803L83.6767 78.7334L83.9965 79.3213Z" fill="#A6A6A6"/>
<path d="M69.4757 87.7066C69.4757 87.9282 69.3877 88.1407 69.231 88.2974C69.0743 88.4541 68.8618 88.5421 68.6402 88.5421C68.4186 88.5421 68.2061 88.4541 68.0494 88.2974C67.8927 88.1407 67.8047 87.9282 67.8047 87.7066C67.8047 87.485 67.8927 87.2725 68.0494 87.1158C68.2061 86.9591 68.4186 86.8711 68.6402 86.8711C68.8618 86.8711 69.0743 86.9591 69.231 87.1158C69.3877 87.2725 69.4757 87.485 69.4757 87.7066Z" fill="#C7C7C7"/>
<path d="M107.889 117.97L115.8 122.88L117.296 120.456C117.514 120.113 117.821 119.835 118.184 119.654C118.548 119.472 118.954 119.393 119.359 119.424C119.822 119.467 120.286 119.484 120.751 119.476C121.161 119.463 121.566 119.564 121.921 119.768C122.276 119.972 122.568 120.271 122.763 120.631L124.103 123.137L132.304 118.733L130.963 116.227C130.772 115.866 130.684 115.459 130.71 115.051C130.735 114.643 130.873 114.251 131.107 113.916C131.377 113.537 131.621 113.141 131.84 112.73C132.036 112.37 132.327 112.071 132.682 111.866C133.037 111.66 133.441 111.556 133.851 111.564L136.698 111.657L136.987 102.374L134.202 102.271C133.791 102.255 133.393 102.125 133.052 101.896C132.711 101.666 132.441 101.346 132.273 100.971C132.18 100.765 132.077 100.569 131.963 100.362C131.85 100.156 131.747 99.9602 131.633 99.7642C131.419 99.4171 131.305 99.0171 131.305 98.609C131.305 98.2009 131.419 97.8009 131.633 97.4537L133.139 95.0195L125.238 90.1096L123.66 92.5336C123.444 92.8782 123.137 93.1567 122.773 93.3386C122.409 93.5205 122.002 93.5989 121.597 93.5651C121.137 93.5395 120.675 93.5395 120.215 93.5651C119.805 93.5793 119.4 93.4787 119.044 93.2745C118.689 93.0704 118.398 92.7708 118.203 92.4098L116.863 89.9033L108.611 94.3077L109.962 96.8142C110.154 97.1756 110.241 97.5833 110.214 97.9915C110.186 98.3997 110.046 98.7922 109.807 99.1247C109.549 99.5064 109.302 99.8983 109.085 100.301C108.892 100.663 108.601 100.964 108.245 101.17C107.89 101.376 107.484 101.478 107.074 101.466L104.289 101.332L104 110.615L106.847 110.698C107.256 110.715 107.652 110.846 107.99 111.076C108.329 111.305 108.598 111.624 108.765 111.998C108.869 112.204 108.972 112.41 109.085 112.606C109.199 112.802 109.302 113.008 109.415 113.204C109.63 113.553 109.743 113.955 109.743 114.365C109.743 114.774 109.63 115.176 109.415 115.525L107.889 117.97ZM113.768 110.1C113.052 108.772 112.745 107.262 112.887 105.761C113.029 104.259 113.614 102.834 114.566 101.664C115.519 100.495 116.797 99.6345 118.239 99.1919C119.681 98.7493 121.222 98.7443 122.666 99.1777C124.111 99.6111 125.394 100.463 126.355 101.627C127.315 102.79 127.908 104.212 128.06 105.712C128.212 107.213 127.915 108.725 127.207 110.057C126.499 111.389 125.412 112.48 124.083 113.194C123.201 113.667 122.234 113.962 121.237 114.061C120.241 114.16 119.235 114.061 118.277 113.771C117.319 113.481 116.428 113.004 115.654 112.369C114.88 111.734 114.239 110.952 113.768 110.069V110.1Z" fill="#EBEBEB"/>
<path d="M135.777 77.124L139.037 82.7765L140.759 81.745C141.009 81.6011 141.294 81.5296 141.582 81.5387C141.87 81.5478 142.149 81.6371 142.389 81.7966C142.658 81.9741 142.937 82.136 143.225 82.2814C143.483 82.4092 143.7 82.606 143.853 82.85C144.006 83.094 144.089 83.3756 144.091 83.6636V85.6543H150.61V83.6945C150.61 83.4074 150.691 83.126 150.842 82.8819C150.993 82.6378 151.209 82.4406 151.466 82.3123C151.755 82.1679 152.033 82.0029 152.312 81.8276C152.55 81.6679 152.828 81.5783 153.114 81.5692C153.401 81.5601 153.684 81.6317 153.931 81.776L155.664 82.8075L158.965 77.124L157.222 76.0925C156.975 75.9473 156.774 75.7362 156.641 75.4829C156.508 75.2296 156.448 74.9442 156.469 74.6588C156.469 74.4938 156.469 74.339 156.469 74.174C156.469 74.009 156.469 73.8542 156.469 73.6995C156.448 73.4141 156.508 73.1287 156.641 72.8754C156.774 72.6221 156.975 72.411 157.222 72.2658L158.965 71.2343L155.705 65.5921L153.973 66.6236C153.721 66.7638 153.436 66.8321 153.149 66.8212C152.862 66.8103 152.583 66.7205 152.343 66.5617C152.074 66.3842 151.795 66.2223 151.507 66.0769C151.241 65.9537 151.015 65.7574 150.857 65.5109C150.698 65.2643 150.612 64.9777 150.61 64.6844V62.7246H144.091V64.6844C144.088 64.9695 144.006 65.2483 143.855 65.4902C143.704 65.7321 143.49 65.9279 143.235 66.0563C142.944 66.2016 142.662 66.3635 142.389 66.5411C142.151 66.699 141.874 66.7883 141.588 66.7992C141.302 66.8101 141.019 66.7422 140.77 66.603L139.037 65.5715L135.777 71.2137L137.51 72.2451C137.755 72.3921 137.955 72.6036 138.088 72.8565C138.221 73.1093 138.281 73.3938 138.263 73.6789C138.263 73.8439 138.263 73.9987 138.263 74.1637C138.263 74.3287 138.263 74.4834 138.263 74.6485C138.284 74.9351 138.223 75.2217 138.088 75.4753C137.953 75.7289 137.749 75.9393 137.5 76.0822L135.777 77.124ZM141.966 74.2049C141.966 73.1478 142.28 72.1143 142.867 71.2354C143.455 70.3566 144.29 69.6717 145.267 69.2676C146.244 68.8635 147.319 68.7583 148.355 68.9653C149.392 69.1723 150.344 69.6822 151.091 70.4305C151.838 71.1788 152.346 72.1318 152.551 73.1689C152.756 74.206 152.649 75.2807 152.243 76.2568C151.837 77.2329 151.15 78.0667 150.27 78.6525C149.39 79.2384 148.356 79.55 147.299 79.548C145.89 79.5371 144.543 78.969 143.551 77.9679C142.56 76.9668 142.005 75.6139 142.007 74.2049H141.966Z" fill="#EBEBEB"/>
<path d="M20.8086 201.644L24.0681 207.286L25.8009 206.255C26.0495 206.112 26.3331 206.042 26.6195 206.053C26.9059 206.064 27.1835 206.156 27.4204 206.317C27.6989 206.492 27.9774 206.647 28.2662 206.802C28.5215 206.929 28.7366 207.125 28.8877 207.367C29.0388 207.609 29.12 207.888 29.1223 208.173V210.175H35.6515V208.173C35.6538 207.888 35.735 207.609 35.8861 207.367C36.0372 207.125 36.2523 206.929 36.5077 206.802C36.7965 206.647 37.075 206.492 37.3535 206.317C37.5904 206.156 37.8679 206.064 38.1543 206.053C38.4407 206.042 38.7244 206.112 38.9729 206.255L40.7058 207.286L43.9549 201.644L42.222 200.613C41.9763 200.464 41.7761 200.251 41.6433 199.996C41.5106 199.742 41.4503 199.455 41.4691 199.169C41.4691 199.014 41.4691 198.849 41.4691 198.694C41.4691 198.539 41.4691 198.374 41.4691 198.209C41.4511 197.924 41.5118 197.64 41.6446 197.387C41.7774 197.134 41.9771 196.923 42.222 196.776L43.9549 195.744L40.7058 190.092L38.9729 191.123C38.7234 191.267 38.4386 191.339 38.1507 191.329C37.8627 191.32 37.5831 191.231 37.3432 191.072C37.0742 190.894 36.7953 190.732 36.5077 190.587C36.2508 190.459 36.0346 190.261 35.8834 190.017C35.7322 189.773 35.6519 189.492 35.6515 189.205V187.214H29.1223V189.205C29.1219 189.492 29.0416 189.773 28.8904 190.017C28.7392 190.261 28.5231 190.459 28.2662 190.587C27.9786 190.732 27.6996 190.894 27.4307 191.072C27.1908 191.231 26.9111 191.32 26.6232 191.329C26.3352 191.339 26.0505 191.267 25.8009 191.123L24.0681 190.092L20.8086 195.744L22.5518 196.776C22.7983 196.921 22.9994 197.132 23.1324 197.385C23.2655 197.639 23.3252 197.924 23.3048 198.209C23.3048 198.364 23.3048 198.529 23.3048 198.694C23.3048 198.859 23.3048 199.014 23.3048 199.169C23.3237 199.456 23.2624 199.744 23.1276 199.999C22.9928 200.254 22.7899 200.466 22.5415 200.613L20.8086 201.644ZM27.049 198.777C27.049 197.72 27.3627 196.686 27.9502 195.807C28.5378 194.928 29.3729 194.244 30.3498 193.839C31.3267 193.435 32.4015 193.33 33.4382 193.537C34.475 193.744 35.427 194.254 36.1738 195.002C36.9207 195.751 37.4287 196.704 37.6337 197.741C37.8387 198.778 37.7314 199.852 37.3254 200.829C36.9195 201.805 36.233 202.638 35.353 203.224C34.473 203.81 33.439 204.122 32.3818 204.12C31.6806 204.12 30.9863 203.982 30.3386 203.713C29.691 203.444 29.1026 203.05 28.6073 202.554C28.112 202.058 27.7194 201.469 27.452 200.821C27.1846 200.172 27.0477 199.478 27.049 198.777Z" fill="#EBEBEB"/>
<path d="M153.182 498.659C224.527 498.659 282.364 491.686 282.364 483.084C282.364 474.482 224.527 467.509 153.182 467.509C81.8368 467.509 24 474.482 24 483.084C24 491.686 81.8368 498.659 153.182 498.659Z" fill="#EBEBEB"/>
<path d="M233.416 430.15C309.137 430.15 370.52 423.176 370.52 414.574C370.52 405.972 309.137 398.999 233.416 398.999C157.696 398.999 96.3125 405.972 96.3125 414.574C96.3125 423.176 157.696 430.15 233.416 430.15Z" fill="#EBEBEB"/>
<path d="M427.669 263.888C427.669 263.888 407.4 261.041 412.135 236.564C412.135 236.564 434.796 241.65 427.669 263.888Z" fill="#5FD58C"/>
<path opacity="0.1" d="M427.669 263.888C427.669 263.888 407.4 261.041 412.135 236.564C412.135 236.564 434.796 241.65 427.669 263.888Z" fill="black"/>
<path d="M426.648 258.771C426.251 257.535 425.789 256.319 425.266 255.13C425.266 254.965 425.266 254.811 425.215 254.666C425.215 254.326 425.163 253.985 425.132 253.635C425.081 252.902 425.029 252.17 424.988 251.438C424.905 249.973 424.802 248.519 424.781 247.054C424.781 247.037 424.775 247.022 424.763 247.01C424.752 246.998 424.736 246.992 424.72 246.992C424.703 246.992 424.687 246.998 424.676 247.01C424.664 247.022 424.658 247.037 424.658 247.054C424.658 248.519 424.658 249.983 424.658 251.448C424.658 252.184 424.699 252.916 424.781 253.645V254.13C423.646 251.691 422.285 249.364 420.717 247.178C420.028 246.201 419.288 245.261 418.5 244.362C417.695 243.433 416.839 242.557 416.024 241.639C416.024 241.587 415.88 241.639 415.942 241.731C417.393 243.331 418.698 245.057 419.841 246.889C420.46 247.817 421.037 248.776 421.594 249.746L421.409 249.674L420.686 249.385L419.026 248.756L415.766 247.539C415.704 247.539 415.653 247.631 415.766 247.652C416.798 248.085 417.912 248.539 418.974 249.003L420.542 249.674L421.336 250.004C421.508 250.086 421.688 250.148 421.873 250.19C422.285 250.922 422.688 251.665 423.059 252.418C424.002 254.311 424.829 256.261 425.534 258.256L425.689 258.679C425.155 258.371 424.6 258.102 424.028 257.874L421.965 256.915C420.542 256.265 419.129 255.605 417.767 254.852C417.695 254.852 417.644 254.924 417.705 254.965C419.098 255.729 420.47 256.533 421.831 257.286C422.533 257.668 423.234 258.039 423.946 258.379C424.537 258.734 425.182 258.991 425.854 259.143C426.529 261 426.973 262.933 427.174 264.898C427.401 267.663 427.381 270.458 427.443 273.233C427.443 273.284 427.515 273.233 427.515 273.233C427.721 270.716 427.835 268.168 427.845 265.651C427.815 263.309 427.411 260.986 426.648 258.771Z" fill="#263238"/>
<path d="M423.524 244.383C423.33 245.811 423.265 247.254 423.328 248.694H423.39C423.473 247.26 423.483 245.837 423.648 244.413C423.658 244.331 423.535 244.3 423.524 244.383Z" fill="#263238"/>
<path d="M417.721 245.611C416.815 245.264 415.945 244.833 415.121 244.321C415.049 244.321 414.987 244.393 415.06 244.435C415.87 244.981 416.756 245.405 417.69 245.693C417.69 245.693 417.772 245.631 417.721 245.611Z" fill="#263238"/>
<path d="M428.321 302.743C428.321 300.504 428.321 298.266 428.238 296.018C428.238 288.581 428.135 281.144 428.001 273.696C427.898 267.789 427.76 261.883 427.588 255.976C427.588 255.976 427.588 255.924 427.537 255.903C427.537 254.294 427.537 252.675 427.537 251.066C427.537 251.066 427.485 251.004 427.434 251.004C427.382 251.004 427.341 251.004 427.341 251.066V255.914C427.341 255.914 427.341 255.914 427.341 255.986C427.042 266.497 426.784 277.018 426.722 287.529C426.722 289.664 426.722 291.809 426.722 293.944C426.646 300.821 426.619 307.677 426.639 314.512C426.639 315.605 426.639 316.688 426.639 317.782C426.639 324.053 426.701 330.335 426.701 336.606C426.701 336.936 427.083 337.112 427.475 337.122C427.867 337.132 428.414 336.957 428.414 336.575C428.414 329.654 428.414 322.743 428.414 315.822C428.341 311.459 428.352 307.065 428.321 302.743Z" fill="#263238"/>
<path d="M419.85 295.935C419.85 295.935 410.102 288.715 400.84 293.594C391.577 298.473 390.133 317.318 390.133 317.318C390.133 317.318 403.728 319.257 412.289 311.129C420.541 303.249 419.85 295.935 419.85 295.935Z" fill="#5FD58C"/>
<path d="M422.504 296.38C420.709 295.673 418.767 295.421 416.852 295.647C416.457 295.573 416.056 295.535 415.655 295.534L414.283 295.431C413.334 295.348 412.385 295.297 411.436 295.224C409.518 295.08 407.589 294.966 405.67 294.771C405.598 294.771 405.588 294.884 405.67 294.894C407.579 295.132 409.466 295.41 411.374 295.596C412.406 295.699 413.334 295.802 414.314 295.864L415.026 295.936C414.737 296.008 414.448 296.07 414.159 296.153C412.63 296.597 411.15 297.198 409.745 297.947C408.971 298.092 408.218 298.298 407.455 298.484C406.248 298.762 405.051 299.072 403.855 299.392C401.483 300.01 399.141 300.712 396.789 301.393C396.717 301.393 396.789 301.527 396.789 301.506C399.131 300.939 401.493 300.402 403.845 299.845C404.99 299.577 406.134 299.309 407.279 299.02L408.177 298.814C405.554 300.435 403.213 302.474 401.245 304.848C399.339 307.177 397.718 309.725 396.418 312.44C396.418 312.512 396.49 312.584 396.531 312.512C398.129 309.716 400.089 307.142 402.359 304.858C402.359 304.982 402.266 305.116 402.225 305.25C402.05 305.818 401.864 306.395 401.689 306.973C401.328 308.118 400.956 309.263 400.657 310.418C400.657 310.501 400.75 310.521 400.781 310.418C401.194 309.304 401.575 308.19 401.978 307.066C402.163 306.519 402.359 305.972 402.555 305.415C402.648 305.137 402.751 304.848 402.844 304.559L402.937 304.301C404.024 303.241 405.182 302.255 406.403 301.351C408.006 300.172 409.736 299.176 411.56 298.381L411.467 298.886C411.374 299.33 411.271 299.773 411.178 300.217C410.993 301.145 410.807 302.063 410.632 302.991C410.26 304.879 410.033 306.787 409.683 308.675C409.683 308.757 409.786 308.788 409.796 308.675C410.24 306.777 410.828 304.91 411.22 303.012C411.436 302.063 411.653 301.104 411.849 300.155C411.942 299.711 412.024 299.257 412.117 298.814C412.177 298.569 412.222 298.321 412.251 298.071C412.437 297.999 412.602 297.917 412.787 297.855C415.342 296.755 418.148 296.369 420.905 296.741C422.195 296.982 423.405 297.538 424.428 298.358C425.452 299.178 426.258 300.238 426.774 301.444C426.857 301.65 427.197 301.527 427.146 301.31C426.808 300.184 426.213 299.152 425.408 298.296C424.602 297.44 423.608 296.784 422.504 296.38Z" fill="#263238"/>
<path d="M407.58 304.425C407.302 305.653 407.023 306.89 406.755 308.128C406.441 309.314 406.213 310.52 406.074 311.738C406.074 311.738 406.136 311.738 406.146 311.738C406.509 310.549 406.788 309.336 406.982 308.108L407.694 304.446C407.714 304.374 407.59 304.343 407.58 304.425Z" fill="#263238"/>
<path d="M398.148 307.561C396.91 308.19 395.704 308.912 394.404 309.428C394.394 309.429 394.384 309.432 394.376 309.437C394.367 309.443 394.36 309.45 394.355 309.459C394.351 309.468 394.348 309.478 394.348 309.488C394.347 309.498 394.35 309.508 394.354 309.517C394.359 309.526 394.365 309.534 394.374 309.54C394.382 309.545 394.391 309.549 394.401 309.551C394.411 309.552 394.421 309.551 394.431 309.547C394.44 309.544 394.449 309.538 394.455 309.531C395.73 308.957 396.973 308.317 398.179 307.612C398.179 307.612 398.179 307.55 398.148 307.561Z" fill="#263238"/>
<path d="M422.046 282.671C422.046 282.671 410.122 283.424 404.583 275.564C399.044 267.704 400.282 256.481 400.282 256.481C400.282 256.481 412.804 258.008 417.817 263.702C422.83 269.396 422.046 282.671 422.046 282.671Z" fill="#5FD58C"/>
<path d="M427.636 294.43C427.224 293.151 426.718 291.893 426.234 290.644C425.749 289.396 425.274 288.251 424.748 287.065C423.683 284.666 422.491 282.325 421.179 280.051C420.333 278.597 419.436 277.194 418.508 275.802C418.508 275.595 418.446 275.389 418.415 275.172C418.384 274.956 418.301 274.43 418.25 274.069C418.126 273.316 417.992 272.563 417.868 271.81C417.6 270.159 417.26 268.519 416.991 266.879C416.991 266.797 416.857 266.797 416.868 266.879C417.115 268.509 417.27 270.139 417.507 271.768C417.61 272.573 417.724 273.367 417.837 274.172C417.889 274.461 417.93 274.749 417.982 275.028C416.157 272.374 414.187 269.822 412.082 267.385L411.215 266.415C411.215 266.322 411.133 266.229 411.102 266.137C411.071 266.044 410.926 265.683 410.844 265.456C410.669 264.981 410.493 264.507 410.328 264.032C409.988 263.104 409.689 262.155 409.441 261.196C409.441 261.124 409.297 261.196 409.317 261.196C409.555 262.227 409.812 263.145 410.101 264.115C410.235 264.579 410.39 265.043 410.555 265.497L410.638 265.734C409.111 264.074 407.543 262.465 405.924 260.886C405.911 260.874 405.895 260.867 405.877 260.867C405.86 260.867 405.843 260.874 405.831 260.886C405.819 260.899 405.812 260.915 405.812 260.933C405.812 260.95 405.819 260.967 405.831 260.979C408.913 264.19 411.738 267.639 414.279 271.294C413.99 271.201 413.691 271.129 413.402 271.067C412.484 270.892 411.556 270.758 410.627 270.644C408.688 270.397 406.749 270.149 404.82 269.85C404.738 269.85 404.707 269.953 404.82 269.963C406.666 270.335 408.492 270.747 410.328 271.17C411.195 271.366 412.061 271.531 412.938 271.707C413.638 271.861 414.327 272.061 415.001 272.305C415.186 272.583 415.393 272.852 415.578 273.13C416.455 274.399 417.291 275.698 418.116 277.008L416.899 276.771C415.981 276.596 415.052 276.431 414.124 276.276C412.309 275.977 410.493 275.657 408.698 275.245C408.689 275.24 408.679 275.239 408.668 275.24C408.658 275.24 408.648 275.244 408.64 275.25C408.631 275.255 408.624 275.263 408.619 275.272C408.614 275.281 408.612 275.291 408.612 275.301C408.612 275.312 408.614 275.322 408.619 275.331C408.624 275.34 408.631 275.347 408.64 275.353C408.648 275.359 408.658 275.362 408.668 275.363C408.679 275.364 408.689 275.362 408.698 275.358C410.514 275.791 412.329 276.286 414.134 276.771C415.011 276.998 415.888 277.215 416.765 277.411L418.095 277.699C418.281 277.699 418.466 277.782 418.632 277.792C420.375 280.608 422.004 283.507 423.521 286.446C424.208 287.746 424.848 289.056 425.439 290.376C426.079 291.728 426.625 293.11 427.213 294.502C427.296 294.843 427.739 294.688 427.636 294.43Z" fill="#263238"/>
<path d="M415.438 267.034C415.211 265.9 414.973 264.765 414.726 263.63C414.726 263.548 414.592 263.63 414.602 263.63C414.829 264.744 415.046 265.858 415.252 266.983C415.419 268.107 415.643 269.223 415.922 270.325C415.842 269.218 415.679 268.118 415.438 267.034Z" fill="#263238"/>
<path d="M408.484 266.704C407.938 266.425 407.35 266.209 406.772 265.982L405.875 265.631L405.411 265.446C405.233 265.391 405.064 265.315 404.905 265.219C404.812 265.157 404.761 265.312 404.854 265.322C405.03 265.374 405.199 265.447 405.359 265.538L405.813 265.734L406.679 266.126C407.253 266.391 407.842 266.622 408.443 266.817C408.515 266.838 408.557 266.735 408.484 266.704Z" fill="#263238"/>
<path d="M434.25 273.295C434.25 273.295 441.47 259.824 452.435 257.73C463.4 255.636 470.125 266.941 470.125 266.941C470.125 266.941 462.121 277.163 452.053 278.948C441.986 280.732 434.25 273.295 434.25 273.295Z" fill="#5FD58C"/>
<path d="M459.786 263.744C456.929 263.355 454.03 263.39 451.183 263.847L451.668 263.579L454.103 262.331C455.794 261.454 457.496 260.515 459.26 259.814C459.269 259.818 459.28 259.82 459.29 259.819C459.3 259.818 459.31 259.815 459.319 259.809C459.327 259.803 459.334 259.796 459.339 259.787C459.344 259.778 459.347 259.767 459.347 259.757C459.347 259.747 459.344 259.737 459.339 259.728C459.334 259.719 459.327 259.711 459.319 259.705C459.31 259.7 459.3 259.696 459.29 259.696C459.28 259.695 459.269 259.696 459.26 259.7C457.548 260.495 455.763 261.165 454.041 261.959C453.174 262.351 452.328 262.764 451.493 263.218C450.957 263.496 450.358 263.775 449.822 264.115C447.411 264.599 445.069 265.379 442.849 266.436C443.303 265.931 443.767 265.405 444.221 264.94C445.252 263.816 446.284 262.64 447.367 261.619C447.429 261.567 447.367 261.485 447.284 261.537C446.129 262.568 444.922 263.548 443.808 264.631C443.262 265.157 442.777 265.662 442.241 266.261C441.993 266.536 441.745 266.825 441.498 267.127C437.731 269.149 434.459 271.98 431.916 275.417C429.373 278.853 427.622 282.81 426.789 287.004C426.789 287.076 426.882 287.117 426.903 287.004C428.449 281.867 431.221 277.184 434.979 273.357C439.013 269.236 444.095 266.293 449.677 264.848C452.991 264.007 456.417 263.697 459.827 263.93C459.879 264.002 459.879 263.795 459.786 263.744Z" fill="#263238"/>
<path opacity="0.1" d="M470.138 266.94C470.138 266.94 462.123 277.162 452.056 278.947C444.372 280.308 438.049 276.296 435.48 274.326L434.934 273.418C434.934 273.418 440.091 269.034 449.952 266.507C459.813 263.98 470.138 266.94 470.138 266.94Z" fill="black"/>
<path d="M453.417 258.968C452.576 259.457 451.763 259.994 450.983 260.577C450.218 261.154 449.51 261.804 448.869 262.516C448.807 262.578 448.869 262.66 448.961 262.598C449.684 261.969 450.416 261.34 451.179 260.742C451.912 260.134 452.683 259.576 453.49 259.071C453.552 259.029 453.49 258.926 453.417 258.968Z" fill="#263238"/>
<path d="M459.433 261.247C459.031 261.422 458.608 261.567 458.206 261.732L456.989 262.237C456.896 262.237 456.937 262.423 456.989 262.382L458.216 261.887L459.433 261.371C459.547 261.34 459.506 261.216 459.433 261.247Z" fill="#263238"/>
<path d="M432.805 290.253C432.805 290.253 434.734 303.662 444.79 308.293C454.847 312.925 467.091 308.293 467.091 308.293C467.091 308.293 462.274 279.371 432.805 290.253Z" fill="#5FD58C"/>
<path d="M460.171 299.599C459.243 299.496 458.315 299.341 457.397 299.176L456.045 298.918L455.344 298.773L454.529 298.021C452.615 296.339 450.542 294.847 448.34 293.565C447.149 292.865 445.919 292.231 444.658 291.667H444.844L448.155 291.811C450.362 291.914 452.569 291.966 454.777 292.11C454.849 292.11 454.849 291.986 454.777 291.986C452.569 291.832 450.362 291.594 448.155 291.398L444.936 291.11L443.286 290.965H442.863C442.286 290.749 441.708 290.553 441.13 290.367C438.388 289.427 435.439 289.266 432.61 289.903C430.083 290.542 427.556 292.203 426.906 294.864C426.906 294.957 427.03 295.029 427.061 294.936C428.01 292.708 430.475 291.584 432.713 291.12C434.214 290.831 435.752 290.8 437.262 291.027C437.362 291.73 437.531 292.421 437.768 293.09C438.046 294.029 438.325 294.978 438.614 295.916C439.181 297.794 439.81 299.65 440.357 301.528C440.357 301.544 440.363 301.56 440.375 301.571C440.386 301.583 440.402 301.589 440.419 301.589C440.435 301.589 440.451 301.583 440.462 301.571C440.474 301.56 440.48 301.544 440.48 301.528C440.016 299.65 439.624 297.752 439.171 295.875C438.944 294.957 438.717 294.039 438.479 293.111C438.352 292.468 438.183 291.834 437.974 291.213C438.856 291.365 439.727 291.572 440.584 291.832C442.137 292.288 443.66 292.843 445.143 293.492C445.287 294.452 445.504 295.39 445.72 296.329C445.999 297.515 446.298 298.681 446.68 299.836C446.68 299.908 446.803 299.836 446.793 299.836C446.783 299.836 446.793 299.692 446.793 299.619C446.566 298.526 446.329 297.443 446.092 296.35C445.906 295.462 445.741 294.586 445.545 293.699C446.793 294.266 448.021 294.875 449.207 295.555C449.207 295.834 449.3 296.112 449.341 296.36C449.413 296.814 449.496 297.278 449.578 297.732C449.774 298.763 449.98 299.795 450.228 300.826C450.678 302.8 451.253 304.743 451.951 306.644C451.951 306.644 451.951 306.695 451.951 306.716L452.012 306.788C452.012 306.84 452.126 306.788 452.116 306.726C451.651 304.746 451.084 302.776 450.682 300.785C450.465 299.753 450.249 298.804 450.042 297.804L449.764 296.308C449.764 296.174 449.712 296.019 449.692 295.865C453.38 298.042 456.719 300.765 459.594 303.941C459.666 304.024 459.81 303.941 459.738 303.828C458.992 302.81 458.193 301.832 457.345 300.898C456.84 300.362 456.314 299.867 455.777 299.32H455.953C456.417 299.403 456.891 299.475 457.366 299.537C458.294 299.661 459.222 299.753 460.161 299.857C460.213 299.733 460.244 299.609 460.171 299.599Z" fill="#263238"/>
<path d="M453.101 304.135L453.039 303.785C453.039 303.64 452.936 303.496 452.915 303.351C452.709 302.464 452.534 301.557 452.369 300.659C452.369 300.597 452.266 300.659 452.266 300.659C452.328 301.859 452.585 303.04 453.029 304.156H453.101V304.135Z" fill="#263238"/>
<path d="M444.691 303.971C444.691 303.971 444.691 303.92 444.629 303.91C444.351 302.734 444.083 301.548 443.835 300.351C443.711 299.732 443.577 299.103 443.453 298.474L443.268 297.442C443.243 297.14 443.17 296.844 443.051 296.565C443.046 296.554 443.038 296.545 443.028 296.538C443.018 296.532 443.007 296.528 442.994 296.528C442.982 296.528 442.971 296.532 442.961 296.538C442.95 296.545 442.943 296.554 442.938 296.565C442.932 297.173 443.019 297.779 443.196 298.36C443.319 299.01 443.443 299.66 443.588 300.31C443.876 301.63 444.22 302.94 444.619 304.24C444.619 304.312 444.763 304.302 444.753 304.24L444.691 303.971Z" fill="#263238"/>
<path d="M459.25 295.718C457.414 295.471 455.578 295.203 453.742 294.976C453.659 294.976 453.628 295.089 453.742 295.099C455.568 295.368 457.414 295.594 459.25 295.842C459.291 295.883 459.322 295.718 459.25 295.718Z" fill="#263238"/>
<path d="M427.655 258.906C427.655 258.906 421.466 231.922 450.492 220.999C450.492 220.999 458.527 256.523 427.655 258.906Z" fill="#5FD58C"/>
<path d="M431.476 237.43C431.476 237.348 431.342 237.358 431.352 237.43C431.455 238.967 431.507 240.525 431.672 242.041C431.668 242.052 431.666 242.064 431.667 242.075C431.668 242.087 431.673 242.098 431.679 242.108C431.686 242.118 431.695 242.126 431.705 242.131C431.716 242.137 431.727 242.14 431.739 242.14C431.751 242.14 431.762 242.137 431.773 242.131C431.783 242.126 431.792 242.118 431.799 242.108C431.805 242.098 431.809 242.087 431.811 242.075C431.812 242.064 431.81 242.052 431.806 242.041C431.754 240.504 431.589 238.988 431.476 237.43Z" fill="#263238"/>
<path d="M445.364 242.587C443.549 243.309 441.723 244.011 439.918 244.764C439.918 244.764 439.918 244.867 439.918 244.846C441.754 244.155 443.559 243.412 445.385 242.701C445.395 242.703 445.405 242.702 445.415 242.699C445.424 242.696 445.433 242.691 445.44 242.684C445.447 242.677 445.453 242.668 445.456 242.659C445.459 242.649 445.459 242.639 445.457 242.629C445.456 242.619 445.451 242.61 445.445 242.602C445.439 242.594 445.431 242.588 445.422 242.584C445.413 242.579 445.403 242.578 445.393 242.578C445.382 242.579 445.373 242.582 445.364 242.587Z" fill="#263238"/>
<path d="M448.122 230.139C446.349 230.955 444.626 231.878 442.965 232.903C442.872 232.954 442.964 233.089 443.047 233.037C444.728 232.057 446.441 231.108 448.204 230.242C448.266 230.211 448.194 230.108 448.122 230.139Z" fill="#263238"/>
<path d="M447.687 317.257H405.871V361.332H447.687V317.257Z" fill="#37474F"/>
<path d="M405.127 332.851H402.992V408.344H405.127V332.851Z" fill="#263238"/>
<path d="M450.338 332.851H448.203V408.344H450.338V332.851Z" fill="#263238"/>
<path d="M428.877 332.851H426.742V408.344H428.877V332.851Z" fill="#263238"/>
<path d="M449.266 358.505H404.066V364.611H449.266V358.505Z" fill="#263238"/>
<path d="M270.385 354.425L275.084 407.999H138.798C138.798 407.999 152.963 300.963 152.963 300.014C152.963 299.065 115.883 266.29 121.579 196.718C128.629 110.106 191.132 73.6475 252.226 73.6475C313.32 73.6475 360.418 116.357 371.537 176.915L393.841 267.559L364.563 271.657C364.563 271.657 363.304 333.042 347.57 348.785C331.836 364.529 270.385 354.425 270.385 354.425Z" fill="#5FD58C"/>
<g opacity="0.6">
<path opacity="0.6" d="M270.385 354.425L275.084 407.999H138.798C138.798 407.999 152.963 300.963 152.963 300.014C152.963 299.065 115.883 266.29 121.579 196.718C128.629 110.106 191.132 73.6475 252.226 73.6475C313.32 73.6475 360.418 116.357 371.537 176.915L393.841 267.559L364.563 271.657C364.563 271.657 363.304 333.042 347.57 348.785C331.836 364.529 270.385 354.425 270.385 354.425Z" fill="white"/>
</g>
<path d="M249.357 281.355C232.19 281.365 215.341 276.727 200.597 267.936C185.853 259.144 173.764 246.525 165.611 231.418L165.16 230.591L166.814 229.698L167.266 230.525C177.129 248.799 192.809 263.26 211.82 271.617C230.831 279.973 252.087 281.747 272.22 276.657C292.353 271.567 310.213 259.905 322.969 243.518C335.725 227.131 342.648 206.956 342.642 186.19C342.642 184.798 342.642 183.37 342.539 181.847C341.66 161.512 334.087 142.036 320.996 126.449L320.395 125.726L321.842 124.522L322.444 125.246C335.798 141.148 343.524 161.016 344.419 181.763C344.484 183.285 344.522 184.77 344.522 186.19C344.529 198.689 342.073 211.067 337.293 222.616C332.513 234.166 325.504 244.66 316.665 253.498C307.827 262.336 297.333 269.346 285.784 274.126C274.234 278.906 261.856 281.362 249.357 281.355Z" fill="#5FD58C"/>
<path d="M157.245 210.27L157.02 209.33C155.782 204.392 154.943 199.363 154.51 194.292C154.285 191.632 154.172 188.896 154.172 186.18C154.173 168.965 158.843 152.073 167.685 137.303C176.527 122.533 189.21 110.438 204.383 102.306C219.556 94.1738 236.65 90.3099 253.846 91.1254C271.041 91.941 287.693 97.4055 302.028 106.937L302.818 107.454L301.774 109.014L300.994 108.497C286.941 99.1552 270.617 93.7999 253.761 93.0013C236.905 92.2028 220.149 95.9909 205.275 103.962C190.402 111.934 177.969 123.79 169.301 138.269C160.633 152.747 156.054 169.305 156.052 186.18C156.052 188.84 156.164 191.519 156.39 194.132C156.812 199.108 157.633 204.043 158.843 208.888L159.069 209.828L157.245 210.27Z" fill="#5FD58C"/>
<path d="M222.68 264.342L221.796 264.032C205.532 258.217 191.477 247.49 181.578 233.335C179.767 230.751 178.113 228.061 176.624 225.28C170.171 213.261 166.793 199.831 166.793 186.189C166.793 183.858 166.896 181.49 167.094 179.14L167.178 178.2L169.058 178.36L168.983 179.3C168.786 181.593 168.682 183.915 168.682 186.189C168.679 199.52 171.979 212.644 178.288 224.387C179.743 227.104 181.359 229.731 183.128 232.254C192.8 246.09 206.532 256.577 222.426 262.265L223.319 262.575L222.68 264.342Z" fill="#5FD58C"/>
<path d="M249.354 268.75H248.414V266.871H249.354C264.159 266.881 278.68 262.809 291.321 255.103C301.523 248.861 310.223 240.447 316.802 230.459C318.314 228.175 319.704 225.812 320.965 223.381C326.964 211.904 330.077 199.139 330.035 186.189C330.033 179.05 329.085 171.942 327.216 165.051C324.22 153.854 318.819 143.446 311.388 134.551C304.144 125.856 295.152 118.782 284.996 113.79C274.839 108.797 263.746 105.998 252.437 105.574C251.967 105.574 251.497 105.574 251.065 105.574L250.971 104.634V105.574C249.768 105.574 248.536 105.574 247.333 105.574H246.393C245.895 105.574 245.454 105.574 244.984 105.63C244.344 105.63 243.724 105.696 243.104 105.752H242.624C242.145 105.752 241.685 105.828 241.262 105.884H241.055L240.115 105.978L239.175 106.1C238.545 106.185 238 106.251 237.464 106.335L236.938 106.42C236.402 106.495 235.932 106.57 235.453 106.664C234.513 106.814 233.648 106.993 232.774 107.181C231.75 107.388 230.725 107.623 229.72 107.877C225.175 109.015 220.74 110.553 216.467 112.473C205.937 117.201 196.541 124.128 188.91 132.788C181.28 141.448 175.591 151.641 172.226 162.682L171.953 163.622L170.148 163.077L170.421 162.184C174.553 148.55 182.144 136.219 192.457 126.39C202.77 116.562 215.452 109.572 229.268 106.1C230.293 105.837 231.336 105.602 232.389 105.386C233.329 105.198 234.203 105.01 235.124 104.859C235.594 104.765 236.064 104.69 236.609 104.615L237.135 104.53C237.737 104.436 238.291 104.361 238.846 104.296L239.927 104.155L240.754 104.079C240.87 104.065 240.986 104.065 241.102 104.079C241.562 104.023 242.042 103.985 242.465 103.948H242.982C243.602 103.891 244.241 103.854 244.861 103.816C245.341 103.816 245.801 103.816 246.309 103.76H247.249C248.48 103.76 249.74 103.76 251.008 103.76H251.121C251.601 103.76 252.061 103.76 252.55 103.76C264.119 104.197 275.467 107.063 285.856 112.172C296.246 117.281 305.444 124.518 312.854 133.414C323.243 145.91 329.715 161.193 331.46 177.35C333.205 193.507 330.147 209.819 322.667 224.246C321.372 226.735 319.948 229.154 318.399 231.493C311.665 241.71 302.763 250.32 292.327 256.71C279.383 264.6 264.513 268.767 249.354 268.75Z" fill="#5FD58C"/>
<path d="M181.342 199.066L180.28 198.295C177.116 180.268 181.119 161.718 191.436 146.6C195.59 140.549 200.664 135.183 206.475 130.697L207.217 130.114L208.364 131.609L207.621 132.182C201.954 136.554 197.007 141.787 192.959 147.691C183.123 162.14 179.191 179.807 181.971 197.064L192.959 195.457C192.468 192.392 192.22 189.293 192.216 186.189C192.216 182.065 192.657 177.953 193.532 173.923L193.739 172.983L195.619 173.378L195.421 174.318C193.83 181.484 193.664 188.894 194.933 196.124L194.153 197.224L181.342 199.066ZM202.076 157.475L200.478 156.469L200.976 155.67C204.672 149.822 209.398 144.692 214.924 140.529L215.676 139.965L216.804 141.459L216.052 142.032C210.712 146.045 206.148 150.998 202.583 156.648L202.076 157.475ZM221.335 123.939L220.085 123.46L215.131 112.049L215.611 110.809C223.456 107.297 231.803 105.036 240.349 104.107C243.339 103.786 246.345 103.626 249.353 103.628C250.481 103.628 251.496 103.628 252.474 103.694H253.413L253.329 105.574H252.389C251.449 105.574 250.462 105.508 249.363 105.508C246.424 105.507 243.487 105.664 240.565 105.978C232.523 106.852 224.658 108.933 217.237 112.153L221.438 121.871C236.375 115.413 253.088 114.33 268.734 118.807L269.674 119.061L269.147 120.875L268.208 120.612C252.676 116.17 236.075 117.359 221.335 123.967V123.939Z" fill="#5FD58C"/>
<path d="M249.356 256.278C238.49 256.309 227.768 253.785 218.058 248.909C207.843 243.796 199.025 236.277 192.361 227C186.192 218.466 182.058 208.635 180.273 198.257L181.063 197.167L192.962 195.456C192.471 192.392 192.223 189.293 192.22 186.189C192.219 182.065 192.661 177.953 193.535 173.923L193.742 172.983L195.622 173.378L195.425 174.318C193.834 181.484 193.668 188.893 194.936 196.124L194.156 197.224L182.304 198.944C184.128 208.688 188.09 217.907 193.902 225.938C200.388 234.972 208.975 242.291 218.922 247.264C227.596 251.587 237.091 254.014 246.775 254.385C256.459 254.756 266.112 253.062 275.091 249.416L275.965 249.059L276.67 250.807L275.805 251.155C267.406 254.567 258.422 256.307 249.356 256.278ZM292.479 241.455L291.304 239.989L292.037 239.406C296.137 236.119 299.842 232.369 303.081 228.231C312.503 216.229 317.617 201.409 317.603 186.151C317.605 177.19 315.841 168.316 312.412 160.037C308.983 151.758 303.955 144.236 297.617 137.902C291.279 131.567 283.754 126.544 275.473 123.119C267.192 119.694 258.318 117.935 249.356 117.943C239.696 117.917 230.142 119.962 221.338 123.939L220.483 124.325L219.712 122.614L220.567 122.229C235.714 115.433 252.776 114.211 268.737 118.779C283.376 122.969 296.25 131.816 305.409 143.98C314.567 156.145 319.512 170.962 319.492 186.189C319.51 196.438 317.264 206.564 312.913 215.843C308.342 225.601 301.588 234.178 293.175 240.91L292.479 241.455ZM202.079 157.475L200.481 156.469L200.98 155.67C204.676 149.822 209.402 144.692 214.928 140.529L215.68 139.965L216.807 141.459L216.056 142.032C210.715 146.045 206.151 150.998 202.587 156.648L202.079 157.475Z" fill="#5FD58C"/>
<path d="M249.35 243.363C245.729 243.361 242.117 243.018 238.56 242.339C227.234 240.157 216.832 234.604 208.717 226.407C200.603 218.21 195.155 207.753 193.088 196.406C191.748 188.957 191.886 181.318 193.492 173.923L193.698 172.983L195.578 173.378L195.381 174.318C193.802 181.487 193.649 188.896 194.93 196.124C196.277 203.568 199.158 210.652 203.389 216.924C207.455 223.022 212.693 228.251 218.799 232.306C224.905 236.361 231.757 239.161 238.955 240.543C242.396 241.18 245.888 241.495 249.388 241.483C263.299 241.482 276.699 236.237 286.916 226.796C297.133 217.354 303.416 204.409 304.513 190.541C304.626 189.112 304.682 187.646 304.682 186.189C304.712 178.699 303.206 171.283 300.257 164.398C297.308 157.513 292.98 151.305 287.538 146.158C283.374 142.192 278.617 138.897 273.44 136.393C261.203 130.474 247.216 129.268 234.147 133.004C221.077 136.739 209.841 145.156 202.581 156.648L202.073 157.447L200.475 156.469L200.973 155.67C204.67 149.821 209.395 144.691 214.921 140.528C223.321 134.205 233.299 130.316 243.762 129.288C254.225 128.26 264.77 130.133 274.239 134.701C279.595 137.29 284.516 140.696 288.826 144.795C294.448 150.113 298.921 156.526 301.969 163.639C305.018 170.751 306.578 178.413 306.553 186.151C306.553 187.655 306.496 189.168 306.384 190.644C305.25 204.981 298.752 218.364 288.185 228.121C277.618 237.877 263.761 243.29 249.378 243.279L249.35 243.363Z" fill="#5FD58C"/>
<path d="M249.354 230.394C242.069 230.394 234.897 228.591 228.476 225.147C222.056 221.704 216.587 216.725 212.557 210.656C210.41 207.451 208.7 203.974 207.472 200.317C204.868 192.569 204.455 184.252 206.279 176.284C207.306 171.748 209.054 167.407 211.457 163.426C215.966 155.907 222.61 149.9 230.544 146.169C238.478 142.438 247.342 141.153 256.009 142.476L256.949 142.617L256.667 144.496L255.727 144.355C247.43 143.089 238.943 144.32 231.348 147.892C223.752 151.464 217.391 157.215 213.074 164.413C210.773 168.227 209.094 172.383 208.102 176.726C207.401 179.832 207.051 183.006 207.059 186.191C207.053 190.793 207.802 195.365 209.277 199.725C210.448 203.229 212.082 206.561 214.136 209.632C220.19 218.746 229.539 225.159 240.222 227.525C250.904 229.891 262.087 228.026 271.423 222.32C275.745 219.692 279.565 216.316 282.702 212.348C288.554 204.89 291.708 195.67 291.65 186.191C291.629 178.137 289.321 170.256 284.994 163.464C280.668 156.671 274.502 151.247 267.212 147.824L266.357 147.429L267.156 145.728L268.002 146.122C275.617 149.695 282.06 155.358 286.58 162.452C291.1 169.546 293.51 177.779 293.53 186.191C293.574 196.099 290.261 205.729 284.131 213.514C279.997 218.786 274.717 223.049 268.692 225.98C262.667 228.912 256.054 230.434 249.354 230.432V230.394Z" fill="#5FD58C"/>
<path d="M249.36 218.344C241.832 218.342 234.544 215.697 228.767 210.872L228.043 210.27L229.246 208.832L229.97 209.434C235.413 213.971 242.274 216.458 249.36 216.464C254.873 216.457 260.279 214.95 265 212.103L265.808 211.614L266.748 213.231L265.949 213.71C260.94 216.727 255.207 218.328 249.36 218.344Z" fill="#5FD58C"/>
<path d="M279.125 198.4L277.368 197.732L277.697 196.858C278.983 193.449 279.639 189.834 279.633 186.19C279.633 178.161 276.443 170.461 270.766 164.783C265.088 159.106 257.388 155.916 249.359 155.916C241.329 155.916 233.629 159.106 227.951 164.783C222.274 170.461 219.084 178.161 219.084 186.19C219.078 189.509 219.621 192.805 220.691 195.947L220.992 196.83L219.206 197.441L218.906 196.501C217.468 192.258 216.932 187.761 217.331 183.299C217.731 178.836 219.057 174.506 221.225 170.586C223.393 166.665 226.356 163.24 229.923 160.529C233.491 157.819 237.584 155.883 241.943 154.845C244.374 154.278 246.862 153.991 249.359 153.989C256.459 153.99 263.359 156.339 268.985 160.671C274.61 165.003 278.645 171.074 280.46 177.938C282.149 184.413 281.791 191.253 279.435 197.516L279.125 198.4Z" fill="#5FD58C"/>
<path d="M239.37 143.086L237.566 143.617L241.509 156.996L243.312 156.465L239.37 143.086Z" fill="#5FD58C"/>
<path d="M288.099 144.159L278.223 155.047L279.615 156.31L289.491 145.422L288.099 144.159Z" fill="#5FD58C"/>
<path d="M283.122 211.6L282.051 213.145L294.277 221.623L295.348 220.078L283.122 211.6Z" fill="#5FD58C"/>
<path d="M241.504 227.699L237.598 242.085L239.412 242.578L243.318 228.191L241.504 227.699Z" fill="#5FD58C"/>
<path d="M270.817 237.125L269.09 237.866L274.937 251.496L276.665 250.755L270.817 237.125Z" fill="#5FD58C"/>
<path d="M194.821 195.156L180.148 197.322L180.423 199.182L195.096 197.015L194.821 195.156Z" fill="#5FD58C"/>
<path d="M216.774 230.757L207.02 241.489L208.411 242.754L218.165 232.022L216.774 230.757Z" fill="#5FD58C"/>
<path d="M216.478 110.416L214.754 111.165L220.455 124.295L222.179 123.547L216.478 110.416Z" fill="#5FD58C"/>
<path d="M213.585 208.861L201.262 217.148L202.311 218.708L214.634 210.421L213.585 208.861Z" fill="#5FD58C"/>
<path d="M291.838 188.516L291.68 190.389L306.262 191.621L306.42 189.748L291.838 188.516Z" fill="#5FD58C"/>
<path d="M255.167 215.854L253.344 216.311L256.732 229.851L258.556 229.394L255.167 215.854Z" fill="#5FD58C"/>
<path d="M182.209 138.394L181.074 139.893L192.395 148.467L193.53 146.969L182.209 138.394Z" fill="#5FD58C"/>
<path d="M206.415 175.403L206.074 177.252L219.218 179.674L219.559 177.825L206.415 175.403Z" fill="#5FD58C"/>
<path d="M292.145 254.623L290.531 255.587L297.951 268.015L299.566 267.051L292.145 254.623Z" fill="#5FD58C"/>
<path d="M321.38 222.541L320.539 224.223L333.493 230.701L334.334 229.02L321.38 222.541Z" fill="#5FD58C"/>
<path d="M328.731 163.609L315.137 168.182L315.736 169.963L329.331 165.391L328.731 163.609Z" fill="#5FD58C"/>
<path d="M307.204 222.532L306.121 224.068L317.832 232.317L318.914 230.78L307.204 222.532Z" fill="#5FD58C"/>
<path d="M221.511 261.958L216.953 275.716L218.738 276.307L223.296 262.549L221.511 261.958Z" fill="#5FD58C"/>
<path d="M344.344 180.77L330.242 181.994L330.405 183.867L344.507 182.643L344.344 180.77Z" fill="#5FD58C"/>
<path d="M168.866 192.071L154.441 193.379L154.611 195.251L169.036 193.943L168.866 192.071Z" fill="#5FD58C"/>
<path d="M327.832 132.29L315.469 139.854L316.45 141.458L328.813 133.894L327.832 132.29Z" fill="#5FD58C"/>
<path d="M280.862 109.918L275.562 123.239L277.311 123.935L282.611 110.613L280.862 109.918Z" fill="#5FD58C"/>
<path d="M250.292 261.243C243.191 261.219 236.123 260.271 229.267 258.423C195.524 249.513 177.036 218.947 174.132 194.256C173.239 186.737 174.386 177.554 174.874 173.635C174.987 172.798 175.062 172.131 175.062 171.952C174.799 171.623 171.932 170.862 169.836 170.298C165.814 169.236 164.197 168.728 163.981 168.052C162.947 164.17 172.995 125.859 210.976 107.39C225.971 100.02 242.724 96.9766 259.353 98.602C277.211 100.482 294.289 108.001 308.679 120.502C308.851 120.642 309.05 120.744 309.264 120.802C309.477 120.86 309.701 120.873 309.92 120.84C315.719 120.427 330.814 102.982 330.964 102.832L331.19 102.559L331.725 103.02L331.5 103.292C330.87 104.016 316.057 121.15 309.976 121.545C309.663 121.583 309.345 121.557 309.041 121.47C308.738 121.383 308.455 121.236 308.209 121.038C293.951 108.65 277.032 101.14 259.306 99.3163C242.322 97.63 225.212 100.878 210.028 108.672C194.844 116.466 182.23 128.474 173.699 143.257C166.274 155.927 164.197 166.143 164.667 167.882C164.94 168.277 167.994 169.095 170.015 169.631C174.545 170.834 175.767 171.266 175.767 171.961C175.767 172.187 175.701 172.77 175.579 173.738C175.091 177.629 173.953 186.727 174.827 194.181C177.703 218.618 196.022 248.921 229.455 257.756C242.56 261.374 256.393 261.439 269.532 257.944C279.41 255.256 285.792 251.224 287.249 250.021C288.039 249.363 286.366 246.881 285.022 244.889C283.678 242.896 282.352 240.95 282.625 239.823C282.661 239.667 282.729 239.521 282.827 239.394C282.924 239.268 283.048 239.164 283.189 239.089C294.035 233.074 302.635 222.171 307.41 208.439C311.987 195.281 312.514 180.627 308.839 168.296C300.192 139.243 272.54 121.959 240.01 125.295C209.463 128.425 192.573 158.634 192.573 161.623C192.629 162.046 194.189 163.098 201.314 165.73L202.555 166.19C202.985 165.633 203.38 165.049 203.739 164.442C206.624 159.903 214.303 147.844 229.21 140.945C242.867 134.638 256.721 135.503 261.111 137.373C261.825 137.674 262.229 138.003 262.351 138.36C262.643 139.206 262.22 141.18 261.731 143.426C261.139 146.189 260.321 150.005 261.327 150.466C261.797 150.71 262.332 150.964 262.925 151.255C268.949 154.15 281.488 160.185 286.093 176.388C291.046 193.833 280.529 209.351 277.108 210.469C273.874 211.55 265.246 202.151 264.278 201.07L264.043 200.807L264.56 200.328L264.795 200.591C267.351 203.411 274.495 210.573 276.891 209.793C279.467 208.947 290.464 194.369 285.416 176.576C280.895 160.673 269.006 154.959 262.624 151.876C262.022 151.594 261.477 151.331 261.007 151.086C259.513 150.334 260.255 146.904 261.007 143.276C261.43 141.292 261.881 139.243 261.646 138.576C261.646 138.492 261.402 138.275 260.8 138.012C256.646 136.245 242.764 135.437 229.473 141.574C214.745 148.37 207.151 160.307 204.293 164.79C203.109 166.67 202.836 167.093 202.414 166.877C202.273 166.801 201.746 166.604 201.069 166.36C194.274 163.85 191.868 162.6 191.868 161.594C191.868 158.549 208.983 127.758 239.944 124.572C272.841 121.197 300.774 138.67 309.497 168.07C313.209 180.533 312.683 195.328 308.059 208.646C303.218 222.557 294.505 233.582 283.518 239.663C283.462 239.69 283.412 239.73 283.373 239.778C283.334 239.827 283.307 239.884 283.292 239.945C283.095 240.772 284.42 242.764 285.586 244.456C287.324 247.032 288.969 249.457 287.672 250.528C287.531 250.697 273.48 261.243 250.292 261.243Z" fill="#263238"/>
<path d="M244.08 193.089C244.056 191.447 244.349 189.816 244.945 188.286C245.704 186.683 246.973 185.377 248.554 184.573C249.09 184.254 249.767 183.878 250.566 183.464C251.388 183.027 252.174 182.524 252.915 181.96C253.668 181.387 254.322 180.695 254.852 179.911C255.384 179.114 255.659 178.173 255.641 177.214C255.655 176.518 255.503 175.829 255.199 175.203C254.926 174.638 254.539 174.135 254.062 173.727C253.575 173.302 253.005 172.982 252.389 172.787C251.766 172.589 251.116 172.488 250.462 172.486C249.712 172.477 248.967 172.618 248.272 172.9C247.64 173.164 247.045 173.511 246.505 173.934C245.977 174.349 245.501 174.825 245.086 175.353C244.702 175.829 244.347 176.328 244.024 176.847L239.277 173.576C239.731 172.479 240.367 171.465 241.157 170.578C241.932 169.71 242.836 168.965 243.836 168.369C244.847 167.763 245.938 167.305 247.079 167.007C248.253 166.696 249.463 166.542 250.678 166.546C252.063 166.545 253.441 166.747 254.767 167.148C256.09 167.525 257.324 168.164 258.395 169.027C259.504 169.938 260.397 171.084 261.008 172.383C261.72 173.908 262.067 175.578 262.023 177.261C262.038 178.303 261.899 179.342 261.609 180.344C261.347 181.208 260.95 182.027 260.435 182.769C259.922 183.497 259.319 184.158 258.639 184.733C257.897 185.351 257.111 185.916 256.29 186.425C255.566 186.857 254.842 187.271 254.109 187.675C253.408 188.062 252.741 188.508 252.116 189.01C251.532 189.484 251.036 190.056 250.65 190.702C250.249 191.408 250.05 192.211 250.077 193.023L244.08 193.089ZM244.184 205.796V198.277H250.237V205.796H244.184Z" fill="#37474F"/>
<path d="M177.072 483.188C174.896 483.889 112.78 483.085 110.439 481.548C109.531 480.98 109.129 471.924 108.943 460.97V460.619C108.943 458.36 108.871 456.039 108.861 453.677C108.861 453.358 108.861 453.038 108.861 452.708C108.778 436.895 109.026 420.484 109.026 420.484L150.584 420.897L149.315 452.801V454.069L149.057 460.671V461.351C149.057 461.351 172.699 472.295 175.102 474.255C177.505 476.215 179.249 482.497 177.072 483.188Z" fill="#FFCFC0"/>
<path d="M158.41 465.623C158.245 465.623 158.163 465.53 158.152 465.479L158.41 465.623Z" fill="#5FD58C"/>
<path d="M177.067 483.189C174.891 483.891 112.775 483.086 110.423 481.549C109.629 481.044 109.217 473.834 109 464.54C120.346 466.912 164.493 475.835 165.731 472.07C166.206 470.584 162.43 468.016 160.048 466.572C166.567 469.666 173.787 473.235 175.066 474.277C177.408 476.227 179.254 482.488 177.067 483.189Z" fill="#263238"/>
<path opacity="0.1" d="M138.109 483.086C124.132 482.756 111.528 482.22 110.486 481.549C109.692 481.044 109.279 473.834 109.062 464.54L115.674 465.891L138.109 483.086Z" fill="black"/>
<path d="M96.2695 241.554C96.2695 241.554 105.594 346.558 107.162 354.531C107.513 356.357 107.729 366.27 107.874 379.029C108.193 406.879 108.008 457.029 108.008 457.029H151.784C151.784 457.029 150.484 370.086 148.555 354.078C146.626 338.069 134.218 241.554 134.218 241.554H96.2695Z" fill="#607FE1"/>
<path d="M149.768 449.397C142.929 449.253 144.899 449.201 138.061 449.14C134.719 449.14 112.748 448.913 109.623 449.428C109.604 449.428 109.585 449.436 109.572 449.449C109.558 449.463 109.551 449.481 109.551 449.501C109.551 449.52 109.558 449.538 109.572 449.552C109.585 449.565 109.604 449.573 109.623 449.573C112.717 450.089 134.719 449.893 138.061 449.862C144.899 449.8 142.929 449.738 149.768 449.604C149.795 449.604 149.822 449.593 149.841 449.573C149.86 449.554 149.871 449.528 149.871 449.501C149.871 449.473 149.86 449.447 149.841 449.428C149.822 449.408 149.795 449.397 149.768 449.397Z" fill="#263238"/>
<path d="M116.28 399.701C116.225 393.347 116.177 386.997 116.136 380.65C116.136 374.461 116.136 368.334 115.805 362.197C115.217 349.747 112.711 337.513 110.896 325.218C109.08 312.923 107.605 300.556 106.244 288.188C104.727 274.356 103.386 260.421 102.004 246.506C102.004 246.403 101.85 246.413 101.86 246.506C103.923 271.262 106.223 296.017 109.658 320.711C110.511 326.838 111.442 332.954 112.453 339.061C113.485 345.249 114.516 351.438 114.98 357.627C115.444 363.816 115.537 369.881 115.599 376.018L115.785 395.059C115.919 409.149 116.063 430.852 116.197 444.952C116.197 445.22 116.62 445.21 116.62 444.952C116.445 432.45 116.373 412.275 116.28 399.701Z" fill="#263238"/>
<path d="M87.0352 241.554C87.0352 241.554 105.591 346.558 107.159 354.531C107.51 356.357 107.727 366.27 107.871 379.029L128.707 241.554H87.0352Z" fill="#263238"/>
<path d="M126.228 486.892C124 487.438 62.1007 482.229 59.8727 480.538C59.0166 479.908 59.2435 470.842 59.8727 459.908C59.8727 459.795 59.8727 459.681 59.8727 459.568C59.9862 457.309 60.1203 454.988 60.2853 452.636C60.2853 452.316 60.2853 451.986 60.3472 451.667C61.3787 435.885 62.7918 419.536 62.7918 419.536L104.195 422.888L100.688 454.637L100.554 455.896L99.8321 462.466L99.7599 463.147C99.7599 463.147 122.566 475.731 124.825 477.856C127.084 479.981 128.445 486.355 126.228 486.892Z" fill="#FFCFC0"/>
<path d="M126.22 486.892C124.003 487.438 62.1039 482.229 59.8759 480.538C59.1436 480.001 59.1952 473.317 59.6077 464.55C69.1902 467.005 115.4 478.619 116.813 474.803C117.113 473.998 116.133 472.802 114.75 471.626C119.537 474.4 123.858 476.989 124.776 477.815C127.066 479.97 128.448 486.345 126.22 486.892Z" fill="#263238"/>
<path d="M101.62 459.391L57.875 457.534C57.875 457.534 69.8195 361.545 70.0258 355.645C70.3559 346.877 74.5643 310.673 78.1023 281.379C78.1023 281.379 71.3977 265.514 83.9301 241.543H134.204C134.204 241.543 130.831 264.349 125.065 278.821C121.194 280.174 117.454 281.879 113.894 283.916C113.894 283.916 108.892 349.27 108.737 357.419C108.345 373.51 101.62 459.391 101.62 459.391Z" fill="#607FE1"/>
<path d="M100.461 451.378C93.6329 450.945 95.603 450.976 88.7746 450.615C85.4326 450.439 63.4931 449.325 60.3471 449.707C60.2749 449.707 60.2749 449.831 60.3471 449.841C63.4416 450.491 85.412 451.234 88.754 451.347C95.5824 451.564 93.6226 451.43 100.461 451.574C100.482 451.567 100.5 451.554 100.513 451.537C100.525 451.519 100.532 451.498 100.532 451.476C100.532 451.454 100.525 451.433 100.513 451.416C100.5 451.398 100.482 451.385 100.461 451.378Z" fill="#263238"/>
<path d="M87.0666 244.886C87.1491 244.721 86.9016 244.577 86.8087 244.742C81.3066 254.864 79.717 266.655 82.3424 277.873C83.0645 280.967 84.3126 283.969 84.4054 287.156C84.3236 290.554 83.9787 293.941 83.3739 297.285C82.5178 304.062 81.7029 310.839 80.8571 317.626C79.193 331.118 77.5392 344.613 75.8957 358.111C74.2522 371.61 72.6087 385.112 70.9652 398.618C69.3458 412.027 67.6955 425.498 66.1792 438.959C65.9832 440.671 65.7872 442.383 65.6016 444.116C65.6016 444.229 65.7666 444.281 65.7872 444.116C67.5682 430.714 69.2874 417.304 70.9446 403.888C72.6019 390.472 74.2969 377.063 76.0298 363.661C77.7077 350.231 79.3821 336.805 81.0531 323.382L83.6318 303.237C84.0444 299.885 84.457 296.522 84.8592 293.17C85.3802 290.156 85.3802 287.075 84.8592 284.062C84.1991 281.101 83.1367 278.275 82.6003 275.284C82.0781 272.353 81.8329 269.38 81.868 266.403C81.9294 260.517 83.0329 254.688 85.1274 249.188C85.7257 247.733 86.3652 246.299 87.0666 244.886Z" fill="#263238"/>
<path d="M126.983 277.811C122.454 279.455 118.078 281.491 113.903 283.896C113.738 283.989 113.842 284.247 114.017 284.165C118.432 282.277 122.929 280.462 127.22 278.337C127.286 278.303 127.337 278.245 127.362 278.175C127.387 278.105 127.384 278.028 127.353 277.96C127.322 277.892 127.267 277.839 127.198 277.811C127.129 277.783 127.052 277.783 126.983 277.811Z" fill="#263238"/>
<path d="M128.386 247.536C128.386 247.392 128.107 247.351 128.107 247.536C128.11 252.456 127.862 257.372 127.365 262.266C127.169 264.535 125.302 277.088 121.403 276.17C120.743 276.015 120.371 275.366 120.299 274.375C120.316 273.076 120.493 271.784 120.825 270.528C121.258 267.898 121.609 265.267 121.857 262.606C122.316 257.666 122.264 252.692 121.702 247.763C121.694 247.735 121.677 247.711 121.654 247.693C121.63 247.676 121.602 247.666 121.573 247.666C121.544 247.666 121.515 247.676 121.492 247.693C121.469 247.711 121.452 247.735 121.444 247.763C121.562 254.612 121.162 261.46 120.247 268.248C119.752 271.518 118.112 276.428 121.527 276.933C124.941 277.439 127.251 269.208 127.715 266.959C128.779 260.541 129.004 254.012 128.386 247.536Z" fill="#263238"/>
<path d="M121.512 276.511C121.158 277.356 120.862 278.225 120.625 279.11C120.375 279.794 120.249 280.517 120.254 281.246C120.263 281.273 120.279 281.298 120.3 281.317C120.321 281.337 120.347 281.35 120.376 281.357C120.404 281.363 120.433 281.362 120.461 281.353C120.488 281.344 120.513 281.329 120.533 281.307C120.94 280.67 121.25 279.974 121.451 279.244C121.75 278.44 122.059 277.646 122.338 276.831C122.371 276.724 122.362 276.608 122.313 276.506C122.264 276.405 122.179 276.326 122.074 276.286C121.97 276.245 121.853 276.246 121.749 276.288C121.645 276.33 121.56 276.409 121.512 276.511Z" fill="#263238"/>
<path d="M137.859 187.516C137.866 187.624 137.833 187.731 137.767 187.817C137.7 187.902 137.605 187.961 137.498 187.98L135.714 188.094C134.115 183.968 132.382 180.605 132.836 181.905C133.516 183.936 133.895 186.056 133.96 188.197L130.422 188.383C129.03 181.028 127.245 175.582 127.328 177.263C127.782 184.051 127.328 186.227 126.905 188.558C118.385 188.96 107.204 189.363 99.1171 189.476C98.1785 185.422 97.3636 181.018 97.2192 181.327C96.2022 183.935 95.7181 186.72 95.7958 189.517C93.2171 189.517 91.1644 189.517 89.906 189.425C89.906 189.425 89.3078 186.01 89.2149 184.886C88.9842 182.004 89.292 179.104 90.1226 176.335C91.082 173.563 92.3337 170.9 93.8566 168.393V168.331C94.7818 166.655 95.5054 164.875 96.0124 163.029C96.3515 161.696 96.5724 160.336 96.6725 158.965C97.0542 153.952 99.8701 149.61 104.584 148.279C113.486 139.883 122.408 143.4 125.1 149.836C125.358 150.455 125.616 151.177 125.863 151.961C126.781 154.86 127.596 158.625 128.349 161.533C128.62 162.675 128.964 163.799 129.381 164.896C131.763 170.177 136.9 173.107 137.859 187.516Z" fill="#263238"/>
<path d="M102.619 149.598C101.124 150.287 99.8339 151.352 98.8754 152.691C97.9169 154.029 97.3231 155.593 97.1521 157.231C97.0125 159.339 96.5964 161.42 95.9143 163.419C95.011 165.42 93.8113 167.274 92.3557 168.917C90.1068 171.423 88.6936 174.566 88.3123 177.912C87.8603 181.724 88.2117 185.589 89.3438 189.258C88.3962 185.381 88.2558 181.35 88.9312 177.417C89.6017 173.445 91.8503 170.939 94.1505 167.917C95.9838 165.566 97.1522 162.766 97.5337 159.809C97.5867 157.976 97.8992 156.16 98.4621 154.415C99.4233 152.525 100.924 150.964 102.774 149.928C102.793 149.897 102.804 149.862 102.806 149.826C102.809 149.789 102.802 149.753 102.786 149.72C102.771 149.688 102.748 149.659 102.718 149.638C102.689 149.616 102.655 149.602 102.619 149.598Z" fill="#263238"/>
<path d="M134.7 170.507C132.523 167.67 130.244 165.246 128.965 161.719C127.799 158.511 127.129 155.107 125.942 151.899C125.942 151.847 125.85 151.899 125.87 151.899C127.696 157.593 128.057 163.348 131.739 168.134C133.86 170.604 135.649 173.34 137.062 176.273C138.394 179.55 139.093 183.05 139.125 186.587C139.12 186.601 139.118 186.616 139.12 186.631C139.123 186.646 139.128 186.66 139.137 186.672C139.145 186.684 139.157 186.694 139.17 186.7C139.183 186.707 139.198 186.711 139.212 186.711C139.227 186.711 139.242 186.707 139.255 186.7C139.268 186.694 139.279 186.684 139.288 186.672C139.297 186.66 139.302 186.646 139.304 186.631C139.306 186.616 139.305 186.601 139.3 186.587C139.836 180.84 138.194 175.101 134.7 170.507Z" fill="#263238"/>
<path d="M123.547 188.422C139.731 204.502 160.216 238.448 156.555 245.411C152.429 253.157 129.128 230.289 129.819 229.144C130.396 228.175 122 207.628 115.894 192.599C109.787 177.571 119.535 184.451 123.547 188.422Z" fill="#FFCFC0"/>
<path d="M123.547 188.422C139.731 204.502 160.216 238.448 156.555 245.411C152.429 253.157 129.128 230.289 129.819 229.144C130.396 228.175 122 207.628 115.894 192.599C109.787 177.571 119.535 184.451 123.547 188.422Z" fill="#5FD58C"/>
<path d="M146.785 244.443C138.863 239.657 129.343 229.909 129.786 229.177C130.354 228.208 121.968 207.661 115.862 192.632C115.263 191.157 114.83 189.888 114.5 188.815L146.785 244.443Z" fill="#263238"/>
<path d="M78.1367 249.961C79.9831 250.745 134.961 245.515 136.364 244.896L128.916 220.719C128.916 220.719 134.074 213.952 130.928 206.278C129.05 201.626 117.24 187.051 116.178 186.205C111.928 182.791 107.678 182.451 103.8 184.142C102.098 184.854 100.107 185.648 98.9107 187.34C86.2338 205.246 78.1367 249.961 78.1367 249.961Z" fill="#5FD58C"/>
<path d="M122.973 193.663C124.222 195.406 125.573 197.087 126.862 198.82C126.305 197.582 125.748 196.334 125.14 195.117C126.07 196.573 126.855 198.118 127.481 199.728C128.45 201.042 129.329 202.421 130.111 203.854C131.079 205.542 131.749 207.384 132.092 209.3C132.37 211.237 132.247 213.21 131.731 215.097C131.125 217.265 130.316 219.372 129.317 221.389C129.193 221.667 128.822 221.451 128.915 221.183C130.266 217.614 131.762 213.859 131.297 209.96C130.833 206.061 128.76 202.74 126.738 199.491C125.558 197.525 124.248 195.641 122.819 193.848C122.798 193.673 122.922 193.591 122.973 193.663Z" fill="#263238"/>
<path d="M105.769 186C106.068 186.969 111.132 193.014 115.599 192.529C117.043 192.364 116.506 184.401 116.506 184.401L116.599 183.802L117.92 175.448L107.852 169.847L106.398 169.114C106.398 169.114 106.192 171.425 105.954 174.272V174.684C105.954 174.849 105.954 174.994 105.903 175.148C105.903 175.582 105.831 176.015 105.8 176.458C105.769 176.902 105.748 177.119 105.738 177.49L105.676 178.521C105.541 181.013 105.572 183.512 105.769 186Z" fill="#FFCFC0"/>
<path d="M105.949 174.303C106.93 176.562 108.389 178.582 110.227 180.223C112.065 181.863 114.238 183.084 116.594 183.802L117.914 175.448L107.847 169.847L106.393 169.114C106.393 169.114 106.186 171.425 105.949 174.303Z" fill="#263238"/>
<path d="M128.82 160.758C132.193 175.199 123.911 178.871 120.785 179.593C117.959 180.253 108.232 182.131 103.384 168.092C98.5362 154.054 104.199 147.917 110.605 146.07C117.01 144.224 125.489 146.297 128.82 160.758Z" fill="#FFCFC0"/>
<path d="M126.316 158.242C125.965 158.242 125.645 158.242 125.284 158.191C124.923 158.222 124.561 158.135 124.253 157.943C124.17 157.861 124.116 157.754 124.099 157.639C124.083 157.523 124.104 157.406 124.16 157.304C124.301 157.118 124.489 156.973 124.705 156.884C124.921 156.795 125.156 156.765 125.387 156.798C125.864 156.791 126.327 156.96 126.687 157.273C126.765 157.35 126.819 157.449 126.842 157.556C126.866 157.664 126.857 157.776 126.818 157.878C126.778 157.981 126.71 158.07 126.621 158.135C126.532 158.199 126.426 158.237 126.316 158.242Z" fill="#263238"/>
<path d="M116.779 162.192C117.13 162.192 117.46 162.192 117.811 162.13C118.175 162.158 118.538 162.064 118.842 161.862C118.928 161.784 118.984 161.68 119.003 161.565C119.022 161.451 119.001 161.334 118.945 161.233C118.803 161.046 118.613 160.902 118.395 160.815C118.177 160.727 117.94 160.701 117.708 160.738C117.23 160.731 116.768 160.908 116.418 161.233C116.339 161.308 116.284 161.405 116.26 161.512C116.236 161.618 116.243 161.73 116.282 161.832C116.32 161.934 116.388 162.023 116.476 162.087C116.565 162.151 116.67 162.188 116.779 162.192Z" fill="#263238"/>
<path d="M119.187 163.596C119.187 163.596 119.114 163.658 119.125 163.689C119.331 164.72 119.414 165.855 118.578 166.35C118.578 166.35 118.578 166.412 118.578 166.401C119.661 166.051 119.537 164.493 119.187 163.596Z" fill="#263238"/>
<path d="M118.099 162.719C116.48 162.894 116.944 166.122 118.44 165.957C119.935 165.792 119.461 162.574 118.099 162.719Z" fill="#263238"/>
<path d="M117.476 162.957C117.218 163.184 116.991 163.545 116.651 163.628C116.31 163.71 115.918 163.432 115.619 163.143C115.619 163.143 115.557 163.143 115.568 163.143C115.64 163.762 115.97 164.36 116.651 164.36C117.331 164.36 117.62 163.752 117.682 163.102C117.723 163.05 117.6 162.885 117.476 162.957Z" fill="#263238"/>
<path d="M124.561 162.44C124.561 162.44 124.644 162.44 124.654 162.513C124.757 163.544 125.046 164.658 125.995 164.864V164.926C124.871 164.916 124.499 163.41 124.561 162.44Z" fill="#263238"/>
<path d="M125.31 161.265C126.909 160.925 127.476 164.143 125.991 164.463C124.505 164.783 123.979 161.554 125.31 161.265Z" fill="#263238"/>
<path d="M126.025 161.369C126.303 161.493 126.613 161.751 126.922 161.72C127.232 161.689 127.469 161.286 127.634 160.915C127.634 160.915 127.686 160.915 127.696 160.915C127.82 161.524 127.696 162.194 127.16 162.421C126.623 162.648 126.128 162.163 125.901 161.575C125.85 161.503 125.912 161.317 126.025 161.369Z" fill="#263238"/>
<path d="M123.866 167.907C124.085 168.619 124.268 169.342 124.413 170.073C124.413 170.135 124.258 170.197 124.021 170.249C123.435 170.453 122.804 170.493 122.196 170.364C121.589 170.235 121.028 169.942 120.576 169.516C120.56 169.505 120.548 169.488 120.544 169.469C120.541 169.45 120.545 169.429 120.555 169.413C120.566 169.397 120.583 169.385 120.603 169.381C120.622 169.378 120.642 169.381 120.659 169.392C121.654 169.865 122.775 170.006 123.856 169.795C123.856 169.588 123.021 167.319 123.124 167.299C123.68 167.262 124.238 167.3 124.785 167.412C123.959 164.318 122.649 161.429 121.865 158.366C121.865 158.252 122 158.191 122.041 158.294C123.546 161.367 124.738 164.584 125.599 167.897C125.723 168.289 124.166 167.99 123.866 167.907Z" fill="#263238"/>
<path d="M103.535 168.887C104.452 168.35 105.212 167.583 105.742 166.662C106.272 165.742 106.553 164.699 106.558 163.637C109.06 162.286 111.159 160.297 112.643 157.871C112.561 158.18 112.024 160.45 111.715 161.595C120.998 159.078 123.319 151.641 123.319 151.641C125.257 153.145 126.827 155.071 127.909 157.273C127.909 157.273 127.507 151.496 124.227 147.866C123.16 146.593 121.771 145.63 120.206 145.076C118.64 144.523 116.955 144.4 115.325 144.72C112.954 144.349 110.527 144.622 108.297 145.509C106.067 146.396 104.117 147.865 102.648 149.763C97.068 156.922 103.535 168.887 103.535 168.887Z" fill="#263238"/>
<path d="M118.752 159.458C117.305 160.411 115.723 161.141 114.059 161.625C116.645 160.685 118.92 159.046 120.629 156.89C121.354 155.965 121.96 154.953 122.434 153.878C122.998 152.724 123.324 151.468 123.393 150.185C123.393 150.166 123.401 150.148 123.415 150.134C123.428 150.121 123.447 150.113 123.466 150.113C123.485 150.113 123.503 150.121 123.517 150.134C123.53 150.148 123.538 150.166 123.538 150.185C123.602 151.456 123.452 152.729 123.094 153.95C122.69 155.151 122.067 156.266 121.258 157.241C120.529 158.095 119.685 158.844 118.752 159.469" fill="#263238"/>
<path d="M105.976 168.672C105.976 168.672 102.118 164.546 100.199 165.979C98.2807 167.413 101.643 173.726 104.212 174.231C104.537 174.328 104.878 174.357 105.215 174.317C105.552 174.278 105.877 174.171 106.171 174.002C106.465 173.833 106.722 173.607 106.926 173.336C107.13 173.065 107.277 172.755 107.358 172.426L105.976 168.672Z" fill="#FFCFC0"/>
<path d="M101.207 167.763V167.825C102.048 168.107 102.822 168.561 103.479 169.158C104.136 169.754 104.662 170.481 105.023 171.291C104.898 171.142 104.743 171.021 104.568 170.936C104.393 170.851 104.202 170.804 104.008 170.797C103.814 170.79 103.62 170.824 103.44 170.897C103.259 170.969 103.096 171.079 102.961 171.219C102.961 171.219 102.961 171.322 103.022 171.301C103.311 171.162 103.634 171.116 103.95 171.167C104.265 171.219 104.557 171.366 104.786 171.59C105.172 171.969 105.518 172.387 105.818 172.838C105.921 172.982 106.179 172.838 106.096 172.694C105.715 170.466 103.579 167.65 101.207 167.763Z" fill="#263238"/>
<path d="M104.326 148.515C105.729 147.989 107.059 140.14 101.902 136.395C96.7445 132.651 90.1224 136.932 92.8971 143.368C94.6506 147.422 101.345 149.619 104.326 148.515Z" fill="#263238"/>
<path d="M94.6742 135.922C93.1448 137.197 92.0938 138.953 91.6932 140.904C91.4881 141.811 91.525 142.757 91.8002 143.646C92.0753 144.535 92.5791 145.336 93.2611 145.968C94.7215 147.256 96.504 148.122 98.4184 148.475C99.3891 148.683 100.376 148.803 101.368 148.836C102.374 148.912 103.385 148.8 104.349 148.506C103.44 149.013 102.429 149.313 101.389 149.383C100.361 149.505 99.3225 149.505 98.2947 149.383C96.1563 149.151 94.1439 148.257 92.539 146.825C91.728 146.057 91.1399 145.084 90.8371 144.009C90.566 142.936 90.5874 141.811 90.899 140.749C91.1691 139.731 91.6429 138.778 92.2918 137.949C92.9407 137.119 93.7512 136.429 94.6742 135.922Z" fill="#263238"/>
<path d="M156.514 245.524C152.512 250.382 142.651 250.599 117.875 253.477C114.451 253.869 105.136 230.434 108.767 229.825C113.357 229.051 131.315 227.04 132.646 227.061C143.879 227.226 159.217 242.223 156.514 245.524Z" fill="#FFCFC0"/>
<path d="M114.045 229.105C114.045 229.105 103.586 229.869 98.2116 231.963C92.6848 234.294 87.802 237.925 83.9772 242.546C79.8513 247.528 73.2911 262.432 77.252 265.063C80.8312 267.456 86.7725 251.88 86.7725 251.88C86.7725 251.88 78.0978 266.765 82.9457 268.838C87.7937 270.911 93.6525 252.458 93.6525 252.458C93.6525 252.458 85.0912 267.93 90.4239 269.302C94.457 270.334 100.739 253.892 100.739 253.892C100.739 253.892 93.5184 267.301 97.5721 268.487C102.111 269.849 108.825 255.078 108.825 255.078C119.79 256.46 125.566 252.633 129.352 249.415C130.239 248.569 114.045 229.105 114.045 229.105Z" fill="#FFCFC0"/>
<path d="M89.1422 246.504C88.1107 248.216 86.9452 249.939 86.0478 251.744C85.1504 253.549 84.253 255.375 83.5 257.252C82.4664 259.689 81.7154 262.236 81.2617 264.844C82.4067 260.274 85.6249 253.776 86.5429 251.981C87.4609 250.186 88.3067 248.34 89.2247 246.535C89.235 246.504 89.1628 246.504 89.1422 246.504Z" fill="#263238"/>
<path d="M95.7022 249.754C94.4129 251.992 93.0513 254.179 91.8651 256.479C90.6789 258.78 89.8022 261.049 88.7707 263.411C88.6985 263.597 88.7707 263.576 88.9048 263.411C90.0188 261.08 91.2256 259.017 92.3706 256.717C93.5155 254.416 94.5676 252.044 95.7848 249.785C95.8157 249.744 95.7229 249.723 95.7022 249.754Z" fill="#263238"/>
<path d="M101.827 251.508C99.775 254.905 98.0746 258.503 96.7522 262.245C96.68 262.421 96.845 262.38 96.9276 262.245C98.547 258.646 99.7847 255.809 101.951 251.621C102.002 251.518 101.879 251.436 101.827 251.508Z" fill="#263238"/>
<path d="M110.668 228.899L129.668 254.397C129.668 254.397 154.619 250.694 156.796 245.113C158.972 239.533 142.53 226.475 132.68 226.98C122.829 227.486 110.668 228.899 110.668 228.899Z" fill="#5FD58C"/>
<path d="M134.13 250.023C131.386 246.815 120.649 233.272 118.524 230.188C118.379 229.971 118.472 229.827 118.658 230.033C127.106 239.451 131.716 246.63 134.244 249.91C134.316 249.992 134.192 250.106 134.13 250.023Z" fill="#263238"/>
<path d="M91.9667 194.137C82.0955 206.371 71.3372 224.535 69.4083 239.368C68.4697 246.588 80.2801 254.623 85.0971 252.932C96.4433 248.96 112.73 238.739 119.507 231.559C121.89 229.022 101.745 207.887 99.7441 211.023C97.743 214.158 96.5052 216.005 94.7208 217.098C93.8543 217.635 98.4238 210.167 102.343 196.747C107.686 178.428 95.5459 189.702 91.9667 194.137Z" fill="#FFCFC0"/>
<path d="M120.918 181.058C120.918 181.058 117.916 176.354 121.289 174.57C124.662 172.785 126.87 177.912 126.87 177.912L120.918 181.058Z" fill="#FF85BF"/>
<path d="M126.777 177.713L120.824 180.865L139.185 215.542L145.137 212.39L126.777 177.713Z" fill="#5FD58C"/>
<path opacity="0.2" d="M126.777 177.713L120.824 180.865L139.185 215.542L145.137 212.39L126.777 177.713Z" fill="black"/>
<path d="M127.173 177.265L120.227 180.942L120.955 182.319L127.902 178.641L127.173 177.265Z" fill="#37474F"/>
<path d="M127.974 178.783L121.027 182.461L121.756 183.837L128.702 180.16L127.974 178.783Z" fill="#37474F"/>
<path d="M145.13 212.394V217.861V219.656L143.634 218.624L139.137 215.561L139.281 214.385L140.313 214.932L140.457 213.756L141.488 214.302L141.623 213.127L142.654 213.673L142.788 212.497L143.82 213.044L143.954 211.868L145.13 212.394Z" fill="white"/>
<path d="M145.163 217.851L145.183 219.656L143.688 218.635L145.163 217.851Z" fill="#37474F"/>
<path d="M136.255 188.042C137.926 191.003 130.262 194.52 130.262 194.52C131.728 194.63 133.11 195.246 134.172 196.263C135.946 198.151 133.769 201.761 133.769 201.761C135.266 202.192 136.599 203.061 137.596 204.257C139.123 206.238 137.452 210.199 137.452 210.199C138.607 211.352 139.31 212.882 139.432 214.51C139.576 218.873 133.749 222.215 130.551 225C127.127 227.981 120.783 230.488 118.173 232.643L98.8125 212.664C98.8125 212.664 107.59 196.098 114.109 192.096C117.75 189.878 133.687 183.504 136.255 188.042Z" fill="#FFCFC0"/>
<path d="M130.158 194.468C125.63 195.5 121.37 197.635 117.285 199.718C117.192 199.77 117.285 199.914 117.357 199.863C121.401 197.738 126.115 196.634 130.23 194.706C130.262 194.696 130.288 194.674 130.303 194.645C130.319 194.616 130.322 194.582 130.313 194.551C130.303 194.519 130.281 194.493 130.252 194.477C130.223 194.462 130.189 194.459 130.158 194.468Z" fill="#263238"/>
<path d="M133.5 201.522C132.496 201.858 131.539 202.323 130.654 202.904C129.684 203.461 128.725 204.039 127.776 204.637C125.864 205.813 123.987 207.04 122.144 208.32C122.061 208.381 122.144 208.515 122.216 208.464C124.124 207.288 126.043 206.143 127.992 205.05C128.962 204.503 129.942 203.956 130.932 203.43C131.89 202.984 132.796 202.434 133.634 201.79C133.66 201.768 133.678 201.737 133.685 201.704C133.692 201.67 133.687 201.635 133.672 201.604C133.656 201.573 133.631 201.549 133.6 201.534C133.569 201.519 133.534 201.515 133.5 201.522Z" fill="#263238"/>
<path d="M137.375 210.239C136.471 210.556 135.627 211.023 134.879 211.622C134.023 212.179 133.167 212.736 132.301 213.282C130.568 214.376 128.845 215.469 127.081 216.501C126.999 216.562 127.081 216.697 127.154 216.645C128.948 215.613 130.764 214.582 132.548 213.551C133.435 213.035 134.302 212.519 135.178 211.983C136.021 211.576 136.783 211.021 137.427 210.343C137.434 210.339 137.44 210.335 137.445 210.329C137.45 210.323 137.454 210.316 137.456 210.309C137.458 210.302 137.459 210.295 137.459 210.287C137.458 210.279 137.456 210.272 137.453 210.265C137.449 210.259 137.445 210.252 137.439 210.247C137.433 210.243 137.427 210.239 137.419 210.236C137.412 210.234 137.405 210.233 137.397 210.234C137.39 210.234 137.382 210.236 137.375 210.239Z" fill="#263238"/>
<path d="M112.845 193.013C114.712 191.175 117.1 189.955 119.683 189.517C119.797 189.517 119.786 189.517 119.683 189.599C117.274 190.451 114.986 191.613 112.876 193.055C112.876 193.055 112.814 193.044 112.845 193.013Z" fill="#263238"/>
<path d="M120.116 235.593L99.4866 210.146L95.2267 216.16C95.2267 216.16 100.859 204.256 103.087 196.561C105.314 188.867 106.109 179.759 94.9172 190.373C83.9526 200.687 68.532 230.466 68.2329 239.079C67.9338 247.692 78.2795 254.118 83.8185 253.726C89.3576 253.334 120.116 235.593 120.116 235.593Z" fill="#5FD58C"/>
<path d="M113.783 237.377C110.895 233.932 99.5588 219.44 97.2792 216.139C97.1245 215.912 97.2792 215.757 97.4236 215.974C106.346 226.062 111.214 233.736 113.927 237.253C113.979 237.346 113.855 237.46 113.783 237.377Z" fill="#263238"/>
<path d="M76.0396 237.439C77.5352 235.376 79.2268 233.488 80.8463 231.549C82.4657 229.61 84.1057 227.66 85.8077 225.773C87.5096 223.885 89.3147 222.049 91.1095 220.213L94.6371 216.582C95.5242 215.685 95.5861 215.922 94.7299 216.923C93.8738 217.923 92.2235 219.728 91.3983 220.688C89.7789 222.585 88.1801 224.504 86.5091 226.371C84.8381 228.238 83.1155 230.074 81.3517 231.92C79.5879 233.767 77.9478 235.726 76.1324 237.532C76.1118 237.604 75.9674 237.521 76.0396 237.439Z" fill="#263238"/>
<path d="M97.9453 209.279C98.9768 207.02 100.245 204.781 101.143 202.44C101.143 202.347 101.329 202.44 101.287 202.492C100.648 204.028 100.091 205.586 99.5028 207.174L99.6369 206.989C100.08 206.411 100.503 205.823 100.916 205.225C100.978 205.142 101.091 205.225 101.04 205.318C100.648 205.923 100.266 206.542 99.8948 207.174C99.6162 207.684 99.2917 208.168 98.9252 208.619C98.7911 208.959 98.657 209.299 98.5023 209.65C97.5129 211.94 96.3616 214.156 95.0572 216.282C95.0395 216.311 95.0114 216.333 94.9786 216.342C94.9458 216.351 94.9108 216.347 94.8807 216.331C94.8505 216.316 94.8274 216.289 94.8162 216.257C94.8049 216.225 94.8062 216.19 94.8199 216.159C95.8102 213.827 96.8416 211.538 97.9453 209.279Z" fill="#263238"/>
<path d="M99.3197 209.992C99.4125 209.879 99.9179 210.539 100.155 210.89C100.155 210.941 100.155 210.962 100.062 210.89C99.9695 210.818 99.691 210.622 99.526 210.457C98.8658 211.488 95.2763 216.253 95.039 216.449C94.8018 216.645 94.8534 216.449 94.9153 216.305C95.1525 215.779 98.5254 211.034 99.3197 209.992Z" fill="#263238"/>
<path d="M91.8708 250.631C99.0911 246.505 106.466 242.534 113.944 238.852C116.007 237.82 117.946 236.727 119.968 235.654C119.772 235.489 118.112 233.282 118.06 233.199H118.122C118.318 233.395 120.505 235.623 120.649 235.86C120.793 236.098 113.088 240.059 109.468 242.049C105.847 244.04 102.072 245.907 98.3381 247.753C96.2133 248.805 94.0781 249.837 91.9326 250.848C91.9039 250.856 91.8731 250.852 91.847 250.838C91.8209 250.823 91.8016 250.799 91.7934 250.77C91.7852 250.742 91.7887 250.711 91.8032 250.685C91.8177 250.659 91.842 250.639 91.8708 250.631Z" fill="#263238"/>
<path d="M371.834 48.6175C369.692 66.7105 358.062 70.0227 356.119 74.8542C355.114 77.8885 354.283 80.9775 353.629 84.1061H334.726C334.106 80.9767 333.3 77.8872 332.311 74.8542C330.493 69.9978 318.8 66.6606 316.72 48.5552C315.338 36.6634 324.291 17.898 344.302 17.9229C364.313 17.9478 373.216 36.7256 371.834 48.6175Z" fill="#5FD58C"/>
<path d="M334.603 55.1091L333.391 55.334L338.971 85.4157L340.183 85.1908L334.603 55.1091Z" fill="white"/>
<path d="M353.934 55.1576L348.285 85.2266L349.497 85.4542L355.146 55.3852L353.934 55.1576Z" fill="white"/>
<path d="M344.249 65.3284C342.481 65.3284 340.949 63.7345 339.866 61.7546C339.669 61.9955 339.425 62.1936 339.148 62.3371C338.872 62.4805 338.57 62.5662 338.259 62.5889C335.37 62.5889 334.237 56.699 334.188 56.45L334.798 56.3379C335.096 57.9069 336.292 61.9787 338.272 61.9787C338.536 61.9421 338.788 61.8499 339.014 61.7082C339.239 61.5666 339.432 61.3786 339.579 61.1569C338.75 59.5009 338.275 57.6899 338.185 55.8398C338.185 54.1588 338.82 53.2 339.94 53.2C340.269 53.1905 340.593 53.2715 340.879 53.434C341.164 53.5965 341.4 53.8343 341.559 54.1214C342.456 55.6655 341.796 58.7287 340.663 60.6713C340.538 60.8705 340.414 61.0697 340.289 61.2441C341.298 63.1741 342.779 64.7058 344.261 64.7058C345.656 64.7058 346.876 63.4605 347.76 61.7546C346.605 60.3168 345.992 58.5183 346.03 56.6741C346.03 54.5323 346.851 53.2 348.159 53.2C349.217 53.2 349.84 54.2584 349.827 56.0889C349.764 58.014 349.302 59.9051 348.47 61.6425C348.961 62.1085 349.611 62.371 350.288 62.3772C351.982 62.3772 353.501 58.2804 353.937 56.699L354.534 56.8733C354.36 57.4959 352.754 62.9998 350.288 62.9998C349.515 62.9946 348.771 62.7067 348.196 62.1904C347.237 63.9711 345.893 65.3284 344.249 65.3284ZM348.146 53.8226C347.038 53.8226 346.64 55.3666 346.64 56.6741C346.628 58.2808 347.115 59.8515 348.034 61.1693C348.784 59.5759 349.208 57.8485 349.28 56.0889C349.28 55.404 349.18 53.8226 348.209 53.8226H348.146ZM339.928 53.8226C338.982 53.8226 338.782 54.9183 338.782 55.8398C338.849 57.4933 339.251 59.116 339.965 60.609L340.115 60.36C341.136 58.5917 341.758 55.7277 341.011 54.4327C340.907 54.2385 340.75 54.078 340.558 53.9699C340.367 53.8619 340.148 53.8107 339.928 53.8226Z" fill="white"/>
<path d="M355.906 83.3164L332.57 83.292L332.566 87.8495L355.901 87.8739L355.906 83.3164Z" fill="#607FE1"/>
<path d="M355.902 88.6211L332.566 88.5967L332.562 93.1542L355.897 93.1786L355.902 88.6211Z" fill="#607FE1"/>
<path d="M355.89 93.9131L332.555 93.8887L332.55 98.4462L355.885 98.4706L355.89 93.9131Z" fill="#607FE1"/>
<path d="M344.193 9.88066C343.916 8.26871 343.787 6.63485 343.807 4.99941C343.787 3.36399 343.916 1.73018 344.193 0.118164C344.463 1.72237 344.588 3.34777 344.566 4.97451C344.586 6.61768 344.461 8.25938 344.193 9.88066Z" fill="#263238"/>
<path d="M326.526 14.5136C325.479 13.2567 324.549 11.9062 323.749 10.4791C322.916 9.07187 322.212 7.59237 321.645 6.05859C322.689 7.31782 323.618 8.66805 324.421 10.0931C325.25 11.5028 325.954 12.9819 326.526 14.5136Z" fill="#263238"/>
<path d="M313.572 27.3891C312.041 26.817 310.561 26.1129 309.152 25.2846C307.725 24.4846 306.374 23.5551 305.117 22.5078C306.651 23.075 308.13 23.7793 309.538 24.6122C310.965 25.4123 312.315 26.3418 313.572 27.3891Z" fill="#263238"/>
<path d="M308.762 44.9485C305.529 45.4632 302.234 45.4632 299 44.9485C302.234 44.4338 305.529 44.4338 308.762 44.9485Z" fill="#263238"/>
<path d="M313.399 62.5918C312.13 63.641 310.767 64.5706 309.327 65.3686C307.92 66.2016 306.44 66.9059 304.906 67.4731C306.177 66.4411 307.54 65.5283 308.978 64.746C310.386 63.9007 311.865 63.1799 313.399 62.5918Z" fill="#263238"/>
<path d="M374.434 62.8896C377.493 64.0589 380.346 65.7065 382.889 67.7709C381.353 67.2092 379.873 66.5046 378.468 65.6665C377.041 64.8664 375.691 63.9369 374.434 62.8896Z" fill="#263238"/>
<path d="M379.238 45.2942C382.472 44.7795 385.767 44.7795 389.001 45.2942C385.767 45.8089 382.472 45.8089 379.238 45.2942Z" fill="#263238"/>
<path d="M374.609 27.6503C375.873 26.6198 377.223 25.6991 378.644 24.8984C380.051 24.0654 381.531 23.3611 383.064 22.7939C381.812 23.8283 380.47 24.7492 379.055 25.5459C377.64 26.3804 376.152 27.0848 374.609 27.6503Z" fill="#263238"/>
<path d="M361.77 14.6862C362.342 13.1545 363.046 11.6755 363.874 10.2657C364.661 8.83828 365.573 7.48392 366.601 6.21875C366.034 7.75253 365.33 9.23203 364.497 10.6393C363.713 12.0687 362.8 13.4233 361.77 14.6862Z" fill="#263238"/>
</svg>
