<svg width="570" height="408" viewBox="0 0 570 408" fill="none" xmlns="http://www.w3.org/2000/svg">
<path d="M395.232 398.729H147.527V99.1478C147.527 80.235 162.86 64.9023 181.774 64.9023H360.986C379.899 64.9023 395.232 80.235 395.232 99.1478V398.729Z" fill="#1F0F45"/>
<path d="M391.728 100.008V398.728H150.82V100.008C150.82 97.9 151.023 95.843 151.414 93.8505C154.281 79.1483 167.23 68.0537 182.77 68.0537H359.774C375.314 68.0537 388.268 79.1483 391.135 93.8505C391.526 95.843 391.728 97.9 391.728 100.008Z" fill="#FFDFBA"/>
<path d="M391.135 93.8505H151.414C154.281 79.1483 167.23 68.0537 182.771 68.0537H359.774C375.314 68.0537 388.268 79.1483 391.135 93.8505Z" fill="#6B9AD1"/>
<path d="M226.563 83.8235C228.548 83.8235 230.157 82.2145 230.157 80.2296C230.157 78.2448 228.548 76.6357 226.563 76.6357C224.578 76.6357 222.969 78.2448 222.969 80.2296C222.969 82.2145 224.578 83.8235 226.563 83.8235Z" fill="#B4D1EE"/>
<path d="M315.68 83.8235C317.665 83.8235 319.274 82.2145 319.274 80.2296C319.274 78.2448 317.665 76.6357 315.68 76.6357C313.695 76.6357 312.086 78.2448 312.086 80.2296C312.086 82.2145 313.695 83.8235 315.68 83.8235Z" fill="#B4D1EE"/>
<path d="M302.785 83.8235H240.422C238.439 83.8235 236.828 82.2129 236.828 80.2296C236.828 78.2463 238.439 76.6357 240.422 76.6357H302.785C304.769 76.6357 306.379 78.2463 306.379 80.2296C306.379 82.2129 304.769 83.8235 302.785 83.8235Z" fill="#B4D1EE"/>
<g opacity="0.4">
<path opacity="0.0476" d="M402.125 247.15H196.071C190.701 247.15 186.348 242.797 186.348 237.427V104.895C186.348 99.525 190.701 95.1719 196.071 95.1719H402.125C407.496 95.1719 411.849 99.525 411.849 104.895V237.427C411.849 242.797 407.496 247.15 402.125 247.15Z" fill="black"/>
<path opacity="0.0952" d="M400.825 246.271H197.376C192.006 246.271 187.652 241.918 187.652 236.548V105.774C187.652 100.404 192.006 96.0508 197.376 96.0508H400.825C406.196 96.0508 410.549 100.404 410.549 105.774V236.548C410.549 241.918 406.196 246.271 400.825 246.271Z" fill="black"/>
<path opacity="0.1429" d="M399.522 245.397H198.677C193.306 245.397 188.953 241.044 188.953 235.674V106.653C188.953 101.283 193.306 96.9297 198.677 96.9297H399.517C404.887 96.9297 409.241 101.283 409.241 106.653V235.674C409.245 241.039 404.892 245.397 399.522 245.397Z" fill="black"/>
<path opacity="0.1905" d="M398.216 244.518H199.985C194.615 244.518 190.262 240.165 190.262 234.795V107.532C190.262 102.162 194.615 97.8086 199.985 97.8086H398.221C403.591 97.8086 407.945 102.162 407.945 107.532V234.795C407.945 240.165 403.587 244.518 398.216 244.518Z" fill="black"/>
<path opacity="0.2381" d="M396.912 243.639H201.286C195.916 243.639 191.562 239.286 191.562 233.916V108.411C191.562 103.041 195.916 98.6875 201.286 98.6875H396.912C402.283 98.6875 406.636 103.041 406.636 108.411V233.916C406.636 239.286 402.283 243.639 396.912 243.639Z" fill="black"/>
<path opacity="0.2857" d="M395.613 242.76H202.591C197.22 242.76 192.867 238.407 192.867 233.037V109.29C192.867 103.92 197.22 99.5664 202.591 99.5664H395.608C400.978 99.5664 405.332 103.92 405.332 109.29V233.037C405.336 238.407 400.983 242.76 395.613 242.76Z" fill="black"/>
<path opacity="0.3333" d="M394.303 241.881H203.895C198.525 241.881 194.172 237.528 194.172 232.158V110.169C194.172 104.798 198.525 100.445 203.895 100.445H394.308C399.678 100.445 404.032 104.798 404.032 110.169V232.158C404.032 237.528 399.678 241.881 394.303 241.881Z" fill="black"/>
<path opacity="0.381" d="M393 241.002H205.196C199.826 241.002 195.473 236.649 195.473 231.279V111.043C195.473 105.672 199.826 101.319 205.196 101.319H393C398.37 101.319 402.723 105.672 402.723 111.043V231.279C402.723 236.649 398.37 241.002 393 241.002Z" fill="black"/>
<path opacity="0.4286" d="M391.7 240.123H206.501C201.131 240.123 196.777 235.77 196.777 230.4V111.922C196.777 106.551 201.131 102.198 206.501 102.198H391.7C397.07 102.198 401.423 106.551 401.423 111.922V230.395C401.423 235.77 397.07 240.123 391.7 240.123Z" fill="black"/>
<path opacity="0.4762" d="M390.396 239.244H207.802C202.431 239.244 198.078 234.891 198.078 229.521V112.8C198.078 107.43 202.431 103.077 207.802 103.077H390.391C395.762 103.077 400.115 107.43 400.115 112.8V229.521C400.119 234.891 395.766 239.244 390.396 239.244Z" fill="black"/>
<path opacity="0.5238" d="M389.091 238.365H209.11C203.74 238.365 199.387 234.012 199.387 228.642V113.679C199.387 108.309 203.74 103.956 209.11 103.956H389.095C394.466 103.956 398.819 108.309 398.819 113.679V228.642C398.819 234.012 394.461 238.365 389.091 238.365Z" fill="black"/>
<path opacity="0.5714" d="M387.787 237.487H210.411C205.041 237.487 200.688 233.133 200.688 227.763V114.558C200.688 109.188 205.041 104.835 210.411 104.835H387.787C393.157 104.835 397.51 109.188 397.51 114.558V227.763C397.51 233.133 393.157 237.487 387.787 237.487Z" fill="black"/>
<path opacity="0.619" d="M386.487 236.608H211.716C206.345 236.608 201.992 232.254 201.992 226.884V115.437C201.992 110.067 206.345 105.714 211.716 105.714H386.482C391.853 105.714 396.206 110.067 396.206 115.437V226.884C396.211 232.254 391.857 236.608 386.487 236.608Z" fill="black"/>
<path opacity="0.6667" d="M385.178 235.729H213.02C207.65 235.729 203.297 231.375 203.297 226.005V116.316C203.297 110.946 207.65 106.593 213.02 106.593H385.182C390.553 106.593 394.906 110.946 394.906 116.316V226.005C394.906 231.375 390.553 235.729 385.178 235.729Z" fill="black"/>
<path opacity="0.7143" d="M383.878 234.85H214.325C208.955 234.85 204.602 230.497 204.602 225.127V117.195C204.602 111.825 208.955 107.472 214.325 107.472H383.878C389.248 107.472 393.601 111.825 393.601 117.195V225.127C393.601 230.497 389.248 234.85 383.878 234.85Z" fill="black"/>
<path opacity="0.7619" d="M382.574 233.971H215.626C210.256 233.971 205.902 229.618 205.902 224.248V118.074C205.902 112.704 210.256 108.351 215.626 108.351H382.574C387.944 108.351 392.298 112.704 392.298 118.074V224.248C392.298 229.618 387.944 233.971 382.574 233.971Z" fill="black"/>
<path opacity="0.8095" d="M381.27 233.096H216.927C211.556 233.096 207.203 228.743 207.203 223.373V118.953C207.203 113.583 211.556 109.229 216.927 109.229H381.266C386.636 109.229 390.989 113.583 390.989 118.953V223.373C390.994 228.739 386.641 233.096 381.27 233.096Z" fill="black"/>
<path opacity="0.8571" d="M379.965 232.218H218.235C212.865 232.218 208.512 227.864 208.512 222.494V119.832C208.512 114.462 212.865 110.108 218.235 110.108H379.97C385.34 110.108 389.693 114.462 389.693 119.832V222.494C389.693 227.864 385.335 232.218 379.965 232.218Z" fill="black"/>
<path opacity="0.9048" d="M378.661 231.339H219.536C214.166 231.339 209.812 226.986 209.812 221.615V120.711C209.812 115.34 214.166 110.987 219.536 110.987H378.661C384.031 110.987 388.385 115.34 388.385 120.711V221.615C388.385 226.986 384.031 231.339 378.661 231.339Z" fill="black"/>
<path opacity="0.9524" d="M377.361 230.46H220.841C215.47 230.46 211.117 226.107 211.117 220.736V121.589C211.117 116.219 215.47 111.866 220.841 111.866H377.357C382.727 111.866 387.08 116.219 387.08 121.589V220.736C387.085 226.107 382.732 230.46 377.361 230.46Z" fill="black"/>
<path opacity="0.4" d="M376.057 229.581H222.145C216.775 229.581 212.422 225.228 212.422 219.858V122.468C212.422 117.098 216.775 112.745 222.145 112.745H376.057C381.427 112.745 385.78 117.098 385.78 122.468V219.858C385.78 225.228 381.427 229.581 376.057 229.581Z" fill="black"/>
</g>
<path d="M397.485 241.256H199.852C194.482 241.256 190.129 236.902 190.129 231.532V107.596C190.129 102.226 194.482 97.873 199.852 97.873H397.485C402.855 97.873 407.209 102.226 407.209 107.596V231.532C407.213 236.902 402.855 241.256 397.485 241.256Z" fill="white"/>
<path d="M388.01 231.813H206.401C203.18 231.813 200.57 229.204 200.57 225.983V128.078C200.57 124.857 203.18 122.248 206.401 122.248H388.01C391.231 122.248 393.841 124.857 393.841 128.078V225.983C393.845 229.204 391.231 231.813 388.01 231.813Z" fill="#FFC549"/>
<path d="M290.048 183.127H221.919C218.845 183.127 216.355 180.637 216.355 177.563V144.528C216.355 141.454 218.845 138.965 221.919 138.965H290.048C293.122 138.965 295.612 141.454 295.612 144.528V177.563C295.612 180.637 293.118 183.127 290.048 183.127Z" fill="#FFD88F"/>
<path d="M354.71 199.767H311.255C308.181 199.767 305.691 197.278 305.691 194.204V173.487C305.691 170.413 308.181 167.924 311.255 167.924H354.71C357.784 167.924 360.273 170.413 360.273 173.487V194.204C360.273 197.278 357.784 199.767 354.71 199.767Z" fill="#FFD88F"/>
<path d="M203.074 108.107C204.203 108.107 205.118 107.192 205.118 106.064C205.118 104.935 204.203 104.021 203.074 104.021C201.946 104.021 201.031 104.935 201.031 106.064C201.031 107.192 201.946 108.107 203.074 108.107Z" fill="#FEC23C"/>
<path d="M209.129 108.107C210.258 108.107 211.172 107.192 211.172 106.064C211.172 104.935 210.258 104.021 209.129 104.021C208.001 104.021 207.086 104.935 207.086 106.064C207.086 107.192 208.001 108.107 209.129 108.107Z" fill="#84B4E1"/>
<path d="M215.25 108.107C216.379 108.107 217.293 107.192 217.293 106.064C217.293 104.935 216.379 104.021 215.25 104.021C214.122 104.021 213.207 104.935 213.207 106.064C213.207 107.192 214.122 108.107 215.25 108.107Z" fill="#32BAA0"/>
<path d="M391.219 117.494H203.655C202.205 117.494 201.027 116.321 201.027 114.867C201.027 113.417 202.201 112.239 203.655 112.239H391.219C392.669 112.239 393.847 113.413 393.847 114.867C393.847 116.321 392.669 117.494 391.219 117.494Z" fill="#6B9AD1"/>
<path d="M276.997 271.037H332.228C334.855 271.037 336.991 272.717 336.991 274.783V295.858C336.991 297.929 334.86 299.604 332.228 299.604H326.503L320.217 303.557C319.808 303.815 319.205 303.585 319.205 303.175V299.609H276.997C274.37 299.609 272.234 297.929 272.234 295.863V274.787C272.234 272.712 274.37 271.037 276.997 271.037Z" fill="#81B3E0"/>
<path d="M296.427 283.084H282.023C281.168 283.084 280.473 282.389 280.473 281.533C280.473 280.677 281.168 279.982 282.023 279.982H296.427C297.283 279.982 297.978 280.677 297.978 281.533C297.973 282.389 297.283 283.084 296.427 283.084Z" fill="white"/>
<path d="M324.282 290.451H282.023C281.168 290.451 280.473 289.756 280.473 288.9C280.473 288.044 281.168 287.35 282.023 287.35H324.282C325.138 287.35 325.832 288.044 325.832 288.9C325.832 289.756 325.138 290.451 324.282 290.451Z" fill="white"/>
<path d="M362.794 209.141H291.388C287.987 209.141 285.23 211.897 285.23 215.298V249.911C285.23 253.312 287.987 256.068 291.388 256.068H298.792L306.919 262.556C307.448 262.975 308.226 262.603 308.226 261.926V256.064H362.794C366.194 256.064 368.951 253.307 368.951 249.907V215.293C368.951 211.897 366.194 209.141 362.794 209.141Z" fill="#AACDEC"/>
<path d="M322.941 222.476H298.754C297.898 222.476 297.203 221.781 297.203 220.925C297.203 220.069 297.898 219.374 298.754 219.374H322.941C323.797 219.374 324.492 220.069 324.492 220.925C324.492 221.781 323.797 222.476 322.941 222.476Z" fill="white"/>
<path d="M354.462 230.441H298.762C297.906 230.441 297.211 229.747 297.211 228.891C297.211 228.035 297.906 227.34 298.762 227.34H354.466C355.322 227.34 356.017 228.035 356.017 228.891C356.012 229.751 355.318 230.441 354.462 230.441Z" fill="white"/>
<path d="M354.462 238.411H298.762C297.906 238.411 297.211 237.716 297.211 236.86C297.211 236.004 297.906 235.31 298.762 235.31H354.466C355.322 235.31 356.017 236.004 356.017 236.86C356.012 237.721 355.318 238.411 354.462 238.411Z" fill="white"/>
<path d="M324.661 245.447H381.737C384.452 245.447 386.657 247.711 386.657 250.509V278.961C386.657 281.754 384.452 284.023 381.737 284.023H375.82L369.322 289.356C368.898 289.701 368.277 289.393 368.277 288.841V284.023H324.661C321.946 284.023 319.742 281.759 319.742 278.961V250.509C319.742 247.711 321.942 245.447 324.661 245.447Z" fill="#9DC5E9"/>
<path d="M341.937 258.396H331.395C330.539 258.396 329.844 257.702 329.844 256.846C329.844 255.99 330.539 255.295 331.395 255.295H341.937C342.793 255.295 343.488 255.99 343.488 256.846C343.488 257.702 342.793 258.396 341.937 258.396Z" fill="white"/>
<path d="M375.828 266.266H331.402C330.546 266.266 329.852 265.571 329.852 264.715C329.852 263.859 330.546 263.164 331.402 263.164H375.828C376.684 263.164 377.379 263.859 377.379 264.715C377.374 265.571 376.684 266.266 375.828 266.266Z" fill="white"/>
<path d="M376.375 274.134H331.949C331.093 274.134 330.398 273.439 330.398 272.583C330.398 271.727 331.093 271.032 331.949 271.032H376.375C377.231 271.032 377.926 271.727 377.926 272.583C377.926 273.439 377.231 274.134 376.375 274.134Z" fill="white"/>
<path d="M327.375 398.779H337.214L345.317 373.548H335.479L327.375 398.779Z" fill="#A85024"/>
<path d="M384.785 373.548L393.349 398.779H402.728L394.974 373.548H384.785Z" fill="#A85024"/>
<path d="M421.824 372.854L430.508 398.779H439.882L432.013 372.854H421.824Z" fill="#A85024"/>
<path d="M439.343 332.299V374.376H315.191V332.299C315.191 328.397 318.353 325.235 322.255 325.235H432.275C436.177 325.231 439.343 328.397 439.343 332.299Z" fill="#EFA41F"/>
<path d="M439.346 331.664V374.371H417.552C417.598 363.341 417.671 340.14 417.524 333.868C417.409 329.114 415.131 326.551 413.203 325.23H432.913C436.465 325.23 439.346 328.111 439.346 331.664Z" fill="#E08431"/>
<path d="M408.572 339.275V365.219H324.387V339.275C324.387 336.85 326.421 334.885 328.924 334.885H404.034C406.538 334.885 408.572 336.85 408.572 339.275Z" fill="#491113"/>
<path d="M342.196 334.885C341.013 335.782 339.688 337.305 339.688 339.615V365.219H324.387V339.275C324.387 336.85 326.421 334.885 328.924 334.885H342.196Z" fill="#811D18"/>
<path d="M398.966 365.224H363.812V354.76H398.966C400.641 354.76 401.998 356.117 401.998 357.792V362.191C401.998 363.866 400.641 365.224 398.966 365.224Z" fill="#C66E28"/>
<path d="M398.676 356.554H363.812V363.3H398.676V356.554Z" fill="#FFF7E0"/>
<path d="M399.016 346.158V351.639C399.016 352.808 398.063 353.76 396.89 353.76H361.152V344.037H396.89C398.063 344.037 399.016 344.985 399.016 346.158Z" fill="#5CB17E"/>
<path d="M396.236 345.823H361.152V351.957H396.236V345.823Z" fill="#F6DABC"/>
<path d="M353.851 364.943H328.422V355.606H353.851C354.947 355.606 355.839 356.495 355.839 357.594V362.96C355.835 364.05 354.947 364.943 353.851 364.943Z" fill="#7D72AB"/>
<path d="M353.078 357.521H328.422V363.3H353.078V357.521Z" fill="#FFF7E0"/>
<path d="M322.18 350.503L297.035 372.531L295.144 370.861L298.034 368.081C294.366 367.635 294.03 363.075 293.699 361.441C293.363 359.807 287.91 355.51 287.91 355.51L297.035 349.5C299.815 355.841 304.265 354.285 304.265 354.285L303.487 352.836C303.487 352.836 315.502 348.833 318.843 348.386C322.18 347.944 322.18 350.503 322.18 350.503Z" fill="#F8B6BF"/>
<path d="M322.18 350.503L297.036 372.531L295.145 370.861L298.034 368.081L308.384 359.117L304.265 354.285L303.488 352.836C303.488 352.836 315.503 348.833 318.844 348.386C322.18 347.944 322.18 350.503 322.18 350.503Z" fill="#BE2026"/>
<path d="M286.667 397.072H252.793V395.305H256.718C255.858 393.363 256.203 392.972 257.192 389.046C258.186 385.121 253.87 381.753 253.87 381.753L264.79 379.595C264.79 379.595 265.521 380.244 266.861 384.472C268.195 388.701 270.482 388.614 270.482 388.614V387.063C270.482 387.063 285.024 393.708 286.667 394.872C288.305 396.036 286.667 397.072 286.667 397.072Z" fill="#F8B6BF"/>
<path d="M286.667 397.071H252.793V395.304H256.718L270.482 395.129V387.062C270.482 387.062 285.024 393.707 286.667 394.871C288.305 396.036 286.667 397.071 286.667 397.071Z" fill="#BE2026"/>
<path d="M111.214 363.765L101.246 397.854H111.214L121.729 363.765H111.214Z" fill="#9E4722"/>
<path d="M148.651 365.214L139.406 398.875H149.015L159.254 364.216L148.651 365.214Z" fill="#9E4722"/>
<path d="M190.527 361.285L202.22 398.774H211.737L200.587 359.821L190.527 361.285Z" fill="#9E4722"/>
<path d="M227.598 364.943L238.2 398.875H247.625L237.202 364.216L227.598 364.943Z" fill="#9E4722"/>
<path d="M124.629 363.944C124.629 363.944 135.415 368.84 149.465 366.843C163.514 364.846 196.78 361.441 196.78 361.441L183.546 355.242L124.629 363.944Z" fill="#C9812F"/>
<path d="M249.802 364.722C249.802 364.722 215.348 369.112 207.728 370.189C207.424 370.23 207.129 370.267 206.844 370.29C199.854 370.93 196.748 366.853 193.568 362.325C190.255 357.603 183.237 358.013 183.237 358.013C183.237 358.013 143.652 362.762 119.111 365.61C94.5697 368.459 84.5931 344.397 84.5931 344.397C84.5931 344.397 48.4921 257.472 47.337 254.458C46.182 251.443 43.3611 247.334 41.4375 246.244C39.5094 245.153 31.5391 243.837 34.3784 235.471C35.2527 232.899 37.549 232.121 39.2333 231.91C40.3377 231.771 41.1798 231.873 41.1798 231.873H70.8153L216.186 314.168L249.802 364.722Z" fill="#D07E29"/>
<path d="M206.844 370.29C199.854 370.929 196.748 366.852 193.568 362.324C190.255 357.603 183.237 358.013 183.237 358.013C183.237 358.013 143.652 362.762 119.111 365.61C94.5697 368.458 84.5931 344.396 84.5931 344.396C84.5931 344.396 48.4921 257.471 47.337 254.457C46.182 251.443 43.3611 247.334 41.4375 246.243C39.5094 245.153 31.5391 243.837 34.3784 235.471C35.2527 232.899 37.549 232.121 39.2333 231.909C42.8089 232.369 47.268 233.695 50.6963 237.164C57.4748 244.035 62.1502 255.723 65.33 264.562C68.5098 273.398 93.3181 331.894 93.3181 331.894C93.3181 331.894 98.5411 356.439 121.78 352.389C145.024 348.345 176.228 345.34 176.228 345.34C176.228 345.34 196.591 344.12 204.382 354.11C208.303 359.14 209.739 360.958 210.194 361.524C210.544 362.366 212.799 368.306 206.844 370.29Z" fill="#F6B31F"/>
<path d="M269.943 378.122C269.943 378.122 258.061 335.53 257.753 330.748C257.445 325.963 244.325 295.408 242.319 294.791C240.312 294.175 221.486 289.237 211.146 296.949C200.806 304.662 162.418 336.091 162.418 336.091L217.165 329.975L249.263 382.752C249.267 382.752 266.243 382.595 269.943 378.122Z" fill="#1F0F45"/>
<path d="M98.8164 303.161C98.8164 303.161 101.886 351.428 162.418 336.091C162.418 336.091 175.657 331.572 194.221 314.946C212.784 298.32 234.9 286.052 244.426 303.161C253.952 320.27 259.115 338.189 259.115 338.189L284.784 359.821C284.784 359.821 297.052 353.687 301.249 344.323C301.249 344.323 243.943 273.619 231.836 271.037C219.728 268.456 178.243 267.001 165.809 271.037C153.38 275.073 98.8164 303.161 98.8164 303.161Z" fill="#3D2B7F"/>
<path d="M181.851 208.1L174.033 240.514L169.247 239.41L160.021 237.284L167.429 271.645L99.5899 306.143L64.3356 275.114C64.3356 275.114 59.4071 213.015 102.383 203.595L129.833 196.587C129.833 196.587 155.704 194.01 181.851 208.1Z" fill="#F04F51"/>
<path d="M169.247 239.41L160.02 237.284L155.906 217.984L169.247 239.41Z" fill="#BE2026"/>
<path d="M102.102 248.029L98.1075 271.507L97.1595 280.986L95.4062 291.349L109.966 286.467L102.102 248.029Z" fill="#BE2026"/>
<path d="M89.7704 161.417C86.5492 169.055 92.0851 177.799 96.9952 181.264C101.905 184.729 105.858 188.778 106.148 190.416C106.438 192.054 115.301 161.412 115.301 161.412C115.301 161.412 118.191 153.608 110.87 150.911C110.87 150.911 112.701 154.859 110.773 155.632C108.849 156.41 94.2019 150.916 89.7704 161.417Z" fill="#310F32"/>
<path d="M123.629 193.868C123.629 193.868 130.394 193.486 133.265 198.718C136.137 203.95 137.54 211.865 137.54 211.865L130.495 208.975L123.629 193.868Z" fill="#FCBE4E"/>
<path d="M106.151 201.212V190.421L105.092 180.785C101.913 181.264 98.9951 179.478 99.6946 176.349C100.753 171.628 105.861 175.001 105.861 175.001C110.872 175.001 114.535 160.837 114.535 160.837C115.594 160.934 118.87 164.113 119.832 165.945C120.577 167.357 123.964 169.746 125.469 170.763C125.787 170.979 125.745 171.458 125.4 171.619L124.36 172.111C131.493 186.275 121.567 186.661 121.567 186.661L123.191 190.725L132.165 213.158L106.151 201.212Z" fill="#F8B6BF"/>
<path d="M123.191 190.725C122.998 190.702 116.96 189.915 112.363 184.324C112.363 184.324 115.525 186.634 121.567 186.662L123.191 190.725Z" fill="#F5909D"/>
<path d="M117.513 170.699C118.217 170.699 118.788 170.128 118.788 169.424C118.788 168.72 118.217 168.149 117.513 168.149C116.809 168.149 116.238 168.72 116.238 169.424C116.238 170.128 116.809 170.699 117.513 170.699Z" fill="#300F31"/>
<path d="M123.647 175.424C123.647 175.424 121.249 176.45 119.289 175.861C119.289 175.861 120.099 177.476 122.993 177.481C125 177.485 123.647 175.424 123.647 175.424Z" fill="white"/>
<path d="M112.888 169.884C112.879 169.884 112.869 169.884 112.86 169.884C112.736 169.87 112.644 169.755 112.658 169.631C112.671 169.52 113.03 166.906 117.747 166.262C117.871 166.244 117.991 166.331 118.005 166.46C118.023 166.584 117.936 166.704 117.807 166.718C113.472 167.307 113.127 169.589 113.113 169.686C113.099 169.796 112.998 169.884 112.888 169.884Z" fill="black"/>
<path d="M241.042 182.483L221.936 228.987C221.936 228.987 215.493 246.473 201.504 244.633C187.514 242.792 171.137 239.847 171.137 239.847L181.85 208.1L200.57 214.708L223.947 177.863C223.947 177.863 219.819 164.302 224.076 156.893C224.692 155.826 226.013 155.31 227.154 155.771C227.743 156.005 228.226 156.484 228.282 157.4C228.42 159.852 228.208 164.053 228.208 164.053L236.841 146.503C237.333 145.504 238.498 145.035 239.542 145.408C240.619 145.794 241.217 146.935 240.923 148.035L238.373 157.574C238.373 157.574 243.449 155.973 242.713 162.047C242.713 162.047 246.454 161.78 245.92 168.126C245.92 168.126 251.663 174.6 241.042 182.483Z" fill="#F8B6BF"/>
<path d="M195.413 223.788L196.706 217.585L181.852 208.101L200.572 214.709L195.413 223.788Z" fill="#F5909D"/>
<path d="M231.137 174.403C231.137 174.403 232.03 166.718 227.98 164.933" stroke="#F5909D" stroke-miterlimit="10" stroke-linecap="round" stroke-linejoin="round"/>
<path d="M236.33 161.389C236.33 161.389 235.309 166.524 237.255 166.809C239.202 167.095 242.713 162.047 242.713 162.047" stroke="#F5909D" stroke-miterlimit="10" stroke-linecap="round" stroke-linejoin="round"/>
<path d="M239.681 167.928C239.681 167.928 238.627 174.402 241.784 172.488C244.941 170.574 245.916 168.126 245.916 168.126" stroke="#F5909D" stroke-miterlimit="10" stroke-linecap="round" stroke-linejoin="round"/>
<path d="M241.946 173.828C241.946 173.828 241.849 178.641 244.688 177.748C247.528 176.856 247.187 170.625 247.187 170.625" stroke="#F5909D" stroke-miterlimit="10" stroke-linecap="round" stroke-linejoin="round"/>
<path d="M169.249 276.909C169.249 276.909 169.295 280.36 164.978 279.316C164.978 279.316 166.432 282.721 161.255 281.902C161.255 281.902 161.936 284.718 158.849 284.493C155.761 284.267 152.673 280.586 152.673 280.586C152.673 280.586 148.223 286.398 140.004 284.856C140.004 284.856 105.431 306.594 89.2283 309.733C73.0254 312.866 62.0455 311.302 64.7652 275.133L98.1097 271.507L97.6449 276.141L97.1617 280.986L136.871 272.878C136.871 272.878 161.835 254.232 171.738 273.932C171.738 273.932 172.926 276.591 169.249 276.909Z" fill="#F8B6BF"/>
<path d="M97.6448 276.141L97.1616 280.986L86.168 283.425L97.6448 276.141Z" fill="#F5909D"/>
<path d="M155.242 276.246C155.242 276.246 160.139 278.809 161.252 281.901" stroke="#F5909D" stroke-miterlimit="10" stroke-linecap="round" stroke-linejoin="round"/>
<path d="M158.25 272.997C158.25 272.997 163.33 275.215 164.978 279.32" stroke="#F5909D" stroke-miterlimit="10" stroke-linecap="round" stroke-linejoin="round"/>
<path d="M161.254 270.604C161.254 270.604 167.379 272.984 169.247 276.909" stroke="#F5909D" stroke-miterlimit="10" stroke-linecap="round" stroke-linejoin="round"/>
<path d="M97.3828 204.198L106.826 197.646L130.493 208.975L128.123 218.555L97.3828 204.198Z" fill="#FFD888"/>
<path d="M240.026 253.693L231.826 286.406C231.37 288.224 229.737 289.499 227.864 289.499H141.014C141.014 289.499 139.574 288.68 140.384 285.905H171.92L180.175 252.166C180.521 250.744 181.795 249.745 183.254 249.745H236.948C239.014 249.745 240.528 251.687 240.026 253.693Z" fill="white"/>
<path d="M172.32 289.499H141.014C141.014 289.499 139.574 288.68 140.384 285.905H171.92C171.92 285.905 169.84 287.907 172.32 289.499Z" fill="#FDE0B8"/>
<g filter="url(#filter0_d_4631_33854)">
<path d="M465.805 116.587C488.102 116.587 506.176 98.5127 506.176 76.2169C506.176 53.921 488.102 35.8467 465.805 35.8467C443.508 35.8467 425.434 53.921 425.434 76.2169C425.434 98.5127 443.508 116.587 465.805 116.587Z" fill="#A2C7EA"/>
</g>
<path d="M460.344 19.3641C454.228 23.5792 460.059 28.4615 460.059 28.4615C460.059 28.4615 454.444 31.8023 457.072 38.0559C457.072 38.0559 450.105 41.0424 451.03 48.4326C451.955 55.8229 461.692 65.3483 461.692 65.3483L495.455 68.6891C495.455 68.6891 499.505 43.173 489.487 38.4103C489.487 38.4103 485.295 36.9193 485.437 31.4434C485.58 25.972 480.389 22.6312 471.931 24.5501C471.931 24.5547 466.74 14.9557 460.344 19.3641Z" fill="#042036"/>
<path d="M476.475 45.0178C476.475 45.0178 477.828 59.9455 478.822 62.2188C479.816 64.492 468.942 75.2276 468.942 75.2276L453.094 66.2728L462.403 59.7339L462.638 57.0281L463.043 52.339C463.043 52.339 457.64 50.5628 457.714 45.3767C457.783 40.1861 460.701 28.8154 460.701 28.8154C460.701 28.8154 466.384 32.2989 469.656 28.8154C469.656 28.8154 470.792 34.5721 476.977 32.2989L475.555 38.9805C475.555 38.9805 477.755 37.1996 480.102 38.1982C482.449 39.1921 480.53 44.8798 476.475 45.0178Z" fill="#F9AC94"/>
<path d="M472.668 48.3359C471.03 53.8763 462.641 57.0284 462.641 57.0284L463.046 52.3394C469.98 52.7995 472.521 48.5844 472.668 48.3359Z" fill="#EA7D61"/>
<path d="M464.913 42.9655C464.913 42.9655 464.909 42.9655 464.913 42.9655C463.395 42.9379 462.833 42.3903 462.631 41.9348C462.309 41.2169 462.645 40.2321 463.57 39.1646C465.075 37.4298 463.883 34.9357 463.869 34.9127C463.814 34.7976 463.86 34.6596 463.975 34.6043C464.09 34.5491 464.228 34.5951 464.283 34.7102C464.338 34.8252 465.627 37.4988 463.92 39.4683C463.128 40.3794 462.81 41.2123 463.054 41.7507C463.266 42.2247 463.929 42.4916 464.923 42.51C465.052 42.51 465.153 42.6158 465.148 42.7446C465.139 42.8643 465.038 42.9655 464.913 42.9655Z" fill="#EA7D61"/>
<path d="M469.358 36.2868C469.434 35.61 469.061 35.0126 468.526 34.9525C467.99 34.8924 467.495 35.3924 467.419 36.0693C467.343 36.7462 467.715 37.3436 468.251 37.4037C468.786 37.4638 469.282 36.9637 469.358 36.2868Z" fill="black"/>
<path d="M462.428 35.0485C462.497 34.4297 462.15 33.8829 461.652 33.827C461.155 33.7712 460.695 34.2276 460.626 34.8464C460.556 35.4652 460.903 36.0121 461.401 36.0679C461.898 36.1237 462.358 35.6673 462.428 35.0485Z" fill="black"/>
<path d="M461.524 44.2912C461.487 44.0796 461.69 43.9001 461.897 43.9691C462.937 44.328 465.578 45.1011 467.133 44.4063C469.098 43.5274 467.06 47.2961 464.409 47.02C462.932 46.8635 461.892 46.3344 461.524 44.2912Z" fill="white"/>
<path d="M471.611 34.573C471.565 34.573 471.519 34.5592 471.478 34.5316C469.356 33.0498 467.217 33.9334 467.194 33.9426C467.074 33.9932 466.941 33.938 466.89 33.8229C466.839 33.7079 466.895 33.5698 467.01 33.5192C467.106 33.4778 469.398 32.5206 471.736 34.1542C471.841 34.2279 471.864 34.3705 471.791 34.4763C471.754 34.5362 471.685 34.573 471.611 34.573Z" fill="black"/>
<path d="M463.633 33.96C463.541 33.96 463.453 33.9048 463.421 33.8174C462.818 32.308 460.738 32.5243 460.715 32.5243C460.591 32.5381 460.476 32.4461 460.462 32.3218C460.449 32.1976 460.541 32.0825 460.665 32.0687C460.766 32.0549 463.118 31.811 463.849 33.6471C463.895 33.7667 463.84 33.9002 463.72 33.9462C463.688 33.9508 463.661 33.96 463.633 33.96Z" fill="black"/>
<path d="M383.497 30.1736C383.203 31.2366 385.531 46.6567 392.397 49.367C392.397 49.367 405.434 94.187 416.161 94.2883C426.887 94.3895 434.043 91.2788 434.043 91.2788L427.918 69.7983L421.568 72.3615L403.455 45.2624C403.455 45.2624 407.182 36.28 403.639 29.6904C402.912 28.5998 400.685 28.5538 401.002 31.8256C401.32 35.0974 401.223 36.326 401.223 36.326C401.223 36.326 395.094 22.9628 394.864 21.8722C394.638 20.7816 391.274 20.8277 391.817 23.6439C391.817 23.6439 390.501 21.0531 389.134 21.9643C387.772 22.8754 388.725 26.8742 388.725 26.8742C388.725 26.8742 387.409 23.966 386.134 25.1946C384.859 26.4233 385.996 29.4695 385.996 29.4695C385.996 29.4695 384.174 27.7025 383.497 30.1736Z" fill="#F9AC94"/>
<path d="M387.725 39.0592C387.661 39.0592 387.592 39.0316 387.55 38.9764C387.468 38.8797 387.481 38.7325 387.578 38.6543C387.845 38.4288 394.205 33.1553 397.582 32.3776C397.707 32.35 397.831 32.4282 397.859 32.5525C397.886 32.6767 397.808 32.801 397.684 32.8286C394.412 33.5786 387.932 38.9534 387.868 39.0086C387.831 39.0408 387.776 39.0592 387.725 39.0592Z" fill="#EA7D61"/>
<path d="M398.677 44.4665C398.571 44.4665 398.474 44.3929 398.451 44.2824C398.401 44.0293 397.264 38.1162 401.139 36.7035C401.259 36.6621 401.392 36.7219 401.433 36.8416C401.475 36.9612 401.415 37.0947 401.295 37.1361C397.789 38.4153 398.889 44.1352 398.902 44.195C398.925 44.3192 398.847 44.4389 398.723 44.4665C398.709 44.4665 398.695 44.4665 398.677 44.4665Z" fill="#EA7D61"/>
<path d="M394.817 32.5111C394.721 32.5111 394.633 32.4513 394.601 32.3592L392.102 25.2221C392.061 25.1025 392.125 24.969 392.245 24.9276C392.365 24.8862 392.498 24.9506 392.54 25.0703L395.038 32.2074C395.08 32.327 395.015 32.4605 394.896 32.5019C394.868 32.5065 394.84 32.5111 394.817 32.5111Z" fill="#EA7D61"/>
<path d="M391.363 34.4669C391.267 34.4669 391.179 34.407 391.147 34.315L388.423 26.5336C388.381 26.414 388.446 26.2805 388.565 26.2391C388.685 26.1977 388.818 26.2621 388.86 26.3818L391.584 34.1632C391.626 34.2828 391.561 34.4162 391.442 34.4577C391.414 34.4623 391.391 34.4669 391.363 34.4669Z" fill="#EA7D61"/>
<path d="M388.36 36.5097C388.263 36.5097 388.176 36.4499 388.143 36.3533L385.778 29.5336C385.737 29.414 385.801 29.2805 385.921 29.2391C386.04 29.1977 386.169 29.2621 386.215 29.3818L388.581 36.2014C388.622 36.3211 388.558 36.4545 388.438 36.4959C388.41 36.5051 388.387 36.5097 388.36 36.5097Z" fill="#EA7D61"/>
<path d="M427.148 70.1799C427.148 70.1799 449.978 58.4964 461.662 60.2496C461.662 60.2496 458.349 67.8331 463.963 68.6844C469.577 69.5357 478.348 60.4199 478.348 60.4199C478.348 60.4199 491.896 63.9953 497.224 70.6723C502.553 77.3493 506.465 87.091 506.465 87.091L486.847 97.1824L492.747 118.644H435.464L438.874 89.355L433.117 91.6374L427.148 70.1799Z" fill="#F26722"/>
<path d="M484.391 89.7693L492.752 118.654L514.505 110.233L506.47 87.0957L484.391 89.7693Z" fill="#F9AC94"/>
<g filter="url(#filter1_d_4631_33854)">
<path d="M63.3731 118.33C92.0843 118.33 115.359 95.0555 115.359 66.3451C115.359 37.6347 92.0843 14.3604 63.3731 14.3604C34.6618 14.3604 11.3867 37.6347 11.3867 66.3451C11.3867 95.0555 34.6618 118.33 63.3731 118.33Z" fill="#A2C7EA"/>
</g>
<path d="M38.1918 17.0384C33.0746 27.5715 49.6456 41.2154 49.6456 41.2154C49.6456 41.2154 72.3416 16.9647 65.9083 8.41029C59.4751 -0.14416 46.3232 14.42 46.3232 14.42C46.3232 14.42 40.5985 12.087 38.1918 17.0384Z" fill="#151744"/>
<path d="M70.221 53.727L63.9994 64.6882C63.9994 64.6882 44.9803 55.1398 46.6093 52.526C48.2337 49.9123 47.953 32.7988 47.953 32.7988C43.7792 33.1531 41.8695 30.682 43.0751 27.5713C44.2762 24.4606 48.519 27.5713 48.519 27.5713V19.7209C64.2111 18.6625 65.4168 15.4092 65.4168 15.4092C65.4168 15.4092 66.4062 20.0752 68.951 30.3277C71.4957 40.5802 63.4334 41.2152 63.4334 41.2152L63.5945 46.2034L63.7187 50.0503L70.221 53.727Z" fill="#F9B19B"/>
<path d="M63.5931 46.2029C63.5931 46.2029 55.0062 43.1106 53.4922 37.7773C53.4922 37.7773 56.6582 41.6887 63.432 41.2148L63.5931 46.2029Z" fill="#EC866C"/>
<path d="M53.25 24.1617C53.25 24.1617 54.6351 22.0127 59.0344 23.4669" stroke="black" stroke-miterlimit="10" stroke-linecap="round"/>
<path d="M62.3281 22.3895C62.3281 22.3895 62.8527 20.0933 65.7242 21.0964" stroke="black" stroke-miterlimit="10" stroke-linecap="round"/>
<path d="M61.6626 23.25C61.6626 23.25 61.0414 26.738 62.9557 27.9345C64.8701 29.1309 65.7306 30.516 64.2489 30.7553C62.7671 30.9946 62.7671 30.9946 62.7671 30.9946" stroke="#CA6855" stroke-miterlimit="10" stroke-linecap="round"/>
<path d="M60.8984 33.1948C60.8984 33.1948 64.0046 33.77 65.7257 32.6196C67.4468 31.4738 65.7717 34.9618 64.0276 35.0079C62.2836 35.0585 61.0871 34.2946 60.8984 33.1948Z" fill="white"/>
<path d="M57.1948 26.3524C57.6327 26.2391 57.883 25.7423 57.7537 25.2428C57.6244 24.7434 57.1645 24.4304 56.7266 24.5438C56.2886 24.6571 56.0384 25.1539 56.1677 25.6534C56.297 26.1528 56.7568 26.4658 57.1948 26.3524Z" fill="black"/>
<path d="M64.6261 24.476C65.062 24.4019 65.3453 23.9295 65.2588 23.4209C65.1723 22.9123 64.7487 22.5601 64.3128 22.6343C63.8768 22.7084 63.5936 23.1808 63.6801 23.6894C63.7666 24.198 64.1902 24.5502 64.6261 24.476Z" fill="black"/>
<path d="M12.3438 81.2722C12.3438 81.2722 21.828 51.9643 47.3403 49.6865C47.3403 49.6865 52.7152 62.0005 64.1875 59.0693C65.9315 58.3836 68.1082 55.2407 63.7181 50.0501C63.7181 50.0501 89.9299 47.2891 115.359 77.1767V112.945H12.3438V81.2722Z" fill="#FFCF69"/>
<path d="M58.749 91.0646L64.4966 99.5823C64.4966 99.5823 96.1154 88.6166 101.762 87.0198C107.404 85.423 118.903 74.9543 119.608 73.8729C120.312 72.7915 122.755 75.9896 119.281 79.5145C115.811 83.0394 118.034 83.5271 123.565 80.9226C129.096 78.3181 135.714 74.8484 135.714 74.8484C135.714 74.8484 137.831 75.9344 135.714 78.8058C135.714 78.8058 137.071 78.4791 137.61 79.5099C138.153 80.5407 135.603 83.6836 135.603 83.6836C135.603 83.6836 136.961 83.4121 137.449 84.5533C137.936 85.6899 135.281 88.3497 135.281 88.3497C135.281 88.3497 136.473 88.0782 136.473 89.3252C136.473 90.5723 124.237 98.6527 110.289 98.5423C110.289 98.5423 73.8566 125.996 58.0403 126.516C42.224 127.036 35.625 102.711 35.625 102.711L58.749 91.0646Z" fill="#F9B19B"/>
<path d="M48.0859 73.6562L58.7483 91.0642L64.4959 99.5819L70.2205 97.6078L48.0859 73.6562Z" fill="#CA7A29"/>
<path d="M88.9688 73.2246L93.8052 89.5743L99.8934 87.5863C99.898 87.5863 89.9765 77.5364 88.9688 73.2246Z" fill="#CA7A29"/>
<path d="M20.4922 78.7275L35.6229 102.72L38.9039 111.137C38.9039 111.137 23.5202 98.2477 20.4922 78.7275Z" fill="#CA7A29"/>
<g filter="url(#filter2_d_4631_33854)">
<path d="M501.913 289.499C531.885 289.499 556.182 265.203 556.182 235.232C556.182 205.261 531.885 180.965 501.913 180.965C471.941 180.965 447.645 205.261 447.645 235.232C447.645 265.203 471.941 289.499 501.913 289.499Z" fill="#A2C7EA"/>
</g>
<path d="M497.898 166.511C488.018 169.921 491.217 177.965 491.217 177.965C491.217 177.965 487.416 178.268 488.216 183.611C488.75 185.212 493.002 187.08 493.002 187.08L516.43 206.481C516.43 206.481 527.465 187.702 527.29 183.965C527.111 180.229 522.928 178.448 522.928 178.448C522.928 178.448 523.908 174.177 518.832 174.352C518.832 174.352 516.163 167.142 508.598 170.349C508.598 170.349 504.378 164.275 497.898 166.511Z" fill="#151744"/>
<path d="M515.895 196.776C515.895 196.776 516.788 216.356 519.277 220.451C521.771 224.547 500.589 232.554 500.589 232.554C500.589 232.554 490.263 221.873 499.789 216.982C499.789 216.982 500.051 215.813 500.281 214.239C500.585 212.155 500.829 209.361 500.323 207.636C500.323 207.636 499.973 207.617 499.411 207.452C499.407 207.447 499.402 207.447 499.398 207.447C497.373 206.83 492.688 204.226 492.131 193.306C491.423 179.336 492.131 180.491 492.131 180.491C492.131 180.491 497.562 183.339 500.41 178.355C500.41 178.355 506.029 184.581 514.386 180.403C514.386 180.403 511.712 185.566 513.76 190.725C513.76 190.725 518.923 187.876 520.17 190.725C521.413 193.573 520.345 196.955 515.895 196.776Z" fill="#F9AF9A"/>
<path d="M512.448 201.989C510.525 210.364 500.281 214.239 500.281 214.239C500.585 212.154 500.829 209.361 500.323 207.635C509.084 209.623 512.448 201.989 512.448 201.989Z" fill="#E77F62"/>
<path d="M494.388 190.186C494.965 190.186 495.433 189.718 495.433 189.141C495.433 188.564 494.965 188.097 494.388 188.097C493.811 188.097 493.344 188.564 493.344 189.141C493.344 189.718 493.811 190.186 494.388 190.186Z" fill="black"/>
<path d="M505.322 191.226C505.899 191.226 506.367 190.758 506.367 190.181C506.367 189.604 505.899 189.137 505.322 189.137C504.745 189.137 504.277 189.604 504.277 190.181C504.277 190.758 504.745 191.226 505.322 191.226Z" fill="black"/>
<path d="M497.808 198.042C497.748 197.835 497.933 197.632 498.144 197.683C499.216 197.927 501.927 198.424 503.395 197.568C505.259 196.486 503.62 200.453 500.961 200.453C499.479 200.453 498.388 200.039 497.808 198.042Z" fill="white"/>
<path d="M501.182 196.435C500.404 196.435 498.605 196.343 498.195 195.515C498.002 195.128 498.122 194.668 498.549 194.148C500.174 192.165 498.954 187.061 498.941 187.011L499.387 186.9C499.442 187.121 500.676 192.28 498.904 194.438C498.6 194.806 498.499 195.1 498.605 195.308C498.881 195.864 500.524 196.007 501.499 195.966L501.518 196.426C501.467 196.43 501.347 196.435 501.182 196.435Z" fill="#CE6E58"/>
<path d="M493.857 193.665C491.045 193.665 488.758 191.378 488.758 188.566C488.758 185.755 491.045 183.468 493.857 183.468C496.668 183.468 498.955 185.755 498.955 188.566C498.955 191.378 496.668 193.665 493.857 193.665ZM493.857 183.928C491.298 183.928 489.218 186.008 489.218 188.566C489.218 191.125 491.298 193.205 493.857 193.205C496.415 193.205 498.495 191.125 498.495 188.566C498.495 186.008 496.415 183.928 493.857 183.928Z" fill="black"/>
<path d="M505.829 194.525C503.018 194.525 500.73 192.238 500.73 189.427C500.73 186.615 503.018 184.328 505.829 184.328C508.641 184.328 510.928 186.615 510.928 189.427C510.928 192.238 508.641 194.525 505.829 194.525ZM505.829 184.788C503.271 184.788 501.191 186.868 501.191 189.427C501.191 191.985 503.271 194.065 505.829 194.065C508.388 194.065 510.468 191.985 510.468 189.427C510.468 186.868 508.388 184.788 505.829 184.788Z" fill="black"/>
<path d="M500.963 188.911H498.727V189.371H500.963V188.911Z" fill="black"/>
<path d="M510.716 189.219L510.691 189.679L516.237 189.979L516.262 189.52L510.716 189.219Z" fill="black"/>
<path d="M463.074 239.364C463.074 239.364 478.49 215.712 499.787 216.982C499.787 216.982 493.4 226.075 501.034 227.188C508.669 228.302 518.282 217.764 518.282 217.764C518.282 217.764 545.681 219.462 553.486 250.813V290.903H463.074V239.364Z" fill="#3953A5"/>
<path d="M463.379 226.162C463.379 226.162 464.341 223.718 467.553 222.858C470.765 221.997 474.801 223.497 474.276 227.786L463.379 226.162Z" fill="#EA9E8C"/>
<path d="M471.905 227.377H468.021L464.814 211.993L464.363 209.84L464.345 209.748L463.967 207.953C463.94 207.824 463.926 207.691 463.926 207.567C463.926 206.559 464.745 205.698 465.803 205.698C466.687 205.694 467.455 206.315 467.639 207.185L468.044 209.108L468.072 209.237L468.537 211.427L471.905 227.377Z" fill="white"/>
<path d="M468.072 209.237L464.363 209.84L463.967 207.953C463.94 207.824 463.926 207.691 463.926 207.567C463.926 206.559 464.745 205.698 465.803 205.698C466.687 205.694 467.455 206.315 467.639 207.185L468.072 209.237Z" fill="black"/>
<path d="M468.54 211.428L464.817 211.994L464.366 209.84L464.348 209.748L468.047 209.108L468.075 209.237L468.54 211.428Z" fill="#3953A5"/>
<path d="M458.016 231.495C458.016 231.495 459.488 226.466 463.91 225.513C468.333 224.561 478.153 225.619 474.835 230.28C474.835 230.28 476.395 232.015 476.05 233.75C475.705 235.485 458.71 233.75 458.71 233.75L458.016 231.495Z" fill="#F9AF9A"/>
<path d="M436.359 233.147H478.825L495.649 287.787H453.188L436.359 233.147Z" fill="#6BA3D7"/>
<path d="M442.406 234.947H471.522C471.522 234.947 471.628 232.812 470.192 232.559C468.756 232.305 465.217 232.416 465.217 232.416L464.242 230.497C463.947 229.917 463.354 229.554 462.705 229.554H450.846C450.073 229.554 449.396 230.064 449.189 230.81L448.78 232.25H444.73C444.077 232.25 443.483 232.628 443.207 233.221L442.406 234.947Z" fill="#2A347A"/>
<path d="M481.846 250.574L492.969 265.842L514.611 281.11L517.137 266.85L545.655 268.166C545.655 268.166 537.638 302.899 529.871 306.005C522.103 309.111 496.255 294.055 483.83 278.377C483.83 278.377 460.844 269.85 460.922 261.443C460.922 261.443 461.092 260.145 463.071 261.291C463.071 261.291 460.466 259.073 461.382 257.242C462.298 255.406 464.976 257.702 464.976 257.702C464.976 257.702 461.53 254.568 462.303 253.119C463.076 251.664 465.667 252.576 466.964 253.915C466.964 253.915 464.594 250.749 465.74 249.603C466.886 248.457 468.262 249.143 469.868 251.131C471.474 253.119 481.027 260.987 482.325 261.066C482.325 261.066 476.711 249.249 481.846 250.574Z" fill="#F9AF9A"/>
<path d="M473.014 260.697C472.963 260.697 472.917 260.683 472.876 260.651C470.672 258.99 466.59 253.757 466.42 253.537C466.341 253.435 466.36 253.293 466.461 253.214C466.558 253.136 466.705 253.155 466.783 253.256C466.824 253.311 470.998 258.663 473.152 260.287C473.253 260.365 473.272 260.508 473.198 260.609C473.157 260.665 473.087 260.697 473.014 260.697Z" fill="#CE6E58"/>
<path d="M471.009 263.73C470.958 263.73 470.908 263.711 470.866 263.679C468.966 262.165 464.981 258.042 464.815 257.867C464.728 257.775 464.728 257.633 464.82 257.541C464.912 257.453 465.054 257.453 465.146 257.545C465.188 257.587 469.274 261.82 471.156 263.32C471.258 263.399 471.271 263.546 471.193 263.642C471.142 263.698 471.073 263.73 471.009 263.73Z" fill="#CE6E58"/>
<path d="M469.812 267.604C469.775 267.604 469.743 267.595 469.706 267.581C467.469 266.449 463.088 261.654 462.904 261.452C462.817 261.36 462.826 261.213 462.918 261.125C463.01 261.042 463.158 261.047 463.245 261.139C463.291 261.19 467.755 266.072 469.918 267.167C470.033 267.222 470.079 267.365 470.019 267.476C469.973 267.558 469.895 267.604 469.812 267.604Z" fill="#CE6E58"/>
<path d="M474.669 230.441C473.556 229.272 467.293 228.803 464.969 228.72L464.987 228.26C465.337 228.274 473.533 228.582 475.001 230.123L474.669 230.441Z" fill="#CE6E58"/>
<path d="M514.617 281.114L523.043 287.248L515.179 277.948L514.617 281.114Z" fill="#E77F62"/>
<path d="M520.652 245.885L517.141 266.854L514.615 281.115L509.695 277.645L520.652 245.885Z" fill="#2F3762"/>
<path d="M548.812 243.367L545.664 268.17C545.664 268.17 551.182 258.051 551.527 257.264C551.867 256.477 548.812 243.367 548.812 243.367Z" fill="#2F3762"/>
<defs>
<filter id="filter0_d_4631_33854" x="415.434" y="33.8467" width="100.742" height="100.74" filterUnits="userSpaceOnUse" color-interpolation-filters="sRGB">
<feFlood flood-opacity="0" result="BackgroundImageFix"/>
<feColorMatrix in="SourceAlpha" type="matrix" values="0 0 0 0 0 0 0 0 0 0 0 0 0 0 0 0 0 0 127 0" result="hardAlpha"/>
<feOffset dy="8"/>
<feGaussianBlur stdDeviation="5"/>
<feComposite in2="hardAlpha" operator="out"/>
<feColorMatrix type="matrix" values="0 0 0 0 0 0 0 0 0 0 0 0 0 0 0 0 0 0 0.25 0"/>
<feBlend mode="normal" in2="BackgroundImageFix" result="effect1_dropShadow_4631_33854"/>
<feBlend mode="normal" in="SourceGraphic" in2="effect1_dropShadow_4631_33854" result="shape"/>
</filter>
<filter id="filter1_d_4631_33854" x="1.38672" y="12.3604" width="123.973" height="123.97" filterUnits="userSpaceOnUse" color-interpolation-filters="sRGB">
<feFlood flood-opacity="0" result="BackgroundImageFix"/>
<feColorMatrix in="SourceAlpha" type="matrix" values="0 0 0 0 0 0 0 0 0 0 0 0 0 0 0 0 0 0 127 0" result="hardAlpha"/>
<feOffset dy="8"/>
<feGaussianBlur stdDeviation="5"/>
<feComposite in2="hardAlpha" operator="out"/>
<feColorMatrix type="matrix" values="0 0 0 0 0 0 0 0 0 0 0 0 0 0 0 0 0 0 0.25 0"/>
<feBlend mode="normal" in2="BackgroundImageFix" result="effect1_dropShadow_4631_33854"/>
<feBlend mode="normal" in="SourceGraphic" in2="effect1_dropShadow_4631_33854" result="shape"/>
</filter>
<filter id="filter2_d_4631_33854" x="437.645" y="178.965" width="128.539" height="128.534" filterUnits="userSpaceOnUse" color-interpolation-filters="sRGB">
<feFlood flood-opacity="0" result="BackgroundImageFix"/>
<feColorMatrix in="SourceAlpha" type="matrix" values="0 0 0 0 0 0 0 0 0 0 0 0 0 0 0 0 0 0 127 0" result="hardAlpha"/>
<feOffset dy="8"/>
<feGaussianBlur stdDeviation="5"/>
<feComposite in2="hardAlpha" operator="out"/>
<feColorMatrix type="matrix" values="0 0 0 0 0 0 0 0 0 0 0 0 0 0 0 0 0 0 0.25 0"/>
<feBlend mode="normal" in2="BackgroundImageFix" result="effect1_dropShadow_4631_33854"/>
<feBlend mode="normal" in="SourceGraphic" in2="effect1_dropShadow_4631_33854" result="shape"/>
</filter>
</defs>
</svg>
