<svg width="1366" height="858" viewBox="0 0 1366 858" fill="none" xmlns="http://www.w3.org/2000/svg">
<circle opacity="0.5" cx="-218.266" cy="279.865" r="487.632" stroke="#F8F8F8" stroke-width="180"/>
<circle cx="31.43" cy="213.531" r="5.75817" fill="#F8F8F8"/>
<circle cx="56.0277" cy="213.531" r="5.75817" fill="#F8F8F8"/>
<circle cx="80.6293" cy="213.531" r="5.75817" fill="#F8F8F8"/>
<circle cx="105.231" cy="213.531" r="5.75817" fill="#F8F8F8"/>
<circle cx="105.231" cy="188.94" r="5.75817" fill="#F8F8F8"/>
<circle cx="80.6293" cy="188.94" r="5.75817" fill="#F8F8F8"/>
<circle cx="105.231" cy="239.021" r="5.75817" fill="#F8F8F8"/>
<circle cx="4.89099" cy="239.021" r="5.75817" fill="#F8F8F8"/>
<circle cx="105.231" cy="288.222" r="5.75817" fill="#F8F8F8"/>
<circle cx="129.832" cy="239.021" r="5.75817" fill="#F8F8F8"/>
<circle cx="154.43" cy="239.021" r="5.75817" fill="#F8F8F8"/>
<circle cx="179.032" cy="239.021" r="5.75817" fill="#F8F8F8"/>
<circle cx="203.633" cy="239.021" r="5.75817" fill="#F8F8F8"/>
<circle cx="129.832" cy="213.531" r="5.75817" fill="#F8F8F8"/>
<circle cx="56.0277" cy="337.423" r="5.75817" transform="rotate(-90 56.0277 337.423)" fill="#F8F8F8"/>
<circle cx="56.0277" cy="312.823" r="5.75817" transform="rotate(-90 56.0277 312.823)" fill="#F8F8F8"/>
<circle cx="56.0277" cy="288.222" r="5.75817" transform="rotate(-90 56.0277 288.222)" fill="#F8F8F8"/>
<circle cx="56.0277" cy="263.622" r="5.75817" transform="rotate(-90 56.0277 263.622)" fill="#F8F8F8"/>
<circle cx="56.0277" cy="239.021" r="5.75817" transform="rotate(-90 56.0277 239.021)" fill="#F8F8F8"/>
<circle cx="31.43" cy="337.423" r="5.75817" transform="rotate(-90 31.43 337.423)" fill="#F8F8F8"/>
<circle cx="31.43" cy="312.823" r="5.75817" transform="rotate(-90 31.43 312.823)" fill="#F8F8F8"/>
<circle cx="31.43" cy="288.222" r="5.75817" transform="rotate(-90 31.43 288.222)" fill="#F8F8F8"/>
<circle cx="31.43" cy="239.021" r="5.75817" transform="rotate(-90 31.43 239.021)" fill="#F8F8F8"/>
<circle cx="80.6293" cy="312.823" r="5.75817" transform="rotate(-90 80.6293 312.823)" fill="#F8F8F8"/>
<circle cx="80.6293" cy="288.222" r="5.75817" transform="rotate(-90 80.6293 288.222)" fill="#F8F8F8"/>
<path d="M1307.98 424.229V409.863L1288.98 398.056L1269.98 409.863L1269.98 424.229L1288.98 412.422L1307.98 424.229Z" fill="#F8F8F8"/>
<path d="M1307.98 388.449V402.815L1288.98 391.008L1269.98 402.815L1269.98 388.449L1288.98 376.642L1307.98 388.449Z" fill="#F8F8F8"/>
<path d="M1307.98 367.035V381.401L1288.98 369.594L1269.98 381.401L1269.98 367.035L1288.98 355.229L1307.98 367.035Z" fill="#F8F8F8"/>
<mask id="path-28-inside-1_4807_33667" fill="white">
<path d="M1117 575.178C1116.44 574.827 1116.1 574.207 1116.1 573.54L1116.1 563.529C1116.1 562.018 1117.74 561.095 1119 561.891L1134.1 571.391C1134.71 571.777 1135.49 571.777 1136.1 571.391L1151.2 561.891C1152.47 561.095 1154.1 562.018 1154.1 563.529V573.54C1154.1 574.207 1153.76 574.827 1153.2 575.178L1136.1 585.939C1135.49 586.325 1134.71 586.325 1134.1 585.939L1117 575.178Z"/>
<path d="M1117 553.493C1116.44 553.142 1116.1 552.522 1116.1 551.855L1116.1 541.844C1116.1 540.333 1117.74 539.41 1119 540.206L1134.1 549.706C1134.71 550.092 1135.49 550.092 1136.1 549.706L1151.2 540.206C1152.47 539.41 1154.1 540.333 1154.1 541.844V551.855C1154.1 552.522 1153.76 553.142 1153.2 553.493L1136.1 564.254C1135.49 564.64 1134.71 564.64 1134.1 564.254L1117 553.493Z"/>
<path d="M1117 531.808C1116.44 531.457 1116.1 530.837 1116.1 530.17L1116.1 520.159C1116.1 518.648 1117.74 517.725 1119 518.521L1134.1 528.021C1134.71 528.407 1135.49 528.407 1136.1 528.021L1151.2 518.521C1152.47 517.725 1154.1 518.648 1154.1 520.159V530.17C1154.1 530.837 1153.76 531.457 1153.2 531.808L1136.1 542.569C1135.49 542.955 1134.71 542.955 1134.1 542.569L1117 531.808Z"/>
</mask>
<path d="M1117 575.178L1117.53 574.332L1117.53 574.332L1117 575.178ZM1116.1 573.54L1117.1 573.54L1116.1 573.54ZM1116.1 563.529L1115.1 563.529L1116.1 563.529ZM1119 561.891L1118.47 562.738L1118.47 562.738L1119 561.891ZM1134.1 571.391L1133.57 572.238L1133.57 572.238L1134.1 571.391ZM1136.1 571.391L1135.57 570.545L1135.57 570.545L1136.1 571.391ZM1151.2 561.891L1151.73 562.738L1151.73 562.738L1151.2 561.891ZM1154.1 563.529H1153.1H1154.1ZM1154.1 573.54H1155.1H1154.1ZM1153.2 575.178L1152.67 574.332L1152.67 574.332L1153.2 575.178ZM1136.1 585.939L1135.57 585.093L1135.57 585.093L1136.1 585.939ZM1134.1 585.939L1134.63 585.093L1134.63 585.093L1134.1 585.939ZM1117 553.493L1117.53 552.647L1117.53 552.647L1117 553.493ZM1116.1 551.855L1117.1 551.855L1116.1 551.855ZM1116.1 541.844L1115.1 541.844L1116.1 541.844ZM1119 540.206L1118.47 541.053L1118.47 541.053L1119 540.206ZM1134.1 549.706L1133.57 550.553L1133.57 550.553L1134.1 549.706ZM1136.1 549.706L1135.57 548.86L1135.57 548.86L1136.1 549.706ZM1151.2 540.206L1151.73 541.053L1151.73 541.053L1151.2 540.206ZM1154.1 541.844H1153.1H1154.1ZM1154.1 551.855H1155.1H1154.1ZM1153.2 553.493L1152.67 552.647L1152.67 552.647L1153.2 553.493ZM1136.1 564.254L1135.57 563.408L1135.57 563.408L1136.1 564.254ZM1134.1 564.254L1134.63 563.408L1134.63 563.408L1134.1 564.254ZM1117 531.808L1117.53 530.962L1117.53 530.962L1117 531.808ZM1116.1 530.17L1117.1 530.17L1116.1 530.17ZM1116.1 520.159L1115.1 520.159L1116.1 520.159ZM1119 518.521L1118.47 519.367L1118.47 519.367L1119 518.521ZM1134.1 528.021L1133.57 528.868L1133.57 528.868L1134.1 528.021ZM1136.1 528.021L1135.57 527.175L1135.57 527.175L1136.1 528.021ZM1151.2 518.521L1151.73 519.367L1151.73 519.367L1151.2 518.521ZM1154.1 520.159H1153.1H1154.1ZM1154.1 530.17H1155.1H1154.1ZM1153.2 531.808L1152.67 530.962L1152.67 530.962L1153.2 531.808ZM1136.1 542.569L1135.57 541.723L1135.57 541.723L1136.1 542.569ZM1134.1 542.569L1134.63 541.723L1134.63 541.723L1134.1 542.569ZM1117.35 574.185C1116.98 573.782 1116.34 573.762 1115.94 574.14C1115.54 574.517 1115.52 575.15 1115.9 575.553L1117.35 574.185ZM1115.19 574.27C1115.33 574.805 1115.87 575.128 1116.41 574.992C1116.94 574.855 1117.27 574.311 1117.13 573.776L1115.19 574.27ZM1117.1 571.038C1117.1 570.485 1116.65 570.038 1116.1 570.038C1115.55 570.038 1115.1 570.485 1115.1 571.038L1117.1 571.038ZM1115.1 566.032C1115.1 566.584 1115.55 567.032 1116.1 567.032C1116.65 567.032 1117.1 566.584 1117.1 566.032L1115.1 566.032ZM1117.22 563.057C1117.5 562.578 1117.34 561.967 1116.86 561.691C1116.38 561.415 1115.77 561.579 1115.49 562.058L1117.22 563.057ZM1118.06 560.599C1117.51 560.588 1117.05 561.027 1117.04 561.579C1117.03 562.131 1117.47 562.588 1118.02 562.599L1118.06 560.599ZM1120.36 563.925C1120.83 564.219 1121.44 564.079 1121.74 563.611C1122.03 563.144 1121.89 562.526 1121.42 562.232L1120.36 563.925ZM1125.2 564.607C1124.73 564.313 1124.11 564.454 1123.82 564.921C1123.52 565.389 1123.66 566.006 1124.13 566.3L1125.2 564.607ZM1127.91 568.675C1128.37 568.969 1128.99 568.829 1129.29 568.361C1129.58 567.894 1129.44 567.277 1128.97 566.982L1127.91 568.675ZM1132.75 569.357C1132.28 569.063 1131.66 569.204 1131.37 569.671C1131.07 570.139 1131.21 570.756 1131.68 571.05L1132.75 569.357ZM1134.3 572.568C1134.83 572.721 1135.39 572.415 1135.54 571.885C1135.69 571.354 1135.39 570.8 1134.86 570.646L1134.3 572.568ZM1135.34 570.646C1134.81 570.8 1134.51 571.354 1134.66 571.885C1134.82 572.415 1135.37 572.721 1135.9 572.568L1135.34 570.646ZM1138.52 571.05C1138.99 570.756 1139.13 570.139 1138.84 569.671C1138.54 569.204 1137.93 569.063 1137.46 569.357L1138.52 571.05ZM1141.23 566.982C1140.76 567.277 1140.62 567.894 1140.92 568.361C1141.21 568.829 1141.83 568.969 1142.3 568.675L1141.23 566.982ZM1146.07 566.3C1146.54 566.006 1146.68 565.389 1146.39 564.921C1146.09 564.454 1145.47 564.313 1145.01 564.607L1146.07 566.3ZM1148.78 562.232C1148.31 562.526 1148.17 563.144 1148.47 563.611C1148.76 564.079 1149.38 564.219 1149.85 563.925L1148.78 562.232ZM1152.18 562.599C1152.73 562.588 1153.17 562.131 1153.16 561.579C1153.15 561.027 1152.69 560.588 1152.14 560.599L1152.18 562.599ZM1154.71 562.058C1154.44 561.579 1153.83 561.415 1153.35 561.691C1152.87 561.967 1152.7 562.578 1152.98 563.057L1154.71 562.058ZM1153.1 566.032C1153.1 566.584 1153.55 567.032 1154.1 567.032C1154.65 567.032 1155.1 566.584 1155.1 566.032H1153.1ZM1155.1 571.038C1155.1 570.485 1154.65 570.038 1154.1 570.038C1153.55 570.038 1153.1 570.485 1153.1 571.038H1155.1ZM1153.07 573.776C1152.94 574.311 1153.26 574.855 1153.79 574.992C1154.33 575.128 1154.87 574.805 1155.01 574.27L1153.07 573.776ZM1154.31 575.553C1154.69 575.15 1154.66 574.517 1154.26 574.14C1153.86 573.762 1153.23 573.782 1152.85 574.185L1154.31 575.553ZM1151.25 575.229C1150.78 575.523 1150.64 576.14 1150.93 576.608C1151.23 577.075 1151.84 577.216 1152.31 576.921L1151.25 575.229ZM1149.46 578.715C1149.93 578.421 1150.07 577.803 1149.77 577.336C1149.48 576.868 1148.86 576.728 1148.4 577.022L1149.46 578.715ZM1145.55 578.816C1145.08 579.11 1144.94 579.727 1145.23 580.195C1145.53 580.662 1146.14 580.802 1146.61 580.508L1145.55 578.816ZM1143.76 582.302C1144.23 582.008 1144.37 581.39 1144.07 580.923C1143.78 580.455 1143.16 580.315 1142.7 580.609L1143.76 582.302ZM1139.85 582.402C1139.38 582.697 1139.24 583.314 1139.53 583.781C1139.83 584.249 1140.44 584.389 1140.91 584.095L1139.85 582.402ZM1138.06 585.889C1138.53 585.594 1138.67 584.977 1138.37 584.51C1138.08 584.042 1137.46 583.902 1137 584.196L1138.06 585.889ZM1135.34 585.194C1134.81 585.348 1134.51 585.902 1134.66 586.433C1134.82 586.963 1135.37 587.269 1135.9 587.115L1135.34 585.194ZM1134.3 587.115C1134.83 587.269 1135.39 586.963 1135.54 586.433C1135.69 585.902 1135.39 585.348 1134.86 585.194L1134.3 587.115ZM1133.21 584.196C1132.74 583.902 1132.12 584.042 1131.83 584.51C1131.53 584.977 1131.68 585.594 1132.14 585.889L1133.21 584.196ZM1129.29 584.095C1129.76 584.389 1130.38 584.249 1130.67 583.781C1130.97 583.314 1130.83 582.697 1130.36 582.402L1129.29 584.095ZM1127.51 580.609C1127.04 580.315 1126.42 580.455 1126.13 580.923C1125.83 581.39 1125.98 582.008 1126.44 582.302L1127.51 580.609ZM1123.59 580.508C1124.06 580.802 1124.68 580.662 1124.97 580.195C1125.27 579.727 1125.13 579.11 1124.66 578.816L1123.59 580.508ZM1121.81 577.022C1121.34 576.728 1120.72 576.868 1120.43 577.336C1120.13 577.803 1120.28 578.421 1120.74 578.715L1121.81 577.022ZM1117.89 576.921C1118.36 577.216 1118.98 577.075 1119.27 576.608C1119.57 576.14 1119.43 575.523 1118.96 575.229L1117.89 576.921ZM1117.35 552.5C1116.98 552.097 1116.34 552.077 1115.94 552.454C1115.54 552.832 1115.52 553.465 1115.9 553.868L1117.35 552.5ZM1115.19 552.585C1115.33 553.12 1115.87 553.443 1116.41 553.307C1116.94 553.17 1117.27 552.626 1117.13 552.091L1115.19 552.585ZM1117.1 549.352C1117.1 548.8 1116.65 548.352 1116.1 548.352C1115.55 548.352 1115.1 548.8 1115.1 549.352L1117.1 549.352ZM1115.1 544.347C1115.1 544.899 1115.55 545.347 1116.1 545.347C1116.65 545.347 1117.1 544.899 1117.1 544.347L1115.1 544.347ZM1117.22 541.372C1117.5 540.893 1117.34 540.282 1116.86 540.006C1116.38 539.73 1115.77 539.894 1115.49 540.373L1117.22 541.372ZM1118.06 538.914C1117.51 538.903 1117.05 539.342 1117.04 539.894C1117.03 540.446 1117.47 540.903 1118.02 540.914L1118.06 538.914ZM1120.36 542.24C1120.83 542.534 1121.44 542.394 1121.74 541.926C1122.03 541.459 1121.89 540.841 1121.42 540.547L1120.36 542.24ZM1125.2 542.922C1124.73 542.628 1124.11 542.769 1123.82 543.236C1123.52 543.704 1123.66 544.321 1124.13 544.615L1125.2 542.922ZM1127.91 546.99C1128.37 547.284 1128.99 547.144 1129.29 546.676C1129.58 546.209 1129.44 545.592 1128.97 545.297L1127.91 546.99ZM1132.75 547.672C1132.28 547.378 1131.66 547.519 1131.37 547.986C1131.07 548.454 1131.21 549.071 1131.68 549.365L1132.75 547.672ZM1134.3 550.883C1134.83 551.036 1135.39 550.73 1135.54 550.2C1135.69 549.669 1135.39 549.115 1134.86 548.961L1134.3 550.883ZM1135.34 548.961C1134.81 549.115 1134.51 549.669 1134.66 550.2C1134.82 550.73 1135.37 551.036 1135.9 550.883L1135.34 548.961ZM1138.52 549.365C1138.99 549.071 1139.13 548.454 1138.84 547.986C1138.54 547.519 1137.93 547.378 1137.46 547.672L1138.52 549.365ZM1141.23 545.297C1140.76 545.592 1140.62 546.209 1140.92 546.676C1141.21 547.144 1141.83 547.284 1142.3 546.99L1141.23 545.297ZM1146.07 544.615C1146.54 544.321 1146.68 543.704 1146.39 543.236C1146.09 542.769 1145.47 542.628 1145.01 542.922L1146.07 544.615ZM1148.78 540.547C1148.31 540.841 1148.17 541.459 1148.47 541.926C1148.76 542.394 1149.38 542.534 1149.85 542.24L1148.78 540.547ZM1152.18 540.914C1152.73 540.903 1153.17 540.446 1153.16 539.894C1153.15 539.342 1152.69 538.903 1152.14 538.914L1152.18 540.914ZM1154.71 540.373C1154.44 539.894 1153.83 539.73 1153.35 540.006C1152.87 540.282 1152.7 540.893 1152.98 541.372L1154.71 540.373ZM1153.1 544.347C1153.1 544.899 1153.55 545.347 1154.1 545.347C1154.65 545.347 1155.1 544.899 1155.1 544.347H1153.1ZM1155.1 549.352C1155.1 548.8 1154.65 548.352 1154.1 548.352C1153.55 548.352 1153.1 548.8 1153.1 549.352H1155.1ZM1153.07 552.091C1152.94 552.626 1153.26 553.17 1153.79 553.307C1154.33 553.443 1154.87 553.12 1155.01 552.585L1153.07 552.091ZM1154.31 553.868C1154.69 553.465 1154.66 552.832 1154.26 552.454C1153.86 552.077 1153.23 552.097 1152.85 552.5L1154.31 553.868ZM1151.25 553.544C1150.78 553.838 1150.64 554.455 1150.93 554.923C1151.23 555.39 1151.84 555.531 1152.31 555.236L1151.25 553.544ZM1149.46 557.03C1149.93 556.736 1150.07 556.118 1149.77 555.651C1149.48 555.183 1148.86 555.043 1148.4 555.337L1149.46 557.03ZM1145.55 557.131C1145.08 557.425 1144.94 558.042 1145.23 558.509C1145.53 558.977 1146.14 559.117 1146.61 558.823L1145.55 557.131ZM1143.76 560.617C1144.23 560.323 1144.37 559.705 1144.07 559.238C1143.78 558.77 1143.16 558.63 1142.7 558.924L1143.76 560.617ZM1139.85 560.717C1139.38 561.012 1139.24 561.629 1139.53 562.096C1139.83 562.564 1140.44 562.704 1140.91 562.41L1139.85 560.717ZM1138.06 564.204C1138.53 563.909 1138.67 563.292 1138.37 562.825C1138.08 562.357 1137.46 562.217 1137 562.511L1138.06 564.204ZM1135.34 563.509C1134.81 563.662 1134.51 564.217 1134.66 564.748C1134.82 565.278 1135.37 565.584 1135.9 565.43L1135.34 563.509ZM1134.3 565.43C1134.83 565.584 1135.39 565.278 1135.54 564.748C1135.69 564.217 1135.39 563.662 1134.86 563.509L1134.3 565.43ZM1133.21 562.511C1132.74 562.217 1132.12 562.357 1131.83 562.825C1131.53 563.292 1131.68 563.909 1132.14 564.204L1133.21 562.511ZM1129.29 562.41C1129.76 562.704 1130.38 562.564 1130.67 562.096C1130.97 561.629 1130.83 561.012 1130.36 560.717L1129.29 562.41ZM1127.51 558.924C1127.04 558.63 1126.42 558.77 1126.13 559.238C1125.83 559.705 1125.98 560.323 1126.44 560.617L1127.51 558.924ZM1123.59 558.823C1124.06 559.117 1124.68 558.977 1124.97 558.509C1125.27 558.042 1125.13 557.425 1124.66 557.131L1123.59 558.823ZM1121.81 555.337C1121.34 555.043 1120.72 555.183 1120.43 555.651C1120.13 556.118 1120.28 556.736 1120.74 557.03L1121.81 555.337ZM1117.89 555.236C1118.36 555.531 1118.98 555.39 1119.27 554.923C1119.57 554.455 1119.43 553.838 1118.96 553.544L1117.89 555.236ZM1117.35 530.815C1116.98 530.412 1116.34 530.392 1115.94 530.769C1115.54 531.147 1115.52 531.78 1115.9 532.183L1117.35 530.815ZM1115.19 530.9C1115.33 531.435 1115.87 531.758 1116.41 531.622C1116.94 531.485 1117.27 530.941 1117.13 530.406L1115.19 530.9ZM1117.1 527.667C1117.1 527.115 1116.65 526.667 1116.1 526.667C1115.55 526.667 1115.1 527.115 1115.1 527.667L1117.1 527.667ZM1115.1 522.662C1115.1 523.214 1115.55 523.662 1116.1 523.662C1116.65 523.662 1117.1 523.214 1117.1 522.662L1115.1 522.662ZM1117.22 519.687C1117.5 519.208 1117.34 518.597 1116.86 518.321C1116.38 518.045 1115.77 518.209 1115.49 518.688L1117.22 519.687ZM1118.06 517.229C1117.51 517.218 1117.05 517.657 1117.04 518.209C1117.03 518.761 1117.47 519.218 1118.02 519.229L1118.06 517.229ZM1120.36 520.555C1120.83 520.849 1121.44 520.709 1121.74 520.241C1122.03 519.774 1121.89 519.156 1121.42 518.862L1120.36 520.555ZM1125.2 521.237C1124.73 520.943 1124.11 521.084 1123.82 521.551C1123.52 522.019 1123.66 522.636 1124.13 522.93L1125.2 521.237ZM1127.91 525.305C1128.37 525.599 1128.99 525.459 1129.29 524.991C1129.58 524.524 1129.44 523.907 1128.97 523.612L1127.91 525.305ZM1132.75 525.987C1132.28 525.693 1131.66 525.834 1131.37 526.301C1131.07 526.769 1131.21 527.386 1131.68 527.68L1132.75 525.987ZM1134.3 529.198C1134.83 529.351 1135.39 529.045 1135.54 528.515C1135.69 527.984 1135.39 527.43 1134.86 527.276L1134.3 529.198ZM1135.34 527.276C1134.81 527.43 1134.51 527.984 1134.66 528.515C1134.82 529.045 1135.37 529.351 1135.9 529.198L1135.34 527.276ZM1138.52 527.68C1138.99 527.386 1139.13 526.769 1138.84 526.301C1138.54 525.834 1137.93 525.693 1137.46 525.987L1138.52 527.68ZM1141.23 523.612C1140.76 523.907 1140.62 524.524 1140.92 524.991C1141.21 525.459 1141.83 525.599 1142.3 525.305L1141.23 523.612ZM1146.07 522.93C1146.54 522.636 1146.68 522.019 1146.39 521.551C1146.09 521.084 1145.47 520.943 1145.01 521.237L1146.07 522.93ZM1148.78 518.862C1148.31 519.156 1148.17 519.774 1148.47 520.241C1148.76 520.709 1149.38 520.849 1149.85 520.555L1148.78 518.862ZM1152.18 519.229C1152.73 519.218 1153.17 518.761 1153.16 518.209C1153.15 517.657 1152.69 517.218 1152.14 517.229L1152.18 519.229ZM1154.71 518.688C1154.44 518.209 1153.83 518.045 1153.35 518.321C1152.87 518.597 1152.7 519.208 1152.98 519.687L1154.71 518.688ZM1153.1 522.662C1153.1 523.214 1153.55 523.662 1154.1 523.662C1154.65 523.662 1155.1 523.214 1155.1 522.662H1153.1ZM1155.1 527.667C1155.1 527.115 1154.65 526.667 1154.1 526.667C1153.55 526.667 1153.1 527.115 1153.1 527.667H1155.1ZM1153.07 530.406C1152.94 530.941 1153.26 531.485 1153.79 531.622C1154.33 531.758 1154.87 531.435 1155.01 530.9L1153.07 530.406ZM1154.31 532.183C1154.69 531.78 1154.66 531.147 1154.26 530.769C1153.86 530.392 1153.23 530.412 1152.85 530.815L1154.31 532.183ZM1151.25 531.859C1150.78 532.153 1150.64 532.77 1150.93 533.238C1151.23 533.705 1151.84 533.845 1152.31 533.551L1151.25 531.859ZM1149.46 535.345C1149.93 535.051 1150.07 534.433 1149.77 533.966C1149.48 533.498 1148.86 533.358 1148.4 533.652L1149.46 535.345ZM1145.55 535.446C1145.08 535.74 1144.94 536.357 1145.23 536.824C1145.53 537.292 1146.14 537.432 1146.61 537.138L1145.55 535.446ZM1143.76 538.932C1144.23 538.638 1144.37 538.02 1144.07 537.553C1143.78 537.085 1143.16 536.945 1142.7 537.239L1143.76 538.932ZM1139.85 539.032C1139.38 539.327 1139.24 539.944 1139.53 540.411C1139.83 540.879 1140.44 541.019 1140.91 540.725L1139.85 539.032ZM1138.06 542.519C1138.53 542.224 1138.67 541.607 1138.37 541.14C1138.08 540.672 1137.46 540.532 1137 540.826L1138.06 542.519ZM1135.34 541.824C1134.81 541.977 1134.51 542.532 1134.66 543.063C1134.82 543.593 1135.37 543.899 1135.9 543.745L1135.34 541.824ZM1134.3 543.745C1134.83 543.899 1135.39 543.593 1135.54 543.063C1135.69 542.532 1135.39 541.977 1134.86 541.824L1134.3 543.745ZM1133.21 540.826C1132.74 540.532 1132.12 540.672 1131.83 541.14C1131.53 541.607 1131.68 542.224 1132.14 542.519L1133.21 540.826ZM1129.29 540.725C1129.76 541.019 1130.38 540.879 1130.67 540.411C1130.97 539.944 1130.83 539.327 1130.36 539.032L1129.29 540.725ZM1127.51 537.239C1127.04 536.945 1126.42 537.085 1126.13 537.553C1125.83 538.02 1125.98 538.638 1126.44 538.932L1127.51 537.239ZM1123.59 537.138C1124.06 537.432 1124.68 537.292 1124.97 536.824C1125.27 536.357 1125.13 535.74 1124.66 535.446L1123.59 537.138ZM1121.81 533.652C1121.34 533.358 1120.72 533.498 1120.43 533.966C1120.13 534.433 1120.28 535.051 1120.74 535.345L1121.81 533.652ZM1117.89 533.551C1118.36 533.845 1118.98 533.705 1119.27 533.238C1119.57 532.77 1119.43 532.153 1118.96 531.859L1117.89 533.551ZM1117.53 574.332C1117.47 574.29 1117.41 574.241 1117.35 574.185L1115.9 575.553C1116.06 575.732 1116.25 575.891 1116.47 576.025L1117.53 574.332ZM1117.13 573.776C1117.11 573.7 1117.1 573.621 1117.1 573.54L1115.1 573.54C1115.1 573.789 1115.13 574.034 1115.19 574.27L1117.13 573.776ZM1117.1 573.54L1117.1 571.038L1115.1 571.038L1115.1 573.54L1117.1 573.54ZM1117.1 566.032L1117.1 563.529L1115.1 563.529L1115.1 566.032L1117.1 566.032ZM1117.1 563.529C1117.1 563.343 1117.15 563.186 1117.22 563.057L1115.49 562.058C1115.24 562.488 1115.1 562.989 1115.1 563.529L1117.1 563.529ZM1118.02 562.599C1118.17 562.602 1118.32 562.642 1118.47 562.738L1119.54 561.045C1119.07 560.753 1118.56 560.609 1118.06 560.599L1118.02 562.599ZM1118.47 562.738L1120.36 563.925L1121.42 562.232L1119.54 561.045L1118.47 562.738ZM1124.13 566.3L1127.91 568.675L1128.97 566.982L1125.2 564.607L1124.13 566.3ZM1131.68 571.05L1133.57 572.238L1134.63 570.545L1132.75 569.357L1131.68 571.05ZM1133.57 572.238C1133.8 572.383 1134.05 572.494 1134.3 572.568L1134.86 570.646C1134.78 570.624 1134.7 570.59 1134.63 570.545L1133.57 572.238ZM1135.9 572.568C1136.16 572.494 1136.4 572.383 1136.64 572.238L1135.57 570.545C1135.5 570.59 1135.42 570.624 1135.34 570.646L1135.9 572.568ZM1136.64 572.238L1138.52 571.05L1137.46 569.357L1135.57 570.545L1136.64 572.238ZM1142.3 568.675L1146.07 566.3L1145.01 564.607L1141.23 566.982L1142.3 568.675ZM1149.85 563.925L1151.73 562.738L1150.67 561.045L1148.78 562.232L1149.85 563.925ZM1151.73 562.738C1151.89 562.642 1152.04 562.602 1152.18 562.599L1152.14 560.599C1151.64 560.609 1151.13 560.753 1150.67 561.045L1151.73 562.738ZM1152.98 563.057C1153.05 563.186 1153.1 563.343 1153.1 563.529L1155.1 563.529C1155.1 562.989 1154.96 562.488 1154.71 562.058L1152.98 563.057ZM1153.1 563.529V566.032H1155.1V563.529H1153.1ZM1153.1 571.038V573.54H1155.1V571.038H1153.1ZM1153.1 573.54C1153.1 573.621 1153.09 573.7 1153.07 573.776L1155.01 574.27C1155.07 574.034 1155.1 573.789 1155.1 573.54L1153.1 573.54ZM1152.85 574.185C1152.8 574.241 1152.74 574.29 1152.67 574.332L1153.74 576.025C1153.95 575.891 1154.14 575.732 1154.31 575.553L1152.85 574.185ZM1152.67 574.332L1151.25 575.229L1152.31 576.921L1153.74 576.025L1152.67 574.332ZM1148.4 577.022L1145.55 578.816L1146.61 580.508L1149.46 578.715L1148.4 577.022ZM1142.7 580.609L1139.85 582.402L1140.91 584.095L1143.76 582.302L1142.7 580.609ZM1137 584.196L1135.57 585.093L1136.64 586.785L1138.06 585.889L1137 584.196ZM1135.57 585.093C1135.5 585.138 1135.42 585.172 1135.34 585.194L1135.9 587.115C1136.16 587.041 1136.4 586.931 1136.64 586.785L1135.57 585.093ZM1134.86 585.194C1134.78 585.172 1134.7 585.138 1134.63 585.093L1133.57 586.785C1133.8 586.931 1134.05 587.041 1134.3 587.115L1134.86 585.194ZM1134.63 585.093L1133.21 584.196L1132.14 585.889L1133.57 586.785L1134.63 585.093ZM1130.36 582.402L1127.51 580.609L1126.44 582.302L1129.29 584.095L1130.36 582.402ZM1124.66 578.816L1121.81 577.022L1120.74 578.715L1123.59 580.508L1124.66 578.816ZM1118.96 575.229L1117.53 574.332L1116.47 576.025L1117.89 576.921L1118.96 575.229ZM1117.53 552.647C1117.47 552.605 1117.41 552.556 1117.35 552.5L1115.9 553.868C1116.06 554.047 1116.25 554.206 1116.47 554.34L1117.53 552.647ZM1117.13 552.091C1117.11 552.015 1117.1 551.936 1117.1 551.855L1115.1 551.855C1115.1 552.104 1115.13 552.349 1115.19 552.585L1117.13 552.091ZM1117.1 551.855L1117.1 549.352L1115.1 549.352L1115.1 551.855L1117.1 551.855ZM1117.1 544.347L1117.1 541.844L1115.1 541.844L1115.1 544.347L1117.1 544.347ZM1117.1 541.844C1117.1 541.658 1117.15 541.501 1117.22 541.372L1115.49 540.373C1115.24 540.803 1115.1 541.304 1115.1 541.844L1117.1 541.844ZM1118.02 540.914C1118.17 540.917 1118.32 540.957 1118.47 541.053L1119.54 539.36C1119.07 539.068 1118.56 538.924 1118.06 538.914L1118.02 540.914ZM1118.47 541.053L1120.36 542.24L1121.42 540.547L1119.54 539.36L1118.47 541.053ZM1124.13 544.615L1127.91 546.99L1128.97 545.297L1125.2 542.922L1124.13 544.615ZM1131.68 549.365L1133.57 550.553L1134.63 548.86L1132.75 547.672L1131.68 549.365ZM1133.57 550.553C1133.8 550.698 1134.05 550.809 1134.3 550.883L1134.86 548.961C1134.78 548.939 1134.7 548.905 1134.63 548.86L1133.57 550.553ZM1135.9 550.883C1136.16 550.809 1136.4 550.698 1136.64 550.553L1135.57 548.86C1135.5 548.905 1135.42 548.939 1135.34 548.961L1135.9 550.883ZM1136.64 550.553L1138.52 549.365L1137.46 547.672L1135.57 548.86L1136.64 550.553ZM1142.3 546.99L1146.07 544.615L1145.01 542.922L1141.23 545.297L1142.3 546.99ZM1149.85 542.24L1151.73 541.053L1150.67 539.36L1148.78 540.547L1149.85 542.24ZM1151.73 541.053C1151.89 540.957 1152.04 540.917 1152.18 540.914L1152.14 538.914C1151.64 538.924 1151.13 539.068 1150.67 539.36L1151.73 541.053ZM1152.98 541.372C1153.05 541.501 1153.1 541.658 1153.1 541.844L1155.1 541.844C1155.1 541.304 1154.96 540.803 1154.71 540.373L1152.98 541.372ZM1153.1 541.844V544.347H1155.1V541.844H1153.1ZM1153.1 549.352V551.855H1155.1V549.352H1153.1ZM1153.1 551.855C1153.1 551.936 1153.09 552.015 1153.07 552.091L1155.01 552.585C1155.07 552.349 1155.1 552.104 1155.1 551.855L1153.1 551.855ZM1152.85 552.5C1152.8 552.556 1152.74 552.605 1152.67 552.647L1153.74 554.34C1153.95 554.206 1154.14 554.047 1154.31 553.868L1152.85 552.5ZM1152.67 552.647L1151.25 553.544L1152.31 555.236L1153.74 554.34L1152.67 552.647ZM1148.4 555.337L1145.55 557.131L1146.61 558.823L1149.46 557.03L1148.4 555.337ZM1142.7 558.924L1139.85 560.717L1140.91 562.41L1143.76 560.617L1142.7 558.924ZM1137 562.511L1135.57 563.408L1136.64 565.1L1138.06 564.204L1137 562.511ZM1135.57 563.408C1135.5 563.453 1135.42 563.487 1135.34 563.509L1135.9 565.43C1136.16 565.356 1136.4 565.246 1136.64 565.1L1135.57 563.408ZM1134.86 563.509C1134.78 563.487 1134.7 563.453 1134.63 563.408L1133.57 565.1C1133.8 565.246 1134.05 565.356 1134.3 565.43L1134.86 563.509ZM1134.63 563.408L1133.21 562.511L1132.14 564.204L1133.57 565.1L1134.63 563.408ZM1130.36 560.717L1127.51 558.924L1126.44 560.617L1129.29 562.41L1130.36 560.717ZM1124.66 557.131L1121.81 555.337L1120.74 557.03L1123.59 558.823L1124.66 557.131ZM1118.96 553.544L1117.53 552.647L1116.47 554.34L1117.89 555.236L1118.96 553.544ZM1117.53 530.962C1117.47 530.92 1117.41 530.871 1117.35 530.815L1115.9 532.183C1116.06 532.362 1116.25 532.521 1116.47 532.655L1117.53 530.962ZM1117.13 530.406C1117.11 530.33 1117.1 530.251 1117.1 530.17L1115.1 530.17C1115.1 530.419 1115.13 530.664 1115.19 530.9L1117.13 530.406ZM1117.1 530.17L1117.1 527.667L1115.1 527.667L1115.1 530.17L1117.1 530.17ZM1117.1 522.662L1117.1 520.159L1115.1 520.159L1115.1 522.662L1117.1 522.662ZM1117.1 520.159C1117.1 519.973 1117.15 519.816 1117.22 519.687L1115.49 518.688C1115.24 519.118 1115.1 519.619 1115.1 520.159L1117.1 520.159ZM1118.02 519.229C1118.17 519.232 1118.32 519.272 1118.47 519.367L1119.54 517.675C1119.07 517.383 1118.56 517.239 1118.06 517.229L1118.02 519.229ZM1118.47 519.367L1120.36 520.555L1121.42 518.862L1119.54 517.675L1118.47 519.367ZM1124.13 522.93L1127.91 525.305L1128.97 523.612L1125.2 521.237L1124.13 522.93ZM1131.68 527.68L1133.57 528.868L1134.63 527.175L1132.75 525.987L1131.68 527.68ZM1133.57 528.868C1133.8 529.013 1134.05 529.124 1134.3 529.198L1134.86 527.276C1134.78 527.254 1134.7 527.22 1134.63 527.175L1133.57 528.868ZM1135.9 529.198C1136.16 529.124 1136.4 529.013 1136.64 528.868L1135.57 527.175C1135.5 527.22 1135.42 527.254 1135.34 527.276L1135.9 529.198ZM1136.64 528.868L1138.52 527.68L1137.46 525.987L1135.57 527.175L1136.64 528.868ZM1142.3 525.305L1146.07 522.93L1145.01 521.237L1141.23 523.612L1142.3 525.305ZM1149.85 520.555L1151.73 519.367L1150.67 517.675L1148.78 518.862L1149.85 520.555ZM1151.73 519.367C1151.89 519.272 1152.04 519.232 1152.18 519.229L1152.14 517.229C1151.64 517.239 1151.13 517.383 1150.67 517.675L1151.73 519.367ZM1152.98 519.687C1153.05 519.816 1153.1 519.973 1153.1 520.159L1155.1 520.159C1155.1 519.619 1154.96 519.118 1154.71 518.688L1152.98 519.687ZM1153.1 520.159V522.662H1155.1V520.159H1153.1ZM1153.1 527.667V530.17H1155.1V527.667H1153.1ZM1153.1 530.17C1153.1 530.251 1153.09 530.33 1153.07 530.406L1155.01 530.9C1155.07 530.664 1155.1 530.419 1155.1 530.17L1153.1 530.17ZM1152.85 530.815C1152.8 530.871 1152.74 530.92 1152.67 530.962L1153.74 532.655C1153.95 532.521 1154.14 532.362 1154.31 532.183L1152.85 530.815ZM1152.67 530.962L1151.25 531.859L1152.31 533.551L1153.74 532.655L1152.67 530.962ZM1148.4 533.652L1145.55 535.446L1146.61 537.138L1149.46 535.345L1148.4 533.652ZM1142.7 537.239L1139.85 539.032L1140.91 540.725L1143.76 538.932L1142.7 537.239ZM1137 540.826L1135.57 541.723L1136.64 543.415L1138.06 542.519L1137 540.826ZM1135.57 541.723C1135.5 541.768 1135.42 541.801 1135.34 541.824L1135.9 543.745C1136.16 543.671 1136.4 543.561 1136.64 543.415L1135.57 541.723ZM1134.86 541.824C1134.78 541.801 1134.7 541.768 1134.63 541.723L1133.57 543.415C1133.8 543.561 1134.05 543.671 1134.3 543.745L1134.86 541.824ZM1134.63 541.723L1133.21 540.826L1132.14 542.519L1133.57 543.415L1134.63 541.723ZM1130.36 539.032L1127.51 537.239L1126.44 538.932L1129.29 540.725L1130.36 539.032ZM1124.66 535.446L1121.81 533.652L1120.74 535.345L1123.59 537.138L1124.66 535.446ZM1118.96 531.859L1117.53 530.962L1116.47 532.655L1117.89 533.551L1118.96 531.859ZM1117 575.178L1118.07 573.486L1118.07 573.486L1117 575.178ZM1116.1 573.54L1118.1 573.54L1116.1 573.54ZM1116.1 563.529L1114.1 563.529L1116.1 563.529ZM1119 561.891L1117.94 563.584L1117.94 563.584L1119 561.891ZM1134.1 571.391L1133.03 573.084L1133.03 573.084L1134.1 571.391ZM1136.1 571.391L1135.04 569.699L1135.04 569.699L1136.1 571.391ZM1151.2 561.891L1152.27 563.584L1152.27 563.584L1151.2 561.891ZM1154.1 563.529H1152.1H1154.1ZM1154.1 573.54H1156.1H1154.1ZM1153.2 575.178L1152.14 573.486L1152.14 573.486L1153.2 575.178ZM1136.1 585.939L1135.04 584.246L1135.04 584.246L1136.1 585.939ZM1134.1 585.939L1135.17 584.246L1135.17 584.246L1134.1 585.939ZM1117 553.493L1118.07 551.801L1118.07 551.801L1117 553.493ZM1116.1 551.855L1118.1 551.855L1116.1 551.855ZM1116.1 541.844L1114.1 541.844L1116.1 541.844ZM1119 540.206L1117.94 541.899L1117.94 541.899L1119 540.206ZM1134.1 549.706L1133.03 551.399L1133.03 551.399L1134.1 549.706ZM1136.1 549.706L1135.04 548.014L1135.04 548.014L1136.1 549.706ZM1151.2 540.206L1152.27 541.899L1152.27 541.899L1151.2 540.206ZM1154.1 541.844H1152.1H1154.1ZM1154.1 551.855H1156.1H1154.1ZM1153.2 553.493L1152.14 551.801L1152.14 551.801L1153.2 553.493ZM1136.1 564.254L1135.04 562.561L1135.04 562.561L1136.1 564.254ZM1134.1 564.254L1135.17 562.561L1135.17 562.561L1134.1 564.254ZM1117 531.808L1118.07 530.116L1118.07 530.116L1117 531.808ZM1116.1 530.17L1118.1 530.17L1116.1 530.17ZM1116.1 520.159L1114.1 520.159L1116.1 520.159ZM1119 518.521L1117.94 520.214L1117.94 520.214L1119 518.521ZM1134.1 528.021L1133.03 529.714L1133.03 529.714L1134.1 528.021ZM1136.1 528.021L1135.04 526.329L1135.04 526.329L1136.1 528.021ZM1151.2 518.521L1152.27 520.214L1152.27 520.214L1151.2 518.521ZM1154.1 520.159H1152.1H1154.1ZM1154.1 530.17H1156.1H1154.1ZM1153.2 531.808L1152.14 530.116L1152.14 530.116L1153.2 531.808ZM1136.1 542.569L1135.04 540.876L1135.04 540.876L1136.1 542.569ZM1134.1 542.569L1135.17 540.876L1135.17 540.876L1134.1 542.569ZM1118.08 573.501C1117.33 572.695 1116.06 572.655 1115.26 573.41C1114.45 574.166 1114.41 575.431 1115.17 576.237L1118.08 573.501ZM1114.22 574.517C1114.5 575.587 1115.59 576.234 1116.66 575.961C1117.73 575.688 1118.37 574.599 1118.1 573.529L1114.22 574.517ZM1118.1 571.038C1118.1 569.933 1117.21 569.038 1116.1 569.038C1115 569.038 1114.1 569.933 1114.1 571.038L1118.1 571.038ZM1114.1 566.032C1114.1 567.137 1115 568.032 1116.1 568.032C1117.21 568.032 1118.1 567.137 1118.1 566.032L1114.1 566.032ZM1118.09 563.556C1118.64 562.599 1118.31 561.376 1117.36 560.824C1116.4 560.273 1115.18 560.602 1114.62 561.559L1118.09 563.556ZM1118.08 559.599C1116.98 559.577 1116.06 560.455 1116.04 561.559C1116.02 562.663 1116.9 563.576 1118 563.599L1118.08 559.599ZM1119.82 564.771C1120.76 565.36 1121.99 565.079 1122.58 564.144C1123.17 563.209 1122.89 561.974 1121.96 561.386L1119.82 564.771ZM1125.73 563.761C1124.79 563.173 1123.56 563.454 1122.97 564.389C1122.38 565.323 1122.66 566.558 1123.6 567.146L1125.73 563.761ZM1127.37 569.522C1128.31 570.11 1129.54 569.829 1130.13 568.894C1130.72 567.959 1130.44 566.724 1129.5 566.136L1127.37 569.522ZM1133.28 568.511C1132.34 567.923 1131.11 568.204 1130.52 569.139C1129.93 570.074 1130.21 571.308 1131.15 571.897L1133.28 568.511ZM1134.02 573.528C1135.09 573.835 1136.19 573.224 1136.5 572.163C1136.81 571.102 1136.2 569.993 1135.14 569.686L1134.02 573.528ZM1135.07 569.686C1134.01 569.993 1133.39 571.102 1133.7 572.163C1134.01 573.224 1135.12 573.835 1136.18 573.528L1135.07 569.686ZM1139.06 571.897C1139.99 571.308 1140.27 570.074 1139.68 569.139C1139.09 568.204 1137.86 567.923 1136.92 568.511L1139.06 571.897ZM1140.7 566.136C1139.76 566.724 1139.48 567.959 1140.07 568.894C1140.66 569.829 1141.89 570.11 1142.83 569.522L1140.7 566.136ZM1146.6 567.146C1147.54 566.558 1147.82 565.323 1147.23 564.389C1146.64 563.454 1145.41 563.173 1144.47 563.761L1146.6 567.146ZM1148.25 561.386C1147.31 561.974 1147.03 563.209 1147.62 564.144C1148.21 565.079 1149.44 565.36 1150.38 564.771L1148.25 561.386ZM1152.2 563.599C1153.31 563.576 1154.18 562.663 1154.16 561.559C1154.14 560.455 1153.22 559.577 1152.12 559.599L1152.2 563.599ZM1155.58 561.559C1155.03 560.602 1153.8 560.273 1152.85 560.824C1151.89 561.376 1151.56 562.599 1152.11 563.556L1155.58 561.559ZM1152.1 566.032C1152.1 567.137 1153 568.032 1154.1 568.032C1155.21 568.032 1156.1 567.137 1156.1 566.032H1152.1ZM1156.1 571.038C1156.1 569.933 1155.21 569.038 1154.1 569.038C1153 569.038 1152.1 569.933 1152.1 571.038H1156.1ZM1152.1 573.529C1151.83 574.599 1152.48 575.688 1153.55 575.961C1154.62 576.234 1155.71 575.587 1155.98 574.517L1152.1 573.529ZM1155.04 576.237C1155.79 575.431 1155.75 574.166 1154.95 573.41C1154.14 572.655 1152.87 572.695 1152.12 573.501L1155.04 576.237ZM1150.71 574.382C1149.78 574.971 1149.5 576.205 1150.09 577.14C1150.67 578.075 1151.91 578.356 1152.84 577.768L1150.71 574.382ZM1149.99 579.561C1150.93 578.973 1151.21 577.738 1150.62 576.803C1150.03 575.868 1148.8 575.587 1147.86 576.176L1149.99 579.561ZM1145.01 577.969C1144.08 578.557 1143.8 579.792 1144.39 580.727C1144.97 581.662 1146.21 581.943 1147.14 581.355L1145.01 577.969ZM1144.29 583.148C1145.23 582.56 1145.51 581.325 1144.92 580.39C1144.33 579.455 1143.1 579.174 1142.16 579.763L1144.29 583.148ZM1139.31 581.556C1138.38 582.144 1138.1 583.379 1138.69 584.314C1139.27 585.249 1140.51 585.53 1141.44 584.942L1139.31 581.556ZM1138.59 586.735C1139.53 586.147 1139.81 584.912 1139.22 583.977C1138.63 583.042 1137.4 582.761 1136.46 583.35L1138.59 586.735ZM1135.07 584.233C1134.01 584.54 1133.39 585.649 1133.7 586.71C1134.01 587.772 1135.12 588.383 1136.18 588.076L1135.07 584.233ZM1134.02 588.076C1135.09 588.383 1136.19 587.772 1136.5 586.71C1136.81 585.649 1136.2 584.54 1135.14 584.233L1134.02 588.076ZM1133.74 583.35C1132.81 582.761 1131.57 583.042 1130.98 583.977C1130.39 584.912 1130.67 586.147 1131.61 586.735L1133.74 583.35ZM1128.76 584.942C1129.69 585.53 1130.93 585.249 1131.52 584.314C1132.11 583.379 1131.83 582.144 1130.89 581.556L1128.76 584.942ZM1128.04 579.763C1127.11 579.174 1125.87 579.455 1125.28 580.39C1124.69 581.325 1124.97 582.56 1125.91 583.148L1128.04 579.763ZM1123.06 581.355C1123.99 581.943 1125.23 581.662 1125.82 580.727C1126.41 579.792 1126.13 578.557 1125.19 577.969L1123.06 581.355ZM1122.34 576.176C1121.41 575.587 1120.17 575.868 1119.58 576.803C1118.99 577.738 1119.27 578.973 1120.21 579.561L1122.34 576.176ZM1117.36 577.768C1118.29 578.356 1119.53 578.075 1120.12 577.14C1120.71 576.205 1120.43 574.971 1119.49 574.382L1117.36 577.768ZM1118.08 551.816C1117.33 551.01 1116.06 550.969 1115.26 551.725C1114.45 552.481 1114.41 553.746 1115.17 554.552L1118.08 551.816ZM1114.22 552.832C1114.5 553.902 1115.59 554.549 1116.66 554.276C1117.73 554.003 1118.37 552.914 1118.1 551.844L1114.22 552.832ZM1118.1 549.352C1118.1 548.248 1117.21 547.352 1116.1 547.352C1115 547.352 1114.1 548.248 1114.1 549.352L1118.1 549.352ZM1114.1 544.347C1114.1 545.452 1115 546.347 1116.1 546.347C1117.21 546.347 1118.1 545.452 1118.1 544.347L1114.1 544.347ZM1118.09 541.871C1118.64 540.914 1118.31 539.691 1117.36 539.139C1116.4 538.588 1115.18 538.917 1114.62 539.873L1118.09 541.871ZM1118.08 537.914C1116.98 537.892 1116.06 538.769 1116.04 539.874C1116.02 540.978 1116.9 541.891 1118 541.914L1118.08 537.914ZM1119.82 543.086C1120.76 543.675 1121.99 543.394 1122.58 542.459C1123.17 541.524 1122.89 540.289 1121.96 539.701L1119.82 543.086ZM1125.73 542.076C1124.79 541.488 1123.56 541.769 1122.97 542.704C1122.38 543.638 1122.66 544.873 1123.6 545.461L1125.73 542.076ZM1127.37 547.837C1128.31 548.425 1129.54 548.144 1130.13 547.209C1130.72 546.274 1130.44 545.039 1129.5 544.451L1127.37 547.837ZM1133.28 546.826C1132.34 546.238 1131.11 546.519 1130.52 547.454C1129.93 548.388 1130.21 549.623 1131.15 550.212L1133.28 546.826ZM1134.02 551.843C1135.09 552.15 1136.19 551.539 1136.5 550.478C1136.81 549.417 1136.2 548.308 1135.14 548.001L1134.02 551.843ZM1135.07 548.001C1134.01 548.308 1133.39 549.417 1133.7 550.478C1134.01 551.539 1135.12 552.15 1136.18 551.843L1135.07 548.001ZM1139.06 550.212C1139.99 549.623 1140.27 548.388 1139.68 547.454C1139.09 546.519 1137.86 546.238 1136.92 546.826L1139.06 550.212ZM1140.7 544.451C1139.76 545.039 1139.48 546.274 1140.07 547.209C1140.66 548.144 1141.89 548.425 1142.83 547.837L1140.7 544.451ZM1146.6 545.461C1147.54 544.873 1147.82 543.638 1147.23 542.704C1146.64 541.769 1145.41 541.488 1144.47 542.076L1146.6 545.461ZM1148.25 539.701C1147.31 540.289 1147.03 541.524 1147.62 542.459C1148.21 543.394 1149.44 543.675 1150.38 543.086L1148.25 539.701ZM1152.2 541.914C1153.31 541.891 1154.18 540.978 1154.16 539.874C1154.14 538.769 1153.22 537.892 1152.12 537.914L1152.2 541.914ZM1155.58 539.873C1155.03 538.916 1153.8 538.588 1152.85 539.139C1151.89 539.691 1151.56 540.914 1152.11 541.871L1155.58 539.873ZM1152.1 544.347C1152.1 545.452 1153 546.347 1154.1 546.347C1155.21 546.347 1156.1 545.452 1156.1 544.347H1152.1ZM1156.1 549.352C1156.1 548.248 1155.21 547.352 1154.1 547.352C1153 547.352 1152.1 548.248 1152.1 549.352H1156.1ZM1152.1 551.844C1151.83 552.914 1152.48 554.003 1153.55 554.276C1154.62 554.549 1155.71 553.902 1155.98 552.832L1152.1 551.844ZM1155.04 554.552C1155.79 553.746 1155.75 552.481 1154.95 551.725C1154.14 550.969 1152.87 551.01 1152.12 551.816L1155.04 554.552ZM1150.71 552.697C1149.78 553.286 1149.5 554.52 1150.09 555.455C1150.67 556.39 1151.91 556.671 1152.84 556.083L1150.71 552.697ZM1149.99 557.876C1150.93 557.288 1151.21 556.053 1150.62 555.118C1150.03 554.183 1148.8 553.902 1147.86 554.491L1149.99 557.876ZM1145.01 556.284C1144.08 556.872 1143.8 558.107 1144.39 559.042C1144.97 559.977 1146.21 560.258 1147.14 559.67L1145.01 556.284ZM1144.29 561.463C1145.23 560.875 1145.51 559.64 1144.92 558.705C1144.33 557.77 1143.1 557.489 1142.16 558.078L1144.29 561.463ZM1139.31 559.871C1138.38 560.459 1138.1 561.694 1138.69 562.629C1139.27 563.564 1140.51 563.845 1141.44 563.257L1139.31 559.871ZM1138.59 565.05C1139.53 564.462 1139.81 563.227 1139.22 562.292C1138.63 561.357 1137.4 561.076 1136.46 561.665L1138.59 565.05ZM1135.07 562.548C1134.01 562.855 1133.39 563.964 1133.7 565.025C1134.01 566.087 1135.12 566.698 1136.18 566.391L1135.07 562.548ZM1134.02 566.391C1135.09 566.698 1136.19 566.087 1136.5 565.025C1136.81 563.964 1136.2 562.855 1135.14 562.548L1134.02 566.391ZM1133.74 561.665C1132.81 561.076 1131.57 561.357 1130.98 562.292C1130.39 563.227 1130.67 564.462 1131.61 565.05L1133.74 561.665ZM1128.76 563.257C1129.69 563.845 1130.93 563.564 1131.52 562.629C1132.11 561.694 1131.83 560.459 1130.89 559.871L1128.76 563.257ZM1128.04 558.078C1127.11 557.489 1125.87 557.77 1125.28 558.705C1124.69 559.64 1124.97 560.875 1125.91 561.463L1128.04 558.078ZM1123.06 559.67C1123.99 560.258 1125.23 559.977 1125.82 559.042C1126.41 558.107 1126.13 556.872 1125.19 556.284L1123.06 559.67ZM1122.34 554.491C1121.41 553.902 1120.17 554.183 1119.58 555.118C1118.99 556.053 1119.27 557.288 1120.21 557.876L1122.34 554.491ZM1117.36 556.083C1118.29 556.671 1119.53 556.39 1120.12 555.455C1120.71 554.52 1120.43 553.286 1119.49 552.697L1117.36 556.083ZM1118.08 530.131C1117.33 529.325 1116.06 529.284 1115.26 530.04C1114.45 530.796 1114.41 532.061 1115.17 532.867L1118.08 530.131ZM1114.22 531.147C1114.5 532.217 1115.59 532.863 1116.66 532.591C1117.73 532.318 1118.37 531.229 1118.1 530.159L1114.22 531.147ZM1118.1 527.667C1118.1 526.563 1117.21 525.667 1116.1 525.667C1115 525.667 1114.1 526.563 1114.1 527.667L1118.1 527.667ZM1114.1 522.662C1114.1 523.766 1115 524.662 1116.1 524.662C1117.21 524.662 1118.1 523.766 1118.1 522.662L1114.1 522.662ZM1118.09 520.186C1118.64 519.229 1118.31 518.006 1117.36 517.454C1116.4 516.903 1115.18 517.231 1114.62 518.188L1118.09 520.186ZM1118.08 516.229C1116.98 516.207 1116.06 517.084 1116.04 518.189C1116.02 519.293 1116.9 520.206 1118 520.228L1118.08 516.229ZM1119.82 521.401C1120.76 521.99 1121.99 521.709 1122.58 520.774C1123.17 519.839 1122.89 518.604 1121.96 518.016L1119.82 521.401ZM1125.73 520.391C1124.79 519.803 1123.56 520.084 1122.97 521.018C1122.38 521.953 1122.66 523.188 1123.6 523.776L1125.73 520.391ZM1127.37 526.151C1128.31 526.74 1129.54 526.459 1130.13 525.524C1130.72 524.589 1130.44 523.354 1129.5 522.766L1127.37 526.151ZM1133.28 525.141C1132.34 524.553 1131.11 524.834 1130.52 525.769C1129.93 526.703 1130.21 527.938 1131.15 528.527L1133.28 525.141ZM1134.02 530.158C1135.09 530.465 1136.19 529.854 1136.5 528.793C1136.81 527.732 1136.2 526.623 1135.14 526.316L1134.02 530.158ZM1135.07 526.316C1134.01 526.623 1133.39 527.732 1133.7 528.793C1134.01 529.854 1135.12 530.465 1136.18 530.158L1135.07 526.316ZM1139.06 528.527C1139.99 527.938 1140.27 526.703 1139.68 525.769C1139.09 524.834 1137.86 524.553 1136.92 525.141L1139.06 528.527ZM1140.7 522.766C1139.76 523.354 1139.48 524.589 1140.07 525.524C1140.66 526.459 1141.89 526.74 1142.83 526.151L1140.7 522.766ZM1146.6 523.776C1147.54 523.188 1147.82 521.953 1147.23 521.018C1146.64 520.084 1145.41 519.803 1144.47 520.391L1146.6 523.776ZM1148.25 518.016C1147.31 518.604 1147.03 519.839 1147.62 520.774C1148.21 521.709 1149.44 521.99 1150.38 521.401L1148.25 518.016ZM1152.2 520.228C1153.31 520.206 1154.18 519.293 1154.16 518.189C1154.14 517.084 1153.22 516.207 1152.12 516.229L1152.2 520.228ZM1155.58 518.188C1155.03 517.231 1153.8 516.903 1152.85 517.454C1151.89 518.006 1151.56 519.229 1152.11 520.186L1155.58 518.188ZM1152.1 522.662C1152.1 523.766 1153 524.662 1154.1 524.662C1155.21 524.662 1156.1 523.766 1156.1 522.662H1152.1ZM1156.1 527.667C1156.1 526.563 1155.21 525.667 1154.1 525.667C1153 525.667 1152.1 526.563 1152.1 527.667H1156.1ZM1152.1 530.159C1151.83 531.229 1152.48 532.318 1153.55 532.591C1154.62 532.863 1155.71 532.217 1155.98 531.147L1152.1 530.159ZM1155.04 532.867C1155.79 532.061 1155.75 530.796 1154.95 530.04C1154.14 529.284 1152.87 529.325 1152.12 530.131L1155.04 532.867ZM1150.71 531.012C1149.78 531.601 1149.5 532.835 1150.09 533.77C1150.67 534.705 1151.91 534.986 1152.84 534.398L1150.71 531.012ZM1149.99 536.191C1150.93 535.603 1151.21 534.368 1150.62 533.433C1150.03 532.498 1148.8 532.217 1147.86 532.806L1149.99 536.191ZM1145.01 534.599C1144.08 535.187 1143.8 536.422 1144.39 537.357C1144.97 538.292 1146.21 538.573 1147.14 537.985L1145.01 534.599ZM1144.29 539.778C1145.23 539.19 1145.51 537.955 1144.92 537.02C1144.33 536.085 1143.1 535.804 1142.16 536.393L1144.29 539.778ZM1139.31 538.186C1138.38 538.774 1138.1 540.009 1138.69 540.944C1139.27 541.879 1140.51 542.16 1141.44 541.571L1139.31 538.186ZM1138.59 543.365C1139.53 542.777 1139.81 541.542 1139.22 540.607C1138.63 539.672 1137.4 539.391 1136.46 539.979L1138.59 543.365ZM1135.07 540.863C1134.01 541.17 1133.39 542.279 1133.7 543.34C1134.01 544.401 1135.12 545.013 1136.18 544.706L1135.07 540.863ZM1134.02 544.706C1135.09 545.013 1136.19 544.401 1136.5 543.34C1136.81 542.279 1136.2 541.17 1135.14 540.863L1134.02 544.706ZM1133.74 539.979C1132.81 539.391 1131.57 539.672 1130.98 540.607C1130.39 541.542 1130.67 542.777 1131.61 543.365L1133.74 539.979ZM1128.76 541.571C1129.69 542.16 1130.93 541.879 1131.52 540.944C1132.11 540.009 1131.83 538.774 1130.89 538.186L1128.76 541.571ZM1128.04 536.393C1127.11 535.804 1125.87 536.085 1125.28 537.02C1124.69 537.955 1124.97 539.19 1125.91 539.778L1128.04 536.393ZM1123.06 537.985C1123.99 538.573 1125.23 538.292 1125.82 537.357C1126.41 536.422 1126.13 535.187 1125.19 534.599L1123.06 537.985ZM1122.34 532.806C1121.41 532.217 1120.17 532.498 1119.58 533.433C1118.99 534.368 1119.27 535.603 1120.21 536.191L1122.34 532.806ZM1117.36 534.398C1118.29 534.986 1119.53 534.705 1120.12 533.77C1120.71 532.835 1120.43 531.601 1119.49 531.012L1117.36 534.398ZM1118.07 573.486C1118.07 573.49 1118.08 573.495 1118.08 573.501L1115.17 576.237C1115.39 576.477 1115.65 576.691 1115.93 576.871L1118.07 573.486ZM1118.1 573.529C1118.1 573.533 1118.1 573.537 1118.1 573.54L1114.1 573.54C1114.1 573.873 1114.14 574.201 1114.22 574.517L1118.1 573.529ZM1118.1 573.54L1118.1 571.038L1114.1 571.038L1114.1 573.54L1118.1 573.54ZM1118.1 566.032L1118.1 563.529L1114.1 563.529L1114.1 566.032L1118.1 566.032ZM1118.1 563.529C1118.1 563.522 1118.1 563.524 1118.1 563.532C1118.1 563.539 1118.09 563.548 1118.09 563.556L1114.62 561.559C1114.29 562.138 1114.1 562.812 1114.1 563.529L1118.1 563.529ZM1118 563.599C1117.99 563.598 1117.97 563.596 1117.96 563.592C1117.94 563.587 1117.94 563.583 1117.94 563.584L1120.07 560.198C1119.45 559.809 1118.76 559.613 1118.08 559.599L1118 563.599ZM1117.94 563.584L1119.82 564.771L1121.96 561.386L1120.07 560.198L1117.94 563.584ZM1123.6 567.146L1127.37 569.522L1129.5 566.136L1125.73 563.761L1123.6 567.146ZM1131.15 571.897L1133.03 573.084L1135.17 569.699L1133.28 568.511L1131.15 571.897ZM1133.03 573.084C1133.35 573.28 1133.68 573.428 1134.02 573.528L1135.14 569.686C1135.15 569.689 1135.16 569.694 1135.17 569.699L1133.03 573.084ZM1136.18 573.528C1136.52 573.428 1136.86 573.28 1137.17 573.084L1135.04 569.699C1135.05 569.694 1135.06 569.689 1135.07 569.686L1136.18 573.528ZM1137.17 573.084L1139.06 571.897L1136.92 568.511L1135.04 569.699L1137.17 573.084ZM1142.83 569.522L1146.6 567.146L1144.47 563.761L1140.7 566.136L1142.83 569.522ZM1150.38 564.771L1152.27 563.584L1150.13 560.198L1148.25 561.386L1150.38 564.771ZM1152.27 563.584C1152.27 563.583 1152.26 563.587 1152.25 563.592C1152.23 563.596 1152.22 563.598 1152.2 563.599L1152.12 559.599C1151.44 559.613 1150.75 559.809 1150.13 560.198L1152.27 563.584ZM1152.11 563.556C1152.11 563.548 1152.1 563.539 1152.1 563.532C1152.1 563.524 1152.1 563.522 1152.1 563.529L1156.1 563.529C1156.1 562.812 1155.91 562.138 1155.58 561.559L1152.11 563.556ZM1152.1 563.529V566.032H1156.1V563.529H1152.1ZM1152.1 571.038V573.54H1156.1V571.038H1152.1ZM1152.1 573.54C1152.1 573.537 1152.1 573.533 1152.1 573.529L1155.98 574.517C1156.06 574.201 1156.1 573.873 1156.1 573.54L1152.1 573.54ZM1152.12 573.501C1152.12 573.495 1152.13 573.49 1152.14 573.486L1154.27 576.871C1154.55 576.691 1154.81 576.477 1155.04 576.237L1152.12 573.501ZM1152.14 573.486L1150.71 574.382L1152.84 577.768L1154.27 576.871L1152.14 573.486ZM1147.86 576.176L1145.01 577.969L1147.14 581.355L1149.99 579.561L1147.86 576.176ZM1142.16 579.763L1139.31 581.556L1141.44 584.942L1144.29 583.148L1142.16 579.763ZM1136.46 583.35L1135.04 584.246L1137.17 587.632L1138.59 586.735L1136.46 583.35ZM1135.04 584.246C1135.05 584.241 1135.06 584.237 1135.07 584.233L1136.18 588.076C1136.52 587.976 1136.86 587.828 1137.17 587.632L1135.04 584.246ZM1135.14 584.233C1135.15 584.237 1135.16 584.241 1135.17 584.246L1133.03 587.632C1133.35 587.828 1133.68 587.976 1134.02 588.076L1135.14 584.233ZM1135.17 584.246L1133.74 583.35L1131.61 586.735L1133.03 587.632L1135.17 584.246ZM1130.89 581.556L1128.04 579.763L1125.91 583.148L1128.76 584.942L1130.89 581.556ZM1125.19 577.969L1122.34 576.176L1120.21 579.561L1123.06 581.355L1125.19 577.969ZM1119.49 574.382L1118.07 573.486L1115.93 576.871L1117.36 577.768L1119.49 574.382ZM1118.07 551.801C1118.07 551.805 1118.08 551.81 1118.08 551.816L1115.17 554.552C1115.39 554.792 1115.65 555.006 1115.93 555.186L1118.07 551.801ZM1118.1 551.844C1118.1 551.848 1118.1 551.852 1118.1 551.855L1114.1 551.855C1114.1 552.188 1114.14 552.516 1114.22 552.832L1118.1 551.844ZM1118.1 551.855L1118.1 549.352L1114.1 549.352L1114.1 551.855L1118.1 551.855ZM1118.1 544.347L1118.1 541.844L1114.1 541.844L1114.1 544.347L1118.1 544.347ZM1118.1 541.844C1118.1 541.837 1118.1 541.839 1118.1 541.847C1118.1 541.854 1118.09 541.863 1118.09 541.871L1114.62 539.873C1114.29 540.453 1114.1 541.127 1114.1 541.844L1118.1 541.844ZM1118 541.914C1117.99 541.913 1117.97 541.911 1117.96 541.907C1117.94 541.902 1117.94 541.898 1117.94 541.899L1120.07 538.513C1119.45 538.124 1118.76 537.928 1118.08 537.914L1118 541.914ZM1117.94 541.899L1119.82 543.086L1121.96 539.701L1120.07 538.513L1117.94 541.899ZM1123.6 545.461L1127.37 547.837L1129.5 544.451L1125.73 542.076L1123.6 545.461ZM1131.15 550.212L1133.03 551.399L1135.17 548.014L1133.28 546.826L1131.15 550.212ZM1133.03 551.399C1133.35 551.595 1133.68 551.743 1134.02 551.843L1135.14 548.001C1135.15 548.004 1135.16 548.009 1135.17 548.014L1133.03 551.399ZM1136.18 551.843C1136.52 551.743 1136.86 551.595 1137.17 551.399L1135.04 548.014C1135.05 548.009 1135.06 548.004 1135.07 548.001L1136.18 551.843ZM1137.17 551.399L1139.06 550.212L1136.92 546.826L1135.04 548.014L1137.17 551.399ZM1142.83 547.837L1146.6 545.461L1144.47 542.076L1140.7 544.451L1142.83 547.837ZM1150.38 543.086L1152.27 541.899L1150.13 538.513L1148.25 539.701L1150.38 543.086ZM1152.27 541.899C1152.27 541.898 1152.26 541.902 1152.25 541.907C1152.23 541.911 1152.22 541.913 1152.2 541.914L1152.12 537.914C1151.44 537.928 1150.75 538.124 1150.13 538.513L1152.27 541.899ZM1152.11 541.871C1152.11 541.863 1152.1 541.854 1152.1 541.847C1152.1 541.839 1152.1 541.837 1152.1 541.844L1156.1 541.844C1156.1 541.127 1155.91 540.453 1155.58 539.873L1152.11 541.871ZM1152.1 541.844V544.347H1156.1V541.844H1152.1ZM1152.1 549.352V551.855H1156.1V549.352H1152.1ZM1152.1 551.855C1152.1 551.852 1152.1 551.848 1152.1 551.844L1155.98 552.832C1156.06 552.516 1156.1 552.188 1156.1 551.855L1152.1 551.855ZM1152.12 551.816C1152.12 551.81 1152.13 551.805 1152.14 551.801L1154.27 555.186C1154.55 555.006 1154.81 554.792 1155.04 554.552L1152.12 551.816ZM1152.14 551.801L1150.71 552.697L1152.84 556.083L1154.27 555.186L1152.14 551.801ZM1147.86 554.491L1145.01 556.284L1147.14 559.67L1149.99 557.876L1147.86 554.491ZM1142.16 558.078L1139.31 559.871L1141.44 563.257L1144.29 561.463L1142.16 558.078ZM1136.46 561.665L1135.04 562.561L1137.17 565.947L1138.59 565.05L1136.46 561.665ZM1135.04 562.561C1135.05 562.556 1135.06 562.552 1135.07 562.548L1136.18 566.391C1136.52 566.291 1136.86 566.143 1137.17 565.947L1135.04 562.561ZM1135.14 562.548C1135.15 562.552 1135.16 562.556 1135.17 562.561L1133.03 565.947C1133.35 566.143 1133.68 566.291 1134.02 566.391L1135.14 562.548ZM1135.17 562.561L1133.74 561.665L1131.61 565.05L1133.03 565.947L1135.17 562.561ZM1130.89 559.871L1128.04 558.078L1125.91 561.463L1128.76 563.257L1130.89 559.871ZM1125.19 556.284L1122.34 554.491L1120.21 557.876L1123.06 559.67L1125.19 556.284ZM1119.49 552.697L1118.07 551.801L1115.93 555.186L1117.36 556.083L1119.49 552.697ZM1118.07 530.116C1118.07 530.12 1118.08 530.125 1118.08 530.131L1115.17 532.867C1115.39 533.107 1115.65 533.321 1115.93 533.501L1118.07 530.116ZM1118.1 530.159C1118.1 530.163 1118.1 530.167 1118.1 530.17L1114.1 530.17C1114.1 530.503 1114.14 530.831 1114.22 531.147L1118.1 530.159ZM1118.1 530.17L1118.1 527.667L1114.1 527.667L1114.1 530.17L1118.1 530.17ZM1118.1 522.662L1118.1 520.159L1114.1 520.159L1114.1 522.662L1118.1 522.662ZM1118.1 520.159C1118.1 520.152 1118.1 520.154 1118.1 520.161C1118.1 520.169 1118.09 520.178 1118.09 520.186L1114.62 518.188C1114.29 518.768 1114.1 519.442 1114.1 520.159L1118.1 520.159ZM1118 520.228C1117.99 520.228 1117.97 520.226 1117.96 520.222C1117.94 520.217 1117.94 520.213 1117.94 520.214L1120.07 516.828C1119.45 516.439 1118.76 516.243 1118.08 516.229L1118 520.228ZM1117.94 520.214L1119.82 521.401L1121.96 518.016L1120.07 516.828L1117.94 520.214ZM1123.6 523.776L1127.37 526.151L1129.5 522.766L1125.73 520.391L1123.6 523.776ZM1131.15 528.527L1133.03 529.714L1135.17 526.329L1133.28 525.141L1131.15 528.527ZM1133.03 529.714C1133.35 529.91 1133.68 530.058 1134.02 530.158L1135.14 526.316C1135.15 526.319 1135.16 526.324 1135.17 526.329L1133.03 529.714ZM1136.18 530.158C1136.52 530.058 1136.86 529.91 1137.17 529.714L1135.04 526.329C1135.05 526.324 1135.06 526.319 1135.07 526.316L1136.18 530.158ZM1137.17 529.714L1139.06 528.527L1136.92 525.141L1135.04 526.329L1137.17 529.714ZM1142.83 526.151L1146.6 523.776L1144.47 520.391L1140.7 522.766L1142.83 526.151ZM1150.38 521.401L1152.27 520.214L1150.13 516.828L1148.25 518.016L1150.38 521.401ZM1152.27 520.214C1152.27 520.213 1152.26 520.217 1152.25 520.222C1152.23 520.226 1152.22 520.228 1152.2 520.228L1152.12 516.229C1151.44 516.243 1150.75 516.439 1150.13 516.828L1152.27 520.214ZM1152.11 520.186C1152.11 520.178 1152.1 520.169 1152.1 520.161C1152.1 520.154 1152.1 520.152 1152.1 520.159L1156.1 520.159C1156.1 519.441 1155.91 518.768 1155.58 518.188L1152.11 520.186ZM1152.1 520.159V522.662H1156.1V520.159H1152.1ZM1152.1 527.667V530.17H1156.1V527.667H1152.1ZM1152.1 530.17C1152.1 530.167 1152.1 530.163 1152.1 530.159L1155.98 531.147C1156.06 530.831 1156.1 530.503 1156.1 530.17L1152.1 530.17ZM1152.12 530.131C1152.12 530.125 1152.13 530.12 1152.14 530.116L1154.27 533.501C1154.55 533.321 1154.81 533.107 1155.04 532.867L1152.12 530.131ZM1152.14 530.116L1150.71 531.012L1152.84 534.398L1154.27 533.501L1152.14 530.116ZM1147.86 532.806L1145.01 534.599L1147.14 537.985L1149.99 536.191L1147.86 532.806ZM1142.16 536.393L1139.31 538.186L1141.44 541.571L1144.29 539.778L1142.16 536.393ZM1136.46 539.979L1135.04 540.876L1137.17 544.262L1138.59 543.365L1136.46 539.979ZM1135.04 540.876C1135.05 540.871 1135.06 540.867 1135.07 540.863L1136.18 544.706C1136.52 544.606 1136.86 544.458 1137.17 544.262L1135.04 540.876ZM1135.14 540.863C1135.15 540.867 1135.16 540.871 1135.17 540.876L1133.03 544.262C1133.35 544.458 1133.68 544.606 1134.02 544.706L1135.14 540.863ZM1135.17 540.876L1133.74 539.979L1131.61 543.365L1133.03 544.262L1135.17 540.876ZM1130.89 538.186L1128.04 536.393L1125.91 539.778L1128.76 541.571L1130.89 538.186ZM1125.19 534.599L1122.34 532.806L1120.21 536.191L1123.06 537.985L1125.19 534.599ZM1119.49 531.012L1118.07 530.116L1115.93 533.501L1117.36 534.398L1119.49 531.012Z" fill="#F8F8F8" mask="url(#path-28-inside-1_4807_33667)"/>
<path d="M1201.1 535.986V521.621L1182.1 509.814L1163.1 521.621L1163.1 535.986L1182.1 524.18L1201.1 535.986Z" fill="#F8F8F8"/>
<path d="M1201.1 500.207V514.573L1182.1 502.766L1163.1 514.573L1163.1 500.207L1182.1 488.4L1201.1 500.207Z" fill="#F8F8F8"/>
<path d="M1201.1 478.793V493.159L1182.1 481.352L1163.1 493.159L1163.1 478.793L1182.1 466.986L1201.1 478.793Z" fill="#F8F8F8"/>
<circle cx="1274.28" cy="491.578" r="5.75817" fill="#F8F8F8"/>
<circle cx="1298.88" cy="491.578" r="5.75817" fill="#F8F8F8"/>
<circle cx="1323.48" cy="491.578" r="5.75817" fill="#F8F8F8"/>
<circle cx="1348.08" cy="491.578" r="5.75817" fill="#F8F8F8"/>
<circle cx="1348.08" cy="466.987" r="5.75817" fill="#F8F8F8"/>
<circle cx="1323.48" cy="466.987" r="5.75817" fill="#F8F8F8"/>
<circle cx="1348.08" cy="517.068" r="5.75817" fill="#F8F8F8"/>
<circle cx="1247.74" cy="517.068" r="5.75817" fill="#F8F8F8"/>
<circle cx="1348.08" cy="566.269" r="5.75817" fill="#F8F8F8"/>
<circle cx="1298.88" cy="615.47" r="5.75817" transform="rotate(-90 1298.88 615.47)" fill="#F8F8F8"/>
<circle cx="1298.88" cy="590.87" r="5.75817" transform="rotate(-90 1298.88 590.87)" fill="#F8F8F8"/>
<circle cx="1298.88" cy="566.269" r="5.75817" transform="rotate(-90 1298.88 566.269)" fill="#F8F8F8"/>
<circle cx="1298.88" cy="541.669" r="5.75817" transform="rotate(-90 1298.88 541.669)" fill="#F8F8F8"/>
<circle cx="1298.88" cy="517.068" r="5.75817" transform="rotate(-90 1298.88 517.068)" fill="#F8F8F8"/>
<circle cx="1274.28" cy="615.47" r="5.75817" transform="rotate(-90 1274.28 615.47)" fill="#F8F8F8"/>
<circle cx="1274.28" cy="590.87" r="5.75817" transform="rotate(-90 1274.28 590.87)" fill="#F8F8F8"/>
<circle cx="1274.28" cy="566.269" r="5.75817" transform="rotate(-90 1274.28 566.269)" fill="#F8F8F8"/>
<circle cx="1274.28" cy="517.068" r="5.75817" transform="rotate(-90 1274.28 517.068)" fill="#F8F8F8"/>
<circle cx="1323.48" cy="590.87" r="5.75817" transform="rotate(-90 1323.48 590.87)" fill="#F8F8F8"/>
<circle cx="1323.48" cy="566.269" r="5.75817" transform="rotate(-90 1323.48 566.269)" fill="#F8F8F8"/>
<circle cx="1382.57" cy="318.641" r="170.937" stroke="#F8F8F8" stroke-width="5"/>
</svg>
