<svg width="271" height="239" viewBox="0 0 271 239" fill="none" xmlns="http://www.w3.org/2000/svg">
<path d="M0.078125 229.345L33.9395 229.196L67.8009 229.141L135.524 229.042L203.246 229.141L237.108 229.196L270.969 229.345L237.108 229.499L203.246 229.555L135.524 229.654L67.8009 229.555L33.9395 229.499L0.078125 229.345Z" fill="#263238"/>
<path d="M265.434 44.2012H163.004V147.731H265.434V44.2012Z" fill="#F8F8F8"/>
<path d="M210.1 37.9549C213.516 33.9454 219.366 32.9817 225.026 34.1246C230.685 35.2675 237.462 38.1217 238.08 47.5863C238.586 55.2717 236.226 62.7656 236.226 71.3406C236.226 79.9156 245.932 100.803 230.4 110.997C216.444 120.153 188.168 111.744 187.297 92.8955C186.611 77.9572 204.329 64.1433 206.195 58.231C208.061 52.3187 206.356 42.3413 210.1 37.9549Z" fill="#212529"/>
<path d="M207.548 46.3877C207.443 50.6628 206.825 54.9874 205.076 59.0216C204.623 60.0434 204.03 60.9976 203.316 61.8573C202.63 62.7222 201.901 63.5377 201.172 64.3285C199.702 65.9286 198.25 67.5163 196.847 69.1658C194.062 72.3975 191.76 76.0164 190.015 79.9093C188.341 83.8204 187.42 88.0125 187.302 92.2652C187.128 90.1189 187.193 87.9599 187.494 85.8278C187.828 83.6846 188.381 81.5814 189.143 79.551C190.753 75.4827 193.033 71.7133 195.89 68.3997C197.292 66.7255 198.781 65.1254 200.264 63.5439C201.746 61.9623 203.248 60.4549 204.168 58.6015C205.112 56.7066 205.832 54.7079 206.312 52.646C206.854 50.5877 207.267 48.4975 207.548 46.3877Z" fill="#212529"/>
<path d="M237.687 54.042C237.582 58.4036 237.304 62.7591 237.422 67.0898C237.472 69.2467 237.654 71.3986 237.965 73.5334C238.287 75.6339 238.917 77.7344 239.442 79.8597C239.967 81.9849 240.436 84.141 240.782 86.3156C241.117 88.5004 241.257 90.7104 241.203 92.9199C241.102 95.14 240.686 97.3346 239.967 99.4376C239.138 101.505 237.9 103.383 236.328 104.961C237.705 103.268 238.753 101.331 239.417 99.2523C239.993 97.1848 240.28 95.0475 240.27 92.9013C240.095 88.5811 239.419 84.2959 238.256 80.1315C237.761 78.0125 237.131 75.9119 236.829 73.6817C236.545 71.4965 236.433 69.2925 236.495 67.0898C236.625 62.7203 237.024 58.3628 237.687 54.042Z" fill="#212529"/>
<path d="M215.221 90.7208C201.012 106.363 189.416 113.876 177.987 113.876C167.12 113.876 143.903 87.4897 142.198 84.0116C140.728 81.0091 159.787 64.5819 162.715 66.6268C167.657 70.0494 183.51 89.8621 185.19 89.9548C186.871 90.0474 193.061 85.9576 207.968 78.9765C217.025 74.7446 225.106 79.8785 215.221 90.7208Z" fill="#FFCFC0"/>
<path d="M144.408 86.6124C142.32 84.3513 133.553 73.0642 131.817 69.3821C130.081 65.7 125.874 54.7403 128.562 53.1279C131.249 51.5155 132.732 54.623 132.732 54.623C132.732 54.623 131.688 49.7177 134.542 48.34C137.396 46.9623 139.546 51.8738 139.546 51.8738C139.546 51.8738 138.842 46.7584 141.782 45.5846C144.723 44.4108 146.07 49.7238 146.07 49.7238C146.07 49.7238 145.205 45.0718 148.035 45.1274C151.439 45.1954 152.063 53.9496 154.28 57.8726C154.781 58.7622 165.765 75.1708 165.765 75.1708L144.408 86.6124Z" fill="#FFCFC0"/>
<path d="M145.951 49.2733C146.426 55.7045 147.749 58.4413 151.511 63.5505C151.585 63.6494 151.455 63.7791 151.369 63.6864C147.211 59.0159 145.061 55.8281 145.623 49.2794C145.667 48.9582 145.926 48.9644 145.951 49.2733Z" fill="#212529"/>
<path d="M139.527 51.3674C140.602 58.0087 141.998 60.9864 145.575 66.6269C145.625 66.7072 145.495 66.7999 145.439 66.7258C141.479 61.4807 139.403 58.2496 139.2 51.4724C139.187 51.1635 139.478 51.0585 139.527 51.3674Z" fill="#212529"/>
<path d="M132.93 54.9074C134.438 61.2646 135.84 64.5945 140.004 69.6233C140.103 69.7469 139.936 69.9013 139.831 69.7901C135.086 65.0702 133.307 60.9248 132.745 54.963C132.708 54.5677 132.837 54.5059 132.93 54.9074Z" fill="#212529"/>
<path d="M170.663 76.7404C170.663 76.7404 170.521 68.6535 169.675 65.1135C168.828 61.5736 160.853 49.5513 158.128 51.1328C154.65 53.1715 157.9 61.0175 159.982 64.6625C159.982 64.6625 151.95 69.3825 153.044 75.5234C154.137 81.6643 170.663 76.7404 170.663 76.7404Z" fill="#FFCFC0"/>
<path d="M157.357 52.0039C155.504 56.1554 158.593 60.758 160.354 64.4339C160.382 64.4868 160.397 64.5457 160.398 64.6057C160.399 64.6657 160.386 64.725 160.359 64.7788C160.333 64.8326 160.294 64.8792 160.245 64.9149C160.197 64.9505 160.141 64.9741 160.082 64.9837C156.832 67.1893 152.897 71.2358 152.848 75.3751C152.848 75.3996 152.838 75.4232 152.82 75.4406C152.803 75.458 152.779 75.4677 152.755 75.4677C152.73 75.4677 152.707 75.458 152.689 75.4406C152.672 75.4232 152.662 75.3996 152.662 75.3751C152.112 70.9269 155.652 66.6271 159.359 64.4463C157.506 60.6962 154.621 55.9516 157.32 51.9668L157.357 52.0039Z" fill="#212529"/>
<path d="M190.719 85.4081L202.136 106.71C202.136 106.71 217.618 91.6788 220.089 85.4081C222.56 79.1375 219.897 74.5844 208.882 77.939C202.589 79.804 196.503 82.3067 190.719 85.4081Z" fill="#607FE1"/>
<path d="M204.771 102.268C204.209 101.113 203.715 99.9202 203.128 98.7711C202.541 97.622 201.954 96.4852 201.342 95.3608C200.107 93.0873 198.871 90.8077 197.586 88.5651C196.857 87.3295 196.091 86.0568 195.294 84.8583C195.263 84.8027 195.158 84.8583 195.189 84.9016C197.284 89.5906 199.823 94.082 202.356 98.5425C203.091 99.8337 203.925 101.063 204.691 102.336C204.716 102.367 204.802 102.311 204.771 102.268Z" fill="#212529"/>
<path d="M220.086 85.4078C217.615 91.6784 202.133 106.709 202.133 106.709L194.441 92.3827L219.814 78.3525C221.272 79.8723 221.254 82.4485 220.086 85.4078Z" fill="#212529"/>
<path d="M193.319 121.271C193.319 121.271 187.042 136.296 189.26 147.725H258.465C256.216 116.656 240.728 89.9547 231.579 81.3118C224.202 74.343 216.436 74.967 211.031 78.5317C209.758 79.3781 195.716 98.783 194.196 101.853C188.166 113.968 193.319 121.271 193.319 121.271Z" fill="#607FE1"/>
<path d="M211.513 77.6173C211.513 77.6173 207.188 90.0536 209.696 90.7022C215.936 92.3085 224.307 82.1211 224.808 81.0832C224.931 80.8175 225.487 73.855 225.901 68.4369C226.167 64.9525 226.371 62.1045 226.371 62.1045L210.975 67.3866L211.47 76.9316L211.513 77.6173Z" fill="#FFCFC0"/>
<path d="M210.949 67.3866L211.443 76.9316C214.576 76.493 221.464 74.794 225.875 68.4369C226.141 64.9525 226.345 62.1045 226.345 62.1045L224.417 62.7223L210.949 67.3866Z" fill="#212529"/>
<path d="M199.484 54.024C199.299 58.8737 199.78 62.7967 200.96 65.4038C201.971 67.6306 203.58 69.5336 205.607 70.9012C207.635 72.2688 210.002 73.0476 212.445 73.1509C214.299 73.2189 219.636 72.7309 223.498 69.7901C226.5 67.5043 228.31 63.3836 229.336 56.1369C231.683 39.5676 224.103 33.9951 216.634 33.3279C209.165 32.6606 200.102 37.3065 199.484 54.024Z" fill="#FFCFC0"/>
<path d="M203.768 50.3295C204.157 50.2739 204.515 50.1627 204.892 50.0762C205.302 50.0393 205.689 49.8727 205.998 49.6005C206.075 49.4947 206.117 49.367 206.117 49.236C206.117 49.1049 206.075 48.9773 205.998 48.8715C205.806 48.6927 205.569 48.5682 205.313 48.5106C205.057 48.4531 204.79 48.4646 204.54 48.544C204.007 48.6287 203.525 48.9084 203.187 49.3286C203.107 49.4259 203.059 49.5452 203.049 49.6706C203.039 49.796 203.067 49.9215 203.13 50.0304C203.193 50.1392 203.288 50.2261 203.402 50.2796C203.516 50.333 203.644 50.3504 203.768 50.3295Z" fill="#212529"/>
<path d="M214.683 50.7432C214.304 50.6764 213.929 50.5897 213.559 50.4837C213.149 50.4495 212.762 50.28 212.459 50.0018C212.382 49.896 212.34 49.7684 212.34 49.6373C212.34 49.5063 212.382 49.3786 212.459 49.2728C212.653 49.0945 212.891 48.9713 213.148 48.9159C213.405 48.8605 213.673 48.8749 213.923 48.9577C214.46 49.0436 214.945 49.328 215.282 49.7547C215.36 49.8535 215.405 49.9735 215.413 50.0988C215.42 50.2241 215.389 50.3487 215.324 50.4561C215.259 50.5634 215.163 50.6484 215.048 50.6997C214.934 50.751 214.806 50.7661 214.683 50.7432Z" fill="#212529"/>
<path d="M211.952 54.9199C211.952 54.8766 212.038 54.9755 212.038 55.0249C211.946 56.1554 212.038 57.4961 213.045 57.9038C213.045 57.9038 213.045 57.9718 213.045 57.9656C211.785 57.7308 211.686 55.9763 211.952 54.9199Z" fill="#212529"/>
<path d="M213.025 53.7769C214.878 53.7274 214.829 57.4033 213.124 57.4527C211.419 57.5022 211.511 53.8201 213.025 53.7769Z" fill="#212529"/>
<path d="M213.749 53.9806C214.064 54.1907 214.366 54.5613 214.762 54.5984C215.157 54.6355 215.553 54.2648 215.849 53.8941C215.88 53.857 215.911 53.8941 215.911 53.9374C215.911 54.6416 215.639 55.3645 214.879 55.4633C214.119 55.5622 213.705 54.9196 213.532 54.2277C213.501 54.0794 213.619 53.8941 213.749 53.9806Z" fill="#212529"/>
<path d="M205.868 54.4384C205.868 54.3952 205.782 54.494 205.782 54.5373C205.782 55.6802 205.664 57.0085 204.633 57.3668C204.602 57.3668 204.602 57.4348 204.633 57.4286C205.899 57.2556 206.084 55.5134 205.868 54.4384Z" fill="#212529"/>
<path d="M204.854 53.2452C203 53.1031 202.871 56.779 204.57 56.9088C206.268 57.0385 206.386 53.3688 204.854 53.2452Z" fill="#212529"/>
<path d="M204.1 53.4618C203.803 53.6471 203.482 53.9869 203.154 53.9993C202.827 54.0116 202.469 53.5977 202.228 53.2085C202.228 53.1653 202.172 53.2085 202.166 53.2456C202.123 53.9499 202.32 54.685 202.994 54.8518C203.667 55.0186 204.081 54.4132 204.273 53.7213C204.285 53.5854 204.192 53.3877 204.1 53.4618Z" fill="#212529"/>
<path d="M211.84 63.7665C211.574 64.0446 211.315 64.4214 210.907 64.4708C210.483 64.4739 210.063 64.392 209.671 64.2299C209.664 64.2233 209.654 64.22 209.644 64.2206C209.635 64.2211 209.625 64.2256 209.619 64.233C209.612 64.2404 209.609 64.25 209.609 64.2599C209.61 64.2697 209.614 64.2789 209.622 64.2855C209.793 64.5035 210.02 64.6714 210.279 64.7714C210.538 64.8714 210.819 64.8999 211.092 64.8539C211.32 64.7825 211.523 64.6465 211.675 64.4622C211.828 64.278 211.924 64.0535 211.951 63.816C211.954 63.8019 211.953 63.787 211.947 63.7739C211.94 63.7609 211.929 63.7505 211.916 63.7446C211.903 63.7387 211.888 63.7376 211.874 63.7417C211.86 63.7457 211.848 63.7545 211.84 63.7665Z" fill="#212529"/>
<path d="M207.188 59.5471C207.188 59.5471 206.916 61.2461 206.904 62.0492C206.904 62.1233 207.096 62.1604 207.367 62.1851C207.367 62.1851 207.367 62.1851 207.398 62.1851C208.08 62.32 208.786 62.2657 209.439 62.0284C210.093 61.791 210.669 61.3795 211.105 60.8383C211.161 60.7642 211.062 60.6777 210.988 60.7271C209.95 61.4033 208.722 61.7282 207.485 61.6538C207.435 61.4252 208.047 58.7625 207.917 58.7502C207.285 58.7894 206.661 58.9162 206.064 59.127C206.527 55.5747 207.553 52.1274 207.954 48.5874C207.954 48.4639 207.788 48.4206 207.751 48.5318C206.416 52.0656 205.798 56.1431 205.224 59.7942C205.174 60.2576 206.842 59.683 207.188 59.5471Z" fill="#212529"/>
<path d="M207.879 61.7648C208.274 62.3704 208.819 62.864 209.46 63.1981C209.814 63.3666 210.211 63.4227 210.597 63.3587C211.444 63.2043 211.524 62.4444 211.425 61.7834C211.365 61.4315 211.265 61.0875 211.129 60.7578C210.181 61.4317 209.042 61.7846 207.879 61.7648Z" fill="#212529"/>
<path d="M209.461 63.198C209.815 63.3665 210.211 63.4225 210.598 63.3586C211.444 63.2041 211.524 62.4442 211.426 61.7832C210.987 61.7636 210.554 61.8925 210.197 62.1493C209.841 62.406 209.581 62.7755 209.461 63.198Z" fill="#FF98B9"/>
<path d="M229.035 54.6479C227.213 54.7035 222.042 50.1566 221.103 41.4209C221.103 41.4209 222.493 49.2051 223.185 50.2986C223.877 51.3921 220.294 47.7348 219.435 40.7043C219.435 40.7043 215.79 43.8797 212.54 45.1153C209.291 46.3509 207.258 46.5116 206.98 46.2892C206.702 46.0667 211.478 44.0774 212.664 42.4341C212.664 42.4341 204.181 47.3765 200.129 48.0437C199.659 48.1178 200.45 40.8217 206.387 36.1264C212.324 31.4312 220.485 32.605 223.413 34.9526C223.413 34.9526 226.614 35.1194 230.469 39.4749C234.324 43.8303 230.994 54.5861 229.035 54.6479Z" fill="#212529"/>
<path d="M226.63 57.3171C226.63 57.3171 230.022 51.9237 232.45 53.1099C234.878 54.2961 232.511 61.9876 229.787 63.1553C229.448 63.3305 229.077 63.4352 228.696 63.4629C228.316 63.4907 227.933 63.441 227.572 63.3169C227.211 63.1927 226.879 62.9967 226.596 62.7406C226.313 62.4845 226.085 62.1737 225.926 61.827L226.63 57.3171Z" fill="#FFCFC0"/>
<path d="M231.715 55.3154C231.764 55.3154 231.77 55.371 231.715 55.3896C229.806 56.273 228.873 58.1326 228.243 60.0416C228.792 59.2879 229.559 58.8554 230.559 59.4979C230.609 59.5288 230.559 59.6153 230.51 59.6029C230.166 59.5189 229.805 59.5412 229.474 59.667C229.143 59.7927 228.858 60.016 228.657 60.3072C228.323 60.8066 228.042 61.3386 227.816 61.895C227.736 62.0741 227.415 62 227.477 61.7961C227.474 61.7797 227.474 61.763 227.477 61.7467C227.304 59.2508 229.064 55.6799 231.715 55.3154Z" fill="#212529"/>
<path d="M236.935 84.7041C243.78 92.6057 262.969 121.21 258.521 128.938C254.252 136.352 244.571 138.44 238.999 128.481C234.989 121.358 228.249 100.106 226.575 89.9122C225.216 81.6584 230.609 77.3956 236.935 84.7041Z" fill="#FFCFC0"/>
<path d="M230.543 110.027L253.228 101.693C253.228 101.693 240.495 84.2653 234.632 80.9477C228.77 77.6302 223.889 79.6318 225.681 91.0054C226.645 97.496 228.274 103.87 230.543 110.027Z" fill="#607FE1"/>
<path d="M249.197 98.4557C247.962 98.8573 246.726 99.1785 245.491 99.5986C244.255 100.019 243.069 100.445 241.87 100.896C239.442 101.798 237.021 102.7 234.617 103.67C233.271 104.214 231.924 104.8 230.608 105.418C230.546 105.418 230.571 105.548 230.608 105.529C235.55 104.109 240.344 102.218 245.114 100.334C246.498 99.784 247.826 99.0982 249.191 98.5484C249.284 98.5237 249.241 98.4372 249.197 98.4557Z" fill="#212529"/>
<path d="M231.821 109.496C231.371 109.595 230.931 109.732 230.505 109.904C229.887 108.563 228.423 102.669 228.083 101.156C227.403 98.141 226.847 95.0952 226.137 92.0804C226.137 91.9939 225.97 92.0186 225.982 92.0804C226.192 93.7546 226.452 95.4227 226.742 97.0784C226.433 96.2876 226.124 95.4906 225.884 94.6813C225.886 94.6757 225.887 94.6695 225.887 94.6634C225.886 94.6572 225.884 94.6513 225.881 94.6462C225.877 94.641 225.873 94.6368 225.867 94.6339C225.862 94.631 225.856 94.6294 225.85 94.6294C225.843 94.6294 225.837 94.631 225.832 94.6339C225.827 94.6368 225.822 94.641 225.819 94.6462C225.815 94.6513 225.813 94.6572 225.813 94.6634C225.812 94.6695 225.813 94.6757 225.816 94.6813C226.096 95.6866 226.441 96.673 226.847 97.6344C227.088 100.723 229.899 110.54 229.98 110.503C230.615 110.215 231.234 109.891 231.833 109.533C231.901 109.552 231.901 109.49 231.821 109.496Z" fill="#212529"/>
<path d="M220.601 51.3427L214.145 78.9026C213.867 79.7119 214.281 80.3606 215.072 80.3482L227.397 82.8565C227.829 82.8169 228.24 82.6554 228.584 82.3907C228.927 82.1259 229.188 81.769 229.337 81.3614L235.793 53.8015C236.071 52.9922 235.657 52.3435 234.866 52.3621L222.541 49.8477C222.109 49.8872 221.697 50.0487 221.354 50.3135C221.01 50.5782 220.749 50.9352 220.601 51.3427Z" fill="#AFB0B2"/>
<path d="M221.657 51.497L215.219 79.0569C214.941 79.8662 215.355 80.5149 216.146 80.5025L228.471 83.0108C228.902 82.9718 229.313 82.8111 229.657 82.5475C230 82.284 230.262 81.9283 230.411 81.5219L236.842 53.962C237.12 53.1465 236.706 52.504 235.915 52.5164L223.597 50.002C223.165 50.0436 222.755 50.206 222.412 50.4704C222.069 50.7349 221.807 51.0907 221.657 51.497Z" fill="#ECECEC"/>
<path d="M225.561 52.6838C225.567 52.9309 225.499 53.1742 225.365 53.3822C225.231 53.5902 225.038 53.7533 224.811 53.8504C224.583 53.9475 224.332 53.9742 224.089 53.927C223.847 53.8797 223.624 53.7608 223.449 53.5856C223.275 53.4103 223.157 53.1867 223.111 52.9438C223.065 52.7009 223.093 52.4498 223.192 52.2229C223.29 51.9961 223.454 51.8039 223.663 51.6713C223.871 51.5387 224.115 51.4717 224.362 51.4791C224.681 51.4807 224.985 51.6083 225.21 51.8341C225.435 52.0598 225.561 52.3653 225.561 52.6838Z" fill="#212529"/>
<path d="M242.292 130.977C246.302 138.39 256.915 134.165 258.522 128.938C262.29 116.675 259.955 96.2877 257.706 84.9017C256.983 81.2382 232.098 84.9017 232.247 88.8618C232.42 93.6497 234.434 116.397 242.292 130.977Z" fill="#FFCFC0"/>
<path d="M257.427 90.3441C258.68 84.9417 258.756 79.3327 257.649 73.8984C256.339 67.9737 252.058 55.4078 234.846 49.8044C230.763 48.4699 223.998 49.4646 229.904 54.061C234.08 57.3291 237.713 58.1384 239.789 60.486C239.789 60.486 231.337 62.7719 230.163 66.9111C229.136 70.5342 228.366 74.2255 227.859 77.9573C228.521 78.2054 229.198 78.4117 229.885 78.5751C229.522 82.179 230.361 85.8018 232.27 88.8799L257.427 90.3441Z" fill="#FFCFC0"/>
<path d="M255.495 68.4438C252.938 66.5904 247.464 62.6488 241.848 61.0302C235.621 59.1768 223.148 57.3852 221.85 61.9878C220.899 65.3671 225.6 66.4854 225.6 66.4854C225.6 66.4854 220.287 66.819 220.096 70.0562C219.923 73.0093 223.611 73.658 223.611 73.658C223.611 73.658 220.423 74.4117 220.8 77.2906C221.257 80.7441 227.874 78.5941 231.364 81.6955C232.149 82.375 255.495 68.4438 255.495 68.4438Z" fill="#FFCFC0"/>
<path d="M241.018 67.9059C238.325 66.522 231.393 64.959 225.697 66.3737C225.567 66.3737 225.524 66.5158 225.648 66.5158C230.807 66.3766 235.964 66.862 241.006 67.9615C241.037 67.9738 241.049 67.9182 241.018 67.9059Z" fill="#212529"/>
<path d="M239.004 74.133C236.533 73.1816 229.336 71.8842 223.615 73.5152C223.485 73.5522 223.448 73.6696 223.572 73.6634C228.724 73.2519 233.905 73.4302 239.017 74.1947C239.025 74.1931 239.032 74.1883 239.037 74.1813C239.041 74.1744 239.043 74.1659 239.041 74.1577C239.04 74.1495 239.035 74.1423 239.028 74.1376C239.021 74.133 239.013 74.1313 239.004 74.133Z" fill="#212529"/>
<path d="M240.017 125.812C239.832 125.194 239.652 124.576 239.455 124.014C239.047 122.779 238.695 121.543 238.336 120.307C237.607 117.836 236.909 115.328 236.298 112.807C235.077 107.783 234.151 102.692 233.524 97.5603C233.351 96.1393 233.203 94.7184 233.048 93.2975C232.894 91.8765 232.844 90.4 232.572 88.9729C232.572 88.8988 231.85 87.8114 231.565 87.274C231.27 86.7148 231.013 86.137 230.793 85.5441C230.331 84.3344 230.018 83.0731 229.86 81.7879C229.857 81.7799 229.852 81.773 229.844 81.7682C229.837 81.7633 229.829 81.7607 229.82 81.7607C229.812 81.7607 229.803 81.7633 229.796 81.7682C229.789 81.773 229.783 81.7799 229.78 81.7879C229.7 83.2504 229.884 84.7154 230.324 86.1125C230.704 87.2812 231.361 88.3408 232.239 89.2015C232.239 89.3868 232.282 91.6727 232.356 92.9515C232.43 94.2303 232.548 95.5092 232.69 96.7818C232.98 99.3395 233.338 101.891 233.789 104.43C234.671 109.566 235.897 114.638 237.459 119.609C237.459 119.69 237.515 119.77 237.54 119.85C237.54 120.036 237.54 120.221 237.54 120.406C237.549 120.863 237.586 121.319 237.651 121.772C237.777 122.672 237.999 123.556 238.312 124.41C238.309 124.417 238.308 124.425 238.309 124.433C238.31 124.441 238.313 124.449 238.318 124.455C238.322 124.462 238.328 124.467 238.335 124.471C238.342 124.474 238.35 124.476 238.358 124.476C238.366 124.476 238.374 124.474 238.381 124.471C238.388 124.467 238.394 124.462 238.399 124.455C238.403 124.449 238.406 124.441 238.407 124.433C238.408 124.425 238.407 124.417 238.404 124.41C238.185 123.517 238.036 122.608 237.96 121.691L237.848 120.752C238.188 121.753 238.547 122.754 238.899 123.749C239.146 124.441 239.399 125.114 239.683 125.787C239.967 126.461 240.19 127.116 240.523 127.74C240.523 127.789 240.622 127.74 240.61 127.702C240.456 127.041 240.208 126.436 240.017 125.812Z" fill="#212529"/>
<path d="M163.003 147.725V131.119L144.129 147.725H163.003Z" fill="#F8F8F8"/>
<path d="M60.5149 149.901C66.1798 174.55 77.8958 204.097 82.8976 208.893C89.2255 214.957 131.088 226.081 133.173 226.306C138.323 226.828 148.707 189.613 143.196 188.809C134.828 187.598 104.34 185.944 102.519 184.071C100.697 182.198 87.7578 165.885 74.5355 147.558C65.4073 134.896 56.9936 134.606 60.5149 149.901Z" fill="#FFCFC0"/>
<path d="M129.027 224.298C129.639 224.607 138.387 229.01 143.795 230.574C147.831 231.746 159.534 234.803 161.266 230.484C162.45 227.549 155.775 224.941 151.101 222.991C148.636 221.961 145.597 219.386 146.325 217.802C147.612 215.034 153.94 217.802 158.111 220.236C166.177 224.922 176.921 233.361 181.846 229.248C183.706 227.703 181.543 224.883 178.383 222.122C183.533 225.341 188.992 227.98 191.122 226.345C192.352 225.411 192.41 224.13 191.727 222.675C193.311 223.19 194.708 223.087 195.686 222.032C197.354 220.281 196.543 217.706 194.714 215.06C195.028 215.028 195.33 214.921 195.594 214.748C195.858 214.576 196.077 214.343 196.234 214.069C199.768 208.681 182.071 193.212 175.962 191.763C157.97 187.482 139.005 188.281 139.005 188.281C131.937 193.952 129.008 224.285 129.027 224.298Z" fill="#FFCFC0"/>
<path d="M155.488 207.734C159.772 208.403 163.865 209.976 167.494 212.349C172.058 215.362 175.083 218.89 178.907 222.437C178.922 222.457 178.93 222.482 178.929 222.507C178.928 222.532 178.919 222.556 178.902 222.575C178.885 222.594 178.863 222.607 178.838 222.611C178.813 222.615 178.787 222.61 178.766 222.598C176.944 220.911 169.386 214.564 167.436 213.122C163.908 210.467 159.822 208.649 155.488 207.805C155.43 207.798 155.443 207.721 155.488 207.734Z" fill="#263238"/>
<path d="M158.842 200.094C163.573 201.382 168.42 202.669 172.811 204.935C177.613 207.381 181.372 211.372 185.042 215.235C187.265 217.539 189.434 219.9 191.55 222.316C191.634 222.419 191.498 222.58 191.408 222.477C187.657 218.511 183.795 214.649 179.821 210.89C176.143 207.398 171.811 204.668 167.075 202.856C164.371 201.819 161.59 201.002 158.809 200.178C158.771 200.165 158.79 200.081 158.842 200.094Z" fill="#263238"/>
<path d="M163.894 193.418C168.49 194.364 172.501 195.169 176.569 197.628C181.957 200.891 187.159 206.383 188.98 208.333C190.995 210.483 192.939 212.698 194.845 214.944C194.922 215.034 194.768 215.176 194.684 215.086C190.317 210.16 185.636 205.522 180.67 201.2C178.334 199.108 175.689 197.389 172.829 196.102C169.93 194.964 166.938 194.077 163.888 193.45C163.888 193.45 163.855 193.411 163.894 193.418Z" fill="#263238"/>
<path d="M136.11 186.801L123.235 227.588C123.235 227.588 88.3769 217.636 82.0361 210.767C75.6953 203.899 63.9085 168.429 60.4516 151.234C56.9948 134.04 65.6852 134.497 73.674 145.306C81.6628 156.114 101.554 182.417 102.642 182.99C103.73 183.563 136.11 186.801 136.11 186.801Z" fill="#607FE1"/>
<path opacity="0.1" d="M136.11 186.801L123.235 227.588C123.235 227.588 88.3769 217.636 82.0361 210.767C75.6953 203.899 63.9085 168.429 60.4516 151.234C56.9948 134.04 65.6852 134.497 73.674 145.306C81.6628 156.114 101.554 182.417 102.642 182.99C103.73 183.563 136.11 186.801 136.11 186.801Z" fill="black"/>
<path d="M119.889 209.466C121.454 204.658 123.05 199.862 124.428 194.995C125.213 192.233 126.011 189.465 126.771 186.697C126.803 186.588 126.629 186.53 126.591 186.633C124.833 191.397 123.082 196.18 121.544 201.02C120.005 205.861 118.441 210.676 116.973 215.485C116.143 218.24 115.39 221.008 114.727 223.809C114.727 223.86 114.804 223.892 114.823 223.841C116.741 219.135 118.319 214.307 119.889 209.466Z" fill="#263238"/>
<path d="M105.652 221.98L104.107 221.44C101.204 220.403 98.2428 219.29 95.4554 218.15C95.0949 218.009 94.7409 217.86 94.3932 217.712C93.8332 217.481 93.2731 217.243 92.7324 217.004L91.9213 216.65L91.6316 216.522L90.7947 216.135C89.6875 215.627 88.6382 215.118 87.6598 214.603L87.016 214.243C85.4865 213.456 84.045 212.509 82.7159 211.417C82.5935 211.307 82.4712 211.198 82.3618 211.088C82.2524 210.979 82.1365 210.87 82.0399 210.767C75.6669 203.898 63.9123 168.428 60.4554 151.234L60.3396 150.641V150.513C60.1078 149.225 59.9018 147.59 59.7344 145.839C59.2516 137.284 63.3008 135.887 68.3026 139.646C80.7718 166.407 99.8714 210.625 105.652 221.98Z" fill="#263238"/>
<path d="M87.5703 228.829L11.6094 229.228C11.6737 227.593 22.4885 179.764 31.0889 162.112C42.1161 139.479 47.826 137.65 51.1927 136.44C55.538 134.882 63.2757 135.655 65.1103 136.524C67.196 137.496 73.8265 149.07 76.2019 157.561C80.9527 174.639 88.6389 227.786 87.5703 228.829Z" fill="#EBEBEB"/>
<path d="M47.305 138.23C47.305 138.23 56.961 173.99 57.4438 176.365C58.1713 179.816 62.9864 229.049 62.9864 229.049L10.0391 229.229C10.0391 229.229 21.5941 183.653 30.1945 163.697C39.5801 141.81 47.305 138.23 47.305 138.23Z" fill="#607FE1"/>
<g opacity="0.1">
<path opacity="0.1" d="M47.305 138.229C47.305 138.229 56.961 173.989 57.4438 176.364C58.1713 179.815 62.9864 229.048 62.9864 229.048L10.0391 229.228C10.0391 229.228 21.5941 183.652 30.1945 163.696C39.5801 141.809 47.305 138.229 47.305 138.229Z" fill="black"/>
</g>
<path d="M65.8086 137.078C66.0918 138.218 74.9947 167.269 75.6127 174.511C76.3015 182.545 82.3913 229.229 82.3913 229.229H90.1161C90.1161 229.229 78.9344 162.158 75.8638 155.071C69.5809 140.606 65.8086 137.078 65.8086 137.078Z" fill="#607FE1"/>
<path opacity="0.1" d="M65.8086 137.078C66.0918 138.218 74.9947 167.269 75.6127 174.511C76.3015 182.545 82.3913 229.229 82.3913 229.229H90.1161C90.1161 229.229 78.9344 162.158 75.8638 155.071C69.5809 140.606 65.8086 137.078 65.8086 137.078Z" fill="black"/>
<path d="M37.3043 146.592C24.5841 160.22 -6.34106 211.925 3.46949 221.356C13.28 230.787 67.7466 218.092 83.0418 210.799C87.593 208.636 70.3022 180.26 64.9528 179.597C60.4981 179.05 37.7356 189.459 37.0725 188.152C36.3322 186.671 39.95 175.747 45.4411 155.965C51.7433 133.164 42.9305 140.567 37.3043 146.592Z" fill="#FFCFC0"/>
<path d="M87.5586 170.442C98.618 168.897 101.721 170.204 110.34 163.947C116.012 159.84 121.072 161.7 117.834 168.221C112.542 178.895 98.6888 183.877 93.3715 184.225L87.5586 170.442Z" fill="#FFCFC0"/>
<path d="M58.1797 181.077C58.1797 181.077 70.6103 174.176 82.2361 171.369C90.27 169.438 108.23 167.152 125.418 184.887C129.493 189.091 132.319 197.975 123.171 193.526C116.67 190.366 113.515 186.4 109.389 185.248C109.389 185.248 111.642 196.97 107.271 200.891C103.451 204.317 99.3915 207.466 95.1237 210.315C94.422 209.655 93.764 208.949 93.1539 208.204C93.1539 208.204 88.725 211.48 80.395 210.682L58.1797 181.077Z" fill="#FFCFC0"/>
<path d="M90.203 170.777C94.0654 172.779 102.119 177.163 107.474 183.047C113.429 189.587 123.13 203.775 118.257 208.153C114.691 211.339 110.532 206.221 110.532 206.221C110.532 206.221 113.307 212.936 109.451 215.105C105.942 217.088 102.943 212.955 102.943 212.955C102.943 212.955 103.927 217.313 100.174 218.568C95.6683 220.075 94.3422 210.689 88.452 208.269C87.1066 207.689 90.203 170.777 90.203 170.777Z" fill="#FFCFC0"/>
<path d="M99.5275 188.158C102.83 190.637 108.894 198.188 110.568 206.009C110.606 206.189 110.497 206.312 110.426 206.157C107.518 199.756 103.843 193.731 99.4824 188.216C99.4309 188.158 99.4824 188.158 99.5275 188.158Z" fill="#263238"/>
<path d="M93.1047 194.357C95.7376 196.79 101.641 204.85 103.063 212.838C103.096 213.019 102.973 213.134 102.915 212.974C100.338 206.432 97.027 200.204 93.0468 194.408C93.0082 194.37 93.0468 194.325 93.1047 194.357Z" fill="#263238"/>
<path d="M109.389 185.172C112.994 186.234 115.337 188.004 118.401 190.116C119.893 191.182 121.442 192.164 123.043 193.058C124.511 193.85 126.68 195.047 128.238 193.805C129.113 193.116 129.1 191.873 128.881 190.863C128.441 189.4 127.772 188.016 126.899 186.762C126.899 186.711 126.944 186.653 126.982 186.698C127.826 187.84 128.55 189.065 129.145 190.354C129.535 191.238 129.65 192.218 129.474 193.167C128.939 195.15 126.596 195.414 124.968 194.867C123.981 194.504 123.032 194.045 122.135 193.496C121.26 192.993 120.41 192.453 119.56 191.886C117.848 190.727 116.206 189.472 114.507 188.294C112.856 187.186 111.136 186.184 109.357 185.294C109.343 185.288 109.333 185.277 109.326 185.263C109.32 185.25 109.319 185.234 109.322 185.22C109.326 185.205 109.335 185.193 109.347 185.184C109.359 185.175 109.374 185.171 109.389 185.172Z" fill="#263238"/>
<path d="M116.938 197.853C116.005 195.8 110.951 187.238 109.316 185.255C109.31 185.245 109.308 185.234 109.309 185.222C109.31 185.211 109.315 185.2 109.324 185.192C109.332 185.184 109.343 185.178 109.354 185.177C109.366 185.176 109.377 185.178 109.387 185.184C112.2 187.849 116.713 194.924 117.756 197.19C118.798 199.456 119.996 202.295 119.996 204.786C119.996 208.552 117.498 209.292 116.578 209.453C115.476 209.653 114.339 209.466 113.359 208.925C112.212 208.225 111.222 207.296 110.449 206.196C110.411 206.144 110.481 206.074 110.526 206.125C111.814 207.612 114.003 209.073 116.043 208.803C116.496 208.76 116.935 208.627 117.336 208.412C117.736 208.196 118.089 207.902 118.374 207.548C118.931 206.642 119.146 205.566 118.979 204.516C118.678 202.196 117.988 199.944 116.938 197.853Z" fill="#263238"/>
<path d="M58.1805 181.077L75.6129 217.77C75.6129 217.77 7.42831 233.078 1.54455 221.208C-4.3392 209.337 22.1441 162.885 34.0726 149.354C47.9065 133.673 49.6703 139.009 46.6254 152.908C43.4067 167.456 37.2719 188.493 37.2719 188.493L58.1805 181.077Z" fill="#607FE1"/>
<path opacity="0.1" d="M58.1805 181.077L75.6129 217.77C75.6129 217.77 7.42831 233.078 1.54455 221.208C-4.3392 209.337 22.1441 162.885 34.0726 149.354C47.9065 133.673 49.6703 139.009 46.6254 152.908C43.4067 167.456 37.2719 188.493 37.2719 188.493L58.1805 181.077Z" fill="black"/>
<path d="M16.551 198.259C22.8402 193.891 29.7464 190.487 37.0411 188.159C39.1075 187.515 41.1932 186.903 43.2789 186.305C43.3433 186.305 43.369 186.388 43.2789 186.408C39.6412 187.585 36.0752 188.973 32.5993 190.566C29.1274 192.111 25.6942 193.718 22.2995 195.388C20.3683 196.334 18.4886 197.371 16.596 198.381C16.5833 198.378 16.5715 198.373 16.5617 198.364C16.5519 198.355 16.5444 198.345 16.5399 198.332C16.5354 198.32 16.5341 198.307 16.536 198.294C16.5379 198.281 16.5431 198.269 16.551 198.259Z" fill="#263238"/>
<path d="M58.0006 180.98C57.6595 181.07 39.0104 187.23 38.3989 187.514C38.4761 187.23 41.8235 177.317 42.3257 175.862C42.3707 175.72 42.4158 175.572 42.4673 175.431C42.802 174.787 43.1496 174.143 43.4651 173.5C43.8642 172.656 44.2633 171.8 44.656 170.925H44.6174L43.3299 173.416C43.1303 173.796 42.9436 174.188 42.757 174.581C43.0853 173.558 43.4007 172.528 43.7161 171.491C44.2182 169.85 44.6689 168.189 45.113 166.528C45.113 166.47 45.0487 166.457 45.0294 166.528C44.038 169.418 42.9565 172.276 41.9587 175.167C40.9609 178.057 37.1243 188.685 37.1565 188.685C37.1886 188.685 57.6917 181.437 58.0908 181.276C58.1102 181.27 58.1283 181.26 58.144 181.247C58.1597 181.234 58.1727 181.219 58.1823 181.201C58.1918 181.183 58.1978 181.163 58.1997 181.143C58.2017 181.123 58.1997 181.102 58.1938 181.083C58.1879 181.063 58.1782 181.045 58.1653 181.03C58.1523 181.014 58.1365 181.001 58.1185 180.991C58.1006 180.982 58.081 180.976 58.0607 180.974C58.0405 180.972 58.0201 180.974 58.0006 180.98Z" fill="#263238"/>
<path d="M59.2582 204.896C57.327 200.808 55.4537 196.694 53.3873 192.665C52.2093 190.379 51.0441 188.088 49.8468 185.815C49.8017 185.732 49.6472 185.815 49.6858 185.886C51.4497 190.07 53.2264 194.255 55.1833 198.368C57.1403 202.482 59.0458 206.544 61.0349 210.599C62.1679 212.904 63.3717 215.172 64.6463 217.403C64.6463 217.448 64.7493 217.403 64.73 217.403C63.1077 213.142 61.1958 209.028 59.2582 204.896Z" fill="#263238"/>
<path d="M76.496 218.338C75.8136 217.205 74.951 215.583 74.2236 214.475C74.0304 214.186 73.8051 214.244 73.9596 214.546C74.4811 215.576 74.9124 216.728 75.4209 217.765C74.4682 217.958 73.4897 218.125 72.5499 218.325C71.4426 218.557 70.3418 218.795 69.2346 219.02C67.0631 219.449 64.8915 219.879 62.72 220.308C58.3168 221.127 53.8965 221.848 49.459 222.471C40.5692 223.772 31.6178 224.613 22.6409 224.988C20.1304 225.078 17.6134 225.123 15.1028 225.091C12.6263 225.097 10.1511 224.977 7.68694 224.73C7.61613 224.73 7.60326 224.84 7.68694 224.852C9.80734 225.301 11.9598 225.58 14.1243 225.689C16.3967 225.799 18.6755 225.85 20.9544 225.825C25.4605 225.773 30.0117 225.477 34.5243 225.065C43.4723 224.241 52.3945 223.031 61.2394 221.466C63.7199 221.037 66.194 220.572 68.6617 220.07C69.9105 219.818 71.1529 219.567 72.3954 219.291C73.6378 219.014 76.6118 218.531 76.496 218.338Z" fill="#263238"/>
<path d="M65.8241 150.424C61.318 151.666 53.2519 145.003 49.956 139.48C49.7307 139.1 50.1749 135.006 50.4774 130.004C50.6513 126.972 50.7671 123.567 50.6513 120.49C50.6513 119.846 70.2402 124.494 70.2402 124.494C70.2402 124.494 68.5664 131.047 68.7982 136.442C68.8187 136.875 68.879 137.306 68.9784 137.729C68.9962 137.797 69.0091 137.866 69.0171 137.935C69.4999 140.323 70.1822 149.22 65.8241 150.424Z" fill="#FFCFC0"/>
<path d="M51.8438 120.566C52.9381 125.768 56.6589 138.288 67.0231 138.14C67.6877 138.134 68.3508 138.074 69.0058 137.96C69.0139 137.89 69.0139 137.818 69.0058 137.748C68.9102 137.324 68.8478 136.894 68.8191 136.46C68.5938 131.059 70.2611 124.5 70.2611 124.5C70.2611 124.5 56.086 121.152 51.8438 120.566Z" fill="#263238"/>
<path d="M72.5731 111.2C72.3542 115.951 75.56 119.955 79.7314 120.148C83.9028 120.342 87.4563 116.634 87.6687 111.883C87.8811 107.132 84.6753 103.128 80.5103 102.941C76.3454 102.755 72.7855 106.45 72.5731 111.2Z" fill="#455A64"/>
<path d="M86.902 112.145C87.141 106.86 83.5746 102.406 78.9362 102.196C74.2978 101.986 70.3438 106.1 70.1047 111.385C69.8657 116.67 73.4321 121.124 78.0705 121.334C82.7089 121.544 86.6629 117.43 86.902 112.145Z" fill="#C7C7C7"/>
<path d="M53.2031 95.84C49.8299 102.2 49.6174 122.42 53.5829 127.711C59.3314 135.372 70.629 138.185 77.5942 130.866C84.3728 123.746 84.1797 97.3914 79.577 92.3896C72.8113 85.0059 58.1856 86.4479 53.2031 95.84Z" fill="#FFCFC0"/>
<path d="M70.0186 111.47C70.0186 111.419 69.9092 111.541 69.9156 111.599C69.9865 112.957 69.8448 114.528 68.6282 115.004C68.5895 115.004 68.596 115.088 68.6282 115.082C70.1345 114.837 70.3019 112.751 70.0186 111.47Z" fill="#263238"/>
<path d="M68.7712 110.079C66.5761 109.964 66.5053 114.36 68.533 114.463C70.5608 114.566 70.6123 110.176 68.7712 110.079Z" fill="#263238"/>
<path d="M77.6426 111.637C77.6426 111.586 77.7456 111.708 77.7456 111.76C77.6812 113.124 77.8357 114.695 79.0331 115.165C79.0717 115.165 79.0331 115.249 79.0331 115.242C77.546 115.004 77.3594 112.918 77.6426 111.637Z" fill="#263238"/>
<path d="M78.8856 110.267C81.0743 110.132 81.1773 114.528 79.1431 114.651C77.1089 114.773 77.0445 110.344 78.8856 110.267Z" fill="#263238"/>
<path d="M66.8039 106.565C67.4476 106.532 67.9819 106.397 68.5935 106.307C69.2386 106.295 69.8614 106.068 70.3638 105.663C70.4985 105.508 70.5779 105.313 70.5896 105.108C70.6012 104.903 70.5444 104.7 70.4281 104.53C70.1466 104.234 69.7913 104.018 69.3986 103.905C69.006 103.792 68.5903 103.786 68.1944 103.887C67.3555 103.953 66.5721 104.332 65.9992 104.949C65.8792 105.097 65.8043 105.276 65.7833 105.465C65.7624 105.654 65.7964 105.845 65.8813 106.016C65.9662 106.186 66.0983 106.329 66.2619 106.426C66.4255 106.523 66.6136 106.571 66.8039 106.565Z" fill="#263238"/>
<path d="M80.9495 107.047C80.3618 106.917 79.7815 106.756 79.2114 106.564C78.5781 106.487 77.9877 106.205 77.5312 105.759C77.4158 105.589 77.3601 105.386 77.3729 105.181C77.3857 104.975 77.4663 104.78 77.602 104.626C77.9169 104.362 78.2962 104.187 78.7012 104.118C79.1061 104.049 79.5221 104.089 79.9066 104.233C80.7298 104.406 81.4593 104.879 81.9537 105.56C82.05 105.721 82.0984 105.907 82.093 106.095C82.0877 106.283 82.029 106.466 81.9236 106.622C81.8183 106.778 81.6708 106.901 81.4983 106.976C81.3258 107.051 81.1354 107.076 80.9495 107.047Z" fill="#263238"/>
<path d="M67.5321 124.093C67.854 124.415 68.1758 124.859 68.6651 124.911C69.1713 124.906 69.6711 124.797 70.1328 124.589C70.142 124.587 70.1516 124.588 70.1605 124.591C70.1695 124.594 70.1773 124.6 70.1833 124.607C70.1893 124.614 70.1932 124.623 70.1945 124.632C70.1958 124.642 70.1945 124.651 70.1907 124.66C69.9933 124.926 69.7272 125.133 69.4209 125.259C69.1147 125.384 68.7799 125.425 68.4526 125.374C68.1759 125.297 67.9281 125.14 67.7404 124.922C67.5526 124.705 67.4331 124.436 67.3969 124.151C67.3776 124.074 67.4806 124.042 67.5321 124.093Z" fill="#263238"/>
<path d="M69.0328 120.038C69.369 120.583 69.8142 121.051 70.3405 121.414C70.8668 121.778 71.4627 122.028 72.0906 122.15C72.6381 122.267 73.1997 122.304 73.7579 122.259C73.8657 122.255 73.9732 122.245 74.0797 122.227L74.3759 122.182C74.4488 122.17 74.5158 122.135 74.5669 122.081C74.618 122.028 74.6503 121.959 74.6591 121.886C74.6623 121.839 74.6623 121.791 74.6591 121.744V121.622C74.7042 120.573 74.6591 118.976 74.6591 118.976C75.0389 119.176 76.983 120.09 76.9572 119.543C76.7641 114.998 76.5452 109.951 75.393 105.477C75.3865 105.449 75.3705 105.423 75.3477 105.405C75.3249 105.387 75.2966 105.377 75.2674 105.377C75.2383 105.377 75.2099 105.387 75.1871 105.405C75.1643 105.423 75.1484 105.449 75.1419 105.477C75.1419 109.848 75.9401 114.187 76.0238 118.577C75.3345 118.244 74.6022 118.008 73.848 117.875C73.6999 117.921 74.0475 120.959 73.9896 121.429C73.9911 121.446 73.9911 121.463 73.9896 121.48C72.2193 121.674 70.8997 121.12 69.2131 119.91C69.0586 119.839 68.9492 119.923 69.0328 120.038Z" fill="#263238"/>
<path d="M73.1451 121.712C72.5597 122.453 71.7923 123.03 70.9177 123.386C70.435 123.565 69.9088 123.589 69.4114 123.457C68.3299 123.148 68.317 122.169 68.5295 121.3C68.6481 120.853 68.8188 120.421 69.038 120.013C70.1911 121.002 71.63 121.598 73.1451 121.712Z" fill="#263238"/>
<path d="M70.9177 123.386C70.435 123.565 69.9088 123.59 69.4114 123.457C68.3299 123.148 68.317 122.17 68.5295 121.301C69.6946 121.442 70.834 122.254 70.9177 123.386Z" fill="#FF98B9"/>
<path opacity="0.2" d="M50.6719 110.118C51.998 109.906 55.178 105.419 56.5234 103.636C57.8689 101.853 58.6478 92.293 58.7701 90.1172C56.4093 91.4522 54.4761 93.4301 53.1953 95.8207C51.689 98.6789 50.8199 104.299 50.6719 110.118Z" fill="#263238"/>
<path d="M75.2187 98.0346C74.4326 98.8968 73.4393 99.5439 72.333 99.9146C71.2267 100.285 70.044 100.367 68.8972 100.152C67.7268 99.9371 66.631 99.426 65.7139 98.6677C64.7967 97.9094 64.0887 96.9292 63.6572 95.8201C63.6572 95.7493 63.5284 95.788 63.5542 95.8523C63.9022 97.0604 64.5737 98.1504 65.4961 99.0047C66.4184 99.859 67.5566 100.445 68.7878 100.7C70.011 100.884 71.2613 100.744 72.4128 100.292C73.5644 99.8396 74.5765 99.0922 75.3474 98.1247C75.3518 98.1081 75.351 98.0906 75.3452 98.0745C75.3393 98.0584 75.3286 98.0445 75.3146 98.0347C75.3005 98.0248 75.2838 98.0196 75.2666 98.0196C75.2495 98.0195 75.2328 98.0248 75.2187 98.0346Z" fill="#263238"/>
<path d="M68.6747 80.899C64.7028 80.8603 60.9949 82.9396 59.4564 85.5918C58.6018 87.1032 58.2842 88.8594 58.5551 90.5743C58.5551 90.6451 58.7032 90.6323 58.6968 90.5743C58.6634 89.0629 59.0372 87.5704 59.7791 86.2532C60.5209 84.936 61.6035 83.8426 62.9132 83.0877C64.3473 82.2088 65.9658 81.6746 67.6413 81.5272C69.3168 81.3797 71.0037 81.623 72.5693 82.2379C74.0952 82.8026 75.3691 83.8939 76.1613 85.315C76.2386 85.4631 76.5347 85.3794 76.4768 85.2313C75.4725 82.7079 72.2603 80.9312 68.6747 80.899Z" fill="#263238"/>
<path d="M91.4383 90.2264C90.8495 88.2483 89.5822 86.5411 87.8592 85.4049C85.4709 83.8213 82.7093 83.9564 79.9798 84.1496C79.9644 84.1496 79.9497 84.1557 79.9388 84.1665C79.928 84.1774 79.9219 84.1921 79.9219 84.2075C79.9219 84.2229 79.928 84.2376 79.9388 84.2485C79.9497 84.2593 79.9644 84.2654 79.9798 84.2654C82.3101 84.1109 84.6855 84.0852 86.7841 85.2504C88.5309 86.196 89.8959 87.7179 90.6465 89.557C91.361 91.4432 91.3702 93.5241 90.6723 95.4166C89.9745 97.3091 88.6165 98.8859 86.8485 99.8567C85.8173 100.389 84.6881 100.706 83.5302 100.787C82.3724 100.867 81.2102 100.711 80.115 100.327C80.0249 100.294 79.9605 100.417 80.0442 100.455C81.5236 101.038 83.1361 101.198 84.7012 100.917C86.2662 100.636 87.7222 99.9247 88.9061 98.863C90.0899 97.8014 90.955 96.4313 91.4045 94.906C91.854 93.3807 91.8702 91.7604 91.4512 90.2264H91.4383Z" fill="#263238"/>
<path d="M51.7697 99.7355C51.7697 99.7355 48.2549 92.5064 51.5508 88.5152C53.4177 86.2557 59.3272 86.7707 59.3272 86.7707C59.3272 86.7707 61.3549 83.4425 66.2988 82.4962C71.2427 81.5499 77.075 84.6463 77.075 84.6463C77.075 84.6463 81.8773 82.1293 86.1903 84.8073C92.2092 88.5409 91.102 97.8687 84.8063 100.65C80.3902 102.581 74.6352 98.551 74.6352 98.551C74.0623 98.609 68.127 101.892 63.9299 96.5555C63.9299 96.5555 60.2477 99.5939 57.1256 97.2571C56.5944 98.1693 55.7958 98.8963 54.8379 99.3396C53.8799 99.7829 52.8088 99.9211 51.7697 99.7355Z" fill="#263238"/>
<path d="M54.2985 112.563C54.2985 112.563 50.9576 105.482 47.8097 106.538C44.6618 107.594 46.4063 117.391 49.5606 119.232C49.9498 119.497 50.3884 119.679 50.85 119.769C51.3116 119.86 51.7866 119.856 52.2466 119.758C52.7066 119.66 53.142 119.47 53.5267 119.199C53.9114 118.929 54.2375 118.583 54.4852 118.183L54.2985 112.563Z" fill="#FFCFC0"/>
<path d="M48.3769 109.326C48.3254 109.326 48.2996 109.391 48.3769 109.416C50.5785 110.781 51.4475 113.195 51.9239 115.622C51.3767 114.624 50.4948 113.98 49.1815 114.611C49.168 114.62 49.1576 114.633 49.1518 114.648C49.1461 114.664 49.1453 114.68 49.1496 114.696C49.1539 114.712 49.163 114.726 49.1757 114.736C49.1883 114.746 49.2039 114.752 49.2202 114.753C49.6598 114.693 50.1071 114.771 50.501 114.975C50.895 115.179 51.2165 115.499 51.4218 115.892C51.7554 116.554 52.0187 117.249 52.2071 117.965C52.2844 118.197 52.6835 118.145 52.6449 117.888C52.6479 117.869 52.6479 117.849 52.6449 117.83C53.1856 114.824 51.5698 110.195 48.3769 109.326Z" fill="#263238"/>
<path d="M61.5798 126.822L55.239 124.086L50.1406 117.739L51.1191 116.947L56.0244 123.056L62.0819 125.67L61.5798 126.822Z" fill="#C7C7C7"/>
<path d="M60.9023 125.813C61.5461 123.965 66.696 124.647 65.7626 127.441C64.8291 130.235 60.2779 127.647 60.9023 125.813Z" fill="#37474F"/>
<path d="M47.7116 106.346C47.7116 106.346 47.0228 95.9622 50.0612 90.2523C53.4473 83.8728 67.4807 77.8024 77.0981 84.6582C77.0981 84.6582 61.4747 81.8644 54.194 90.7093C51.1298 94.4301 51.2071 106.635 51.2071 106.635L47.7116 106.346Z" fill="#C7C7C7"/>
<path d="M49.1286 121.26C53.7716 121.213 57.4927 116.888 57.4401 111.598C57.3875 106.308 53.581 102.057 48.938 102.103C44.2951 102.149 40.5739 106.475 40.6265 111.765C40.6792 117.055 44.4857 121.306 49.1286 121.26Z" fill="#C7C7C7"/>
<path d="M54.9879 111.322C55.0329 116.08 51.6919 119.968 47.5205 120.006C43.3491 120.045 39.9244 116.228 39.8794 111.47C39.8343 106.713 43.1753 102.825 47.3467 102.786C51.5181 102.748 54.9428 106.565 54.9879 111.322Z" fill="#455A64"/>
<path d="M68.9377 137.612L64.3993 149.071L50.1212 134.664L46.1172 139.325C46.1172 139.325 60.1185 162.248 60.2021 161.212L64.8692 151.33L71.7057 158.16L71.062 140.947L68.9377 137.612Z" fill="#EBEBEB"/>
<path d="M71.8708 149.631C71.6712 146.792 71.5554 143.927 71.2271 141.101C71.2271 141.005 71.0597 140.96 71.0339 141.101C70.4803 143.85 71.2979 154.697 71.2979 157.304H71.2657C70.9824 157.008 64.9313 151.298 64.8734 151.388C63.8627 152.959 60.4316 160.149 60.1998 160.806C57.9854 157.163 48.6126 142.814 45.9733 139.37C45.9605 139.347 45.9394 139.331 45.9146 139.325C45.8899 139.318 45.8635 139.321 45.8413 139.334C45.8191 139.347 45.8029 139.368 45.7963 139.393C45.7896 139.418 45.7931 139.444 45.8059 139.466C47.7371 143.329 59.9037 162.261 60.0711 162.209C61.8773 158.815 63.5081 155.33 64.9571 151.768C65.9806 153.01 72.0832 159.461 72.1025 159.036C72.1915 155.899 72.1141 152.759 71.8708 149.631Z" fill="#263238"/>
<path d="M145.371 230.11H141.133V232.878H145.371V230.11Z" fill="#455A64"/>
<path d="M150.863 229.926H146.625V232.693H150.863V229.926Z" fill="#455A64"/>
<path d="M156.363 229.74H152.125V232.508H156.363V229.74Z" fill="#455A64"/>
<path d="M161.859 229.561H157.621V232.328H161.859V229.561Z" fill="#455A64"/>
<path d="M167.359 229.375H163.121V232.143H167.359V229.375Z" fill="#455A64"/>
<path d="M172.855 229.196H168.617V231.964H172.855V229.196Z" fill="#455A64"/>
<path d="M178.355 229.011H174.117V231.778H178.355V229.011Z" fill="#455A64"/>
<path d="M183.855 228.825H179.617V231.593H183.855V228.825Z" fill="#455A64"/>
<path d="M189.347 228.646H185.109V231.414H189.347V228.646Z" fill="#455A64"/>
<path d="M190.391 234.466H140.09V231.099L190.391 229.696V234.466Z" fill="#37474F"/>
<path d="M239.481 221.19H156.449L169.652 159.373H252.683L239.481 221.19Z" fill="#455A64"/>
<path d="M242.551 221.19H159.52L172.722 159.373H255.754L242.551 221.19Z" fill="#37474F"/>
<path d="M212.898 190.172C215.151 188.09 215.536 184.842 213.757 182.918C211.979 180.993 208.711 181.121 206.458 183.202C204.205 185.284 203.821 188.532 205.599 190.456C207.377 192.381 210.645 192.253 212.898 190.172Z" fill="#263238"/>
<path d="M223.107 184.002L216.843 183.984C215.872 183.978 215.362 184.307 215.065 185.706L220.439 185.724L223.107 184.002Z" fill="white"/>
<path d="M220.909 185.724L222.707 185.73L223.105 184.124L220.909 185.724Z" fill="#E0433A"/>
<path d="M221.309 186.3L217.123 186.287C217.005 186.286 216.947 186.242 216.947 186.153C216.947 186.127 216.951 186.1 216.96 186.072L217.014 185.89L214.992 185.907L214.888 186.3C214.837 186.482 214.769 186.765 214.775 186.875C214.807 187.438 215.212 187.555 215.659 187.567L219.846 187.581C219.964 187.581 220.022 187.626 220.022 187.714C220.022 187.74 220.017 187.767 220.008 187.796L219.951 188.01C219.909 188.153 219.815 188.223 219.668 188.223L214.383 188.198L213.932 189.91L220.293 189.939C221.175 189.942 221.775 189.372 222.093 188.231L222.271 187.589C222.321 187.409 222.347 187.248 222.348 187.105C222.349 186.574 222.003 186.306 221.309 186.3Z" fill="white"/>
<path d="M208.374 185.667C208.39 185.665 213.958 185.687 213.958 185.687C214.042 185.385 214.085 185.119 214.086 184.898C214.088 184.274 213.763 183.96 213.111 183.955L207.799 183.938C206.914 183.938 206.311 184.51 205.992 185.655L205.99 185.661L208.374 185.667Z" fill="white"/>
<path d="M211.677 185.949L211.103 187.989C211.06 188.131 210.966 188.202 210.818 188.201L207.72 188.191C207.605 188.191 207.548 188.147 207.548 188.058C207.548 188.035 207.552 188.008 207.561 187.977L208.123 185.978L205.901 185.996L205.285 188.183C205.201 188.482 205.159 188.742 205.158 188.964C205.156 189.582 205.481 189.892 206.133 189.894L211.444 189.912C212.329 189.915 212.932 189.347 213.251 188.21L213.893 185.931L211.677 185.949Z" fill="white"/>
<path d="M204.955 185.669L204.958 185.655C205.04 185.353 205.081 185.089 205.082 184.864C205.084 184.241 204.77 183.927 204.139 183.922L197.572 183.914L197.221 185.644L204.955 185.669Z" fill="white"/>
<path d="M202.859 186.036L202.883 186.278L197.051 186.259L196.065 189.891L202.507 189.917C203.367 189.919 203.952 189.35 204.262 188.208L204.38 187.776C204.398 187.71 204.406 187.643 204.406 187.574C204.407 187.374 204.333 187.155 204.185 186.917C204.556 186.601 204.775 186.317 204.845 186.062L204.857 186.018L202.859 186.036ZM202.231 187.772L202.17 187.986C202.132 188.129 202.042 188.2 201.899 188.199L198.676 188.184L198.85 187.546L202.073 187.557C202.188 187.557 202.245 187.602 202.244 187.69C202.244 187.717 202.24 187.744 202.231 187.772Z" fill="white"/>
<path d="M219.067 237.332H178.23V234.157L219.067 232.841V237.332Z" fill="#455A64"/>
<path d="M230.169 237.326H208.244L195.035 202.687H216.961L230.169 237.326Z" fill="#455A64"/>
<path d="M233.776 237.326H211.851L198.648 202.687H220.574L233.776 237.326Z" fill="#263238"/>
<path d="M138.538 238.173H96.4355C92.8461 238.173 98.0418 227.942 111.158 224.019C124.273 220.096 142.678 234.336 138.538 238.173Z" fill="#37474F"/>
<path d="M122.02 238.173C122.053 237.007 122.247 235.851 122.594 234.738C122.933 233.615 123.408 232.538 124.009 231.531C124.613 230.519 125.367 229.605 126.245 228.819C127.114 228.031 128.116 227.403 129.204 226.966C128.754 227.336 128.241 227.584 127.827 227.998L127.209 228.547L126.591 229.165C125.811 229.98 125.126 230.881 124.552 231.853C123.969 232.824 123.469 233.843 123.057 234.898C122.638 235.965 122.292 237.059 122.02 238.173Z" fill="#263238"/>
<path d="M127.004 228.437C129.505 229.264 131.871 230.453 134.028 231.964C135.118 232.717 136.105 233.611 136.963 234.621C137.384 235.137 137.747 235.699 138.044 236.295C138.337 236.891 138.506 237.54 138.538 238.204C138.391 237.575 138.134 236.977 137.778 236.437C137.442 235.896 137.049 235.392 136.604 234.936C135.704 234.024 134.722 233.196 133.67 232.465C132.626 231.711 131.52 231.037 130.414 230.37C129.858 230.037 129.29 229.715 128.721 229.406C128.153 229.098 127.578 228.752 127.004 228.437Z" fill="#263238"/>
<path d="M141.552 117.835C141.189 121.28 139.875 124.557 137.758 127.3C135.641 130.043 132.804 132.144 129.563 133.368C126.321 134.592 122.804 134.892 119.402 134.234C116 133.576 112.848 131.986 110.298 129.641L100.926 131.037L105.609 122.95C104.439 120.101 103.997 117.005 104.324 113.942C104.564 111.487 105.287 109.103 106.452 106.928C107.617 104.753 109.201 102.83 111.112 101.27C113.024 99.7095 115.225 98.5428 117.589 97.8368C119.953 97.1308 122.434 96.8995 124.888 97.1562C127.342 97.4129 129.721 98.1525 131.888 99.3324C134.055 100.512 135.967 102.109 137.514 104.031C139.061 105.953 140.213 108.162 140.903 110.531C141.593 112.9 141.807 115.382 141.533 117.835H141.552Z" fill="white"/>
<path d="M141.553 117.835C141.193 121.283 139.887 124.565 137.778 127.318C137.254 128.002 136.689 128.654 136.085 129.27C135.459 129.864 134.799 130.421 134.108 130.938C132.732 131.986 131.213 132.832 129.598 133.452C127.984 134.085 126.289 134.488 124.563 134.651C123.699 134.732 122.829 134.749 121.962 134.7C121.094 134.68 120.228 134.591 119.374 134.435C115.92 133.801 112.711 132.218 110.107 129.863L110.329 129.931L100.982 131.37L100.309 131.494L100.648 130.876L105.307 122.765V123.086C104.214 120.429 103.741 117.557 103.925 114.689C104.109 111.822 104.945 109.034 106.368 106.539C107.792 104.043 109.766 101.904 112.14 100.287C114.515 98.6686 117.227 97.6136 120.071 97.2018C122.915 96.7901 125.815 97.0324 128.551 97.9103C131.287 98.7882 133.786 100.279 135.859 102.268C137.932 104.258 139.525 106.694 140.514 109.391C141.504 112.089 141.866 114.976 141.571 117.835H141.553ZM141.553 117.835C141.846 115.019 141.49 112.174 140.513 109.517C139.536 106.86 137.963 104.462 135.916 102.508C133.868 100.553 131.4 99.0937 128.701 98.2411C126.001 97.3885 123.143 97.1656 120.344 97.5894C117.568 98.0034 114.925 99.0474 112.615 100.641C110.331 102.249 108.422 104.331 107.018 106.745C105.636 109.172 104.821 111.879 104.633 114.665C104.461 117.457 104.914 120.251 105.961 122.845L106.029 123.012L105.937 123.16L101.229 131.235L100.895 130.74L110.261 129.431H110.391L110.484 129.517C112.983 131.857 116.085 133.455 119.442 134.132C120.279 134.3 121.128 134.404 121.981 134.441C122.832 134.5 123.687 134.5 124.539 134.441C126.248 134.31 127.93 133.94 129.536 133.341C131.151 132.758 132.67 131.94 134.046 130.913C134.736 130.401 135.396 129.85 136.023 129.264C136.629 128.655 137.196 128.009 137.722 127.33C139.854 124.581 141.18 121.293 141.553 117.835Z" fill="#263238"/>
<path d="M133.378 116.456C133.38 116.905 133.248 117.344 132.999 117.718C132.751 118.091 132.397 118.383 131.983 118.556C131.569 118.728 131.113 118.774 130.673 118.687C130.232 118.6 129.828 118.385 129.51 118.068C129.192 117.751 128.976 117.347 128.888 116.907C128.8 116.467 128.844 116.011 129.016 115.596C129.187 115.182 129.478 114.827 129.851 114.578C130.224 114.328 130.662 114.195 131.111 114.195C131.409 114.195 131.703 114.252 131.978 114.366C132.253 114.479 132.503 114.645 132.714 114.855C132.925 115.065 133.092 115.315 133.206 115.59C133.32 115.864 133.378 116.159 133.378 116.456Z" fill="#263238"/>
<path d="M125.261 116.456C125.262 116.905 125.13 117.345 124.882 117.718C124.633 118.092 124.279 118.384 123.864 118.556C123.45 118.729 122.993 118.774 122.553 118.687C122.113 118.599 121.708 118.383 121.391 118.066C121.073 117.748 120.857 117.344 120.77 116.903C120.683 116.463 120.728 116.007 120.9 115.592C121.073 115.178 121.364 114.824 121.738 114.575C122.112 114.326 122.551 114.194 123 114.195C123.6 114.195 124.175 114.434 124.599 114.858C125.023 115.282 125.261 115.857 125.261 116.456Z" fill="#263238"/>
<path d="M117.148 116.456C117.149 116.905 117.017 117.344 116.769 117.718C116.52 118.091 116.167 118.383 115.753 118.556C115.338 118.728 114.882 118.774 114.442 118.687C114.002 118.6 113.597 118.385 113.28 118.068C112.962 117.751 112.745 117.347 112.657 116.907C112.569 116.467 112.614 116.011 112.785 115.596C112.957 115.182 113.247 114.827 113.62 114.578C113.993 114.328 114.432 114.195 114.881 114.195C115.481 114.195 116.057 114.433 116.482 114.857C116.907 115.281 117.146 115.856 117.148 116.456Z" fill="#263238"/>
<path d="M149.48 20.8279C149.843 24.2734 151.156 27.5504 153.273 30.2934C155.39 33.0364 158.226 35.1378 161.467 36.3633C164.708 37.5887 168.225 37.8901 171.627 37.2338C175.029 36.5775 178.182 34.9893 180.734 32.6463L190.088 34.0178L185.411 25.9309C186.483 23.2975 186.941 20.4543 186.75 17.6173C186.559 14.7803 185.724 12.0242 184.308 9.5585C182.892 7.09278 180.932 4.98232 178.578 3.3875C176.224 1.79268 173.537 0.755477 170.722 0.354713C167.907 -0.0460514 165.038 0.200172 162.332 1.07467C159.627 1.94917 157.156 3.42893 155.108 5.40149C153.06 7.37405 151.489 9.7875 150.514 12.4584C149.538 15.1293 149.185 17.9874 149.48 20.8155V20.8279Z" fill="white"/>
<path d="M155.078 5.37701C157.115 3.3678 159.587 1.85375 162.303 0.951795C165.018 0.0498433 167.905 -0.215874 170.739 0.17517C173.594 0.551628 176.324 1.57658 178.721 3.17148C182.352 5.59544 185.034 9.20018 186.312 13.375C187.59 17.5498 187.385 22.0381 185.733 26.0793V25.7581L190.379 33.8821L190.719 34.4999L190.045 34.3949L180.692 32.9616L180.914 32.8936C178.31 35.2485 175.101 36.8316 171.647 37.4653C170.793 37.6219 169.927 37.7107 169.059 37.731C168.194 37.7763 167.327 37.7598 166.464 37.6815C162.999 37.3512 159.693 36.0682 156.913 33.9748C156.222 33.4579 155.562 32.9009 154.936 32.3067C154.334 31.6897 153.769 31.0378 153.243 30.3545C150.443 26.6955 149.081 22.1365 149.417 17.5411C149.753 12.9457 151.763 8.6331 155.066 5.42025L155.078 5.37701ZM153.311 30.268C153.837 30.9447 154.405 31.5884 155.01 32.1955C155.634 32.7855 156.295 33.3364 156.987 33.845C158.363 34.8769 159.885 35.6973 161.503 36.2791C163.108 36.8753 164.788 37.2454 166.495 37.3788C167.348 37.4375 168.205 37.4375 169.059 37.3788C169.91 37.341 170.757 37.2378 171.592 37.0699C174.948 36.3931 178.05 34.7951 180.55 32.455L180.642 32.3685H180.772L190.138 33.6782L189.804 34.1725L185.097 26.0979L185.004 25.9434L185.072 25.7766C186.121 23.1933 186.57 20.406 186.388 17.624C186.205 14.842 185.394 12.1376 184.015 9.71393C182.613 7.29828 180.704 5.21574 178.418 3.61011C176.111 2.01722 173.469 0.9733 170.696 0.558204C167.03 -0.00777189 163.279 0.54135 159.93 2.13428C156.58 3.7272 153.787 6.29035 151.912 9.49093C150.038 12.6915 149.169 16.3817 149.418 20.0823C149.668 23.783 151.024 27.3232 153.311 30.2433V30.268Z" fill="#263238"/>
<path d="M169.747 21.1683V23.5035C169.752 23.7361 169.71 23.9674 169.623 24.1833C169.537 24.3992 169.407 24.5953 169.242 24.7598C169.078 24.9243 168.882 25.0538 168.666 25.1405C168.45 25.2272 168.219 25.2693 167.986 25.2643C167.52 25.2626 167.073 25.0766 166.743 24.7468C166.413 24.4169 166.227 23.97 166.226 23.5035V19.7968C166.226 19.7597 166.263 19.7597 166.263 19.7226C166.263 19.6856 166.226 19.6856 166.226 19.6547C166.238 19.1916 166.427 18.751 166.755 18.4235C167.083 18.0959 167.523 17.9064 167.986 17.894C168.54 17.9374 169.097 17.8659 169.622 17.6838C170.147 17.5017 170.628 17.213 171.036 16.8359C171.444 16.4588 171.769 16.0013 171.992 15.4923C172.215 14.9833 172.329 14.4338 172.329 13.8783C172.329 13.3228 172.215 12.7732 171.992 12.2642C171.769 11.7553 171.444 11.2978 171.036 10.9207C170.628 10.5435 170.147 10.2549 169.622 10.0728C169.097 9.89069 168.54 9.81914 167.986 9.86261C167.288 9.8598 166.602 10.0411 165.997 10.3882C165.392 10.7353 164.889 11.2359 164.539 11.8396C164.419 12.044 164.259 12.2224 164.069 12.3644C163.879 12.5064 163.663 12.6092 163.433 12.6667C163.203 12.7242 162.964 12.7353 162.729 12.6994C162.495 12.6634 162.27 12.5812 162.068 12.4574C161.869 12.3401 161.694 12.1847 161.556 12C161.417 11.8153 161.316 11.6049 161.258 11.381C161.201 11.1572 161.188 10.9241 161.221 10.6954C161.254 10.4666 161.332 10.2466 161.45 10.048C162.075 8.9631 162.96 8.05075 164.026 7.39305C165.091 6.73536 166.303 6.35296 167.553 6.2803C168.803 6.20764 170.051 6.447 171.186 6.97683C172.32 7.50666 173.305 8.31031 174.052 9.31543C174.798 10.3205 175.283 11.4956 175.463 12.7347C175.642 13.9738 175.511 15.2381 175.08 16.4138C174.649 17.5894 173.933 18.6395 172.996 19.4695C172.058 20.2995 170.929 20.8832 169.71 21.1683H169.747ZM169.747 29.0328V29.6506C169.753 29.8834 169.711 30.1151 169.625 30.3314C169.539 30.5477 169.409 30.7441 169.244 30.9088C169.08 31.0735 168.883 31.203 168.667 31.2894C168.451 31.3758 168.219 31.4173 167.986 31.4113C167.519 31.4113 167.071 31.2258 166.741 30.8956C166.411 30.5654 166.226 30.1176 166.226 29.6506V29.0328C166.232 28.5678 166.419 28.1237 166.748 27.7949C167.077 27.466 167.521 27.2785 167.986 27.2721C168.218 27.2696 168.448 27.3135 168.663 27.4011C168.878 27.4887 169.073 27.6183 169.237 27.7823C169.401 27.9463 169.53 28.1413 169.618 28.3561C169.706 28.5708 169.749 28.8009 169.747 29.0328Z" fill="#607FE1"/>
</svg>
