<svg width="374" height="333" viewBox="0 0 374 333" fill="none" xmlns="http://www.w3.org/2000/svg">
<path d="M235.118 205.462L233.111 217.51L219.497 291.015H217.305L227.202 217.51L228.667 205.462H235.118Z" fill="#DBDBDB"/>
<path d="M228.664 205.462H235.115L233.109 217.51H227.199L228.664 205.462Z" fill="#A6A6A6"/>
<path d="M277.856 291.015H275.663L262.058 217.51L260.043 205.462H266.503L267.959 217.51L277.856 291.015Z" fill="#DBDBDB"/>
<path d="M266.503 205.462L267.959 217.51H262.058L260.043 205.462H266.503Z" fill="#A6A6A6"/>
<path d="M318.681 291.015H316.488L302.882 217.51L300.867 205.462H307.327L308.783 217.51L318.681 291.015Z" fill="#DBDBDB"/>
<path d="M308.783 217.51H302.882L300.867 205.462H307.327L308.783 217.51Z" fill="#A6A6A6"/>
<path d="M315.199 211.117H215.465V200.61H252.802L265.349 127.604H311.398L315.199 211.117Z" fill="#DBDBDB"/>
<path d="M315.197 211.117H309.762L306.223 127.604H311.396L315.197 211.117Z" fill="#A6A6A6"/>
<path d="M220.527 140.981L229.442 146.51L231.135 143.783C231.379 143.391 231.728 143.074 232.143 142.869C232.557 142.664 233.02 142.579 233.481 142.624C233.997 142.666 234.522 142.683 235.047 142.674C235.508 142.66 235.963 142.775 236.362 143.005C236.762 143.235 237.089 143.572 237.307 143.978L238.831 146.806L248.077 141.845L246.561 139.017C246.344 138.61 246.245 138.15 246.275 137.689C246.304 137.228 246.462 136.785 246.73 136.409C247.037 135.979 247.319 135.533 247.577 135.072C247.8 134.667 248.129 134.331 248.529 134.1C248.929 133.869 249.384 133.751 249.846 133.759L253.055 133.861L253.377 123.371L250.159 123.278C249.698 123.255 249.251 123.106 248.868 122.848C248.484 122.59 248.179 122.232 247.983 121.813C247.873 121.585 247.763 121.356 247.636 121.127C247.509 120.899 247.391 120.67 247.255 120.459C247.014 120.066 246.887 119.615 246.887 119.155C246.887 118.694 247.014 118.243 247.255 117.851L248.949 115.099L240.034 109.571L238.34 112.305C238.096 112.697 237.747 113.013 237.332 113.216C236.918 113.42 236.454 113.503 235.995 113.457C235.479 113.414 234.954 113.398 234.437 113.406C233.977 113.416 233.523 113.301 233.123 113.072C232.724 112.844 232.394 112.512 232.168 112.111L230.577 109.274L221.331 114.236L222.847 117.064C223.064 117.471 223.163 117.931 223.133 118.391C223.103 118.852 222.945 119.295 222.677 119.671C222.381 120.103 222.11 120.518 221.831 121C221.614 121.409 221.287 121.749 220.888 121.982C220.489 122.215 220.032 122.333 219.57 122.321L216.353 122.22L216.031 132.701L219.248 132.803C219.709 132.823 220.154 132.971 220.535 133.229C220.916 133.488 221.218 133.847 221.407 134.267C221.517 134.496 221.636 134.724 221.763 134.961C221.89 135.199 222.009 135.41 222.144 135.63C222.387 136.023 222.515 136.476 222.515 136.938C222.515 137.4 222.387 137.853 222.144 138.246L220.527 140.981ZM227.19 132.1C226.388 130.601 226.049 128.899 226.215 127.207C226.38 125.516 227.044 123.912 228.122 122.597C229.199 121.283 230.642 120.318 232.268 119.824C233.894 119.33 235.631 119.329 237.257 119.821C238.884 120.314 240.328 121.277 241.407 122.59C242.486 123.904 243.151 125.507 243.319 127.198C243.486 128.89 243.148 130.593 242.348 132.092C241.548 133.591 240.321 134.82 238.823 135.622C237.828 136.157 236.738 136.49 235.614 136.603C234.49 136.715 233.356 136.604 232.275 136.277C231.194 135.95 230.188 135.413 229.316 134.696C228.443 133.979 227.721 133.097 227.19 132.1Z" fill="#EBEBEB"/>
<path d="M299.766 112.907L303.44 119.274L305.387 118.148C305.668 117.987 305.988 117.909 306.311 117.921C306.634 117.933 306.948 118.035 307.216 118.215C307.529 118.41 307.843 118.596 308.173 118.766C308.461 118.91 308.704 119.13 308.874 119.404C309.045 119.677 309.136 119.993 309.138 120.315V122.567H316.487V120.315C316.484 119.991 316.574 119.672 316.746 119.397C316.919 119.123 317.167 118.903 317.46 118.766C317.782 118.596 318.104 118.41 318.409 118.215C318.677 118.035 318.99 117.933 319.313 117.921C319.636 117.909 319.957 117.987 320.237 118.148L322.193 119.274L325.859 112.907L323.903 111.781C323.627 111.615 323.402 111.376 323.253 111.091C323.104 110.806 323.036 110.485 323.057 110.164C323.057 109.986 323.057 109.8 323.057 109.622C323.057 109.444 323.057 109.258 323.057 109.08C323.034 108.758 323.101 108.437 323.25 108.151C323.4 107.866 323.626 107.627 323.903 107.463L325.859 106.328L322.193 99.9617L320.237 101.088C319.958 101.256 319.636 101.34 319.31 101.329C318.984 101.319 318.668 101.214 318.4 101.028C318.095 100.827 317.778 100.643 317.452 100.478C317.164 100.334 316.921 100.113 316.75 99.8399C316.58 99.5664 316.489 99.251 316.487 98.9288V96.6768H309.138V98.9288C309.136 99.251 309.045 99.5664 308.874 99.8399C308.704 100.113 308.461 100.334 308.173 100.478C307.847 100.645 307.531 100.829 307.225 101.028C306.957 101.212 306.643 101.316 306.319 101.326C305.995 101.337 305.674 101.254 305.396 101.088L303.44 99.9617L299.766 106.328L301.721 107.463C301.998 107.628 302.224 107.866 302.373 108.152C302.523 108.437 302.59 108.759 302.568 109.08C302.568 109.258 302.568 109.436 302.568 109.622C302.568 109.808 302.568 109.986 302.568 110.164C302.589 110.485 302.521 110.806 302.372 111.091C302.222 111.376 301.997 111.615 301.721 111.781L299.766 112.907ZM306.793 109.622C306.793 108.431 307.146 107.268 307.807 106.278C308.469 105.288 309.409 104.516 310.509 104.06C311.609 103.605 312.819 103.486 313.987 103.718C315.154 103.95 316.227 104.524 317.069 105.365C317.911 106.207 318.484 107.28 318.716 108.448C318.949 109.615 318.829 110.826 318.374 111.926C317.918 113.025 317.147 113.966 316.157 114.627C315.167 115.288 314.003 115.642 312.812 115.642C312.02 115.644 311.236 115.49 310.504 115.188C309.771 114.887 309.106 114.444 308.545 113.884C307.984 113.325 307.539 112.661 307.236 111.929C306.932 111.198 306.776 110.414 306.776 109.622H306.793Z" fill="#EBEBEB"/>
<path d="M25.9961 179.325L29.6705 185.658L31.6178 184.541C31.8972 184.373 32.2192 184.289 32.5451 184.299C32.871 184.31 33.187 184.414 33.455 184.6C33.7598 184.795 34.073 184.981 34.4032 185.15C34.6953 185.289 34.9414 185.509 35.1125 185.784C35.2835 186.058 35.3723 186.376 35.3684 186.7V188.952H42.7257V186.7C42.7218 186.376 42.8106 186.058 42.9817 185.784C43.1527 185.509 43.3988 185.289 43.6909 185.15C44.0211 184.981 44.3343 184.795 44.6391 184.6C44.9071 184.414 45.2231 184.31 45.549 184.299C45.8749 184.289 46.1969 184.373 46.4763 184.541L48.4236 185.658L52.098 179.3L50.1423 178.166C49.8649 178.001 49.6388 177.763 49.4892 177.477C49.3397 177.192 49.2727 176.87 49.2956 176.548C49.2956 176.371 49.2956 176.184 49.2956 176.007C49.2956 175.829 49.2956 175.643 49.2956 175.465C49.2736 175.143 49.3411 174.822 49.4905 174.537C49.64 174.251 49.8656 174.013 50.1423 173.848L52.1065 172.713L48.4321 166.355L46.4763 167.481C46.1955 167.641 45.8754 167.72 45.5523 167.708C45.2292 167.696 44.9158 167.594 44.6476 167.413C44.3412 167.214 44.0247 167.03 43.6994 166.863C43.4096 166.727 43.1644 166.512 42.9921 166.242C42.8197 165.972 42.7274 165.659 42.7257 165.339V163.087H35.3684V165.339C35.3723 165.662 35.2835 165.98 35.1125 166.255C34.9414 166.529 34.6953 166.749 34.4032 166.888C34.0779 167.055 33.7614 167.239 33.455 167.439C33.1867 167.619 32.8734 167.721 32.5503 167.733C32.2272 167.745 31.9071 167.667 31.6263 167.506L29.6705 166.38L25.9961 172.739L27.9518 173.873C28.2292 174.037 28.4554 174.276 28.6049 174.561C28.7544 174.847 28.8215 175.169 28.7985 175.49C28.7985 175.668 28.7985 175.846 28.7985 176.032C28.7985 176.218 28.7985 176.396 28.7985 176.574C28.8202 176.896 28.7526 177.219 28.6033 177.506C28.454 177.792 28.2286 178.032 27.9518 178.199L25.9961 179.325ZM33.0232 176.032C33.0215 174.839 33.3739 173.672 34.0356 172.68C34.6973 171.687 35.6387 170.913 36.7405 170.456C37.8424 169.999 39.0551 169.879 40.2252 170.111C41.3954 170.343 42.4702 170.918 43.3138 171.761C44.1573 172.605 44.7316 173.68 44.964 174.85C45.1963 176.02 45.0762 177.233 44.6189 178.334C44.1616 179.436 43.3876 180.378 42.395 181.039C41.4024 181.701 40.2358 182.053 39.0428 182.052C37.4463 182.052 35.9152 181.417 34.7863 180.289C33.6574 179.16 33.0232 177.629 33.0232 176.032Z" fill="#EBEBEB"/>
<path d="M144.808 170.428L126.444 290.956H122.82L134.157 170.428H144.808Z" fill="#EBEBEB"/>
<path d="M144.796 170.428L143.044 181.942H133.07L134.154 170.428H144.796Z" fill="#A6A6A6"/>
<path d="M312.965 170.428L331.328 290.956H334.952L323.616 170.428H312.965Z" fill="#EBEBEB"/>
<path d="M312.973 170.428L314.725 181.942H324.699L323.615 170.428H312.973Z" fill="#A6A6A6"/>
<path d="M341.783 157.686H115.992V167.921H341.783V157.686Z" fill="#EBEBEB"/>
<path d="M338.347 167.922H119.414V170.428H338.347V167.922Z" fill="#C7C7C7"/>
<path d="M186.552 332.816C281.472 332.816 358.42 326.658 358.42 319.061C358.42 311.465 281.472 305.307 186.552 305.307C91.6315 305.307 14.6836 311.465 14.6836 319.061C14.6836 326.658 91.6315 332.816 186.552 332.816Z" fill="#EBEBEB"/>
<path d="M0.046875 291.049L46.6714 290.846L93.2959 290.77L186.553 290.626L279.811 290.77L326.435 290.838L373.06 291.049L326.435 291.252L279.811 291.329L186.553 291.473L93.2959 291.329L46.6714 291.252L0.046875 291.049Z" fill="#263238"/>
<path d="M116.927 85.4344C135.093 85.4344 149.819 70.7081 149.819 52.5424C149.819 34.3766 135.093 19.6504 116.927 19.6504C98.7614 19.6504 84.0352 34.3766 84.0352 52.5424C84.0352 70.7081 98.7614 85.4344 116.927 85.4344Z" fill="#5FD58C"/>
<path d="M116.927 77.6452C130.791 77.6452 142.03 66.4063 142.03 52.5423C142.03 38.6784 130.791 27.4395 116.927 27.4395C103.063 27.4395 91.8242 38.6784 91.8242 52.5423C91.8242 66.4063 103.063 77.6452 116.927 77.6452Z" fill="white"/>
<path d="M134.391 56.7139C136.689 47.0759 130.739 37.4 121.101 35.1021C111.463 32.8042 101.787 38.7546 99.4888 48.3926C97.1909 58.0306 103.141 67.7065 112.779 70.0044C122.417 72.3023 132.093 66.352 134.391 56.7139Z" fill="#5FD58C"/>
<path d="M126.604 54.7648C127.83 49.4234 124.493 44.1001 119.152 42.8748C113.81 41.6495 108.487 44.9862 107.262 50.3276C106.036 55.669 109.373 60.9923 114.714 62.2176C120.056 63.4429 125.379 60.1062 126.604 54.7648Z" fill="white"/>
<path d="M121.412 52.5429C121.412 53.4303 121.149 54.2979 120.656 55.0358C120.163 55.7737 119.462 56.3489 118.642 56.6885C117.822 57.0281 116.92 57.117 116.049 56.9438C115.179 56.7707 114.379 56.3433 113.752 55.7158C113.124 55.0883 112.697 54.2887 112.524 53.4183C112.351 52.5478 112.439 51.6456 112.779 50.8257C113.119 50.0058 113.694 49.305 114.432 48.8119C115.17 48.3188 116.037 48.0557 116.925 48.0557C117.514 48.0546 118.098 48.1699 118.643 48.395C119.188 48.6201 119.683 48.9506 120.1 49.3675C120.517 49.7843 120.847 50.2795 121.073 50.8244C121.298 51.3693 121.413 51.9533 121.412 52.5429Z" fill="#5FD58C"/>
<path d="M161.853 6.60315L119.348 49.1084L120.365 50.1261L162.871 7.62088L161.853 6.60315Z" fill="#455A64"/>
<path d="M122.48 51.0528L116.926 52.5429L118.416 46.9805L122.48 51.0528Z" fill="#263238"/>
<path d="M169.47 4.34327L161.503 12.3102L155.246 14.2151L157.159 7.96689L165.126 0L163.221 6.24821L169.47 4.34327Z" fill="#263238"/>
<path d="M64.739 201.638C64.739 201.062 64.6797 200.486 64.6797 199.943H65.315C65.315 200.494 65.315 201.053 65.3743 201.638H64.739Z" fill="#263238"/>
<path d="M130.334 250.85H130.224V250.215H130.343C131.41 250.215 132.51 250.215 133.603 250.131V250.766C132.527 250.8 131.418 250.85 130.334 250.85ZM125.966 250.706C124.84 250.639 123.697 250.537 122.579 250.419L122.647 249.784C123.756 249.911 124.891 250.004 126.034 250.08L125.966 250.706ZM137.878 250.444L137.81 249.809C138.919 249.69 140.045 249.538 141.155 249.369L141.248 249.995C140.13 250.148 138.996 250.292 137.878 250.419V250.444ZM118.405 249.817C117.296 249.623 116.179 249.403 115.019 249.149L115.163 248.531C116.263 248.776 117.372 248.996 118.473 249.191L118.405 249.817ZM145.498 249.216L145.362 248.598C146.455 248.361 147.564 248.09 148.647 247.811L148.808 248.42C147.657 248.683 146.539 248.954 145.439 249.157L145.498 249.216ZM110.955 248.099C109.871 247.785 108.779 247.447 107.704 247.083L107.907 246.482C108.974 246.846 110.057 247.184 111.133 247.489L110.955 248.099ZM152.889 247.252L152.694 246.651C153.744 246.304 154.819 245.931 155.886 245.533L156.106 246.126C154.972 246.473 153.888 246.846 152.83 247.193L152.889 247.252ZM103.716 245.627C102.666 245.203 101.616 244.78 100.592 244.28L100.854 243.696C101.87 244.17 102.92 244.619 103.953 245.042L103.716 245.627ZM160.052 244.534L159.798 243.95C160.83 243.51 161.855 243.027 162.845 242.519L163.133 243.087C162.067 243.535 161.034 244.026 159.992 244.475L160.052 244.534ZM96.7737 242.384C95.7662 241.842 94.7671 241.283 93.8104 240.691L94.1321 240.149C95.0888 240.716 96.0794 241.275 97.0784 241.842L96.7737 242.384ZM166.85 241.029L166.52 240.487C167.477 239.912 168.433 239.294 169.365 238.659L169.72 239.184C168.721 239.768 167.756 240.386 166.791 240.97L166.85 241.029ZM90.2122 238.43C89.264 237.795 88.3326 237.135 87.4267 236.466L87.8077 235.958C88.6544 236.618 89.628 237.279 90.5678 237.905L90.2122 238.43ZM173.183 236.661L172.794 236.17C173.64 235.475 174.538 234.747 175.376 234.002L175.799 234.485C174.851 235.171 173.97 235.907 173.081 236.601L173.183 236.661ZM84.1333 233.824C83.2867 233.088 82.44 232.334 81.5934 231.572L82.0252 231.107C82.8718 231.86 83.7184 232.614 84.5651 233.333L84.1333 233.824ZM178.906 231.581L178.458 231.132C179.236 230.353 180.024 229.54 180.794 228.702L181.26 229.126C180.379 229.913 179.592 230.743 178.805 231.522L178.906 231.581ZM78.4354 228.516C77.6565 227.669 76.8861 226.823 76.1495 225.976L76.6321 225.561C77.3602 226.408 78.1222 227.254 78.8926 228.101L78.4354 228.516ZM183.961 225.866L183.478 225.46C184.189 224.613 184.9 223.724 185.586 222.826L186.086 223.216C185.392 224.113 184.68 225.011 183.961 225.866ZM73.4826 222.666C72.8052 221.751 72.1449 220.812 71.5268 219.872L72.0602 219.525C72.6698 220.447 73.3217 221.379 73.999 222.285L73.4826 222.666ZM188.626 219.804L188.101 219.431C188.753 218.517 189.396 217.594 190.023 216.654L190.556 217.002C189.938 217.95 189.278 218.881 188.626 219.804ZM69.3425 216.214C68.7837 215.198 68.2757 214.165 67.8185 213.158L68.3943 212.895C68.8514 213.894 69.351 214.91 69.8928 215.909L69.3425 216.214ZM192.867 213.437L192.326 213.099C192.927 212.15 193.511 211.185 194.095 210.212L194.637 210.542C194.053 211.515 193.468 212.481 192.867 213.437ZM66.2692 209.204C65.9051 208.095 65.6003 206.986 65.3633 205.911L65.9813 205.775C66.2184 206.833 66.5147 207.917 66.828 209.009L66.2692 209.204ZM196.787 206.91L196.229 206.596C196.787 205.614 197.338 204.632 197.922 203.642L198.481 203.946C197.896 204.912 197.338 205.894 196.787 206.876V206.91ZM200.462 200.213L199.903 199.908C200.434 198.915 200.958 197.916 201.478 196.911L202.045 197.207C201.52 198.181 200.995 199.205 200.462 200.179V200.213ZM203.984 193.44L203.425 193.152C203.933 192.144 204.441 191.137 204.957 190.129L205.525 190.409L203.984 193.44ZM207.421 186.616L206.854 186.336L208.369 183.297L208.937 183.585L207.421 186.616ZM210.808 179.792L210.24 179.504L211.773 176.473L212.34 176.761L210.808 179.792ZM214.262 173.019L213.703 172.731L215.261 169.717L215.828 170.013L214.262 173.019ZM217.809 166.246L217.251 165.941C217.784 164.95 218.326 163.96 218.868 162.969L219.426 163.274C218.902 164.214 218.368 165.204 217.877 166.186L217.809 166.246ZM221.492 159.591L220.933 159.278C221.492 158.296 222.06 157.322 222.627 156.348L223.177 156.67C222.635 157.593 222.11 158.566 221.518 159.54L221.492 159.591ZM225.361 153.055L224.82 152.716C225.412 151.759 226.005 150.803 226.614 149.855L227.156 150.193C226.572 151.091 225.971 152.047 225.387 153.004L225.361 153.055ZM229.468 146.663L228.934 146.307C229.569 145.367 230.213 144.436 230.865 143.505L231.381 143.877C230.755 144.749 230.12 145.681 229.493 146.612L229.468 146.663ZM233.862 140.44L233.345 140.067C234.023 139.161 234.708 138.256 235.411 137.367L235.911 137.756C235.242 138.594 234.556 139.492 233.887 140.389L233.862 140.44ZM238.561 134.463L238.07 134.056C238.798 133.21 239.534 132.321 240.279 131.474L240.753 131.889C240.034 132.685 239.306 133.548 238.586 134.412L238.561 134.463ZM243.64 128.765L243.175 128.324C243.954 127.478 244.733 126.69 245.537 125.886L245.986 126.335C245.173 127.08 244.394 127.893 243.623 128.714L243.64 128.765ZM249.025 123.389L248.585 122.923C249.431 122.152 250.278 121.39 251.125 120.645L251.54 121.12C250.659 121.814 249.821 122.576 249.008 123.338L249.025 123.389ZM254.748 118.393L254.35 117.902C255.197 117.183 256.128 116.48 257.017 115.803L257.407 116.302C256.509 116.929 255.612 117.631 254.731 118.343L254.748 118.393ZM260.81 113.813L260.446 113.297C261.369 112.653 262.317 112.01 263.266 111.392L263.613 111.925C262.656 112.484 261.716 113.127 260.793 113.762L260.81 113.813ZM267.194 109.681L266.864 109.14C267.837 108.555 268.828 107.98 269.81 107.446L270.115 107.997C269.124 108.488 268.142 109.055 267.177 109.631L267.194 109.681Z" fill="#263238"/>
<path d="M274.003 105.873L273.715 105.305L275.239 104.552L275.518 105.119L274.003 105.873Z" fill="#263238"/>
<path d="M266.089 100.014L261.449 112.747L271.194 105.145L308.429 91.6406L266.089 100.014Z" fill="#92E3A9"/>
<path opacity="0.1" d="M266.089 100.014L261.449 112.747L271.194 105.145L308.429 91.6406L266.089 100.014Z" fill="#17153E"/>
<path d="M272.439 108.116L261.449 112.747L271.194 105.145L272.439 108.116Z" fill="#263238"/>
<path d="M271.191 105.145L308.427 91.6406L277.88 121.442L271.191 105.145Z" fill="#92E3A9"/>
<path d="M266.089 100.013L250.621 90.0146L308.43 91.6402L266.089 100.013Z" fill="#92E3A9"/>
<path d="M338.388 10.3379H233.074V76.6807H338.388V10.3379Z" fill="#EBEBEB"/>
<path d="M241.75 25.5264C256.363 25.4333 270.976 25.4587 285.581 25.4248C300.185 25.3909 314.807 25.4248 329.411 25.5264C314.807 25.6195 300.194 25.5941 285.581 25.628C270.968 25.6619 256.363 25.6449 241.75 25.5264Z" fill="#A6A6A6"/>
<path d="M241.75 34.1875C256.363 34.1113 270.976 34.1113 285.606 34.1113C300.236 34.1113 314.832 34.1113 329.437 34.2129C314.832 34.3061 300.219 34.2807 285.606 34.323C270.993 34.3653 256.363 34.2807 241.75 34.1875Z" fill="#A6A6A6"/>
<path d="M241.75 42.8487C256.363 42.7555 270.976 42.7809 285.581 42.7471C300.185 42.7132 314.807 42.7471 329.411 42.8487C314.807 42.9418 300.194 42.9164 285.581 42.9587C270.968 43.0011 256.363 42.9418 241.75 42.8487Z" fill="#A6A6A6"/>
<path d="M241.75 51.5098C256.363 51.4167 270.976 51.4421 285.581 51.4082C300.185 51.3743 314.807 51.4082 329.411 51.5098C314.807 51.6029 300.194 51.5775 285.581 51.6199C270.968 51.6622 256.363 51.6029 241.75 51.5098Z" fill="#A6A6A6"/>
<path d="M241.75 60.1709C256.363 60.0778 270.976 60.1032 285.581 60.0693C300.185 60.0355 314.807 60.0693 329.411 60.1709C314.807 60.2641 300.194 60.2387 285.581 60.281C270.968 60.3233 256.363 60.2641 241.75 60.1709Z" fill="#A6A6A6"/>
<path d="M259.407 19.8965C259.534 27.9904 259.5 36.0843 259.551 44.1781C259.601 52.272 259.551 60.3574 259.407 68.4513C259.28 60.3574 259.305 52.2636 259.254 44.1781C259.203 36.0927 259.28 27.9904 259.407 19.8965Z" fill="#A6A6A6"/>
<path d="M274.601 19.8965C274.736 27.9904 274.702 36.0843 274.753 44.1781C274.804 52.272 274.753 60.3574 274.601 68.4513C274.474 60.3574 274.508 52.2636 274.457 44.1781C274.406 36.0927 274.432 27.9904 274.601 19.8965Z" fill="#A6A6A6"/>
<path d="M289.723 19.8965C289.85 27.9904 289.816 36.0843 289.875 44.1781C289.935 52.272 289.875 60.3574 289.723 68.4513C289.596 60.3574 289.621 52.2636 289.571 44.1781C289.52 36.0927 289.596 27.9904 289.723 19.8965Z" fill="#A6A6A6"/>
<path d="M304.876 19.8965C305.011 27.9904 304.977 36.0843 305.028 44.1781C305.079 52.272 305.028 60.3574 304.876 68.4513C304.749 60.3574 304.783 52.2636 304.732 44.1781C304.681 36.0927 304.749 27.9904 304.876 19.8965Z" fill="#A6A6A6"/>
<path d="M320.043 19.8965C320.17 27.9904 320.136 36.0843 320.195 44.1781C320.254 52.272 320.195 60.3574 320.043 68.4513C319.916 60.3574 319.95 52.2636 319.89 44.1781C319.831 36.0927 319.916 27.9904 320.043 19.8965Z" fill="#A6A6A6"/>
<path opacity="0.5" d="M243.961 53.8888C246.636 53.8888 248.194 45.0922 252.021 45.0922C255.848 45.0922 256.212 51.5098 259.404 51.5098C262.595 51.5098 262.494 40.2325 266.786 40.2325C271.079 40.2325 270.071 44.8128 274.559 44.8128C279.046 44.8128 277.352 34.1875 282.043 34.1875C286.733 34.1875 284.837 48.8259 289.722 48.8259C292.812 48.8259 294.006 44.1779 297.697 44.1779C300.144 44.1779 301.583 46.4977 304.775 46.4977C307.967 46.4977 308.67 37.5571 312.657 37.5571C316.645 37.5571 317.102 42.8486 320.04 42.8486C322.978 42.8486 324.028 34.1875 329.412 34.1875V68.4511H243.961V53.8888Z" fill="#5FD58C"/>
<path d="M243.961 54.3126V53.466C244.808 53.466 245.883 51.4086 246.704 49.9101C248.101 47.3702 249.549 44.6694 252.021 44.6694C254.493 44.6694 255.577 46.6167 256.61 48.3438C257.456 49.69 258.303 51.0869 259.404 51.0869C260.403 51.0869 261.266 48.3777 261.893 46.405C262.934 43.1624 264.001 39.8097 266.786 39.8097C269.267 39.8097 270.241 41.1304 271.096 42.2903C271.951 43.4502 272.654 44.39 274.559 44.39C276.252 44.39 276.963 41.9093 277.615 39.5049C278.385 36.6856 279.181 33.7646 282.043 33.7646C284.904 33.7646 285.607 37.4391 286.378 41.3336C287.004 44.4831 287.775 48.4031 289.722 48.4031C290.882 48.4031 291.838 47.4294 292.846 46.4135C294.065 45.1604 295.462 43.755 297.697 43.755C298.906 43.8298 300.074 44.221 301.084 44.8895C302.178 45.6059 303.444 46.0152 304.75 46.0748C305.859 46.0748 306.866 43.9497 307.679 42.2395C308.873 39.6996 310.109 37.1597 312.632 37.1597C315.155 37.1597 316.383 38.853 317.475 40.3431C318.271 41.4268 319.024 42.4512 320.015 42.4512C320.861 42.4512 321.818 40.8087 322.656 39.3525C324.095 36.8718 325.89 33.7901 329.387 33.7901V34.6367C326.695 34.6367 325.154 37.3121 323.765 39.7165C322.588 41.74 321.666 43.3402 320.015 43.3402C318.364 43.3402 317.382 42.0956 316.408 40.8002C315.434 39.5049 314.418 38.0825 312.632 38.0825C310.939 38.0825 309.83 40.487 308.814 42.612C307.696 44.9826 306.722 47.023 304.75 47.023C303.186 46.9734 301.665 46.5024 300.347 45.66C299.553 45.1155 298.631 44.7859 297.672 44.7033C296.063 44.7033 294.912 45.8631 293.803 46.9976C292.694 48.1321 291.483 49.3513 289.696 49.3513C286.708 49.3513 285.954 45.5584 285.167 41.5537C284.566 38.5058 283.812 34.7129 282.017 34.7129C280.223 34.7129 279.41 37.3967 278.766 39.7927C277.987 42.6544 277.251 45.3636 274.533 45.3636C271.815 45.3636 270.901 44.0005 270.012 42.8237C269.123 41.6469 268.514 40.8002 266.761 40.8002C265.008 40.8002 263.882 44.0937 263.044 46.7267C262.088 49.7154 261.351 52.069 259.378 52.069C257.406 52.069 256.5 50.4858 255.484 48.8095C254.544 47.2601 253.579 45.6515 251.996 45.6515C250.412 45.6515 248.931 48.2591 247.762 50.3503C246.577 52.5008 245.595 54.3126 243.961 54.3126Z" fill="#5FD58C"/>
<path d="M243.959 20.4219C244.052 28.4311 244.137 36.4318 244.145 44.4411L244.238 68.4518L243.959 68.2571L286.689 68.3079H308.05L329.411 68.4179L308.05 68.528L286.689 68.5703L243.959 68.6211H243.68V68.4179L243.773 44.4072C243.781 36.4319 243.857 28.4311 243.959 20.4219Z" fill="#A6A6A6"/>
<path d="M130.75 92.2754H28.1289V148.823H130.75V92.2754Z" fill="#EBEBEB"/>
<path d="M124.792 99.4121H43.625V104.297H124.792V99.4121Z" fill="white"/>
<path d="M99.7996 99.4121H43.625V104.297H99.7996V99.4121Z" fill="#455A64"/>
<path d="M124.792 108.76H43.625V113.645H124.792V108.76Z" fill="white"/>
<path d="M116.495 108.76H43.625V113.645H116.495V108.76Z" fill="#5FD58C"/>
<path d="M124.792 118.106H43.625V122.992H124.792V118.106Z" fill="white"/>
<path d="M95.3547 118.106H43.625V122.992H95.3547V118.106Z" fill="#455A64"/>
<path d="M124.792 127.452H43.625V132.337H124.792V127.452Z" fill="white"/>
<path d="M103.322 127.452H43.625V132.337H103.322V127.452Z" fill="#5FD58C"/>
<path d="M124.792 136.8H43.625V141.685H124.792V136.8Z" fill="white"/>
<path d="M82.4689 136.8H43.625V141.685H82.4689V136.8Z" fill="#455A64"/>
<path d="M41.0482 117.581H35.1133V123.516H41.0482V117.581Z" fill="#455A64"/>
<path d="M37.5458 121.18H36.75V120.265H37.5458C37.5458 120.198 37.5458 120.147 37.5458 120.087C37.5458 119.85 37.5458 119.605 37.5458 119.368C37.5511 119.133 37.6388 118.908 37.7936 118.731C37.9484 118.555 38.1604 118.438 38.3925 118.403C38.7252 118.381 39.0588 118.381 39.3915 118.403V119.249H39.0698C38.9655 119.241 38.8608 119.241 38.7565 119.249C38.6862 119.258 38.6214 119.292 38.5746 119.345C38.5277 119.398 38.5021 119.466 38.5025 119.537C38.5025 119.774 38.5025 120.003 38.5025 120.257H39.4085C39.4085 120.553 39.3323 120.833 39.2899 121.103C39.2899 121.103 39.2137 121.163 39.1799 121.163H38.5025V123.508H37.5458V121.18Z" fill="white"/>
<path d="M41.0482 126.928H35.1133V132.863H41.0482V126.928Z" fill="#5FD58C"/>
<path d="M38.1809 130.205H37.3342V129.688H38.7904V129.993C38.7973 130.363 38.658 130.721 38.4028 130.989C38.1477 131.256 37.7971 131.413 37.4274 131.424C37.075 131.458 36.722 131.368 36.4287 131.17C36.1354 130.972 35.9202 130.678 35.8201 130.338C35.7199 129.999 35.7411 129.635 35.8799 129.309C36.0187 128.984 36.2665 128.717 36.5807 128.554C36.8591 128.407 37.1757 128.347 37.4885 128.383C37.8014 128.42 38.0959 128.55 38.3333 128.757C38.2147 128.876 38.0962 129.003 37.9777 129.113C37.8591 129.223 37.9099 129.113 37.8761 129.113C37.7497 129.056 37.6195 129.008 37.4866 128.969C37.3641 128.943 37.2377 128.942 37.1149 128.966C36.9921 128.991 36.8755 129.039 36.772 129.11C36.6684 129.18 36.5802 129.271 36.5124 129.376C36.4446 129.481 36.3987 129.599 36.3775 129.722C36.3517 129.846 36.3508 129.973 36.3749 130.097C36.3989 130.221 36.4474 130.339 36.5176 130.444C36.5878 130.548 36.6782 130.638 36.7835 130.708C36.8889 130.777 37.007 130.825 37.131 130.848C37.2423 130.878 37.3586 130.885 37.4727 130.869C37.5868 130.853 37.6964 130.813 37.7947 130.753C37.893 130.693 37.9779 130.613 38.0443 130.519C38.1107 130.424 38.1572 130.318 38.1809 130.205Z" fill="white"/>
<path d="M40.3977 129.672V129.994C40.3977 129.994 40.3977 130.061 40.3977 130.112H39.9741V130.544H39.5336V130.121H39.1016V129.68H39.5336V129.248H39.9656V129.672H40.3977Z" fill="white"/>
<path d="M41.0482 136.275H35.1133V142.21H41.0482V136.275Z" fill="#455A64"/>
<path d="M35.8516 140.712C36.3253 140.732 36.7915 140.588 37.1723 140.306C36.622 140.145 36.4019 139.976 36.3257 139.663H36.6897C36.4889 139.604 36.3119 139.483 36.1841 139.317C36.0564 139.151 35.9844 138.949 35.9786 138.74L36.3511 138.833C35.9532 138.342 35.877 137.986 36.114 137.597C36.3518 137.882 36.646 138.115 36.9782 138.281C37.3105 138.447 37.6734 138.543 38.0444 138.562C38.0489 138.511 38.0489 138.46 38.0444 138.41C38.0332 138.225 38.0766 138.042 38.169 137.882C38.2614 137.723 38.3988 137.594 38.564 137.511C38.7292 137.429 38.915 137.398 39.0981 137.42C39.2812 137.443 39.4536 137.519 39.5937 137.639C39.622 137.664 39.6565 137.682 39.6937 137.689C39.731 137.697 39.7695 137.694 39.8054 137.681L40.2626 137.512C40.1939 137.7 40.0662 137.86 39.8985 137.969L40.3557 137.851C40.2372 137.969 40.1271 138.088 40.0001 138.198C39.9701 138.222 39.9461 138.253 39.93 138.289C39.9138 138.324 39.906 138.362 39.907 138.401C39.9098 139.066 39.6637 139.707 39.2171 140.199C38.7704 140.691 38.1557 140.998 37.494 141.06C36.9488 141.111 36.4007 140.999 35.9193 140.738L35.8516 140.712Z" fill="white"/>
<path d="M41.0912 98.8877H35.1562V104.823H41.0912V98.8877Z" fill="#455A64"/>
<path d="M40.3048 100.657C40.3159 100.527 40.299 100.396 40.2552 100.273C40.2115 100.15 40.142 100.038 40.0514 99.9442C39.9608 99.8504 39.8512 99.777 39.7299 99.7291C39.6086 99.6811 39.4784 99.6597 39.3481 99.6662C38.5015 99.6662 37.7141 99.6662 36.9013 99.6662C36.7733 99.66 36.6455 99.6809 36.5261 99.7273C36.4066 99.7738 36.2983 99.8448 36.2081 99.9358C36.1179 100.027 36.0478 100.136 36.0025 100.256C35.9571 100.375 35.9374 100.503 35.9446 100.631C35.9446 101.038 35.9446 101.478 35.9446 101.851C35.9446 102.223 35.9446 102.646 35.9446 103.044C35.9336 103.176 35.951 103.31 35.9955 103.434C36.0401 103.559 36.1108 103.673 36.203 103.769C36.2952 103.864 36.4067 103.939 36.5301 103.988C36.6534 104.036 36.7858 104.058 36.9183 104.052H39.3397C39.4695 104.058 39.5992 104.037 39.7203 103.989C39.8413 103.942 39.951 103.87 40.0422 103.777C40.1333 103.684 40.2038 103.573 40.249 103.451C40.2943 103.329 40.3133 103.199 40.3048 103.07C40.3105 102.251 40.3105 101.447 40.3048 100.657ZM39.9154 103.078C39.9247 103.156 39.9163 103.236 39.8908 103.31C39.8653 103.385 39.8233 103.453 39.768 103.509C39.7127 103.565 39.6455 103.608 39.5713 103.634C39.4972 103.661 39.418 103.67 39.3397 103.662H36.9183C36.8392 103.672 36.7591 103.663 36.6839 103.637C36.6086 103.611 36.5403 103.569 36.484 103.512C36.4277 103.456 36.385 103.388 36.359 103.313C36.333 103.237 36.3245 103.157 36.3341 103.078C36.3341 102.265 36.3341 101.453 36.3341 100.64C36.3248 100.56 36.3334 100.48 36.3594 100.405C36.3853 100.329 36.4279 100.26 36.484 100.203C36.5401 100.146 36.6082 100.103 36.6834 100.076C36.7585 100.049 36.8388 100.039 36.9183 100.047H39.3312C39.4099 100.039 39.4893 100.049 39.5638 100.075C39.6383 100.102 39.7059 100.145 39.7618 100.201C39.8177 100.257 39.8605 100.324 39.8871 100.399C39.9136 100.473 39.9233 100.553 39.9154 100.631C39.9154 101.038 39.9154 101.478 39.9154 101.859C39.9154 102.24 39.9238 102.689 39.9154 103.078Z" fill="white"/>
<path d="M38.1298 100.716C37.9017 100.71 37.6769 100.771 37.4841 100.893C37.2914 101.016 37.1396 101.193 37.0484 101.402C36.9572 101.611 36.9307 101.843 36.9723 102.067C37.0139 102.291 37.1217 102.498 37.2818 102.661C37.4419 102.823 37.647 102.934 37.8708 102.979C38.0945 103.024 38.3265 103.001 38.5371 102.913C38.7476 102.825 38.9269 102.676 39.052 102.485C39.1771 102.294 39.2422 102.071 39.2389 101.842C39.2368 101.547 39.1198 101.265 38.9127 101.054C38.7057 100.844 38.4248 100.723 38.1298 100.716ZM38.1298 102.613C37.9322 102.608 37.7439 102.527 37.6049 102.387C37.4659 102.246 37.3869 102.057 37.3848 101.859C37.4046 101.672 37.493 101.499 37.6329 101.373C37.7728 101.247 37.9543 101.178 38.1425 101.178C38.3307 101.178 38.5123 101.247 38.6522 101.373C38.7921 101.499 38.8805 101.672 38.9003 101.859C38.8992 101.961 38.8779 102.061 38.8375 102.154C38.7971 102.247 38.7385 102.332 38.6652 102.402C38.5918 102.472 38.5052 102.527 38.4103 102.563C38.3155 102.599 38.2144 102.616 38.1129 102.613H38.1298Z" fill="white"/>
<path d="M39.6117 100.683C39.6117 100.753 39.584 100.82 39.5347 100.869C39.4854 100.918 39.4185 100.946 39.3488 100.946C39.2791 100.946 39.2122 100.918 39.1629 100.869C39.1136 100.82 39.0859 100.753 39.0859 100.683C39.0881 100.648 39.097 100.615 39.1123 100.584C39.1275 100.553 39.1488 100.525 39.1748 100.502C39.2008 100.479 39.231 100.462 39.2638 100.45C39.2966 100.439 39.3312 100.435 39.3658 100.437C39.4303 100.439 39.4916 100.466 39.5373 100.511C39.583 100.557 39.6096 100.618 39.6117 100.683Z" fill="white"/>
<path d="M41.0482 108.149H35.1133V114.084H41.0482V108.149Z" fill="#5FD58C"/>
<path d="M35.8516 113.314C35.9532 112.976 36.0378 112.662 36.131 112.349C36.1646 112.256 36.1646 112.154 36.131 112.061C35.9862 111.763 35.9112 111.435 35.9114 111.103C35.9116 110.772 35.9872 110.444 36.1323 110.146C36.2774 109.847 36.4883 109.586 36.7492 109.381C37.01 109.176 37.314 109.033 37.6382 108.962C37.9624 108.892 38.2984 108.896 38.6208 108.974C38.9433 109.052 39.2438 109.202 39.4997 109.413C39.7556 109.625 39.9603 109.891 40.0983 110.193C40.2363 110.495 40.3041 110.824 40.2964 111.155C40.2725 111.702 40.0475 112.22 39.6646 112.611C39.2818 113.002 38.768 113.237 38.2222 113.272C37.8473 113.29 37.4733 113.221 37.13 113.069C37.0617 113.043 36.9866 113.043 36.9183 113.069L35.8516 113.314ZM36.3849 112.798C36.6051 112.747 36.7913 112.688 36.9776 112.654C37.007 112.641 37.0387 112.635 37.0707 112.635C37.1027 112.635 37.1344 112.641 37.1639 112.654C37.439 112.797 37.743 112.875 38.0528 112.883C38.3209 112.886 38.5866 112.831 38.8309 112.721C39.0753 112.61 39.2924 112.448 39.4669 112.244C39.6414 112.041 39.769 111.801 39.8407 111.543C39.9123 111.284 39.9263 111.013 39.8816 110.749C39.8323 110.397 39.6732 110.069 39.427 109.812C39.1808 109.555 38.86 109.382 38.51 109.318C38.1622 109.238 37.7987 109.262 37.4639 109.385C37.1291 109.509 36.8375 109.727 36.6247 110.013C36.4119 110.3 36.2871 110.642 36.2656 110.998C36.2441 111.354 36.3267 111.709 36.5035 112.019C36.5288 112.087 36.5288 112.162 36.5035 112.231C36.4802 112.421 36.4462 112.611 36.4019 112.798H36.3849Z" fill="white"/>
<path d="M37.1309 110.224C37.2833 110.021 37.478 110.055 37.5881 110.283C37.6228 110.351 37.6512 110.422 37.6728 110.495C37.7097 110.549 37.7241 110.616 37.713 110.68C37.702 110.745 37.6663 110.803 37.6135 110.842C37.5989 110.856 37.5872 110.872 37.5792 110.89C37.5712 110.908 37.5671 110.928 37.5671 110.948C37.5671 110.968 37.5712 110.987 37.5792 111.006C37.5872 111.024 37.5989 111.04 37.6135 111.054C37.7775 111.303 38.0097 111.5 38.2823 111.621C38.3163 111.64 38.3562 111.645 38.394 111.636C38.4318 111.627 38.4646 111.603 38.4855 111.57C38.6803 111.342 38.6803 111.342 38.9512 111.469L39.0443 111.519C39.0915 111.531 39.1341 111.556 39.1669 111.592C39.1996 111.628 39.2209 111.673 39.2282 111.721C39.2355 111.769 39.2283 111.818 39.2076 111.862C39.1869 111.906 39.1537 111.943 39.112 111.968C39.0344 112.047 38.9363 112.103 38.8287 112.13C38.7212 112.157 38.6082 112.154 38.5025 112.12C37.9418 111.968 37.4623 111.604 37.1648 111.105C37.0613 110.962 37.005 110.79 37.0039 110.613C37.0071 110.474 37.0513 110.339 37.1309 110.224Z" fill="white"/>
<path d="M115.949 327.158C117.803 327.76 170.837 327.065 172.835 325.761C173.605 325.279 173.953 317.541 174.113 308.185V307.897C174.113 305.967 174.173 303.977 174.173 301.971C174.173 301.691 174.173 301.412 174.173 301.124L171.633 273.608L136.159 273.964L139.655 301.217V302.301L139.867 307.94V308.515C139.867 308.515 119.683 317.828 117.634 319.522C115.585 321.215 114.087 326.566 115.949 327.158Z" fill="#FFCFC0"/>
<path d="M115.95 327.158C117.804 327.759 170.837 327.065 172.835 325.761C173.606 325.279 173.953 317.54 174.114 308.185V307.897C174.114 305.967 174.173 303.977 174.173 301.971C174.173 301.691 174.173 301.412 174.173 301.124L139.622 301.217V302.301L139.833 307.939V308.515C139.833 308.515 119.649 317.828 117.601 319.522C115.552 321.215 114.087 326.566 115.95 327.158Z" fill="#EBEBEB"/>
<path d="M115.941 327.149C116.898 327.462 131.308 327.428 145.387 327.149C148.224 327.098 151.035 327.031 153.718 326.954C163.76 326.683 172.065 326.269 172.836 325.769C173.606 325.27 173.945 317.768 174.097 308.582C174.097 308.455 174.097 308.328 174.097 308.193C174.097 308.057 174.097 307.99 174.097 307.896H174.055L139.884 307.956V308.54C139.884 308.54 119.709 317.853 117.66 319.546C115.611 321.24 114.087 326.556 115.941 327.149Z" fill="#5FD58C"/>
<path d="M116.525 325.092C125.457 324.754 161.532 324.246 170.388 324.593C170.464 324.593 170.464 324.644 170.388 324.652C161.541 325.177 125.465 325.397 116.525 325.236C116.33 325.236 116.33 325.101 116.525 325.092Z" fill="#263238"/>
<path d="M136.091 308.1C139.596 307.398 143.906 307.889 146.632 310.352C146.734 310.454 146.632 310.598 146.48 310.564C143.105 309.52 139.628 308.845 136.108 308.549C136.056 308.541 136.008 308.515 135.972 308.475C135.937 308.436 135.916 308.385 135.914 308.332C135.912 308.279 135.929 308.226 135.961 308.184C135.993 308.142 136.039 308.112 136.091 308.1Z" fill="#263238"/>
<path d="M133.567 309.666C137.081 308.964 141.39 309.446 144.108 311.918C144.21 312.011 144.108 312.164 143.964 312.13C140.588 311.092 137.112 310.416 133.593 310.115C133.533 310.118 133.475 310.098 133.431 310.058C133.386 310.019 133.359 309.963 133.356 309.903C133.352 309.844 133.373 309.785 133.413 309.741C133.452 309.696 133.508 309.67 133.567 309.666Z" fill="#263238"/>
<path d="M131.052 311.233C134.557 310.53 138.866 311.013 141.584 313.485C141.694 313.578 141.584 313.722 141.44 313.688C138.064 312.652 134.587 311.977 131.069 311.673C131.01 311.675 130.953 311.654 130.91 311.614C130.868 311.575 130.842 311.52 130.84 311.461C130.838 311.403 130.859 311.346 130.899 311.303C130.938 311.26 130.993 311.235 131.052 311.233Z" fill="#263238"/>
<path d="M145.387 327.141C148.223 327.09 151.034 327.023 153.718 326.947C163.759 326.676 172.064 326.261 172.835 325.761C173.605 325.262 173.944 317.761 174.096 308.574C174.096 308.447 174.096 308.32 174.096 308.185C174.096 308.05 174.096 307.982 174.096 307.889H174.054C169.389 311.174 152.888 322.155 145.387 327.141Z" fill="#263238"/>
<path d="M137.572 308.075H175.755C175.755 308.075 168.068 218.873 168.373 217.315C168.754 215.325 171.006 206.309 174.003 194.498C174.951 190.807 175.959 186.878 177.017 182.747C179.862 171.647 183.003 159.523 185.737 148.966C189.844 133.159 193.044 120.874 193.044 120.874H160.677C160.677 120.874 156.918 132.829 152.151 148.407C144.404 173.696 134.058 208.518 133.034 216.985C131.383 230.599 137.572 308.075 137.572 308.075Z" fill="#607FE1"/>
<path d="M139.257 301.556C145.09 301.437 143.414 301.387 149.247 301.336C152.109 301.336 170.862 301.141 173.529 301.581C173.544 301.581 173.559 301.588 173.57 301.599C173.582 301.61 173.588 301.625 173.588 301.641C173.588 301.656 173.582 301.671 173.57 301.683C173.559 301.694 173.544 301.7 173.529 301.7C170.862 302.14 152.109 301.979 149.247 301.954C143.414 301.895 145.09 301.852 139.257 301.725C139.234 301.725 139.213 301.716 139.197 301.701C139.181 301.685 139.172 301.663 139.172 301.641C139.172 301.618 139.181 301.597 139.197 301.581C139.213 301.565 139.234 301.556 139.257 301.556Z" fill="#263238"/>
<path d="M161.151 211.905C162.404 206.384 164.275 200.974 165.9 195.556C169.208 184.55 172.538 173.543 175.891 162.537C177.584 157.034 179.277 151.536 180.971 146.044C181.823 143.267 182.669 140.493 183.51 137.722C184.357 135.013 185.331 132.329 186.093 129.594C186.406 128.477 186.575 129.086 186.177 130.5C185.331 133.353 184.577 136.198 183.748 139.043C182.105 144.687 180.451 150.311 178.786 155.916C175.496 167.081 172.157 178.251 168.77 189.426C167.077 195.025 165.384 200.627 163.691 206.232C162.837 208.897 162.148 211.611 161.625 214.36C161.178 217.235 161.064 220.153 161.286 223.055C161.659 228.897 162.336 234.73 162.869 240.563L164.495 258.089C165.573 269.71 166.64 281.338 167.695 292.97C167.831 294.444 167.958 295.917 168.068 297.39C168.11 297.881 167.357 297.847 167.306 297.39C166.053 285.893 165.088 274.361 164.004 262.847C162.92 251.333 161.862 239.937 160.787 228.473C160.516 225.603 160.211 222.716 160.211 219.829C160.229 217.161 160.544 214.503 161.151 211.905Z" fill="#263238"/>
<path d="M164.352 120.874C166.604 138.256 170.888 170.826 174.003 194.532C181.31 165.881 193.044 120.874 193.044 120.874H164.352Z" fill="#263238"/>
<path d="M156.404 327.667C158.267 328.276 211.292 327.777 213.298 326.482C214.069 325.999 214.45 318.269 214.636 308.914C214.636 308.812 214.636 308.719 214.636 308.617C214.678 306.687 214.712 304.706 214.721 302.691C214.721 302.42 214.721 302.141 214.721 301.844C214.848 288.349 213.874 274.337 213.874 274.337L179.213 274.566L180.178 301.819V302.894L180.372 308.541V309.117C180.372 309.117 160.163 318.43 158.106 320.047C156.048 321.664 154.55 327.049 156.404 327.667Z" fill="#FFCFC0"/>
<path d="M156.404 327.666C158.267 328.276 211.292 327.776 213.298 326.481C214.069 325.998 214.45 318.269 214.636 308.913C214.636 308.812 214.636 308.718 214.636 308.617C214.678 306.687 214.712 304.705 214.721 302.69C214.721 302.419 214.721 302.14 214.721 301.844H180.178V302.919L180.372 308.566V309.142C180.372 309.142 160.163 318.455 158.106 320.072C156.048 321.689 154.55 327.048 156.404 327.666Z" fill="#EBEBEB"/>
<path d="M156.402 327.666C158.264 328.276 211.29 327.776 213.296 326.481C214.067 325.998 214.448 318.269 214.634 308.913C214.634 308.812 214.634 308.718 214.634 308.617L180.413 308.558V309.133C180.413 309.133 160.203 318.446 158.146 320.063C156.089 321.681 154.548 327.048 156.402 327.666Z" fill="#5FD58C"/>
<path d="M156.987 325.609C165.928 325.304 202.003 324.923 210.859 325.304C210.927 325.304 210.927 325.355 210.859 325.364C202.003 325.855 165.928 325.939 156.987 325.753C156.801 325.745 156.801 325.609 156.987 325.609Z" fill="#263238"/>
<path d="M176.623 308.684C180.128 307.998 184.437 308.498 187.146 310.978C187.256 311.072 187.146 311.224 187.002 311.19C183.632 310.134 180.158 309.444 176.639 309.133C176.587 309.125 176.539 309.099 176.503 309.059C176.468 309.019 176.447 308.969 176.445 308.915C176.443 308.862 176.46 308.81 176.492 308.768C176.525 308.726 176.571 308.696 176.623 308.684Z" fill="#263238"/>
<path d="M174.091 310.243C177.604 309.548 181.914 310.048 184.623 312.537C184.733 312.63 184.623 312.774 184.479 312.74C181.108 311.688 177.634 310.998 174.116 310.683C174.058 310.686 174 310.666 173.957 310.627C173.913 310.589 173.887 310.534 173.883 310.475C173.88 310.417 173.9 310.36 173.939 310.316C173.978 310.272 174.032 310.246 174.091 310.243Z" fill="#263238"/>
<path d="M171.564 311.808C175.077 311.122 179.387 311.622 182.096 314.102C182.198 314.196 182.096 314.348 181.944 314.314C178.574 313.257 175.099 312.567 171.581 312.257C171.528 312.249 171.48 312.223 171.445 312.183C171.409 312.143 171.389 312.093 171.387 312.039C171.385 311.986 171.401 311.934 171.434 311.892C171.466 311.85 171.512 311.82 171.564 311.808Z" fill="#263238"/>
<path d="M161.727 120.874C161.727 120.874 162.472 136.359 166.019 148.627C166.298 149.643 166.612 150.642 166.942 151.599C170.185 152.91 173.303 154.514 176.255 156.391C176.255 156.391 176.627 168.853 177 182.747C177.415 198.282 177.847 215.605 177.753 219.279C177.432 233.029 179.447 308.634 179.447 308.634L217.63 308.786C217.63 308.786 210.73 224.359 210.772 219.321C210.849 211.228 208.927 175.44 207.445 149.347C206.531 133.26 205.752 120.874 205.752 120.874H161.727Z" fill="#607FE1"/>
<path d="M180.803 301.843C186.637 301.742 184.96 301.691 190.794 301.657C193.647 301.657 212.409 301.555 215.075 302.013C215.126 302.013 215.126 302.123 215.075 302.131C212.4 302.563 193.647 302.317 190.794 302.275C184.96 302.199 186.628 302.157 180.803 302.013C180.781 302.013 180.759 302.004 180.744 301.988C180.728 301.972 180.719 301.95 180.719 301.928C180.719 301.906 180.728 301.884 180.744 301.868C180.759 301.852 180.781 301.843 180.803 301.843Z" fill="#263238"/>
<path d="M202.639 126.394C203.342 147.695 204.087 168.997 205.044 190.29C206 211.583 207.287 233.02 209.074 254.33C210.073 266.242 211.012 282.988 212.299 294.867C212.294 294.88 212.286 294.891 212.274 294.899C212.263 294.907 212.25 294.911 212.236 294.911C212.222 294.911 212.208 294.907 212.197 294.899C212.186 294.891 212.177 294.88 212.172 294.867C209.395 273.701 207.846 247.607 206.474 226.348C205.103 205.089 204.18 183.787 203.46 162.494C203.045 150.447 202.732 138.399 202.377 126.351C202.351 126.224 202.639 126.241 202.639 126.394Z" fill="#263238"/>
<path d="M165.386 150.676C169.186 152.26 172.84 154.173 176.308 156.391C176.331 156.409 176.347 156.436 176.353 156.465C176.359 156.494 176.355 156.524 176.341 156.551C176.326 156.577 176.304 156.597 176.276 156.608C176.248 156.619 176.218 156.62 176.189 156.611C172.506 154.825 168.747 153.106 165.183 151.116C165.134 151.084 165.099 151.035 165.083 150.979C165.068 150.923 165.072 150.863 165.097 150.81C165.121 150.757 165.164 150.714 165.217 150.69C165.27 150.665 165.33 150.66 165.386 150.676Z" fill="#263238"/>
<path d="M165.139 137.536C165.393 138.89 165.723 140.236 165.986 141.583C166.248 142.929 166.469 144.123 166.833 145.392C167.11 146.604 167.727 147.711 168.611 148.584C169.11 149.041 169.652 149.431 170.185 149.88C170.465 150.108 170.778 150.32 171.074 150.557C171.032 150.371 171.007 150.193 170.973 150.007C170.88 149.49 170.795 148.982 170.71 148.466C170.515 147.323 170.329 146.171 170.16 145.028C169.813 142.776 169.499 140.499 169.025 138.255C169.031 138.24 169.04 138.227 169.053 138.218C169.066 138.209 169.081 138.204 169.097 138.204C169.113 138.204 169.129 138.209 169.141 138.218C169.154 138.227 169.164 138.24 169.169 138.255C169.728 140.465 170.346 142.649 170.863 144.876C171.1 145.968 171.955 151.361 171.997 151.751C172.039 152.14 172.065 152.538 172.082 152.936C172.128 153.338 172.128 153.745 172.082 154.147C172.082 154.24 171.938 154.223 171.895 154.147C171.733 153.773 171.619 153.381 171.557 152.978C171.455 152.589 171.371 152.199 171.303 151.81C171.303 151.666 171.252 151.522 171.235 151.378C170.702 151.056 170.211 150.625 169.711 150.269C169.212 149.914 168.636 149.499 168.128 149.075C167.19 148.285 166.514 147.228 166.189 146.044C165.863 144.776 165.651 143.481 165.554 142.175C165.385 140.634 165.258 139.093 165.046 137.57C164.987 137.476 165.122 137.443 165.139 137.536Z" fill="#263238"/>
<path d="M176.747 78.3734C175.307 84.2999 159.687 116.184 159.814 118.166C159.814 118.64 169.262 124.939 169.491 125.709C170.431 128.749 154.929 141.592 151.534 142.354C141.56 144.606 132.848 144.14 133.026 135.953C133.306 123.11 155.885 91.3016 167.451 80.0751C175.053 72.667 178.169 72.5654 176.747 78.3734Z" fill="#FFCFC0"/>
<path d="M147.73 143.885L166.077 120.874C166.077 120.874 160.599 118.893 160.481 117.614C160.362 116.336 173.629 89.0401 176.499 81.0139C179.369 72.9878 177.143 71.3284 168.541 78.2116C159.939 85.0947 128.021 129.696 132.753 139.627C136.013 146.476 147.73 143.885 147.73 143.885Z" fill="#5FD58C"/>
<path d="M160.472 117.766C159.659 117.969 158.867 118.253 158.11 118.613C157.343 118.952 156.581 119.299 155.824 119.654C154.326 120.349 152.836 121.068 151.388 121.864C149.94 122.66 148.535 123.507 147.155 124.404L146.173 125.014L145.783 125.149C145.233 125.344 144.683 125.555 144.158 125.801C143.132 126.28 142.14 126.826 141.186 127.435C141.118 127.477 141.186 127.579 141.254 127.545C142.247 126.985 143.28 126.498 144.344 126.089L144.767 125.936C144.208 126.309 143.667 126.698 143.142 127.113C141.734 128.199 140.397 129.373 139.137 130.627C139.078 130.686 139.137 130.771 139.23 130.712C141.499 128.51 144.369 126.919 147.104 125.369C149.839 123.82 152.709 122.033 155.57 120.45C156.417 119.993 157.204 119.561 158.043 119.146C158.896 118.776 159.73 118.36 160.54 117.902C160.556 117.892 160.567 117.876 160.572 117.858C160.577 117.84 160.575 117.821 160.567 117.804C160.558 117.787 160.544 117.774 160.527 117.767C160.509 117.76 160.49 117.76 160.472 117.766Z" fill="#263238"/>
<path d="M209.808 143.886C209.673 144.021 153.727 140.194 153.253 139.576C152.601 138.729 169.559 79.0244 175.841 71.9464C177.179 70.431 185.052 68.8223 189.26 72.7931C198.184 81.2595 204.441 108.437 205.753 116.598C207.929 130.068 210.308 143.386 209.808 143.886Z" fill="#5FD58C"/>
<path d="M169.618 84.6464C169.618 84.5533 169.491 84.4856 169.457 84.5787C168.534 86.8816 167.679 89.2098 166.841 91.5381C166.883 91.2079 166.917 90.8692 166.942 90.5391C167.01 89.6501 167.001 88.7611 167.078 87.8806C167.078 87.7959 166.951 87.7959 166.951 87.8806C166.9 88.795 166.73 89.6924 166.595 90.5983C166.46 91.5042 166.366 92.2239 166.231 93.0367L166.155 93.4684C164.8 97.3545 163.53 101.274 162.286 105.194C160.084 112.179 158.052 119.232 156.147 126.301C155.064 130.289 154.116 134.302 153.227 138.332C153.231 138.345 153.24 138.356 153.251 138.364C153.263 138.372 153.276 138.376 153.29 138.376C153.304 138.376 153.317 138.372 153.329 138.364C153.34 138.356 153.349 138.345 153.354 138.332C155.428 131.339 157.434 124.32 159.5 117.327C161.397 110.884 163.395 104.475 165.427 98.0657C165.436 98.0713 165.447 98.0746 165.459 98.0755C165.47 98.0763 165.481 98.0747 165.492 98.0706C165.502 98.0666 165.512 98.0602 165.52 98.0521C165.527 98.0439 165.533 98.0341 165.537 98.0234L165.969 96.3301C167.205 92.4779 168.458 88.5749 169.618 84.6464Z" fill="#263238"/>
<path d="M174.402 74.4274C174.072 76.9674 173.47 82.8261 177.475 82.7415C179.097 82.5684 180.635 81.9305 181.903 80.9042C183.223 79.9785 184.436 78.9079 185.518 77.7124C186.781 76.4165 187.934 75.0175 188.964 73.53C188.964 73.4707 189.108 73.53 189.057 73.6062C188.007 75.0963 187.11 76.6541 185.916 78.0341C184.78 79.3866 183.467 80.5798 182.013 81.5816C180.658 82.6315 179.017 83.2456 177.306 83.3426C176.564 83.3272 175.85 83.0558 175.285 82.5744C174.721 82.093 174.34 81.4312 174.207 80.701C173.807 78.6212 173.873 76.4785 174.402 74.4274Z" fill="#263238"/>
<path d="M192.937 85.1881C206.551 95.3478 222.366 100.826 228.902 98.2687C233.982 96.2707 250.432 81.2089 253.124 69.0342C253.717 66.3504 233.084 63.9544 232.271 65.7577C229.892 70.9392 220.588 79.939 219.64 79.8035C218.403 79.6342 204.324 76.6201 193.207 74.004C179.78 70.846 185.495 79.6511 192.937 85.1881Z" fill="#FFCFC0"/>
<path d="M256.823 64.6826C255.748 69.0428 250.05 77.1113 247.925 78.5251C245.8 79.939 231.78 70.7106 231.577 68.103C231.373 65.4953 236.148 51.077 239.789 48.2916C243.43 45.5061 257.975 60.1615 256.823 64.6826Z" fill="#FFCFC0"/>
<path d="M231.992 65.5031C231.486 61.9077 230.46 58.4053 228.944 55.1063C226.996 51.2372 223.669 45.7086 225.709 44.5826C229.9 42.2712 238.197 56.0546 238.197 56.0546C238.197 56.0546 240.881 62.7261 236.927 65.3676C236.197 65.8432 235.35 66.1076 234.479 66.1315C233.607 66.1554 232.747 65.9379 231.992 65.5031Z" fill="#FFCFC0"/>
<path d="M235.08 53.7101C236.773 55.3442 238.06 53.8456 238.06 53.8456C238.06 53.8456 235.52 57.7063 237.163 59.7721C238.805 61.8379 241.396 59.0778 241.599 58.9254C241.464 59.1286 239.229 62.7353 241.083 64.6403C242.937 66.5452 245.223 63.4719 245.367 63.2687C245.299 63.5058 244.52 66.6045 246.214 67.722C249.202 69.6609 251.454 61.7956 254.028 60.5002C254.028 60.5002 256.72 64.6149 256.822 64.7334C256.924 64.8519 259.116 57.2914 257.178 53.9133C256.902 53.4177 256.466 53.0309 255.941 52.8169C255.416 52.6029 254.834 52.5746 254.29 52.7365C254.29 52.7365 255.298 50.4167 253.884 48.8674C253.148 48.08 251.234 48.5456 251.234 48.5456C251.434 48.0081 251.482 47.426 251.373 46.863C251.264 46.3 251.002 45.7779 250.616 45.3538C249.549 44.3209 247.797 44.9474 247.797 44.9474C247.797 44.9474 254.841 35.6344 252.733 33.9411C249.092 30.9694 236.757 50.8739 234.691 51.0432C233.709 51.0856 234.327 52.9905 235.08 53.7101Z" fill="#FFCFC0"/>
<path d="M251.301 48.4266C251.301 48.4266 251.301 48.3335 251.25 48.3589C246.819 50.5788 243.329 54.312 241.412 58.8826C241.353 59.0435 241.455 59.2551 241.539 59.0773C242.987 56.0294 247.923 50.8057 251.301 48.4266Z" fill="#263238"/>
<path d="M245.348 63.6075C247.27 59.1542 250.428 55.7676 254.153 52.7536C254.204 52.7536 254.153 52.652 254.094 52.6689C251.859 53.651 249.683 55.8184 248.168 57.6471C246.687 59.331 245.677 61.3751 245.238 63.5736C245.179 63.6244 245.306 63.743 245.348 63.6075Z" fill="#263238"/>
<path d="M237.984 53.8535C237.9 54.0059 238.424 53.9128 238.348 54.0652C237.544 55.7585 236.257 58.8233 237.502 59.7885C238.484 60.5504 240.194 59.7885 240.736 59.2128L242.09 57.8073L241.303 59.6022C240.942 60.4064 240.716 61.2645 240.634 62.1421C240.574 62.5399 240.598 62.9458 240.705 63.3337C240.811 63.7215 240.998 64.0828 241.252 64.3942C241.494 64.6816 241.826 64.8772 242.195 64.9481C242.563 65.019 242.945 64.9609 243.276 64.7837C244.007 64.3819 244.622 63.7987 245.062 63.0904L246.349 61.1685L245.765 63.3952C245.598 64.0163 245.515 64.657 245.519 65.3001C245.502 65.896 245.658 66.4842 245.968 66.9934C246.12 67.2195 246.332 67.3987 246.58 67.5108C246.829 67.623 247.103 67.6637 247.373 67.6284C247.97 67.4624 248.505 67.1271 248.914 66.6632C249.82 65.6772 250.647 64.6213 251.387 63.5052C251.784 62.9549 252.182 62.4046 252.597 61.8712C252.99 61.3107 253.498 60.8403 254.087 60.4912C253.55 60.8973 253.096 61.4032 252.75 61.9813C252.377 62.54 252.03 63.1158 251.674 63.6745C250.996 64.8734 250.208 66.0071 249.321 67.0611C248.848 67.6345 248.218 68.058 247.509 68.2803C247.112 68.3613 246.7 68.3242 246.324 68.1738C245.948 68.0233 245.624 67.766 245.392 67.4336C244.976 66.8009 244.761 66.0573 244.774 65.3001C244.767 64.5871 244.85 63.876 245.02 63.1835L245.723 63.4883C245.213 64.3369 244.492 65.0397 243.631 65.5287C243.143 65.7851 242.58 65.863 242.04 65.7488C241.512 65.6127 241.039 65.317 240.685 64.9022C240.357 64.5106 240.116 64.0535 239.979 63.5615C239.842 63.0695 239.811 62.5538 239.889 62.049C239.998 61.0983 240.261 60.1718 240.668 59.3059L241.235 59.6953C240.524 60.3811 238.695 61.4648 237.044 60.4573C235.046 58.8233 237.485 54.5986 237.984 53.8535Z" fill="#263238"/>
<path d="M229.325 68.2979L249.687 80.9043C249.687 80.9043 234.811 100.021 225.066 100.242C215.321 100.462 192.894 89.8787 185.765 82.0219C179.602 75.2488 186.51 71.659 192.894 73.5555C199.278 75.452 219.267 79.3804 219.826 79.0925C220.384 78.8047 229.325 68.2979 229.325 68.2979Z" fill="#5FD58C"/>
<path d="M245.944 84.6719C245.25 84.1173 244.524 83.6056 243.768 83.1395L241.414 81.5224C239.907 80.498 238.341 79.5582 236.783 78.61C233.617 76.6796 230.459 74.69 227.148 73.0137C227.089 73.0137 227.013 73.0729 227.072 73.1153C230.01 75.2996 233.143 77.2215 236.241 79.1603C237.782 80.1339 239.323 81.116 240.898 82.0219L243.285 83.3512C244.118 83.8728 244.983 84.3395 245.876 84.7481C245.927 84.782 245.995 84.7142 245.944 84.6719Z" fill="#263238"/>
<path d="M199.539 91.5972C197.201 90.25 194.604 89.416 191.919 89.1504C191.906 89.1552 191.895 89.1639 191.887 89.1752C191.879 89.1866 191.875 89.2001 191.875 89.2139C191.875 89.2277 191.879 89.2412 191.887 89.2526C191.895 89.2639 191.906 89.2726 191.919 89.2774C192.918 89.5653 193.875 89.9716 194.874 90.2934L195.475 90.4796H194.95L193.257 90.395C193.198 90.395 193.189 90.4796 193.257 90.4881C193.808 90.6516 194.376 90.7511 194.95 90.7844C195.38 90.8012 195.81 90.7842 196.237 90.7336H196.347C196.787 90.8521 199.09 91.6818 199.539 91.7157C199.556 91.7326 199.573 91.6818 199.539 91.5972Z" fill="#263238"/>
<path d="M177.49 80.0318C180.334 80.5059 185.448 75.5107 187.124 71.9209C187.234 71.6754 186.709 69.1863 186.21 66.1384C185.905 64.2927 185.626 62.2184 185.499 60.3135C185.499 59.924 184.186 60.7284 184.186 60.7284L181.765 61.4903L173.73 64.0303C174.57 66.3703 175.122 68.804 175.373 71.2775C175.394 71.5395 175.394 71.8029 175.373 72.0649C175.373 72.0649 175.373 72.1411 175.373 72.1919C175.187 73.665 174.738 79.5661 177.49 80.0318Z" fill="#FFCFC0"/>
<path d="M175.342 72.0395C175.342 72.0395 175.342 72.1157 175.342 72.1665C175.754 72.2 176.167 72.2 176.578 72.1665C184.613 71.4553 184.943 61.1602 184.943 61.1602L181.777 61.5073L173.742 64.0472C174.582 66.3873 175.134 68.821 175.385 71.2944C175.39 71.5435 175.376 71.7926 175.342 72.0395Z" fill="#263238"/>
<path d="M172.377 42.1191C172.377 42.1191 168.483 43.6262 167.678 47.5207C166.874 51.4153 167.678 55.5469 168.009 55.7501C168.339 55.9533 172.377 42.1191 172.377 42.1191Z" fill="#263238"/>
<path d="M187.973 47.953C189.099 52.2455 186.382 64.4202 183.258 67.0363C178.728 70.8293 171.549 70.9309 168.382 65.5378C165.317 60.3055 169.144 44.5072 172.615 42.1535C177.721 38.6908 186.306 41.6032 187.973 47.953Z" fill="#FFCFC0"/>
<path d="M176.933 55.4463C176.933 55.4463 176.993 55.4971 176.984 55.531C176.789 56.3776 176.705 57.3174 177.391 57.7492C176.493 57.4782 176.62 56.1913 176.933 55.4463Z" fill="#263238"/>
<path d="M177.848 54.7355C179.195 54.9048 178.754 57.5886 177.51 57.4278C176.265 57.2669 176.722 54.6 177.848 54.7355Z" fill="#263238"/>
<path d="M172.159 54.5322C172.159 54.5322 172.091 54.5322 172.082 54.5915C171.972 55.4381 171.71 56.361 170.914 56.5134V56.5642C171.812 56.5896 172.159 55.3365 172.159 54.5322Z" fill="#263238"/>
<path d="M171.532 53.5832C170.211 53.27 169.669 55.9284 170.888 56.2247C172.107 56.5211 172.632 53.8118 171.532 53.5832Z" fill="#263238"/>
<path d="M179.102 53.6849C178.768 53.5239 178.443 53.3458 178.128 53.1516C177.756 52.9399 177.434 52.8129 177.239 52.415C177.192 52.297 177.186 52.1665 177.223 52.0449C177.26 51.9233 177.338 51.8179 177.442 51.7461C177.669 51.6324 177.921 51.5804 178.173 51.5953C178.426 51.6101 178.67 51.6914 178.882 51.8308C179.351 52.0545 179.722 52.4433 179.923 52.923C179.963 53.0353 179.969 53.1569 179.941 53.2727C179.913 53.3885 179.851 53.4934 179.764 53.5745C179.676 53.6556 179.567 53.7093 179.449 53.7289C179.332 53.7486 179.211 53.7333 179.102 53.6849Z" fill="#263238"/>
<path d="M170.709 52.0258C171.08 52.0133 171.45 51.9794 171.818 51.9242C172.214 51.9433 172.606 51.8334 172.935 51.611C173.023 51.5182 173.078 51.3993 173.092 51.2724C173.106 51.1455 173.077 51.0176 173.012 50.9082C172.851 50.7125 172.64 50.5636 172.401 50.4772C172.163 50.3908 171.906 50.3701 171.657 50.4172C171.137 50.4319 170.642 50.6402 170.268 51.0014C170.188 51.0879 170.135 51.1959 170.114 51.3123C170.094 51.4287 170.108 51.5484 170.155 51.6569C170.202 51.7655 170.279 51.8581 170.377 51.9236C170.475 51.9891 170.591 52.0246 170.709 52.0258Z" fill="#263238"/>
<path d="M176.391 62.9893C176.153 63.1502 175.916 63.3874 175.611 63.362C175.307 63.3031 175.019 63.1819 174.764 63.0062C174.764 63.0062 174.705 63.0062 174.722 63.0062C174.812 63.1891 174.951 63.344 175.122 63.4544C175.294 63.5648 175.492 63.6266 175.696 63.6331C175.874 63.6231 176.045 63.5571 176.183 63.4445C176.321 63.332 176.421 63.1786 176.467 63.0062C176.518 62.9893 176.458 62.9639 176.391 62.9893Z" fill="#263238"/>
<path d="M175.961 60.3558C175.696 60.6489 175.373 60.8843 175.014 61.0474C174.654 61.2106 174.264 61.2979 173.869 61.304C173.524 61.312 173.178 61.2692 172.845 61.177C172.781 61.1702 172.718 61.1531 172.659 61.1262L172.481 61.067C172.437 61.0534 172.399 61.0246 172.374 60.9859C172.35 60.9472 172.339 60.9009 172.345 60.8553C172.342 60.8272 172.342 60.7988 172.345 60.7706V60.6944C172.43 60.051 172.65 59.0943 172.65 59.0943C172.405 59.1705 171.126 59.5091 171.194 59.179C171.744 56.3141 172.581 53.5117 173.692 50.8141C173.702 50.7999 173.717 50.7894 173.734 50.7841C173.751 50.7788 173.769 50.779 173.786 50.7846C173.803 50.7902 173.818 50.801 173.828 50.8154C173.838 50.8298 173.844 50.8472 173.844 50.8649C173.353 53.5149 172.396 56.0633 171.863 58.7133C172.321 58.5892 172.794 58.5266 173.268 58.527C173.353 58.527 172.803 60.3812 172.786 60.669C173.301 60.8071 173.838 60.84 174.366 60.7658C174.894 60.6916 175.402 60.5119 175.859 60.2373C175.961 60.2373 176.02 60.305 175.961 60.3558Z" fill="#263238"/>
<path d="M173.273 60.924C173.548 61.438 173.95 61.8725 174.442 62.1855C174.714 62.3504 175.031 62.4245 175.348 62.3972C176.042 62.3294 176.152 61.7199 176.118 61.1865C176.098 60.8982 176.041 60.6137 175.949 60.3398C175.143 60.8168 174.205 61.0217 173.273 60.924Z" fill="#263238"/>
<path d="M174.445 62.1851C174.717 62.3501 175.035 62.4243 175.352 62.3969C176.046 62.3291 176.156 61.7192 176.123 61.1855C175.772 61.1409 175.416 61.215 175.112 61.3962C174.808 61.5773 174.573 61.8551 174.445 62.1851Z" fill="#FF98B9"/>
<path d="M186.017 57.8165C183.477 57.8165 183.798 46.7509 183.798 46.7509C182.324 47.4363 180.754 47.8931 179.142 48.1055C177.504 48.206 175.859 48.1208 174.24 47.8516C173.893 47.75 178.244 46.0567 178.244 46.0567C178.244 46.0567 167.331 48.0971 166.756 46.0567C166.561 45.354 171.539 37.8697 179.074 38.4369C184.645 38.8264 187.744 44.5666 187.744 44.5666C187.744 44.5666 190.419 47.5637 190.284 49.3162C190.131 51.5937 188.675 57.8165 186.017 57.8165Z" fill="#263238"/>
<path d="M184.961 57.8163C184.961 57.8163 187.966 54.0233 189.71 55.1155C191.454 56.2077 189.024 61.8294 186.866 62.4897C186.594 62.5938 186.305 62.6418 186.014 62.6309C185.724 62.6199 185.439 62.5502 185.176 62.426C184.913 62.3018 184.678 62.1256 184.486 61.9081C184.293 61.6906 184.146 61.4363 184.055 61.1605L184.961 57.8163Z" fill="#FFCFC0"/>
<path d="M188.972 56.7324C188.972 56.7324 188.972 56.7324 188.972 56.7917C188.273 57.0887 187.644 57.5293 187.126 58.085C186.608 58.6407 186.213 59.2991 185.966 60.0174C186.06 59.8738 186.184 59.7523 186.329 59.6615C186.474 59.5708 186.638 59.5129 186.808 59.4919C186.978 59.471 187.151 59.4874 187.314 59.5402C187.477 59.5929 187.627 59.6806 187.752 59.7973C187.752 59.7973 187.752 59.8819 187.71 59.8735C187.455 59.7769 187.176 59.7608 186.911 59.8274C186.646 59.894 186.408 60.0401 186.229 60.246C185.937 60.5975 185.682 60.9776 185.467 61.3805C185.39 61.5159 185.153 61.4228 185.213 61.2789C185.314 59.357 186.931 56.8002 188.972 56.7324Z" fill="#263238"/>
<path d="M175.289 71.9636L178.201 78.9907L186.879 69.957L189.419 72.7933C189.419 72.7933 180.953 87.0846 180.953 86.4496L177.973 80.3961L173.824 84.6801L174.044 74.0378L175.289 71.9636Z" fill="#EBEBEB"/>
<path d="M173.589 79.4139C173.691 77.6614 173.733 75.8919 173.911 74.1394C173.911 74.0801 174.013 74.0462 174.03 74.1394C174.402 75.8326 174.03 82.5381 174.03 84.1467C174.199 83.9604 177.882 80.3707 177.916 80.4299C178.559 81.3866 180.744 85.7976 180.896 86.1955C182.225 83.9265 187.339 75.6718 188.922 73.4959C188.925 73.4882 188.93 73.4813 188.936 73.4756C188.943 73.4699 188.95 73.4656 188.958 73.463C188.966 73.4603 188.974 73.4594 188.983 73.4603C188.991 73.4612 188.999 73.4638 189.006 73.468C189.014 73.4723 189.02 73.478 189.025 73.4848C189.03 73.4917 189.033 73.4995 189.035 73.5077C189.036 73.516 189.036 73.5245 189.034 73.5326C189.032 73.5408 189.029 73.5485 189.024 73.5552C187.855 75.9512 181.099 87.1014 180.989 87.0337C179.841 84.9553 178.801 82.8189 177.873 80.6331C177.255 81.412 173.547 85.459 173.53 85.1965C173.448 83.2693 173.468 81.3391 173.589 79.4139Z" fill="#263238"/>
<path d="M201.318 131.973H162.152V134.259H201.318V131.973Z" fill="#455A64"/>
<path d="M185.96 131.973H162.152V134.259H185.96V131.973Z" fill="#263238"/>
<path d="M181.841 134.294L132.271 134.302L125.176 100.462H174.755L181.841 134.294Z" fill="#455A64"/>
<path d="M156.529 117.377C156.582 117.76 156.551 118.149 156.439 118.518C156.326 118.887 156.135 119.228 155.878 119.516C155.622 119.804 155.305 120.033 154.951 120.187C154.597 120.341 154.214 120.417 153.828 120.408C153.001 120.388 152.209 120.07 151.596 119.514C150.984 118.957 150.592 118.199 150.493 117.377C150.441 116.995 150.473 116.606 150.586 116.238C150.699 115.869 150.89 115.529 151.147 115.241C151.403 114.953 151.719 114.724 152.072 114.57C152.425 114.415 152.808 114.339 153.193 114.346C154.021 114.365 154.814 114.682 155.427 115.239C156.04 115.795 156.431 116.555 156.529 117.377Z" fill="#263238"/>
<path d="M142.223 136.309C145.279 138.002 148.996 141.922 151.536 142.362C152.159 142.497 152.809 142.426 153.389 142.16C153.969 141.895 154.447 141.449 154.753 140.889C154.753 140.889 155.896 143.514 158.275 143.531C159.503 143.531 160.595 141.6 160.595 141.6C160.885 142.18 161.329 142.669 161.879 143.012C162.428 143.356 163.062 143.541 163.71 143.547C165.404 143.463 166.25 141.524 166.25 141.524C166.25 141.524 168.138 143.056 169.832 142.371C173.218 141.067 174.014 126.589 168.799 124.075C166.369 122.898 166.377 126.445 166.377 126.445C166.377 126.445 165.141 121.366 162.144 121.12C159.147 120.874 159.46 125.548 159.46 125.548C159.46 125.548 158.216 120.62 155.1 120.688C151.857 120.764 152.933 125.319 152.933 125.319C152.933 125.319 150.926 121.984 148.547 122.585C144.636 123.575 149.08 131.136 148.158 134.277H142.976L142.223 136.309Z" fill="#FFCFC0"/>
<path d="M146.625 139.136C143.594 137.824 142.138 139.983 139.006 139.576C135.484 139.119 136.626 134.988 142.815 134.251H148.175L146.625 139.136Z" fill="#FFCFC0"/>
<path d="M160.61 141.634C160.61 141.693 160.694 141.701 160.711 141.634C162.294 136.238 161.894 130.454 159.585 125.327C159.5 125.149 159.246 125.073 159.323 125.327C160.728 128.883 161.253 137.028 160.61 141.634Z" fill="#263238"/>
<path d="M152.619 124.989C154.828 130.018 155.201 135.259 154.812 140.686C154.812 140.701 154.818 140.716 154.829 140.728C154.84 140.739 154.855 140.745 154.871 140.745C154.887 140.745 154.902 140.739 154.913 140.728C154.924 140.716 154.93 140.701 154.93 140.686C155.844 138.078 155.734 134.59 155.413 131.881C155.163 129.362 154.261 126.952 152.797 124.887C152.737 124.828 152.568 124.879 152.619 124.989Z" fill="#263238"/>
<path d="M302.906 216.986C303.163 212.71 303.769 208.463 304.718 204.286C305.615 200.51 306.894 196.666 309.273 193.542C311.44 190.697 314.564 188.462 318.188 187.988C321.676 187.556 324.961 189.114 327.569 191.315C330.811 194.042 333.292 197.648 335.612 201.145C338.162 205.063 340.483 209.125 342.563 213.311C342.63 213.447 342.419 213.565 342.351 213.421C340.551 209.876 338.473 206.479 336.137 203.262C334.011 200.17 331.617 197.271 328.982 194.6C326.586 192.255 323.539 190.071 320.067 189.961C316.596 189.851 313.421 191.79 311.339 194.448C309.01 197.428 307.833 201.153 306.944 204.777C306.029 208.765 305.429 212.819 305.15 216.901C304.472 225.283 304.303 233.724 304.091 242.139C303.99 246.897 303.919 251.656 303.88 256.414C303.88 258.829 303.86 261.242 303.82 263.652C303.91 265.982 303.816 268.314 303.541 270.629C303.465 271.103 302.694 271.052 302.618 270.629C302.337 268.437 302.23 266.226 302.296 264.016C302.296 261.731 302.237 259.445 302.22 257.159C302.178 252.714 302.152 248.26 302.169 243.816C302.195 234.875 302.305 225.918 302.906 216.986Z" fill="#263238"/>
<path d="M314.897 210.695C315.346 208.324 316.142 205.226 317.496 203.389C319.926 200.087 322.576 201.526 320.121 205.183C318.332 207.898 317.175 210.979 316.734 214.2C316.734 214.2 320.815 220.033 325.743 222.904C325.531 220.66 324.896 217.214 325.336 213.887C326.276 206.682 330.636 207.114 329.57 212.812C328.723 217.4 328.35 222.269 328.579 224.385C330.227 225.439 331.995 226.291 333.845 226.925C333.566 226.078 333.269 225.088 332.931 223.877C331.187 217.417 335.471 215.411 335.631 219.034C335.911 222.134 336.478 225.2 337.325 228.195C339.687 228.991 341.643 229.533 342.845 229.956C345.951 231.103 348.725 232.999 350.922 235.476C353.163 233.447 355.027 231.036 356.425 228.356C354.918 227.061 352.539 225.13 349.237 222.802C343.04 218.425 345.199 212.905 350.084 216.342C353.631 218.814 356.374 223.403 357.619 225.765C359.294 221.662 360.245 217.299 360.43 212.871C355.561 208.299 343.497 201.941 347.163 201.941C350.422 201.941 357.729 206.724 360.404 208.57C360.333 207.313 360.194 206.061 359.989 204.819C355.409 201.822 340.517 197.149 342.896 195.803C345.503 194.329 355.892 199.138 359.024 200.662C358.436 198.621 357.505 196.695 356.273 194.964C349.948 186.498 338.535 183.569 333.557 185.186C330.027 186.329 331.06 195.269 330.306 194.964C316.133 189.3 309.69 193.33 314.897 210.695ZM349.61 209.713C350.609 208.502 355.257 212.067 353.91 214.022C352.564 215.978 348.306 211.271 349.601 209.713H349.61ZM325.336 202.093C326.556 202.872 324.752 207.393 322.864 206.022C321.256 204.845 324.092 201.306 325.328 202.085L325.336 202.093Z" fill="#5FD58C"/>
<path d="M327.171 203.439C327.814 202.177 328.483 200.899 329.211 199.705C329.881 198.505 330.664 197.371 331.548 196.319L330.947 195.574C330.862 195.48 331.006 195.337 331.091 195.438C331.328 195.709 331.556 195.98 331.785 196.285C331.828 196.309 331.862 196.348 331.878 196.395C332.725 197.445 333.571 198.528 334.367 199.629C335.761 199.947 337.135 200.345 338.482 200.823C339.87 201.288 341.242 201.771 342.597 202.338C342.732 202.398 342.664 202.626 342.52 202.567C341.183 201.974 339.828 201.399 338.448 200.933C337.068 200.467 335.798 200.154 334.469 199.773C334.901 200.383 335.315 201.001 335.739 201.627C338.237 202.416 340.666 203.407 343.003 204.59C345.458 205.759 347.829 207.13 350.182 208.476C350.309 208.553 350.182 208.756 350.055 208.68C347.742 207.327 345.359 206.095 342.918 204.988C340.641 203.921 338.287 203.041 335.993 202.025C341.767 211.05 345.238 221.455 349.869 231.099C349.937 231.234 349.717 231.353 349.658 231.209C348.244 227.822 346.618 224.537 345.077 221.21C343.689 218.23 342.343 215.224 340.954 212.244C340.548 211.375 340.133 210.503 339.71 209.628C339.964 214.445 339.862 219.347 340.649 224.114C340.649 224.129 340.646 224.145 340.64 224.159C340.634 224.174 340.626 224.187 340.615 224.198C340.604 224.209 340.591 224.217 340.576 224.223C340.562 224.229 340.546 224.232 340.531 224.232C340.515 224.232 340.5 224.229 340.485 224.223C340.471 224.217 340.458 224.209 340.447 224.198C340.436 224.187 340.427 224.174 340.421 224.159C340.415 224.145 340.412 224.129 340.412 224.114C340.082 218.966 339.176 213.895 339.21 208.713C339.21 208.713 339.21 208.671 339.21 208.646C338.228 206.682 337.187 204.734 336.061 202.846C334.139 207.359 332.132 211.939 331.235 216.773C331.235 216.926 330.964 216.858 331.006 216.706C332.31 211.855 333.546 206.995 335.857 202.508C334.626 200.467 333.266 198.508 331.785 196.64C331.142 197.843 330.312 198.969 329.584 200.12C328.856 201.271 328.17 202.364 327.509 203.507C326.091 205.939 324.881 208.489 323.894 211.126C323.843 211.27 323.606 211.194 323.666 211.05C324.792 208.519 325.909 205.979 327.171 203.439Z" fill="#263238"/>
<path d="M281.608 214.446C285.324 210.729 289.634 205.844 295.365 205.853C300.894 205.853 304.966 210.323 307.312 214.92C309.758 219.721 310.639 225.164 311.325 230.456C312.138 236.796 312.627 243.174 312.789 249.565C312.891 253.112 312.882 256.668 312.789 260.215C312.787 263.813 312.504 267.405 311.943 270.959C311.841 271.535 310.927 271.552 310.893 270.959C310.723 267.971 310.842 264.973 310.893 261.985C310.944 258.996 310.893 256.058 310.757 253.146C310.537 247.219 310.105 241.251 309.403 235.366C308.793 230.202 308.311 224.885 306.761 219.898C305.364 215.394 302.748 210.247 298.185 208.265C291.962 205.565 285.875 210.492 281.794 214.658C281.692 214.7 281.506 214.548 281.608 214.446Z" fill="#263238"/>
<path d="M262.684 222.752C262.684 223.514 262.76 224.267 262.811 225.004C264.594 223.665 266.683 222.792 268.889 222.464C274.156 221.905 273.817 225.91 270.303 226.079C267.824 226.11 265.373 226.601 263.073 227.527C263.92 234.478 265.85 240.066 266.129 240.142C270.801 239.875 275.449 239.287 280.04 238.381C278.736 235.595 275.756 231.887 277.271 231.608C278.787 231.328 280.455 234.613 281.293 238.152C284.748 237.495 288.145 236.564 291.452 235.367C289.141 233.36 285.526 230.871 286.931 229.804C288.337 228.738 291.165 232.26 292.858 234.808C294.41 234.18 295.877 233.361 297.227 232.37C294.111 227.789 286.508 226.858 287.499 223.539C288.489 220.22 295.601 224.826 298.801 230.956C302.552 227.07 303.653 221.558 303.255 216.859C299.987 216.478 293.696 217.164 294.153 214.819C294.61 212.474 299.148 212.922 302.874 214.294C302.529 212.432 301.784 210.667 300.689 209.121C297.243 204.702 286.737 210.323 286.737 210.323C286.737 210.323 287.863 199.757 283.85 197.928C281.538 196.879 277.466 196.887 273.377 199.3C275.671 199.486 278.457 200.214 279.557 201.84C280.979 203.872 278.71 204.972 277.305 204.041C276.298 203.372 274.418 201.281 271.023 201.01C269.569 202.239 268.292 203.664 267.23 205.243C266.829 205.804 266.459 206.387 266.121 206.987C268.061 206.117 270.17 205.685 272.296 205.723C274.423 205.761 276.515 206.268 278.423 207.208C282.978 209.477 280.438 214.209 276.518 212.364C272.598 210.518 268.898 208.723 264.707 209.764C263.243 213.512 262.562 217.52 262.709 221.541C264.75 220.058 267.046 218.962 269.482 218.307C274.012 217.113 275.409 219.823 270.405 220.322C267.693 220.598 265.065 221.425 262.684 222.752ZM268.195 215.479C267.882 214.015 271.099 213.591 271.633 214.785C272.064 215.801 268.5 216.986 268.195 215.479ZM295.686 223.607C295.982 222.811 298.132 223.717 297.938 224.716C297.667 226.054 295.389 224.411 295.686 223.607ZM280.531 228.755C282.097 228.137 284.544 232.023 282.834 232.92C281.123 233.818 279.227 229.271 280.531 228.755Z" fill="#5FD58C"/>
<path d="M266.75 239.363C269.112 235.418 271.44 231.447 273.921 227.57C275.081 225.766 276.283 223.997 277.544 222.261C277.35 222.261 277.163 222.168 276.977 222.134L276.037 221.948C275.318 221.821 274.581 221.719 273.853 221.643C273.125 221.567 272.473 221.541 271.779 221.533C271.037 221.493 270.294 221.53 269.56 221.643C269.476 221.643 269.459 221.525 269.56 221.525C270.297 221.525 271.05 221.465 271.796 221.448C272.541 221.431 273.226 221.448 273.946 221.499C274.666 221.55 275.284 221.609 275.953 221.711C276.325 221.77 276.689 221.829 277.053 221.906C277.273 221.948 277.502 221.982 277.714 222.041C278.992 220.288 280.321 218.561 281.693 216.876C277.603 214.884 273.245 213.495 268.756 212.753C268.74 212.753 268.725 212.747 268.714 212.736C268.703 212.725 268.697 212.71 268.697 212.694C268.697 212.678 268.703 212.663 268.714 212.652C268.725 212.641 268.74 212.635 268.756 212.635C273.309 213.265 277.735 214.608 281.871 216.614C282.624 215.683 283.386 214.76 284.148 213.846C284.91 212.931 285.917 211.814 286.688 210.721C286.739 210.654 286.84 210.721 286.781 210.789C285.72 211.962 284.72 213.189 283.784 214.464C285.469 215.641 287.073 216.931 288.584 218.324C290.159 219.713 291.692 221.149 293.182 222.634C293.232 222.684 293.182 222.778 293.097 222.718C291.624 221.254 290.1 219.865 288.5 218.536C286.9 217.207 285.232 215.996 283.623 214.684L282.522 216.123L281.964 216.851C281.964 216.851 281.964 216.851 281.921 216.902L280.093 219.306C280.807 220.341 281.417 221.444 281.913 222.6C282.446 223.717 282.903 224.869 283.327 225.986C284.173 228.399 284.832 230.873 285.299 233.386C285.299 233.462 285.198 233.496 285.181 233.386C284.68 230.912 283.963 228.487 283.039 226.139C282.573 224.928 282.057 223.751 281.515 222.574C280.973 221.398 280.431 220.483 279.974 219.408C279.441 220.111 278.916 220.813 278.399 221.525C278.247 221.736 278.103 221.948 277.951 222.151C277.951 222.202 277.951 222.261 277.9 222.261C276.28 224.519 274.725 226.827 273.235 229.187C273.325 229.349 273.393 229.523 273.438 229.703C273.54 229.991 273.624 230.27 273.709 230.55C273.877 231.126 274.016 231.711 274.124 232.302C274.225 232.861 274.302 233.42 274.361 233.996C274.366 234.633 274.414 235.269 274.505 235.901C274.505 236.002 274.369 236.002 274.386 235.901C274.43 235.302 274.384 234.7 274.251 234.114C274.166 233.505 274.056 232.895 273.912 232.302C273.768 231.71 273.641 231.219 273.48 230.685C273.396 230.414 273.311 230.152 273.218 229.889C273.125 229.627 273.108 229.602 273.057 229.449C272.357 230.55 271.663 231.656 270.974 232.768C269.611 234.978 268.265 237.196 266.91 239.406C266.86 239.575 266.682 239.473 266.75 239.363Z" fill="#263238"/>
<path d="M303.164 269.672C303.223 267.437 303.579 265.185 303.816 262.958C304.053 260.731 304.315 258.488 304.553 256.253C305.01 251.952 305.264 247.541 306.246 243.325C306.995 239.645 308.829 236.274 311.512 233.647C312.898 232.261 314.718 231.391 316.668 231.184C318.631 231.124 320.558 231.72 322.146 232.877C323.96 234.207 325.523 235.85 326.76 237.728C328.094 239.585 329.294 241.534 330.35 243.562C330.392 243.646 330.274 243.689 330.231 243.621C328.238 240.232 325.593 237.271 322.451 234.909C321.058 233.757 319.355 233.044 317.557 232.86C315.782 232.837 314.071 233.519 312.799 234.757C310.191 237.026 308.684 240.361 307.787 243.638C306.72 247.524 306.373 251.605 305.839 255.584C305.526 257.955 305.221 260.325 304.908 262.687C304.595 265.049 304.409 267.462 303.901 269.782C303.865 269.857 303.806 269.919 303.732 269.958C303.658 269.997 303.574 270.012 303.492 269.999C303.409 269.987 303.333 269.949 303.274 269.89C303.215 269.831 303.176 269.754 303.164 269.672Z" fill="#263238"/>
<path d="M314.159 252.299C314.85 253.24 315.671 254.078 316.598 254.788C316.225 252.604 315.751 248.726 316.886 246.66C318.579 243.451 320.619 245.051 319.603 247.837C318.582 250.352 318.023 253.031 317.952 255.745C320.279 257.21 322.775 258.387 325.386 259.25C325.107 257.994 325.024 256.703 325.14 255.423C325.479 252.036 328.104 252.036 327.426 255.626C327.17 257.008 327.048 258.411 327.062 259.817C330.85 260.984 334.722 261.856 338.644 262.425C340.647 259.83 342.261 256.958 343.436 253.899C340.651 253.196 334.97 253.052 335.122 251.046C335.283 248.362 340.752 250.428 343.953 252.375C344.687 250.041 345.013 247.598 344.918 245.153C342.406 244.453 339.826 244.024 337.222 243.875C331.482 243.384 331.761 240.124 335.927 240.2C339 240.251 342.886 242.139 344.723 243.113C343.529 235.298 337.561 230.286 332.786 230.1C324.751 229.77 327.638 239.777 327.638 239.777C327.638 239.777 322.194 235.942 317.055 236.043C311.916 236.145 308.665 244.654 314.159 252.299ZM335.63 237.847C335.444 236.721 339.017 236.45 339.22 237.889C339.432 239.514 335.808 238.998 335.63 237.847ZM341.396 249.581C341.32 248.844 342.869 248.734 343.225 249.64C343.453 250.241 341.489 250.301 341.396 249.581ZM322.101 250.258C323.312 250.436 323.997 254.762 321.915 254.678C320.323 254.61 321.077 250.114 322.101 250.258Z" fill="#5FD58C"/>
<path d="M323.775 255.085C323.97 254.551 324.148 254.001 324.326 253.45C324.168 254.015 324.032 254.58 323.919 255.144C323.916 255.154 323.91 255.162 323.903 255.17C323.895 255.177 323.887 255.183 323.877 255.187C323.868 255.191 323.858 255.193 323.848 255.193C323.837 255.193 323.827 255.191 323.818 255.187C323.808 255.183 323.8 255.177 323.792 255.17C323.785 255.163 323.779 255.154 323.776 255.145C323.772 255.135 323.77 255.125 323.77 255.115C323.77 255.105 323.771 255.095 323.775 255.085Z" fill="#263238"/>
<path d="M325.895 248.108C326.276 246.999 326.699 245.907 327.131 244.815C327.36 244.231 327.597 243.655 327.851 243.079C328.037 242.572 328.279 242.087 328.57 241.631C328.321 241.179 328.103 240.709 327.918 240.226C327.918 240.184 327.918 240.15 327.995 240.184C328.582 240.95 329.106 241.762 329.561 242.614L330.213 243.765C330.668 243.808 331.12 243.876 331.568 243.968C332.05 244.061 332.524 244.154 333.007 244.265L334.438 244.595C334.912 244.713 335.377 244.866 335.86 244.942C335.87 244.945 335.879 244.949 335.888 244.956C335.896 244.962 335.903 244.97 335.908 244.979C335.913 244.988 335.916 244.998 335.917 245.008C335.919 245.019 335.918 245.029 335.915 245.039C335.912 245.049 335.908 245.059 335.901 245.067C335.895 245.075 335.887 245.082 335.878 245.087C335.869 245.092 335.859 245.095 335.848 245.097C335.838 245.098 335.828 245.097 335.818 245.094C335.33 244.919 334.829 244.786 334.319 244.696C333.853 244.603 333.396 244.519 332.931 244.451C332.465 244.383 331.991 244.324 331.525 244.281L330.458 244.197C330.653 244.527 330.848 244.866 331.034 245.204C331.066 245.256 331.094 245.31 331.119 245.365C331.51 245.36 331.9 245.405 332.279 245.501C332.694 245.577 333.125 245.653 333.515 245.746C334.361 245.932 335.208 246.127 336.055 246.364C337.748 246.847 339.509 247.406 341.228 247.964C341.321 247.964 341.228 248.142 341.168 248.108C339.464 247.532 337.728 247.051 335.97 246.669C335.123 246.483 334.328 246.288 333.498 246.119L332.262 245.856C331.938 245.808 331.619 245.737 331.305 245.645C332.186 247.276 333.012 248.938 333.786 250.631C335.479 254.323 336.851 258.116 338.281 261.9C338.281 261.993 338.171 262.061 338.137 261.959C336.755 258.202 335.157 254.527 333.354 250.953C333.032 250.301 332.702 249.649 332.372 248.997C332.372 249.133 332.313 249.26 332.287 249.395C332.211 249.844 332.126 250.293 332.05 250.741C331.906 251.639 331.754 252.528 331.618 253.434C331.237 255.271 331.018 257.138 330.966 259.013C330.966 259.033 330.958 259.053 330.944 259.067C330.93 259.081 330.91 259.089 330.89 259.089C330.87 259.089 330.851 259.081 330.836 259.067C330.822 259.053 330.814 259.033 330.814 259.013C330.958 258.124 330.958 257.193 331.017 256.295C331.076 255.398 331.144 254.416 331.254 253.476C331.364 252.536 331.474 251.673 331.618 250.775C331.695 250.327 331.771 249.878 331.855 249.438C331.877 249.1 331.964 248.769 332.109 248.464C331.635 247.516 331.17 246.567 330.695 245.628C330.221 244.688 329.798 243.867 329.341 242.986C329.146 242.622 328.934 242.241 328.723 241.869C328.581 242.334 328.403 242.786 328.189 243.223C327.986 243.723 327.783 244.231 327.571 244.739C327.114 245.856 326.725 246.991 326.251 248.125C325.649 249.734 324.972 251.385 324.473 253.053C324.93 251.402 325.345 249.734 325.895 248.108Z" fill="#263238"/>
<path d="M324.328 253.435C324.328 253.308 324.404 253.181 324.438 253.045L324.328 253.435Z" fill="#263238"/>
<path d="M289.719 265.321L290.286 277.293L291.742 308.119H323.551L325.007 277.293L325.574 265.321H289.719Z" fill="#37474F"/>
<path d="M289.719 265.321L290.286 277.293H325.007L325.574 265.321H289.719Z" fill="#263238"/>
<path d="M287.456 270.163H327.832V260.486H287.456V270.163Z" fill="#37474F"/>
<path d="M320.982 308.118H315.395V313.181H320.982V308.118Z" fill="#37474F"/>
<path d="M320.982 308.118H315.395V310.65H320.982V308.118Z" fill="#263238"/>
<path d="M299.892 308.118H294.312V313.181H299.892V308.118Z" fill="#37474F"/>
<path d="M299.892 308.118H294.312V310.65H299.892V308.118Z" fill="#263238"/>
</svg>
