<svg width="470" height="478" viewBox="0 0 470 478" fill="none" xmlns="http://www.w3.org/2000/svg">
<path d="M95.0414 121.4C40.622 121.4 40.5275 198.776 95.0414 198.776C149.555 198.776 149.545 121.4 95.0414 121.4Z" fill="#EBEBEB"/>
<path d="M128.129 167.344C125.22 180.65 114.183 192.202 95.0281 192.202C49.7976 192.202 49.8711 127.974 95.0281 127.974C95.3222 127.974 95.6162 127.974 95.9102 127.974C53.4207 128.751 53.6202 189.566 96.7504 189.566C114.341 189.587 124.821 179.411 128.129 167.344Z" fill="#DBDBDB"/>
<path d="M95.3514 136.438C95.7103 136.429 96.0587 136.56 96.3231 136.803C96.5876 137.046 96.7475 137.382 96.7691 137.74V139.84C100.554 140.085 104.194 141.392 107.271 143.611C107.796 143.989 108.09 144.304 108.09 144.85C108.063 145.229 107.888 145.582 107.603 145.833C107.319 146.085 106.946 146.214 106.567 146.194C106.181 146.208 105.805 146.072 105.517 145.816C102.95 143.86 99.8946 142.65 96.6851 142.319V157.399C105.632 159.121 109.403 162.188 109.403 167.47C109.403 173.183 104.152 177.216 96.8006 177.436V181.637C96.7701 181.99 96.6081 182.32 96.3466 182.56C96.085 182.8 95.743 182.933 95.3881 182.933C95.0332 182.933 94.6913 182.8 94.4297 182.56C94.1682 182.32 94.0062 181.99 93.9757 181.637V177.436C89.1186 177.125 84.4841 175.287 80.7331 172.185C80.5379 172.069 80.3755 171.905 80.2616 171.708C80.1476 171.512 80.0858 171.289 80.082 171.062C80.1135 170.693 80.2819 170.35 80.554 170.099C80.8261 169.848 81.1822 169.708 81.5523 169.707C81.9367 169.701 82.3102 169.835 82.6024 170.085C85.7999 172.914 89.826 174.634 94.0807 174.989V159.657C85.2593 157.882 81.5838 154.921 81.5838 149.533C81.5838 144.146 86.7611 139.945 93.9442 139.788V137.688C93.9785 137.34 94.1424 137.019 94.4032 136.787C94.664 136.556 95.0026 136.431 95.3514 136.438V136.438ZM94.0597 156.916V142.214C88.3468 142.329 84.6082 145.448 84.6082 149.323C84.5872 153.03 86.467 155.246 94.0597 156.916ZM96.6536 160.193V175.084C102.534 174.979 106.368 171.849 106.368 167.733C106.368 164.026 104.309 161.757 96.6536 160.193V160.193Z" fill="#DBDBDB"/>
<path d="M402.693 352.834C353.692 361.624 366.63 434.211 415.715 425.4C464.8 416.589 451.767 344.023 402.693 352.834Z" fill="#DBDBDB"/>
<path d="M407.3 352.004C360.599 360.405 373.548 432.972 420.322 424.57C467.096 416.169 454.064 343.613 407.3 352.004Z" fill="#EBEBEB"/>
<path d="M443.419 390.001C443.167 402.928 435.638 415.457 419.203 418.407C380.347 425.37 369.635 365.133 408.396 358.181C408.648 358.125 408.901 358.083 409.153 358.055C372.817 365.332 383.235 422.335 420.242 415.698C435.333 412.989 442.611 401.825 443.419 390.001Z" fill="#DBDBDB"/>
<path d="M416.609 366.036C416.926 366.085 417.211 366.254 417.407 366.508C417.602 366.763 417.693 367.082 417.659 367.401L417.418 369.438C420.7 370.089 423.713 371.706 426.071 374.08C426.266 374.221 426.422 374.41 426.523 374.629C426.624 374.848 426.667 375.089 426.649 375.33C426.599 375.672 426.417 375.981 426.143 376.191C425.868 376.401 425.522 376.495 425.178 376.453C425.008 376.439 424.842 376.391 424.691 376.311C424.539 376.232 424.405 376.123 424.296 375.991C422.344 373.907 419.819 372.446 417.04 371.791L415.359 386.062C422.921 388.604 425.861 391.891 425.252 396.889C424.622 402.287 419.634 405.574 413.238 405.028L412.766 409.008C412.728 409.333 412.563 409.629 412.307 409.832C412.051 410.035 411.725 410.128 411.4 410.09C411.076 410.052 410.78 409.887 410.577 409.631C410.374 409.375 410.281 409.049 410.319 408.725L410.791 404.692C406.562 403.867 402.732 401.649 399.912 398.391C399.704 398.211 399.56 397.969 399.5 397.7C399.44 397.432 399.467 397.152 399.577 396.9C399.687 396.648 399.875 396.438 400.112 396.3C400.35 396.162 400.625 396.104 400.899 396.133C401.238 396.168 401.551 396.334 401.77 396.595C404.148 399.548 407.465 401.597 411.169 402.403L412.913 387.869C405.467 385.296 402.642 382.114 403.241 377.02C403.839 371.927 408.785 368.472 415.023 369.05L415.254 367.117C415.296 366.797 415.461 366.505 415.714 366.303C415.966 366.102 416.287 366.006 416.609 366.036V366.036ZM413.217 385.275L414.845 371.36C409.888 370.877 406.286 373.46 405.855 377.125C405.446 380.591 406.822 382.922 413.217 385.275V385.275ZM415.086 388.646L413.438 402.718C418.541 403.211 422.206 400.617 422.658 396.774C423.078 393.256 421.545 390.903 415.086 388.646V388.646Z" fill="#DBDBDB"/>
<path d="M426.585 0H425.535V125.211H426.585V0Z" fill="#C7C7C7"/>
<path d="M382.582 167.114L386.079 174.802H466.049L469.535 167.114L435.489 143.549H416.628L382.582 167.114Z" fill="#EBEBEB"/>
<path d="M414.266 120.841L416.628 143.545H435.489L437.852 120.841H414.266Z" fill="#DBDBDB"/>
<path d="M382.59 167.121L386.087 174.808H466.057L469.543 167.121H382.59Z" fill="#DBDBDB"/>
<path d="M333.23 0H332.18V100.406H333.23V0Z" fill="#C7C7C7"/>
<path d="M289.234 142.319L292.731 150.006H372.701L376.188 142.319L342.142 118.753H323.281L289.234 142.319Z" fill="#EBEBEB"/>
<path d="M320.922 96.0479L323.285 118.752H342.146L344.509 96.0479H320.922Z" fill="#DBDBDB"/>
<path d="M289.234 142.318L292.731 150.006H372.701L376.188 142.318H289.234Z" fill="#DBDBDB"/>
<path d="M28.8711 431.484L82.6184 431.232L136.355 431.138L243.839 430.959L351.323 431.138L405.06 431.222L458.797 431.484L405.06 431.736L351.323 431.831L243.839 432.009L136.355 431.831L82.6184 431.736L28.8711 431.484Z" fill="#263238"/>
<path d="M243.835 477.954C351 477.954 437.874 471.526 437.874 463.598C437.874 455.669 351 449.242 243.835 449.242C136.671 449.242 49.7969 455.669 49.7969 463.598C49.7969 471.526 136.671 477.954 243.835 477.954Z" fill="#EBEBEB"/>
<path d="M292.568 347.472V347.62C292.568 347.62 292.568 347.682 292.568 347.724C292.568 347.766 292.568 347.893 292.515 348.008V348.197C292.482 348.332 292.457 348.469 292.442 348.607C292.442 348.701 292.442 348.796 292.389 348.901C292.337 349.006 292.316 349.342 292.263 349.594C292.211 349.846 292.106 350.444 292.022 350.948L291.549 353.511C291.497 353.784 291.444 354.078 291.392 354.383C291.339 354.687 291.245 355.202 291.161 355.632C291.077 356.063 290.993 356.598 290.898 357.113C290.835 357.47 290.762 357.838 290.699 358.216C290.499 359.339 290.289 360.536 290.047 361.818C290.042 361.849 290.042 361.881 290.047 361.912C289.795 363.34 289.522 364.874 289.228 366.48C289.155 366.9 289.071 367.321 288.987 367.741C288.903 368.161 288.819 368.623 288.745 369.064C288.745 369.337 288.651 369.62 288.588 369.904C288.189 372.137 287.758 374.504 287.296 377.003C287.138 377.843 286.991 378.694 286.834 379.555C286.529 381.235 286.214 382.957 285.889 384.732C285.805 385.142 285.731 385.551 285.668 385.971C285.192 388.541 284.706 391.215 284.209 393.995C284.146 394.278 284.104 394.562 284.051 394.845C283.809 396.147 283.568 397.46 283.337 398.804C283.306 398.907 283.285 399.013 283.274 399.119L282.927 401.031C282.465 403.593 281.989 406.215 281.499 408.896C281.373 409.558 281.247 410.23 281.132 410.913C280.89 412.267 280.638 413.633 280.386 415.008C280.071 416.72 279.756 418.442 279.441 420.196C279.126 421.95 278.811 423.704 278.485 425.447C278.317 426.34 278.16 427.232 277.992 428.125C277.803 429.175 277.603 430.225 277.414 431.349H186.648C197.843 384.837 207.284 347.336 207.284 347.336L292.568 347.472Z" fill="#263238"/>
<path d="M278.855 357.974C274.311 382.478 269.718 406.981 265.077 431.485H263.816C268.637 406.922 273.604 382.401 278.519 357.869C278.592 357.638 278.918 357.732 278.855 357.974Z" fill="#263238"/>
<path d="M292.573 347.473C292.573 347.473 292.573 347.525 292.573 347.62C292.573 347.714 292.573 347.683 292.573 347.725C292.573 347.767 292.573 347.893 292.521 348.008V348.197C292.487 348.332 292.463 348.469 292.447 348.607C292.447 348.701 292.447 348.796 292.395 348.901C292.342 349.006 292.311 349.342 292.269 349.594C292.227 349.846 292.111 350.445 292.027 350.949C291.88 351.694 291.733 352.545 291.555 353.511C291.502 353.784 291.45 354.078 291.397 354.383C291.345 354.687 291.25 355.202 291.166 355.632C291.082 356.063 290.998 356.599 290.904 357.113C290.84 357.47 290.767 357.838 290.704 358.216C290.494 359.339 290.284 360.537 290.053 361.818C290.048 361.849 290.048 361.881 290.053 361.912C289.79 363.341 289.517 364.853 289.223 366.46C289.139 366.88 289.066 367.31 288.992 367.741C288.919 368.171 288.824 368.623 288.751 369.064C288.688 369.337 288.646 369.621 288.593 369.904C288.184 372.13 287.753 374.504 287.301 377.003C287.144 377.843 286.997 378.694 286.839 379.555C286.524 381.235 286.209 382.958 285.894 384.732C285.81 385.142 285.737 385.552 285.674 385.972C285.191 388.555 284.704 391.229 284.214 393.995C284.151 394.278 284.109 394.562 284.056 394.845C283.815 396.148 283.573 397.46 283.342 398.805C283.311 398.907 283.29 399.013 283.279 399.12L282.933 401.031C282.457 403.593 281.981 406.215 281.505 408.897C281.379 409.558 281.252 410.23 281.137 410.913C280.885 412.268 280.643 413.633 280.391 415.009C280.076 416.72 279.761 418.443 279.446 420.196C279.131 421.95 278.806 423.704 278.491 425.447C278.323 426.34 278.165 427.232 277.997 428.125C277.808 429.175 277.608 430.225 277.409 431.349H231.853L228.209 394.047L228.083 392.724L227.936 391.296L227.222 383.997L226.602 377.696L223.641 347.473H292.573Z" fill="#607FE1"/>
<path d="M344.135 431.485H246.249C246.081 422.475 245.903 413.758 245.682 405.536C245.682 405.336 245.682 405.137 245.682 404.937C245.682 404.937 234.256 398.174 228.102 392.871C227.056 392.01 226.093 391.054 225.225 390.014C221.287 384.994 217.338 365.692 209.168 347.535H328.886C348.335 385.278 346.97 415.607 344.135 431.485Z" fill="#263238"/>
<path d="M222.378 388.68C228.196 391.064 233.436 394.729 238.603 398.268C243.98 401.933 248.905 406.176 254.072 410.114C254.271 410.271 254.072 410.597 253.862 410.45C248.411 406.974 242.709 403.918 237.322 400.337C232.071 396.861 226.652 393.479 222.115 389.1C221.937 388.932 222.136 388.575 222.378 388.68Z" fill="#607FE1"/>
<path d="M221.646 355.003C222.339 358.731 223.242 362.427 224.051 366.134C224.797 369.61 225.353 373.149 226.277 376.636C227.027 379.963 228.719 383.003 231.15 385.394C232.515 386.665 234.017 387.789 235.466 388.944C236.254 389.574 237.094 390.173 237.913 390.813C237.808 390.32 237.724 389.763 237.629 389.311L236.905 385.111C236.38 381.96 235.855 378.81 235.393 375.659C234.447 369.474 233.586 363.225 232.242 357.103C232.238 357.057 232.25 357.01 232.277 356.972C232.303 356.934 232.343 356.906 232.388 356.893C232.432 356.881 232.48 356.884 232.523 356.904C232.565 356.923 232.6 356.956 232.62 356.998C234.164 363.068 235.865 369.075 237.209 375.197C237.871 378.19 240.213 393.05 240.36 394.1C240.507 395.15 240.559 396.274 240.601 397.356C240.743 398.461 240.743 399.58 240.601 400.685C240.581 400.735 240.546 400.777 240.501 400.807C240.456 400.837 240.403 400.853 240.349 400.853C240.296 400.853 240.243 400.837 240.198 400.807C240.153 400.777 240.118 400.735 240.097 400.685V400.685C239.649 399.658 239.334 398.578 239.163 397.471C238.89 396.421 238.648 395.371 238.459 394.258C238.386 393.88 238.333 393.481 238.281 393.082C236.821 392.189 235.466 390.981 234.08 390.036C232.694 389.091 231.108 387.936 229.722 386.76C227.146 384.59 225.29 381.69 224.397 378.442C223.501 374.952 222.918 371.388 222.654 367.794C222.182 363.593 221.835 359.392 221.247 355.192C221.226 354.824 221.594 354.751 221.646 355.003Z" fill="#607FE1"/>
<path d="M321.257 380.963C319.692 380.154 313.643 381.593 302.617 379.713C300.46 379.434 298.412 378.602 296.673 377.298C293.806 374.956 291.632 371.186 289.889 367.962C287.818 364.33 286.223 360.448 285.142 356.41C285.089 356.158 284.743 356.284 284.785 356.515C285.194 358.794 285.415 361.073 286.024 363.331C286.62 365.449 287.382 367.517 288.303 369.516C289.962 373.255 291.905 377.266 295.265 379.797C298.783 382.444 303.667 382.948 307.951 383.242C310.409 383.41 320.081 383.147 321.383 381.771C321.432 381.712 321.469 381.643 321.489 381.568C321.51 381.493 321.514 381.415 321.502 381.339C321.49 381.262 321.462 381.189 321.42 381.124C321.378 381.06 321.322 381.005 321.257 380.963V380.963Z" fill="#607FE1"/>
<path d="M230.149 212.8C220.067 227.702 150.042 317.449 139.908 319.287C114.085 323.939 90.435 315.086 100.191 292.843C111.554 266.946 174.753 215.604 216.864 192.868C247.025 176.58 240.062 198.087 230.149 212.8Z" fill="#FFCFC0"/>
<path d="M195.955 262.284L141.031 237.08C141.031 237.08 191.849 201.752 215.593 190.999C240.398 179.793 250.427 186.346 229.245 215.499C208.462 244.189 195.955 262.284 195.955 262.284Z" fill="#607FE1"/>
<path d="M170.282 217.524C170.166 217.592 170.054 217.665 169.946 217.745L212.677 238.601L212.887 238.307L170.282 217.524ZM158.468 225.285C158.356 225.349 158.247 225.419 158.142 225.495L205.557 248.599L205.757 248.315L158.468 225.285ZM146.822 233.119L146.496 233.34L198.49 258.712C198.542 258.617 198.616 258.523 198.679 258.428L146.822 233.119Z" fill="white"/>
<path d="M196.64 251.131C195.379 250.412 194.082 249.756 192.755 249.167L188.754 247.203C186.055 245.88 183.335 244.599 180.594 243.339C175.143 240.808 169.693 238.256 164.201 235.83C162.689 235.158 161.166 234.486 159.643 233.866C158.12 233.247 156.377 232.648 154.77 231.986C154.676 231.986 154.623 232.091 154.718 232.144C156.052 232.805 157.333 233.583 158.656 234.244C159.979 234.906 161.397 235.599 162.773 236.26C165.496 237.542 168.226 238.809 170.964 240.062C176.351 242.509 181.738 244.977 187.178 247.308C188.701 247.97 190.224 248.6 191.747 249.251C193.269 249.902 194.897 250.721 196.567 251.246C196.651 251.299 196.724 251.173 196.64 251.131Z" fill="#263238"/>
<path d="M229.327 215.467C208.461 244.189 195.953 262.283 195.953 262.283L178.395 254.207L238.59 186.997C243.211 190.158 241.026 199.399 229.327 215.467Z" fill="#263238"/>
<path d="M198.289 367.594H339.955C339.955 367.594 318.312 232.418 266.087 186.189C259.639 180.477 245.084 181.779 235.632 186.494C232.24 188.185 220.069 205.208 216.593 221.317C213.117 237.427 197.9 367.111 198.289 367.594Z" fill="#607FE1"/>
<path d="M327.081 309.877L264.219 184.855C264.887 185.233 265.513 185.68 266.088 186.189C295.724 212.422 315.509 267.304 327.081 309.877Z" fill="#263238"/>
<path d="M260.016 183.174H245.608C246.28 183.048 246.942 182.932 247.614 182.827H258.315C258.882 182.922 259.428 183.037 260.016 183.174ZM274.823 194.978H228.322C228.249 195.093 228.175 195.209 228.091 195.324H275.065L274.823 194.978ZM284.17 207.128H221.486L221.328 207.474H284.401L284.17 207.128ZM291.815 219.278H217.033C217.033 219.394 216.97 219.509 216.938 219.625H292.025L291.815 219.278ZM298.368 231.429H214.859C214.859 231.544 214.859 231.66 214.807 231.775H298.547C298.484 231.66 298.42 231.544 298.368 231.429ZM304.123 243.579H213.158C213.158 243.695 213.158 243.81 213.158 243.926H304.301C304.217 243.81 304.123 243.695 304.123 243.579ZM309.258 255.74H211.593C211.593 255.855 211.593 255.971 211.593 256.076H309.374C309.374 255.96 309.29 255.845 309.248 255.74H309.258ZM313.889 267.89H209.986C209.986 268.006 209.986 268.111 209.986 268.226H313.994C313.963 268.111 313.921 268.006 313.879 267.89H313.889ZM318.09 280.041H208.464C208.464 280.156 208.464 280.272 208.464 280.387H318.216C318.185 280.261 318.153 280.156 318.111 280.041H318.09ZM321.976 292.191H206.962C206.962 292.307 206.962 292.422 206.962 292.538H322.091C322.06 292.422 321.976 292.307 321.976 292.191ZM325.546 304.341H205.492C205.492 304.457 205.492 304.572 205.492 304.688H325.651L325.546 304.341ZM328.844 316.492H204.032C204.032 316.607 204.032 316.723 204.032 316.838H329.001C328.907 316.723 328.875 316.607 328.854 316.492H328.844ZM331.879 328.642H202.593C202.593 328.758 202.593 328.873 202.593 328.989H331.973C331.942 328.873 331.921 328.758 331.889 328.642H331.879ZM334.672 340.793H201.207C201.207 340.908 201.207 341.024 201.207 341.139H334.756C334.735 341.024 334.714 340.908 334.683 340.793H334.672ZM337.234 352.943H199.789C199.789 353.058 199.789 353.174 199.789 353.289H337.36L337.234 352.943ZM339.524 365.093H198.477V365.44H339.618C339.576 365.324 339.555 365.209 339.534 365.093H339.524Z" fill="white"/>
<path d="M290.659 189.593C326.364 202.793 414.284 237.826 418.779 258.326C422.055 273.395 354.971 282.763 353.06 280.326C351.558 278.394 289.262 229.866 267.303 203.749C248.211 181.065 279.244 185.371 290.659 189.593Z" fill="#FFCFC0"/>
<path d="M317.636 251.36L364.673 218.805C364.673 218.805 308.469 192.887 283.16 186.46C256.78 179.76 248.053 187.951 274.002 212.956C299.563 237.551 317.636 251.36 317.636 251.36Z" fill="#607FE1"/>
<path d="M329.903 203.538L293.441 230.968C293.536 231.042 293.609 231.126 293.704 231.189L330.281 203.685L329.903 203.538ZM342.799 209.041L302.788 239.139L303.05 239.37L343.177 209.198C343.051 209.146 342.978 209.083 342.799 209.041ZM355.58 214.638L312.376 247.193C312.462 247.272 312.553 247.346 312.649 247.414L355.937 214.859C355.812 214.795 355.693 214.721 355.58 214.638Z" fill="white"/>
<path d="M351.692 216.569C350.432 217.262 349.245 218.134 348.048 218.942C346.851 219.751 345.591 220.602 344.351 221.421C341.852 223.091 339.374 224.813 336.906 226.535C331.991 229.99 327.045 233.424 322.204 236.963C320.87 237.929 319.536 238.906 318.223 239.914C316.911 240.922 315.535 242.13 314.159 243.191C314.075 243.254 314.159 243.369 314.264 243.317C315.504 242.498 316.827 241.783 318.076 240.964C319.326 240.145 320.628 239.284 321.889 238.412C324.367 236.711 326.824 234.989 329.24 233.246C334.06 229.812 338.901 226.388 343.648 222.849L347.617 219.877C349.004 218.827 350.474 217.861 351.766 216.727C351.85 216.643 351.787 216.517 351.692 216.569Z" fill="#263238"/>
<path d="M313.291 247.633C311.968 246.52 310.739 245.302 309.458 244.147C308.176 242.992 306.853 241.847 305.562 240.692C303.031 238.444 300.468 236.229 297.927 233.981C292.792 229.424 287.656 224.855 282.574 220.245C279.686 217.62 276.85 214.921 273.868 212.4L273.805 212.463C276.147 214.994 278.667 217.378 281.156 219.752C280.631 219.426 280.106 219.09 279.602 218.701C279.097 218.313 278.488 217.903 277.953 217.473C277.417 217.042 276.903 216.559 276.294 216.16C276.199 216.097 276.115 216.223 276.178 216.296C277.122 217.411 278.235 218.372 279.476 219.142C280.085 219.552 280.725 219.92 281.366 220.266L282.069 220.592C284.296 222.692 286.536 224.792 288.79 226.893C293.831 231.541 298.974 236.092 304.217 240.545C305.667 241.763 307.126 242.96 308.597 244.157C310.067 245.354 311.684 246.51 313.186 247.738C313.259 247.822 313.364 247.707 313.291 247.633Z" fill="#263238"/>
<path d="M240.137 212.443C248.465 213.493 261.14 199.642 265.572 189.003C265.877 188.268 264.06 181.106 262.254 172.295C261.203 166.95 260.153 160.964 259.544 155.44C259.429 154.306 225.75 167.496 225.75 167.496C225.75 167.496 230.371 178.722 231.326 188.363C231.395 189.128 231.395 189.898 231.326 190.663C231.326 190.768 231.326 190.894 231.326 191.041C231.064 195.42 232.093 211.403 240.137 212.443Z" fill="#FFCFC0"/>
<path d="M234.894 190.85C233.708 191.013 232.51 191.076 231.313 191.039C231.313 190.892 231.313 190.766 231.313 190.651C231.392 189.89 231.392 189.122 231.313 188.361C230.368 178.731 225.758 167.495 225.758 167.495C225.758 167.495 253.062 156.783 258.586 155.491C258.187 161.992 255.288 188.256 234.894 190.85Z" fill="#263238"/>
<path d="M255.819 112.582C262.802 123.452 266.194 159.598 259.893 169.638C250.757 184.203 230.972 190.925 217.383 178.837C204.203 167.128 200.58 119.944 208.099 110.325C219.063 96.1474 245.485 96.4835 255.819 112.582Z" fill="#FFCFC0"/>
<path d="M233.371 144.139C233.371 144.045 233.581 144.244 233.581 144.339C233.749 146.785 234.348 149.589 236.626 150.135C236.7 150.135 236.7 150.282 236.626 150.271C233.896 150.166 233.14 146.481 233.371 144.139Z" fill="#263238"/>
<path d="M235.294 141.389C239.179 140.706 240.261 148.519 236.67 149.159C233.079 149.8 232.039 141.966 235.294 141.389Z" fill="#263238"/>
<path d="M218.48 145.841C218.48 145.757 218.301 145.988 218.322 146.083C218.732 148.498 218.795 151.333 216.716 152.436C216.652 152.436 216.716 152.593 216.716 152.562C219.383 151.848 219.257 148.099 218.48 145.841Z" fill="#263238"/>
<path d="M215.96 143.645C212.033 143.887 212.81 151.741 216.453 151.521C220.097 151.3 219.267 143.446 215.96 143.645Z" fill="#263238"/>
<path d="M237.89 137.439C236.829 137.275 235.778 137.058 234.739 136.788C233.578 136.722 232.471 136.275 231.589 135.518C231.364 135.226 231.242 134.868 231.242 134.499C231.242 134.131 231.364 133.773 231.589 133.481C232.639 132.273 234.183 132.231 235.663 132.43C237.157 132.632 238.522 133.381 239.496 134.531C239.725 134.807 239.865 135.146 239.899 135.503C239.932 135.86 239.857 136.219 239.684 136.533C239.511 136.846 239.247 137.101 238.927 137.263C238.607 137.424 238.245 137.486 237.89 137.439V137.439Z" fill="#263238"/>
<path d="M212.401 140.127C213.42 139.77 214.419 139.356 215.393 138.888C216.507 138.601 217.496 137.955 218.208 137.051C218.375 136.722 218.429 136.346 218.361 135.983C218.292 135.62 218.106 135.29 217.83 135.045C216.59 134.058 215.047 134.31 213.629 134.845C212.199 135.33 211.001 136.329 210.269 137.649C210.119 137.962 210.064 138.311 210.109 138.655C210.155 138.999 210.299 139.322 210.526 139.584C210.752 139.847 211.049 140.038 211.382 140.135C211.715 140.231 212.069 140.229 212.401 140.127V140.127Z" fill="#263238"/>
<path d="M238.435 165.543C237.941 166.194 237.469 167.055 236.597 167.244C235.694 167.352 234.779 167.27 233.909 167.002C233.892 166.998 233.874 166.999 233.857 167.006C233.84 167.013 233.827 167.024 233.817 167.04C233.808 167.055 233.804 167.073 233.805 167.09C233.806 167.108 233.814 167.125 233.825 167.139C234.238 167.566 234.758 167.874 235.33 168.031C235.903 168.188 236.508 168.188 237.08 168.031C237.557 167.832 237.963 167.497 238.249 167.067C238.535 166.637 238.687 166.132 238.687 165.616C238.708 165.48 238.508 165.448 238.435 165.543Z" fill="#263238"/>
<path d="M234.881 158.642C234.4 159.685 233.709 160.617 232.85 161.38C231.992 162.142 230.985 162.719 229.892 163.073C228.94 163.398 227.946 163.582 226.941 163.619C226.749 163.635 226.556 163.635 226.364 163.619H225.828C225.695 163.612 225.569 163.562 225.467 163.477C225.364 163.392 225.292 163.276 225.261 163.147V163.147C225.251 163.063 225.251 162.978 225.261 162.895V162.685C224.957 160.826 224.746 157.969 224.746 157.969C224.106 158.4 220.85 160.448 220.777 159.461C220.136 151.332 219.433 142.291 220.514 134.068C220.525 134.016 220.554 133.97 220.595 133.937C220.636 133.904 220.687 133.886 220.74 133.886C220.793 133.886 220.844 133.904 220.885 133.937C220.926 133.97 220.955 134.016 220.966 134.068C221.88 141.86 221.428 149.757 222.226 157.591C223.383 156.851 224.638 156.275 225.954 155.88C226.238 155.88 226.269 161.414 226.469 162.233C226.466 162.261 226.466 162.289 226.469 162.317C229.619 162.317 231.888 161.015 234.639 158.495C234.807 158.295 235.007 158.442 234.881 158.642Z" fill="#263238"/>
<path d="M227.914 162.527C229.124 163.714 230.617 164.57 232.251 165.016C233.149 165.233 234.093 165.163 234.95 164.817C236.819 164.04 236.619 162.254 236.052 160.784C235.744 160.006 235.345 159.266 234.866 158.579C233.029 160.602 230.593 161.986 227.914 162.527V162.527Z" fill="#263238"/>
<path d="M232.25 165.016C233.148 165.232 234.091 165.163 234.948 164.816C236.817 164.039 236.618 162.254 236.051 160.784C234.003 161.288 232.155 162.979 232.25 165.016Z" fill="#FF98B9"/>
<path d="M261.124 140.086C254.76 141.714 250.464 126.266 250.464 126.266C250.464 126.266 240.393 127.621 231.562 116.048C231.562 116.048 221.785 127.673 210.905 129.112C193.85 131.349 187.549 110.293 192.212 104.097C198.817 95.3074 216.859 99.2245 216.859 99.2245C216.859 99.2245 237.862 85.4149 249.677 98.7835C249.677 98.7835 260.094 95.9375 264.442 107.048C268.79 118.159 265.87 138.868 261.124 140.086Z" fill="#263238"/>
<path d="M253.283 127.348C248.398 128.036 243.423 127.083 239.138 124.639C234.759 121.992 231.104 116.951 230.946 111.722C230.946 111.438 230.474 111.48 230.505 111.722C231.073 117.414 233.141 122.78 237.972 126.182C240.179 127.774 242.766 128.759 245.473 129.039C248.179 129.319 250.912 128.885 253.399 127.779C253.433 127.747 253.457 127.708 253.47 127.664C253.482 127.62 253.483 127.573 253.471 127.528C253.459 127.484 253.435 127.444 253.402 127.412C253.369 127.38 253.328 127.358 253.283 127.348V127.348Z" fill="#263238"/>
<path d="M263.165 100.137C258.702 97.1339 253.662 98.037 248.925 99.7698C248.663 99.8643 248.831 100.305 249.083 100.179C253.62 98.079 259.374 99.7488 263.071 102.826C266.768 105.903 267.671 110.765 268.038 115.249C268.788 123.906 266.304 132.533 261.065 139.466C260.981 139.571 261.149 139.707 261.233 139.602C264.305 135.94 266.597 131.689 267.97 127.109C269.342 122.53 269.766 117.719 269.214 112.97C268.616 108.318 267.24 102.91 263.165 100.137Z" fill="#263238"/>
<path d="M217.731 99.7804C214.666 97.1618 210.745 95.7603 206.715 95.8423C201.857 96.0681 197.253 98.0801 193.787 101.492C192.429 102.905 191.467 104.65 190.999 106.553C190.53 108.456 190.572 110.448 191.12 112.33C192.233 116.782 195.593 120.227 199.154 122.831C199.163 122.841 199.174 122.849 199.187 122.854C199.199 122.859 199.213 122.862 199.227 122.861C199.24 122.86 199.253 122.857 199.265 122.851C199.278 122.844 199.288 122.836 199.297 122.825C199.305 122.814 199.311 122.802 199.314 122.789C199.317 122.775 199.318 122.762 199.315 122.748C199.312 122.735 199.307 122.722 199.299 122.711C199.291 122.7 199.281 122.691 199.269 122.684C196.245 120.091 193.535 116.919 192.516 112.939C191.972 111.086 191.963 109.118 192.488 107.26C193.014 105.402 194.054 103.73 195.488 102.437C201.149 97.3755 210.978 94.7606 217.458 100.085C217.499 100.1 217.544 100.102 217.587 100.091C217.629 100.081 217.668 100.058 217.697 100.025C217.726 99.992 217.745 99.9513 217.751 99.9077C217.757 99.8642 217.75 99.8198 217.731 99.7804V99.7804Z" fill="#263238"/>
<path d="M256.582 143.867C256.582 143.867 261.486 130.656 267.283 132.126C273.08 133.596 271.421 151.323 266.044 155.082C265.385 155.606 264.628 155.993 263.817 156.22C263.006 156.446 262.158 156.508 261.323 156.401C260.488 156.294 259.683 156.021 258.955 155.598C258.228 155.175 257.592 154.611 257.086 153.938L256.582 143.867Z" fill="#FFCFC0"/>
<path d="M266.679 137.199C266.698 137.194 266.718 137.196 266.735 137.204C266.753 137.212 266.767 137.226 266.776 137.243C266.784 137.26 266.787 137.28 266.782 137.298C266.778 137.317 266.768 137.334 266.753 137.346C263.014 140.129 261.828 144.571 261.334 148.981C262.174 147.112 263.644 145.831 266.091 146.765C266.115 146.78 266.134 146.802 266.146 146.828C266.157 146.854 266.16 146.882 266.154 146.91C266.148 146.938 266.134 146.963 266.113 146.982C266.093 147.001 266.067 147.014 266.039 147.017C265.245 146.976 264.458 147.18 263.785 147.603C263.112 148.026 262.586 148.647 262.279 149.38C261.776 150.615 261.406 151.9 261.177 153.213C261.082 153.633 260.358 153.612 260.379 153.14C260.384 153.105 260.384 153.069 260.379 153.035C258.898 147.742 261.061 139.215 266.679 137.199Z" fill="#263238"/>
<path d="M402.173 345.698C392.186 380.542 363.611 408.855 357.761 412.562C352.784 415.712 350.19 417.329 350.19 417.329C341.368 423.21 335.298 421.614 335.298 421.614C335.298 421.614 327.097 431.412 320.355 427.432C312.783 423.011 325.773 410.125 328.588 398.668C335.025 372.414 336.842 333.316 337.945 325.556L402.173 345.698Z" fill="#FFCFC0"/>
<path d="M354.672 375.9C352.624 383.588 350.807 391.191 347.73 398.563C344.349 406.649 339.749 413.864 335.244 421.32C335.222 421.364 335.217 421.415 335.229 421.463C335.241 421.511 335.27 421.553 335.31 421.582C335.35 421.611 335.399 421.625 335.449 421.621C335.498 421.617 335.544 421.596 335.58 421.561C345.882 409.348 353.38 391.873 355.344 376.058C355.396 375.669 354.777 375.522 354.672 375.9Z" fill="#263238"/>
<path d="M371.069 377.485C368.664 384.836 364.348 397.774 349.982 417.181C349.929 417.244 349.982 417.339 350.087 417.276C360.853 406.374 368.373 392.691 371.804 377.758C371.919 377.286 371.237 377.002 371.069 377.485Z" fill="#263238"/>
<path d="M334.345 366.554C333.83 362.805 331.856 363.046 328.453 368.854C325.051 374.661 316.523 400.527 307.755 396.788C298.986 393.05 311.546 356.724 317.952 347.494C324.358 338.263 337.905 325.556 337.905 325.556C336.918 333.117 336.172 351.673 334.345 366.554Z" fill="#FFCFC0"/>
<path d="M418.757 258.325C425.761 280.326 407.278 329.39 402.175 345.699C399.948 352.808 335.027 333.821 337.453 326.229C342.431 310.697 355.306 282.426 353.037 280.326C351.242 278.656 412.382 238.341 418.757 258.325Z" fill="#FFCFC0"/>
<path d="M370.831 267.091C369.97 267.427 369.109 267.69 368.269 268.141C367.429 268.593 366.536 268.95 365.706 269.402C364.098 270.303 362.567 271.336 361.128 272.489C359.676 273.614 358.3 274.835 357.011 276.144C356.339 276.816 355.688 277.509 355.068 278.244C354.439 278.918 353.89 279.661 353.43 280.46C353.407 280.498 353.395 280.541 353.395 280.586C353.395 280.63 353.407 280.674 353.43 280.712C353.43 280.712 353.43 280.785 353.493 280.796C353.766 280.911 353.924 280.68 354.123 280.512L355.11 279.599C355.803 278.958 356.475 278.275 357.211 277.624C358.607 276.333 360.078 275.093 361.59 273.928C363.102 272.762 364.656 271.659 366.231 270.599C367.019 270.063 367.796 269.549 368.594 268.992C369.392 268.435 370.18 267.942 370.999 267.469C371.157 267.322 371.031 267.007 370.831 267.091Z" fill="#263238"/>
<path d="M136.097 256.287C125.595 263.638 93.6177 292.276 100.066 307.924C106.514 323.571 131.13 323.193 165.554 316.965L136.097 256.287Z" fill="#FFCFC0"/>
<path d="M135.172 256.97C149.276 245.218 169.764 230.947 178.155 231.398C186.955 231.871 217.82 234.79 224.772 237.773C231.724 240.755 251.719 260.215 253.767 266.663C255.405 271.829 245.26 276.702 232.385 268.416C220.34 260.666 217.841 258.219 213.913 256.865C209.985 255.51 194.506 258.482 192.637 264.321C191.534 267.765 195.997 277.059 202.204 279.023C208.41 280.987 214.806 277.301 223.554 277.773C232.301 278.246 240.703 286.878 239.012 289.714C237.321 292.549 233.404 291.026 221.464 295.017C213.787 297.59 204.661 302.211 191.671 309.856C178.365 317.679 159.116 317.543 159.116 317.543L135.172 256.97Z" fill="#FFCFC0"/>
<path d="M232.925 269.887C253.928 276.461 244.235 307.598 223.179 301.014C202.123 294.429 211.879 263.292 232.925 269.887Z" fill="#FFA030"/>
<path d="M230.952 269.267C250.979 275.568 241.275 306.673 221.207 300.393C201.138 294.113 210.894 262.987 230.952 269.267Z" fill="#FFC700"/>
<path opacity="0.1" d="M212.981 283.937C212.383 289.619 214.987 295.542 222.034 297.747C238.689 302.998 246.744 277.111 230.12 271.913L229.794 271.818C245.337 277.069 237.608 301.464 221.729 296.497C219.029 295.764 216.672 294.103 215.073 291.807C213.474 289.511 212.733 286.725 212.981 283.937V283.937Z" fill="black"/>
<g opacity="0.5">
<path opacity="0.1" d="M229.099 275.137C229.233 275.191 229.34 275.294 229.398 275.426C229.457 275.557 229.463 275.705 229.414 275.841L229.089 276.691C230.405 277.341 231.501 278.364 232.239 279.632C232.305 279.717 232.349 279.817 232.367 279.923C232.386 280.03 232.378 280.139 232.344 280.241C232.284 280.381 232.171 280.493 232.03 280.552C231.889 280.611 231.731 280.612 231.588 280.556C231.445 280.505 231.328 280.399 231.263 280.262C230.657 279.153 229.741 278.244 228.627 277.647L226.316 283.58C229.278 285.502 230.16 287.235 229.351 289.304C228.49 291.551 225.98 292.454 223.302 291.467L222.662 293.116C222.636 293.185 222.596 293.248 222.546 293.302C222.495 293.355 222.434 293.399 222.367 293.429C222.3 293.459 222.227 293.476 222.153 293.478C222.08 293.48 222.006 293.468 221.937 293.441C221.868 293.415 221.805 293.376 221.752 293.325C221.698 293.275 221.655 293.214 221.624 293.147C221.594 293.079 221.578 293.007 221.575 292.933C221.573 292.859 221.586 292.786 221.612 292.717L222.252 291.047C220.537 290.224 219.144 288.853 218.293 287.151C218.24 287.074 218.206 286.984 218.195 286.891C218.184 286.798 218.196 286.703 218.23 286.615C218.29 286.48 218.399 286.371 218.535 286.311C218.671 286.251 218.824 286.243 218.965 286.29C219.107 286.344 219.223 286.449 219.291 286.584C219.983 288.111 221.176 289.356 222.672 290.112L225.014 284.085C222.105 282.152 221.244 280.472 222.063 278.361C222.882 276.25 225.392 275.316 227.997 276.261L228.312 275.463C228.336 275.385 228.377 275.314 228.432 275.254C228.487 275.195 228.555 275.147 228.63 275.116C228.705 275.085 228.786 275.071 228.867 275.075C228.948 275.078 229.027 275.1 229.099 275.137V275.137ZM225.518 283.003L227.755 277.227C225.655 276.471 223.859 277.174 223.26 278.697C222.662 280.22 223.04 281.312 225.518 283.003ZM225.949 284.652L223.681 290.501C225.781 291.278 227.661 290.585 228.291 288.978C228.921 287.372 228.511 286.332 225.949 284.652Z" fill="black"/>
</g>
<path d="M178.152 231.397C188.528 228.583 210.487 226.44 225.105 232.153C234.987 236.018 249.007 271.23 243.882 275.378C238.757 279.526 234.431 275.619 228.76 269.077C226.659 266.693 218.426 251.098 213.994 251.77C207.609 252.726 192.267 261.904 192.267 261.904L178.152 231.397Z" fill="#FFCFC0"/>
<path d="M244.98 272.91C246.555 264.919 242.218 255.94 237.398 247.56C237.314 247.434 237.114 247.56 237.188 247.665C238.417 249.765 244.854 265.013 244.823 272.921C244.823 273.026 244.959 273.005 244.98 272.91Z" fill="#263238"/>
<path d="M178.152 231.397C188.528 228.583 210.487 226.44 225.105 232.153C234.987 236.018 240.616 269.864 235.491 274.013C230.366 278.161 223.845 272.91 219.172 264.309C217.659 261.526 214.971 249.607 210.571 250.237C204.186 251.203 188.517 253.713 188.517 253.713L178.152 231.397Z" fill="#FFCFC0"/>
<path d="M197.897 251.907C199.546 251.477 200.123 251.319 201.783 250.91C203.442 250.5 205.091 250.133 206.771 249.859C208.219 249.5 209.718 249.39 211.203 249.534C212.593 249.849 213.842 250.609 214.763 251.697C216.936 254.071 217.703 257.526 218.659 260.508C219.709 263.848 222.492 270.17 226.398 273.047C227.43 273.884 228.624 274.495 229.906 274.843C230.845 275.148 231.845 275.213 232.815 275.032C236.753 273.814 237.541 269.067 237.499 265.15C237.415 257.799 235.083 250.448 232.416 243.737C231.765 242.088 231.072 240.45 230.378 238.812C229.707 236.885 228.633 235.124 227.228 233.645C224.76 231.366 218.417 230.19 216.453 229.801C216.306 229.801 216.38 229.549 216.527 229.581C218.911 230.011 225.495 230.358 229.318 234.202C230.704 235.609 231.418 237.604 232.195 239.389C232.972 241.175 233.834 243.159 234.569 245.081C236.039 248.795 237.216 252.619 238.087 256.518C238.874 260.214 239.567 264.32 238.948 268.069C238.412 271.335 236.154 274.622 232.888 275.588C230.147 276.418 227.417 274.727 226.22 273.898C225.045 273.073 223.985 272.094 223.069 270.989C221.184 268.36 219.492 265.598 218.008 262.724C216.621 259.889 216.002 256.654 214.385 253.945C214.024 253.285 213.535 252.704 212.947 252.235C212.36 251.766 211.684 251.419 210.961 251.214C209.492 250.994 207.998 250.994 206.529 251.214C203.701 251.327 200.888 251.7 198.128 252.327C197.403 252.506 197.204 252.054 197.897 251.907Z" fill="#263238"/>
<path d="M170.164 233.426C172.936 231.788 188.752 221.874 194.969 220.131C201.186 218.388 225.487 215.017 230.349 220.551C236.461 227.514 218.209 233.321 210.039 235.117C201.868 236.913 194.664 246.059 194.664 246.059L170.164 233.426Z" fill="#FFCFC0"/>
<path d="M222.634 231.271C219.895 231.771 217.182 232.409 214.506 233.182C211.92 233.737 209.378 234.485 206.903 235.419C204.536 236.523 202.365 238.005 200.476 239.809C199.52 240.68 198.638 241.594 197.767 242.539C196.895 243.484 195.95 244.703 194.984 245.69C194.879 245.795 194.984 245.973 195.141 245.858C196.994 244.079 198.958 242.42 201.022 240.89C203.119 239.262 205.408 237.897 207.838 236.826C212.679 234.726 217.898 233.676 222.75 231.576C222.95 231.523 222.823 231.239 222.634 231.271Z" fill="#263238"/>
<path d="M234.246 274.444C236.115 275.494 238.226 276.544 240.442 276.449C241.388 276.423 242.306 276.116 243.077 275.567C243.481 275.275 243.835 274.92 244.128 274.517C244.476 274.11 244.67 273.593 244.674 273.058C244.674 272.911 244.873 272.921 244.842 273.058C244.792 273.356 244.764 273.658 244.758 273.961C244.713 274.212 244.643 274.459 244.548 274.696C244.364 275.165 244.089 275.593 243.739 275.956C242.961 276.752 241.935 277.259 240.83 277.394C238.215 277.751 235.926 276.344 234.131 274.622C234.119 274.615 234.109 274.605 234.101 274.593C234.093 274.582 234.087 274.569 234.084 274.555C234.081 274.542 234.081 274.527 234.084 274.514C234.086 274.5 234.092 274.487 234.099 274.475C234.107 274.463 234.116 274.453 234.128 274.445C234.139 274.437 234.152 274.432 234.166 274.429C234.18 274.426 234.194 274.426 234.208 274.428C234.221 274.431 234.234 274.436 234.246 274.444V274.444Z" fill="#263238"/>
<path d="M192.133 249.314C189.85 252.608 187.78 256.046 185.937 259.605C184.175 263.144 182.93 266.918 182.24 270.811C181.579 275.011 181.925 279.212 182.02 283.497C182.108 285.52 182.027 287.546 181.778 289.556C181.522 291.307 181.079 293.025 180.455 294.681C178.947 298.408 176.532 301.7 173.429 304.258C173.314 304.363 173.429 304.552 173.597 304.468C176.532 302.435 178.983 299.782 180.78 296.697C182.576 293.613 183.674 290.171 183.994 286.616C184.372 282.268 183.637 277.91 183.994 273.551C184.361 269.584 185.237 265.681 186.598 261.937C188.091 257.567 189.994 253.347 192.28 249.335C192.281 249.325 192.281 249.315 192.278 249.306C192.276 249.296 192.272 249.288 192.266 249.28C192.26 249.272 192.253 249.265 192.244 249.26C192.236 249.255 192.226 249.252 192.217 249.251C192.197 249.248 192.178 249.253 192.162 249.265C192.146 249.277 192.136 249.294 192.133 249.314V249.314Z" fill="#263238"/>
<path d="M153.771 242.75C145.614 247.726 137.845 253.311 130.531 259.458C123.131 265.497 116.438 272.353 110.578 279.894C107.336 284.171 104.502 288.741 102.113 293.547C102.061 293.641 102.197 293.715 102.26 293.62C104.698 289.542 107.402 285.631 110.357 281.911C113.281 278.218 116.405 274.688 119.714 271.336C126.481 264.588 133.744 258.357 141.442 252.695C145.769 249.44 149.738 246.331 154.044 243.065C154.443 242.75 154.233 242.456 153.771 242.75Z" fill="#263238"/>
<path d="M275.109 443.53C275.035 443.961 274.951 444.391 274.867 444.833C274.941 444.402 275.025 443.961 275.098 443.53H275.109Z" fill="#EBEBEB"/>
<path d="M72.0238 327.434C57.8361 346.641 43.0498 368.936 39.4688 393.027C39.4688 393.384 40.0148 393.51 40.0988 393.143C41.7369 386.574 43.8426 380.13 46.3998 373.862C55.7253 371.289 64.8722 369.188 69.7764 359.926C74.7647 350.411 74.1346 338.009 73.1895 327.644C73.0634 327.087 72.2968 327.056 72.0238 327.434Z" fill="#5FD58C"/>
<path d="M46.4839 373.725C52.8584 359.432 61.0391 345.076 71.4357 333.314C71.5092 333.23 71.6143 333.314 71.5513 333.43C64.7462 341.831 59.5689 350.926 54.5176 360.198C59.2118 355.431 64.3576 351.167 68.8103 346.105C68.8943 346.011 69.0414 346.105 68.9574 346.252C64.5362 351.503 59.7159 357.311 53.961 361.238C52.4068 364.081 50.8456 366.934 49.2773 369.797C49.6659 369.576 50.0649 369.387 50.464 369.188C50.527 369.188 50.59 369.261 50.527 369.293C50.0859 369.513 49.6449 369.755 49.1933 369.944C48.4477 371.299 47.7126 372.643 46.9355 373.998C46.7674 374.239 46.3474 373.977 46.4839 373.725Z" fill="#263238"/>
<path d="M51.2348 368.683C55.0487 366.554 58.6866 364.124 62.1139 361.417C62.2084 361.343 62.3449 361.469 62.2504 361.553C58.9215 364.407 55.2787 366.873 51.3923 368.904C51.2138 369.04 51.0563 368.788 51.2348 368.683Z" fill="#263238"/>
<path d="M37.8004 389.477C37.8004 389.772 38.3255 389.761 38.315 389.477C38.3885 381.538 38.315 373.568 38.441 365.597C40.4783 361.501 44.8365 359.233 47.8925 355.946C50.0732 353.541 51.9723 350.895 53.5529 348.059C57.2029 341.285 59.4361 333.839 60.1164 326.174C60.9565 317.688 57.7325 289.691 54.1515 290.657C52.3032 291.161 46.2963 305.034 44.7 309.623C42.1187 317.186 40.2311 324.969 39.0606 332.874C36.1412 351.483 36.3827 370.659 37.8004 389.477Z" fill="#5FD58C"/>
<path d="M37.7471 355.221C38.1777 345.182 40.446 335.048 42.5568 325.313C44.8357 314.811 47.5031 304.95 52.9009 295.593C53.0059 295.415 53.258 295.593 53.174 295.751C49.5713 303.025 46.782 310.674 44.8567 318.56C45.2242 317.993 45.6653 317.457 46.0329 316.922C46.1799 316.712 46.5264 316.922 46.3899 317.132C45.9063 317.977 45.34 318.772 44.6992 319.505C44.6875 319.51 44.675 319.513 44.6624 319.513C44.6498 319.513 44.6373 319.51 44.6257 319.505C42.7669 327.003 41.4752 334.67 40.299 342.325L40.551 342.031C40.5636 342.021 40.5794 342.014 40.5958 342.014C40.6123 342.013 40.6285 342.018 40.6418 342.028C40.6551 342.038 40.6648 342.051 40.6693 342.067C40.6738 342.083 40.6728 342.1 40.6665 342.115C40.53 342.367 40.362 342.619 40.215 342.871C39.6374 346.757 39.1018 350.632 38.5662 354.476C45.5183 348.521 51.4307 341.601 54.7597 333.021C54.7597 333.021 54.8332 333.021 54.8227 333.021C51.5567 341.916 46.4214 349.823 38.5032 355.232L38.0621 358.33C38.0621 358.54 37.6946 358.487 37.6946 358.277C37.6946 357.364 37.6946 356.45 37.7786 355.536C37.6421 355.463 37.6421 355.316 37.7471 355.221Z" fill="#263238"/>
<path d="M40.9976 340.675C46.2485 332.789 51.2157 325.133 55.0908 316.417C55.0908 316.322 55.3009 316.417 55.2588 316.49C52.0033 325.154 47.4351 333.923 41.2707 340.875C41.1447 341.022 40.8926 340.833 40.9976 340.675Z" fill="#263238"/>
<path d="M48.0213 314.474C50.2055 310.599 52.5157 306.829 54.5739 302.923C54.6369 302.818 54.784 302.923 54.742 303.017C53.0536 307.138 50.9122 311.058 48.3573 314.705C48.2103 314.915 47.8953 314.694 48.0213 314.474Z" fill="#263238"/>
<path d="M47.1743 316.155V316.219C47.1743 316.219 47.0898 316.155 47.1743 316.155Z" fill="#263238"/>
<path d="M32.3825 366.499C32.2978 371.755 31.6928 376.989 30.5763 382.126C30.6603 382.693 30.7338 383.26 30.8178 383.838C32.4437 378.148 33.385 372.286 33.6217 366.373C33.6687 366.292 33.6935 366.2 33.6935 366.106C33.6935 366.012 33.6687 365.919 33.6217 365.838C33.8543 357.926 33.2737 350.012 31.889 342.22C29.4316 327.633 24.0653 313.645 13.8997 302.712C13.8157 302.64 13.7163 302.588 13.609 302.56C13.5018 302.533 13.3896 302.53 13.2811 302.552C13.1726 302.574 13.0706 302.621 12.983 302.689C12.8955 302.757 12.8247 302.844 12.776 302.944C8.66987 313.382 10.0981 325.827 13.5951 336.234C15.4967 341.871 18.214 347.199 21.6604 352.049C25.1469 356.995 29.5996 361.122 32.3825 366.499Z" fill="#5FD58C"/>
<path d="M15.0986 307.637C24.7391 323.316 31.4392 341.82 32.2583 360.292C32.2583 360.628 31.7227 360.712 31.6807 360.376C31.4497 358.717 31.1976 357.068 30.9351 355.43C26.955 351.608 22.8593 347.575 20.0029 342.828C20.0029 342.744 20.0764 342.65 20.1394 342.723C23.4515 346.776 26.9965 350.633 30.7566 354.275C30.0564 350.186 29.2338 346.164 28.2887 342.209C28.0261 341.915 27.7741 341.61 27.5221 341.305C27.27 341.001 27.6376 340.833 27.8056 341.022C27.9736 341.211 27.9631 341.2 28.0366 341.284C26.6814 335.854 25.0016 330.509 23.0064 325.28C20.549 322.361 17.8081 319.83 16.0228 316.301C16.0228 316.217 16.0963 316.154 16.1488 316.228C17.5875 318.244 18.9737 320.271 20.6015 322.14C21.2526 322.886 21.9667 323.589 22.6388 324.314C20.4152 318.647 17.7792 313.15 14.7521 307.868C14.7296 307.823 14.7244 307.77 14.7377 307.721C14.7509 307.672 14.7816 307.629 14.824 307.601C14.8664 307.572 14.9177 307.561 14.9682 307.567C15.0187 307.574 15.0651 307.599 15.0986 307.637V307.637Z" fill="#263238"/>
<path d="M17.0583 326.931C20.2086 331.131 23.716 335.121 26.6143 339.458C26.6983 339.584 26.5198 339.71 26.4147 339.616C22.6974 336.119 19.5471 331.352 16.8483 327.015C16.7643 326.92 16.9638 326.815 17.0583 326.931Z" fill="#263238"/>
<path d="M27.0526 340.424L27.1787 340.56C27.2733 340.655 27.1261 340.791 27.0421 340.707L26.9055 340.571C26.8109 340.476 26.958 340.34 27.0526 340.424Z" fill="#263238"/>
<path d="M0.0100387 337.704C0.776657 345.748 5.00881 355.368 10.1756 361.564C12.447 364.259 15.2545 366.451 18.4194 368.001C21.9899 369.766 25.7705 371.803 29.4251 373.252C31.1813 377.725 32.4865 382.361 33.3212 387.093C33.4472 386.694 33.5627 386.274 33.6782 385.865C31.3049 365.491 18.1253 348.059 1.25973 336.906C1.12905 336.818 0.975564 336.77 0.818111 336.769C0.660659 336.767 0.506091 336.811 0.373383 336.896C0.240676 336.98 0.135604 337.102 0.0710589 337.246C0.00651393 337.389 -0.0146963 337.549 0.0100387 337.704Z" fill="#5FD58C"/>
<path d="M5.82764 343.722C5.71212 343.617 5.82764 343.407 6.00617 343.501C15.2705 350.394 22.658 359.5 27.4925 369.986C27.608 370.26 27.2299 370.501 27.0724 370.228C26.2848 368.852 25.4867 367.519 24.6781 366.206C20.824 365.481 17.1799 362.772 14.3234 360.199C14.2499 360.136 14.3234 360.02 14.439 360.094C15.9102 361.431 17.5438 362.578 19.3012 363.507C20.8765 364.305 22.5672 364.809 24.195 365.45C22.7667 363.181 21.286 361.008 19.7318 358.907C15.5809 357.324 11.6879 355.133 8.18 352.407C8.06448 352.323 8.18 352.144 8.28501 352.218C11.7596 354.322 15.3421 356.243 19.0177 357.973C16.6525 354.871 14.103 351.915 11.383 349.12C10.0703 348.427 8.74709 347.734 7.47639 347.019C7.37137 346.967 7.47639 346.788 7.5604 346.82C8.61204 347.196 9.61642 347.693 10.5534 348.301C9.07264 346.725 7.50789 345.203 5.82764 343.722Z" fill="#263238"/>
<path d="M6.18251 350.756C6.4136 350.889 6.63165 351.044 6.83376 351.218C6.89678 351.271 6.83376 351.355 6.74973 351.323C6.51578 351.216 6.29095 351.089 6.07747 350.945C5.96192 350.871 6.06696 350.682 6.18251 350.756Z" fill="#263238"/>
<path d="M59.9962 431.211H13.7891L17.5171 389.131L18.3363 379.848H55.449L56.2681 389.131L59.9962 431.211Z" fill="#607FE1"/>
<path d="M56.2666 389.131H17.5156L18.3348 379.848H55.4475L56.2666 389.131Z" fill="#263238"/>
<path d="M57.6589 373.367H16.125V382.556H57.6589V373.367Z" fill="#607FE1"/>
<path d="M141.519 350.789C141.865 349.003 142.075 347.407 142.254 345.706C142.433 344.005 142.517 342.314 142.506 340.581C142.515 338.799 142.36 337.021 142.044 335.267C141.712 333.235 140.898 331.312 139.671 329.659C138.906 328.725 137.926 327.99 136.814 327.517C136.259 327.284 135.677 327.121 135.081 327.034C134.525 326.952 133.962 326.927 133.401 326.96C131.325 327.118 129.348 327.914 127.741 329.239C126.296 330.396 125.069 331.8 124.118 333.387C123.127 334.95 122.453 336.691 122.133 338.512C121.922 339.6 122.009 340.725 122.385 341.768C122.644 342.441 123.102 343.02 123.698 343.427C124.264 343.802 124.92 344.02 125.598 344.057C126.296 344.092 126.989 343.925 127.594 343.574C128.113 343.246 128.554 342.809 128.885 342.293C129.411 341.464 129.768 340.54 129.936 339.573C130.235 337.857 130.235 336.101 129.936 334.385C129.672 332.666 129.045 331.023 128.098 329.565C127.592 328.791 126.907 328.15 126.103 327.696C125.27 327.241 124.307 327.082 123.372 327.244C121.697 327.62 120.181 328.508 119.035 329.785C116.859 332.182 115.124 334.945 113.91 337.945C115.336 335.104 117.248 332.534 119.56 330.352C120.638 329.305 122.021 328.625 123.509 328.41C124.175 328.398 124.831 328.584 125.391 328.945C125.952 329.306 126.393 329.825 126.659 330.436C127.328 331.742 127.718 333.173 127.804 334.637C127.928 336.097 127.803 337.567 127.436 338.985C127.282 339.595 127.011 340.169 126.638 340.676C126.522 340.826 126.37 340.945 126.197 341.022C126.099 341.059 125.991 341.059 125.893 341.022C125.745 341.022 125.577 340.907 125.556 340.854C125.513 340.779 125.481 340.697 125.462 340.613C125.39 340.121 125.426 339.619 125.567 339.142C126.385 336.534 128.066 334.283 130.335 332.757C131.252 332.092 132.352 331.726 133.485 331.707C133.726 331.72 133.965 331.755 134.199 331.812C134.39 331.863 134.573 331.937 134.745 332.033C135.073 332.225 135.347 332.495 135.543 332.82C136.101 333.832 136.427 334.955 136.499 336.107C136.623 337.505 136.623 338.911 136.499 340.308C136.376 341.795 136.176 343.274 135.901 344.74C135.628 346.199 135.281 347.743 134.85 349.077L141.519 350.789Z" fill="#5FD58C"/>
<path opacity="0.1" d="M141.519 350.789C141.865 349.003 142.075 347.407 142.254 345.706C142.433 344.005 142.517 342.314 142.506 340.581C142.515 338.799 142.36 337.021 142.044 335.267C141.712 333.235 140.898 331.312 139.671 329.659C138.906 328.725 137.926 327.99 136.814 327.517C136.259 327.284 135.677 327.121 135.081 327.034C134.525 326.952 133.962 326.927 133.401 326.96C131.325 327.118 129.348 327.914 127.741 329.239C126.296 330.396 125.069 331.8 124.118 333.387C123.127 334.95 122.453 336.691 122.133 338.512C121.922 339.6 122.009 340.725 122.385 341.768C122.644 342.441 123.102 343.02 123.698 343.427C124.264 343.802 124.92 344.02 125.598 344.057C126.296 344.092 126.989 343.925 127.594 343.574C128.113 343.246 128.554 342.809 128.885 342.293C129.411 341.464 129.768 340.54 129.936 339.573C130.235 337.857 130.235 336.101 129.936 334.385C129.672 332.666 129.045 331.023 128.098 329.565C127.592 328.791 126.907 328.15 126.103 327.696C125.27 327.241 124.307 327.082 123.372 327.244C121.697 327.62 120.181 328.508 119.035 329.785C116.859 332.182 115.124 334.945 113.91 337.945C115.336 335.104 117.248 332.534 119.56 330.352C120.638 329.305 122.021 328.625 123.509 328.41C124.175 328.398 124.831 328.584 125.391 328.945C125.952 329.306 126.393 329.825 126.659 330.436C127.328 331.742 127.718 333.173 127.804 334.637C127.928 336.097 127.803 337.567 127.436 338.985C127.282 339.595 127.011 340.169 126.638 340.676C126.522 340.826 126.37 340.945 126.197 341.022C126.099 341.059 125.991 341.059 125.893 341.022C125.745 341.022 125.577 340.907 125.556 340.854C125.513 340.779 125.481 340.697 125.462 340.613C125.39 340.121 125.426 339.619 125.567 339.142C126.385 336.534 128.066 334.283 130.335 332.757C131.252 332.092 132.352 331.726 133.485 331.707C133.726 331.72 133.965 331.755 134.199 331.812C134.39 331.863 134.573 331.937 134.745 332.033C135.073 332.225 135.347 332.495 135.543 332.82C136.101 333.832 136.427 334.955 136.499 336.107C136.623 337.505 136.623 338.911 136.499 340.308C136.376 341.795 136.176 343.274 135.901 344.74C135.628 346.199 135.281 347.743 134.85 349.077L141.519 350.789Z" fill="black"/>
<path d="M146.84 428.815C151.471 435.358 150.526 455.343 153.33 458.146C156.134 460.95 184.835 460.646 186.809 458.997C188.783 457.348 187.859 450.291 189.959 449.136C190.852 448.674 146.84 428.815 146.84 428.815Z" fill="#5FD58C"/>
<path opacity="0.1" d="M146.84 428.815C151.471 435.358 150.526 455.343 153.33 458.146C156.134 460.95 184.835 460.646 186.809 458.997C188.783 457.348 187.859 450.291 189.959 449.136C190.852 448.674 146.84 428.815 146.84 428.815Z" fill="black"/>
<path d="M269.547 429.142C263.761 437.543 266.891 455.396 264.087 458.147C261.283 460.899 232.582 460.646 230.607 458.998C228.633 457.349 229.557 449.914 228.413 448.496C227.814 447.751 269.547 429.142 269.547 429.142Z" fill="#5FD58C"/>
<path opacity="0.1" d="M269.547 429.142C263.761 437.543 266.891 455.396 264.087 458.147C261.283 460.899 232.582 460.646 230.607 458.998C228.633 457.349 229.557 449.914 228.413 448.496C227.814 447.751 269.547 429.142 269.547 429.142Z" fill="black"/>
<path opacity="0.3" d="M190.001 449.137C189.666 449.387 189.383 449.702 189.17 450.062C188.958 450.423 188.819 450.822 188.762 451.237C175.502 449.7 162.539 446.229 150.284 440.935C149.612 436.062 148.657 431.421 146.84 428.848C146.84 428.827 190.852 448.685 190.001 449.137Z" fill="black"/>
<path opacity="0.3" d="M269.549 429.142C267.396 432.292 266.472 436.692 266.021 441.176C254.269 446.383 241.813 449.826 229.055 451.395C229.073 450.393 228.857 449.4 228.425 448.496C227.805 447.75 269.549 429.142 269.549 429.142Z" fill="black"/>
<path d="M206.274 308.024C148.515 308.024 126.336 353.276 126.336 379.761C126.336 405.889 143.139 450.29 206.274 450.29C269.41 450.29 290.34 412.673 290.34 379.162C290.34 345.652 264.674 308.024 206.274 308.024Z" fill="#5FD58C"/>
<path opacity="0.1" d="M206.274 308.024C148.515 308.024 126.336 353.276 126.336 379.761C126.336 405.889 143.139 450.29 206.274 450.29C269.41 450.29 290.34 412.673 290.34 379.162C290.34 345.652 264.674 308.024 206.274 308.024Z" fill="black"/>
<path d="M222.586 311.302C222.586 311.302 248.987 291.055 277.583 293.45C287.423 294.279 271.082 315.619 270.778 332.306L222.586 311.302Z" fill="#5FD58C"/>
<path opacity="0.1" d="M222.586 311.302C222.586 311.302 248.987 291.055 277.583 293.45C287.423 294.279 271.082 315.619 270.778 332.306L222.586 311.302Z" fill="black"/>
<path opacity="0.3" d="M259.744 324.136C259.576 325.186 268.692 329.092 269.637 328.494C270.582 327.895 271.527 314.768 278.962 300.78C280.055 298.722 261.509 312.815 259.744 324.136Z" fill="black"/>
<path opacity="0.3" d="M265.475 376.14C266.356 376.005 267.18 375.622 267.851 375.037C268.523 374.451 269.013 373.686 269.266 372.832C269.182 373.882 268.862 374.9 268.329 375.809C267.796 376.719 267.065 377.496 266.189 378.082C266.063 378.166 266.126 378.408 266.294 378.356C271.346 376.455 270.799 369.324 269.025 364.777C268.93 364.525 268.836 364.273 268.72 364.031C267.586 361.395 265.57 359.484 263.133 359.831C254.974 361.007 257.914 377.232 265.475 376.14Z" fill="black"/>
<path d="M284.888 353.036C286.148 356.827 297.616 353.75 300.504 356.187C305.051 359.967 303.791 406.794 299.632 410.564C297.301 412.664 284.3 410.449 280.645 413.021C276.991 415.594 284.888 353.036 284.888 353.036Z" fill="#5FD58C"/>
<path opacity="0.1" d="M284.888 353.036C286.148 356.827 297.616 353.75 300.504 356.187C305.051 359.967 303.791 406.794 299.632 410.564C297.301 412.664 284.3 410.449 280.645 413.021C276.991 415.594 284.888 353.036 284.888 353.036Z" fill="black"/>
<path opacity="0.3" d="M301.158 382.199C301.158 393.603 300.202 402.855 299.057 402.855C297.913 402.855 296.957 393.603 296.957 382.199C296.957 370.794 297.902 361.542 299.057 361.542C300.213 361.542 301.158 370.794 301.158 382.199Z" fill="black"/>
<path opacity="0.3" d="M183.861 323.034C184.05 322.971 203.541 316.638 221.667 321.595L223.473 314.989C203.289 309.466 182.517 316.25 181.688 316.533L183.851 323.034L182.801 319.789L183.861 323.034Z" fill="black"/>
<path d="M156.766 422.463C130.732 392.544 146.663 357.804 147.388 356.303C147.833 355.291 147.87 354.146 147.49 353.108C147.111 352.069 146.345 351.217 145.352 350.731C144.36 350.244 143.217 350.16 142.164 350.495C141.111 350.831 140.228 351.561 139.701 352.533C136.184 360.414 134.103 368.861 133.557 377.474C132.307 396.503 138.598 413.978 153.51 425.876C158.015 429.468 160.147 426.317 156.766 422.463Z" fill="white"/>
<path d="M145.465 343.028C145.463 343.951 145.734 344.853 146.246 345.621C146.757 346.389 147.484 346.988 148.336 347.343C149.188 347.697 150.125 347.791 151.03 347.613C151.936 347.434 152.767 346.991 153.42 346.339C154.074 345.687 154.519 344.857 154.699 343.952C154.88 343.047 154.788 342.109 154.436 341.257C154.083 340.404 153.486 339.675 152.719 339.162C151.952 338.65 151.05 338.376 150.127 338.376C148.893 338.376 147.708 338.866 146.834 339.738C145.96 340.61 145.468 341.793 145.465 343.028Z" fill="white"/>
<path d="M376.766 453.1H343.844V460.377H376.766V453.1Z" fill="#FFC700"/>
<path opacity="0.1" d="M376.765 453.1V454.643L343.832 455.683V453.1H376.765Z" fill="black"/>
<path d="M374.016 445.822H341.094V453.1H374.016V445.822Z" fill="#FFC700"/>
<g opacity="0.1">
<path opacity="0.1" d="M372.533 452.309C371.833 450.434 371.833 448.368 372.533 446.492C373.233 448.368 373.233 450.434 372.533 452.309V452.309Z" fill="black"/>
<path opacity="0.1" d="M370.09 452.309C369.723 451.384 369.545 450.396 369.565 449.401C369.539 448.406 369.718 447.416 370.09 446.492C370.457 447.417 370.636 448.406 370.615 449.401C370.63 450.395 370.452 451.383 370.09 452.309V452.309Z" fill="black"/>
<path opacity="0.1" d="M368.896 452.309C368.196 450.434 368.196 448.368 368.896 446.492C369.597 448.368 369.597 450.434 368.896 452.309V452.309Z" fill="black"/>
<path opacity="0.1" d="M362.31 452.309C361.61 450.434 361.61 448.368 362.31 446.492C363.011 448.368 363.011 450.434 362.31 452.309V452.309Z" fill="black"/>
<path opacity="0.1" d="M360.492 452.309C360.13 451.383 359.952 450.395 359.966 449.401C359.946 448.406 360.124 447.417 360.492 446.492C360.864 447.416 361.043 448.406 361.017 449.401C361.037 450.396 360.858 451.384 360.492 452.309Z" fill="black"/>
<path opacity="0.1" d="M353.142 452.309C352.442 450.434 352.442 448.368 353.142 446.492C353.843 448.368 353.843 450.434 353.142 452.309V452.309Z" fill="black"/>
<path opacity="0.1" d="M351.477 452.309C351.11 451.384 350.932 450.396 350.952 449.401C350.926 448.406 351.104 447.416 351.477 446.492C352.177 448.368 352.177 450.434 351.477 452.309Z" fill="black"/>
<path opacity="0.1" d="M348.357 452.309C347.657 450.434 347.657 448.368 348.357 446.492C349.058 448.368 349.058 450.434 348.357 452.309V452.309Z" fill="black"/>
<path opacity="0.1" d="M354.59 452.309C354.228 451.383 354.05 450.395 354.065 449.401C354.039 448.406 354.218 447.416 354.59 446.492C354.957 447.417 355.136 448.406 355.115 449.401C355.13 450.395 354.952 451.383 354.59 452.309Z" fill="black"/>
<path opacity="0.1" d="M366.715 452.309C366.348 451.384 366.17 450.396 366.19 449.401C366.164 448.406 366.343 447.416 366.715 446.492C367.415 448.368 367.415 450.434 366.715 452.309Z" fill="black"/>
<path opacity="0.1" d="M358.185 452.309C357.485 450.434 357.485 448.368 358.185 446.492C358.886 448.368 358.886 450.434 358.185 452.309V452.309Z" fill="black"/>
<path opacity="0.1" d="M356.971 452.309C356.27 450.434 356.27 448.368 356.971 446.492C357.657 448.371 357.657 450.431 356.971 452.309Z" fill="black"/>
<path opacity="0.1" d="M344.283 452.309C343.583 450.434 343.583 448.368 344.283 446.492C344.655 447.416 344.834 448.406 344.808 449.401C344.828 450.396 344.65 451.384 344.283 452.309Z" fill="black"/>
<path opacity="0.1" d="M342.445 452.309C342.083 451.383 341.905 450.395 341.92 449.401C341.899 448.406 342.077 447.417 342.445 446.492C342.817 447.416 342.996 448.406 342.97 449.401C342.99 450.396 342.811 451.384 342.445 452.309Z" fill="black"/>
<path opacity="0.1" d="M346.912 452.309C346.212 450.434 346.212 448.368 346.912 446.492C347.612 448.368 347.612 450.434 346.912 452.309V452.309Z" fill="black"/>
<path opacity="0.1" d="M363.727 452.309C363.36 451.384 363.182 450.396 363.202 449.401C363.176 448.406 363.354 447.416 363.727 446.492C364.094 447.417 364.273 448.406 364.252 449.401C364.267 450.395 364.088 451.383 363.727 452.309V452.309Z" fill="black"/>
</g>
<path opacity="0.1" d="M374.016 445.822V447.366L341.094 448.406V445.822H374.016Z" fill="black"/>
<path d="M376.551 438.607H343.629V445.885H376.551V438.607Z" fill="#FFC700"/>
<path opacity="0.1" d="M376.562 438.607V440.151L343.629 441.191V438.607H376.562Z" fill="black"/>
<path d="M135.973 448.72H103.051V455.997H135.973V448.72Z" fill="#FFC700"/>
<g opacity="0.1">
<path opacity="0.1" d="M104.4 449.338C105.096 451.218 105.096 453.285 104.4 455.166C103.705 453.285 103.705 451.218 104.4 449.338V449.338Z" fill="black"/>
<path opacity="0.1" d="M106.855 449.338C107.216 450.265 107.395 451.252 107.381 452.246C107.401 453.245 107.222 454.237 106.855 455.166C106.484 454.238 106.305 453.245 106.33 452.246C106.311 451.252 106.49 450.263 106.855 449.338V449.338Z" fill="black"/>
<path opacity="0.1" d="M108.058 449.338C108.419 450.265 108.597 451.252 108.583 452.246C108.608 453.245 108.429 454.238 108.058 455.166C107.691 454.237 107.513 453.245 107.533 452.246C107.519 451.252 107.697 450.265 108.058 449.338Z" fill="black"/>
<path opacity="0.1" d="M114.627 449.338C115.322 451.218 115.322 453.285 114.627 455.166C113.932 453.285 113.932 451.218 114.627 449.338V449.338Z" fill="black"/>
<path opacity="0.1" d="M116.416 449.338C117.112 451.218 117.112 453.285 116.416 455.166C115.721 453.285 115.721 451.218 116.416 449.338V449.338Z" fill="black"/>
<path opacity="0.1" d="M123.768 449.338C124.133 450.263 124.312 451.252 124.293 452.246C124.318 453.245 124.139 454.238 123.768 455.166C123.072 453.285 123.072 451.218 123.768 449.338V449.338Z" fill="black"/>
<path opacity="0.1" d="M125.468 449.338C125.829 450.265 126.007 451.252 125.993 452.246C126.018 453.245 125.839 454.238 125.468 455.166C125.101 454.237 124.923 453.245 124.943 452.246C124.929 451.252 125.107 450.265 125.468 449.338V449.338Z" fill="black"/>
<path opacity="0.1" d="M128.588 449.338C128.954 450.263 129.132 451.252 129.113 452.246C129.138 453.245 128.96 454.238 128.588 455.166C127.893 453.285 127.893 451.218 128.588 449.338V449.338Z" fill="black"/>
<path opacity="0.1" d="M122.348 449.338C123.043 451.218 123.043 453.285 122.348 455.166C121.976 454.238 121.797 453.245 121.823 452.246C121.803 451.252 121.982 450.263 122.348 449.338Z" fill="black"/>
<path opacity="0.1" d="M110.23 449.338C110.591 450.265 110.77 451.252 110.756 452.246C110.776 453.245 110.597 454.237 110.23 455.166C109.859 454.238 109.68 453.245 109.705 452.246C109.691 451.252 109.87 450.265 110.23 449.338Z" fill="black"/>
<path opacity="0.1" d="M118.76 449.338C119.455 451.218 119.455 453.285 118.76 455.166C118.064 453.285 118.064 451.218 118.76 449.338V449.338Z" fill="black"/>
<path opacity="0.1" d="M120.006 449.338C120.701 451.218 120.701 453.285 120.006 455.166C119.311 453.285 119.311 451.218 120.006 449.338V449.338Z" fill="black"/>
<path opacity="0.1" d="M132.662 449.338C133.358 451.218 133.358 453.285 132.662 455.166C131.967 453.285 131.967 451.218 132.662 449.338V449.338Z" fill="black"/>
<path opacity="0.1" d="M134.498 449.338C135.194 451.218 135.194 453.285 134.498 455.166C133.803 453.285 133.803 451.218 134.498 449.338V449.338Z" fill="black"/>
<path opacity="0.1" d="M130.033 449.338C130.399 450.263 130.577 451.252 130.558 452.246C130.583 453.245 130.405 454.238 130.033 455.166C129.338 453.285 129.338 451.218 130.033 449.338V449.338Z" fill="black"/>
<path opacity="0.1" d="M113.215 449.338C113.576 450.265 113.754 451.252 113.74 452.246C113.76 453.245 113.581 454.237 113.215 455.166C112.843 454.238 112.665 453.245 112.69 452.246C112.671 451.252 112.849 450.263 113.215 449.338V449.338Z" fill="black"/>
</g>
<path opacity="0.1" d="M135.984 448.72V450.263L103.051 451.303V448.72H135.984Z" fill="black"/>
<path d="M133.727 441.442H100.805V448.72H133.727V441.442Z" fill="#FFC700"/>
<g opacity="0.1">
<path opacity="0.1" d="M102.156 442.103C102.518 443.033 102.696 444.024 102.681 445.022C102.705 446.017 102.526 447.006 102.156 447.93C101.786 447.006 101.607 446.017 101.631 445.022C101.616 444.024 101.794 443.033 102.156 442.103V442.103Z" fill="black"/>
<path opacity="0.1" d="M104.597 442.103C105.292 443.983 105.292 446.05 104.597 447.93C103.91 446.048 103.91 443.985 104.597 442.103V442.103Z" fill="black"/>
<path opacity="0.1" d="M105.807 442.103C106.502 443.983 106.502 446.05 105.807 447.93C105.111 446.05 105.111 443.983 105.807 442.103V442.103Z" fill="black"/>
<path opacity="0.1" d="M112.383 442.103C113.078 443.983 113.078 446.05 112.383 447.93C112.012 447.006 111.834 446.017 111.858 445.022C111.838 444.023 112.016 443.031 112.383 442.103Z" fill="black"/>
<path opacity="0.1" d="M114.158 442.103C114.854 443.983 114.854 446.05 114.158 447.93C113.463 446.05 113.463 443.983 114.158 442.103V442.103Z" fill="black"/>
<path opacity="0.1" d="M121.514 442.103C122.209 443.983 122.209 446.05 121.514 447.93C120.818 446.05 120.818 443.983 121.514 442.103V442.103Z" fill="black"/>
<path opacity="0.1" d="M123.217 442.103C123.912 443.983 123.912 446.05 123.217 447.93C122.521 446.05 122.521 443.983 123.217 442.103V442.103Z" fill="black"/>
<path opacity="0.1" d="M126.311 442.103C127.006 443.983 127.006 446.05 126.311 447.93C125.615 446.05 125.615 443.983 126.311 442.103V442.103Z" fill="black"/>
<path opacity="0.1" d="M120.092 442.103C120.787 443.983 120.787 446.05 120.092 447.93C119.396 446.05 119.396 443.983 120.092 442.103V442.103Z" fill="black"/>
<path opacity="0.1" d="M107.983 442.103C108.678 443.983 108.678 446.05 107.983 447.93C107.287 446.05 107.287 443.983 107.983 442.103V442.103Z" fill="black"/>
<path opacity="0.1" d="M116.499 442.103C116.866 443.031 117.044 444.023 117.024 445.022C117.048 446.017 116.869 447.006 116.499 447.93C116.133 447.005 115.955 446.016 115.974 445.022C115.959 444.024 116.137 443.033 116.499 442.103V442.103Z" fill="black"/>
<path opacity="0.1" d="M117.726 442.103C118.422 443.983 118.422 446.05 117.726 447.93C117.356 447.006 117.178 446.017 117.201 445.022C117.181 444.023 117.36 443.031 117.726 442.103V442.103Z" fill="black"/>
<path opacity="0.1" d="M130.404 442.103C130.771 443.031 130.949 444.023 130.929 445.022C130.953 446.017 130.775 447.006 130.404 447.93C129.709 446.05 129.709 443.983 130.404 442.103V442.103Z" fill="black"/>
<path opacity="0.1" d="M132.244 442.103C132.94 443.983 132.94 446.05 132.244 447.93C131.549 446.05 131.549 443.983 132.244 442.103V442.103Z" fill="black"/>
<path opacity="0.1" d="M127.787 442.103C128.483 443.983 128.483 446.05 127.787 447.93C127.092 446.05 127.092 443.983 127.787 442.103V442.103Z" fill="black"/>
<path opacity="0.1" d="M110.959 442.103C111.654 443.983 111.654 446.05 110.959 447.93C110.264 446.05 110.264 443.983 110.959 442.103V442.103Z" fill="black"/>
</g>
<path opacity="0.1" d="M133.727 441.442V442.986L100.805 444.026V441.442H133.727Z" fill="black"/>
<path d="M138.809 426.948H105.887V434.226H138.809V426.948Z" fill="#FFC700"/>
<g opacity="0.1">
<path opacity="0.1" d="M107.24 427.611C107.936 429.492 107.936 431.559 107.24 433.439C106.545 431.559 106.545 429.492 107.24 427.611Z" fill="black"/>
<path opacity="0.1" d="M109.691 427.61C110.053 428.54 110.231 429.532 110.216 430.529C110.235 431.524 110.057 432.513 109.691 433.438C109.321 432.514 109.142 431.525 109.166 430.529C109.146 429.531 109.325 428.539 109.691 427.61V427.61Z" fill="black"/>
<path opacity="0.1" d="M110.894 427.61C111.256 428.54 111.434 429.532 111.419 430.529C111.438 431.524 111.26 432.513 110.894 433.438C110.524 432.514 110.346 431.525 110.369 430.529C110.354 429.532 110.533 428.54 110.894 427.61Z" fill="black"/>
<path opacity="0.1" d="M117.467 427.61C117.833 428.539 118.012 429.531 117.992 430.529C118.016 431.525 117.837 432.514 117.467 433.438C116.771 431.558 116.771 429.491 117.467 427.61V427.61Z" fill="black"/>
<path opacity="0.1" d="M119.256 427.61C119.951 429.491 119.951 431.558 119.256 433.438C118.561 431.558 118.561 429.491 119.256 427.61Z" fill="black"/>
<path opacity="0.1" d="M126.608 427.61C126.975 428.539 127.153 429.531 127.133 430.529C127.157 431.525 126.979 432.514 126.608 433.438C126.243 432.513 126.064 431.524 126.083 430.529C126.069 429.532 126.247 428.54 126.608 427.61Z" fill="black"/>
<path opacity="0.1" d="M128.308 427.61C128.67 428.54 128.848 429.532 128.833 430.529C128.853 431.524 128.674 432.513 128.308 433.438C127.938 432.514 127.76 431.525 127.783 430.529C127.769 429.532 127.947 428.54 128.308 427.61Z" fill="black"/>
<path opacity="0.1" d="M131.424 427.61C131.79 428.539 131.969 429.531 131.949 430.529C131.973 431.525 131.794 432.514 131.424 433.438C130.728 431.558 130.728 429.491 131.424 427.61V427.61Z" fill="black"/>
<path opacity="0.1" d="M125.186 427.61C125.881 429.491 125.881 431.558 125.186 433.438C124.49 431.558 124.49 429.491 125.186 427.61Z" fill="black"/>
<path opacity="0.1" d="M113.07 427.61C113.432 428.54 113.61 429.532 113.595 430.529C113.614 431.524 113.436 432.513 113.07 433.438C112.7 432.514 112.521 431.525 112.545 430.529C112.53 429.532 112.709 428.54 113.07 427.61Z" fill="black"/>
<path opacity="0.1" d="M121.585 427.61C122.28 429.491 122.28 431.558 121.585 433.438C120.899 431.556 120.899 429.492 121.585 427.61V427.61Z" fill="black"/>
<path opacity="0.1" d="M122.811 427.61C123.506 429.491 123.506 431.558 122.811 433.438C122.115 431.558 122.115 429.491 122.811 427.61Z" fill="black"/>
<path opacity="0.1" d="M135.498 427.61C136.194 429.491 136.194 431.558 135.498 433.438C134.803 431.558 134.803 429.491 135.498 427.61Z" fill="black"/>
<path opacity="0.1" d="M137.33 427.61C138.026 429.491 138.026 431.558 137.33 433.438C136.635 431.558 136.635 429.491 137.33 427.61Z" fill="black"/>
<path opacity="0.1" d="M132.874 427.61C133.241 428.539 133.419 429.531 133.399 430.529C133.423 431.525 133.244 432.514 132.874 433.438C132.508 432.513 132.33 431.524 132.349 430.529C132.334 429.532 132.512 428.54 132.874 427.61Z" fill="black"/>
<path opacity="0.1" d="M116.054 427.61C116.416 428.54 116.594 429.532 116.579 430.529C116.599 431.524 116.42 432.513 116.054 433.438C115.684 432.514 115.506 431.525 115.529 430.529C115.509 429.531 115.688 428.539 116.054 427.61V427.61Z" fill="black"/>
</g>
<path opacity="0.1" d="M138.809 426.948V428.492L105.887 429.532V426.948H138.809Z" fill="black"/>
<path d="M137.989 419.672H105.066V426.949H137.989V419.672Z" fill="#FFC700"/>
<g opacity="0.1">
<path opacity="0.1" d="M136.51 426.161C135.809 424.285 135.809 422.22 136.51 420.344C137.196 422.222 137.196 424.283 136.51 426.161V426.161Z" fill="black"/>
<path opacity="0.1" d="M134.054 426.161C133.692 425.235 133.514 424.247 133.529 423.252C133.508 422.257 133.687 421.269 134.054 420.344C134.426 421.267 134.605 422.257 134.579 423.252C134.594 424.247 134.416 425.235 134.054 426.161V426.161Z" fill="black"/>
<path opacity="0.1" d="M132.86 426.161C132.493 425.236 132.315 424.247 132.335 423.252C132.308 422.257 132.487 421.267 132.86 420.344C133.227 421.269 133.405 422.257 133.385 423.252C133.399 424.247 133.221 425.235 132.86 426.161Z" fill="black"/>
<path opacity="0.1" d="M126.314 426.161C125.614 424.285 125.614 422.22 126.314 420.344C127.015 422.22 127.015 424.285 126.314 426.161V426.161Z" fill="black"/>
<path opacity="0.1" d="M124.498 426.161C123.798 424.285 123.798 422.22 124.498 420.344C125.198 422.22 125.198 424.285 124.498 426.161V426.161Z" fill="black"/>
<path opacity="0.1" d="M117.145 426.161C116.778 425.236 116.6 424.247 116.62 423.252C116.594 422.257 116.772 421.267 117.145 420.344C117.845 422.22 117.845 424.285 117.145 426.161Z" fill="black"/>
<path opacity="0.1" d="M115.445 426.161C115.079 425.236 114.9 424.247 114.92 423.252C114.894 422.257 115.073 421.267 115.445 420.344C115.813 421.269 115.991 422.257 115.971 423.252C115.985 424.247 115.807 425.235 115.445 426.161V426.161Z" fill="black"/>
<path opacity="0.1" d="M112.334 426.161C111.634 424.285 111.634 422.22 112.334 420.344C113.034 422.22 113.034 424.285 112.334 426.161V426.161Z" fill="black"/>
<path opacity="0.1" d="M118.558 426.161C118.196 425.235 118.018 424.247 118.033 423.252C118.012 422.257 118.191 421.269 118.558 420.344C118.93 421.267 119.109 422.257 119.083 423.252C119.103 424.247 118.924 425.236 118.558 426.161Z" fill="black"/>
<path opacity="0.1" d="M130.688 426.161C130.326 425.235 130.148 424.247 130.163 423.252C130.137 422.257 130.315 421.267 130.688 420.344C131.055 421.269 131.234 422.257 131.213 423.252C131.228 424.247 131.049 425.235 130.688 426.161V426.161Z" fill="black"/>
<path opacity="0.1" d="M122.111 426.161C121.411 424.285 121.411 422.22 122.111 420.344C122.811 422.22 122.811 424.285 122.111 426.161V426.161Z" fill="black"/>
<path opacity="0.1" d="M120.939 426.161C120.239 424.285 120.239 422.22 120.939 420.344C121.64 422.22 121.64 424.285 120.939 426.161V426.161Z" fill="black"/>
<path opacity="0.1" d="M108.252 426.161C107.551 424.285 107.551 422.22 108.252 420.344C108.952 422.22 108.952 424.285 108.252 426.161V426.161Z" fill="black"/>
<path opacity="0.1" d="M106.416 426.161C105.716 424.285 105.716 422.22 106.416 420.344C107.116 422.22 107.116 424.285 106.416 426.161V426.161Z" fill="black"/>
<path opacity="0.1" d="M110.881 426.161C110.18 424.285 110.18 422.22 110.881 420.344C111.581 422.22 111.581 424.285 110.881 426.161V426.161Z" fill="black"/>
<path opacity="0.1" d="M127.695 426.161C127.333 425.235 127.155 424.247 127.17 423.252C127.149 422.257 127.327 421.269 127.695 420.344C128.067 421.267 128.246 422.257 128.22 423.252C128.234 424.247 128.056 425.235 127.695 426.161Z" fill="black"/>
</g>
<path opacity="0.1" d="M137.989 419.672V421.216L105.066 422.255V419.672H137.989Z" fill="black"/>
<path d="M135.973 412.395H103.051V419.672H135.973V412.395Z" fill="#FFC700"/>
<g opacity="0.1">
<path opacity="0.1" d="M104.405 413.065C105.106 414.941 105.106 417.007 104.405 418.883C103.719 417.004 103.719 414.944 104.405 413.065Z" fill="black"/>
<path opacity="0.1" d="M106.859 413.065C107.221 413.992 107.399 414.98 107.384 415.974C107.404 416.969 107.226 417.958 106.859 418.883C106.489 417.959 106.31 416.969 106.334 415.974C106.319 414.98 106.498 413.992 106.859 413.065V413.065Z" fill="black"/>
<path opacity="0.1" d="M108.062 413.065C108.428 413.99 108.607 414.979 108.587 415.974C108.61 416.969 108.432 417.959 108.062 418.883C107.695 417.958 107.517 416.969 107.537 415.974C107.522 414.98 107.7 413.992 108.062 413.065Z" fill="black"/>
<path opacity="0.1" d="M114.631 413.065C115.331 414.941 115.331 417.007 114.631 418.883C113.93 417.007 113.93 414.941 114.631 413.065V413.065Z" fill="black"/>
<path opacity="0.1" d="M116.42 413.065C117.12 414.941 117.12 417.007 116.42 418.883C115.719 417.007 115.719 414.941 116.42 413.065V413.065Z" fill="black"/>
<path opacity="0.1" d="M123.771 413.065C124.472 414.941 124.472 417.007 123.771 418.883C123.071 417.007 123.071 414.941 123.771 413.065V413.065Z" fill="black"/>
<path opacity="0.1" d="M125.468 413.065C125.834 413.99 126.013 414.979 125.993 415.974C126.017 416.969 125.838 417.959 125.468 418.883C125.101 417.958 124.923 416.969 124.943 415.974C124.928 414.98 125.106 413.992 125.468 413.065V413.065Z" fill="black"/>
<path opacity="0.1" d="M128.588 413.065C129.288 414.941 129.288 417.007 128.588 418.883C127.887 417.007 127.887 414.941 128.588 413.065V413.065Z" fill="black"/>
<path opacity="0.1" d="M122.347 413.065C122.709 413.992 122.887 414.98 122.872 415.974C122.892 416.969 122.714 417.958 122.347 418.883C121.977 417.959 121.799 416.969 121.822 415.974C121.802 414.979 121.981 413.99 122.347 413.065V413.065Z" fill="black"/>
<path opacity="0.1" d="M110.237 413.065C110.599 413.992 110.777 414.98 110.762 415.974C110.786 416.969 110.608 417.959 110.237 418.883C109.871 417.958 109.692 416.969 109.712 415.974C109.698 414.98 109.876 413.992 110.237 413.065V413.065Z" fill="black"/>
<path opacity="0.1" d="M118.76 413.065C119.46 414.941 119.46 417.007 118.76 418.883C118.059 417.007 118.059 414.941 118.76 413.065V413.065Z" fill="black"/>
<path opacity="0.1" d="M120.01 413.065C120.71 414.941 120.71 417.007 120.01 418.883C119.309 417.007 119.309 414.941 120.01 413.065V413.065Z" fill="black"/>
<path opacity="0.1" d="M132.666 413.065C133.366 414.941 133.366 417.007 132.666 418.883C131.966 417.007 131.966 414.941 132.666 413.065V413.065Z" fill="black"/>
<path opacity="0.1" d="M134.502 413.065C135.202 414.941 135.202 417.007 134.502 418.883C133.801 417.007 133.801 414.941 134.502 413.065V413.065Z" fill="black"/>
<path opacity="0.1" d="M130.041 413.065C130.741 414.941 130.741 417.007 130.041 418.883C129.341 417.007 129.341 414.941 130.041 413.065V413.065Z" fill="black"/>
<path opacity="0.1" d="M113.219 413.065C113.58 413.992 113.758 414.98 113.744 415.974C113.764 416.969 113.585 417.958 113.219 418.883C112.848 417.959 112.67 416.969 112.693 415.974C112.679 414.98 112.857 413.992 113.219 413.065V413.065Z" fill="black"/>
</g>
<path opacity="0.1" d="M135.984 412.395V413.949L103.051 414.988V412.395H135.984Z" fill="black"/>
<path d="M135.973 434.227H103.051V441.504H135.973V434.227Z" fill="#FFC700"/>
<g opacity="0.1">
<path opacity="0.1" d="M134.502 440.716C133.807 438.836 133.807 436.769 134.502 434.889C135.197 436.769 135.197 438.836 134.502 440.716V440.716Z" fill="black"/>
<path opacity="0.1" d="M132.045 440.716C131.35 438.836 131.35 436.769 132.045 434.889C132.74 436.769 132.74 438.836 132.045 440.716V440.716Z" fill="black"/>
<path opacity="0.1" d="M130.846 440.716C130.15 438.836 130.15 436.769 130.846 434.889C131.216 435.813 131.395 436.802 131.371 437.797C131.391 438.796 131.212 439.788 130.846 440.716V440.716Z" fill="black"/>
<path opacity="0.1" d="M124.269 440.716C123.908 439.786 123.729 438.795 123.744 437.797C123.721 436.802 123.899 435.813 124.269 434.889C124.635 435.814 124.813 436.803 124.794 437.797C124.809 438.795 124.631 439.786 124.269 440.716V440.716Z" fill="black"/>
<path opacity="0.1" d="M122.498 440.716C121.803 438.836 121.803 436.769 122.498 434.889C123.184 436.771 123.184 438.834 122.498 440.716V440.716Z" fill="black"/>
<path opacity="0.1" d="M115.132 440.717C114.77 439.787 114.592 438.796 114.607 437.798C114.588 436.804 114.766 435.815 115.132 434.89C115.502 435.814 115.681 436.803 115.657 437.798C115.672 438.796 115.493 439.787 115.132 440.717V440.717Z" fill="black"/>
<path opacity="0.1" d="M113.436 440.717C112.74 438.837 112.74 436.77 113.436 434.89C113.806 435.814 113.984 436.803 113.961 437.798C113.981 438.796 113.802 439.789 113.436 440.717Z" fill="black"/>
<path opacity="0.1" d="M110.316 440.717C109.955 439.787 109.776 438.796 109.791 437.798C109.767 436.803 109.946 435.814 110.316 434.89C110.682 435.815 110.86 436.804 110.841 437.798C110.856 438.796 110.678 439.787 110.316 440.717V440.717Z" fill="black"/>
<path opacity="0.1" d="M116.557 440.716C115.861 438.836 115.861 436.769 116.557 434.889C117.252 436.769 117.252 438.836 116.557 440.716V440.716Z" fill="black"/>
<path opacity="0.1" d="M128.67 440.716C127.975 438.836 127.975 436.769 128.67 434.889C129.04 435.813 129.219 436.802 129.195 437.797C129.215 438.796 129.037 439.788 128.67 440.716V440.716Z" fill="black"/>
<path opacity="0.1" d="M120.154 440.716C119.459 438.836 119.459 436.769 120.154 434.889C120.85 436.769 120.85 438.836 120.154 440.716V440.716Z" fill="black"/>
<path opacity="0.1" d="M118.961 440.716C118.594 439.788 118.416 438.796 118.436 437.797C118.412 436.802 118.591 435.813 118.961 434.889C119.326 435.814 119.505 436.803 119.486 437.797C119.501 438.795 119.322 439.786 118.961 440.716Z" fill="black"/>
<path opacity="0.1" d="M106.252 440.717C105.557 438.837 105.557 436.77 106.252 434.89C106.947 436.77 106.947 438.837 106.252 440.717V440.717Z" fill="black"/>
<path opacity="0.1" d="M104.404 440.717C103.709 438.837 103.709 436.77 104.404 434.89C105.1 436.77 105.1 438.837 104.404 440.717V440.717Z" fill="black"/>
<path opacity="0.1" d="M108.871 440.717C108.509 439.787 108.331 438.796 108.346 437.798C108.322 436.803 108.501 435.814 108.871 434.89C109.241 435.814 109.42 436.803 109.396 437.798C109.411 438.796 109.232 439.787 108.871 440.717V440.717Z" fill="black"/>
<path opacity="0.1" d="M125.69 440.716C124.994 438.836 124.994 436.769 125.69 434.889C126.385 436.769 126.385 438.836 125.69 440.716V440.716Z" fill="black"/>
</g>
<path opacity="0.1" d="M135.984 434.227V435.77L103.051 436.81V434.227H135.984Z" fill="black"/>
<path d="M100.313 430.605C121.989 434.501 116.255 466.604 94.5479 462.708C72.8411 458.812 78.596 426.708 100.313 430.605Z" fill="#FFC700"/>
<path opacity="0.1" d="M100.313 430.605C121.989 434.501 116.255 466.604 94.5479 462.708C72.8411 458.812 78.596 426.708 100.313 430.605Z" fill="black"/>
<path d="M98.2749 430.235C118.932 433.942 113.208 466.056 92.5095 462.338C71.8108 458.621 77.5867 426.528 98.2749 430.235Z" fill="#FFC700"/>
<path opacity="0.1" d="M82.293 447.049C82.4085 452.772 85.7375 458.307 93.0046 459.651C110.175 462.728 114.932 436.075 97.7829 432.998L97.4468 432.945C113.525 436.169 108.915 461.384 92.5425 458.443C89.7671 458.052 87.2182 456.696 85.3437 454.612C83.4692 452.528 82.389 449.85 82.293 447.049V447.049Z" fill="black"/>
<g opacity="0.1">
<path opacity="0.1" d="M97.1878 436.295C97.3251 436.334 97.442 436.425 97.5143 436.548C97.5867 436.671 97.6089 436.817 97.5764 436.956L97.3559 437.838C98.7625 438.303 99.9961 439.181 100.895 440.359C100.972 440.434 101.029 440.527 101.062 440.629C101.095 440.732 101.103 440.841 101.084 440.947C101.04 441.093 100.941 441.218 100.808 441.294C100.676 441.37 100.519 441.392 100.37 441.356C100.295 441.339 100.225 441.307 100.164 441.262C100.103 441.217 100.051 441.16 100.013 441.094C99.2683 440.074 98.2429 439.293 97.0618 438.846L95.5286 445.011C98.6791 446.555 99.7922 448.161 99.2567 450.314C98.6686 452.656 96.2952 453.811 93.5228 453.213L93.0922 454.935C93.0835 455.012 93.0584 455.087 93.0185 455.154C92.9787 455.221 92.925 455.278 92.861 455.323C92.7971 455.367 92.7244 455.397 92.6478 455.411C92.5713 455.425 92.4926 455.423 92.4171 455.404C92.3416 455.385 92.271 455.35 92.21 455.302C92.149 455.253 92.0991 455.193 92.0636 455.123C92.0281 455.054 92.0078 454.978 92.0041 454.9C92.0003 454.822 92.0133 454.745 92.042 454.672L92.4726 452.929C90.6621 452.334 89.1048 451.146 88.0514 449.558C87.9884 449.488 87.9439 449.403 87.9219 449.312C87.8999 449.22 87.9011 449.124 87.9254 449.033C87.9649 448.89 88.0578 448.768 88.1849 448.692C88.3119 448.616 88.4634 448.591 88.608 448.623C88.6824 448.637 88.7529 448.666 88.8146 448.71C88.8763 448.753 88.9277 448.81 88.9651 448.876C89.8439 450.305 91.1854 451.391 92.7667 451.952L94.3314 445.652C91.1809 444.097 90.1307 442.501 90.6978 440.348C91.2649 438.195 93.6068 436.904 96.3162 437.513L96.5262 436.673C96.5678 436.537 96.6593 436.423 96.7822 436.353C96.9051 436.282 97.0502 436.262 97.1878 436.295V436.295ZM94.6149 444.549L96.1062 438.531C94.0058 438.048 92.2311 438.973 91.8425 440.558C91.454 442.144 91.937 443.152 94.6149 444.549ZM95.245 446.135L93.7643 452.215C95.9696 452.719 97.7234 451.795 98.1435 450.115C98.5635 448.434 97.965 447.489 95.245 446.187V446.135Z" fill="black"/>
</g>
</svg>
