<svg width="24" height="24" viewBox="0 0 24 24" fill="none" xmlns="http://www.w3.org/2000/svg">
<path d="M12 15.9082C12.2222 15.9019 12.4253 15.8193 12.5903 15.6416L17.4146 10.7031C17.5542 10.5635 17.6304 10.3857 17.6304 10.1763C17.6304 9.75732 17.3003 9.4209 16.8813 9.4209C16.6782 9.4209 16.4814 9.50342 16.3354 9.64941L12.0063 14.0991L7.66455 9.64941C7.51855 9.50977 7.32812 9.4209 7.11865 9.4209C6.69971 9.4209 6.36963 9.75732 6.36963 10.1763C6.36963 10.3857 6.4458 10.5635 6.58545 10.7031L11.416 15.6416C11.5874 15.8193 11.7778 15.9082 12 15.9082Z" fill="#607FE1"/>
</svg>
