<svg width="74" height="74" viewBox="0 0 74 74" fill="none" xmlns="http://www.w3.org/2000/svg">
<circle cx="37" cy="37" r="36" stroke="#2C6CD5" stroke-width="2"/>
<g clip-path="url(#clip0_3825_1477)">
<path d="M57.9718 52.7969L57.0711 49.4352C56.9539 48.9975 56.5039 48.7375 56.0664 48.8551C55.6287 48.9724 55.369 49.4221 55.4863 49.8598L55.8807 51.3315L50.1244 48.048V34.401C50.1244 34.1074 49.9675 33.8361 49.7129 33.6898L37.819 26.8517V20.3534L38.8797 21.4141C39.2001 21.7344 39.7195 21.7344 40.0399 21.4141C40.3602 21.0937 40.3602 20.5743 40.0399 20.2539L37.5788 17.7928C37.2581 17.4708 36.733 17.4773 36.4186 17.7928L33.9575 20.2539C33.6372 20.5742 33.6372 21.0937 33.9575 21.4141C34.2779 21.7344 34.7973 21.7344 35.1178 21.4141L36.1784 20.3534V26.8531L24.3643 33.691C24.1109 33.8377 23.9549 34.1083 23.9549 34.401V47.9154L18.1177 51.2324L18.5127 49.758C18.6299 49.3203 18.3702 48.8705 17.9325 48.7533C17.4948 48.6358 17.045 48.8957 16.9278 49.3334L16.0271 52.696C15.913 53.1218 16.168 53.5956 16.6317 53.7072L19.969 54.6015C20.4102 54.7197 20.8575 54.4555 20.9738 54.0214C21.0911 53.5838 20.8314 53.134 20.3937 53.0167L18.9702 52.6352L24.7636 49.3431L36.6342 56.3332C36.8882 56.4828 37.2038 56.4848 37.4602 56.3369L40.4694 54.6021C40.862 54.3759 40.9967 53.8742 40.7704 53.4818C40.5442 53.0893 40.0425 52.9545 39.65 53.1808L37.0549 54.6769L26.4092 48.4081L36.9471 42.42L47.6879 48.547L46.0447 49.4943C45.6521 49.7206 45.5174 50.2222 45.7437 50.6147C45.97 51.0073 46.4717 51.1421 46.8641 50.9157L49.3391 49.4888L55.031 52.7357L53.6055 53.1177C53.1678 53.2349 52.9081 53.6847 53.0254 54.1224C53.1421 54.5578 53.5904 54.8204 54.0301 54.7025L57.3179 53.8216C57.7874 53.7387 58.0978 53.2668 57.9718 52.7969ZM48.4836 47.1119L37.8189 41.0284V28.7442L48.4836 34.8757V47.1119ZM25.5956 34.8741L36.1782 28.749V40.9695L25.5956 46.9831V34.8741Z" fill="#2C6CD5"/>
<path d="M43.2344 52.8282C43.6875 52.8282 44.0548 52.4609 44.0548 52.0079C44.0548 51.5548 43.6875 51.1875 43.2344 51.1875C42.7813 51.1875 42.4141 51.5548 42.4141 52.0079C42.4141 52.4609 42.7813 52.8282 43.2344 52.8282Z" fill="#2C6CD5"/>
</g>
<defs>
<clipPath id="clip0_3825_1477">
<rect width="42" height="42" fill="white" transform="translate(16 16)"/>
</clipPath>
</defs>
</svg>
