<svg width="75" height="74" viewBox="0 0 75 74" fill="none" xmlns="http://www.w3.org/2000/svg">
<circle cx="37.5" cy="37" r="36" stroke="#2C6CD5" stroke-width="2"/>
<g clip-path="url(#clip0_3825_1486)">
<path d="M51.3 20.7998H23.7C21.3815 20.8024 19.5026 22.6813 19.5 24.9998V48.9998C19.5026 51.3183 21.3815 53.1972 23.7 53.1998H51.3C53.6185 53.1972 55.4974 51.3183 55.5 48.9998V24.9998C55.4974 22.6813 53.6185 20.8024 51.3 20.7998ZM54.3 48.9998C54.298 50.6558 52.956 51.9978 51.3 51.9998H23.7C22.044 51.9978 20.702 50.6558 20.7 48.9998V24.9998C20.702 23.3438 22.044 22.0018 23.7 21.9998H51.3C52.956 22.0018 54.298 23.3438 54.3 24.9998V48.9998Z" fill="#2C6CD5"/>
<path d="M51.2984 25.5996H23.6984C22.7043 25.5996 21.8984 26.4055 21.8984 27.3996V48.9996C21.8984 49.9937 22.7043 50.7996 23.6984 50.7996H51.2984C52.2925 50.7996 53.0984 49.9937 53.0984 48.9996V27.3996C53.0984 26.4055 52.2925 25.5996 51.2984 25.5996ZM37.4984 37.518L30.9638 33.9996L37.4984 30.4812L44.033 33.9996L37.4984 37.518ZM44.6984 35.004V42.0396L38.0984 45.5952V38.5596L44.6984 35.004ZM36.8984 38.5596V45.5952L30.2984 42.0396V35.004L36.8984 38.5596ZM23.0984 27.3996C23.0984 27.0682 23.3671 26.7996 23.6984 26.7996H36.8984V29.4396L29.414 33.4716C29.4062 33.4758 29.3972 33.4776 29.3894 33.4824C29.208 33.5914 29.0974 33.7879 29.0984 33.9996V39.0288L23.0984 42.0288V27.3996ZM51.8984 48.9996C51.8984 49.331 51.6298 49.5996 51.2984 49.5996H23.6984C23.3671 49.5996 23.0984 49.331 23.0984 48.9996V43.3704L29.0984 40.3704V42.3996C29.0986 42.6203 29.2198 42.823 29.414 42.9276L37.214 47.1276C37.3916 47.2232 37.6053 47.2232 37.7828 47.1276L45.5828 42.9276C45.7771 42.823 45.8983 42.6203 45.8984 42.3996V40.3704L51.8984 43.3704V48.9996ZM51.8984 42.0288L45.8984 39.0288V33.9996C45.8984 33.7886 45.7874 33.5931 45.6062 33.4848C45.5984 33.48 45.5894 33.4782 45.5816 33.474L38.0984 29.4396V26.7996H51.2984C51.6298 26.7996 51.8984 27.0682 51.8984 27.3996V42.0288Z" fill="#2C6CD5"/>
<path d="M23.1 24.4002C23.4314 24.4002 23.7 24.1316 23.7 23.8002C23.7 23.4688 23.4314 23.2002 23.1 23.2002C22.7686 23.2002 22.5 23.4688 22.5 23.8002C22.5 24.1316 22.7686 24.4002 23.1 24.4002Z" fill="#2C6CD5"/>
<path d="M25.4984 24.4002C25.8298 24.4002 26.0984 24.1316 26.0984 23.8002C26.0984 23.4688 25.8298 23.2002 25.4984 23.2002C25.1671 23.2002 24.8984 23.4688 24.8984 23.8002C24.8984 24.1316 25.1671 24.4002 25.4984 24.4002Z" fill="#2C6CD5"/>
<path d="M27.9008 24.4002C28.2321 24.4002 28.5008 24.1316 28.5008 23.8002C28.5008 23.4688 28.2321 23.2002 27.9008 23.2002C27.5694 23.2002 27.3008 23.4688 27.3008 23.8002C27.3008 24.1316 27.5694 24.4002 27.9008 24.4002Z" fill="#2C6CD5"/>
<path d="M42.9008 24.4002H51.3008C51.6322 24.4002 51.9008 24.1316 51.9008 23.8002C51.9008 23.4688 51.6322 23.2002 51.3008 23.2002H42.9008C42.5694 23.2002 42.3008 23.4688 42.3008 23.8002C42.3008 24.1316 42.5694 24.4002 42.9008 24.4002Z" fill="#2C6CD5"/>
</g>
<defs>
<clipPath id="clip0_3825_1486">
<rect width="36" height="36" fill="white" transform="translate(19.5 19)"/>
</clipPath>
</defs>
</svg>
