<svg width="16" height="16" viewBox="0 0 16 16" fill="none" xmlns="http://www.w3.org/2000/svg">
<rect width="16" height="16" rx="5" fill="#F8F8F8"/>
<g clip-path="url(#clip0_4792_33715)">
<path d="M13.4932 6.2272L13.4968 6.20759C13.5977 5.78013 13.6482 5.4074 13.6482 5.0894C13.6482 4.20971 13.2529 3.7678 12.4624 3.76367L4.22477 3.78329L3.79102 6.2272H13.4932Z" fill="#3E5BA9"/>
<path d="M10.859 6.75282L10.891 7.09458H3.575L2.35352 12.2292L10.4344 12.2354C11.5128 12.2354 12.2437 11.428 12.6288 9.81417L12.7746 9.20293C12.7966 9.11001 12.8067 9.01502 12.8067 8.91796C12.8067 8.63609 12.7132 8.32738 12.5261 7.99182C12.9901 7.54371 13.2643 7.14104 13.3505 6.7807L13.3652 6.71875L10.859 6.75282ZM10.0786 9.2081L10.0034 9.51062C9.95659 9.71195 9.8438 9.81314 9.66406 9.81314L5.62089 9.80694L5.83639 8.90454H9.87956C10.0235 8.90454 10.0951 8.96752 10.0951 9.09246C10.0951 9.12963 10.0896 9.16783 10.0786 9.2081Z" fill="#3E5BA9"/>
</g>
<defs>
<clipPath id="clip0_4792_33715">
<rect width="11.2941" height="8.47059" fill="white" transform="translate(2.35352 3.76465)"/>
</clipPath>
</defs>
</svg>
