<svg width="32" height="33" viewBox="0 0 32 33" fill="none" xmlns="http://www.w3.org/2000/svg">
<circle cx="16" cy="16.1475" r="16" fill="#ECECEC"/>
<path d="M23.3919 16.166C23.3919 15.9238 23.2904 15.6895 23.1107 15.5176L17.9779 10.3848C17.7747 10.1895 17.5638 10.1035 17.3451 10.1035C16.8451 10.1035 16.4857 10.4551 16.4857 10.9316C16.4857 11.1816 16.5872 11.3926 16.7435 11.5488L18.5013 13.3301L20.7669 15.4004L18.9544 15.291H9.48568C8.96224 15.291 8.60287 15.6504 8.60287 16.166C8.60287 16.6738 8.96224 17.0332 9.48568 17.0332H18.9544L20.7669 16.9238L18.5013 18.9941L16.7435 20.7754C16.5872 20.9316 16.4857 21.1426 16.4857 21.3926C16.4857 21.8691 16.8451 22.2207 17.3451 22.2207C17.5638 22.2207 17.7747 22.1348 17.9622 21.9551L23.1107 16.8066C23.2904 16.6348 23.3919 16.4004 23.3919 16.166Z" fill="#0087D2"/>
</svg>
