<svg width="16" height="16" viewBox="0 0 16 16" fill="none" xmlns="http://www.w3.org/2000/svg">
<path fill-rule="evenodd" clip-rule="evenodd" d="M1.77333 1.77778H14.2267C15.2062 1.77778 16 2.57333 16 3.55022V14.2276C16 14.4604 15.9541 14.6909 15.865 14.906C15.7759 15.1211 15.6452 15.3166 15.4805 15.4812C15.3159 15.6458 15.1204 15.7763 14.9052 15.8653C14.6901 15.9544 14.4595 16.0001 14.2267 16H1.77333C1.30317 16 0.85225 15.8133 0.519711 15.4809C0.187172 15.1485 0.000235671 14.6977 0 14.2276V3.55022C0 2.57156 0.792889 1.77778 1.77333 1.77778ZM1.77778 5.33333V13.3333C1.77778 13.5691 1.87143 13.7952 2.03813 13.9619C2.20483 14.1286 2.43092 14.2222 2.66667 14.2222H13.3333C13.5691 14.2222 13.7952 14.1286 13.9619 13.9619C14.1286 13.7952 14.2222 13.5691 14.2222 13.3333V5.33333H1.77778ZM2.66667 0.888889C2.66667 0.653141 2.76032 0.427049 2.92702 0.260349C3.09372 0.0936505 3.31981 0 3.55556 0C3.7913 0 4.0174 0.0936505 4.18409 0.260349C4.35079 0.427049 4.44444 0.653141 4.44444 0.888889V1.77778H2.66667V0.888889ZM11.5556 0.888889C11.5556 0.653141 11.6492 0.427049 11.8159 0.260349C11.9826 0.0936505 12.2087 0 12.4444 0C12.6802 0 12.9063 0.0936505 13.073 0.260349C13.2397 0.427049 13.3333 0.653141 13.3333 0.888889V1.77778H11.5556V0.888889ZM9.77778 12.4444V9.77778H12.4444V12.4444H9.77778Z" fill="#212529"/>
</svg>
