<svg width="30" height="31" viewBox="0 0 30 31" fill="none" xmlns="http://www.w3.org/2000/svg">
<path d="M8.25216 22.0878C12.9248 26.7763 18.6112 30.3877 23.2522 30.3877C25.3271 30.3877 27.1487 29.6591 28.6059 28.0434C29.4612 27.0931 29.9839 26.0002 29.9839 24.9072C29.9839 24.0677 29.6513 23.2441 28.8435 22.6739L23.9808 19.2209C23.2046 18.6823 22.5711 18.4289 22.0008 18.4289C21.2564 18.4289 20.5911 18.8407 19.8625 19.5693L18.7221 20.7098C18.532 20.884 18.3102 20.9632 18.1043 20.9632C17.8509 20.9632 17.6133 20.8682 17.4549 20.7731C16.457 20.2346 14.7464 18.7773 13.1624 17.1934C11.5785 15.6094 10.1054 13.9146 9.58268 12.9009C9.48764 12.7267 9.40845 12.5049 9.40845 12.2515C9.40845 12.0614 9.4718 11.8396 9.64604 11.6496L10.7865 10.4933C11.4993 9.74884 11.9269 9.09942 11.9269 8.35496C11.9269 7.7689 11.6735 7.13532 11.1349 6.37502L7.69778 1.55982C7.11172 0.736164 6.28806 0.387695 5.38521 0.387695C4.30813 0.387695 3.23104 0.86288 2.29651 1.76573C0.712563 3.25464 0.015625 5.10786 0.015625 7.15116C0.015625 11.7921 3.57951 17.4151 8.25216 22.0878Z" fill="white"/>
</svg>
