<svg width="40" height="17" viewBox="0 0 40 17" fill="none" xmlns="http://www.w3.org/2000/svg">
<path d="M5.42073 12.8293C5.66665 12.8293 5.81583 12.8293 5.96501 12.8293C7.68193 12.8293 9.39975 12.8257 11.1167 12.8329C11.3843 12.8338 11.6564 12.8619 11.9195 12.9143C12.7486 13.0798 13.047 13.5815 13.1464 14.2777C13.3046 15.3816 12.575 16.0389 11.6194 16.0706C11.2885 16.0814 10.9566 16.0769 10.6257 16.0805C8.82111 16.1022 7.0165 16.1375 5.21188 16.142C4.35659 16.1438 3.49948 16.1076 2.646 16.0516C2.12522 16.0172 1.60716 15.9295 1.18223 15.5661C0.720226 15.1701 0.545731 14.6818 0.643376 14.086C0.735596 13.5228 0.994174 13.0373 1.33593 12.5915C2.91633 10.531 4.49672 8.47056 6.08074 6.41279C6.55721 5.79437 7.05176 5.18862 7.53004 4.57201C7.68193 4.37582 7.82387 4.16606 7.81031 3.85233C7.61412 3.85233 7.43601 3.85233 7.2588 3.85233C5.93337 3.85233 4.60793 3.87313 3.28249 3.84148C2.81054 3.82973 2.33046 3.73208 1.87569 3.60189C1.22201 3.41474 0.879351 2.91476 0.873926 2.26922C0.867597 1.59294 1.21387 1.11738 1.86755 0.875076C2.38199 0.684307 2.91723 0.63006 3.45608 0.629156C5.86646 0.625539 8.27593 0.630059 10.6863 0.640909C10.953 0.641813 11.2252 0.681595 11.4855 0.742171C12.6826 1.01973 13.2106 2.31172 12.4973 3.40479C12.0714 4.05757 11.5995 4.6805 11.1284 5.30344C9.71619 7.17135 8.29492 9.03202 6.87726 10.8945C6.44962 11.456 6.02016 12.0156 5.59251 12.5762C5.55002 12.6313 5.51295 12.6928 5.42073 12.8293Z" fill="#F5FBFE"/>
<path d="M20.5294 5.95416C20.6542 5.85832 20.8052 5.76339 20.9299 5.64134C21.42 5.15944 21.9706 5.05004 22.6161 5.29596C23.3087 5.55996 23.6224 6.0726 23.6459 6.78052C23.6649 7.35192 23.6495 7.92513 23.6495 8.49744C23.6495 10.3952 23.6441 12.2929 23.6513 14.1907C23.6559 15.3335 23.0139 15.8063 22.1044 15.9528C21.7003 16.0179 21.3422 15.8362 21.0339 15.5749C20.92 15.4781 20.8151 15.3696 20.7247 15.2837C20.4806 15.2114 20.2971 15.2575 20.1036 15.3823C19.3993 15.8362 18.6317 16.1381 17.7872 16.1499C16.6634 16.1653 15.6662 15.7774 14.8199 15.0487C13.678 14.0659 13.0768 12.7983 12.877 11.3074C12.726 10.1863 12.905 9.12942 13.3381 8.10777C14.0062 6.53189 15.1481 5.46322 16.8379 5.0844C17.997 4.82492 19.0955 5.06903 20.0955 5.7209C20.1831 5.77786 20.2718 5.83391 20.3631 5.88635C20.401 5.90895 20.4444 5.92071 20.5294 5.95416ZM20.4001 10.5263C20.4309 10.0263 20.3079 9.51186 20.0412 9.02544C19.6705 8.34826 19.091 7.99294 18.3378 7.94955C17.5314 7.90344 16.903 8.27232 16.5079 8.95764C15.9293 9.9603 15.904 11.0118 16.432 12.0443C17.1779 13.5044 19.2284 13.4592 19.9897 12.2052C20.298 11.6989 20.411 11.1574 20.4001 10.5263Z" fill="#F7FCFE"/>
<path d="M28.5195 10.8021C28.5539 8.98751 29.0005 7.57166 30.1632 6.45869C31.0972 5.56452 32.2373 5.11156 33.5292 5.04103C34.5012 4.9886 35.4523 5.08895 36.3374 5.51931C37.8157 6.23899 38.7767 7.41163 39.1691 9.00016C39.6058 10.7695 39.3861 12.462 38.2994 13.9683C37.4224 15.1825 36.2172 15.866 34.7254 16.0866C33.6025 16.2521 32.5392 16.0803 31.5302 15.6156C30.0267 14.9221 29.1425 13.6916 28.7266 12.1194C28.5937 11.6158 28.5629 11.0869 28.5195 10.8021ZM31.731 10.6032C31.8114 10.9811 31.8584 11.3689 31.9778 11.7342C32.2725 12.6365 32.9533 13.1058 33.8665 13.1437C34.6241 13.1754 35.285 12.8571 35.6774 12.17C36.2823 11.1104 36.2986 10.0137 35.6792 8.964C34.8203 7.50927 32.9587 7.73801 32.2635 8.84285C31.9226 9.3826 31.7626 9.95853 31.731 10.6032Z" fill="#F7FCFE"/>
<path d="M27.7104 8.18709C27.7104 10.1309 27.7177 12.0739 27.7032 14.0177C27.7005 14.3405 27.6372 14.675 27.5396 14.9842C27.3578 15.5611 26.8913 15.8748 26.2883 15.9037C25.8082 15.9272 25.3606 15.8712 25.0017 15.5014C24.6907 15.1813 24.5515 14.8025 24.5478 14.3622C24.528 11.9545 24.5044 9.54688 24.4864 7.13922C24.48 6.2351 24.4764 5.33098 24.4882 4.42777C24.4981 3.64661 24.518 2.86636 24.5542 2.08611C24.6012 1.07711 25.4972 0.447845 26.4727 0.669354C27.2973 0.856506 27.7132 1.50837 27.7123 2.31213C27.7095 4.26955 27.7104 6.22877 27.7104 8.18709Z" fill="#FAFDFF"/>
</svg>
