<svg width="20" height="14" viewBox="0 0 20 14" fill="none" xmlns="http://www.w3.org/2000/svg">
<path d="M13.623 7.21484C15.3252 7.21484 16.6924 5.73828 16.6924 3.89941C16.6924 2.10156 15.3115 0.645508 13.623 0.645508C11.9346 0.645508 10.5469 2.11523 10.5537 3.90625C10.5605 5.73828 11.9209 7.21484 13.623 7.21484ZM5.60449 7.36523C7.09473 7.36523 8.29102 6.06641 8.29102 4.44629C8.29102 2.87402 7.08105 1.58203 5.60449 1.58203C4.13477 1.58203 2.91797 2.8877 2.91797 4.45312C2.9248 6.07324 4.12109 7.36523 5.60449 7.36523ZM13.623 5.73145C12.7822 5.73145 12.0713 4.94531 12.0713 3.89941C12.0645 2.9082 12.7891 2.12891 13.623 2.12891C14.4639 2.12891 15.1748 2.90137 15.1748 3.89941C15.1748 4.93164 14.4707 5.73145 13.623 5.73145ZM5.60449 5.90918C4.94141 5.90918 4.38086 5.27344 4.38086 4.45312C4.37402 3.68066 4.94824 3.04492 5.60449 3.04492C6.26758 3.04492 6.83496 3.67383 6.83496 4.44629C6.83496 5.27344 6.27441 5.90918 5.60449 5.90918ZM1.91992 13.6816H7.12891C6.6709 13.4014 6.41797 12.752 6.47266 12.2188H2.04297C1.93359 12.2188 1.89258 12.1641 1.89258 12.0752C1.89258 10.7422 3.55371 9.40918 5.60449 9.40918C6.19238 9.40918 6.95117 9.57324 7.41602 9.79883C7.66211 9.35449 8.01074 8.98535 8.50977 8.67773C7.67578 8.22656 6.55469 7.95996 5.60449 7.95996C2.66504 7.95996 0.292969 10.0039 0.292969 12.2666C0.292969 13.1826 0.833008 13.6816 1.91992 13.6816ZM9.41895 13.6748H17.8203C19.0781 13.6748 19.707 13.2441 19.707 12.3418C19.707 10.3047 17.2051 7.95996 13.623 7.95996C10.041 7.95996 7.53223 10.3047 7.53223 12.3418C7.53223 13.2441 8.16113 13.6748 9.41895 13.6748ZM9.41211 12.1914C9.27539 12.1914 9.23438 12.1367 9.23438 12.041C9.23438 11.1387 10.8408 9.44336 13.623 9.44336C16.4053 9.44336 18.0117 11.1387 18.0117 12.041C18.0117 12.1367 17.9639 12.1914 17.834 12.1914H9.41211Z" fill="#212529"/>
</svg>
