<svg width="16" height="14" viewBox="0 0 16 14" fill="none" xmlns="http://www.w3.org/2000/svg">
<path d="M7.99609 14C11.8346 14 15.0029 10.8317 15.0029 7C15.0029 3.16828 11.8278 0 7.98932 0C4.1576 0 0.996094 3.16828 0.996094 7C0.996094 10.8317 4.16437 14 7.99609 14ZM7.99609 12.6054C4.88874 12.6054 2.40422 10.1074 2.40422 7C2.40422 3.89265 4.88874 1.40135 7.98932 1.40135C11.0967 1.40135 13.5947 3.89265 13.6015 7C13.6083 10.1074 11.1034 12.6054 7.99609 12.6054ZM4.5841 7.853H7.98932C8.30074 7.853 8.53768 7.61605 8.53768 7.31141V2.88395C8.53768 2.5793 8.30074 2.34236 7.98932 2.34236C7.69145 2.34236 7.45451 2.5793 7.45451 2.88395V6.76983H4.5841C4.27946 6.76983 4.04252 7.00677 4.04252 7.31141C4.04252 7.61605 4.27946 7.853 4.5841 7.853Z" fill="white"/>
</svg>
