<svg width="36" height="36" viewBox="0 0 36 36" fill="none" xmlns="http://www.w3.org/2000/svg">
<path d="M17.987 35.4516C27.5569 35.4516 35.4558 27.5527 35.4558 17.9997C35.4558 8.44677 27.54 0.547852 17.9702 0.547852C8.4172 0.547852 0.535156 8.44677 0.535156 17.9997C0.535156 27.5527 8.43408 35.4516 17.987 35.4516ZM17.987 31.9748C10.24 31.9748 4.04579 25.7468 4.04579 17.9997C4.04579 10.2527 10.24 4.0416 17.9702 4.0416C25.7172 4.0416 31.9452 10.2527 31.9621 17.9997C31.9789 25.7468 25.7341 31.9748 17.987 31.9748ZM26.6961 17.9997C26.6961 17.544 26.5273 17.1727 26.1391 16.8014L20.4006 11.1473C20.1306 10.8772 19.793 10.7422 19.3879 10.7422C18.5947 10.7422 18.0208 11.3329 18.0208 12.1262C18.0208 12.5481 18.2065 12.9026 18.4596 13.1557L20.5019 15.1136L22.3922 16.6495L18.9491 16.4807H10.7126C9.85183 16.4807 9.24422 17.1221 9.24422 17.9997C9.24422 18.8605 9.85183 19.5188 10.7126 19.5188H18.9491L22.4091 19.3669L20.5188 20.8859L18.4596 22.8437C18.1727 23.0969 18.0208 23.4513 18.0208 23.8733C18.0208 24.6666 18.5947 25.2742 19.3879 25.2742C19.793 25.2742 20.1306 25.1223 20.4006 24.8522L26.1391 19.215C26.5105 18.8436 26.6961 18.4723 26.6961 17.9997Z" fill="#629CFC"/>
</svg>
