<svg width="20" height="21" viewBox="0 0 20 21" fill="none" xmlns="http://www.w3.org/2000/svg">
<path d="M10 20.1357C15.3901 20.1357 19.8247 15.7012 19.8247 10.311C19.8247 4.91162 15.3901 0.477051 9.99072 0.477051C4.59131 0.477051 0.166016 4.91162 0.166016 10.311C0.166016 15.7012 4.60059 20.1357 10 20.1357ZM10 17.6123C5.9458 17.6123 2.69873 14.356 2.69873 10.311C2.69873 6.25684 5.9458 3.00049 9.99072 3.00049C14.0356 3.00049 17.3013 6.25684 17.3013 10.311C17.3105 14.356 14.0449 17.6123 10 17.6123ZM9.02588 14.7363C9.41553 14.7363 9.75879 14.5322 9.98145 14.1982L14.0728 7.97314C14.2212 7.74121 14.314 7.5 14.314 7.27734C14.314 6.72998 13.8315 6.34033 13.2935 6.34033C12.9409 6.34033 12.6533 6.52588 12.4121 6.90625L9.00732 12.3149L7.48584 10.4502C7.24463 10.1719 7.00342 10.042 6.68799 10.042C6.13135 10.042 5.68604 10.478 5.68604 11.0347C5.68604 11.2944 5.77881 11.5171 5.97363 11.7583L8.0332 14.2168C8.31152 14.5508 8.62695 14.7363 9.02588 14.7363Z" fill="#AFB0B2"/>
</svg>
