<svg width="1366" height="782" viewBox="0 0 1366 782" fill="none" xmlns="http://www.w3.org/2000/svg">
<circle cx="62.2972" cy="452.349" r="5.75817" fill="#ECECEC"/>
<circle cx="86.8949" cy="452.349" r="5.75817" fill="#ECECEC"/>
<circle cx="111.496" cy="452.349" r="5.75817" fill="#ECECEC"/>
<circle cx="136.098" cy="452.349" r="5.75817" fill="#ECECEC"/>
<circle cx="136.098" cy="427.758" r="5.75817" fill="#ECECEC"/>
<circle cx="111.496" cy="427.758" r="5.75817" fill="#ECECEC"/>
<circle cx="136.098" cy="477.839" r="5.75817" fill="#ECECEC"/>
<circle cx="35.7582" cy="477.839" r="5.75817" fill="#ECECEC"/>
<circle cx="136.098" cy="527.04" r="5.75817" fill="#ECECEC"/>
<circle cx="160.7" cy="477.839" r="5.75817" fill="#ECECEC"/>
<circle cx="185.297" cy="477.839" r="5.75817" fill="#ECECEC"/>
<circle cx="209.899" cy="477.839" r="5.75817" fill="#ECECEC"/>
<circle cx="234.5" cy="477.839" r="5.75817" fill="#ECECEC"/>
<circle cx="160.7" cy="452.349" r="5.75817" fill="#ECECEC"/>
<circle cx="86.8949" cy="576.242" r="5.75817" transform="rotate(-90 86.8949 576.242)" fill="#ECECEC"/>
<circle cx="86.8949" cy="551.641" r="5.75817" transform="rotate(-90 86.8949 551.641)" fill="#ECECEC"/>
<circle cx="86.8949" cy="527.041" r="5.75817" transform="rotate(-90 86.8949 527.041)" fill="#ECECEC"/>
<circle cx="86.8949" cy="502.44" r="5.75817" transform="rotate(-90 86.8949 502.44)" fill="#ECECEC"/>
<circle cx="86.8949" cy="477.839" r="5.75817" transform="rotate(-90 86.8949 477.839)" fill="#ECECEC"/>
<circle cx="62.2972" cy="576.242" r="5.75817" transform="rotate(-90 62.2972 576.242)" fill="#ECECEC"/>
<circle cx="62.2972" cy="551.641" r="5.75817" transform="rotate(-90 62.2972 551.641)" fill="#ECECEC"/>
<circle cx="62.2972" cy="527.041" r="5.75817" transform="rotate(-90 62.2972 527.041)" fill="#ECECEC"/>
<circle cx="62.2972" cy="477.839" r="5.75817" transform="rotate(-90 62.2972 477.839)" fill="#ECECEC"/>
<circle cx="111.496" cy="551.641" r="5.75817" transform="rotate(-90 111.496 551.641)" fill="#ECECEC"/>
<circle cx="111.496" cy="527.041" r="5.75817" transform="rotate(-90 111.496 527.041)" fill="#ECECEC"/>
<circle opacity="0.5" cx="222" cy="391" r="366" stroke="#ECECEC" stroke-width="50"/>
<circle cx="1199.3" cy="488.349" r="5.75817" fill="#ECECEC"/>
<circle cx="1223.89" cy="488.349" r="5.75817" fill="#ECECEC"/>
<circle cx="1248.5" cy="488.349" r="5.75817" fill="#ECECEC"/>
<circle cx="1273.1" cy="488.349" r="5.75817" fill="#ECECEC"/>
<circle cx="1273.1" cy="463.758" r="5.75817" fill="#ECECEC"/>
<circle cx="1248.5" cy="463.758" r="5.75817" fill="#ECECEC"/>
<circle cx="1273.1" cy="513.839" r="5.75817" fill="#ECECEC"/>
<circle cx="1172.76" cy="513.839" r="5.75817" fill="#ECECEC"/>
<circle cx="1273.1" cy="563.04" r="5.75817" fill="#ECECEC"/>
<circle cx="1297.7" cy="513.839" r="5.75817" fill="#ECECEC"/>
<circle cx="1322.3" cy="513.839" r="5.75817" fill="#ECECEC"/>
<circle cx="1346.9" cy="513.839" r="5.75817" fill="#ECECEC"/>
<circle cx="1371.5" cy="513.839" r="5.75817" fill="#ECECEC"/>
<circle cx="1297.7" cy="488.349" r="5.75817" fill="#ECECEC"/>
<circle cx="1223.89" cy="612.242" r="5.75817" transform="rotate(-90 1223.89 612.242)" fill="#ECECEC"/>
<circle cx="1223.89" cy="587.641" r="5.75817" transform="rotate(-90 1223.89 587.641)" fill="#ECECEC"/>
<circle cx="1223.89" cy="563.041" r="5.75817" transform="rotate(-90 1223.89 563.041)" fill="#ECECEC"/>
<circle cx="1223.89" cy="538.44" r="5.75817" transform="rotate(-90 1223.89 538.44)" fill="#ECECEC"/>
<circle cx="1223.89" cy="513.839" r="5.75817" transform="rotate(-90 1223.89 513.839)" fill="#ECECEC"/>
<circle cx="1199.3" cy="612.242" r="5.75817" transform="rotate(-90 1199.3 612.242)" fill="#ECECEC"/>
<circle cx="1199.3" cy="587.641" r="5.75817" transform="rotate(-90 1199.3 587.641)" fill="#ECECEC"/>
<circle cx="1199.3" cy="563.041" r="5.75817" transform="rotate(-90 1199.3 563.041)" fill="#ECECEC"/>
<circle cx="1199.3" cy="513.839" r="5.75817" transform="rotate(-90 1199.3 513.839)" fill="#ECECEC"/>
<circle cx="1248.5" cy="587.641" r="5.75817" transform="rotate(-90 1248.5 587.641)" fill="#ECECEC"/>
<circle cx="1248.5" cy="563.041" r="5.75817" transform="rotate(-90 1248.5 563.041)" fill="#ECECEC"/>
</svg>
