<svg width="47" height="42" viewBox="0 0 47 42" fill="none" xmlns="http://www.w3.org/2000/svg">
<path d="M23.4332 27.7961C20.7832 27.7961 18.1927 27.0103 15.9894 25.538C13.786 24.0656 12.0687 21.973 11.0548 19.5246C10.0408 17.0763 9.77561 14.3823 10.2928 11.7832C10.81 9.18416 12.0863 6.79686 13.9604 4.92322C15.8344 3.04957 18.222 1.77375 20.8211 1.2571C23.4203 0.740454 26.1143 1.00618 28.5624 2.02068C31.0105 3.03518 33.1028 4.75288 34.5747 6.95655C36.0466 9.16023 36.8319 11.7509 36.8313 14.4009C36.8276 17.9529 35.4147 21.3583 32.9028 23.8696C30.3909 26.381 26.9852 27.7932 23.4332 27.7961V27.7961ZM23.4332 2.08276C20.9969 2.08276 18.6154 2.80521 16.5897 4.15874C14.5639 5.51228 12.9851 7.4361 12.0528 9.68695C11.1204 11.9378 10.8765 14.4146 11.3518 16.804C11.8271 19.1935 13.0003 21.3884 14.723 23.1111C16.4457 24.8338 18.6406 26.007 21.0301 26.4823C23.4196 26.9576 25.8963 26.7137 28.1472 25.7814C30.398 24.849 32.3218 23.2702 33.6754 21.2445C35.0289 19.2188 35.7514 16.8372 35.7514 14.4009C35.7484 11.1348 34.4496 8.0034 32.1402 5.69395C29.8307 3.3845 26.6993 2.08574 23.4332 2.08276V2.08276Z" stroke="#868E96" stroke-width="1.5"/>
<path d="M14.4009 41.0003C11.7508 41.0008 9.15999 40.2154 6.95626 38.7434C4.75253 37.2715 3.03483 35.179 2.02041 32.7307C1.00599 30.2824 0.740431 27.5883 1.25731 24.989C1.77419 22.3898 3.05029 20.0022 4.92421 18.1283C6.79813 16.2544 9.1857 14.9783 11.7849 14.4614C14.3842 13.9445 17.0783 14.2101 19.5266 15.2245C21.9749 16.2389 24.0674 17.9566 25.5393 20.1604C27.0113 22.3641 27.7967 24.9549 27.7961 27.605C27.7917 31.1563 26.379 34.5608 23.8678 37.0719C21.3567 39.5831 17.9522 40.9958 14.4009 41.0003V41.0003ZM14.4009 15.2869C11.9645 15.2863 9.58262 16.0083 7.55654 17.3615C5.53046 18.7147 3.95118 20.6383 3.01842 22.8891C2.08566 25.1399 1.84132 27.6167 2.3163 30.0064C2.79128 32.3961 3.96424 34.5912 5.68685 36.3142C7.40946 38.0372 9.60434 39.2107 11.9939 39.6862C14.3835 40.1618 16.8604 39.918 19.1114 38.9857C21.3624 38.0535 23.2864 36.4746 24.64 34.4489C25.9937 32.4231 26.7162 30.0414 26.7162 27.605C26.7125 24.3396 25.4139 21.2091 23.1052 18.8999C20.7965 16.5907 17.6662 15.2913 14.4009 15.2869V15.2869Z" stroke="#868E96" stroke-width="1.5"/>
<path d="M32.4712 41.0003C29.8211 41.0008 27.2303 40.2154 25.0266 38.7434C22.8228 37.2715 21.1051 35.179 20.0907 32.7307C19.0763 30.2824 18.8107 27.5883 19.3276 24.989C19.8445 22.3898 21.1206 20.0022 22.9945 18.1283C24.8684 16.2544 27.256 14.9783 29.8552 14.4614C32.4545 13.9445 35.1486 14.2101 37.5969 15.2245C40.0452 16.2389 42.1377 17.9566 43.6096 20.1604C45.0816 22.3641 45.867 24.9549 45.8665 27.605C45.862 31.1563 44.4493 34.5608 41.9381 37.0719C39.427 39.5831 36.0225 40.9958 32.4712 41.0003V41.0003ZM32.4712 15.2869C30.0348 15.2863 27.6529 16.0083 25.6269 17.3615C23.6008 18.7147 22.0215 20.6383 21.0887 22.8891C20.156 25.1399 19.9116 27.6167 20.3866 30.0064C20.8616 32.3961 22.0346 34.5912 23.7572 36.3142C25.4798 38.0372 27.6746 39.2107 30.0642 39.6862C32.4538 40.1618 34.9307 39.918 37.1817 38.9857C39.4327 38.0535 41.3567 36.4746 42.7103 34.4489C44.064 32.4231 44.7865 30.0414 44.7865 27.605C44.7828 24.3396 43.4842 21.2091 41.1755 18.8999C38.8668 16.5907 35.7365 15.2913 32.4712 15.2869V15.2869Z" stroke="#868E96" stroke-width="1.5"/>
</svg>
