<svg width="75" height="74" viewBox="0 0 75 74" fill="none" xmlns="http://www.w3.org/2000/svg">
<circle cx="37.0312" cy="37" r="36" stroke="#2C6CD5" stroke-width="2"/>
<g clip-path="url(#clip0_3825_1443)">
<path d="M20.3658 32.9998C20.543 33.0008 20.7134 32.9313 20.8392 32.8065L23.5058 30.1398C23.7673 29.8784 23.7673 29.4545 23.5058 29.1931C23.2444 28.9317 22.8206 28.9317 22.5592 29.1931L19.8925 31.8598C19.7663 31.985 19.6953 32.1554 19.6953 32.3331C19.6953 32.5109 19.7663 32.6813 19.8925 32.8065C20.0183 32.9313 20.1886 33.0008 20.3658 32.9998Z" fill="#2C6CD5"/>
<path d="M20.3658 36.9998C20.543 37.0008 20.7134 36.9313 20.8392 36.8065L27.5058 30.1398C27.7673 29.8784 27.7673 29.4545 27.5058 29.1931C27.2444 28.9317 26.8206 28.9317 26.5592 29.1931L19.8925 35.8598C19.7663 35.985 19.6953 36.1554 19.6953 36.3331C19.6953 36.5109 19.7663 36.6813 19.8925 36.8065C20.0183 36.9313 20.1886 37.0008 20.3658 36.9998Z" fill="#2C6CD5"/>
<path d="M55.0312 17H37.6979C36.5933 17 35.6979 17.8954 35.6979 19V26.3333H20.3646C18.5236 26.3333 17.0312 27.8257 17.0312 29.6667V47C17.0312 48.841 18.5236 50.3333 20.3646 50.3333H27.6979V53H25.6979C24.5933 53 23.6979 53.8954 23.6979 55C23.6979 56.1046 24.5933 57 25.6979 57H55.0312C56.1358 57 57.0312 56.1046 57.0312 55V19C57.0312 17.8954 56.1358 17 55.0312 17ZM20.3646 27.6667H44.3646C45.4692 27.6667 46.3646 28.5621 46.3646 29.6667V45.6667H18.3646V29.6667C18.3646 28.5621 19.26 27.6667 20.3646 27.6667ZM18.3646 47H46.3646C46.3646 48.1046 45.4692 49 44.3646 49H20.3646C19.26 49 18.3646 48.1046 18.3646 47ZM29.0312 50.3333H35.6979V53H29.0312V50.3333ZM37.6979 55.6667H25.6979C25.3297 55.6667 25.0312 55.3682 25.0312 55C25.0312 54.6318 25.3297 54.3333 25.6979 54.3333H39.0312C39.3994 54.3333 39.6979 54.6318 39.6979 55C39.6979 55.3682 39.3994 55.6667 39.0312 55.6667H37.6979ZM55.6979 55C55.6979 55.3682 55.3994 55.6667 55.0312 55.6667H40.9113C41.1273 55.0555 41.0338 54.3774 40.6603 53.8476C40.2867 53.3177 39.6795 53.0018 39.0312 53H37.0312V50.3333H44.3646C46.2055 50.3333 47.6979 48.841 47.6979 47V29.6667C47.6979 27.8257 46.2055 26.3333 44.3646 26.3333H37.0312V19C37.0312 18.6318 37.3297 18.3333 37.6979 18.3333H55.0312C55.3994 18.3333 55.6979 18.6318 55.6979 19V55Z" fill="#2C6CD5"/>
<path d="M53.0299 20.333H39.6966C38.9602 20.333 38.3633 20.93 38.3633 21.6663V22.9997C38.3633 23.7361 38.9602 24.333 39.6966 24.333H53.0299C53.7663 24.333 54.3633 23.7361 54.3633 22.9997V21.6663C54.3633 20.93 53.7663 20.333 53.0299 20.333ZM39.6966 22.9997V21.6663H53.0299V22.9997H39.6966Z" fill="#2C6CD5"/>
<path d="M51.6992 30.333C52.8038 30.333 53.6992 29.4376 53.6992 28.333C53.6992 27.2284 52.8038 26.333 51.6992 26.333C50.5947 26.333 49.6992 27.2284 49.6992 28.333C49.6992 29.4376 50.5947 30.333 51.6992 30.333ZM51.6992 27.6663C52.0674 27.6663 52.3659 27.9648 52.3659 28.333C52.3659 28.7012 52.0674 28.9997 51.6992 28.9997C51.331 28.9997 51.0326 28.7012 51.0326 28.333C51.0326 27.9648 51.331 27.6663 51.6992 27.6663Z" fill="#2C6CD5"/>
<path d="M53.6992 33.667C53.6992 32.5624 52.8038 31.667 51.6992 31.667C50.5947 31.667 49.6992 32.5624 49.6992 33.667C49.6992 34.7716 50.5947 35.667 51.6992 35.667C52.8038 35.667 53.6992 34.7716 53.6992 33.667ZM51.6992 34.3337C51.331 34.3337 51.0326 34.0352 51.0326 33.667C51.0326 33.2988 51.331 33.0003 51.6992 33.0003C52.0674 33.0003 52.3659 33.2988 52.3659 33.667C52.3659 34.0352 52.0674 34.3337 51.6992 34.3337Z" fill="#2C6CD5"/>
<path d="M43.0299 51.667C42.6618 51.667 42.3633 51.9655 42.3633 52.3337V53.667C42.3633 54.0352 42.6618 54.3337 43.0299 54.3337C43.3981 54.3337 43.6966 54.0352 43.6966 53.667V52.3337C43.6966 51.9655 43.3981 51.667 43.0299 51.667Z" fill="#2C6CD5"/>
<path d="M45.6979 51.667C45.3297 51.667 45.0312 51.9655 45.0312 52.3337V53.667C45.0312 54.0352 45.3297 54.3337 45.6979 54.3337C46.0661 54.3337 46.3646 54.0352 46.3646 53.667V52.3337C46.3646 51.9655 46.0661 51.667 45.6979 51.667Z" fill="#2C6CD5"/>
<path d="M48.3659 51.667C47.9977 51.667 47.6992 51.9655 47.6992 52.3337V53.667C47.6992 54.0352 47.9977 54.3337 48.3659 54.3337C48.7341 54.3337 49.0326 54.0352 49.0326 53.667V52.3337C49.0326 51.9655 48.7341 51.667 48.3659 51.667Z" fill="#2C6CD5"/>
<path d="M51.0299 51.667C50.6618 51.667 50.3633 51.9655 50.3633 52.3337V53.667C50.3633 54.0352 50.6618 54.3337 51.0299 54.3337C51.3981 54.3337 51.6966 54.0352 51.6966 53.667V52.3337C51.6966 51.9655 51.3981 51.667 51.0299 51.667Z" fill="#2C6CD5"/>
<path d="M53.6979 51.667C53.3297 51.667 53.0312 51.9655 53.0312 52.3337V53.667C53.0312 54.0352 53.3297 54.3337 53.6979 54.3337C54.0661 54.3337 54.3646 54.0352 54.3646 53.667V52.3337C54.3646 51.9655 54.0661 51.667 53.6979 51.667Z" fill="#2C6CD5"/>
</g>
<defs>
<clipPath id="clip0_3825_1443">
<rect width="40" height="40" fill="white" transform="translate(17.0312 17)"/>
</clipPath>
</defs>
</svg>
