<svg width="75" height="74" viewBox="0 0 75 74" fill="none" xmlns="http://www.w3.org/2000/svg">
<circle cx="37.5" cy="37" r="36" stroke="#2C6CD5" stroke-width="2"/>
<g clip-path="url(#clip0_3825_1462)">
<path d="M45.898 17H29.1046C27.486 17 26.168 18.318 26.168 19.9367V54.0627C26.168 55.682 27.486 57 29.1046 57H45.8973C47.5166 57 48.8346 55.682 48.8346 54.0633V19.9367C48.8346 18.318 47.5166 17 45.898 17ZM27.5013 22.3333H47.5013V47.6667H27.5013V22.3333ZM29.1046 18.3333H45.8973C46.782 18.3333 47.5013 19.0527 47.5013 19.9367V21H27.5013V19.9367C27.5013 19.0527 28.2206 18.3333 29.1046 18.3333ZM45.898 55.6667H29.1046C28.2206 55.6667 27.5013 54.9473 27.5013 54.0633V49H47.5013V54.0633C47.5013 54.9473 46.782 55.6667 45.898 55.6667Z" fill="#2C6CD5"/>
<path d="M37.4987 49.667C36.028 49.667 34.832 50.863 34.832 52.3337C34.832 53.8043 36.028 55.0003 37.4987 55.0003C38.9694 55.0003 40.1654 53.8043 40.1654 52.3337C40.1654 50.863 38.9694 49.667 37.4987 49.667ZM37.4987 53.667C36.7634 53.667 36.1654 53.069 36.1654 52.3337C36.1654 51.5983 36.7634 51.0003 37.4987 51.0003C38.234 51.0003 38.832 51.5983 38.832 52.3337C38.832 53.069 38.234 53.667 37.4987 53.667Z" fill="#2C6CD5"/>
<path d="M34.8346 20.3333H37.5013C37.87 20.3333 38.168 20.0353 38.168 19.6667C38.168 19.298 37.87 19 37.5013 19H34.8346C34.466 19 34.168 19.298 34.168 19.6667C34.168 20.0353 34.466 20.3333 34.8346 20.3333Z" fill="#2C6CD5"/>
<path d="M39.4987 20.3333H40.1654C40.534 20.3333 40.832 20.0353 40.832 19.6667C40.832 19.298 40.534 19 40.1654 19H39.4987C39.13 19 38.832 19.298 38.832 19.6667C38.832 20.0353 39.13 20.3333 39.4987 20.3333Z" fill="#2C6CD5"/>
<path d="M55.2397 20.0461C54.9791 19.7854 54.5577 19.7854 54.2971 20.0461C54.0364 20.3068 54.0364 20.7281 54.2971 20.9888C56.7877 23.4794 56.7877 27.5321 54.2971 30.0234C54.0364 30.2841 54.0364 30.7054 54.2971 30.9661C54.4271 31.0961 54.5977 31.1614 54.7684 31.1614C54.9391 31.1614 55.1097 31.0961 55.2397 30.9661C58.2504 27.9561 58.2504 23.0568 55.2397 20.0461Z" fill="#2C6CD5"/>
<path d="M52.4311 21.5637C52.1705 21.303 51.7491 21.303 51.4885 21.5637C51.2278 21.8243 51.2278 22.2457 51.4885 22.5063C52.3131 23.331 52.7671 24.4297 52.7671 25.599C52.7671 26.7683 52.3131 27.8663 51.4885 28.691C51.2278 28.9517 51.2278 29.373 51.4885 29.6337C51.6185 29.7637 51.7891 29.829 51.9598 29.829C52.1305 29.829 52.3011 29.7637 52.4311 29.6337C53.5078 28.5577 54.1005 27.1243 54.1005 25.599C54.1005 24.0737 53.5085 22.6397 52.4311 21.5637Z" fill="#2C6CD5"/>
<path d="M20.7007 20.9888C20.9613 20.7281 20.9613 20.3068 20.7007 20.0461C20.44 19.7854 20.0187 19.7854 19.758 20.0461C16.7473 23.0568 16.7473 27.9554 19.758 30.9661C19.888 31.0961 20.0587 31.1614 20.2293 31.1614C20.4 31.1614 20.5707 31.0961 20.7007 30.9661C20.9613 30.7054 20.9613 30.2841 20.7007 30.0234C18.2093 27.5328 18.2093 23.4801 20.7007 20.9888Z" fill="#2C6CD5"/>
<path d="M23.5065 21.3791C23.2459 21.1184 22.8245 21.1184 22.5639 21.3791C21.4872 22.4551 20.8945 23.8884 20.8945 25.4138C20.8945 26.9391 21.4872 28.3724 22.5639 29.4491C22.6939 29.5791 22.8645 29.6444 23.0352 29.6444C23.2059 29.6444 23.3765 29.5791 23.5065 29.4491C23.7672 29.1884 23.7672 28.7671 23.5065 28.5064C22.6819 27.6818 22.2279 26.5831 22.2279 25.4138C22.2279 24.2444 22.6812 23.1464 23.5065 22.3218C23.7665 22.0618 23.7665 21.6398 23.5065 21.3791Z" fill="#2C6CD5"/>
</g>
<defs>
<clipPath id="clip0_3825_1462">
<rect width="40" height="40" fill="white" transform="translate(17.5 17)"/>
</clipPath>
</defs>
</svg>
