<svg width="125" height="38" viewBox="0 0 125 38" fill="none" xmlns="http://www.w3.org/2000/svg">
<path d="M0 35.57V35.1257H1.5752V35.57H0ZM0.37697 37.199V33.5H1.77041C2.38299 33.5 2.83738 33.6548 3.1302 33.9645C3.42303 34.2741 3.57112 34.7353 3.57112 35.3445C3.57112 35.9537 3.42303 36.4148 3.1302 36.7278C2.83738 37.0408 2.38299 37.1957 1.77041 37.1957H0.37697V37.199ZM1.13091 36.5965H1.68627C2.05987 36.5965 2.33924 36.4956 2.52436 36.297C2.70947 36.0984 2.80035 35.782 2.80035 35.3478C2.80035 34.9136 2.70947 34.6006 2.52436 34.3987C2.33924 34.1967 2.05987 34.0991 1.68627 34.0991H1.13091V36.5965Z" fill="white"/>
<path d="M6.64649 37.2665C6.27962 37.2665 5.9666 37.1959 5.7007 37.0579C5.43817 36.9199 5.23286 36.7078 5.09486 36.4251C4.95349 36.1424 4.88281 35.7856 4.88281 35.3514C4.88281 34.7186 5.03427 34.2407 5.34056 33.9176C5.64685 33.5944 6.08104 33.4329 6.64649 33.4329C7.01337 33.4329 7.32639 33.5036 7.59229 33.6416C7.85482 33.7796 8.06013 33.9916 8.19813 34.2743C8.3395 34.5571 8.41018 34.9138 8.41018 35.348C8.41018 35.9808 8.25872 36.4588 7.95243 36.7819C7.64614 37.105 7.21195 37.2665 6.64649 37.2665ZM5.593 32.753L5.07803 32.127H5.7209L5.99353 32.753H5.593ZM6.64649 36.6338C6.86527 36.6338 7.04703 36.59 7.19176 36.5059C7.33649 36.4217 7.44756 36.2837 7.5216 36.0919C7.59565 35.9 7.63268 35.6543 7.63268 35.3447C7.63268 35.035 7.59565 34.7859 7.5216 34.5975C7.44756 34.4123 7.33649 34.2743 7.19176 34.1902C7.04703 34.1061 6.86527 34.0623 6.64649 34.0623C6.42772 34.0623 6.24596 34.106 6.10123 34.1936C5.9565 34.2811 5.84543 34.4157 5.77139 34.6042C5.69734 34.7893 5.66031 35.0384 5.66031 35.3514C5.66031 35.6644 5.69734 35.9101 5.77139 36.0986C5.84543 36.2837 5.9565 36.4217 6.10123 36.5059C6.24596 36.59 6.42772 36.6338 6.64649 36.6338ZM5.93631 33.1401L6.41425 32.4703H6.98981L7.46102 33.1401H6.99654L6.70371 32.7968L6.40416 33.1401H5.93631Z" fill="white"/>
<path d="M9.86328 37.199V33.5H10.5398L12.5593 36.2566L12.3439 36.7009V33.5H13.0473V37.199H12.4314L10.3682 34.4256L10.5667 34.0856V37.1957H9.86328V37.199Z" fill="white"/>
<path d="M16.2889 37.2663C15.9186 37.2663 15.6022 37.199 15.3363 37.0677C15.0704 36.9331 14.8651 36.7277 14.7238 36.445C14.5824 36.1623 14.5117 35.7988 14.5117 35.3511C14.5117 34.9102 14.5824 34.5501 14.7238 34.264C14.8651 33.9779 15.0704 33.7692 15.3363 33.6346C15.6022 33.4999 15.9186 33.4326 16.2855 33.4326C16.511 33.4326 16.7298 33.4562 16.9452 33.4999C17.1606 33.5437 17.3659 33.6076 17.5679 33.6951V34.3986C17.3558 34.2909 17.1572 34.2034 16.9688 34.1394C16.7803 34.0721 16.5851 34.0385 16.3797 34.0385C16.1408 34.0385 15.9355 34.0822 15.7739 34.1664C15.609 34.2505 15.4844 34.3885 15.4037 34.5837C15.3195 34.7756 15.2791 35.0314 15.2791 35.3545C15.2791 35.6709 15.3229 35.9267 15.407 36.1185C15.4912 36.3104 15.6157 36.4517 15.7739 36.5359C15.9355 36.6234 16.1273 36.6672 16.3528 36.6672C16.4673 36.6672 16.575 36.6604 16.6759 36.6436C16.7769 36.6268 16.8745 36.6032 16.962 36.5696V35.7988H16.2687V35.1896H17.716V36.9095C17.4938 37.0273 17.2616 37.1182 17.0226 37.1821C16.7803 37.236 16.5346 37.2663 16.2889 37.2663Z" fill="white"/>
<path d="M21.6484 37.199V33.5H22.4024V35.0415H23.9372V33.5H24.6911V37.199H23.9372V35.6743H22.4024V37.199H21.6484Z" fill="white"/>
<path d="M25.9688 37.1996L27.3891 33.5006H28.2036L29.5634 37.1996H28.7826L27.5742 33.7564L27.9075 33.7227L26.7025 37.1996H25.9688ZM26.7193 36.2975L26.9011 35.722H28.621L28.6883 36.2975H26.7193ZM27.6012 33.2178L27.0862 32.5918H27.7291L28.0017 33.2178H27.6012Z" fill="white"/>
<path d="M30.8359 37.199V33.5H31.5125L33.5319 36.2566L33.3165 36.7009V33.5H34.02V37.199H33.404L31.3408 34.4256L31.5394 34.0856V37.1957H30.8359V37.199Z" fill="white"/>
<path d="M35.6289 37.199V33.5H36.3828V35.0415H37.9177V33.5H38.6716V37.199H37.9177V35.6743H36.3828V37.199H35.6289Z" fill="white"/>
<path d="M42.6328 35.7756V35.2539H44.3258V35.7756H42.6328Z" fill="white"/>
<path d="M47.9102 35.57V35.1257H49.4854V35.57H47.9102ZM48.2871 37.199V33.5H49.6806C50.2932 33.5 50.7475 33.6548 51.0404 33.9645C51.3332 34.2741 51.4813 34.7353 51.4813 35.3445C51.4813 35.9537 51.3332 36.4148 51.0404 36.7278C50.7475 37.0408 50.2932 37.1957 49.6806 37.1957H48.2871V37.199ZM49.0411 36.5965H49.5964C49.97 36.5965 50.2494 36.4956 50.4345 36.297C50.6196 36.0984 50.7105 35.782 50.7105 35.3478C50.7105 34.9136 50.6196 34.6006 50.4345 34.3987C50.2494 34.1967 49.97 34.0991 49.5964 34.0991H49.0411V36.5965Z" fill="white"/>
<path d="M54.5527 37.2665C54.1859 37.2665 53.8729 37.1959 53.607 37.0579C53.3444 36.9199 53.1391 36.7078 53.0011 36.4251C52.8597 36.1424 52.7891 35.7856 52.7891 35.3514C52.7891 34.7186 52.9405 34.2407 53.2468 33.9176C53.5531 33.5944 53.9873 33.4329 54.5527 33.4329C54.9196 33.4329 55.2326 33.5036 55.4985 33.6416C55.7611 33.7796 55.9664 33.9916 56.1044 34.2743C56.2458 34.5571 56.3164 34.9138 56.3164 35.348C56.3164 35.9808 56.165 36.4588 55.8587 36.7819C55.5524 37.105 55.1182 37.2665 54.5527 37.2665ZM53.4992 32.753L52.9843 32.127H53.6272L53.8998 32.753H53.4992ZM54.5527 36.6338C54.7715 36.6338 54.9533 36.59 55.098 36.5059C55.2427 36.4217 55.3538 36.2837 55.4279 36.0919C55.5019 35.9 55.5389 35.6543 55.5389 35.3447C55.5389 35.035 55.5019 34.7859 55.4279 34.5975C55.3538 34.4123 55.2427 34.2743 55.098 34.1902C54.9533 34.1061 54.7715 34.0623 54.5527 34.0623C54.334 34.0623 54.1522 34.106 54.0075 34.1936C53.8628 34.2811 53.7517 34.4157 53.6776 34.6042C53.6036 34.7893 53.5666 35.0384 53.5666 35.3514C53.5666 35.6644 53.6036 35.9101 53.6776 36.0986C53.7517 36.2837 53.8628 36.4217 54.0075 36.5059C54.1522 36.59 54.334 36.6338 54.5527 36.6338ZM53.8426 33.1401L54.3205 32.4703H54.8961L55.3673 33.1401H54.9028L54.61 32.7968L54.3104 33.1401H53.8426Z" fill="white"/>
<path d="M57.7734 37.199V33.5H58.45L60.4694 36.2566L60.254 36.7009V33.5H60.9575V37.199H60.3415L58.2783 34.4256L58.4769 34.0856V37.1957H57.7734V37.199Z" fill="white"/>
<path d="M64.1951 37.2663C63.8249 37.2663 63.5085 37.199 63.2426 37.0677C62.9767 36.9331 62.7714 36.7277 62.63 36.445C62.4887 36.1623 62.418 35.7988 62.418 35.3511C62.418 34.9102 62.4887 34.5501 62.63 34.264C62.7714 33.9779 62.9767 33.7692 63.2426 33.6346C63.5085 33.4999 63.8249 33.4326 64.1917 33.4326C64.4173 33.4326 64.636 33.4562 64.8514 33.4999C65.0669 33.5437 65.2722 33.6076 65.4741 33.6951V34.3986C65.2621 34.2909 65.0635 34.2034 64.875 34.1394C64.6865 34.0721 64.4913 34.0385 64.286 34.0385C64.047 34.0385 63.8417 34.0822 63.6801 34.1664C63.5152 34.2505 63.3907 34.3885 63.3099 34.5837C63.2258 34.7756 63.1854 35.0314 63.1854 35.3545C63.1854 35.6709 63.2291 35.9267 63.3133 36.1185C63.3974 36.3104 63.522 36.4517 63.6801 36.5359C63.8417 36.6234 64.0336 36.6672 64.2591 36.6672C64.3735 36.6672 64.4812 36.6604 64.5822 36.6436C64.6832 36.6268 64.7808 36.6032 64.8683 36.5696V35.7988H64.1749V35.1896H65.6222V36.9095C65.4001 37.0273 65.1678 37.1182 64.9289 37.1821C64.6865 37.236 64.4442 37.2663 64.1951 37.2663Z" fill="white"/>
<path d="M69.5586 37.199V33.5H71.0294C71.3122 33.5 71.5511 33.537 71.743 33.6111C71.9348 33.6851 72.0829 33.7962 72.1806 33.9477C72.2815 34.0957 72.332 34.2876 72.332 34.5165C72.332 34.678 72.295 34.8127 72.2243 34.917C72.1536 35.0213 72.0661 35.1021 71.9651 35.1627C71.8642 35.2233 71.7699 35.2771 71.6824 35.3209L71.5949 35.1593C71.7699 35.1795 71.9248 35.2267 72.0661 35.3007C72.2075 35.3781 72.3186 35.4825 72.4027 35.6137C72.4868 35.7484 72.5306 35.9099 72.5306 36.1018C72.5306 36.3576 72.47 36.5662 72.3522 36.7244C72.2344 36.886 72.0695 37.0038 71.8642 37.0812C71.6555 37.1586 71.4232 37.199 71.1641 37.199H69.5586ZM70.3125 34.9978H71.09C71.1708 34.9978 71.2482 34.9843 71.3189 34.9608C71.3896 34.9372 71.4502 34.8934 71.4973 34.8329C71.5444 34.7723 71.568 34.6848 71.568 34.5737C71.568 34.3919 71.5175 34.2674 71.4199 34.2035C71.3223 34.1361 71.1944 34.1025 71.0395 34.1025H70.3125V34.9978ZM70.3193 36.5965H71.1338C71.2449 36.5965 71.3458 36.5831 71.4401 36.5528C71.5343 36.5225 71.6117 36.4686 71.6689 36.3912C71.7295 36.3138 71.7565 36.2061 71.7565 36.0681C71.7565 35.9638 71.7363 35.8796 71.6992 35.8157C71.6622 35.7517 71.6117 35.7012 71.5511 35.6676C71.4906 35.6339 71.4199 35.607 71.3425 35.5969C71.2651 35.5834 71.1876 35.5767 71.1102 35.5767H70.3125V36.5965H70.3193Z" fill="white"/>
<path d="M75.6035 37.2659C75.2367 37.2659 74.9236 37.1952 74.6577 37.0572C74.3952 36.9192 74.1899 36.7072 74.0519 36.4244C73.9105 36.1417 73.8398 35.7849 73.8398 35.3507C73.8398 34.718 73.9913 34.24 74.2976 33.9169C74.6039 33.5938 75.0381 33.4322 75.6035 33.4322C75.9704 33.4322 76.2834 33.5029 76.5493 33.6409C76.8118 33.7789 77.0172 33.9909 77.1552 34.2737C77.2965 34.5564 77.3672 34.9132 77.3672 35.3474C77.3672 35.9801 77.2157 36.4581 76.9095 36.7812C76.6032 37.1043 76.169 37.2659 75.6035 37.2659ZM75.6035 36.6331C75.8223 36.6331 76.0041 36.5893 76.1488 36.5052C76.2935 36.4211 76.4046 36.2831 76.4786 36.0912C76.5527 35.8994 76.5897 35.6537 76.5897 35.344C76.5897 35.0343 76.5527 34.7853 76.4786 34.5968C76.4046 34.4117 76.2935 34.2737 76.1488 34.1895C76.0041 34.1054 75.8223 34.0616 75.6035 34.0616C75.3847 34.0616 75.203 34.1054 75.0583 34.1929C74.9135 34.2804 74.8025 34.415 74.7284 34.6035C74.6544 34.7886 74.6173 35.0377 74.6173 35.3507C74.6173 35.6638 74.6544 35.9095 74.7284 36.0979C74.8025 36.2831 74.9135 36.4211 75.0583 36.5052C75.203 36.5893 75.3847 36.6331 75.6035 36.6331ZM74.8597 33.163L75.3376 32.4932H75.9132L76.3844 33.163H75.9199L75.6271 32.8196L75.3275 33.163H74.8597ZM75.3477 37.9963V37.4746H75.9031V37.9963H75.3477Z" fill="white"/>
<path d="M81.1758 35.7756V35.2539H82.8688V35.7756H81.1758Z" fill="white"/>
<path d="M86.457 35.57V35.1257H88.0322V35.57H86.457ZM86.834 37.199V33.5H88.2274C88.84 33.5 89.2944 33.6548 89.5872 33.9645C89.8801 34.2741 90.0282 34.7353 90.0282 35.3445C90.0282 35.9537 89.8801 36.4148 89.5872 36.7278C89.2944 37.0408 88.84 37.1957 88.2274 37.1957H86.834V37.199ZM87.5879 36.5965H88.1433C88.5169 36.5965 88.7963 36.4956 88.9814 36.297C89.1665 36.0984 89.2574 35.782 89.2574 35.3478C89.2574 34.9136 89.1665 34.6006 88.9814 34.3987C88.7963 34.2001 88.5169 34.0991 88.1433 34.0991H87.5879V36.5965Z" fill="white"/>
<path d="M93.0996 37.2665C92.7328 37.2665 92.4197 37.1959 92.1538 37.0579C91.8913 36.9199 91.686 36.7078 91.548 36.4251C91.4066 36.1424 91.3359 35.7856 91.3359 35.3514C91.3359 34.7186 91.4874 34.2407 91.7937 33.9176C92.1 33.5944 92.5342 33.4329 93.0996 33.4329C93.4665 33.4329 93.7795 33.5036 94.0454 33.6416C94.3079 33.7796 94.5133 33.9916 94.6513 34.2743C94.7926 34.5571 94.8633 34.9138 94.8633 35.348C94.8633 35.9808 94.7118 36.4588 94.4056 36.7819C94.0993 37.105 93.6651 37.2665 93.0996 37.2665ZM92.0461 32.753L91.5312 32.127H92.174L92.4467 32.753H92.0461ZM93.0996 36.6338C93.3184 36.6338 93.5002 36.59 93.6449 36.5059C93.7896 36.4217 93.9007 36.2837 93.9747 36.0919C94.0488 35.9 94.0858 35.6543 94.0858 35.3447C94.0858 35.035 94.0488 34.7859 93.9747 34.5975C93.9007 34.4123 93.7896 34.2743 93.6449 34.1902C93.5002 34.1061 93.3184 34.0623 93.0996 34.0623C92.8808 34.0623 92.6991 34.106 92.5544 34.1936C92.4096 34.2811 92.2986 34.4157 92.2245 34.6042C92.1505 34.7893 92.1134 35.0384 92.1134 35.3514C92.1134 35.6644 92.1505 35.9101 92.2245 36.0986C92.2986 36.2837 92.4096 36.4217 92.5544 36.5059C92.6991 36.59 92.8808 36.6338 93.0996 36.6338ZM92.3894 33.1401L92.8674 32.4703H93.4429L93.9141 33.1401H93.4497L93.1568 32.7968L92.8573 33.1401H92.3894Z" fill="white"/>
<path d="M96.3203 37.199V33.5H96.9968L99.0163 36.2566L98.8009 36.7009V33.5H99.5044V37.199H98.8884L96.8252 34.4256L97.0238 34.0856V37.1957H96.3203V37.199Z" fill="white"/>
<path d="M102.742 37.2663C102.372 37.2663 102.055 37.199 101.789 37.0677C101.524 36.9331 101.318 36.7277 101.177 36.445C101.036 36.1623 100.965 35.7988 100.965 35.3511C100.965 34.9102 101.036 34.5501 101.177 34.264C101.318 33.9779 101.524 33.7692 101.789 33.6346C102.055 33.4999 102.372 33.4326 102.739 33.4326C102.964 33.4326 103.183 33.4562 103.398 33.4999C103.614 33.5437 103.819 33.6076 104.021 33.6951V34.3986C103.809 34.2909 103.61 34.2034 103.422 34.1394C103.233 34.0721 103.038 34.0385 102.833 34.0385C102.594 34.0385 102.389 34.0822 102.227 34.1664C102.062 34.2505 101.938 34.3885 101.857 34.5837C101.773 34.7756 101.732 35.0314 101.732 35.3545C101.732 35.6709 101.776 35.9267 101.86 36.1185C101.944 36.3104 102.069 36.4517 102.227 36.5359C102.389 36.6234 102.58 36.6672 102.806 36.6672C102.92 36.6672 103.028 36.6604 103.129 36.6436C103.23 36.6268 103.328 36.6032 103.415 36.5696V35.7988H102.722V35.1896H104.169V36.9095C103.947 37.0273 103.715 37.1182 103.476 37.1821C103.233 37.236 102.988 37.2663 102.742 37.2663Z" fill="white"/>
<path d="M108.856 35.9301V37.199H108.102V33.5H109.667C110.094 33.5 110.431 33.5976 110.666 33.7928C110.905 33.988 111.023 34.2876 111.023 34.6848C111.023 35.0819 110.905 35.3916 110.666 35.6036C110.427 35.819 110.094 35.9267 109.667 35.9267H108.856V35.9301ZM108.856 35.3209H109.572C109.7 35.3209 109.808 35.3074 109.892 35.2771C109.976 35.2469 110.04 35.2031 110.087 35.1459C110.135 35.0887 110.168 35.0247 110.188 34.954C110.209 34.8833 110.219 34.8093 110.219 34.7252C110.219 34.641 110.209 34.5602 110.188 34.4862C110.168 34.4121 110.135 34.3448 110.087 34.2876C110.04 34.227 109.973 34.1833 109.892 34.153C109.808 34.1227 109.704 34.1058 109.572 34.1058H108.856V35.3209Z" fill="white"/>
<path d="M112.48 37.199V33.5H113.234V35.0415H114.773V33.5H115.527V37.199H114.773V35.6743H113.238V37.199H112.48Z" fill="white"/>
<path d="M116.805 37.2L118.225 33.501H119.04L120.399 37.2H119.619L118.41 33.7568L118.743 33.7232L117.538 37.2H116.805ZM117.552 36.298L117.734 35.7224H119.454L119.521 36.298H117.552ZM118.424 33.1914L118.656 32.5586H119.393L118.794 33.1914H118.424Z" fill="white"/>
<path d="M122.501 37.199V34.1058H121.387V33.5H124.382V34.1058H123.258V37.199H122.501Z" fill="white"/>
<path d="M124.375 0.0644531L95.5371 0.0745505C91.0673 0.0644531 88.7213 1.5858 87.375 8.03132H112.12L124.375 0.0644531Z" fill="white"/>
<path d="M114.301 8.02705H122.574L124.378 0.635742L114.301 8.02705Z" fill="#F05223"/>
<path d="M116.211 10.6973H96.9353C96.3934 10.6973 96.1241 10.4954 96.1241 10.0847C96.1241 9.96693 96.1443 9.8424 96.1847 9.71113L96.4271 8.87305L87.1206 8.98075L86.646 10.7916C86.4172 11.633 86.1041 12.9356 86.1344 13.4438C86.2926 16.0355 88.1573 16.5639 90.2172 16.6144H109.493C110.035 16.6144 110.304 16.8197 110.304 17.227C110.304 17.3448 110.284 17.4693 110.244 17.6006L109.981 18.5868C109.793 19.2465 109.359 19.5729 108.682 19.5729L84.3506 19.5393L82.3008 27.4287L111.587 27.4658C115.646 27.4658 118.399 24.8337 119.846 19.5729L120.658 16.6144C120.886 15.7864 121.004 15.0426 121.004 14.3862C121.001 11.9393 119.405 10.7108 116.211 10.6973Z" fill="white"/>
<path d="M56.6517 7.97098C56.7257 7.96088 82.3597 7.97771 82.3597 7.97771C82.7401 6.58763 82.9353 5.36248 82.9353 4.34264C82.9353 1.47161 81.4341 0.0310414 78.4318 0.0175781H53.9759C49.8999 0.0310414 47.1365 2.67657 45.6825 7.95415L45.6758 7.97771L56.6517 7.97098Z" fill="white"/>
<path d="M71.79 9.22284L69.1781 18.6235C68.9863 19.2799 68.5521 19.6064 67.8722 19.6064H53.6079C53.0795 19.6064 52.8136 19.4044 52.8136 18.9971C52.8136 18.8928 52.8338 18.7683 52.8742 18.6235L55.4322 9.41132L45.2001 9.52912L42.3964 19.6064C42.0161 20.983 41.8242 22.1812 41.8242 23.2044C41.8242 26.0485 43.3254 27.4722 46.3277 27.4722H70.7803C74.8563 27.4722 77.6196 24.8503 79.0736 19.6097L81.9951 9.1084L71.79 9.22284Z" fill="white"/>
<path d="M40.8876 8.02789L40.901 7.96393C41.2713 6.57049 41.4564 5.35543 41.4564 4.31877C41.4564 1.4511 40.0057 0.0105335 37.1044 -0.00292969L6.86937 0.0610206L5.27734 8.02789H40.8876Z" fill="white"/>
<path d="M31.2179 9.74095L31.3357 10.855H4.48325L0 27.5932L29.6595 27.6134C33.6177 27.6134 36.3002 24.9813 37.7139 19.7206L38.249 17.728C38.3298 17.4251 38.3668 17.1154 38.3668 16.7991C38.3668 15.8802 38.0235 14.8738 37.3369 13.7799C39.04 12.3192 40.0464 11.0065 40.3628 9.83183L40.4166 9.62988L31.2179 9.74095ZM28.3536 17.7448L28.0776 18.731C27.9059 19.3874 27.4919 19.7172 26.8322 19.7172L11.9924 19.697L12.7833 16.7553H27.6232C28.1516 16.7553 28.4141 16.9606 28.4141 17.3679C28.4141 17.489 28.3939 17.6136 28.3536 17.7448Z" fill="white"/>
</svg>
