<svg width="22" height="22" viewBox="0 0 22 22" fill="none" xmlns="http://www.w3.org/2000/svg">
<path d="M0.892578 10.4492C0.892578 14.248 3.06055 17.5879 5.98047 19.1895C7.23047 19.8926 8.22656 18.2031 6.9375 17.4512C4.58398 16.123 2.92383 13.4863 2.92383 10.4492C2.92383 5.9668 6.50781 2.37305 10.9805 2.37305C15.4629 2.37305 19.0762 5.9668 19.0762 10.4492C19.0762 11.1133 19.584 11.4941 20.1211 11.4941C20.6289 11.4941 21.0977 11.1035 21.0977 10.4492C21.0977 4.92188 16.5176 0.351562 10.9805 0.351562C5.45312 0.351562 0.892578 4.92188 0.892578 10.4492ZM5.02344 10.4492C5.02344 12.6074 6.19531 14.4238 7.5625 15.3027C8.67578 16.0352 9.69141 14.541 8.72461 13.8379C7.63086 13.1055 6.91797 11.8652 6.91797 10.4492C6.91797 8.17383 8.72461 6.36719 10.9902 6.36719C13.2461 6.36719 14.9941 8.17383 15.0723 10.4004C15.1016 10.957 15.5215 11.3379 16.0293 11.3379C16.5371 11.3379 16.9668 10.9375 16.9668 10.3906C16.9668 7.17773 14.2617 4.48242 10.9902 4.48242C7.72852 4.48242 5.02344 7.17773 5.02344 10.4492ZM10.6582 17.8809C10.6484 18.3301 11.166 18.4863 11.459 18.1836L12.875 16.7383L14.4863 20.7422C14.584 20.9766 14.8184 21.1133 15.0723 21.0156L16.0684 20.625C16.3223 20.5273 16.3711 20.2441 16.2734 20.0391L14.5547 16.0742L16.5957 16.0254C17.0352 16.0156 17.2402 15.5859 16.9375 15.2637L11.498 9.70703C11.2051 9.41406 10.7656 9.58008 10.7559 10L10.6582 17.8809Z" fill="white"/>
</svg>
