<svg width="24" height="24" viewBox="0 0 24 24" fill="none" xmlns="http://www.w3.org/2000/svg">
<path d="M12 22.1357C17.3901 22.1357 21.8247 17.7012 21.8247 12.311C21.8247 6.91162 17.3901 2.47705 11.9907 2.47705C6.59131 2.47705 2.16602 6.91162 2.16602 12.311C2.16602 17.7012 6.60059 22.1357 12 22.1357ZM12 19.6123C7.9458 19.6123 4.69873 16.356 4.69873 12.311C4.69873 8.25684 7.9458 5.00049 11.9907 5.00049C16.0356 5.00049 19.3013 8.25684 19.3013 12.311C19.3105 16.356 16.0449 19.6123 12 19.6123ZM11.0259 16.7363C11.4155 16.7363 11.7588 16.5322 11.9814 16.1982L16.0728 9.97314C16.2212 9.74121 16.314 9.5 16.314 9.27734C16.314 8.72998 15.8315 8.34033 15.2935 8.34033C14.9409 8.34033 14.6533 8.52588 14.4121 8.90625L11.0073 14.3149L9.48584 12.4502C9.24463 12.1719 9.00342 12.042 8.68799 12.042C8.13135 12.042 7.68604 12.478 7.68604 13.0347C7.68604 13.2944 7.77881 13.5171 7.97363 13.7583L10.0332 16.2168C10.3115 16.5508 10.627 16.7363 11.0259 16.7363Z" fill="#607FE1"/>
</svg>
