<svg width="30" height="22" viewBox="0 0 30 22" fill="none" xmlns="http://www.w3.org/2000/svg">
<path fill-rule="evenodd" clip-rule="evenodd" d="M28.3644 2.57318C28.8302 3.03472 29.1659 3.60912 29.3379 4.23919C30.3288 8.19087 30.0999 14.4319 29.3572 18.5361C29.1851 19.1662 28.8494 19.7406 28.3836 20.2021C27.9177 20.6637 27.338 20.9963 26.7021 21.1668C24.374 21.7958 15.0041 21.7958 15.0041 21.7958C15.0041 21.7958 5.63413 21.7958 3.30608 21.1668C2.67015 20.9963 2.09039 20.6637 1.62454 20.2021C1.1587 19.7406 0.823024 19.1662 0.650942 18.5361C-0.345696 14.6016 -0.0724851 8.35671 0.631704 4.25826C0.803783 3.62819 1.13946 3.05378 1.60531 2.59224C2.07115 2.13069 2.65091 1.79811 3.28684 1.62762C5.61489 0.99855 14.9848 0.979492 14.9848 0.979492C14.9848 0.979492 24.3548 0.979492 26.6828 1.60855C27.3187 1.77905 27.8985 2.11163 28.3644 2.57318ZM19.7756 11.3877L12.0026 15.8483V6.927L19.7756 11.3877Z" fill="white"/>
</svg>
