<svg width="16" height="17" viewBox="0 0 16 17" fill="none" xmlns="http://www.w3.org/2000/svg">
<path d="M8 16.5635C12.3594 16.5635 15.9688 12.9463 15.9688 8.59473C15.9688 4.23535 12.3516 0.625977 7.99219 0.625977C3.64062 0.625977 0.03125 4.23535 0.03125 8.59473C0.03125 12.9463 3.64844 16.5635 8 16.5635ZM8 15.2354C4.3125 15.2354 1.36719 12.2822 1.36719 8.59473C1.36719 4.90723 4.30469 1.9541 7.99219 1.9541C11.6797 1.9541 14.6328 4.90723 14.6406 8.59473C14.6484 12.2822 11.6875 15.2354 8 15.2354ZM7.14062 12.3057C7.39844 12.3057 7.61719 12.1807 7.77344 11.9385L11.3438 6.32129C11.4297 6.17285 11.5312 5.99316 11.5312 5.82129C11.5312 5.47754 11.2188 5.25098 10.8906 5.25098C10.6953 5.25098 10.5 5.36816 10.3516 5.60254L7.10938 10.7979L5.57031 8.81348C5.38281 8.56348 5.21094 8.49316 4.99219 8.49316C4.65625 8.49316 4.39062 8.7666 4.39062 9.11816C4.39062 9.28223 4.46094 9.4541 4.57031 9.60254L6.47656 11.9385C6.67188 12.1963 6.88281 12.3057 7.14062 12.3057Z" fill="url(#paint0_linear_4741_6480)"/>
<defs>
<linearGradient id="paint0_linear_4741_6480" x1="30.866" y1="45.2173" x2="-2.13315" y2="43.9119" gradientUnits="userSpaceOnUse">
<stop stop-color="#C548AB"/>
<stop offset="1" stop-color="#635BFF"/>
</linearGradient>
</defs>
</svg>
