<svg width="30" height="28" viewBox="0 0 30 28" fill="none" xmlns="http://www.w3.org/2000/svg">
<path fill-rule="evenodd" clip-rule="evenodd" d="M6.91823 3.34933C6.91823 4.9639 5.68887 6.27055 3.76635 6.27055C1.91874 6.27055 0.689375 4.9639 0.727421 3.34933C0.689375 1.65629 1.91871 0.387695 3.80318 0.387695C5.68884 0.387695 6.88137 1.65629 6.91823 3.34933ZM0.881989 27.3849V8.57826H6.7268V27.3837H0.881989V27.3849Z" fill="white"/>
<path fill-rule="evenodd" clip-rule="evenodd" d="M11.4124 14.5806C11.4124 12.2349 11.3351 10.2351 11.2578 8.58125H16.3346L16.6044 11.1577H16.7198C17.489 9.96518 19.4116 8.15918 22.5266 8.15918C26.3716 8.15918 29.256 10.6976 29.256 16.2332V27.3878H23.4111V16.9656C23.4111 14.5414 22.5658 12.8888 20.4507 12.8888C18.8349 12.8888 17.8743 14.004 17.4902 15.08C17.3357 15.4652 17.2596 16.0026 17.2596 16.5424V27.3878H11.4147V14.5806H11.4124Z" fill="white"/>
</svg>
