<svg width="31" height="25" viewBox="0 0 31 25" fill="none" xmlns="http://www.w3.org/2000/svg">
<path d="M6.61005 22.9013C7.04349 22.9013 7.37373 22.6949 7.88972 22.2202L10.8103 19.537C10.2323 19.0726 9.73699 18.2883 9.73699 16.6887V9.42351C9.73699 6.17273 11.7287 4.22227 14.9795 4.22227H22.4098L22.3995 3.90235C22.2138 1.84869 20.8515 0.46582 18.3954 0.46582H4.05071C1.57393 0.46582 0.015625 1.91061 0.015625 4.42867V14.7692C0.015625 17.2563 1.54297 18.7837 3.97847 18.7837H5.62966V21.7764C5.62966 22.4576 5.99086 22.9013 6.61005 22.9013ZM23.9991 24.3874C24.6286 24.3874 24.9898 23.9436 24.9898 23.2625V20.2697H26.0528C28.4883 20.2697 30.0156 18.7424 30.0156 16.2553V9.69183C30.0156 7.17377 28.4573 5.72898 25.9805 5.72898H15.2891C12.7194 5.72898 11.254 7.16345 11.254 9.73311V16.2553C11.254 18.763 12.7298 20.2697 15.2891 20.2697H18.9217L22.7298 23.7063C23.2458 24.181 23.5657 24.3874 23.9991 24.3874Z" fill="white"/>
</svg>
