<svg width="13" height="18" viewBox="0 0 13 18" fill="none" xmlns="http://www.w3.org/2000/svg">
<path fill-rule="evenodd" clip-rule="evenodd" d="M6.625 1C3.475 1 1 3.7 1 6.85C1 10 3.8125 13.7125 6.625 16.75C9.4375 13.825 12.25 10.1125 12.25 6.85C12.25 3.5875 9.775 1 6.625 1ZM6.625 2.125C9.1 2.125 11.125 4.2625 11.125 6.85C11.125 8.9875 9.6625 11.6875 6.625 15.0625C3.5875 11.6875 2.125 8.9875 2.125 6.85C2.125 4.2625 4.15 2.125 6.625 2.125ZM6.625 4.375C5.3875 4.375 4.375 5.3875 4.375 6.625C4.375 7.8625 5.3875 8.875 6.625 8.875C7.8625 8.875 8.875 7.8625 8.875 6.625C8.875 5.3875 7.8625 4.375 6.625 4.375ZM6.625 5.5C7.3 5.5 7.75 5.95 7.75 6.625C7.75 7.3 7.3 7.75 6.625 7.75C5.95 7.75 5.5 7.3 5.5 6.625C5.5 5.95 5.95 5.5 6.625 5.5Z" fill="#212529"/>
<path d="M6.625 16.75L6.44156 16.9199L6.62157 17.1143L6.80521 16.9233L6.625 16.75ZM6.625 15.0625L6.43918 15.2297L6.625 15.4362L6.81082 15.2297L6.625 15.0625ZM1.25 6.85C1.25 3.82516 3.62563 1.25 6.625 1.25V0.75C3.32436 0.75 0.75 3.57484 0.75 6.85H1.25ZM6.80844 16.5801C5.40706 15.0667 4.0129 13.3925 2.9703 11.7105C1.92484 10.0238 1.25 8.35612 1.25 6.85H0.75C0.75 8.49388 1.48141 10.2575 2.54532 11.9739C3.6121 13.695 5.03044 15.3958 6.44156 16.9199L6.80844 16.5801ZM12 6.85C12 8.41375 11.3239 10.1101 10.2797 11.7949C9.23783 13.4757 7.84465 15.1209 6.44479 16.5767L6.80521 16.9233C8.21785 15.4541 9.63717 13.7805 10.7047 12.0583C11.7698 10.3399 12.5 8.54875 12.5 6.85H12ZM6.625 1.25C9.62741 1.25 12 3.71585 12 6.85H12.5C12.5 3.45915 9.92259 0.75 6.625 0.75V1.25ZM11.375 6.85C11.375 4.13646 9.2498 1.875 6.625 1.875V2.375C8.9502 2.375 10.875 4.38854 10.875 6.85H11.375ZM6.81082 15.2297C9.85226 11.8504 11.375 9.08854 11.375 6.85H10.875C10.875 8.88646 9.47274 11.5246 6.43918 14.8953L6.81082 15.2297ZM1.875 6.85C1.875 9.08854 3.39774 11.8504 6.43918 15.2297L6.81082 14.8953C3.77726 11.5246 2.375 8.88646 2.375 6.85H1.875ZM6.625 1.875C4.0002 1.875 1.875 4.13646 1.875 6.85H2.375C2.375 4.38854 4.2998 2.375 6.625 2.375V1.875ZM4.625 6.625C4.625 5.52557 5.52557 4.625 6.625 4.625V4.125C5.24943 4.125 4.125 5.24943 4.125 6.625H4.625ZM6.625 8.625C5.52557 8.625 4.625 7.72443 4.625 6.625H4.125C4.125 8.00057 5.24943 9.125 6.625 9.125V8.625ZM8.625 6.625C8.625 7.72443 7.72443 8.625 6.625 8.625V9.125C8.00057 9.125 9.125 8.00057 9.125 6.625H8.625ZM6.625 4.625C7.72443 4.625 8.625 5.52557 8.625 6.625H9.125C9.125 5.24943 8.00057 4.125 6.625 4.125V4.625ZM8 6.625C8 6.23069 7.86747 5.88267 7.6174 5.6326C7.36733 5.38253 7.01931 5.25 6.625 5.25V5.75C6.90569 5.75 7.12017 5.84247 7.26385 5.98615C7.40753 6.12983 7.5 6.34431 7.5 6.625H8ZM6.625 8C7.01931 8 7.36733 7.86747 7.6174 7.6174C7.86747 7.36733 8 7.01931 8 6.625H7.5C7.5 6.90569 7.40753 7.12017 7.26385 7.26385C7.12017 7.40753 6.90569 7.5 6.625 7.5V8ZM5.25 6.625C5.25 7.01931 5.38253 7.36733 5.6326 7.6174C5.88267 7.86747 6.23069 8 6.625 8V7.5C6.34431 7.5 6.12983 7.40753 5.98615 7.26385C5.84247 7.12017 5.75 6.90569 5.75 6.625H5.25ZM6.625 5.25C6.23069 5.25 5.88267 5.38253 5.6326 5.6326C5.38253 5.88267 5.25 6.23069 5.25 6.625H5.75C5.75 6.34431 5.84247 6.12983 5.98615 5.98615C6.12983 5.84247 6.34431 5.75 6.625 5.75V5.25Z" fill="#212529"/>
</svg>
